<?xml version="1.0" encoding="utf-8"?>
<svg xmlns="http://www.w3.org/2000/svg" xmlns:xlink="http://www.w3.org/1999/xlink" width="600" height="400" viewBox="0 0 2400 1600">
<defs>
  <clipPath id="clip970">
    <rect x="0" y="0" width="2400" height="1600"/>
  </clipPath>
</defs>
<path clip-path="url(#clip970)" d="M0 1600 L2400 1600 L2400 0 L0 0  Z" fill="#ffffff" fill-rule="evenodd" fill-opacity="1"/>
<defs>
  <clipPath id="clip971">
    <rect x="480" y="0" width="1681" height="1600"/>
  </clipPath>
</defs>
<path clip-path="url(#clip970)" d="M249.542 1423.18 L2352.76 1423.18 L2352.76 47.2441 L249.542 47.2441  Z" fill="#ffffff" fill-rule="evenodd" fill-opacity="1"/>
<defs>
  <clipPath id="clip972">
    <rect x="249" y="47" width="2104" height="1377"/>
  </clipPath>
</defs>
<polyline clip-path="url(#clip972)" style="stroke:#000000; stroke-linecap:round; stroke-linejoin:round; stroke-width:2; stroke-opacity:0.1; fill:none" points="249.542,1423.18 249.542,47.2441 "/>
<polyline clip-path="url(#clip972)" style="stroke:#000000; stroke-linecap:round; stroke-linejoin:round; stroke-width:2; stroke-opacity:0.1; fill:none" points="670.185,1423.18 670.185,47.2441 "/>
<polyline clip-path="url(#clip972)" style="stroke:#000000; stroke-linecap:round; stroke-linejoin:round; stroke-width:2; stroke-opacity:0.1; fill:none" points="1090.83,1423.18 1090.83,47.2441 "/>
<polyline clip-path="url(#clip972)" style="stroke:#000000; stroke-linecap:round; stroke-linejoin:round; stroke-width:2; stroke-opacity:0.1; fill:none" points="1511.47,1423.18 1511.47,47.2441 "/>
<polyline clip-path="url(#clip972)" style="stroke:#000000; stroke-linecap:round; stroke-linejoin:round; stroke-width:2; stroke-opacity:0.1; fill:none" points="1932.11,1423.18 1932.11,47.2441 "/>
<polyline clip-path="url(#clip972)" style="stroke:#000000; stroke-linecap:round; stroke-linejoin:round; stroke-width:2; stroke-opacity:0.1; fill:none" points="2352.76,1423.18 2352.76,47.2441 "/>
<polyline clip-path="url(#clip970)" style="stroke:#000000; stroke-linecap:round; stroke-linejoin:round; stroke-width:4; stroke-opacity:1; fill:none" points="249.542,1423.18 2352.76,1423.18 "/>
<polyline clip-path="url(#clip970)" style="stroke:#000000; stroke-linecap:round; stroke-linejoin:round; stroke-width:4; stroke-opacity:1; fill:none" points="249.542,1423.18 249.542,1404.28 "/>
<polyline clip-path="url(#clip970)" style="stroke:#000000; stroke-linecap:round; stroke-linejoin:round; stroke-width:4; stroke-opacity:1; fill:none" points="670.185,1423.18 670.185,1404.28 "/>
<polyline clip-path="url(#clip970)" style="stroke:#000000; stroke-linecap:round; stroke-linejoin:round; stroke-width:4; stroke-opacity:1; fill:none" points="1090.83,1423.18 1090.83,1404.28 "/>
<polyline clip-path="url(#clip970)" style="stroke:#000000; stroke-linecap:round; stroke-linejoin:round; stroke-width:4; stroke-opacity:1; fill:none" points="1511.47,1423.18 1511.47,1404.28 "/>
<polyline clip-path="url(#clip970)" style="stroke:#000000; stroke-linecap:round; stroke-linejoin:round; stroke-width:4; stroke-opacity:1; fill:none" points="1932.11,1423.18 1932.11,1404.28 "/>
<polyline clip-path="url(#clip970)" style="stroke:#000000; stroke-linecap:round; stroke-linejoin:round; stroke-width:4; stroke-opacity:1; fill:none" points="2352.76,1423.18 2352.76,1404.28 "/>
<path clip-path="url(#clip970)" d="M196.765 1454.1 Q193.153 1454.1 191.325 1457.66 Q189.519 1461.2 189.519 1468.33 Q189.519 1475.44 191.325 1479.01 Q193.153 1482.55 196.765 1482.55 Q200.399 1482.55 202.204 1479.01 Q204.033 1475.44 204.033 1468.33 Q204.033 1461.2 202.204 1457.66 Q200.399 1454.1 196.765 1454.1 M196.765 1450.39 Q202.575 1450.39 205.63 1455 Q208.709 1459.58 208.709 1468.33 Q208.709 1477.06 205.63 1481.67 Q202.575 1486.25 196.765 1486.25 Q190.954 1486.25 187.876 1481.67 Q184.82 1477.06 184.82 1468.33 Q184.82 1459.58 187.876 1455 Q190.954 1450.39 196.765 1450.39 Z" fill="#000000" fill-rule="nonzero" fill-opacity="1" /><path clip-path="url(#clip970)" d="M216.926 1479.7 L221.811 1479.7 L221.811 1485.58 L216.926 1485.58 L216.926 1479.7 Z" fill="#000000" fill-rule="nonzero" fill-opacity="1" /><path clip-path="url(#clip970)" d="M241.996 1454.1 Q238.385 1454.1 236.556 1457.66 Q234.75 1461.2 234.75 1468.33 Q234.75 1475.44 236.556 1479.01 Q238.385 1482.55 241.996 1482.55 Q245.63 1482.55 247.436 1479.01 Q249.264 1475.44 249.264 1468.33 Q249.264 1461.2 247.436 1457.66 Q245.63 1454.1 241.996 1454.1 M241.996 1450.39 Q247.806 1450.39 250.861 1455 Q253.94 1459.58 253.94 1468.33 Q253.94 1477.06 250.861 1481.67 Q247.806 1486.25 241.996 1486.25 Q236.186 1486.25 233.107 1481.67 Q230.051 1477.06 230.051 1468.33 Q230.051 1459.58 233.107 1455 Q236.186 1450.39 241.996 1450.39 Z" fill="#000000" fill-rule="nonzero" fill-opacity="1" /><path clip-path="url(#clip970)" d="M272.158 1454.1 Q268.547 1454.1 266.718 1457.66 Q264.912 1461.2 264.912 1468.33 Q264.912 1475.44 266.718 1479.01 Q268.547 1482.55 272.158 1482.55 Q275.792 1482.55 277.597 1479.01 Q279.426 1475.44 279.426 1468.33 Q279.426 1461.2 277.597 1457.66 Q275.792 1454.1 272.158 1454.1 M272.158 1450.39 Q277.968 1450.39 281.023 1455 Q284.102 1459.58 284.102 1468.33 Q284.102 1477.06 281.023 1481.67 Q277.968 1486.25 272.158 1486.25 Q266.347 1486.25 263.269 1481.67 Q260.213 1477.06 260.213 1468.33 Q260.213 1459.58 263.269 1455 Q266.347 1450.39 272.158 1450.39 Z" fill="#000000" fill-rule="nonzero" fill-opacity="1" /><path clip-path="url(#clip970)" d="M302.32 1454.1 Q298.708 1454.1 296.88 1457.66 Q295.074 1461.2 295.074 1468.33 Q295.074 1475.44 296.88 1479.01 Q298.708 1482.55 302.32 1482.55 Q305.954 1482.55 307.759 1479.01 Q309.588 1475.44 309.588 1468.33 Q309.588 1461.2 307.759 1457.66 Q305.954 1454.1 302.32 1454.1 M302.32 1450.39 Q308.13 1450.39 311.185 1455 Q314.264 1459.58 314.264 1468.33 Q314.264 1477.06 311.185 1481.67 Q308.13 1486.25 302.32 1486.25 Q296.509 1486.25 293.431 1481.67 Q290.375 1477.06 290.375 1468.33 Q290.375 1459.58 293.431 1455 Q296.509 1450.39 302.32 1450.39 Z" fill="#000000" fill-rule="nonzero" fill-opacity="1" /><path clip-path="url(#clip970)" d="M618.206 1454.1 Q614.595 1454.1 612.766 1457.66 Q610.961 1461.2 610.961 1468.33 Q610.961 1475.44 612.766 1479.01 Q614.595 1482.55 618.206 1482.55 Q621.84 1482.55 623.646 1479.01 Q625.474 1475.44 625.474 1468.33 Q625.474 1461.2 623.646 1457.66 Q621.84 1454.1 618.206 1454.1 M618.206 1450.39 Q624.016 1450.39 627.072 1455 Q630.15 1459.58 630.15 1468.33 Q630.15 1477.06 627.072 1481.67 Q624.016 1486.25 618.206 1486.25 Q612.396 1486.25 609.317 1481.67 Q606.262 1477.06 606.262 1468.33 Q606.262 1459.58 609.317 1455 Q612.396 1450.39 618.206 1450.39 Z" fill="#000000" fill-rule="nonzero" fill-opacity="1" /><path clip-path="url(#clip970)" d="M638.368 1479.7 L643.252 1479.7 L643.252 1485.58 L638.368 1485.58 L638.368 1479.7 Z" fill="#000000" fill-rule="nonzero" fill-opacity="1" /><path clip-path="url(#clip970)" d="M663.437 1454.1 Q659.826 1454.1 657.997 1457.66 Q656.192 1461.2 656.192 1468.33 Q656.192 1475.44 657.997 1479.01 Q659.826 1482.55 663.437 1482.55 Q667.071 1482.55 668.877 1479.01 Q670.706 1475.44 670.706 1468.33 Q670.706 1461.2 668.877 1457.66 Q667.071 1454.1 663.437 1454.1 M663.437 1450.39 Q669.247 1450.39 672.303 1455 Q675.382 1459.58 675.382 1468.33 Q675.382 1477.06 672.303 1481.67 Q669.247 1486.25 663.437 1486.25 Q657.627 1486.25 654.548 1481.67 Q651.493 1477.06 651.493 1468.33 Q651.493 1459.58 654.548 1455 Q657.627 1450.39 663.437 1450.39 Z" fill="#000000" fill-rule="nonzero" fill-opacity="1" /><path clip-path="url(#clip970)" d="M693.599 1454.1 Q689.988 1454.1 688.159 1457.66 Q686.354 1461.2 686.354 1468.33 Q686.354 1475.44 688.159 1479.01 Q689.988 1482.55 693.599 1482.55 Q697.233 1482.55 699.039 1479.01 Q700.868 1475.44 700.868 1468.33 Q700.868 1461.2 699.039 1457.66 Q697.233 1454.1 693.599 1454.1 M693.599 1450.39 Q699.409 1450.39 702.465 1455 Q705.543 1459.58 705.543 1468.33 Q705.543 1477.06 702.465 1481.67 Q699.409 1486.25 693.599 1486.25 Q687.789 1486.25 684.71 1481.67 Q681.655 1477.06 681.655 1468.33 Q681.655 1459.58 684.71 1455 Q687.789 1450.39 693.599 1450.39 Z" fill="#000000" fill-rule="nonzero" fill-opacity="1" /><path clip-path="url(#clip970)" d="M717.789 1481.64 L734.108 1481.64 L734.108 1485.58 L712.164 1485.58 L712.164 1481.64 Q714.826 1478.89 719.409 1474.26 Q724.016 1469.61 725.196 1468.27 Q727.441 1465.74 728.321 1464.01 Q729.224 1462.25 729.224 1460.56 Q729.224 1457.8 727.279 1456.07 Q725.358 1454.33 722.256 1454.33 Q720.057 1454.33 717.604 1455.09 Q715.173 1455.86 712.395 1457.41 L712.395 1452.69 Q715.219 1451.55 717.673 1450.97 Q720.127 1450.39 722.164 1450.39 Q727.534 1450.39 730.728 1453.08 Q733.923 1455.77 733.923 1460.26 Q733.923 1462.39 733.113 1464.31 Q732.326 1466.2 730.219 1468.8 Q729.641 1469.47 726.539 1472.69 Q723.437 1475.88 717.789 1481.64 Z" fill="#000000" fill-rule="nonzero" fill-opacity="1" /><path clip-path="url(#clip970)" d="M1037.81 1454.1 Q1034.2 1454.1 1032.37 1457.66 Q1030.56 1461.2 1030.56 1468.33 Q1030.56 1475.44 1032.37 1479.01 Q1034.2 1482.55 1037.81 1482.55 Q1041.44 1482.55 1043.25 1479.01 Q1045.08 1475.44 1045.08 1468.33 Q1045.08 1461.2 1043.25 1457.66 Q1041.44 1454.1 1037.81 1454.1 M1037.81 1450.39 Q1043.62 1450.39 1046.67 1455 Q1049.75 1459.58 1049.75 1468.33 Q1049.75 1477.06 1046.67 1481.67 Q1043.62 1486.25 1037.81 1486.25 Q1032 1486.25 1028.92 1481.67 Q1025.86 1477.06 1025.86 1468.33 Q1025.86 1459.58 1028.92 1455 Q1032 1450.39 1037.81 1450.39 Z" fill="#000000" fill-rule="nonzero" fill-opacity="1" /><path clip-path="url(#clip970)" d="M1057.97 1479.7 L1062.85 1479.7 L1062.85 1485.58 L1057.97 1485.58 L1057.97 1479.7 Z" fill="#000000" fill-rule="nonzero" fill-opacity="1" /><path clip-path="url(#clip970)" d="M1083.04 1454.1 Q1079.43 1454.1 1077.6 1457.66 Q1075.79 1461.2 1075.79 1468.33 Q1075.79 1475.44 1077.6 1479.01 Q1079.43 1482.55 1083.04 1482.55 Q1086.67 1482.55 1088.48 1479.01 Q1090.31 1475.44 1090.31 1468.33 Q1090.31 1461.2 1088.48 1457.66 Q1086.67 1454.1 1083.04 1454.1 M1083.04 1450.39 Q1088.85 1450.39 1091.9 1455 Q1094.98 1459.58 1094.98 1468.33 Q1094.98 1477.06 1091.9 1481.67 Q1088.85 1486.25 1083.04 1486.25 Q1077.23 1486.25 1074.15 1481.67 Q1071.09 1477.06 1071.09 1468.33 Q1071.09 1459.58 1074.15 1455 Q1077.23 1450.39 1083.04 1450.39 Z" fill="#000000" fill-rule="nonzero" fill-opacity="1" /><path clip-path="url(#clip970)" d="M1113.2 1454.1 Q1109.59 1454.1 1107.76 1457.66 Q1105.95 1461.2 1105.95 1468.33 Q1105.95 1475.44 1107.76 1479.01 Q1109.59 1482.55 1113.2 1482.55 Q1116.83 1482.55 1118.64 1479.01 Q1120.47 1475.44 1120.47 1468.33 Q1120.47 1461.2 1118.64 1457.66 Q1116.83 1454.1 1113.2 1454.1 M1113.2 1450.39 Q1119.01 1450.39 1122.07 1455 Q1125.14 1459.58 1125.14 1468.33 Q1125.14 1477.06 1122.07 1481.67 Q1119.01 1486.25 1113.2 1486.25 Q1107.39 1486.25 1104.31 1481.67 Q1101.26 1477.06 1101.26 1468.33 Q1101.26 1459.58 1104.31 1455 Q1107.39 1450.39 1113.2 1450.39 Z" fill="#000000" fill-rule="nonzero" fill-opacity="1" /><path clip-path="url(#clip970)" d="M1146.21 1455.09 L1134.4 1473.54 L1146.21 1473.54 L1146.21 1455.09 M1144.98 1451.02 L1150.86 1451.02 L1150.86 1473.54 L1155.79 1473.54 L1155.79 1477.43 L1150.86 1477.43 L1150.86 1485.58 L1146.21 1485.58 L1146.21 1477.43 L1130.61 1477.43 L1130.61 1472.92 L1144.98 1451.02 Z" fill="#000000" fill-rule="nonzero" fill-opacity="1" /><path clip-path="url(#clip970)" d="M1458.61 1454.1 Q1455 1454.1 1453.17 1457.66 Q1451.37 1461.2 1451.37 1468.33 Q1451.37 1475.44 1453.17 1479.01 Q1455 1482.55 1458.61 1482.55 Q1462.25 1482.55 1464.05 1479.01 Q1465.88 1475.44 1465.88 1468.33 Q1465.88 1461.2 1464.05 1457.66 Q1462.25 1454.1 1458.61 1454.1 M1458.61 1450.39 Q1464.42 1450.39 1467.48 1455 Q1470.56 1459.58 1470.56 1468.33 Q1470.56 1477.06 1467.48 1481.67 Q1464.42 1486.25 1458.61 1486.25 Q1452.8 1486.25 1449.72 1481.67 Q1446.67 1477.06 1446.67 1468.33 Q1446.67 1459.58 1449.72 1455 Q1452.8 1450.39 1458.61 1450.39 Z" fill="#000000" fill-rule="nonzero" fill-opacity="1" /><path clip-path="url(#clip970)" d="M1478.77 1479.7 L1483.66 1479.7 L1483.66 1485.58 L1478.77 1485.58 L1478.77 1479.7 Z" fill="#000000" fill-rule="nonzero" fill-opacity="1" /><path clip-path="url(#clip970)" d="M1503.84 1454.1 Q1500.23 1454.1 1498.4 1457.66 Q1496.6 1461.2 1496.6 1468.33 Q1496.6 1475.44 1498.4 1479.01 Q1500.23 1482.55 1503.84 1482.55 Q1507.48 1482.55 1509.28 1479.01 Q1511.11 1475.44 1511.11 1468.33 Q1511.11 1461.2 1509.28 1457.66 Q1507.48 1454.1 1503.84 1454.1 M1503.84 1450.39 Q1509.65 1450.39 1512.71 1455 Q1515.79 1459.58 1515.79 1468.33 Q1515.79 1477.06 1512.71 1481.67 Q1509.65 1486.25 1503.84 1486.25 Q1498.03 1486.25 1494.95 1481.67 Q1491.9 1477.06 1491.9 1468.33 Q1491.9 1459.58 1494.95 1455 Q1498.03 1450.39 1503.84 1450.39 Z" fill="#000000" fill-rule="nonzero" fill-opacity="1" /><path clip-path="url(#clip970)" d="M1534 1454.1 Q1530.39 1454.1 1528.57 1457.66 Q1526.76 1461.2 1526.76 1468.33 Q1526.76 1475.44 1528.57 1479.01 Q1530.39 1482.55 1534 1482.55 Q1537.64 1482.55 1539.44 1479.01 Q1541.27 1475.44 1541.27 1468.33 Q1541.27 1461.2 1539.44 1457.66 Q1537.64 1454.1 1534 1454.1 M1534 1450.39 Q1539.82 1450.39 1542.87 1455 Q1545.95 1459.58 1545.95 1468.33 Q1545.95 1477.06 1542.87 1481.67 Q1539.82 1486.25 1534 1486.25 Q1528.19 1486.25 1525.12 1481.67 Q1522.06 1477.06 1522.06 1468.33 Q1522.06 1459.58 1525.12 1455 Q1528.19 1450.39 1534 1450.39 Z" fill="#000000" fill-rule="nonzero" fill-opacity="1" /><path clip-path="url(#clip970)" d="M1564.75 1466.44 Q1561.6 1466.44 1559.75 1468.59 Q1557.92 1470.74 1557.92 1474.49 Q1557.92 1478.22 1559.75 1480.39 Q1561.6 1482.55 1564.75 1482.55 Q1567.89 1482.55 1569.72 1480.39 Q1571.57 1478.22 1571.57 1474.49 Q1571.57 1470.74 1569.72 1468.59 Q1567.89 1466.44 1564.75 1466.44 M1574.03 1451.78 L1574.03 1456.04 Q1572.27 1455.21 1570.46 1454.77 Q1568.68 1454.33 1566.92 1454.33 Q1562.29 1454.33 1559.84 1457.45 Q1557.41 1460.58 1557.06 1466.9 Q1558.43 1464.89 1560.49 1463.82 Q1562.55 1462.73 1565.02 1462.73 Q1570.23 1462.73 1573.24 1465.9 Q1576.27 1469.05 1576.27 1474.49 Q1576.27 1479.82 1573.13 1483.03 Q1569.98 1486.25 1564.75 1486.25 Q1558.75 1486.25 1555.58 1481.67 Q1552.41 1477.06 1552.41 1468.33 Q1552.41 1460.14 1556.3 1455.28 Q1560.19 1450.39 1566.74 1450.39 Q1568.5 1450.39 1570.28 1450.74 Q1572.08 1451.09 1574.03 1451.78 Z" fill="#000000" fill-rule="nonzero" fill-opacity="1" /><path clip-path="url(#clip970)" d="M1879.38 1454.1 Q1875.77 1454.1 1873.94 1457.66 Q1872.14 1461.2 1872.14 1468.33 Q1872.14 1475.44 1873.94 1479.01 Q1875.77 1482.55 1879.38 1482.55 Q1883.02 1482.55 1884.82 1479.01 Q1886.65 1475.44 1886.65 1468.33 Q1886.65 1461.2 1884.82 1457.66 Q1883.02 1454.1 1879.38 1454.1 M1879.38 1450.39 Q1885.19 1450.39 1888.25 1455 Q1891.33 1459.58 1891.33 1468.33 Q1891.33 1477.06 1888.25 1481.67 Q1885.19 1486.25 1879.38 1486.25 Q1873.57 1486.25 1870.49 1481.67 Q1867.44 1477.06 1867.44 1468.33 Q1867.44 1459.58 1870.49 1455 Q1873.57 1450.39 1879.38 1450.39 Z" fill="#000000" fill-rule="nonzero" fill-opacity="1" /><path clip-path="url(#clip970)" d="M1899.54 1479.7 L1904.43 1479.7 L1904.43 1485.58 L1899.54 1485.58 L1899.54 1479.7 Z" fill="#000000" fill-rule="nonzero" fill-opacity="1" /><path clip-path="url(#clip970)" d="M1924.61 1454.1 Q1921 1454.1 1919.17 1457.66 Q1917.37 1461.2 1917.37 1468.33 Q1917.37 1475.44 1919.17 1479.01 Q1921 1482.55 1924.61 1482.55 Q1928.25 1482.55 1930.05 1479.01 Q1931.88 1475.44 1931.88 1468.33 Q1931.88 1461.2 1930.05 1457.66 Q1928.25 1454.1 1924.61 1454.1 M1924.61 1450.39 Q1930.42 1450.39 1933.48 1455 Q1936.56 1459.58 1936.56 1468.33 Q1936.56 1477.06 1933.48 1481.67 Q1930.42 1486.25 1924.61 1486.25 Q1918.8 1486.25 1915.72 1481.67 Q1912.67 1477.06 1912.67 1468.33 Q1912.67 1459.58 1915.72 1455 Q1918.8 1450.39 1924.61 1450.39 Z" fill="#000000" fill-rule="nonzero" fill-opacity="1" /><path clip-path="url(#clip970)" d="M1954.78 1454.1 Q1951.16 1454.1 1949.34 1457.66 Q1947.53 1461.2 1947.53 1468.33 Q1947.53 1475.44 1949.34 1479.01 Q1951.16 1482.55 1954.78 1482.55 Q1958.41 1482.55 1960.21 1479.01 Q1962.04 1475.44 1962.04 1468.33 Q1962.04 1461.2 1960.21 1457.66 Q1958.41 1454.1 1954.78 1454.1 M1954.78 1450.39 Q1960.59 1450.39 1963.64 1455 Q1966.72 1459.58 1966.72 1468.33 Q1966.72 1477.06 1963.64 1481.67 Q1960.59 1486.25 1954.78 1486.25 Q1948.96 1486.25 1945.89 1481.67 Q1942.83 1477.06 1942.83 1468.33 Q1942.83 1459.58 1945.89 1455 Q1948.96 1450.39 1954.78 1450.39 Z" fill="#000000" fill-rule="nonzero" fill-opacity="1" /><path clip-path="url(#clip970)" d="M1984.94 1469.17 Q1981.6 1469.17 1979.68 1470.95 Q1977.78 1472.73 1977.78 1475.86 Q1977.78 1478.98 1979.68 1480.77 Q1981.6 1482.55 1984.94 1482.55 Q1988.27 1482.55 1990.19 1480.77 Q1992.11 1478.96 1992.11 1475.86 Q1992.11 1472.73 1990.19 1470.95 Q1988.29 1469.17 1984.94 1469.17 M1980.26 1467.18 Q1977.25 1466.44 1975.56 1464.38 Q1973.9 1462.32 1973.9 1459.35 Q1973.9 1455.21 1976.84 1452.8 Q1979.8 1450.39 1984.94 1450.39 Q1990.1 1450.39 1993.04 1452.8 Q1995.98 1455.21 1995.98 1459.35 Q1995.98 1462.32 1994.29 1464.38 Q1992.62 1466.44 1989.64 1467.18 Q1993.02 1467.96 1994.89 1470.26 Q1996.79 1472.55 1996.79 1475.86 Q1996.79 1480.88 1993.71 1483.57 Q1990.65 1486.25 1984.94 1486.25 Q1979.22 1486.25 1976.14 1483.57 Q1973.09 1480.88 1973.09 1475.86 Q1973.09 1472.55 1974.98 1470.26 Q1976.88 1467.96 1980.26 1467.18 M1978.55 1459.79 Q1978.55 1462.48 1980.21 1463.98 Q1981.9 1465.49 1984.94 1465.49 Q1987.95 1465.49 1989.64 1463.98 Q1991.35 1462.48 1991.35 1459.79 Q1991.35 1457.11 1989.64 1455.6 Q1987.95 1454.1 1984.94 1454.1 Q1981.9 1454.1 1980.21 1455.6 Q1978.55 1457.11 1978.55 1459.79 Z" fill="#000000" fill-rule="nonzero" fill-opacity="1" /><path clip-path="url(#clip970)" d="M2299.98 1454.1 Q2296.37 1454.1 2294.54 1457.66 Q2292.73 1461.2 2292.73 1468.33 Q2292.73 1475.44 2294.54 1479.01 Q2296.37 1482.55 2299.98 1482.55 Q2303.61 1482.55 2305.42 1479.01 Q2307.25 1475.44 2307.25 1468.33 Q2307.25 1461.2 2305.42 1457.66 Q2303.61 1454.1 2299.98 1454.1 M2299.98 1450.39 Q2305.79 1450.39 2308.84 1455 Q2311.92 1459.58 2311.92 1468.33 Q2311.92 1477.06 2308.84 1481.67 Q2305.79 1486.25 2299.98 1486.25 Q2294.17 1486.25 2291.09 1481.67 Q2288.03 1477.06 2288.03 1468.33 Q2288.03 1459.58 2291.09 1455 Q2294.17 1450.39 2299.98 1450.39 Z" fill="#000000" fill-rule="nonzero" fill-opacity="1" /><path clip-path="url(#clip970)" d="M2320.14 1479.7 L2325.02 1479.7 L2325.02 1485.58 L2320.14 1485.58 L2320.14 1479.7 Z" fill="#000000" fill-rule="nonzero" fill-opacity="1" /><path clip-path="url(#clip970)" d="M2345.21 1454.1 Q2341.6 1454.1 2339.77 1457.66 Q2337.96 1461.2 2337.96 1468.33 Q2337.96 1475.44 2339.77 1479.01 Q2341.6 1482.55 2345.21 1482.55 Q2348.84 1482.55 2350.65 1479.01 Q2352.48 1475.44 2352.48 1468.33 Q2352.48 1461.2 2350.65 1457.66 Q2348.84 1454.1 2345.21 1454.1 M2345.21 1450.39 Q2351.02 1450.39 2354.08 1455 Q2357.15 1459.58 2357.15 1468.33 Q2357.15 1477.06 2354.08 1481.67 Q2351.02 1486.25 2345.21 1486.25 Q2339.4 1486.25 2336.32 1481.67 Q2333.27 1477.06 2333.27 1468.33 Q2333.27 1459.58 2336.32 1455 Q2339.4 1450.39 2345.21 1450.39 Z" fill="#000000" fill-rule="nonzero" fill-opacity="1" /><path clip-path="url(#clip970)" d="M2366.18 1481.64 L2373.82 1481.64 L2373.82 1455.28 L2365.51 1456.95 L2365.51 1452.69 L2373.77 1451.02 L2378.45 1451.02 L2378.45 1481.64 L2386.09 1481.64 L2386.09 1485.58 L2366.18 1485.58 L2366.18 1481.64 Z" fill="#000000" fill-rule="nonzero" fill-opacity="1" /><path clip-path="url(#clip970)" d="M2405.53 1454.1 Q2401.92 1454.1 2400.09 1457.66 Q2398.29 1461.2 2398.29 1468.33 Q2398.29 1475.44 2400.09 1479.01 Q2401.92 1482.55 2405.53 1482.55 Q2409.17 1482.55 2410.97 1479.01 Q2412.8 1475.44 2412.8 1468.33 Q2412.8 1461.2 2410.97 1457.66 Q2409.17 1454.1 2405.53 1454.1 M2405.53 1450.39 Q2411.34 1450.39 2414.4 1455 Q2417.48 1459.58 2417.48 1468.33 Q2417.48 1477.06 2414.4 1481.67 Q2411.34 1486.25 2405.53 1486.25 Q2399.72 1486.25 2396.64 1481.67 Q2393.59 1477.06 2393.59 1468.33 Q2393.59 1459.58 2396.64 1455 Q2399.72 1450.39 2405.53 1450.39 Z" fill="#000000" fill-rule="nonzero" fill-opacity="1" /><path clip-path="url(#clip970)" d="M1188.6 1522.27 L1188.6 1532.4 L1200.67 1532.4 L1200.67 1536.95 L1188.6 1536.95 L1188.6 1556.3 Q1188.6 1560.66 1189.78 1561.9 Q1190.99 1563.14 1194.65 1563.14 L1200.67 1563.14 L1200.67 1568.04 L1194.65 1568.04 Q1187.87 1568.04 1185.29 1565.53 Q1182.71 1562.98 1182.71 1556.3 L1182.71 1536.95 L1178.42 1536.95 L1178.42 1532.4 L1182.71 1532.4 L1182.71 1522.27 L1188.6 1522.27 Z" fill="#000000" fill-rule="nonzero" fill-opacity="1" /><path clip-path="url(#clip970)" d="M1208.37 1532.4 L1214.23 1532.4 L1214.23 1568.04 L1208.37 1568.04 L1208.37 1532.4 M1208.37 1518.52 L1214.23 1518.52 L1214.23 1525.93 L1208.37 1525.93 L1208.37 1518.52 Z" fill="#000000" fill-rule="nonzero" fill-opacity="1" /><path clip-path="url(#clip970)" d="M1254.23 1539.24 Q1256.43 1535.29 1259.49 1533.41 Q1262.54 1531.54 1266.68 1531.54 Q1272.25 1531.54 1275.27 1535.45 Q1278.3 1539.33 1278.3 1546.53 L1278.3 1568.04 L1272.41 1568.04 L1272.41 1546.72 Q1272.41 1541.59 1270.59 1539.11 Q1268.78 1536.63 1265.06 1536.63 Q1260.5 1536.63 1257.86 1539.65 Q1255.22 1542.68 1255.22 1547.9 L1255.22 1568.04 L1249.33 1568.04 L1249.33 1546.72 Q1249.33 1541.56 1247.52 1539.11 Q1245.7 1536.63 1241.92 1536.63 Q1237.43 1536.63 1234.79 1539.68 Q1232.14 1542.71 1232.14 1547.9 L1232.14 1568.04 L1226.26 1568.04 L1226.26 1532.4 L1232.14 1532.4 L1232.14 1537.93 Q1234.15 1534.66 1236.95 1533.1 Q1239.75 1531.54 1243.6 1531.54 Q1247.49 1531.54 1250.19 1533.51 Q1252.93 1535.48 1254.23 1539.24 Z" fill="#000000" fill-rule="nonzero" fill-opacity="1" /><path clip-path="url(#clip970)" d="M1320.47 1548.76 L1320.47 1551.62 L1293.54 1551.62 Q1293.92 1557.67 1297.17 1560.85 Q1300.45 1564 1306.27 1564 Q1309.65 1564 1312.8 1563.17 Q1315.98 1562.35 1319.1 1560.69 L1319.1 1566.23 Q1315.95 1567.57 1312.64 1568.27 Q1309.33 1568.97 1305.92 1568.97 Q1297.39 1568.97 1292.4 1564 Q1287.43 1559.04 1287.43 1550.57 Q1287.43 1541.82 1292.14 1536.69 Q1296.88 1531.54 1304.9 1531.54 Q1312.1 1531.54 1316.27 1536.18 Q1320.47 1540.8 1320.47 1548.76 M1314.61 1547.04 Q1314.55 1542.23 1311.91 1539.37 Q1309.3 1536.5 1304.97 1536.5 Q1300.07 1536.5 1297.11 1539.27 Q1294.18 1542.04 1293.73 1547.07 L1314.61 1547.04 Z" fill="#000000" fill-rule="nonzero" fill-opacity="1" /><path clip-path="url(#clip970)" d="M1350.26 1518.52 L1363.76 1518.52 L1363.76 1523.07 L1356.12 1523.07 L1356.12 1572.09 L1363.76 1572.09 L1363.76 1576.64 L1350.26 1576.64 L1350.26 1518.52 Z" fill="#000000" fill-rule="nonzero" fill-opacity="1" /><path clip-path="url(#clip970)" d="M1398.96 1533.45 L1398.96 1538.98 Q1396.48 1537.71 1393.8 1537.07 Q1391.13 1536.44 1388.26 1536.44 Q1383.9 1536.44 1381.71 1537.77 Q1379.54 1539.11 1379.54 1541.79 Q1379.54 1543.82 1381.1 1545 Q1382.66 1546.15 1387.37 1547.2 L1389.38 1547.64 Q1395.62 1548.98 1398.23 1551.43 Q1400.87 1553.85 1400.87 1558.21 Q1400.87 1563.17 1396.92 1566.07 Q1393.01 1568.97 1386.13 1568.97 Q1383.27 1568.97 1380.15 1568.39 Q1377.06 1567.85 1373.62 1566.74 L1373.62 1560.69 Q1376.87 1562.38 1380.02 1563.24 Q1383.17 1564.07 1386.26 1564.07 Q1390.4 1564.07 1392.62 1562.66 Q1394.85 1561.23 1394.85 1558.65 Q1394.85 1556.27 1393.23 1554.99 Q1391.64 1553.72 1386.19 1552.54 L1384.16 1552.07 Q1378.72 1550.92 1376.3 1548.56 Q1373.88 1546.18 1373.88 1542.04 Q1373.88 1537.01 1377.44 1534.27 Q1381.01 1531.54 1387.56 1531.54 Q1390.81 1531.54 1393.67 1532.01 Q1396.54 1532.49 1398.96 1533.45 Z" fill="#000000" fill-rule="nonzero" fill-opacity="1" /><path clip-path="url(#clip970)" d="M1423.88 1518.52 L1423.88 1576.64 L1410.38 1576.64 L1410.38 1572.09 L1417.99 1572.09 L1417.99 1523.07 L1410.38 1523.07 L1410.38 1518.52 L1423.88 1518.52 Z" fill="#000000" fill-rule="nonzero" fill-opacity="1" /><polyline clip-path="url(#clip972)" style="stroke:#000000; stroke-linecap:round; stroke-linejoin:round; stroke-width:2; stroke-opacity:0.1; fill:none" points="249.542,1384.24 2352.76,1384.24 "/>
<polyline clip-path="url(#clip972)" style="stroke:#000000; stroke-linecap:round; stroke-linejoin:round; stroke-width:2; stroke-opacity:0.1; fill:none" points="249.542,1082.59 2352.76,1082.59 "/>
<polyline clip-path="url(#clip972)" style="stroke:#000000; stroke-linecap:round; stroke-linejoin:round; stroke-width:2; stroke-opacity:0.1; fill:none" points="249.542,780.933 2352.76,780.933 "/>
<polyline clip-path="url(#clip972)" style="stroke:#000000; stroke-linecap:round; stroke-linejoin:round; stroke-width:2; stroke-opacity:0.1; fill:none" points="249.542,479.28 2352.76,479.28 "/>
<polyline clip-path="url(#clip972)" style="stroke:#000000; stroke-linecap:round; stroke-linejoin:round; stroke-width:2; stroke-opacity:0.1; fill:none" points="249.542,177.627 2352.76,177.627 "/>
<polyline clip-path="url(#clip970)" style="stroke:#000000; stroke-linecap:round; stroke-linejoin:round; stroke-width:4; stroke-opacity:1; fill:none" points="249.542,1423.18 249.542,47.2441 "/>
<polyline clip-path="url(#clip970)" style="stroke:#000000; stroke-linecap:round; stroke-linejoin:round; stroke-width:4; stroke-opacity:1; fill:none" points="249.542,1384.24 268.44,1384.24 "/>
<polyline clip-path="url(#clip970)" style="stroke:#000000; stroke-linecap:round; stroke-linejoin:round; stroke-width:4; stroke-opacity:1; fill:none" points="249.542,1082.59 268.44,1082.59 "/>
<polyline clip-path="url(#clip970)" style="stroke:#000000; stroke-linecap:round; stroke-linejoin:round; stroke-width:4; stroke-opacity:1; fill:none" points="249.542,780.933 268.44,780.933 "/>
<polyline clip-path="url(#clip970)" style="stroke:#000000; stroke-linecap:round; stroke-linejoin:round; stroke-width:4; stroke-opacity:1; fill:none" points="249.542,479.28 268.44,479.28 "/>
<polyline clip-path="url(#clip970)" style="stroke:#000000; stroke-linecap:round; stroke-linejoin:round; stroke-width:4; stroke-opacity:1; fill:none" points="249.542,177.627 268.44,177.627 "/>
<path clip-path="url(#clip970)" d="M126.205 1370.04 Q122.593 1370.04 120.765 1373.6 Q118.959 1377.14 118.959 1384.27 Q118.959 1391.38 120.765 1394.94 Q122.593 1398.49 126.205 1398.49 Q129.839 1398.49 131.644 1394.94 Q133.473 1391.38 133.473 1384.27 Q133.473 1377.14 131.644 1373.6 Q129.839 1370.04 126.205 1370.04 M126.205 1366.33 Q132.015 1366.33 135.07 1370.94 Q138.149 1375.52 138.149 1384.27 Q138.149 1393 135.07 1397.61 Q132.015 1402.19 126.205 1402.19 Q120.394 1402.19 117.316 1397.61 Q114.26 1393 114.26 1384.27 Q114.26 1375.52 117.316 1370.94 Q120.394 1366.33 126.205 1366.33 Z" fill="#000000" fill-rule="nonzero" fill-opacity="1" /><path clip-path="url(#clip970)" d="M146.366 1395.64 L151.251 1395.64 L151.251 1401.52 L146.366 1401.52 L146.366 1395.64 Z" fill="#000000" fill-rule="nonzero" fill-opacity="1" /><path clip-path="url(#clip970)" d="M171.436 1370.04 Q167.825 1370.04 165.996 1373.6 Q164.19 1377.14 164.19 1384.27 Q164.19 1391.38 165.996 1394.94 Q167.825 1398.49 171.436 1398.49 Q175.07 1398.49 176.876 1394.94 Q178.704 1391.38 178.704 1384.27 Q178.704 1377.14 176.876 1373.6 Q175.07 1370.04 171.436 1370.04 M171.436 1366.33 Q177.246 1366.33 180.301 1370.94 Q183.38 1375.52 183.38 1384.27 Q183.38 1393 180.301 1397.61 Q177.246 1402.19 171.436 1402.19 Q165.626 1402.19 162.547 1397.61 Q159.491 1393 159.491 1384.27 Q159.491 1375.52 162.547 1370.94 Q165.626 1366.33 171.436 1366.33 Z" fill="#000000" fill-rule="nonzero" fill-opacity="1" /><path clip-path="url(#clip970)" d="M201.598 1370.04 Q197.987 1370.04 196.158 1373.6 Q194.352 1377.14 194.352 1384.27 Q194.352 1391.38 196.158 1394.94 Q197.987 1398.49 201.598 1398.49 Q205.232 1398.49 207.037 1394.94 Q208.866 1391.38 208.866 1384.27 Q208.866 1377.14 207.037 1373.6 Q205.232 1370.04 201.598 1370.04 M201.598 1366.33 Q207.408 1366.33 210.463 1370.94 Q213.542 1375.52 213.542 1384.27 Q213.542 1393 210.463 1397.61 Q207.408 1402.19 201.598 1402.19 Q195.787 1402.19 192.709 1397.61 Q189.653 1393 189.653 1384.27 Q189.653 1375.52 192.709 1370.94 Q195.787 1366.33 201.598 1366.33 Z" fill="#000000" fill-rule="nonzero" fill-opacity="1" /><path clip-path="url(#clip970)" d="M127.2 1068.38 Q123.589 1068.38 121.76 1071.95 Q119.955 1075.49 119.955 1082.62 Q119.955 1089.73 121.76 1093.29 Q123.589 1096.83 127.2 1096.83 Q130.834 1096.83 132.64 1093.29 Q134.468 1089.73 134.468 1082.62 Q134.468 1075.49 132.64 1071.95 Q130.834 1068.38 127.2 1068.38 M127.2 1064.68 Q133.01 1064.68 136.066 1069.29 Q139.144 1073.87 139.144 1082.62 Q139.144 1091.35 136.066 1095.95 Q133.01 1100.54 127.2 1100.54 Q121.39 1100.54 118.311 1095.95 Q115.256 1091.35 115.256 1082.62 Q115.256 1073.87 118.311 1069.29 Q121.39 1064.68 127.2 1064.68 Z" fill="#000000" fill-rule="nonzero" fill-opacity="1" /><path clip-path="url(#clip970)" d="M147.362 1093.99 L152.246 1093.99 L152.246 1099.87 L147.362 1099.87 L147.362 1093.99 Z" fill="#000000" fill-rule="nonzero" fill-opacity="1" /><path clip-path="url(#clip970)" d="M172.431 1068.38 Q168.82 1068.38 166.991 1071.95 Q165.186 1075.49 165.186 1082.62 Q165.186 1089.73 166.991 1093.29 Q168.82 1096.83 172.431 1096.83 Q176.065 1096.83 177.871 1093.29 Q179.7 1089.73 179.7 1082.62 Q179.7 1075.49 177.871 1071.95 Q176.065 1068.38 172.431 1068.38 M172.431 1064.68 Q178.241 1064.68 181.297 1069.29 Q184.376 1073.87 184.376 1082.62 Q184.376 1091.35 181.297 1095.95 Q178.241 1100.54 172.431 1100.54 Q166.621 1100.54 163.542 1095.95 Q160.487 1091.35 160.487 1082.62 Q160.487 1073.87 163.542 1069.29 Q166.621 1064.68 172.431 1064.68 Z" fill="#000000" fill-rule="nonzero" fill-opacity="1" /><path clip-path="url(#clip970)" d="M192.639 1065.31 L210.996 1065.31 L210.996 1069.24 L196.922 1069.24 L196.922 1077.71 Q197.94 1077.37 198.959 1077.2 Q199.977 1077.02 200.996 1077.02 Q206.783 1077.02 210.162 1080.19 Q213.542 1083.36 213.542 1088.78 Q213.542 1094.36 210.07 1097.46 Q206.598 1100.54 200.278 1100.54 Q198.102 1100.54 195.834 1100.17 Q193.588 1099.8 191.181 1099.06 L191.181 1094.36 Q193.264 1095.49 195.487 1096.05 Q197.709 1096.6 200.186 1096.6 Q204.19 1096.6 206.528 1094.5 Q208.866 1092.39 208.866 1088.78 Q208.866 1085.17 206.528 1083.06 Q204.19 1080.95 200.186 1080.95 Q198.311 1080.95 196.436 1081.37 Q194.584 1081.79 192.639 1082.67 L192.639 1065.31 Z" fill="#000000" fill-rule="nonzero" fill-opacity="1" /><path clip-path="url(#clip970)" d="M126.205 766.731 Q122.593 766.731 120.765 770.296 Q118.959 773.838 118.959 780.967 Q118.959 788.074 120.765 791.638 Q122.593 795.18 126.205 795.18 Q129.839 795.18 131.644 791.638 Q133.473 788.074 133.473 780.967 Q133.473 773.838 131.644 770.296 Q129.839 766.731 126.205 766.731 M126.205 763.028 Q132.015 763.028 135.07 767.634 Q138.149 772.217 138.149 780.967 Q138.149 789.694 135.07 794.3 Q132.015 798.884 126.205 798.884 Q120.394 798.884 117.316 794.3 Q114.26 789.694 114.26 780.967 Q114.26 772.217 117.316 767.634 Q120.394 763.028 126.205 763.028 Z" fill="#000000" fill-rule="nonzero" fill-opacity="1" /><path clip-path="url(#clip970)" d="M146.366 792.333 L151.251 792.333 L151.251 798.213 L146.366 798.213 L146.366 792.333 Z" fill="#000000" fill-rule="nonzero" fill-opacity="1" /><path clip-path="url(#clip970)" d="M162.246 794.277 L169.885 794.277 L169.885 767.912 L161.575 769.578 L161.575 765.319 L169.839 763.653 L174.514 763.653 L174.514 794.277 L182.153 794.277 L182.153 798.213 L162.246 798.213 L162.246 794.277 Z" fill="#000000" fill-rule="nonzero" fill-opacity="1" /><path clip-path="url(#clip970)" d="M201.598 766.731 Q197.987 766.731 196.158 770.296 Q194.352 773.838 194.352 780.967 Q194.352 788.074 196.158 791.638 Q197.987 795.18 201.598 795.18 Q205.232 795.18 207.037 791.638 Q208.866 788.074 208.866 780.967 Q208.866 773.838 207.037 770.296 Q205.232 766.731 201.598 766.731 M201.598 763.028 Q207.408 763.028 210.463 767.634 Q213.542 772.217 213.542 780.967 Q213.542 789.694 210.463 794.3 Q207.408 798.884 201.598 798.884 Q195.787 798.884 192.709 794.3 Q189.653 789.694 189.653 780.967 Q189.653 772.217 192.709 767.634 Q195.787 763.028 201.598 763.028 Z" fill="#000000" fill-rule="nonzero" fill-opacity="1" /><path clip-path="url(#clip970)" d="M127.2 465.078 Q123.589 465.078 121.76 468.643 Q119.955 472.185 119.955 479.314 Q119.955 486.421 121.76 489.986 Q123.589 493.527 127.2 493.527 Q130.834 493.527 132.64 489.986 Q134.468 486.421 134.468 479.314 Q134.468 472.185 132.64 468.643 Q130.834 465.078 127.2 465.078 M127.2 461.375 Q133.01 461.375 136.066 465.981 Q139.144 470.564 139.144 479.314 Q139.144 488.041 136.066 492.648 Q133.01 497.231 127.2 497.231 Q121.39 497.231 118.311 492.648 Q115.256 488.041 115.256 479.314 Q115.256 470.564 118.311 465.981 Q121.39 461.375 127.2 461.375 Z" fill="#000000" fill-rule="nonzero" fill-opacity="1" /><path clip-path="url(#clip970)" d="M147.362 490.68 L152.246 490.68 L152.246 496.56 L147.362 496.56 L147.362 490.68 Z" fill="#000000" fill-rule="nonzero" fill-opacity="1" /><path clip-path="url(#clip970)" d="M163.241 492.624 L170.88 492.624 L170.88 466.259 L162.57 467.926 L162.57 463.666 L170.834 462 L175.51 462 L175.51 492.624 L183.149 492.624 L183.149 496.56 L163.241 496.56 L163.241 492.624 Z" fill="#000000" fill-rule="nonzero" fill-opacity="1" /><path clip-path="url(#clip970)" d="M192.639 462 L210.996 462 L210.996 465.935 L196.922 465.935 L196.922 474.407 Q197.94 474.06 198.959 473.898 Q199.977 473.713 200.996 473.713 Q206.783 473.713 210.162 476.884 Q213.542 480.055 213.542 485.472 Q213.542 491.05 210.07 494.152 Q206.598 497.231 200.278 497.231 Q198.102 497.231 195.834 496.861 Q193.588 496.49 191.181 495.749 L191.181 491.05 Q193.264 492.185 195.487 492.74 Q197.709 493.296 200.186 493.296 Q204.19 493.296 206.528 491.189 Q208.866 489.083 208.866 485.472 Q208.866 481.861 206.528 479.754 Q204.19 477.648 200.186 477.648 Q198.311 477.648 196.436 478.064 Q194.584 478.481 192.639 479.361 L192.639 462 Z" fill="#000000" fill-rule="nonzero" fill-opacity="1" /><path clip-path="url(#clip970)" d="M126.205 163.425 Q122.593 163.425 120.765 166.99 Q118.959 170.532 118.959 177.661 Q118.959 184.768 120.765 188.333 Q122.593 191.874 126.205 191.874 Q129.839 191.874 131.644 188.333 Q133.473 184.768 133.473 177.661 Q133.473 170.532 131.644 166.99 Q129.839 163.425 126.205 163.425 M126.205 159.722 Q132.015 159.722 135.07 164.328 Q138.149 168.912 138.149 177.661 Q138.149 186.388 135.07 190.995 Q132.015 195.578 126.205 195.578 Q120.394 195.578 117.316 190.995 Q114.26 186.388 114.26 177.661 Q114.26 168.912 117.316 164.328 Q120.394 159.722 126.205 159.722 Z" fill="#000000" fill-rule="nonzero" fill-opacity="1" /><path clip-path="url(#clip970)" d="M146.366 189.027 L151.251 189.027 L151.251 194.907 L146.366 194.907 L146.366 189.027 Z" fill="#000000" fill-rule="nonzero" fill-opacity="1" /><path clip-path="url(#clip970)" d="M165.464 190.972 L181.783 190.972 L181.783 194.907 L159.839 194.907 L159.839 190.972 Q162.501 188.217 167.084 183.587 Q171.69 178.935 172.871 177.592 Q175.116 175.069 175.996 173.333 Q176.899 171.574 176.899 169.884 Q176.899 167.129 174.954 165.393 Q173.033 163.657 169.931 163.657 Q167.732 163.657 165.278 164.421 Q162.848 165.185 160.07 166.736 L160.07 162.013 Q162.894 160.879 165.348 160.3 Q167.802 159.722 169.839 159.722 Q175.209 159.722 178.403 162.407 Q181.598 165.092 181.598 169.583 Q181.598 171.712 180.788 173.634 Q180.001 175.532 177.894 178.124 Q177.315 178.796 174.214 182.013 Q171.112 185.208 165.464 190.972 Z" fill="#000000" fill-rule="nonzero" fill-opacity="1" /><path clip-path="url(#clip970)" d="M201.598 163.425 Q197.987 163.425 196.158 166.99 Q194.352 170.532 194.352 177.661 Q194.352 184.768 196.158 188.333 Q197.987 191.874 201.598 191.874 Q205.232 191.874 207.037 188.333 Q208.866 184.768 208.866 177.661 Q208.866 170.532 207.037 166.99 Q205.232 163.425 201.598 163.425 M201.598 159.722 Q207.408 159.722 210.463 164.328 Q213.542 168.912 213.542 177.661 Q213.542 186.388 210.463 190.995 Q207.408 195.578 201.598 195.578 Q195.787 195.578 192.709 190.995 Q189.653 186.388 189.653 177.661 Q189.653 168.912 192.709 164.328 Q195.787 159.722 201.598 159.722 Z" fill="#000000" fill-rule="nonzero" fill-opacity="1" /><path clip-path="url(#clip970)" d="M28.3562 784.403 L45.7028 797.294 L64.0042 783.735 L64.0042 790.641 L49.9996 801.017 L64.0042 811.394 L64.0042 818.3 L45.3526 804.455 L28.3562 817.123 L28.3562 810.216 L41.0558 800.763 L28.3562 791.31 L28.3562 784.403 Z" fill="#000000" fill-rule="nonzero" fill-opacity="1" /><path clip-path="url(#clip970)" d="M14.479 755.28 L14.479 741.785 L19.0304 741.785 L19.0304 749.423 L68.0464 749.423 L68.0464 741.785 L72.5979 741.785 L72.5979 755.28 L14.479 755.28 Z" fill="#000000" fill-rule="nonzero" fill-opacity="1" /><path clip-path="url(#clip970)" d="M35.1993 701.553 Q31.2526 699.357 29.3747 696.302 Q27.4968 693.246 27.4968 689.108 Q27.4968 683.538 31.4117 680.515 Q35.2948 677.491 42.4881 677.491 L64.0042 677.491 L64.0042 683.379 L42.679 683.379 Q37.5546 683.379 35.072 685.193 Q32.5894 687.008 32.5894 690.732 Q32.5894 695.283 35.6131 697.925 Q38.6368 700.567 43.8567 700.567 L64.0042 700.567 L64.0042 706.455 L42.679 706.455 Q37.5228 706.455 35.072 708.269 Q32.5894 710.083 32.5894 713.871 Q32.5894 718.359 35.6449 721.001 Q38.6686 723.642 43.8567 723.642 L64.0042 723.642 L64.0042 729.531 L28.3562 729.531 L28.3562 723.642 L33.8944 723.642 Q30.616 721.637 29.0564 718.836 Q27.4968 716.035 27.4968 712.184 Q27.4968 708.301 29.4702 705.596 Q31.4436 702.858 35.1993 701.553 Z" fill="#000000" fill-rule="nonzero" fill-opacity="1" /><path clip-path="url(#clip970)" d="M14.479 652.124 L72.5979 652.124 L72.5979 665.619 L68.0464 665.619 L68.0464 658.012 L19.0304 658.012 L19.0304 665.619 L14.479 665.619 L14.479 652.124 Z" fill="#000000" fill-rule="nonzero" fill-opacity="1" /><polyline clip-path="url(#clip972)" style="stroke:#009af9; stroke-linecap:round; stroke-linejoin:round; stroke-width:4; stroke-opacity:1; fill:none" points="249.542,1384.24 251.647,1378.2 253.753,1372.16 255.858,1366.13 257.963,1360.11 260.069,1354.09 262.174,1348.07 264.279,1342.06 266.385,1336.06 268.49,1330.07 270.595,1324.09 272.701,1318.11 274.806,1312.15 276.911,1306.19 279.017,1300.25 281.122,1294.31 283.227,1288.39 285.332,1282.48 287.438,1276.58 289.543,1270.69 291.648,1264.81 293.754,1258.95 295.859,1253.09 297.964,1247.26 300.07,1241.43 302.175,1235.62 304.28,1229.82 306.386,1224.03 308.491,1218.26 310.596,1212.51 312.702,1206.76 314.807,1201.04 316.912,1195.33 319.018,1189.63 321.123,1183.95 323.228,1178.28 325.334,1172.63 327.439,1167 329.544,1161.38 331.649,1155.78 333.755,1150.19 335.86,1144.62 337.965,1139.07 340.071,1133.53 342.176,1128.01 344.281,1122.51 346.387,1117.03 348.492,1111.56 350.597,1106.11 352.703,1100.68 354.808,1095.26 356.913,1089.87 359.019,1084.49 361.124,1079.13 363.229,1073.79 365.335,1068.46 367.44,1063.16 369.545,1057.87 371.651,1052.6 373.756,1047.35 375.861,1042.12 377.967,1036.91 380.072,1031.72 382.177,1026.55 384.282,1021.39 386.388,1016.25 388.493,1011.14 390.598,1006.04 392.704,1000.96 394.809,995.899 396.914,990.858 399.02,985.837 401.125,980.834 403.23,975.851 405.336,970.887 407.441,965.942 409.546,961.017 411.652,956.111 413.757,951.224 415.862,946.357 417.968,941.51 420.073,936.682 422.178,931.873 424.284,927.084 426.389,922.315 428.494,917.565 430.599,912.835 432.705,908.125 434.81,903.434 436.915,898.763 439.021,894.112 441.126,889.48 443.231,884.868 445.337,880.276 447.442,875.703 449.547,871.151 451.653,866.618 453.758,862.105 455.863,857.611 457.969,853.138 460.074,848.684 462.179,844.25 464.285,839.836 466.39,835.441 468.495,831.067 470.601,826.712 472.706,822.377 474.811,818.062 476.917,813.766 479.022,809.491 481.127,805.235 483.232,800.998 485.338,796.782 487.443,792.585 489.548,788.408 491.654,784.251 493.759,780.113 495.864,775.995 497.97,771.897 500.075,767.818 502.18,763.759 504.286,759.719 506.391,755.699 508.496,751.699 510.602,747.717 512.707,743.756 514.812,739.814 516.918,735.891 519.023,731.988 521.128,728.104 523.234,724.239 525.339,720.393 527.444,716.567 529.549,712.76 531.655,708.972 533.76,705.203 535.865,701.454 537.971,697.723 540.076,694.011 542.181,690.319 544.287,686.645 546.392,682.99 548.497,679.354 550.603,675.736 552.708,672.137 554.813,668.557 556.919,664.996 559.024,661.453 561.129,657.928 563.235,654.422 565.34,650.934 567.445,647.464 569.551,644.013 571.656,640.58 573.761,637.165 575.867,633.768 577.972,630.389 580.077,627.028 582.182,623.685 584.288,620.359 586.393,617.051 588.498,613.761 590.604,610.488 592.709,607.233 594.814,603.995 596.92,600.774 599.025,597.571 601.13,594.385 603.236,591.216 605.341,588.064 607.446,584.928 609.552,581.81 611.657,578.709 613.762,575.624 615.868,572.557 617.973,569.506 620.078,566.472 622.184,563.455 624.289,560.454 626.394,557.47 628.499,554.502 630.605,551.551 632.71,548.616 634.815,545.698 636.921,542.795 639.026,539.909 641.131,537.039 643.237,534.185 645.342,531.347 647.447,528.525 649.553,525.719 651.658,522.929 653.763,520.154 655.869,517.395 657.974,514.652 660.079,511.924 662.185,509.212 664.29,506.515 666.395,503.834 668.501,501.167 670.606,498.517 672.711,495.881 674.817,493.26 676.922,490.655 679.027,488.064 681.132,485.489 683.238,482.928 685.343,480.382 687.448,477.851 689.554,475.335 691.659,472.833 693.764,470.346 695.87,467.873 697.975,465.415 700.08,462.971 702.186,460.542 704.291,458.126 706.396,455.725 708.502,453.338 710.607,450.965 712.712,448.607 714.818,446.262 716.923,443.93 719.028,441.613 721.134,439.31 723.239,437.02 725.344,434.744 727.449,432.481 729.555,430.232 731.66,427.996 733.765,425.774 735.871,423.565 737.976,421.369 740.081,419.187 742.187,417.017 744.292,414.861 746.397,412.718 748.503,410.587 750.608,408.47 752.713,406.365 754.819,404.273 756.924,402.194 759.029,400.127 761.135,398.073 763.24,396.032 765.345,394.003 767.451,391.986 769.556,389.981 771.661,387.989 773.767,386.009 775.872,384.041 777.977,382.085 780.082,380.142 782.188,378.21 784.293,376.29 786.398,374.381 788.504,372.485 790.609,370.6 792.714,368.727 794.82,366.865 796.925,365.015 799.03,363.176 801.136,361.349 803.241,359.533 805.346,357.728 807.452,355.934 809.557,354.152 811.662,352.38 813.768,350.62 815.873,348.87 817.978,347.131 820.084,345.403 822.189,343.686 824.294,341.98 826.399,340.284 828.505,338.598 830.61,336.923 832.715,335.259 834.821,333.604 836.926,331.961 839.031,330.327 841.137,328.703 843.242,327.09 845.347,325.486 847.453,323.893 849.558,322.309 851.663,320.736 853.769,319.172 855.874,317.617 857.979,316.073 860.085,314.538 862.19,313.012 864.295,311.496 866.401,309.99 868.506,308.493 870.611,307.005 872.717,305.527 874.822,304.059 876.927,302.599 879.032,301.149 881.138,299.708 883.243,298.276 885.348,296.853 887.454,295.439 889.559,294.034 891.664,292.638 893.77,291.251 895.875,289.873 897.98,288.504 900.086,287.143 902.191,285.791 904.296,284.447 906.402,283.112 908.507,281.786 910.612,280.468 912.718,279.159 914.823,277.858 916.928,276.565 919.034,275.281 921.139,274.005 923.244,272.737 925.349,271.477 927.455,270.226 929.56,268.982 931.665,267.746 933.771,266.519 935.876,265.299 937.981,264.087 940.087,262.883 942.192,261.687 944.297,260.499 946.403,259.318 948.508,258.145 950.613,256.979 952.719,255.821 954.824,254.671 956.929,253.528 959.035,252.393 961.14,251.264 963.245,250.144 965.351,249.03 967.456,247.924 969.561,246.825 971.667,245.733 973.772,244.648 975.877,243.57 977.982,242.5 980.088,241.436 982.193,240.379 984.298,239.329 986.404,238.286 988.509,237.25 990.614,236.221 992.72,235.198 994.825,234.182 996.93,233.173 999.036,232.17 1001.14,231.174 1003.25,230.185 1005.35,229.201 1007.46,228.225 1009.56,227.255 1011.67,226.291 1013.77,225.333 1015.88,224.382 1017.98,223.437 1020.09,222.498 1022.19,221.565 1024.3,220.639 1026.4,219.719 1028.51,218.804 1030.62,217.896 1032.72,216.994 1034.83,216.097 1036.93,215.207 1039.04,214.322 1041.14,213.443 1043.25,212.57 1045.35,211.703 1047.46,210.841 1049.56,209.985 1051.67,209.135 1053.77,208.29 1055.88,207.451 1057.98,206.617 1060.09,205.789 1062.2,204.967 1064.3,204.149 1066.41,203.337 1068.51,202.531 1070.62,201.73 1072.72,200.934 1074.83,200.143 1076.93,199.357 1079.04,198.577 1081.14,197.801 1083.25,197.031 1085.35,196.266 1087.46,195.506 1089.56,194.75 1091.67,194 1093.78,193.255 1095.88,192.514 1097.99,191.779 1100.09,191.048 1102.2,190.322 1104.3,189.601 1106.41,188.885 1108.51,188.174 1110.62,187.467 1112.72,186.765 1114.83,186.067 1116.93,185.374 1119.04,184.686 1121.14,184.003 1123.25,183.324 1125.35,182.649 1127.46,181.979 1129.57,181.314 1131.67,180.653 1133.78,179.996 1135.88,179.344 1137.99,178.696 1140.09,178.052 1142.2,177.413 1144.3,176.778 1146.41,176.147 1148.51,175.521 1150.62,174.899 1152.72,174.281 1154.83,173.667 1156.93,173.057 1159.04,172.451 1161.15,171.85 1163.25,171.252 1165.36,170.659 1167.46,170.07 1169.57,169.484 1171.67,168.903 1173.78,168.325 1175.88,167.752 1177.99,167.182 1180.09,166.616 1182.2,166.054 1184.3,165.496 1186.41,164.941 1188.51,164.391 1190.62,163.844 1192.73,163.3 1194.83,162.761 1196.94,162.225 1199.04,161.693 1201.15,161.164 1203.25,160.639 1205.36,160.118 1207.46,159.6 1209.57,159.086 1211.67,158.575 1213.78,158.068 1215.88,157.564 1217.99,157.063 1220.09,156.566 1222.2,156.073 1224.3,155.583 1226.41,155.096 1228.52,154.612 1230.62,154.132 1232.73,153.655 1234.83,153.181 1236.94,152.711 1239.04,152.243 1241.15,151.779 1243.25,151.318 1245.36,150.86 1247.46,150.406 1249.57,149.954 1251.67,149.506 1253.78,149.06 1255.88,148.618 1257.99,148.179 1260.1,147.742 1262.2,147.309 1264.31,146.878 1266.41,146.451 1268.52,146.026 1270.62,145.605 1272.73,145.186 1274.83,144.77 1276.94,144.357 1279.04,143.946 1281.15,143.539 1283.25,143.134 1285.36,142.732 1287.46,142.333 1289.57,141.936 1291.68,141.542 1293.78,141.151 1295.89,140.762 1297.99,140.376 1300.1,139.993 1302.2,139.612 1304.31,139.234 1306.41,138.859 1308.52,138.485 1310.62,138.115 1312.73,137.747 1314.83,137.381 1316.94,137.018 1319.04,136.657 1321.15,136.299 1323.25,135.943 1325.36,135.59 1327.47,135.239 1329.57,134.89 1331.68,134.543 1333.78,134.199 1335.89,133.857 1337.99,133.518 1340.1,133.181 1342.2,132.845 1344.31,132.513 1346.41,132.182 1348.52,131.854 1350.62,131.527 1352.73,131.203 1354.83,130.881 1356.94,130.562 1359.05,130.244 1361.15,129.929 1363.26,129.615 1365.36,129.304 1367.47,128.995 1369.57,128.688 1371.68,128.383 1373.78,128.08 1375.89,127.779 1377.99,127.48 1380.1,127.184 1382.2,126.889 1384.31,126.596 1386.41,126.305 1388.52,126.017 1390.63,125.73 1392.73,125.445 1394.84,125.162 1396.94,124.881 1399.05,124.602 1401.15,124.325 1403.26,124.049 1405.36,123.776 1407.47,123.504 1409.57,123.235 1411.68,122.967 1413.78,122.701 1415.89,122.437 1417.99,122.174 1420.1,121.914 1422.2,121.655 1424.31,121.398 1426.42,121.143 1428.52,120.889 1430.63,120.638 1432.73,120.388 1434.84,120.139 1436.94,119.893 1439.05,119.648 1441.15,119.405 1443.26,119.163 1445.36,118.924 1447.47,118.686 1449.57,118.449 1451.68,118.214 1453.78,117.981 1455.89,117.749 1458,117.519 1460.1,117.291 1462.21,117.064 1464.31,116.839 1466.42,116.615 1468.52,116.393 1470.63,116.172 1472.73,115.953 1474.84,115.736 1476.94,115.52 1479.05,115.305 1481.15,115.092 1483.26,114.881 1485.36,114.671 1487.47,114.462 1489.58,114.255 1491.68,114.049 1493.79,113.845 1495.89,113.642 1498,113.44 1500.1,113.24 1502.21,113.042 1504.31,112.844 1506.42,112.649 1508.52,112.454 1510.63,112.261 1512.73,112.069 1514.84,111.878 1516.94,111.689 1519.05,111.501 1521.15,111.315 1523.26,111.129 1525.37,110.946 1527.47,110.763 1529.58,110.581 1531.68,110.401 1533.79,110.222 1535.89,110.045 1538,109.868 1540.1,109.693 1542.21,109.519 1544.31,109.346 1546.42,109.174 1548.52,109.004 1550.63,108.835 1552.73,108.667 1554.84,108.5 1556.95,108.334 1559.05,108.169 1561.16,108.006 1563.26,107.843 1565.37,107.682 1567.47,107.522 1569.58,107.363 1571.68,107.205 1573.79,107.048 1575.89,106.893 1578,106.738 1580.1,106.584 1582.21,106.432 1584.31,106.28 1586.42,106.13 1588.53,105.98 1590.63,105.832 1592.74,105.684 1594.84,105.538 1596.95,105.392 1599.05,105.248 1601.16,105.104 1603.26,104.962 1605.37,104.82 1607.47,104.68 1609.58,104.54 1611.68,104.401 1613.79,104.264 1615.89,104.127 1618,103.991 1620.1,103.856 1622.21,103.722 1624.32,103.589 1626.42,103.456 1628.53,103.325 1630.63,103.194 1632.74,103.065 1634.84,102.936 1636.95,102.808 1639.05,102.681 1641.16,102.554 1643.26,102.429 1645.37,102.304 1647.47,102.18 1649.58,102.058 1651.68,101.935 1653.79,101.814 1655.9,101.694 1658,101.574 1660.11,101.455 1662.21,101.337 1664.32,101.22 1666.42,101.103 1668.53,100.988 1670.63,100.873 1672.74,100.758 1674.84,100.645 1676.95,100.533 1679.05,100.421 1681.16,100.31 1683.26,100.199 1685.37,100.09 1687.48,99.981 1689.58,99.8729 1691.69,99.7656 1693.79,99.659 1695.9,99.5532 1698,99.448 1700.11,99.3436 1702.21,99.24 1704.32,99.137 1706.42,99.0348 1708.53,98.9332 1710.63,98.8324 1712.74,98.7322 1714.84,98.6328 1716.95,98.5341 1719.05,98.436 1721.16,98.3386 1723.27,98.2419 1725.37,98.1459 1727.48,98.0505 1729.58,97.9558 1731.69,97.8618 1733.79,97.7684 1735.9,97.6757 1738,97.5837 1740.11,97.4923 1742.21,97.4015 1744.32,97.3114 1746.42,97.2219 1748.53,97.133 1750.63,97.0448 1752.74,96.9571 1754.85,96.8701 1756.95,96.7838 1759.06,96.698 1761.16,96.6128 1763.27,96.5283 1765.37,96.4443 1767.48,96.3609 1769.58,96.2782 1771.69,96.196 1773.79,96.1144 1775.9,96.0334 1778,95.9529 1780.11,95.8731 1782.21,95.7938 1784.32,95.715 1786.43,95.6369 1788.53,95.5592 1790.64,95.4822 1792.74,95.4057 1794.85,95.3297 1796.95,95.2543 1799.06,95.1794 1801.16,95.1051 1803.27,95.0312 1805.37,94.958 1807.48,94.8852 1809.58,94.813 1811.69,94.7412 1813.79,94.67 1815.9,94.5993 1818,94.5291 1820.11,94.4594 1822.22,94.3902 1824.32,94.3215 1826.43,94.2533 1828.53,94.1856 1830.64,94.1184 1832.74,94.0516 1834.85,93.9854 1836.95,93.9196 1839.06,93.8542 1841.16,93.7894 1843.27,93.725 1845.37,93.661 1847.48,93.5975 1849.58,93.5345 1851.69,93.4719 1853.8,93.4098 1855.9,93.3481 1858.01,93.2868 1860.11,93.226 1862.22,93.1656 1864.32,93.1057 1866.43,93.0462 1868.53,92.987 1870.64,92.9284 1872.74,92.8701 1874.85,92.8122 1876.95,92.7548 1879.06,92.6977 1881.16,92.6411 1883.27,92.5848 1885.38,92.529 1887.48,92.4735 1889.59,92.4184 1891.69,92.3637 1893.8,92.3094 1895.9,92.2555 1898.01,92.2019 1900.11,92.1488 1902.22,92.096 1904.32,92.0435 1906.43,91.9914 1908.53,91.9397 1910.64,91.8883 1912.74,91.8373 1914.85,91.7867 1916.95,91.7363 1919.06,91.6864 1921.17,91.6367 1923.27,91.5874 1925.38,91.5385 1927.48,91.4899 1929.59,91.4415 1931.69,91.3936 1933.8,91.3459 1935.9,91.2986 1938.01,91.2516 1940.11,91.2048 1942.22,91.1584 1944.32,91.1123 1946.43,91.0666 1948.53,91.0211 1950.64,90.9759 1952.75,90.931 1954.85,90.8864 1956.96,90.842 1959.06,90.798 1961.17,90.7542 1963.27,90.7108 1965.38,90.6676 1967.48,90.6246 1969.59,90.582 1971.69,90.5396 1973.8,90.4975 1975.9,90.4556 1978.01,90.414 1980.11,90.3727 1982.22,90.3316 1984.33,90.2908 1986.43,90.2503 1988.54,90.21 1990.64,90.17 1992.75,90.1303 1994.85,90.0908 1996.96,90.0516 1999.06,90.0127 2001.17,89.974 2003.27,89.9355 2005.38,89.8974 2007.48,89.8594 2009.59,89.8218 2011.69,89.7844 2013.8,89.7472 2015.9,89.7103 2018.01,89.6736 2020.12,89.6372 2022.22,89.601 2024.33,89.5651 2026.43,89.5294 2028.54,89.494 2030.64,89.4588 2032.75,89.4238 2034.85,89.3891 2036.96,89.3546 2039.06,89.3204 2041.17,89.2864 2043.27,89.2526 2045.38,89.219 2047.48,89.1857 2049.59,89.1526 2051.7,89.1198 2053.8,89.0871 2055.91,89.0547 2058.01,89.0226 2060.12,88.9906 2062.22,88.9589 2064.33,88.9274 2066.43,88.8961 2068.54,88.865 2070.64,88.8341 2072.75,88.8035 2074.85,88.7731 2076.96,88.7428 2079.06,88.7128 2081.17,88.6831 2083.28,88.6535 2085.38,88.6241 2087.49,88.5949 2089.59,88.566 2091.7,88.5372 2093.8,88.5087 2095.91,88.4803 2098.01,88.4522 2100.12,88.4242 2102.22,88.3965 2104.33,88.3689 2106.43,88.3416 2108.54,88.3144 2110.64,88.2875 2112.75,88.2607 2114.85,88.2341 2116.96,88.2077 2119.07,88.1815 2121.17,88.1555 2123.28,88.1297 2125.38,88.104 2127.49,88.0786 2129.59,88.0533 2131.7,88.0282 2133.8,88.0033 2135.91,87.9786 2138.01,87.9541 2140.12,87.9297 2142.22,87.9055 2144.33,87.8815 2146.43,87.8576 2148.54,87.8339 2150.65,87.8104 2152.75,87.7871 2154.86,87.764 2156.96,87.741 2159.07,87.7181 2161.17,87.6955 2163.28,87.673 2165.38,87.6507 2167.49,87.6285 2169.59,87.6065 2171.7,87.5846 2173.8,87.5629 2175.91,87.5414 2178.01,87.52 2180.12,87.4988 2182.23,87.4778 2184.33,87.4569 2186.44,87.4361 2188.54,87.4155 2190.65,87.395 2192.75,87.3747 2194.86,87.3546 2196.96,87.3346 2199.07,87.3147 2201.17,87.295 2203.28,87.2754 2205.38,87.256 2207.49,87.2367 2209.59,87.2175 2211.7,87.1985 2213.8,87.1796 2215.91,87.1609 2218.02,87.1423 2220.12,87.1238 2222.23,87.1055 2224.33,87.0873 2226.44,87.0692 2228.54,87.0513 2230.65,87.0334 2232.75,87.0158 2234.86,86.9982 2236.96,86.9808 2239.07,86.9635 2241.17,86.9463 2243.28,86.9292 2245.38,86.9123 2247.49,86.8955 2249.6,86.8788 2251.7,86.8622 2253.81,86.8457 2255.91,86.8294 2258.02,86.8132 2260.12,86.797 2262.23,86.781 2264.33,86.7652 2266.44,86.7494 2268.54,86.7337 2270.65,86.7182 2272.75,86.7027 2274.86,86.6874 2276.96,86.6721 2279.07,86.657 2281.18,86.642 2283.28,86.627 2285.39,86.6122 2287.49,86.5975 2289.6,86.5829 2291.7,86.5683 2293.81,86.5539 2295.91,86.5396 2298.02,86.5254 2300.12,86.5112 2302.23,86.4972 2304.33,86.4832 2306.44,86.4694 2308.54,86.4556 2310.65,86.4419 2312.75,86.4283 2314.86,86.4148 2316.97,86.4014 2319.07,86.3881 2321.18,86.3748 2323.28,86.3617 2325.39,86.3486 2327.49,86.3356 2329.6,86.3227 2331.7,86.3098 2333.81,86.2971 2335.91,86.2844 2338.02,86.2718 2340.12,86.2593 2342.23,86.2468 2344.33,86.2345 2346.44,86.2222 2348.55,86.2099 2350.65,86.1978 2352.76,86.1857 "/>
<path clip-path="url(#clip970)" d="M1983.23 1377.32 L2282.65 1377.32 L2282.65 1273.64 L1983.23 1273.64  Z" fill="#ffffff" fill-rule="evenodd" fill-opacity="1"/>
<polyline clip-path="url(#clip970)" style="stroke:#000000; stroke-linecap:round; stroke-linejoin:round; stroke-width:4; stroke-opacity:1; fill:none" points="1983.23,1377.32 2282.65,1377.32 2282.65,1273.64 1983.23,1273.64 1983.23,1377.32 "/>
<polyline clip-path="url(#clip970)" style="stroke:#009af9; stroke-linecap:round; stroke-linejoin:round; stroke-width:4; stroke-opacity:1; fill:none" points="2006.6,1325.48 2146.81,1325.48 "/>
<path clip-path="url(#clip970)" d="M2170.18 1332.52 L2170.18 1316.83 L2174.44 1316.83 L2174.44 1332.36 Q2174.44 1336.04 2175.88 1337.89 Q2177.31 1339.72 2180.18 1339.72 Q2183.63 1339.72 2185.62 1337.52 Q2187.64 1335.32 2187.64 1331.53 L2187.64 1316.83 L2191.9 1316.83 L2191.9 1342.76 L2187.64 1342.76 L2187.64 1338.77 Q2186.09 1341.13 2184.03 1342.29 Q2181.99 1343.43 2179.28 1343.43 Q2174.81 1343.43 2172.5 1340.65 Q2170.18 1337.87 2170.18 1332.52 M2180.9 1316.2 L2180.9 1316.2 Z" fill="#000000" fill-rule="nonzero" fill-opacity="1" /><path clip-path="url(#clip970)" d="M2200.28 1306.74 L2210.09 1306.74 L2210.09 1310.05 L2204.53 1310.05 L2204.53 1345.7 L2210.09 1345.7 L2210.09 1349.01 L2200.28 1349.01 L2200.28 1306.74 Z" fill="#000000" fill-rule="nonzero" fill-opacity="1" /><path clip-path="url(#clip970)" d="M2220.58 1338.82 L2228.22 1338.82 L2228.22 1312.45 L2219.9 1314.12 L2219.9 1309.86 L2228.17 1308.2 L2232.84 1308.2 L2232.84 1338.82 L2240.48 1338.82 L2240.48 1342.76 L2220.58 1342.76 L2220.58 1338.82 Z" fill="#000000" fill-rule="nonzero" fill-opacity="1" /><path clip-path="url(#clip970)" d="M2259.28 1306.74 L2259.28 1349.01 L2249.46 1349.01 L2249.46 1345.7 L2255 1345.7 L2255 1310.05 L2249.46 1310.05 L2249.46 1306.74 L2259.28 1306.74 Z" fill="#000000" fill-rule="nonzero" fill-opacity="1" /></svg>
