<?xml version="1.0" encoding="utf-8"?>
<svg xmlns="http://www.w3.org/2000/svg" xmlns:xlink="http://www.w3.org/1999/xlink" width="600" height="400" viewBox="0 0 2400 1600">
<defs>
  <clipPath id="clip090">
    <rect x="0" y="0" width="2400" height="1600"/>
  </clipPath>
</defs>
<path clip-path="url(#clip090)" d="M0 1600 L2400 1600 L2400 0 L0 0  Z" fill="#ffffff" fill-rule="evenodd" fill-opacity="1"/>
<defs>
  <clipPath id="clip091">
    <rect x="480" y="0" width="1681" height="1600"/>
  </clipPath>
</defs>
<path clip-path="url(#clip090)" d="M377.713 1423.18 L2352.76 1423.18 L2352.76 47.2441 L377.713 47.2441  Z" fill="#ffffff" fill-rule="evenodd" fill-opacity="1"/>
<defs>
  <clipPath id="clip092">
    <rect x="377" y="47" width="1976" height="1377"/>
  </clipPath>
</defs>
<polyline clip-path="url(#clip092)" style="stroke:#000000; stroke-linecap:round; stroke-linejoin:round; stroke-width:2; stroke-opacity:0.1; fill:none" points="377.713,1423.18 377.713,47.2441 "/>
<polyline clip-path="url(#clip092)" style="stroke:#000000; stroke-linecap:round; stroke-linejoin:round; stroke-width:2; stroke-opacity:0.1; fill:none" points="772.721,1423.18 772.721,47.2441 "/>
<polyline clip-path="url(#clip092)" style="stroke:#000000; stroke-linecap:round; stroke-linejoin:round; stroke-width:2; stroke-opacity:0.1; fill:none" points="1167.73,1423.18 1167.73,47.2441 "/>
<polyline clip-path="url(#clip092)" style="stroke:#000000; stroke-linecap:round; stroke-linejoin:round; stroke-width:2; stroke-opacity:0.1; fill:none" points="1562.74,1423.18 1562.74,47.2441 "/>
<polyline clip-path="url(#clip092)" style="stroke:#000000; stroke-linecap:round; stroke-linejoin:round; stroke-width:2; stroke-opacity:0.1; fill:none" points="1957.75,1423.18 1957.75,47.2441 "/>
<polyline clip-path="url(#clip092)" style="stroke:#000000; stroke-linecap:round; stroke-linejoin:round; stroke-width:2; stroke-opacity:0.1; fill:none" points="2352.76,1423.18 2352.76,47.2441 "/>
<polyline clip-path="url(#clip090)" style="stroke:#000000; stroke-linecap:round; stroke-linejoin:round; stroke-width:4; stroke-opacity:1; fill:none" points="377.713,1423.18 2352.76,1423.18 "/>
<polyline clip-path="url(#clip090)" style="stroke:#000000; stroke-linecap:round; stroke-linejoin:round; stroke-width:4; stroke-opacity:1; fill:none" points="377.713,1423.18 377.713,1404.28 "/>
<polyline clip-path="url(#clip090)" style="stroke:#000000; stroke-linecap:round; stroke-linejoin:round; stroke-width:4; stroke-opacity:1; fill:none" points="772.721,1423.18 772.721,1404.28 "/>
<polyline clip-path="url(#clip090)" style="stroke:#000000; stroke-linecap:round; stroke-linejoin:round; stroke-width:4; stroke-opacity:1; fill:none" points="1167.73,1423.18 1167.73,1404.28 "/>
<polyline clip-path="url(#clip090)" style="stroke:#000000; stroke-linecap:round; stroke-linejoin:round; stroke-width:4; stroke-opacity:1; fill:none" points="1562.74,1423.18 1562.74,1404.28 "/>
<polyline clip-path="url(#clip090)" style="stroke:#000000; stroke-linecap:round; stroke-linejoin:round; stroke-width:4; stroke-opacity:1; fill:none" points="1957.75,1423.18 1957.75,1404.28 "/>
<polyline clip-path="url(#clip090)" style="stroke:#000000; stroke-linecap:round; stroke-linejoin:round; stroke-width:4; stroke-opacity:1; fill:none" points="2352.76,1423.18 2352.76,1404.28 "/>
<path clip-path="url(#clip090)" d="M324.935 1454.1 Q321.324 1454.1 319.495 1457.66 Q317.69 1461.2 317.69 1468.33 Q317.69 1475.44 319.495 1479.01 Q321.324 1482.55 324.935 1482.55 Q328.569 1482.55 330.375 1479.01 Q332.204 1475.44 332.204 1468.33 Q332.204 1461.2 330.375 1457.66 Q328.569 1454.1 324.935 1454.1 M324.935 1450.39 Q330.745 1450.39 333.801 1455 Q336.88 1459.58 336.88 1468.33 Q336.88 1477.06 333.801 1481.67 Q330.745 1486.25 324.935 1486.25 Q319.125 1486.25 316.046 1481.67 Q312.991 1477.06 312.991 1468.33 Q312.991 1459.58 316.046 1455 Q319.125 1450.39 324.935 1450.39 Z" fill="#000000" fill-rule="nonzero" fill-opacity="1" /><path clip-path="url(#clip090)" d="M345.097 1479.7 L349.981 1479.7 L349.981 1485.58 L345.097 1485.58 L345.097 1479.7 Z" fill="#000000" fill-rule="nonzero" fill-opacity="1" /><path clip-path="url(#clip090)" d="M370.166 1454.1 Q366.555 1454.1 364.727 1457.66 Q362.921 1461.2 362.921 1468.33 Q362.921 1475.44 364.727 1479.01 Q366.555 1482.55 370.166 1482.55 Q373.801 1482.55 375.606 1479.01 Q377.435 1475.44 377.435 1468.33 Q377.435 1461.2 375.606 1457.66 Q373.801 1454.1 370.166 1454.1 M370.166 1450.39 Q375.977 1450.39 379.032 1455 Q382.111 1459.58 382.111 1468.33 Q382.111 1477.06 379.032 1481.67 Q375.977 1486.25 370.166 1486.25 Q364.356 1486.25 361.278 1481.67 Q358.222 1477.06 358.222 1468.33 Q358.222 1459.58 361.278 1455 Q364.356 1450.39 370.166 1450.39 Z" fill="#000000" fill-rule="nonzero" fill-opacity="1" /><path clip-path="url(#clip090)" d="M400.328 1454.1 Q396.717 1454.1 394.888 1457.66 Q393.083 1461.2 393.083 1468.33 Q393.083 1475.44 394.888 1479.01 Q396.717 1482.55 400.328 1482.55 Q403.963 1482.55 405.768 1479.01 Q407.597 1475.44 407.597 1468.33 Q407.597 1461.2 405.768 1457.66 Q403.963 1454.1 400.328 1454.1 M400.328 1450.39 Q406.138 1450.39 409.194 1455 Q412.273 1459.58 412.273 1468.33 Q412.273 1477.06 409.194 1481.67 Q406.138 1486.25 400.328 1486.25 Q394.518 1486.25 391.439 1481.67 Q388.384 1477.06 388.384 1468.33 Q388.384 1459.58 391.439 1455 Q394.518 1450.39 400.328 1450.39 Z" fill="#000000" fill-rule="nonzero" fill-opacity="1" /><path clip-path="url(#clip090)" d="M430.49 1454.1 Q426.879 1454.1 425.05 1457.66 Q423.245 1461.2 423.245 1468.33 Q423.245 1475.44 425.05 1479.01 Q426.879 1482.55 430.49 1482.55 Q434.124 1482.55 435.93 1479.01 Q437.759 1475.44 437.759 1468.33 Q437.759 1461.2 435.93 1457.66 Q434.124 1454.1 430.49 1454.1 M430.49 1450.39 Q436.3 1450.39 439.356 1455 Q442.435 1459.58 442.435 1468.33 Q442.435 1477.06 439.356 1481.67 Q436.3 1486.25 430.49 1486.25 Q424.68 1486.25 421.601 1481.67 Q418.546 1477.06 418.546 1468.33 Q418.546 1459.58 421.601 1455 Q424.68 1450.39 430.49 1450.39 Z" fill="#000000" fill-rule="nonzero" fill-opacity="1" /><path clip-path="url(#clip090)" d="M720.742 1454.1 Q717.131 1454.1 715.303 1457.66 Q713.497 1461.2 713.497 1468.33 Q713.497 1475.44 715.303 1479.01 Q717.131 1482.55 720.742 1482.55 Q724.377 1482.55 726.182 1479.01 Q728.011 1475.44 728.011 1468.33 Q728.011 1461.2 726.182 1457.66 Q724.377 1454.1 720.742 1454.1 M720.742 1450.39 Q726.553 1450.39 729.608 1455 Q732.687 1459.58 732.687 1468.33 Q732.687 1477.06 729.608 1481.67 Q726.553 1486.25 720.742 1486.25 Q714.932 1486.25 711.854 1481.67 Q708.798 1477.06 708.798 1468.33 Q708.798 1459.58 711.854 1455 Q714.932 1450.39 720.742 1450.39 Z" fill="#000000" fill-rule="nonzero" fill-opacity="1" /><path clip-path="url(#clip090)" d="M740.904 1479.7 L745.789 1479.7 L745.789 1485.58 L740.904 1485.58 L740.904 1479.7 Z" fill="#000000" fill-rule="nonzero" fill-opacity="1" /><path clip-path="url(#clip090)" d="M765.974 1454.1 Q762.363 1454.1 760.534 1457.66 Q758.728 1461.2 758.728 1468.33 Q758.728 1475.44 760.534 1479.01 Q762.363 1482.55 765.974 1482.55 Q769.608 1482.55 771.413 1479.01 Q773.242 1475.44 773.242 1468.33 Q773.242 1461.2 771.413 1457.66 Q769.608 1454.1 765.974 1454.1 M765.974 1450.39 Q771.784 1450.39 774.839 1455 Q777.918 1459.58 777.918 1468.33 Q777.918 1477.06 774.839 1481.67 Q771.784 1486.25 765.974 1486.25 Q760.163 1486.25 757.085 1481.67 Q754.029 1477.06 754.029 1468.33 Q754.029 1459.58 757.085 1455 Q760.163 1450.39 765.974 1450.39 Z" fill="#000000" fill-rule="nonzero" fill-opacity="1" /><path clip-path="url(#clip090)" d="M796.136 1454.1 Q792.524 1454.1 790.696 1457.66 Q788.89 1461.2 788.89 1468.33 Q788.89 1475.44 790.696 1479.01 Q792.524 1482.55 796.136 1482.55 Q799.77 1482.55 801.575 1479.01 Q803.404 1475.44 803.404 1468.33 Q803.404 1461.2 801.575 1457.66 Q799.77 1454.1 796.136 1454.1 M796.136 1450.39 Q801.946 1450.39 805.001 1455 Q808.08 1459.58 808.08 1468.33 Q808.08 1477.06 805.001 1481.67 Q801.946 1486.25 796.136 1486.25 Q790.325 1486.25 787.247 1481.67 Q784.191 1477.06 784.191 1468.33 Q784.191 1459.58 787.247 1455 Q790.325 1450.39 796.136 1450.39 Z" fill="#000000" fill-rule="nonzero" fill-opacity="1" /><path clip-path="url(#clip090)" d="M820.325 1481.64 L836.645 1481.64 L836.645 1485.58 L814.7 1485.58 L814.7 1481.64 Q817.362 1478.89 821.946 1474.26 Q826.552 1469.61 827.733 1468.27 Q829.978 1465.74 830.858 1464.01 Q831.76 1462.25 831.76 1460.56 Q831.76 1457.8 829.816 1456.07 Q827.895 1454.33 824.793 1454.33 Q822.594 1454.33 820.14 1455.09 Q817.709 1455.86 814.932 1457.41 L814.932 1452.69 Q817.756 1451.55 820.209 1450.97 Q822.663 1450.39 824.7 1450.39 Q830.071 1450.39 833.265 1453.08 Q836.459 1455.77 836.459 1460.26 Q836.459 1462.39 835.649 1464.31 Q834.862 1466.2 832.756 1468.8 Q832.177 1469.47 829.075 1472.69 Q825.973 1475.88 820.325 1481.64 Z" fill="#000000" fill-rule="nonzero" fill-opacity="1" /><path clip-path="url(#clip090)" d="M1114.71 1454.1 Q1111.1 1454.1 1109.27 1457.66 Q1107.46 1461.2 1107.46 1468.33 Q1107.46 1475.44 1109.27 1479.01 Q1111.1 1482.55 1114.71 1482.55 Q1118.34 1482.55 1120.15 1479.01 Q1121.98 1475.44 1121.98 1468.33 Q1121.98 1461.2 1120.15 1457.66 Q1118.34 1454.1 1114.71 1454.1 M1114.71 1450.39 Q1120.52 1450.39 1123.58 1455 Q1126.65 1459.58 1126.65 1468.33 Q1126.65 1477.06 1123.58 1481.67 Q1120.52 1486.25 1114.71 1486.25 Q1108.9 1486.25 1105.82 1481.67 Q1102.77 1477.06 1102.77 1468.33 Q1102.77 1459.58 1105.82 1455 Q1108.9 1450.39 1114.71 1450.39 Z" fill="#000000" fill-rule="nonzero" fill-opacity="1" /><path clip-path="url(#clip090)" d="M1134.87 1479.7 L1139.76 1479.7 L1139.76 1485.58 L1134.87 1485.58 L1134.87 1479.7 Z" fill="#000000" fill-rule="nonzero" fill-opacity="1" /><path clip-path="url(#clip090)" d="M1159.94 1454.1 Q1156.33 1454.1 1154.5 1457.66 Q1152.7 1461.2 1152.7 1468.33 Q1152.7 1475.44 1154.5 1479.01 Q1156.33 1482.55 1159.94 1482.55 Q1163.57 1482.55 1165.38 1479.01 Q1167.21 1475.44 1167.21 1468.33 Q1167.21 1461.2 1165.38 1457.66 Q1163.57 1454.1 1159.94 1454.1 M1159.94 1450.39 Q1165.75 1450.39 1168.81 1455 Q1171.89 1459.58 1171.89 1468.33 Q1171.89 1477.06 1168.81 1481.67 Q1165.75 1486.25 1159.94 1486.25 Q1154.13 1486.25 1151.05 1481.67 Q1148 1477.06 1148 1468.33 Q1148 1459.58 1151.05 1455 Q1154.13 1450.39 1159.94 1450.39 Z" fill="#000000" fill-rule="nonzero" fill-opacity="1" /><path clip-path="url(#clip090)" d="M1190.1 1454.1 Q1186.49 1454.1 1184.66 1457.66 Q1182.86 1461.2 1182.86 1468.33 Q1182.86 1475.44 1184.66 1479.01 Q1186.49 1482.55 1190.1 1482.55 Q1193.74 1482.55 1195.54 1479.01 Q1197.37 1475.44 1197.37 1468.33 Q1197.37 1461.2 1195.54 1457.66 Q1193.74 1454.1 1190.1 1454.1 M1190.1 1450.39 Q1195.91 1450.39 1198.97 1455 Q1202.05 1459.58 1202.05 1468.33 Q1202.05 1477.06 1198.97 1481.67 Q1195.91 1486.25 1190.1 1486.25 Q1184.29 1486.25 1181.21 1481.67 Q1178.16 1477.06 1178.16 1468.33 Q1178.16 1459.58 1181.21 1455 Q1184.29 1450.39 1190.1 1450.39 Z" fill="#000000" fill-rule="nonzero" fill-opacity="1" /><path clip-path="url(#clip090)" d="M1223.11 1455.09 L1211.31 1473.54 L1223.11 1473.54 L1223.11 1455.09 M1221.88 1451.02 L1227.76 1451.02 L1227.76 1473.54 L1232.69 1473.54 L1232.69 1477.43 L1227.76 1477.43 L1227.76 1485.58 L1223.11 1485.58 L1223.11 1477.43 L1207.51 1477.43 L1207.51 1472.92 L1221.88 1451.02 Z" fill="#000000" fill-rule="nonzero" fill-opacity="1" /><path clip-path="url(#clip090)" d="M1509.88 1454.1 Q1506.27 1454.1 1504.44 1457.66 Q1502.63 1461.2 1502.63 1468.33 Q1502.63 1475.44 1504.44 1479.01 Q1506.27 1482.55 1509.88 1482.55 Q1513.51 1482.55 1515.32 1479.01 Q1517.15 1475.44 1517.15 1468.33 Q1517.15 1461.2 1515.32 1457.66 Q1513.51 1454.1 1509.88 1454.1 M1509.88 1450.39 Q1515.69 1450.39 1518.75 1455 Q1521.82 1459.58 1521.82 1468.33 Q1521.82 1477.06 1518.75 1481.67 Q1515.69 1486.25 1509.88 1486.25 Q1504.07 1486.25 1500.99 1481.67 Q1497.94 1477.06 1497.94 1468.33 Q1497.94 1459.58 1500.99 1455 Q1504.07 1450.39 1509.88 1450.39 Z" fill="#000000" fill-rule="nonzero" fill-opacity="1" /><path clip-path="url(#clip090)" d="M1530.04 1479.7 L1534.93 1479.7 L1534.93 1485.58 L1530.04 1485.58 L1530.04 1479.7 Z" fill="#000000" fill-rule="nonzero" fill-opacity="1" /><path clip-path="url(#clip090)" d="M1555.11 1454.1 Q1551.5 1454.1 1549.67 1457.66 Q1547.87 1461.2 1547.87 1468.33 Q1547.87 1475.44 1549.67 1479.01 Q1551.5 1482.55 1555.11 1482.55 Q1558.75 1482.55 1560.55 1479.01 Q1562.38 1475.44 1562.38 1468.33 Q1562.38 1461.2 1560.55 1457.66 Q1558.75 1454.1 1555.11 1454.1 M1555.11 1450.39 Q1560.92 1450.39 1563.98 1455 Q1567.06 1459.58 1567.06 1468.33 Q1567.06 1477.06 1563.98 1481.67 Q1560.92 1486.25 1555.11 1486.25 Q1549.3 1486.25 1546.22 1481.67 Q1543.17 1477.06 1543.17 1468.33 Q1543.17 1459.58 1546.22 1455 Q1549.3 1450.39 1555.11 1450.39 Z" fill="#000000" fill-rule="nonzero" fill-opacity="1" /><path clip-path="url(#clip090)" d="M1585.27 1454.1 Q1581.66 1454.1 1579.83 1457.66 Q1578.03 1461.2 1578.03 1468.33 Q1578.03 1475.44 1579.83 1479.01 Q1581.66 1482.55 1585.27 1482.55 Q1588.91 1482.55 1590.71 1479.01 Q1592.54 1475.44 1592.54 1468.33 Q1592.54 1461.2 1590.71 1457.66 Q1588.91 1454.1 1585.27 1454.1 M1585.27 1450.39 Q1591.08 1450.39 1594.14 1455 Q1597.22 1459.58 1597.22 1468.33 Q1597.22 1477.06 1594.14 1481.67 Q1591.08 1486.25 1585.27 1486.25 Q1579.46 1486.25 1576.38 1481.67 Q1573.33 1477.06 1573.33 1468.33 Q1573.33 1459.58 1576.38 1455 Q1579.46 1450.39 1585.27 1450.39 Z" fill="#000000" fill-rule="nonzero" fill-opacity="1" /><path clip-path="url(#clip090)" d="M1616.01 1466.44 Q1612.87 1466.44 1611.01 1468.59 Q1609.19 1470.74 1609.19 1474.49 Q1609.19 1478.22 1611.01 1480.39 Q1612.87 1482.55 1616.01 1482.55 Q1619.16 1482.55 1620.99 1480.39 Q1622.84 1478.22 1622.84 1474.49 Q1622.84 1470.74 1620.99 1468.59 Q1619.16 1466.44 1616.01 1466.44 M1625.3 1451.78 L1625.3 1456.04 Q1623.54 1455.21 1621.73 1454.77 Q1619.95 1454.33 1618.19 1454.33 Q1613.56 1454.33 1611.11 1457.45 Q1608.68 1460.58 1608.33 1466.9 Q1609.69 1464.89 1611.75 1463.82 Q1613.81 1462.73 1616.29 1462.73 Q1621.5 1462.73 1624.51 1465.9 Q1627.54 1469.05 1627.54 1474.49 Q1627.54 1479.82 1624.39 1483.03 Q1621.25 1486.25 1616.01 1486.25 Q1610.02 1486.25 1606.85 1481.67 Q1603.68 1477.06 1603.68 1468.33 Q1603.68 1460.14 1607.56 1455.28 Q1611.45 1450.39 1618 1450.39 Q1619.76 1450.39 1621.55 1450.74 Q1623.35 1451.09 1625.3 1451.78 Z" fill="#000000" fill-rule="nonzero" fill-opacity="1" /><path clip-path="url(#clip090)" d="M1905.02 1454.1 Q1901.4 1454.1 1899.58 1457.66 Q1897.77 1461.2 1897.77 1468.33 Q1897.77 1475.44 1899.58 1479.01 Q1901.4 1482.55 1905.02 1482.55 Q1908.65 1482.55 1910.46 1479.01 Q1912.28 1475.44 1912.28 1468.33 Q1912.28 1461.2 1910.46 1457.66 Q1908.65 1454.1 1905.02 1454.1 M1905.02 1450.39 Q1910.83 1450.39 1913.88 1455 Q1916.96 1459.58 1916.96 1468.33 Q1916.96 1477.06 1913.88 1481.67 Q1910.83 1486.25 1905.02 1486.25 Q1899.21 1486.25 1896.13 1481.67 Q1893.07 1477.06 1893.07 1468.33 Q1893.07 1459.58 1896.13 1455 Q1899.21 1450.39 1905.02 1450.39 Z" fill="#000000" fill-rule="nonzero" fill-opacity="1" /><path clip-path="url(#clip090)" d="M1925.18 1479.7 L1930.06 1479.7 L1930.06 1485.58 L1925.18 1485.58 L1925.18 1479.7 Z" fill="#000000" fill-rule="nonzero" fill-opacity="1" /><path clip-path="url(#clip090)" d="M1950.25 1454.1 Q1946.64 1454.1 1944.81 1457.66 Q1943 1461.2 1943 1468.33 Q1943 1475.44 1944.81 1479.01 Q1946.64 1482.55 1950.25 1482.55 Q1953.88 1482.55 1955.69 1479.01 Q1957.52 1475.44 1957.52 1468.33 Q1957.52 1461.2 1955.69 1457.66 Q1953.88 1454.1 1950.25 1454.1 M1950.25 1450.39 Q1956.06 1450.39 1959.11 1455 Q1962.19 1459.58 1962.19 1468.33 Q1962.19 1477.06 1959.11 1481.67 Q1956.06 1486.25 1950.25 1486.25 Q1944.44 1486.25 1941.36 1481.67 Q1938.3 1477.06 1938.3 1468.33 Q1938.3 1459.58 1941.36 1455 Q1944.44 1450.39 1950.25 1450.39 Z" fill="#000000" fill-rule="nonzero" fill-opacity="1" /><path clip-path="url(#clip090)" d="M1980.41 1454.1 Q1976.8 1454.1 1974.97 1457.66 Q1973.16 1461.2 1973.16 1468.33 Q1973.16 1475.44 1974.97 1479.01 Q1976.8 1482.55 1980.41 1482.55 Q1984.04 1482.55 1985.85 1479.01 Q1987.68 1475.44 1987.68 1468.33 Q1987.68 1461.2 1985.85 1457.66 Q1984.04 1454.1 1980.41 1454.1 M1980.41 1450.39 Q1986.22 1450.39 1989.27 1455 Q1992.35 1459.58 1992.35 1468.33 Q1992.35 1477.06 1989.27 1481.67 Q1986.22 1486.25 1980.41 1486.25 Q1974.6 1486.25 1971.52 1481.67 Q1968.46 1477.06 1968.46 1468.33 Q1968.46 1459.58 1971.52 1455 Q1974.6 1450.39 1980.41 1450.39 Z" fill="#000000" fill-rule="nonzero" fill-opacity="1" /><path clip-path="url(#clip090)" d="M2010.57 1469.17 Q2007.24 1469.17 2005.32 1470.95 Q2003.42 1472.73 2003.42 1475.86 Q2003.42 1478.98 2005.32 1480.77 Q2007.24 1482.55 2010.57 1482.55 Q2013.9 1482.55 2015.83 1480.77 Q2017.75 1478.96 2017.75 1475.86 Q2017.75 1472.73 2015.83 1470.95 Q2013.93 1469.17 2010.57 1469.17 M2005.9 1467.18 Q2002.89 1466.44 2001.2 1464.38 Q1999.53 1462.32 1999.53 1459.35 Q1999.53 1455.21 2002.47 1452.8 Q2005.43 1450.39 2010.57 1450.39 Q2015.73 1450.39 2018.67 1452.8 Q2021.61 1455.21 2021.61 1459.35 Q2021.61 1462.32 2019.92 1464.38 Q2018.26 1466.44 2015.27 1467.18 Q2018.65 1467.96 2020.52 1470.26 Q2022.42 1472.55 2022.42 1475.86 Q2022.42 1480.88 2019.34 1483.57 Q2016.29 1486.25 2010.57 1486.25 Q2004.85 1486.25 2001.77 1483.57 Q1998.72 1480.88 1998.72 1475.86 Q1998.72 1472.55 2000.62 1470.26 Q2002.52 1467.96 2005.9 1467.18 M2004.18 1459.79 Q2004.18 1462.48 2005.85 1463.98 Q2007.54 1465.49 2010.57 1465.49 Q2013.58 1465.49 2015.27 1463.98 Q2016.98 1462.48 2016.98 1459.79 Q2016.98 1457.11 2015.27 1455.6 Q2013.58 1454.1 2010.57 1454.1 Q2007.54 1454.1 2005.85 1455.6 Q2004.18 1457.11 2004.18 1459.79 Z" fill="#000000" fill-rule="nonzero" fill-opacity="1" /><path clip-path="url(#clip090)" d="M2299.98 1454.1 Q2296.37 1454.1 2294.54 1457.66 Q2292.73 1461.2 2292.73 1468.33 Q2292.73 1475.44 2294.54 1479.01 Q2296.37 1482.55 2299.98 1482.55 Q2303.61 1482.55 2305.42 1479.01 Q2307.25 1475.44 2307.25 1468.33 Q2307.25 1461.2 2305.42 1457.66 Q2303.61 1454.1 2299.98 1454.1 M2299.98 1450.39 Q2305.79 1450.39 2308.84 1455 Q2311.92 1459.58 2311.92 1468.33 Q2311.92 1477.06 2308.84 1481.67 Q2305.79 1486.25 2299.98 1486.25 Q2294.17 1486.25 2291.09 1481.67 Q2288.03 1477.06 2288.03 1468.33 Q2288.03 1459.58 2291.09 1455 Q2294.17 1450.39 2299.98 1450.39 Z" fill="#000000" fill-rule="nonzero" fill-opacity="1" /><path clip-path="url(#clip090)" d="M2320.14 1479.7 L2325.02 1479.7 L2325.02 1485.58 L2320.14 1485.58 L2320.14 1479.7 Z" fill="#000000" fill-rule="nonzero" fill-opacity="1" /><path clip-path="url(#clip090)" d="M2345.21 1454.1 Q2341.6 1454.1 2339.77 1457.66 Q2337.96 1461.2 2337.96 1468.33 Q2337.96 1475.44 2339.77 1479.01 Q2341.6 1482.55 2345.21 1482.55 Q2348.84 1482.55 2350.65 1479.01 Q2352.48 1475.44 2352.48 1468.33 Q2352.48 1461.2 2350.65 1457.66 Q2348.84 1454.1 2345.21 1454.1 M2345.21 1450.39 Q2351.02 1450.39 2354.08 1455 Q2357.15 1459.58 2357.15 1468.33 Q2357.15 1477.06 2354.08 1481.67 Q2351.02 1486.25 2345.21 1486.25 Q2339.4 1486.25 2336.32 1481.67 Q2333.27 1477.06 2333.27 1468.33 Q2333.27 1459.58 2336.32 1455 Q2339.4 1450.39 2345.21 1450.39 Z" fill="#000000" fill-rule="nonzero" fill-opacity="1" /><path clip-path="url(#clip090)" d="M2366.18 1481.64 L2373.82 1481.64 L2373.82 1455.28 L2365.51 1456.95 L2365.51 1452.69 L2373.77 1451.02 L2378.45 1451.02 L2378.45 1481.64 L2386.09 1481.64 L2386.09 1485.58 L2366.18 1485.58 L2366.18 1481.64 Z" fill="#000000" fill-rule="nonzero" fill-opacity="1" /><path clip-path="url(#clip090)" d="M2405.53 1454.1 Q2401.92 1454.1 2400.09 1457.66 Q2398.29 1461.2 2398.29 1468.33 Q2398.29 1475.44 2400.09 1479.01 Q2401.92 1482.55 2405.53 1482.55 Q2409.17 1482.55 2410.97 1479.01 Q2412.8 1475.44 2412.8 1468.33 Q2412.8 1461.2 2410.97 1457.66 Q2409.17 1454.1 2405.53 1454.1 M2405.53 1450.39 Q2411.34 1450.39 2414.4 1455 Q2417.48 1459.58 2417.48 1468.33 Q2417.48 1477.06 2414.4 1481.67 Q2411.34 1486.25 2405.53 1486.25 Q2399.72 1486.25 2396.64 1481.67 Q2393.59 1477.06 2393.59 1468.33 Q2393.59 1459.58 2396.64 1455 Q2399.72 1450.39 2405.53 1450.39 Z" fill="#000000" fill-rule="nonzero" fill-opacity="1" /><path clip-path="url(#clip090)" d="M1252.69 1522.27 L1252.69 1532.4 L1264.75 1532.4 L1264.75 1536.95 L1252.69 1536.95 L1252.69 1556.3 Q1252.69 1560.66 1253.87 1561.9 Q1255.08 1563.14 1258.74 1563.14 L1264.75 1563.14 L1264.75 1568.04 L1258.74 1568.04 Q1251.96 1568.04 1249.38 1565.53 Q1246.8 1562.98 1246.8 1556.3 L1246.8 1536.95 L1242.5 1536.95 L1242.5 1532.4 L1246.8 1532.4 L1246.8 1522.27 L1252.69 1522.27 Z" fill="#000000" fill-rule="nonzero" fill-opacity="1" /><path clip-path="url(#clip090)" d="M1272.45 1532.4 L1278.31 1532.4 L1278.31 1568.04 L1272.45 1568.04 L1272.45 1532.4 M1272.45 1518.52 L1278.31 1518.52 L1278.31 1525.93 L1272.45 1525.93 L1272.45 1518.52 Z" fill="#000000" fill-rule="nonzero" fill-opacity="1" /><path clip-path="url(#clip090)" d="M1318.32 1539.24 Q1320.52 1535.29 1323.57 1533.41 Q1326.63 1531.54 1330.76 1531.54 Q1336.33 1531.54 1339.36 1535.45 Q1342.38 1539.33 1342.38 1546.53 L1342.38 1568.04 L1336.49 1568.04 L1336.49 1546.72 Q1336.49 1541.59 1334.68 1539.11 Q1332.86 1536.63 1329.14 1536.63 Q1324.59 1536.63 1321.95 1539.65 Q1319.31 1542.68 1319.31 1547.9 L1319.31 1568.04 L1313.42 1568.04 L1313.42 1546.72 Q1313.42 1541.56 1311.6 1539.11 Q1309.79 1536.63 1306 1536.63 Q1301.51 1536.63 1298.87 1539.68 Q1296.23 1542.71 1296.23 1547.9 L1296.23 1568.04 L1290.34 1568.04 L1290.34 1532.4 L1296.23 1532.4 L1296.23 1537.93 Q1298.24 1534.66 1301.04 1533.1 Q1303.84 1531.54 1307.69 1531.54 Q1311.57 1531.54 1314.28 1533.51 Q1317.01 1535.48 1318.32 1539.24 Z" fill="#000000" fill-rule="nonzero" fill-opacity="1" /><path clip-path="url(#clip090)" d="M1384.55 1548.76 L1384.55 1551.62 L1357.63 1551.62 Q1358.01 1557.67 1361.26 1560.85 Q1364.53 1564 1370.36 1564 Q1373.73 1564 1376.88 1563.17 Q1380.07 1562.35 1383.19 1560.69 L1383.19 1566.23 Q1380.03 1567.57 1376.72 1568.27 Q1373.41 1568.97 1370.01 1568.97 Q1361.48 1568.97 1356.48 1564 Q1351.52 1559.04 1351.52 1550.57 Q1351.52 1541.82 1356.23 1536.69 Q1360.97 1531.54 1368.99 1531.54 Q1376.18 1531.54 1380.35 1536.18 Q1384.55 1540.8 1384.55 1548.76 M1378.7 1547.04 Q1378.63 1542.23 1375.99 1539.37 Q1373.38 1536.5 1369.05 1536.5 Q1364.15 1536.5 1361.19 1539.27 Q1358.26 1542.04 1357.82 1547.07 L1378.7 1547.04 Z" fill="#000000" fill-rule="nonzero" fill-opacity="1" /><path clip-path="url(#clip090)" d="M1414.35 1518.52 L1427.84 1518.52 L1427.84 1523.07 L1420.2 1523.07 L1420.2 1572.09 L1427.84 1572.09 L1427.84 1576.64 L1414.35 1576.64 L1414.35 1518.52 Z" fill="#000000" fill-rule="nonzero" fill-opacity="1" /><path clip-path="url(#clip090)" d="M1463.04 1533.45 L1463.04 1538.98 Q1460.56 1537.71 1457.89 1537.07 Q1455.21 1536.44 1452.35 1536.44 Q1447.99 1536.44 1445.79 1537.77 Q1443.63 1539.11 1443.63 1541.79 Q1443.63 1543.82 1445.19 1545 Q1446.75 1546.15 1451.46 1547.2 L1453.46 1547.64 Q1459.7 1548.98 1462.31 1551.43 Q1464.95 1553.85 1464.95 1558.21 Q1464.95 1563.17 1461.01 1566.07 Q1457.09 1568.97 1450.22 1568.97 Q1447.35 1568.97 1444.23 1568.39 Q1441.15 1567.85 1437.71 1566.74 L1437.71 1560.69 Q1440.95 1562.38 1444.11 1563.24 Q1447.26 1564.07 1450.34 1564.07 Q1454.48 1564.07 1456.71 1562.66 Q1458.94 1561.23 1458.94 1558.65 Q1458.94 1556.27 1457.31 1554.99 Q1455.72 1553.72 1450.28 1552.54 L1448.24 1552.07 Q1442.8 1550.92 1440.38 1548.56 Q1437.96 1546.18 1437.96 1542.04 Q1437.96 1537.01 1441.53 1534.27 Q1445.09 1531.54 1451.65 1531.54 Q1454.9 1531.54 1457.76 1532.01 Q1460.62 1532.49 1463.04 1533.45 Z" fill="#000000" fill-rule="nonzero" fill-opacity="1" /><path clip-path="url(#clip090)" d="M1487.97 1518.52 L1487.97 1576.64 L1474.47 1576.64 L1474.47 1572.09 L1482.08 1572.09 L1482.08 1523.07 L1474.47 1523.07 L1474.47 1518.52 L1487.97 1518.52 Z" fill="#000000" fill-rule="nonzero" fill-opacity="1" /><polyline clip-path="url(#clip092)" style="stroke:#000000; stroke-linecap:round; stroke-linejoin:round; stroke-width:2; stroke-opacity:0.1; fill:none" points="377.713,1270 2352.76,1270 "/>
<polyline clip-path="url(#clip092)" style="stroke:#000000; stroke-linecap:round; stroke-linejoin:round; stroke-width:2; stroke-opacity:0.1; fill:none" points="377.713,875.396 2352.76,875.396 "/>
<polyline clip-path="url(#clip092)" style="stroke:#000000; stroke-linecap:round; stroke-linejoin:round; stroke-width:2; stroke-opacity:0.1; fill:none" points="377.713,480.791 2352.76,480.791 "/>
<polyline clip-path="url(#clip092)" style="stroke:#000000; stroke-linecap:round; stroke-linejoin:round; stroke-width:2; stroke-opacity:0.1; fill:none" points="377.713,86.1857 2352.76,86.1857 "/>
<polyline clip-path="url(#clip090)" style="stroke:#000000; stroke-linecap:round; stroke-linejoin:round; stroke-width:4; stroke-opacity:1; fill:none" points="377.713,1423.18 377.713,47.2441 "/>
<polyline clip-path="url(#clip090)" style="stroke:#000000; stroke-linecap:round; stroke-linejoin:round; stroke-width:4; stroke-opacity:1; fill:none" points="377.713,1270 396.61,1270 "/>
<polyline clip-path="url(#clip090)" style="stroke:#000000; stroke-linecap:round; stroke-linejoin:round; stroke-width:4; stroke-opacity:1; fill:none" points="377.713,875.396 396.61,875.396 "/>
<polyline clip-path="url(#clip090)" style="stroke:#000000; stroke-linecap:round; stroke-linejoin:round; stroke-width:4; stroke-opacity:1; fill:none" points="377.713,480.791 396.61,480.791 "/>
<polyline clip-path="url(#clip090)" style="stroke:#000000; stroke-linecap:round; stroke-linejoin:round; stroke-width:4; stroke-opacity:1; fill:none" points="377.713,86.1857 396.61,86.1857 "/>
<path clip-path="url(#clip090)" d="M114.26 1276.9 L143.936 1276.9 L143.936 1280.83 L114.26 1280.83 L114.26 1276.9 Z" fill="#000000" fill-rule="nonzero" fill-opacity="1" /><path clip-path="url(#clip090)" d="M168.195 1275.09 Q171.552 1275.81 173.427 1278.08 Q175.325 1280.35 175.325 1283.68 Q175.325 1288.8 171.806 1291.6 Q168.288 1294.4 161.806 1294.4 Q159.63 1294.4 157.315 1293.96 Q155.024 1293.54 152.57 1292.69 L152.57 1288.17 Q154.515 1289.31 156.829 1289.89 Q159.144 1290.46 161.667 1290.46 Q166.065 1290.46 168.357 1288.73 Q170.672 1286.99 170.672 1283.68 Q170.672 1280.63 168.519 1278.91 Q166.39 1277.18 162.57 1277.18 L158.542 1277.18 L158.542 1273.33 L162.755 1273.33 Q166.204 1273.33 168.033 1271.97 Q169.862 1270.58 169.862 1267.99 Q169.862 1265.33 167.964 1263.91 Q166.089 1262.48 162.57 1262.48 Q160.649 1262.48 158.45 1262.89 Q156.251 1263.31 153.612 1264.19 L153.612 1260.02 Q156.274 1259.28 158.589 1258.91 Q160.927 1258.54 162.987 1258.54 Q168.311 1258.54 171.413 1260.97 Q174.514 1263.38 174.514 1267.5 Q174.514 1270.37 172.871 1272.36 Q171.227 1274.33 168.195 1275.09 Z" fill="#000000" fill-rule="nonzero" fill-opacity="1" /><path clip-path="url(#clip090)" d="M184.19 1287.85 L189.075 1287.85 L189.075 1293.73 L184.19 1293.73 L184.19 1287.85 Z" fill="#000000" fill-rule="nonzero" fill-opacity="1" /><path clip-path="url(#clip090)" d="M209.26 1262.25 Q205.649 1262.25 203.82 1265.81 Q202.014 1269.35 202.014 1276.48 Q202.014 1283.59 203.82 1287.15 Q205.649 1290.7 209.26 1290.7 Q212.894 1290.7 214.699 1287.15 Q216.528 1283.59 216.528 1276.48 Q216.528 1269.35 214.699 1265.81 Q212.894 1262.25 209.26 1262.25 M209.26 1258.54 Q215.07 1258.54 218.125 1263.15 Q221.204 1267.73 221.204 1276.48 Q221.204 1285.21 218.125 1289.82 Q215.07 1294.4 209.26 1294.4 Q203.449 1294.4 200.371 1289.82 Q197.315 1285.21 197.315 1276.48 Q197.315 1267.73 200.371 1263.15 Q203.449 1258.54 209.26 1258.54 Z" fill="#000000" fill-rule="nonzero" fill-opacity="1" /><path clip-path="url(#clip090)" d="M257.593 1268.27 L247.014 1278.89 L257.593 1289.47 L254.838 1292.27 L244.213 1281.64 L233.588 1292.27 L230.857 1289.47 L241.412 1278.89 L230.857 1268.27 L233.588 1265.46 L244.213 1276.09 L254.838 1265.46 L257.593 1268.27 Z" fill="#000000" fill-rule="nonzero" fill-opacity="1" /><path clip-path="url(#clip090)" d="M269.954 1289.79 L277.593 1289.79 L277.593 1263.43 L269.282 1265.09 L269.282 1260.83 L277.546 1259.17 L282.222 1259.17 L282.222 1289.79 L289.861 1289.79 L289.861 1293.73 L269.954 1293.73 L269.954 1289.79 Z" fill="#000000" fill-rule="nonzero" fill-opacity="1" /><path clip-path="url(#clip090)" d="M309.305 1262.25 Q305.694 1262.25 303.866 1265.81 Q302.06 1269.35 302.06 1276.48 Q302.06 1283.59 303.866 1287.15 Q305.694 1290.7 309.305 1290.7 Q312.94 1290.7 314.745 1287.15 Q316.574 1283.59 316.574 1276.48 Q316.574 1269.35 314.745 1265.81 Q312.94 1262.25 309.305 1262.25 M309.305 1258.54 Q315.116 1258.54 318.171 1263.15 Q321.25 1267.73 321.25 1276.48 Q321.25 1285.21 318.171 1289.82 Q315.116 1294.4 309.305 1294.4 Q303.495 1294.4 300.417 1289.82 Q297.361 1285.21 297.361 1276.48 Q297.361 1267.73 300.417 1263.15 Q303.495 1258.54 309.305 1258.54 Z" fill="#000000" fill-rule="nonzero" fill-opacity="1" /><path clip-path="url(#clip090)" d="M333.926 1241.55 L324.334 1256.54 L333.926 1256.54 L333.926 1241.55 M332.929 1238.24 L337.707 1238.24 L337.707 1256.54 L341.713 1256.54 L341.713 1259.7 L337.707 1259.7 L337.707 1266.32 L333.926 1266.32 L333.926 1259.7 L321.25 1259.7 L321.25 1256.03 L332.929 1238.24 Z" fill="#000000" fill-rule="nonzero" fill-opacity="1" /><path clip-path="url(#clip090)" d="M114.26 882.295 L143.936 882.295 L143.936 886.23 L114.26 886.23 L114.26 882.295 Z" fill="#000000" fill-rule="nonzero" fill-opacity="1" /><path clip-path="url(#clip090)" d="M158.056 895.188 L174.376 895.188 L174.376 899.123 L152.431 899.123 L152.431 895.188 Q155.093 892.433 159.677 887.804 Q164.283 883.151 165.464 881.808 Q167.709 879.285 168.589 877.549 Q169.491 875.79 169.491 874.1 Q169.491 871.346 167.547 869.609 Q165.626 867.873 162.524 867.873 Q160.325 867.873 157.871 868.637 Q155.44 869.401 152.663 870.952 L152.663 866.23 Q155.487 865.096 157.94 864.517 Q160.394 863.938 162.431 863.938 Q167.802 863.938 170.996 866.623 Q174.19 869.309 174.19 873.799 Q174.19 875.929 173.38 877.85 Q172.593 879.748 170.487 882.341 Q169.908 883.012 166.806 886.23 Q163.704 889.424 158.056 895.188 Z" fill="#000000" fill-rule="nonzero" fill-opacity="1" /><path clip-path="url(#clip090)" d="M184.19 893.244 L189.075 893.244 L189.075 899.123 L184.19 899.123 L184.19 893.244 Z" fill="#000000" fill-rule="nonzero" fill-opacity="1" /><path clip-path="url(#clip090)" d="M209.26 867.642 Q205.649 867.642 203.82 871.207 Q202.014 874.748 202.014 881.878 Q202.014 888.984 203.82 892.549 Q205.649 896.091 209.26 896.091 Q212.894 896.091 214.699 892.549 Q216.528 888.984 216.528 881.878 Q216.528 874.748 214.699 871.207 Q212.894 867.642 209.26 867.642 M209.26 863.938 Q215.07 863.938 218.125 868.545 Q221.204 873.128 221.204 881.878 Q221.204 890.605 218.125 895.211 Q215.07 899.794 209.26 899.794 Q203.449 899.794 200.371 895.211 Q197.315 890.605 197.315 881.878 Q197.315 873.128 200.371 868.545 Q203.449 863.938 209.26 863.938 Z" fill="#000000" fill-rule="nonzero" fill-opacity="1" /><path clip-path="url(#clip090)" d="M257.593 873.66 L247.014 884.285 L257.593 894.864 L254.838 897.665 L244.213 887.04 L233.588 897.665 L230.857 894.864 L241.412 884.285 L230.857 873.66 L233.588 870.859 L244.213 881.484 L254.838 870.859 L257.593 873.66 Z" fill="#000000" fill-rule="nonzero" fill-opacity="1" /><path clip-path="url(#clip090)" d="M269.954 895.188 L277.593 895.188 L277.593 868.822 L269.282 870.489 L269.282 866.23 L277.546 864.563 L282.222 864.563 L282.222 895.188 L289.861 895.188 L289.861 899.123 L269.954 899.123 L269.954 895.188 Z" fill="#000000" fill-rule="nonzero" fill-opacity="1" /><path clip-path="url(#clip090)" d="M309.305 867.642 Q305.694 867.642 303.866 871.207 Q302.06 874.748 302.06 881.878 Q302.06 888.984 303.866 892.549 Q305.694 896.091 309.305 896.091 Q312.94 896.091 314.745 892.549 Q316.574 888.984 316.574 881.878 Q316.574 874.748 314.745 871.207 Q312.94 867.642 309.305 867.642 M309.305 863.938 Q315.116 863.938 318.171 868.545 Q321.25 873.128 321.25 881.878 Q321.25 890.605 318.171 895.211 Q315.116 899.794 309.305 899.794 Q303.495 899.794 300.417 895.211 Q297.361 890.605 297.361 881.878 Q297.361 873.128 300.417 868.545 Q303.495 863.938 309.305 863.938 Z" fill="#000000" fill-rule="nonzero" fill-opacity="1" /><path clip-path="url(#clip090)" d="M333.926 846.943 L324.334 861.933 L333.926 861.933 L333.926 846.943 M332.929 843.633 L337.707 843.633 L337.707 861.933 L341.713 861.933 L341.713 865.092 L337.707 865.092 L337.707 871.713 L333.926 871.713 L333.926 865.092 L321.25 865.092 L321.25 861.425 L332.929 843.633 Z" fill="#000000" fill-rule="nonzero" fill-opacity="1" /><path clip-path="url(#clip090)" d="M114.26 487.69 L143.936 487.69 L143.936 491.625 L114.26 491.625 L114.26 487.69 Z" fill="#000000" fill-rule="nonzero" fill-opacity="1" /><path clip-path="url(#clip090)" d="M154.839 500.583 L162.477 500.583 L162.477 474.217 L154.167 475.884 L154.167 471.625 L162.431 469.958 L167.107 469.958 L167.107 500.583 L174.746 500.583 L174.746 504.518 L154.839 504.518 L154.839 500.583 Z" fill="#000000" fill-rule="nonzero" fill-opacity="1" /><path clip-path="url(#clip090)" d="M184.19 498.639 L189.075 498.639 L189.075 504.518 L184.19 504.518 L184.19 498.639 Z" fill="#000000" fill-rule="nonzero" fill-opacity="1" /><path clip-path="url(#clip090)" d="M209.26 473.037 Q205.649 473.037 203.82 476.602 Q202.014 480.143 202.014 487.273 Q202.014 494.379 203.82 497.944 Q205.649 501.486 209.26 501.486 Q212.894 501.486 214.699 497.944 Q216.528 494.379 216.528 487.273 Q216.528 480.143 214.699 476.602 Q212.894 473.037 209.26 473.037 M209.26 469.333 Q215.07 469.333 218.125 473.94 Q221.204 478.523 221.204 487.273 Q221.204 496 218.125 500.606 Q215.07 505.19 209.26 505.19 Q203.449 505.19 200.371 500.606 Q197.315 496 197.315 487.273 Q197.315 478.523 200.371 473.94 Q203.449 469.333 209.26 469.333 Z" fill="#000000" fill-rule="nonzero" fill-opacity="1" /><path clip-path="url(#clip090)" d="M257.593 479.055 L247.014 489.68 L257.593 500.259 L254.838 503.06 L244.213 492.435 L233.588 503.06 L230.857 500.259 L241.412 489.68 L230.857 479.055 L233.588 476.254 L244.213 486.879 L254.838 476.254 L257.593 479.055 Z" fill="#000000" fill-rule="nonzero" fill-opacity="1" /><path clip-path="url(#clip090)" d="M269.954 500.583 L277.593 500.583 L277.593 474.217 L269.282 475.884 L269.282 471.625 L277.546 469.958 L282.222 469.958 L282.222 500.583 L289.861 500.583 L289.861 504.518 L269.954 504.518 L269.954 500.583 Z" fill="#000000" fill-rule="nonzero" fill-opacity="1" /><path clip-path="url(#clip090)" d="M309.305 473.037 Q305.694 473.037 303.866 476.602 Q302.06 480.143 302.06 487.273 Q302.06 494.379 303.866 497.944 Q305.694 501.486 309.305 501.486 Q312.94 501.486 314.745 497.944 Q316.574 494.379 316.574 487.273 Q316.574 480.143 314.745 476.602 Q312.94 473.037 309.305 473.037 M309.305 469.333 Q315.116 469.333 318.171 473.94 Q321.25 478.523 321.25 487.273 Q321.25 496 318.171 500.606 Q315.116 505.19 309.305 505.19 Q303.495 505.19 300.417 500.606 Q297.361 496 297.361 487.273 Q297.361 478.523 300.417 473.94 Q303.495 469.333 309.305 469.333 Z" fill="#000000" fill-rule="nonzero" fill-opacity="1" /><path clip-path="url(#clip090)" d="M333.926 452.338 L324.334 467.328 L333.926 467.328 L333.926 452.338 M332.929 449.028 L337.707 449.028 L337.707 467.328 L341.713 467.328 L341.713 470.487 L337.707 470.487 L337.707 477.108 L333.926 477.108 L333.926 470.487 L321.25 470.487 L321.25 466.82 L332.929 449.028 Z" fill="#000000" fill-rule="nonzero" fill-opacity="1" /><path clip-path="url(#clip090)" d="M329.768 71.9844 Q326.157 71.9844 324.328 75.5492 Q322.523 79.0908 322.523 86.2204 Q322.523 93.3268 324.328 96.8916 Q326.157 100.433 329.768 100.433 Q333.403 100.433 335.208 96.8916 Q337.037 93.3268 337.037 86.2204 Q337.037 79.0908 335.208 75.5492 Q333.403 71.9844 329.768 71.9844 M329.768 68.2807 Q335.578 68.2807 338.634 72.8871 Q341.713 77.4704 341.713 86.2204 Q341.713 94.9472 338.634 99.5537 Q335.578 104.137 329.768 104.137 Q323.958 104.137 320.879 99.5537 Q317.824 94.9472 317.824 86.2204 Q317.824 77.4704 320.879 72.8871 Q323.958 68.2807 329.768 68.2807 Z" fill="#000000" fill-rule="nonzero" fill-opacity="1" /><path clip-path="url(#clip090)" d="M28.3562 860.41 L45.7028 873.3 L64.0042 859.741 L64.0042 866.648 L49.9996 877.024 L64.0042 887.4 L64.0042 894.307 L45.3526 880.461 L28.3562 893.129 L28.3562 886.222 L41.0558 876.769 L28.3562 867.316 L28.3562 860.41 Z" fill="#000000" fill-rule="nonzero" fill-opacity="1" /><path clip-path="url(#clip090)" d="M14.6063 870.913 L14.6063 864.452 L21.0356 864.452 L21.0356 870.913 L14.6063 870.913 M14.6063 883.358 L14.6063 876.897 L21.0356 876.897 L21.0356 883.358 L14.6063 883.358 M27.4968 873.905 L27.4968 873.905 Z" fill="#000000" fill-rule="nonzero" fill-opacity="1" /><path clip-path="url(#clip090)" d="M14.479 831.286 L14.479 817.791 L19.0304 817.791 L19.0304 825.43 L68.0464 825.43 L68.0464 817.791 L72.5979 817.791 L72.5979 831.286 L14.479 831.286 Z" fill="#000000" fill-rule="nonzero" fill-opacity="1" /><path clip-path="url(#clip090)" d="M35.1993 777.56 Q31.2526 775.364 29.3747 772.308 Q27.4968 769.253 27.4968 765.115 Q27.4968 759.545 31.4117 756.521 Q35.2948 753.497 42.4881 753.497 L64.0042 753.497 L64.0042 759.386 L42.679 759.386 Q37.5546 759.386 35.072 761.2 Q32.5894 763.014 32.5894 766.738 Q32.5894 771.29 35.6131 773.931 Q38.6368 776.573 43.8567 776.573 L64.0042 776.573 L64.0042 782.461 L42.679 782.461 Q37.5228 782.461 35.072 784.276 Q32.5894 786.09 32.5894 789.877 Q32.5894 794.365 35.6449 797.007 Q38.6686 799.649 43.8567 799.649 L64.0042 799.649 L64.0042 805.537 L28.3562 805.537 L28.3562 799.649 L33.8944 799.649 Q30.616 797.644 29.0564 794.843 Q27.4968 792.042 27.4968 788.191 Q27.4968 784.307 29.4702 781.602 Q31.4436 778.865 35.1993 777.56 Z" fill="#000000" fill-rule="nonzero" fill-opacity="1" /><path clip-path="url(#clip090)" d="M16.4842 731.408 L16.4842 725.998 L70.0516 742.548 L70.0516 747.959 L16.4842 731.408 Z" fill="#000000" fill-rule="nonzero" fill-opacity="1" /><path clip-path="url(#clip090)" d="M29.4065 697.129 L34.9447 697.129 Q33.6716 699.612 33.035 702.285 Q32.3984 704.959 32.3984 707.824 Q32.3984 712.184 33.7352 714.38 Q35.072 716.545 37.7456 716.545 Q39.7826 716.545 40.9603 714.985 Q42.1061 713.425 43.1565 708.715 L43.6021 706.71 Q44.9389 700.471 47.3897 697.861 Q49.8086 695.219 54.1691 695.219 Q59.1344 695.219 62.0308 699.166 Q64.9272 703.081 64.9272 709.956 Q64.9272 712.821 64.3543 715.94 Q63.8132 719.027 62.6992 722.465 L56.6518 722.465 Q58.3387 719.218 59.198 716.067 Q60.0256 712.916 60.0256 709.829 Q60.0256 705.691 58.6251 703.463 Q57.1929 701.235 54.6147 701.235 Q52.2276 701.235 50.9545 702.858 Q49.6813 704.45 48.5037 709.892 L48.0262 711.929 Q46.8804 717.372 44.5251 719.791 Q42.138 722.21 38.0002 722.21 Q32.9713 722.21 30.2341 718.645 Q27.4968 715.08 27.4968 708.524 Q27.4968 705.277 27.9743 702.413 Q28.4517 699.548 29.4065 697.129 Z" fill="#000000" fill-rule="nonzero" fill-opacity="1" /><path clip-path="url(#clip090)" d="M16.4842 661.608 L34.2127 644.326 L34.2127 650.723 L21.6404 664.728 L34.2127 678.732 L34.2127 685.13 L16.4842 667.847 L16.4842 661.608 Z" fill="#000000" fill-rule="nonzero" fill-opacity="1" /><path clip-path="url(#clip090)" d="M58.5933 624.91 L58.5933 602.471 L64.0042 602.471 L64.0042 632.645 L58.5933 632.645 Q54.8057 628.984 48.44 622.682 Q42.0425 616.348 40.1964 614.725 Q36.7271 611.638 34.34 610.428 Q31.921 609.187 29.5975 609.187 Q25.8099 609.187 23.4228 611.86 Q21.0356 614.502 21.0356 618.767 Q21.0356 621.791 22.086 625.165 Q23.1363 628.507 25.2688 632.326 L18.7758 632.326 Q17.2162 628.443 16.4205 625.069 Q15.6248 621.696 15.6248 618.895 Q15.6248 611.51 19.3169 607.118 Q23.009 602.726 29.1837 602.726 Q32.112 602.726 34.7537 603.84 Q37.3637 604.922 40.9285 607.818 Q41.8515 608.614 46.2757 612.879 Q50.668 617.144 58.5933 624.91 Z" fill="#000000" fill-rule="nonzero" fill-opacity="1" /><path clip-path="url(#clip090)" d="M14.479 576.117 L72.5979 576.117 L72.5979 589.612 L68.0464 589.612 L68.0464 582.005 L19.0304 582.005 L19.0304 589.612 L14.479 589.612 L14.479 576.117 Z" fill="#000000" fill-rule="nonzero" fill-opacity="1" /><polyline clip-path="url(#clip092)" style="stroke:#009af9; stroke-linecap:round; stroke-linejoin:round; stroke-width:4; stroke-opacity:1; fill:none" points="377.713,86.1857 379.69,273.381 381.667,350.736 383.644,409.903 385.621,459.587 387.598,503.159 389.575,542.349 391.552,578.185 393.529,611.336 395.506,642.268 397.483,671.321 399.46,698.751 401.437,724.757 403.414,749.498 405.391,773.102 407.368,795.676 409.345,817.308 411.322,838.075 413.299,858.04 415.276,877.26 417.253,895.783 419.23,913.652 421.207,930.905 423.184,947.576 425.161,963.694 427.138,979.287 429.115,994.379 431.092,1008.99 433.069,1023.15 435.046,1036.87 437.023,1050.17 439,1063.06 440.977,1075.56 442.954,1087.68 444.931,1099.44 446.908,1110.84 448.885,1121.9 450.862,1132.64 452.839,1143.05 454.816,1153.14 456.793,1162.94 458.77,1172.44 460.747,1181.65 462.725,1190.58 464.702,1199.24 466.679,1207.63 468.656,1215.76 470.633,1223.64 472.61,1231.28 474.587,1238.66 476.564,1245.82 478.541,1252.74 480.518,1259.43 482.495,1265.91 484.472,1272.16 486.449,1278.21 488.426,1284.04 490.403,1289.67 492.38,1295.1 494.357,1300.34 496.334,1305.38 498.311,1310.24 500.288,1314.91 502.265,1319.39 504.242,1323.7 506.219,1327.84 508.196,1331.8 510.173,1335.6 512.15,1339.23 514.127,1342.69 516.104,1346 518.081,1349.15 520.058,1352.15 522.035,1354.99 524.012,1357.69 525.989,1360.24 527.966,1362.65 529.943,1364.92 531.92,1367.05 533.897,1369.04 535.874,1370.9 537.851,1372.63 539.828,1374.22 541.805,1375.7 543.782,1377.04 545.759,1378.27 547.736,1379.37 549.713,1380.36 551.69,1381.23 553.667,1381.99 555.644,1382.63 557.621,1383.16 559.599,1383.59 561.576,1383.91 563.553,1384.12 565.53,1384.23 567.507,1384.24 569.484,1384.15 571.461,1383.96 573.438,1383.68 575.415,1383.3 577.392,1382.83 579.369,1382.27 581.346,1381.62 583.323,1380.88 585.3,1380.05 587.277,1379.14 589.254,1378.15 591.231,1377.08 593.208,1375.92 595.185,1374.69 597.162,1373.38 599.139,1371.99 601.116,1370.53 603.093,1369 605.07,1367.4 607.047,1365.72 609.024,1363.97 611.001,1362.16 612.978,1360.28 614.955,1358.34 616.932,1356.33 618.909,1354.26 620.886,1352.13 622.863,1349.93 624.84,1347.68 626.817,1345.37 628.794,1343 630.771,1340.58 632.748,1338.1 634.725,1335.57 636.702,1332.99 638.679,1330.36 640.656,1327.67 642.633,1324.94 644.61,1322.16 646.587,1319.33 648.564,1316.45 650.541,1313.53 652.518,1310.57 654.495,1307.56 656.473,1304.51 658.45,1301.42 660.427,1298.29 662.404,1295.12 664.381,1291.92 666.358,1288.67 668.335,1285.39 670.312,1282.07 672.289,1278.72 674.266,1275.33 676.243,1271.91 678.22,1268.46 680.197,1264.97 682.174,1261.46 684.151,1257.92 686.128,1254.34 688.105,1250.74 690.082,1247.11 692.059,1243.45 694.036,1239.77 696.013,1236.06 697.99,1232.33 699.967,1228.58 701.944,1224.8 703.921,1220.99 705.898,1217.17 707.875,1213.33 709.852,1209.46 711.829,1205.57 713.806,1201.67 715.783,1197.75 717.76,1193.81 719.737,1189.85 721.714,1185.87 723.691,1181.88 725.668,1177.87 727.645,1173.85 729.622,1169.81 731.599,1165.76 733.576,1161.7 735.553,1157.62 737.53,1153.53 739.507,1149.43 741.484,1145.32 743.461,1141.2 745.438,1137.06 747.415,1132.92 749.392,1128.77 751.369,1124.61 753.346,1120.44 755.324,1116.26 757.301,1112.07 759.278,1107.88 761.255,1103.69 763.232,1099.48 765.209,1095.27 767.186,1091.06 769.163,1086.84 771.14,1082.62 773.117,1078.39 775.094,1074.16 777.071,1069.92 779.048,1065.69 781.025,1061.45 783.002,1057.21 784.979,1052.97 786.956,1048.72 788.933,1044.48 790.91,1040.24 792.887,1035.99 794.864,1031.75 796.841,1027.5 798.818,1023.26 800.795,1019.02 802.772,1014.78 804.749,1010.54 806.726,1006.3 808.703,1002.07 810.68,997.838 812.657,993.61 814.634,989.386 816.611,985.165 818.588,980.948 820.565,976.735 822.542,972.526 824.519,968.322 826.496,964.123 828.473,959.93 830.45,955.741 832.427,951.559 834.404,947.382 836.381,943.212 838.358,939.048 840.335,934.891 842.312,930.74 844.289,926.596 846.266,922.46 848.243,918.331 850.22,914.21 852.198,910.097 854.175,905.992 856.152,901.895 858.129,897.807 860.106,893.727 862.083,889.656 864.06,885.594 866.037,881.541 868.014,877.498 869.991,873.463 871.968,869.439 873.945,865.424 875.922,861.42 877.899,857.425 879.876,853.441 881.853,849.467 883.83,845.503 885.807,841.55 887.784,837.608 889.761,833.677 891.738,829.757 893.715,825.848 895.692,821.95 897.669,818.064 899.646,814.189 901.623,810.325 903.6,806.474 905.577,802.634 907.554,798.806 909.531,794.99 911.508,791.186 913.485,787.394 915.462,783.614 917.439,779.847 919.416,776.092 921.393,772.349 923.37,768.619 925.347,764.902 927.324,761.197 929.301,757.505 931.278,753.825 933.255,750.159 935.232,746.505 937.209,742.865 939.186,739.237 941.163,735.623 943.14,732.021 945.117,728.433 947.094,724.857 949.072,721.295 951.049,717.747 953.026,714.211 955.003,710.689 956.98,707.181 958.957,703.685 960.934,700.204 962.911,696.736 964.888,693.282 966.865,689.841 968.842,686.414 970.819,683.001 972.796,679.601 974.773,676.216 976.75,672.844 978.727,669.486 980.704,666.142 982.681,662.812 984.658,659.496 986.635,656.194 988.612,652.906 990.589,649.632 992.566,646.372 994.543,643.126 996.52,639.894 998.497,636.677 1000.47,633.473 1002.45,630.283 1004.43,627.108 1006.41,623.947 1008.38,620.8 1010.36,617.667 1012.34,614.548 1014.31,611.444 1016.29,608.354 1018.27,605.277 1020.24,602.215 1022.22,599.168 1024.2,596.134 1026.18,593.114 1028.15,590.109 1030.13,587.118 1032.11,584.141 1034.08,581.178 1036.06,578.229 1038.04,575.295 1040.01,572.374 1041.99,569.468 1043.97,566.575 1045.95,563.697 1047.92,560.833 1049.9,557.983 1051.88,555.146 1053.85,552.324 1055.83,549.516 1057.81,546.721 1059.78,543.941 1061.76,541.175 1063.74,538.422 1065.72,535.683 1067.69,532.958 1069.67,530.247 1071.65,527.55 1073.62,524.866 1075.6,522.196 1077.58,519.54 1079.55,516.897 1081.53,514.268 1083.51,511.653 1085.49,509.051 1087.46,506.462 1089.44,503.888 1091.42,501.326 1093.39,498.778 1095.37,496.243 1097.35,493.722 1099.33,491.214 1101.3,488.719 1103.28,486.238 1105.26,483.769 1107.23,481.314 1109.21,478.872 1111.19,476.443 1113.16,474.026 1115.14,471.623 1117.12,469.233 1119.1,466.855 1121.07,464.491 1123.05,462.139 1125.03,459.8 1127,457.474 1128.98,455.16 1130.96,452.859 1132.93,450.57 1134.91,448.294 1136.89,446.03 1138.87,443.779 1140.84,441.54 1142.82,439.313 1144.8,437.098 1146.77,434.896 1148.75,432.706 1150.73,430.528 1152.7,428.362 1154.68,426.208 1156.66,424.066 1158.64,421.935 1160.61,419.817 1162.59,417.71 1164.57,415.615 1166.54,413.532 1168.52,411.46 1170.5,409.399 1172.47,407.351 1174.45,405.313 1176.43,403.287 1178.41,401.273 1180.38,399.269 1182.36,397.277 1184.34,395.296 1186.31,393.326 1188.29,391.367 1190.27,389.419 1192.24,387.482 1194.22,385.556 1196.2,383.641 1198.18,381.736 1200.15,379.843 1202.13,377.96 1204.11,376.089 1206.08,374.228 1208.06,372.377 1210.04,370.538 1212.02,368.709 1213.99,366.89 1215.97,365.082 1217.95,363.285 1219.92,361.498 1221.9,359.722 1223.88,357.956 1225.85,356.2 1227.83,354.455 1229.81,352.719 1231.79,350.995 1233.76,349.28 1235.74,347.576 1237.72,345.881 1239.69,344.197 1241.67,342.523 1243.65,340.858 1245.62,339.204 1247.6,337.56 1249.58,335.925 1251.56,334.301 1253.53,332.686 1255.51,331.081 1257.49,329.485 1259.46,327.9 1261.44,326.323 1263.42,324.757 1265.39,323.2 1267.37,321.652 1269.35,320.114 1271.33,318.586 1273.3,317.067 1275.28,315.557 1277.26,314.056 1279.23,312.565 1281.21,311.082 1283.19,309.609 1285.16,308.145 1287.14,306.69 1289.12,305.244 1291.1,303.808 1293.07,302.38 1295.05,300.96 1297.03,299.55 1299,298.149 1300.98,296.756 1302.96,295.372 1304.94,293.997 1306.91,292.63 1308.89,291.272 1310.87,289.922 1312.84,288.581 1314.82,287.248 1316.8,285.924 1318.77,284.608 1320.75,283.3 1322.73,282.001 1324.71,280.71 1326.68,279.427 1328.66,278.152 1330.64,276.885 1332.61,275.626 1334.59,274.376 1336.57,273.133 1338.54,271.898 1340.52,270.671 1342.5,269.452 1344.48,268.24 1346.45,267.036 1348.43,265.84 1350.41,264.652 1352.38,263.471 1354.36,262.298 1356.34,261.132 1358.31,259.973 1360.29,258.822 1362.27,257.679 1364.25,256.542 1366.22,255.413 1368.2,254.291 1370.18,253.177 1372.15,252.069 1374.13,250.969 1376.11,249.875 1378.08,248.789 1380.06,247.71 1382.04,246.637 1384.02,245.571 1385.99,244.513 1387.97,243.461 1389.95,242.415 1391.92,241.377 1393.9,240.345 1395.88,239.319 1397.86,238.3 1399.83,237.288 1401.81,236.282 1403.79,235.283 1405.76,234.29 1407.74,233.303 1409.72,232.323 1411.69,231.348 1413.67,230.38 1415.65,229.419 1417.63,228.463 1419.6,227.513 1421.58,226.57 1423.56,225.632 1425.53,224.7 1427.51,223.775 1429.49,222.855 1431.46,221.94 1433.44,221.032 1435.42,220.13 1437.4,219.233 1439.37,218.341 1441.35,217.456 1443.33,216.576 1445.3,215.701 1447.28,214.832 1449.26,213.968 1451.23,213.11 1453.21,212.257 1455.19,211.409 1457.17,210.567 1459.14,209.73 1461.12,208.898 1463.1,208.071 1465.07,207.249 1467.05,206.433 1469.03,205.621 1471,204.815 1472.98,204.014 1474.96,203.218 1476.94,202.427 1478.91,201.641 1480.89,200.859 1482.87,200.083 1484.84,199.312 1486.82,198.546 1488.8,197.784 1490.78,197.028 1492.75,196.276 1494.73,195.529 1496.71,194.787 1498.68,194.05 1500.66,193.317 1502.64,192.589 1504.61,191.866 1506.59,191.148 1508.57,190.434 1510.55,189.725 1512.52,189.021 1514.5,188.321 1516.48,187.626 1518.45,186.935 1520.43,186.249 1522.41,185.567 1524.38,184.89 1526.36,184.217 1528.34,183.549 1530.32,182.885 1532.29,182.226 1534.27,181.571 1536.25,180.92 1538.22,180.273 1540.2,179.631 1542.18,178.994 1544.15,178.36 1546.13,177.731 1548.11,177.106 1550.09,176.485 1552.06,175.868 1554.04,175.256 1556.02,174.647 1557.99,174.043 1559.97,173.443 1561.95,172.846 1563.92,172.254 1565.9,171.666 1567.88,171.082 1569.86,170.502 1571.83,169.926 1573.81,169.353 1575.79,168.785 1577.76,168.22 1579.74,167.66 1581.72,167.103 1583.7,166.55 1585.67,166.001 1587.65,165.455 1589.63,164.914 1591.6,164.376 1593.58,163.842 1595.56,163.311 1597.53,162.784 1599.51,162.261 1601.49,161.741 1603.47,161.225 1605.44,160.713 1607.42,160.204 1609.4,159.698 1611.37,159.196 1613.35,158.698 1615.33,158.203 1617.3,157.711 1619.28,157.223 1621.26,156.738 1623.24,156.257 1625.21,155.779 1627.19,155.304 1629.17,154.833 1631.14,154.365 1633.12,153.9 1635.1,153.438 1637.07,152.98 1639.05,152.525 1641.03,152.073 1643.01,151.624 1644.98,151.178 1646.96,150.735 1648.94,150.296 1650.91,149.859 1652.89,149.426 1654.87,148.996 1656.84,148.568 1658.82,148.144 1660.8,147.722 1662.78,147.304 1664.75,146.888 1666.73,146.476 1668.71,146.066 1670.68,145.659 1672.66,145.255 1674.64,144.853 1676.61,144.455 1678.59,144.059 1680.57,143.666 1682.55,143.275 1684.52,142.888 1686.5,142.503 1688.48,142.121 1690.45,141.741 1692.43,141.364 1694.41,140.989 1696.39,140.618 1698.36,140.248 1700.34,139.882 1702.32,139.517 1704.29,139.156 1706.27,138.796 1708.25,138.439 1710.22,138.085 1712.2,137.733 1714.18,137.384 1716.16,137.036 1718.13,136.691 1720.11,136.349 1722.09,136.009 1724.06,135.671 1726.04,135.335 1728.02,135.002 1729.99,134.67 1731.97,134.341 1733.95,134.015 1735.93,133.69 1737.9,133.367 1739.88,133.047 1741.86,132.729 1743.83,132.413 1745.81,132.098 1747.79,131.786 1749.76,131.476 1751.74,131.168 1753.72,130.862 1755.7,130.558 1757.67,130.256 1759.65,129.956 1761.63,129.658 1763.6,129.361 1765.58,129.067 1767.56,128.774 1769.53,128.483 1771.51,128.194 1773.49,127.907 1775.47,127.621 1777.44,127.337 1779.42,127.055 1781.4,126.775 1783.37,126.497 1785.35,126.22 1787.33,125.944 1789.31,125.671 1791.28,125.399 1793.26,125.129 1795.24,124.86 1797.21,124.593 1799.19,124.328 1801.17,124.065 1803.14,123.803 1805.12,123.543 1807.1,123.284 1809.08,123.027 1811.05,122.772 1813.03,122.518 1815.01,122.266 1816.98,122.016 1818.96,121.767 1820.94,121.52 1822.91,121.274 1824.89,121.03 1826.87,120.788 1828.85,120.547 1830.82,120.308 1832.8,120.07 1834.78,119.834 1836.75,119.599 1838.73,119.366 1840.71,119.135 1842.68,118.905 1844.66,118.676 1846.64,118.449 1848.62,118.224 1850.59,118 1852.57,117.777 1854.55,117.556 1856.52,117.337 1858.5,117.119 1860.48,116.902 1862.45,116.687 1864.43,116.474 1866.41,116.261 1868.39,116.051 1870.36,115.841 1872.34,115.634 1874.32,115.427 1876.29,115.222 1878.27,115.019 1880.25,114.816 1882.23,114.616 1884.2,114.416 1886.18,114.218 1888.16,114.022 1890.13,113.826 1892.11,113.632 1894.09,113.44 1896.06,113.249 1898.04,113.059 1900.02,112.87 1902,112.683 1903.97,112.497 1905.95,112.313 1907.93,112.129 1909.9,111.947 1911.88,111.767 1913.86,111.587 1915.83,111.409 1917.81,111.233 1919.79,111.057 1921.77,110.883 1923.74,110.71 1925.72,110.538 1927.7,110.367 1929.67,110.198 1931.65,110.03 1933.63,109.863 1935.6,109.698 1937.58,109.533 1939.56,109.37 1941.54,109.208 1943.51,109.047 1945.49,108.887 1947.47,108.729 1949.44,108.572 1951.42,108.416 1953.4,108.261 1955.37,108.107 1957.35,107.954 1959.33,107.802 1961.31,107.652 1963.28,107.502 1965.26,107.354 1967.24,107.207 1969.21,107.061 1971.19,106.916 1973.17,106.772 1975.15,106.629 1977.12,106.488 1979.1,106.347 1981.08,106.207 1983.05,106.069 1985.03,105.931 1987.01,105.795 1988.98,105.659 1990.96,105.525 1992.94,105.392 1994.92,105.259 1996.89,105.128 1998.87,104.997 2000.85,104.868 2002.82,104.739 2004.8,104.612 2006.78,104.485 2008.75,104.36 2010.73,104.235 2012.71,104.111 2014.69,103.989 2016.66,103.867 2018.64,103.746 2020.62,103.626 2022.59,103.507 2024.57,103.389 2026.55,103.271 2028.52,103.155 2030.5,103.039 2032.48,102.925 2034.46,102.811 2036.43,102.698 2038.41,102.586 2040.39,102.474 2042.36,102.364 2044.34,102.254 2046.32,102.146 2048.29,102.038 2050.27,101.931 2052.25,101.824 2054.23,101.719 2056.2,101.614 2058.18,101.51 2060.16,101.407 2062.13,101.304 2064.11,101.202 2066.09,101.101 2068.06,101.001 2070.04,100.902 2072.02,100.803 2074,100.705 2075.97,100.608 2077.95,100.511 2079.93,100.415 2081.9,100.32 2083.88,100.225 2085.86,100.131 2087.84,100.038 2089.81,99.9456 2091.79,99.8537 2093.77,99.7625 2095.74,99.6719 2097.72,99.5819 2099.7,99.4925 2101.67,99.4038 2103.65,99.3157 2105.63,99.2282 2107.61,99.1412 2109.58,99.0549 2111.56,98.9692 2113.54,98.884 2115.51,98.7994 2117.49,98.7153 2119.47,98.6318 2121.44,98.5489 2123.42,98.4665 2125.4,98.3846 2127.38,98.3032 2129.35,98.2224 2131.33,98.142 2133.31,98.0622 2135.28,97.9829 2137.26,97.904 2139.24,97.8256 2141.21,97.7477 2143.19,97.6703 2145.17,97.5933 2147.15,97.5167 2149.12,97.4407 2151.1,97.365 2153.08,97.2898 2155.05,97.2149 2157.03,97.1405 2159.01,97.0665 2160.98,96.993 2162.96,96.9197 2164.94,96.8469 2166.92,96.7745 2168.89,96.7024 2170.87,96.6307 2172.85,96.5593 2174.82,96.4883 2176.8,96.4176 2178.78,96.3472 2180.76,96.2772 2182.73,96.2075 2184.71,96.1381 2186.69,96.0691 2188.66,96.0007 2190.64,95.9326 2192.62,95.8651 2194.59,95.798 2196.57,95.7314 2198.55,95.6653 2200.53,95.5996 2202.5,95.5343 2204.48,95.4695 2206.46,95.4052 2208.43,95.3413 2210.41,95.2778 2212.39,95.2148 2214.36,95.1522 2216.34,95.0901 2218.32,95.0284 2220.3,94.9671 2222.27,94.9062 2224.25,94.8457 2226.23,94.7857 2228.2,94.7261 2230.18,94.6669 2232.16,94.6081 2234.13,94.5497 2236.11,94.4917 2238.09,94.4342 2240.07,94.377 2242.04,94.3202 2244.02,94.2638 2246,94.2078 2247.97,94.1522 2249.95,94.097 2251.93,94.0421 2253.9,93.9877 2255.88,93.9336 2257.86,93.8799 2259.84,93.8265 2261.81,93.7736 2263.79,93.721 2265.77,93.6687 2267.74,93.6169 2269.72,93.5653 2271.7,93.5142 2273.68,93.4634 2275.65,93.4129 2277.63,93.3628 2279.61,93.3131 2281.58,93.2637 2283.56,93.2146 2285.54,93.1659 2287.51,93.1175 2289.49,93.0694 2291.47,93.0217 2293.45,92.9743 2295.42,92.9273 2297.4,92.8805 2299.38,92.8341 2301.35,92.788 2303.33,92.7422 2305.31,92.6968 2307.28,92.6516 2309.26,92.6068 2311.24,92.5623 2313.22,92.5181 2315.19,92.4742 2317.17,92.4306 2319.15,92.3873 2321.12,92.3443 2323.1,92.3016 2325.08,92.2592 2327.05,92.2171 2329.03,92.1753 2331.01,92.1337 2332.99,92.0925 2334.96,92.0515 2336.94,92.0109 2338.92,91.9705 2340.89,91.9303 2342.87,91.8905 2344.85,91.8509 2346.82,91.8116 2348.8,91.7726 2350.78,91.7339 2352.76,91.6954 "/>
<path clip-path="url(#clip090)" d="M2064.28 1377.32 L2286.92 1377.32 L2286.92 1273.64 L2064.28 1273.64  Z" fill="#ffffff" fill-rule="evenodd" fill-opacity="1"/>
<polyline clip-path="url(#clip090)" style="stroke:#000000; stroke-linecap:round; stroke-linejoin:round; stroke-width:4; stroke-opacity:1; fill:none" points="2064.28,1377.32 2286.92,1377.32 2286.92,1273.64 2064.28,1273.64 2064.28,1377.32 "/>
<polyline clip-path="url(#clip090)" style="stroke:#009af9; stroke-linecap:round; stroke-linejoin:round; stroke-width:4; stroke-opacity:1; fill:none" points="2086.22,1325.48 2217.89,1325.48 "/>
<path clip-path="url(#clip090)" d="M2264.49 1316.83 L2255.12 1329.45 L2264.98 1342.76 L2259.95 1342.76 L2252.41 1332.57 L2244.86 1342.76 L2239.84 1342.76 L2249.91 1329.19 L2240.69 1316.83 L2245.72 1316.83 L2252.59 1326.07 L2259.47 1316.83 L2264.49 1316.83 M2254.86 1306.83 L2259.56 1306.83 L2259.56 1311.51 L2254.86 1311.51 L2254.86 1306.83 M2245.81 1306.83 L2250.51 1306.83 L2250.51 1311.51 L2245.81 1311.51 L2245.81 1306.83 Z" fill="#000000" fill-rule="nonzero" fill-opacity="1" /></svg>
