<?xml version="1.0" encoding="utf-8"?>
<svg xmlns="http://www.w3.org/2000/svg" xmlns:xlink="http://www.w3.org/1999/xlink" width="600" height="400" viewBox="0 0 2400 1600">
<defs>
  <clipPath id="clip990">
    <rect x="0" y="0" width="2400" height="1600"/>
  </clipPath>
</defs>
<path clip-path="url(#clip990)" d="M0 1600 L2400 1600 L2400 0 L0 0  Z" fill="#ffffff" fill-rule="evenodd" fill-opacity="1"/>
<defs>
  <clipPath id="clip991">
    <rect x="480" y="0" width="1681" height="1600"/>
  </clipPath>
</defs>
<path clip-path="url(#clip990)" d="M102.74 1505.26 L2352.76 1505.26 L2352.76 47.2441 L102.74 47.2441  Z" fill="#ffffff" fill-rule="evenodd" fill-opacity="1"/>
<defs>
  <clipPath id="clip992">
    <rect x="102" y="47" width="2251" height="1459"/>
  </clipPath>
</defs>
<polyline clip-path="url(#clip992)" style="stroke:#000000; stroke-linecap:round; stroke-linejoin:round; stroke-width:2; stroke-opacity:0.1; fill:none" points="166.42,1505.26 166.42,47.2441 "/>
<polyline clip-path="url(#clip992)" style="stroke:#000000; stroke-linecap:round; stroke-linejoin:round; stroke-width:2; stroke-opacity:0.1; fill:none" points="697.084,1505.26 697.084,47.2441 "/>
<polyline clip-path="url(#clip992)" style="stroke:#000000; stroke-linecap:round; stroke-linejoin:round; stroke-width:2; stroke-opacity:0.1; fill:none" points="1227.75,1505.26 1227.75,47.2441 "/>
<polyline clip-path="url(#clip992)" style="stroke:#000000; stroke-linecap:round; stroke-linejoin:round; stroke-width:2; stroke-opacity:0.1; fill:none" points="1758.41,1505.26 1758.41,47.2441 "/>
<polyline clip-path="url(#clip992)" style="stroke:#000000; stroke-linecap:round; stroke-linejoin:round; stroke-width:2; stroke-opacity:0.1; fill:none" points="2289.08,1505.26 2289.08,47.2441 "/>
<polyline clip-path="url(#clip990)" style="stroke:#000000; stroke-linecap:round; stroke-linejoin:round; stroke-width:4; stroke-opacity:1; fill:none" points="102.74,1505.26 2352.76,1505.26 "/>
<polyline clip-path="url(#clip990)" style="stroke:#000000; stroke-linecap:round; stroke-linejoin:round; stroke-width:4; stroke-opacity:1; fill:none" points="166.42,1505.26 166.42,1486.36 "/>
<polyline clip-path="url(#clip990)" style="stroke:#000000; stroke-linecap:round; stroke-linejoin:round; stroke-width:4; stroke-opacity:1; fill:none" points="697.084,1505.26 697.084,1486.36 "/>
<polyline clip-path="url(#clip990)" style="stroke:#000000; stroke-linecap:round; stroke-linejoin:round; stroke-width:4; stroke-opacity:1; fill:none" points="1227.75,1505.26 1227.75,1486.36 "/>
<polyline clip-path="url(#clip990)" style="stroke:#000000; stroke-linecap:round; stroke-linejoin:round; stroke-width:4; stroke-opacity:1; fill:none" points="1758.41,1505.26 1758.41,1486.36 "/>
<polyline clip-path="url(#clip990)" style="stroke:#000000; stroke-linecap:round; stroke-linejoin:round; stroke-width:4; stroke-opacity:1; fill:none" points="2289.08,1505.26 2289.08,1486.36 "/>
<path clip-path="url(#clip990)" d="M128.723 1536.18 Q125.112 1536.18 123.284 1539.74 Q121.478 1543.28 121.478 1550.41 Q121.478 1557.52 123.284 1561.09 Q125.112 1564.63 128.723 1564.63 Q132.358 1564.63 134.163 1561.09 Q135.992 1557.52 135.992 1550.41 Q135.992 1543.28 134.163 1539.74 Q132.358 1536.18 128.723 1536.18 M128.723 1532.47 Q134.533 1532.47 137.589 1537.08 Q140.668 1541.66 140.668 1550.41 Q140.668 1559.14 137.589 1563.75 Q134.533 1568.33 128.723 1568.33 Q122.913 1568.33 119.834 1563.75 Q116.779 1559.14 116.779 1550.41 Q116.779 1541.66 119.834 1537.08 Q122.913 1532.47 128.723 1532.47 Z" fill="#000000" fill-rule="nonzero" fill-opacity="1" /><path clip-path="url(#clip990)" d="M148.885 1561.78 L153.769 1561.78 L153.769 1567.66 L148.885 1567.66 L148.885 1561.78 Z" fill="#000000" fill-rule="nonzero" fill-opacity="1" /><path clip-path="url(#clip990)" d="M173.955 1536.18 Q170.343 1536.18 168.515 1539.74 Q166.709 1543.28 166.709 1550.41 Q166.709 1557.52 168.515 1561.09 Q170.343 1564.63 173.955 1564.63 Q177.589 1564.63 179.394 1561.09 Q181.223 1557.52 181.223 1550.41 Q181.223 1543.28 179.394 1539.74 Q177.589 1536.18 173.955 1536.18 M173.955 1532.47 Q179.765 1532.47 182.82 1537.08 Q185.899 1541.66 185.899 1550.41 Q185.899 1559.14 182.82 1563.75 Q179.765 1568.33 173.955 1568.33 Q168.144 1568.33 165.066 1563.75 Q162.01 1559.14 162.01 1550.41 Q162.01 1541.66 165.066 1537.08 Q168.144 1532.47 173.955 1532.47 Z" fill="#000000" fill-rule="nonzero" fill-opacity="1" /><path clip-path="url(#clip990)" d="M204.116 1536.18 Q200.505 1536.18 198.677 1539.74 Q196.871 1543.28 196.871 1550.41 Q196.871 1557.52 198.677 1561.09 Q200.505 1564.63 204.116 1564.63 Q207.751 1564.63 209.556 1561.09 Q211.385 1557.52 211.385 1550.41 Q211.385 1543.28 209.556 1539.74 Q207.751 1536.18 204.116 1536.18 M204.116 1532.47 Q209.927 1532.47 212.982 1537.08 Q216.061 1541.66 216.061 1550.41 Q216.061 1559.14 212.982 1563.75 Q209.927 1568.33 204.116 1568.33 Q198.306 1568.33 195.228 1563.75 Q192.172 1559.14 192.172 1550.41 Q192.172 1541.66 195.228 1537.08 Q198.306 1532.47 204.116 1532.47 Z" fill="#000000" fill-rule="nonzero" fill-opacity="1" /><path clip-path="url(#clip990)" d="M659.885 1536.18 Q656.274 1536.18 654.445 1539.74 Q652.64 1543.28 652.64 1550.41 Q652.64 1557.52 654.445 1561.09 Q656.274 1564.63 659.885 1564.63 Q663.519 1564.63 665.325 1561.09 Q667.154 1557.52 667.154 1550.41 Q667.154 1543.28 665.325 1539.74 Q663.519 1536.18 659.885 1536.18 M659.885 1532.47 Q665.695 1532.47 668.751 1537.08 Q671.829 1541.66 671.829 1550.41 Q671.829 1559.14 668.751 1563.75 Q665.695 1568.33 659.885 1568.33 Q654.075 1568.33 650.996 1563.75 Q647.941 1559.14 647.941 1550.41 Q647.941 1541.66 650.996 1537.08 Q654.075 1532.47 659.885 1532.47 Z" fill="#000000" fill-rule="nonzero" fill-opacity="1" /><path clip-path="url(#clip990)" d="M680.047 1561.78 L684.931 1561.78 L684.931 1567.66 L680.047 1567.66 L680.047 1561.78 Z" fill="#000000" fill-rule="nonzero" fill-opacity="1" /><path clip-path="url(#clip990)" d="M705.116 1536.18 Q701.505 1536.18 699.677 1539.74 Q697.871 1543.28 697.871 1550.41 Q697.871 1557.52 699.677 1561.09 Q701.505 1564.63 705.116 1564.63 Q708.751 1564.63 710.556 1561.09 Q712.385 1557.52 712.385 1550.41 Q712.385 1543.28 710.556 1539.74 Q708.751 1536.18 705.116 1536.18 M705.116 1532.47 Q710.926 1532.47 713.982 1537.08 Q717.061 1541.66 717.061 1550.41 Q717.061 1559.14 713.982 1563.75 Q710.926 1568.33 705.116 1568.33 Q699.306 1568.33 696.227 1563.75 Q693.172 1559.14 693.172 1550.41 Q693.172 1541.66 696.227 1537.08 Q699.306 1532.47 705.116 1532.47 Z" fill="#000000" fill-rule="nonzero" fill-opacity="1" /><path clip-path="url(#clip990)" d="M725.325 1533.1 L743.681 1533.1 L743.681 1537.04 L729.607 1537.04 L729.607 1545.51 Q730.625 1545.16 731.644 1545 Q732.662 1544.81 733.681 1544.81 Q739.468 1544.81 742.848 1547.98 Q746.227 1551.16 746.227 1556.57 Q746.227 1562.15 742.755 1565.25 Q739.283 1568.33 732.963 1568.33 Q730.787 1568.33 728.519 1567.96 Q726.274 1567.59 723.866 1566.85 L723.866 1562.15 Q725.95 1563.28 728.172 1563.84 Q730.394 1564.4 732.871 1564.4 Q736.875 1564.4 739.213 1562.29 Q741.551 1560.18 741.551 1556.57 Q741.551 1552.96 739.213 1550.85 Q736.875 1548.75 732.871 1548.75 Q730.996 1548.75 729.121 1549.16 Q727.269 1549.58 725.325 1550.46 L725.325 1533.1 Z" fill="#000000" fill-rule="nonzero" fill-opacity="1" /><path clip-path="url(#clip990)" d="M1190.05 1536.18 Q1186.44 1536.18 1184.61 1539.74 Q1182.81 1543.28 1182.81 1550.41 Q1182.81 1557.52 1184.61 1561.09 Q1186.44 1564.63 1190.05 1564.63 Q1193.69 1564.63 1195.49 1561.09 Q1197.32 1557.52 1197.32 1550.41 Q1197.32 1543.28 1195.49 1539.74 Q1193.69 1536.18 1190.05 1536.18 M1190.05 1532.47 Q1195.86 1532.47 1198.92 1537.08 Q1202 1541.66 1202 1550.41 Q1202 1559.14 1198.92 1563.75 Q1195.86 1568.33 1190.05 1568.33 Q1184.24 1568.33 1181.16 1563.75 Q1178.11 1559.14 1178.11 1550.41 Q1178.11 1541.66 1181.16 1537.08 Q1184.24 1532.47 1190.05 1532.47 Z" fill="#000000" fill-rule="nonzero" fill-opacity="1" /><path clip-path="url(#clip990)" d="M1210.21 1561.78 L1215.1 1561.78 L1215.1 1567.66 L1210.21 1567.66 L1210.21 1561.78 Z" fill="#000000" fill-rule="nonzero" fill-opacity="1" /><path clip-path="url(#clip990)" d="M1226.09 1563.72 L1233.73 1563.72 L1233.73 1537.36 L1225.42 1539.03 L1225.42 1534.77 L1233.69 1533.1 L1238.36 1533.1 L1238.36 1563.72 L1246 1563.72 L1246 1567.66 L1226.09 1567.66 L1226.09 1563.72 Z" fill="#000000" fill-rule="nonzero" fill-opacity="1" /><path clip-path="url(#clip990)" d="M1265.44 1536.18 Q1261.83 1536.18 1260 1539.74 Q1258.2 1543.28 1258.2 1550.41 Q1258.2 1557.52 1260 1561.09 Q1261.83 1564.63 1265.44 1564.63 Q1269.08 1564.63 1270.88 1561.09 Q1272.71 1557.52 1272.71 1550.41 Q1272.71 1543.28 1270.88 1539.74 Q1269.08 1536.18 1265.44 1536.18 M1265.44 1532.47 Q1271.25 1532.47 1274.31 1537.08 Q1277.39 1541.66 1277.39 1550.41 Q1277.39 1559.14 1274.31 1563.75 Q1271.25 1568.33 1265.44 1568.33 Q1259.63 1568.33 1256.56 1563.75 Q1253.5 1559.14 1253.5 1550.41 Q1253.5 1541.66 1256.56 1537.08 Q1259.63 1532.47 1265.44 1532.47 Z" fill="#000000" fill-rule="nonzero" fill-opacity="1" /><path clip-path="url(#clip990)" d="M1721.21 1536.18 Q1717.6 1536.18 1715.77 1539.74 Q1713.97 1543.28 1713.97 1550.41 Q1713.97 1557.52 1715.77 1561.09 Q1717.6 1564.63 1721.21 1564.63 Q1724.85 1564.63 1726.65 1561.09 Q1728.48 1557.52 1728.48 1550.41 Q1728.48 1543.28 1726.65 1539.74 Q1724.85 1536.18 1721.21 1536.18 M1721.21 1532.47 Q1727.02 1532.47 1730.08 1537.08 Q1733.16 1541.66 1733.16 1550.41 Q1733.16 1559.14 1730.08 1563.75 Q1727.02 1568.33 1721.21 1568.33 Q1715.4 1568.33 1712.32 1563.75 Q1709.27 1559.14 1709.27 1550.41 Q1709.27 1541.66 1712.32 1537.08 Q1715.4 1532.47 1721.21 1532.47 Z" fill="#000000" fill-rule="nonzero" fill-opacity="1" /><path clip-path="url(#clip990)" d="M1741.38 1561.78 L1746.26 1561.78 L1746.26 1567.66 L1741.38 1567.66 L1741.38 1561.78 Z" fill="#000000" fill-rule="nonzero" fill-opacity="1" /><path clip-path="url(#clip990)" d="M1757.25 1563.72 L1764.89 1563.72 L1764.89 1537.36 L1756.58 1539.03 L1756.58 1534.77 L1764.85 1533.1 L1769.52 1533.1 L1769.52 1563.72 L1777.16 1563.72 L1777.16 1567.66 L1757.25 1567.66 L1757.25 1563.72 Z" fill="#000000" fill-rule="nonzero" fill-opacity="1" /><path clip-path="url(#clip990)" d="M1786.65 1533.1 L1805.01 1533.1 L1805.01 1537.04 L1790.94 1537.04 L1790.94 1545.51 Q1791.95 1545.16 1792.97 1545 Q1793.99 1544.81 1795.01 1544.81 Q1800.8 1544.81 1804.18 1547.98 Q1807.56 1551.16 1807.56 1556.57 Q1807.56 1562.15 1804.08 1565.25 Q1800.61 1568.33 1794.29 1568.33 Q1792.12 1568.33 1789.85 1567.96 Q1787.6 1567.59 1785.19 1566.85 L1785.19 1562.15 Q1787.28 1563.28 1789.5 1563.84 Q1791.72 1564.4 1794.2 1564.4 Q1798.2 1564.4 1800.54 1562.29 Q1802.88 1560.18 1802.88 1556.57 Q1802.88 1552.96 1800.54 1550.85 Q1798.2 1548.75 1794.2 1548.75 Q1792.32 1548.75 1790.45 1549.16 Q1788.6 1549.58 1786.65 1550.46 L1786.65 1533.1 Z" fill="#000000" fill-rule="nonzero" fill-opacity="1" /><path clip-path="url(#clip990)" d="M2251.38 1536.18 Q2247.77 1536.18 2245.94 1539.74 Q2244.13 1543.28 2244.13 1550.41 Q2244.13 1557.52 2245.94 1561.09 Q2247.77 1564.63 2251.38 1564.63 Q2255.01 1564.63 2256.82 1561.09 Q2258.65 1557.52 2258.65 1550.41 Q2258.65 1543.28 2256.82 1539.74 Q2255.01 1536.18 2251.38 1536.18 M2251.38 1532.47 Q2257.19 1532.47 2260.25 1537.08 Q2263.32 1541.66 2263.32 1550.41 Q2263.32 1559.14 2260.25 1563.75 Q2257.19 1568.33 2251.38 1568.33 Q2245.57 1568.33 2242.49 1563.75 Q2239.44 1559.14 2239.44 1550.41 Q2239.44 1541.66 2242.49 1537.08 Q2245.57 1532.47 2251.38 1532.47 Z" fill="#000000" fill-rule="nonzero" fill-opacity="1" /><path clip-path="url(#clip990)" d="M2271.54 1561.78 L2276.43 1561.78 L2276.43 1567.66 L2271.54 1567.66 L2271.54 1561.78 Z" fill="#000000" fill-rule="nonzero" fill-opacity="1" /><path clip-path="url(#clip990)" d="M2290.64 1563.72 L2306.96 1563.72 L2306.96 1567.66 L2285.01 1567.66 L2285.01 1563.72 Q2287.68 1560.97 2292.26 1556.34 Q2296.87 1551.69 2298.05 1550.35 Q2300.29 1547.82 2301.17 1546.09 Q2302.07 1544.33 2302.07 1542.64 Q2302.07 1539.88 2300.13 1538.15 Q2298.21 1536.41 2295.11 1536.41 Q2292.91 1536.41 2290.45 1537.17 Q2288.02 1537.94 2285.25 1539.49 L2285.25 1534.77 Q2288.07 1533.63 2290.52 1533.05 Q2292.98 1532.47 2295.01 1532.47 Q2300.38 1532.47 2303.58 1535.16 Q2306.77 1537.85 2306.77 1542.34 Q2306.77 1544.47 2305.96 1546.39 Q2305.18 1548.28 2303.07 1550.88 Q2302.49 1551.55 2299.39 1554.77 Q2296.29 1557.96 2290.64 1563.72 Z" fill="#000000" fill-rule="nonzero" fill-opacity="1" /><path clip-path="url(#clip990)" d="M2326.77 1536.18 Q2323.16 1536.18 2321.33 1539.74 Q2319.53 1543.28 2319.53 1550.41 Q2319.53 1557.52 2321.33 1561.09 Q2323.16 1564.63 2326.77 1564.63 Q2330.41 1564.63 2332.21 1561.09 Q2334.04 1557.52 2334.04 1550.41 Q2334.04 1543.28 2332.21 1539.74 Q2330.41 1536.18 2326.77 1536.18 M2326.77 1532.47 Q2332.58 1532.47 2335.64 1537.08 Q2338.72 1541.66 2338.72 1550.41 Q2338.72 1559.14 2335.64 1563.75 Q2332.58 1568.33 2326.77 1568.33 Q2320.96 1568.33 2317.88 1563.75 Q2314.83 1559.14 2314.83 1550.41 Q2314.83 1541.66 2317.88 1537.08 Q2320.96 1532.47 2326.77 1532.47 Z" fill="#000000" fill-rule="nonzero" fill-opacity="1" /><path clip-path="url(#clip990)" d="M1176.06 1604.35 L1176.06 1614.48 L1188.12 1614.48 L1188.12 1619.03 L1176.06 1619.03 L1176.06 1638.38 Q1176.06 1642.74 1177.24 1643.98 Q1178.45 1645.22 1182.11 1645.22 L1188.12 1645.22 L1188.12 1650.12 L1182.11 1650.12 Q1175.33 1650.12 1172.75 1647.61 Q1170.17 1645.06 1170.17 1638.38 L1170.17 1619.03 L1165.87 1619.03 L1165.87 1614.48 L1170.17 1614.48 L1170.17 1604.35 L1176.06 1604.35 Z" fill="#000000" fill-rule="nonzero" fill-opacity="1" /><path clip-path="url(#clip990)" d="M1216 1600.6 L1229.5 1600.6 L1229.5 1605.15 L1221.86 1605.15 L1221.86 1654.17 L1229.5 1654.17 L1229.5 1658.72 L1216 1658.72 L1216 1600.6 Z" fill="#000000" fill-rule="nonzero" fill-opacity="1" /><path clip-path="url(#clip990)" d="M1264.7 1615.53 L1264.7 1621.06 Q1262.22 1619.79 1259.54 1619.15 Q1256.87 1618.52 1254.01 1618.52 Q1249.65 1618.52 1247.45 1619.85 Q1245.29 1621.19 1245.29 1623.87 Q1245.29 1625.9 1246.85 1627.08 Q1248.4 1628.23 1253.12 1629.28 L1255.12 1629.72 Q1261.36 1631.06 1263.97 1633.51 Q1266.61 1635.93 1266.61 1640.29 Q1266.61 1645.25 1262.66 1648.15 Q1258.75 1651.05 1251.87 1651.05 Q1249.01 1651.05 1245.89 1650.47 Q1242.8 1649.93 1239.37 1648.82 L1239.37 1642.77 Q1242.61 1644.46 1245.76 1645.32 Q1248.91 1646.15 1252 1646.15 Q1256.14 1646.15 1258.37 1644.74 Q1260.6 1643.31 1260.6 1640.73 Q1260.6 1638.35 1258.97 1637.07 Q1257.38 1635.8 1251.94 1634.62 L1249.9 1634.15 Q1244.46 1633 1242.04 1630.64 Q1239.62 1628.26 1239.62 1624.12 Q1239.62 1619.09 1243.18 1616.35 Q1246.75 1613.62 1253.31 1613.62 Q1256.55 1613.62 1259.42 1614.09 Q1262.28 1614.57 1264.7 1615.53 Z" fill="#000000" fill-rule="nonzero" fill-opacity="1" /><path clip-path="url(#clip990)" d="M1289.62 1600.6 L1289.62 1658.72 L1276.13 1658.72 L1276.13 1654.17 L1283.73 1654.17 L1283.73 1605.15 L1276.13 1605.15 L1276.13 1600.6 L1289.62 1600.6 Z" fill="#000000" fill-rule="nonzero" fill-opacity="1" /><polyline clip-path="url(#clip992)" style="stroke:#000000; stroke-linecap:round; stroke-linejoin:round; stroke-width:2; stroke-opacity:0.1; fill:none" points="102.74,1257.28 2352.76,1257.28 "/>
<polyline clip-path="url(#clip992)" style="stroke:#000000; stroke-linecap:round; stroke-linejoin:round; stroke-width:2; stroke-opacity:0.1; fill:none" points="102.74,871.052 2352.76,871.052 "/>
<polyline clip-path="url(#clip992)" style="stroke:#000000; stroke-linecap:round; stroke-linejoin:round; stroke-width:2; stroke-opacity:0.1; fill:none" points="102.74,484.821 2352.76,484.821 "/>
<polyline clip-path="url(#clip992)" style="stroke:#000000; stroke-linecap:round; stroke-linejoin:round; stroke-width:2; stroke-opacity:0.1; fill:none" points="102.74,98.5888 2352.76,98.5888 "/>
<polyline clip-path="url(#clip990)" style="stroke:#000000; stroke-linecap:round; stroke-linejoin:round; stroke-width:4; stroke-opacity:1; fill:none" points="102.74,1505.26 102.74,47.2441 "/>
<polyline clip-path="url(#clip990)" style="stroke:#000000; stroke-linecap:round; stroke-linejoin:round; stroke-width:4; stroke-opacity:1; fill:none" points="102.74,1257.28 121.638,1257.28 "/>
<polyline clip-path="url(#clip990)" style="stroke:#000000; stroke-linecap:round; stroke-linejoin:round; stroke-width:4; stroke-opacity:1; fill:none" points="102.74,871.052 121.638,871.052 "/>
<polyline clip-path="url(#clip990)" style="stroke:#000000; stroke-linecap:round; stroke-linejoin:round; stroke-width:4; stroke-opacity:1; fill:none" points="102.74,484.821 121.638,484.821 "/>
<polyline clip-path="url(#clip990)" style="stroke:#000000; stroke-linecap:round; stroke-linejoin:round; stroke-width:4; stroke-opacity:1; fill:none" points="102.74,98.5888 121.638,98.5888 "/>
<path clip-path="url(#clip990)" d="M4.86549 1257.74 L34.5413 1257.74 L34.5413 1261.67 L4.86549 1261.67 L4.86549 1257.74 Z" fill="#000000" fill-rule="nonzero" fill-opacity="1" /><path clip-path="url(#clip990)" d="M55.2124 1255.42 Q52.0643 1255.42 50.2125 1257.57 Q48.3838 1259.73 48.3838 1263.48 Q48.3838 1267.2 50.2125 1269.38 Q52.0643 1271.53 55.2124 1271.53 Q58.3606 1271.53 60.1893 1269.38 Q62.0411 1267.2 62.0411 1263.48 Q62.0411 1259.73 60.1893 1257.57 Q58.3606 1255.42 55.2124 1255.42 M64.4948 1240.77 L64.4948 1245.03 Q62.7355 1244.19 60.93 1243.75 Q59.1476 1243.31 57.3884 1243.31 Q52.7588 1243.31 50.3051 1246.44 Q47.8745 1249.56 47.5273 1255.88 Q48.893 1253.87 50.9532 1252.8 Q53.0134 1251.72 55.4902 1251.72 Q60.6985 1251.72 63.7078 1254.89 Q66.7402 1258.04 66.7402 1263.48 Q66.7402 1268.8 63.592 1272.02 Q60.4439 1275.24 55.2124 1275.24 Q49.2171 1275.24 46.0458 1270.65 Q42.8745 1266.05 42.8745 1257.32 Q42.8745 1249.12 46.7634 1244.26 Q50.6523 1239.38 57.2032 1239.38 Q58.9624 1239.38 60.7448 1239.73 Q62.5504 1240.07 64.4948 1240.77 Z" fill="#000000" fill-rule="nonzero" fill-opacity="1" /><path clip-path="url(#clip990)" d="M4.54142 871.504 L34.2172 871.504 L34.2172 875.439 L4.54142 875.439 L4.54142 871.504 Z" fill="#000000" fill-rule="nonzero" fill-opacity="1" /><path clip-path="url(#clip990)" d="M57.1569 857.846 L45.3514 876.295 L57.1569 876.295 L57.1569 857.846 M55.93 853.772 L61.8096 853.772 L61.8096 876.295 L66.7402 876.295 L66.7402 880.184 L61.8096 880.184 L61.8096 888.332 L57.1569 888.332 L57.1569 880.184 L41.5551 880.184 L41.5551 875.67 L55.93 853.772 Z" fill="#000000" fill-rule="nonzero" fill-opacity="1" /><path clip-path="url(#clip990)" d="M6.62474 485.272 L36.3005 485.272 L36.3005 489.207 L6.62474 489.207 L6.62474 485.272 Z" fill="#000000" fill-rule="nonzero" fill-opacity="1" /><path clip-path="url(#clip990)" d="M50.4208 498.165 L66.7402 498.165 L66.7402 502.101 L44.7958 502.101 L44.7958 498.165 Q47.4579 495.411 52.0412 490.781 Q56.6476 486.128 57.8282 484.786 Q60.0735 482.263 60.9532 480.527 Q61.8559 478.767 61.8559 477.078 Q61.8559 474.323 59.9115 472.587 Q57.9902 470.851 54.8884 470.851 Q52.6893 470.851 50.2356 471.615 Q47.8051 472.378 45.0273 473.929 L45.0273 469.207 Q47.8514 468.073 50.3051 467.494 Q52.7588 466.916 54.7958 466.916 Q60.1661 466.916 63.3605 469.601 Q66.555 472.286 66.555 476.777 Q66.555 478.906 65.7448 480.827 Q64.9578 482.726 62.8513 485.318 Q62.2726 485.989 59.1708 489.207 Q56.0689 492.401 50.4208 498.165 Z" fill="#000000" fill-rule="nonzero" fill-opacity="1" /><path clip-path="url(#clip990)" d="M54.7958 84.3875 Q51.1847 84.3875 49.356 87.9523 Q47.5504 91.4939 47.5504 98.6235 Q47.5504 105.73 49.356 109.295 Q51.1847 112.836 54.7958 112.836 Q58.43 112.836 60.2356 109.295 Q62.0643 105.73 62.0643 98.6235 Q62.0643 91.4939 60.2356 87.9523 Q58.43 84.3875 54.7958 84.3875 M54.7958 80.6838 Q60.6059 80.6838 63.6615 85.2902 Q66.7402 89.8735 66.7402 98.6235 Q66.7402 107.35 63.6615 111.957 Q60.6059 116.54 54.7958 116.54 Q48.9856 116.54 45.9069 111.957 Q42.8514 107.35 42.8514 98.6235 Q42.8514 89.8735 45.9069 85.2902 Q48.9856 80.6838 54.7958 80.6838 Z" fill="#000000" fill-rule="nonzero" fill-opacity="1" /><path clip-path="url(#clip990)" d="M-65.0027 1197.12 L-62.1381 1197.12 L-62.1381 1224.05 Q-56.0907 1223.67 -52.9078 1220.42 Q-49.7568 1217.14 -49.7568 1211.32 Q-49.7568 1207.94 -50.5843 1204.79 Q-51.4119 1201.61 -53.067 1198.49 L-47.5288 1198.49 Q-46.192 1201.64 -45.4918 1204.95 Q-44.7916 1208.26 -44.7916 1211.67 Q-44.7916 1220.2 -49.7568 1225.19 Q-54.7221 1230.16 -63.1884 1230.16 Q-71.9413 1230.16 -77.0657 1225.45 Q-82.2219 1220.71 -82.2219 1212.68 Q-82.2219 1205.49 -77.5749 1201.32 Q-72.9598 1197.12 -65.0027 1197.12 M-66.7214 1202.98 Q-71.5275 1203.04 -74.3921 1205.68 Q-77.2567 1208.29 -77.2567 1212.62 Q-77.2567 1217.52 -74.4876 1220.48 Q-71.7185 1223.41 -66.6896 1223.86 L-66.7214 1202.98 Z" fill="#000000" fill-rule="nonzero" fill-opacity="1" /><path clip-path="url(#clip990)" d="M-75.888 1166.85 Q-76.4609 1167.84 -76.7156 1169.02 Q-77.002 1170.16 -77.002 1171.56 Q-77.002 1176.53 -73.7555 1179.2 Q-70.5408 1181.84 -64.4934 1181.84 L-45.7146 1181.84 L-45.7146 1187.73 L-81.3625 1187.73 L-81.3625 1181.84 L-75.8244 1181.84 Q-79.0709 1180 -80.6305 1177.04 Q-82.2219 1174.08 -82.2219 1169.84 Q-82.2219 1169.24 -82.1264 1168.51 Q-82.0628 1167.77 -81.9036 1166.88 L-75.888 1166.85 Z" fill="#000000" fill-rule="nonzero" fill-opacity="1" /><path clip-path="url(#clip990)" d="M-75.888 1141.2 Q-76.4609 1142.18 -76.7156 1143.36 Q-77.002 1144.51 -77.002 1145.91 Q-77.002 1150.87 -73.7555 1153.55 Q-70.5408 1156.19 -64.4934 1156.19 L-45.7146 1156.19 L-45.7146 1162.08 L-81.3625 1162.08 L-81.3625 1156.19 L-75.8244 1156.19 Q-79.0709 1154.34 -80.6305 1151.38 Q-82.2219 1148.42 -82.2219 1144.19 Q-82.2219 1143.59 -82.1264 1142.85 Q-82.0628 1142.12 -81.9036 1141.23 L-75.888 1141.2 Z" fill="#000000" fill-rule="nonzero" fill-opacity="1" /><path clip-path="url(#clip990)" d="M-77.2567 1122.67 Q-77.2567 1127.38 -73.5645 1130.12 Q-69.9043 1132.86 -63.5067 1132.86 Q-57.1092 1132.86 -53.4171 1130.15 Q-49.7568 1127.42 -49.7568 1122.67 Q-49.7568 1117.99 -53.4489 1115.26 Q-57.141 1112.52 -63.5067 1112.52 Q-69.8406 1112.52 -73.5327 1115.26 Q-77.2567 1117.99 -77.2567 1122.67 M-82.2219 1122.67 Q-82.2219 1115.03 -77.2567 1110.67 Q-72.2914 1106.31 -63.5067 1106.31 Q-54.7539 1106.31 -49.7568 1110.67 Q-44.7916 1115.03 -44.7916 1122.67 Q-44.7916 1130.34 -49.7568 1134.7 Q-54.7539 1139.03 -63.5067 1139.03 Q-72.2914 1139.03 -77.2567 1134.7 Q-82.2219 1130.34 -82.2219 1122.67 Z" fill="#000000" fill-rule="nonzero" fill-opacity="1" /><path clip-path="url(#clip990)" d="M-75.888 1075.95 Q-76.4609 1076.94 -76.7156 1078.11 Q-77.002 1079.26 -77.002 1080.66 Q-77.002 1085.63 -73.7555 1088.3 Q-70.5408 1090.94 -64.4934 1090.94 L-45.7146 1090.94 L-45.7146 1096.83 L-81.3625 1096.83 L-81.3625 1090.94 L-75.8244 1090.94 Q-79.0709 1089.09 -80.6305 1086.13 Q-82.2219 1083.17 -82.2219 1078.94 Q-82.2219 1078.34 -82.1264 1077.6 Q-82.0628 1076.87 -81.9036 1075.98 L-75.888 1075.95 Z" fill="#000000" fill-rule="nonzero" fill-opacity="1" /><path clip-path="url(#clip990)" d="M-95.1761 1035.02 Q-87.8556 1039.28 -80.6941 1041.35 Q-73.5327 1043.42 -66.1803 1043.42 Q-58.8279 1043.42 -51.6029 1041.35 Q-44.4096 1039.25 -37.1209 1035.02 L-37.1209 1040.11 Q-44.6006 1044.88 -51.8257 1047.27 Q-59.0507 1049.63 -66.1803 1049.63 Q-73.2781 1049.63 -80.4713 1047.27 Q-87.6646 1044.92 -95.1761 1040.11 L-95.1761 1035.02 Z" fill="#000000" fill-rule="nonzero" fill-opacity="1" /><path clip-path="url(#clip990)" d="M-79.9939 998.001 L-74.5194 998.001 Q-75.888 1000.48 -76.5564 1003 Q-77.2567 1005.48 -77.2567 1008.03 Q-77.2567 1013.72 -73.6282 1016.88 Q-70.0316 1020.03 -63.5067 1020.03 Q-56.9819 1020.03 -53.3534 1016.88 Q-49.7568 1013.72 -49.7568 1008.03 Q-49.7568 1005.48 -50.4252 1003 Q-51.1254 1000.48 -52.4941 998.001 L-47.0832 998.001 Q-45.9374 1000.45 -45.3645 1003.09 Q-44.7916 1005.7 -44.7916 1008.66 Q-44.7916 1016.72 -49.8523 1021.46 Q-54.913 1026.2 -63.5067 1026.2 Q-72.2278 1026.2 -77.2248 1021.43 Q-82.2219 1016.62 -82.2219 1008.28 Q-82.2219 1005.58 -81.649 1003 Q-81.1079 1000.42 -79.9939 998.001 Z" fill="#000000" fill-rule="nonzero" fill-opacity="1" /><path clip-path="url(#clip990)" d="M-63.634 971.616 Q-63.634 978.713 -62.0108 981.451 Q-60.3875 984.188 -56.4726 984.188 Q-53.3534 984.188 -51.5074 982.151 Q-49.6931 980.082 -49.6931 976.549 Q-49.6931 971.679 -53.1306 968.751 Q-56.5999 965.791 -62.3291 965.791 L-63.634 965.791 L-63.634 971.616 M-66.053 959.934 L-45.7146 959.934 L-45.7146 965.791 L-51.1254 965.791 Q-47.8789 967.796 -46.3193 970.788 Q-44.7916 973.78 -44.7916 978.109 Q-44.7916 983.583 -47.8471 986.83 Q-50.9345 990.044 -56.0907 990.044 Q-62.1063 990.044 -65.1618 986.034 Q-68.2174 981.992 -68.2174 974.003 L-68.2174 965.791 L-68.7903 965.791 Q-72.8325 965.791 -75.0287 968.464 Q-77.2567 971.106 -77.2567 975.912 Q-77.2567 978.968 -76.5246 981.864 Q-75.7925 984.761 -74.3284 987.434 L-79.7393 987.434 Q-80.9806 984.22 -81.5853 981.196 Q-82.2219 978.172 -82.2219 975.308 Q-82.2219 967.573 -78.2115 963.754 Q-74.2011 959.934 -66.053 959.934 Z" fill="#000000" fill-rule="nonzero" fill-opacity="1" /><path clip-path="url(#clip990)" d="M-80.3122 925.146 L-74.774 925.146 Q-76.0472 927.628 -76.6837 930.302 Q-77.3203 932.976 -77.3203 935.84 Q-77.3203 940.201 -75.9835 942.397 Q-74.6467 944.561 -71.9731 944.561 Q-69.9361 944.561 -68.7584 943.002 Q-67.6126 941.442 -66.5623 936.731 L-66.1167 934.726 Q-64.7799 928.488 -62.3291 925.878 Q-59.9101 923.236 -55.5496 923.236 Q-50.5843 923.236 -47.688 927.183 Q-44.7916 931.098 -44.7916 937.973 Q-44.7916 940.837 -45.3645 943.957 Q-45.9056 947.044 -47.0196 950.481 L-53.067 950.481 Q-51.3801 947.235 -50.5207 944.084 Q-49.6931 940.933 -49.6931 937.845 Q-49.6931 933.708 -51.0936 931.48 Q-52.5259 929.252 -55.104 929.252 Q-57.4911 929.252 -58.7643 930.875 Q-60.0374 932.466 -61.2151 937.909 L-61.6925 939.946 Q-62.8383 945.389 -65.1936 947.808 Q-67.5808 950.227 -71.7185 950.227 Q-76.7474 950.227 -79.4847 946.662 Q-82.2219 943.097 -82.2219 936.54 Q-82.2219 933.294 -81.7445 930.429 Q-81.2671 927.565 -80.3122 925.146 Z" fill="#000000" fill-rule="nonzero" fill-opacity="1" /><path clip-path="url(#clip990)" d="M-65.0027 883.419 L-62.1381 883.419 L-62.1381 910.346 Q-56.0907 909.964 -52.9078 906.717 Q-49.7568 903.439 -49.7568 897.614 Q-49.7568 894.24 -50.5843 891.089 Q-51.4119 887.906 -53.067 884.787 L-47.5288 884.787 Q-46.192 887.938 -45.4918 891.248 Q-44.7916 894.559 -44.7916 897.964 Q-44.7916 906.494 -49.7568 911.491 Q-54.7221 916.457 -63.1884 916.457 Q-71.9413 916.457 -77.0657 911.746 Q-82.2219 907.004 -82.2219 898.983 Q-82.2219 891.79 -77.5749 887.62 Q-72.9598 883.419 -65.0027 883.419 M-66.7214 889.275 Q-71.5275 889.339 -74.3921 891.981 Q-77.2567 894.59 -77.2567 898.919 Q-77.2567 903.821 -74.4876 906.781 Q-71.7185 909.709 -66.6896 910.155 L-66.7214 889.275 Z" fill="#000000" fill-rule="nonzero" fill-opacity="1" /><path clip-path="url(#clip990)" d="M-51.1254 851.145 L-51.1254 840.641 L-87.3781 840.641 L-85.0865 852.068 L-90.9429 852.068 L-93.2346 840.705 L-93.2346 834.275 L-51.1254 834.275 L-51.1254 823.772 L-45.7146 823.772 L-45.7146 851.145 L-51.1254 851.145 Z" fill="#000000" fill-rule="nonzero" fill-opacity="1" /><path clip-path="url(#clip990)" d="M-66.1803 793.853 L-66.1803 776.698 L-60.9605 776.698 L-60.9605 793.853 L-66.1803 793.853 Z" fill="#000000" fill-rule="nonzero" fill-opacity="1" /><path clip-path="url(#clip990)" d="M-79.9939 720.998 L-74.5194 720.998 Q-75.888 723.48 -76.5564 725.995 Q-77.2567 728.477 -77.2567 731.024 Q-77.2567 736.721 -73.6282 739.872 Q-70.0316 743.023 -63.5067 743.023 Q-56.9819 743.023 -53.3534 739.872 Q-49.7568 736.721 -49.7568 731.024 Q-49.7568 728.477 -50.4252 725.995 Q-51.1254 723.48 -52.4941 720.998 L-47.0832 720.998 Q-45.9374 723.448 -45.3645 726.09 Q-44.7916 728.7 -44.7916 731.66 Q-44.7916 739.713 -49.8523 744.455 Q-54.913 749.198 -63.5067 749.198 Q-72.2278 749.198 -77.2248 744.423 Q-82.2219 739.617 -82.2219 731.278 Q-82.2219 728.573 -81.649 725.995 Q-81.1079 723.417 -79.9939 720.998 Z" fill="#000000" fill-rule="nonzero" fill-opacity="1" /><path clip-path="url(#clip990)" d="M-63.634 694.612 Q-63.634 701.71 -62.0108 704.447 Q-60.3875 707.184 -56.4726 707.184 Q-53.3534 707.184 -51.5074 705.147 Q-49.6931 703.078 -49.6931 699.545 Q-49.6931 694.675 -53.1306 691.747 Q-56.5999 688.787 -62.3291 688.787 L-63.634 688.787 L-63.634 694.612 M-66.053 682.931 L-45.7146 682.931 L-45.7146 688.787 L-51.1254 688.787 Q-47.8789 690.792 -46.3193 693.784 Q-44.7916 696.776 -44.7916 701.105 Q-44.7916 706.579 -47.8471 709.826 Q-50.9345 713.041 -56.0907 713.041 Q-62.1063 713.041 -65.1618 709.03 Q-68.2174 704.988 -68.2174 696.999 L-68.2174 688.787 L-68.7903 688.787 Q-72.8325 688.787 -75.0287 691.461 Q-77.2567 694.103 -77.2567 698.909 Q-77.2567 701.964 -76.5246 704.861 Q-75.7925 707.757 -74.3284 710.431 L-79.7393 710.431 Q-80.9806 707.216 -81.5853 704.192 Q-82.2219 701.168 -82.2219 698.304 Q-82.2219 690.57 -78.2115 686.75 Q-74.2011 682.931 -66.053 682.931 Z" fill="#000000" fill-rule="nonzero" fill-opacity="1" /><path clip-path="url(#clip990)" d="M-80.3122 648.142 L-74.774 648.142 Q-76.0472 650.625 -76.6837 653.298 Q-77.3203 655.972 -77.3203 658.837 Q-77.3203 663.197 -75.9835 665.393 Q-74.6467 667.558 -71.9731 667.558 Q-69.9361 667.558 -68.7584 665.998 Q-67.6126 664.438 -66.5623 659.728 L-66.1167 657.723 Q-64.7799 651.484 -62.3291 648.874 Q-59.9101 646.232 -55.5496 646.232 Q-50.5843 646.232 -47.688 650.179 Q-44.7916 654.094 -44.7916 660.969 Q-44.7916 663.834 -45.3645 666.953 Q-45.9056 670.04 -47.0196 673.478 L-53.067 673.478 Q-51.3801 670.231 -50.5207 667.08 Q-49.6931 663.929 -49.6931 660.842 Q-49.6931 656.704 -51.0936 654.476 Q-52.5259 652.248 -55.104 652.248 Q-57.4911 652.248 -58.7643 653.871 Q-60.0374 655.463 -61.2151 660.905 L-61.6925 662.942 Q-62.8383 668.385 -65.1936 670.804 Q-67.5808 673.223 -71.7185 673.223 Q-76.7474 673.223 -79.4847 669.658 Q-82.2219 666.093 -82.2219 659.537 Q-82.2219 656.29 -81.7445 653.426 Q-81.2671 650.561 -80.3122 648.142 Z" fill="#000000" fill-rule="nonzero" fill-opacity="1" /><path clip-path="url(#clip990)" d="M-65.0027 606.415 L-62.1381 606.415 L-62.1381 633.342 Q-56.0907 632.96 -52.9078 629.713 Q-49.7568 626.435 -49.7568 620.61 Q-49.7568 617.237 -50.5843 614.086 Q-51.4119 610.903 -53.067 607.784 L-47.5288 607.784 Q-46.192 610.935 -45.4918 614.245 Q-44.7916 617.555 -44.7916 620.961 Q-44.7916 629.491 -49.7568 634.488 Q-54.7221 639.453 -63.1884 639.453 Q-71.9413 639.453 -77.0657 634.742 Q-82.2219 630 -82.2219 621.979 Q-82.2219 614.786 -77.5749 610.616 Q-72.9598 606.415 -65.0027 606.415 M-66.7214 612.271 Q-71.5275 612.335 -74.3921 614.977 Q-77.2567 617.587 -77.2567 621.915 Q-77.2567 626.817 -74.4876 629.777 Q-71.7185 632.705 -66.6896 633.151 L-66.7214 612.271 Z" fill="#000000" fill-rule="nonzero" fill-opacity="1" /><path clip-path="url(#clip990)" d="M-51.1254 569.717 L-51.1254 547.278 L-45.7146 547.278 L-45.7146 577.451 L-51.1254 577.451 Q-54.913 573.791 -61.2787 567.489 Q-67.6763 561.155 -69.5223 559.531 Q-72.9916 556.444 -75.3788 555.235 Q-77.7977 553.993 -80.1212 553.993 Q-83.9088 553.993 -86.296 556.667 Q-88.6831 559.309 -88.6831 563.574 Q-88.6831 566.597 -87.6328 569.971 Q-86.5824 573.313 -84.4499 577.133 L-90.9429 577.133 Q-92.5025 573.25 -93.2982 569.876 Q-94.094 566.502 -94.094 563.701 Q-94.094 556.317 -90.4018 551.924 Q-86.7097 547.532 -80.535 547.532 Q-77.6068 547.532 -74.965 548.646 Q-72.3551 549.728 -68.7903 552.625 Q-67.8672 553.42 -63.4431 557.685 Q-59.0507 561.95 -51.1254 569.717 Z" fill="#000000" fill-rule="nonzero" fill-opacity="1" /><path clip-path="url(#clip990)" d="M-95.1761 535.533 L-95.1761 530.44 Q-87.6646 525.666 -80.4713 523.311 Q-73.2781 520.923 -66.1803 520.923 Q-59.0507 520.923 -51.8257 523.311 Q-44.6006 525.666 -37.1209 530.44 L-37.1209 535.533 Q-44.4096 531.3 -51.6029 529.231 Q-58.8279 527.13 -66.1803 527.13 Q-73.5327 527.13 -80.6941 529.231 Q-87.8556 531.3 -95.1761 535.533 Z" fill="#000000" fill-rule="nonzero" fill-opacity="1" /><path clip-path="url(#clip990)" d="M-95.2398 488.999 L-95.2398 475.504 L-90.6883 475.504 L-90.6883 483.143 L-41.6724 483.143 L-41.6724 475.504 L-37.1209 475.504 L-37.1209 488.999 L-95.2398 488.999 Z" fill="#000000" fill-rule="nonzero" fill-opacity="1" /><path clip-path="url(#clip990)" d="M-74.5194 435.273 Q-78.4661 433.077 -80.344 430.021 Q-82.2219 426.966 -82.2219 422.828 Q-82.2219 417.258 -78.307 414.234 Q-74.4239 411.211 -67.2307 411.211 L-45.7146 411.211 L-45.7146 417.099 L-67.0397 417.099 Q-72.1641 417.099 -74.6467 418.913 Q-77.1293 420.727 -77.1293 424.451 Q-77.1293 429.003 -74.1056 431.644 Q-71.0819 434.286 -65.862 434.286 L-45.7146 434.286 L-45.7146 440.174 L-67.0397 440.174 Q-72.1959 440.174 -74.6467 441.989 Q-77.1293 443.803 -77.1293 447.591 Q-77.1293 452.078 -74.0738 454.72 Q-71.0501 457.362 -65.862 457.362 L-45.7146 457.362 L-45.7146 463.25 L-81.3625 463.25 L-81.3625 457.362 L-75.8244 457.362 Q-79.1027 455.357 -80.6623 452.556 Q-82.2219 449.755 -82.2219 445.904 Q-82.2219 442.021 -80.2485 439.315 Q-78.2752 436.578 -74.5194 435.273 Z" fill="#000000" fill-rule="nonzero" fill-opacity="1" /><path clip-path="url(#clip990)" d="M-74.5194 371.775 Q-78.4661 369.579 -80.344 366.523 Q-82.2219 363.468 -82.2219 359.33 Q-82.2219 353.76 -78.307 350.736 Q-74.4239 347.713 -67.2307 347.713 L-45.7146 347.713 L-45.7146 353.601 L-67.0397 353.601 Q-72.1641 353.601 -74.6467 355.415 Q-77.1293 357.229 -77.1293 360.953 Q-77.1293 365.505 -74.1056 368.147 Q-71.0819 370.788 -65.862 370.788 L-45.7146 370.788 L-45.7146 376.677 L-67.0397 376.677 Q-72.1959 376.677 -74.6467 378.491 Q-77.1293 380.305 -77.1293 384.093 Q-77.1293 388.58 -74.0738 391.222 Q-71.0501 393.864 -65.862 393.864 L-45.7146 393.864 L-45.7146 399.752 L-81.3625 399.752 L-81.3625 393.864 L-75.8244 393.864 Q-79.1027 391.859 -80.6623 389.058 Q-82.2219 386.257 -82.2219 382.406 Q-82.2219 378.523 -80.2485 375.817 Q-78.2752 373.08 -74.5194 371.775 Z" fill="#000000" fill-rule="nonzero" fill-opacity="1" /><path clip-path="url(#clip990)" d="M-95.2398 322.345 L-37.1209 322.345 L-37.1209 335.841 L-41.6724 335.841 L-41.6724 328.234 L-90.6883 328.234 L-90.6883 335.841 L-95.2398 335.841 L-95.2398 322.345 Z" fill="#000000" fill-rule="nonzero" fill-opacity="1" /><polyline clip-path="url(#clip992)" style="stroke:#009af9; stroke-linecap:round; stroke-linejoin:round; stroke-width:4; stroke-opacity:1; fill:none" points="166.42,98.5888 167.481,98.5888 168.543,98.5888 169.604,98.5887 170.665,98.5887 171.726,98.5886 172.788,98.5884 173.849,98.5883 174.91,98.588 175.972,98.5877 177.033,98.5873 178.094,98.5868 179.156,98.5862 180.217,98.5855 181.278,98.5847 182.34,98.5838 183.401,98.5827 184.462,98.5815 185.524,98.5801 186.585,98.5786 187.646,98.5769 188.708,98.575 189.769,98.5729 190.83,98.5707 191.892,98.5682 192.953,98.5656 194.014,98.5627 195.076,98.5595 196.137,98.5562 197.198,98.5525 198.26,98.5487 199.321,98.5445 200.382,98.5401 201.444,98.5354 202.505,98.5304 203.566,98.5252 204.628,98.5196 205.689,98.5137 206.75,98.5074 207.812,98.5008 208.873,98.4939 209.934,98.4867 210.996,98.479 212.057,98.471 213.118,98.4627 214.18,98.4539 215.241,98.4448 216.302,98.4352 217.364,98.4253 218.425,98.4149 219.486,98.4041 220.548,98.3929 221.609,98.3812 222.67,98.3691 223.732,98.3565 224.793,98.3435 225.854,98.33 226.916,98.316 227.977,98.3016 229.038,98.2866 230.1,98.2711 231.161,98.2552 232.222,98.2387 233.284,98.2217 234.345,98.2041 235.406,98.1861 236.468,98.1675 237.529,98.1483 238.59,98.1286 239.651,98.1083 240.713,98.0875 241.774,98.0661 242.835,98.0441 243.897,98.0215 244.958,97.9983 246.019,97.9745 247.081,97.9502 248.142,97.9252 249.203,97.8996 250.265,97.8734 251.326,97.8465 252.387,97.8191 253.449,97.791 254.51,97.7622 255.571,97.7328 256.633,97.7028 257.694,97.6721 258.755,97.6407 259.817,97.6087 260.878,97.576 261.939,97.5427 263.001,97.5086 264.062,97.474 265.123,97.4386 266.185,97.4025 267.246,97.3658 268.307,97.3284 269.369,97.2903 270.43,97.2515 271.491,97.212 272.553,97.1718 273.614,97.1309 274.675,97.0894 275.737,97.0471 276.798,97.0041 277.859,96.9605 278.921,96.9161 279.982,96.871 281.043,96.8252 282.105,96.7788 283.166,96.7316 284.227,96.6837 285.289,96.6351 286.35,96.5858 287.411,96.5358 288.473,96.4852 289.534,96.4338 290.595,96.3817 291.657,96.3289 292.718,96.2755 293.779,96.2213 294.841,96.1665 295.902,96.111 296.963,96.0548 298.025,95.9979 299.086,95.9404 300.147,95.8822 301.209,95.8234 302.27,95.7639 303.331,95.7038 304.393,95.643 305.454,95.5815 306.515,95.5195 307.576,95.4568 308.638,95.3936 309.699,95.3298 310.76,95.2653 311.822,95.2003 312.883,95.1346 313.944,95.0684 315.006,95.0016 316.067,94.9342 317.128,94.8662 318.19,94.7978 319.251,94.7287 320.312,94.6592 321.374,94.5891 322.435,94.5186 323.496,94.4475 324.558,94.376 325.619,94.304 326.68,94.2315 327.742,94.1587 328.803,94.0853 329.864,94.0116 330.926,93.9375 331.987,93.863 333.048,93.7881 334.11,93.7129 335.171,93.6373 336.232,93.5614 337.294,93.4852 338.355,93.4087 339.416,93.3319 340.478,93.2548 341.539,93.1776 342.6,93.1 343.662,93.0223 344.723,92.9444 345.784,92.8664 346.846,92.7881 347.907,92.7098 348.968,92.6313 350.03,92.5526 351.091,92.4736 352.152,92.3948 353.214,92.316 354.275,92.2373 355.336,92.1591 356.398,92.0809 357.459,92.0026 358.52,91.9244 359.582,91.8462 360.643,91.768 361.704,91.69 362.766,91.6122 363.827,91.5345 364.888,91.457 365.95,91.3798 367.011,91.3029 368.072,91.2262 369.134,91.1499 370.195,91.074 371.256,90.9985 372.318,90.9234 373.379,90.8488 374.44,90.7747 375.502,90.7011 376.563,90.6281 377.624,90.5557 378.685,90.484 379.747,90.4129 380.808,90.3425 381.869,90.2729 382.931,90.2041 383.992,90.136 385.053,90.0689 386.115,90.0026 387.176,89.9372 388.237,89.8728 389.299,89.8093 390.36,89.7469 391.421,89.6856 392.483,89.6253 393.544,89.5662 394.605,89.5083 395.667,89.4515 396.728,89.396 397.789,89.3418 398.851,89.2889 399.912,89.2373 400.973,89.1871 402.035,89.1383 403.096,89.091 404.157,89.0452 405.219,89.001 406.28,88.9583 407.341,88.9172 408.403,88.8778 409.464,88.84 410.525,88.804 411.587,88.7697 412.648,88.7369 413.709,88.7059 414.771,88.677 415.832,88.6504 416.893,88.626 417.955,88.6044 419.016,88.5851 420.077,88.5678 421.139,88.5526 422.2,88.5395 423.261,88.5286 424.323,88.5201 425.384,88.5139 426.445,88.51 427.507,88.5087 428.568,88.5099 429.629,88.5136 430.691,88.5201 431.752,88.5292 432.813,88.5411 433.875,88.5559 434.936,88.5736 435.997,88.5942 437.059,88.6178 438.12,88.6446 439.181,88.6744 440.243,88.7075 441.304,88.7438 442.365,88.7835 443.427,88.8265 444.488,88.873 445.549,88.923 446.61,88.9765 447.672,89.0337 448.733,89.0945 449.794,89.1591 450.856,89.2275 451.917,89.2997 452.978,89.3758 454.04,89.4559 455.101,89.54 456.162,89.6282 457.224,89.7205 458.285,89.8171 459.346,89.9178 460.408,90.0229 461.469,90.1323 462.53,90.2462 463.592,90.3645 464.653,90.4874 465.714,90.6149 466.776,90.7469 467.837,90.8837 468.898,91.0253 469.96,91.1716 471.021,91.3228 472.082,91.4789 473.144,91.64 474.205,91.806 475.266,91.9772 476.328,92.1535 477.389,92.335 478.45,92.5217 479.512,92.7136 480.573,92.911 481.634,93.1131 482.696,93.3203 483.757,93.5334 484.818,93.7526 485.88,93.9778 486.941,94.2091 488.002,94.4476 489.064,94.6922 490.125,94.9426 491.186,95.199 492.248,95.4614 493.309,95.7298 494.37,96.0044 495.432,96.2852 496.493,96.5723 497.554,96.8659 498.616,97.1659 499.677,97.4724 500.738,97.7856 501.8,98.1055 502.861,98.4322 503.922,98.7658 504.984,99.1063 506.045,99.4538 507.106,99.8084 508.168,100.17 509.229,100.539 510.29,100.915 511.352,101.299 512.413,101.69 513.474,102.089 514.535,102.495 515.597,102.909 516.658,103.33 517.719,103.76 518.781,104.197 519.842,104.642 520.903,105.096 521.965,105.557 523.026,106.026 524.087,106.504 525.149,106.99 526.21,107.484 527.271,107.986 528.333,108.497 529.394,109.017 530.455,109.545 531.517,110.082 532.578,110.627 533.639,111.182 534.701,111.745 535.762,112.316 536.823,112.897 537.885,113.487 538.946,114.086 540.007,114.694 541.069,115.311 542.13,115.937 543.191,116.573 544.253,117.218 545.314,117.872 546.375,118.536 547.437,119.209 548.498,119.892 549.559,120.585 550.621,121.287 551.682,121.998 552.743,122.72 553.805,123.451 554.866,124.192 555.927,124.943 556.989,125.703 558.05,126.471 559.111,127.251 560.173,128.041 561.234,128.842 562.295,129.654 563.357,130.479 564.418,131.314 565.479,132.16 566.541,133.015 567.602,133.882 568.663,134.759 569.725,135.646 570.786,136.544 571.847,137.453 572.909,138.372 573.97,139.303 575.031,140.244 576.093,141.196 577.154,142.159 578.215,143.134 579.277,144.119 580.338,145.116 581.399,146.124 582.46,147.143 583.522,148.174 584.583,149.216 585.644,150.27 586.706,151.335 587.767,152.412 588.828,153.5 589.89,154.6 590.951,155.712 592.012,156.836 593.074,157.971 594.135,159.119 595.196,160.278 596.258,161.449 597.319,162.633 598.38,163.828 599.442,165.036 600.503,166.255 601.564,167.487 602.626,168.731 603.687,169.987 604.748,171.256 605.81,172.537 606.871,173.831 607.932,175.137 608.994,176.455 610.055,177.786 611.116,179.129 612.178,180.485 613.239,181.853 614.3,183.234 615.362,184.628 616.423,186.035 617.484,187.454 618.546,188.886 619.607,190.33 620.668,191.788 621.73,193.258 622.791,194.741 623.852,196.237 624.914,197.746 625.975,199.268 627.036,200.803 628.098,202.35 629.159,203.911 630.22,205.484 631.282,207.071 632.343,208.671 633.404,210.283 634.466,211.909 635.527,213.548 636.588,215.199 637.65,216.864 638.711,218.542 639.772,220.233 640.834,221.938 641.895,223.655 642.956,225.385 644.018,227.128 645.079,228.881 646.14,230.647 647.202,232.428 648.263,234.222 649.324,236.03 650.385,237.852 651.447,239.691 652.508,241.545 653.569,243.412 654.631,245.292 655.692,247.186 656.753,249.092 657.815,251.012 658.876,252.945 659.937,254.891 660.999,256.85 662.06,258.823 663.121,260.808 664.183,262.807 665.244,264.819 666.305,266.844 667.367,268.883 668.428,270.934 669.489,272.999 670.551,275.077 671.612,277.168 672.673,279.273 673.735,281.39 674.796,283.521 675.857,285.665 676.919,287.822 677.98,289.992 679.041,292.175 680.103,294.371 681.164,296.581 682.225,298.803 683.287,301.039 684.348,303.287 685.409,305.549 686.471,307.824 687.532,310.111 688.593,312.412 689.655,314.726 690.716,317.052 691.777,319.392 692.839,321.744 693.9,324.11 694.961,326.488 696.023,328.879 697.084,331.283 698.145,333.7 699.207,336.129 700.268,338.572 701.329,341.027 702.391,343.494 703.452,345.975 704.513,348.468 705.575,350.973 706.636,353.492 707.697,356.023 708.759,358.566 709.82,361.122 710.881,363.69 711.943,366.271 713.004,368.864 714.065,371.469 715.127,374.087 716.188,376.717 717.249,379.359 718.311,382.014 719.372,384.681 720.433,387.359 721.494,390.05 722.556,392.753 723.617,395.468 724.678,398.195 725.74,400.934 726.801,403.685 727.862,406.447 728.924,409.222 729.985,412.008 731.046,414.805 732.108,417.615 733.169,420.436 734.23,423.268 735.292,426.112 736.353,428.968 737.414,431.835 738.476,434.713 739.537,437.602 740.598,440.503 741.66,443.415 742.721,446.338 743.782,449.272 744.844,452.217 745.905,455.172 746.966,458.139 748.028,461.118 749.089,464.107 750.15,467.108 751.212,470.118 752.273,473.139 753.334,476.17 754.396,479.211 755.457,482.262 756.518,485.324 757.58,488.395 758.641,491.476 759.702,494.567 760.764,497.667 761.825,500.778 762.886,503.897 763.948,507.026 765.009,510.163 766.07,513.308 767.132,516.463 768.193,519.628 769.254,522.802 770.316,525.986 771.377,529.179 772.438,532.381 773.5,535.592 774.561,538.811 775.622,542.04 776.684,545.277 777.745,548.523 778.806,551.777 779.868,555.04 780.929,558.311 781.99,561.59 783.052,564.877 784.113,568.172 785.174,571.474 786.236,574.785 787.297,578.103 788.358,581.429 789.419,584.762 790.481,588.102 791.542,591.45 792.603,594.805 793.665,598.166 794.726,601.535 795.787,604.91 796.849,608.293 797.91,611.682 798.971,615.077 800.033,618.479 801.094,621.887 802.155,625.301 803.217,628.722 804.278,632.149 805.339,635.581 806.401,639.02 807.462,642.464 808.523,645.914 809.585,649.369 810.646,652.83 811.707,656.297 812.769,659.768 813.83,663.245 814.891,666.727 815.953,670.214 817.014,673.706 818.075,677.203 819.137,680.705 820.198,684.212 821.259,687.723 822.321,691.239 823.382,694.769 824.443,698.302 825.505,701.838 826.566,705.376 827.627,708.917 828.689,712.46 829.75,716.007 830.811,719.555 831.873,723.107 832.934,726.661 833.995,730.217 835.057,733.776 836.118,737.337 837.179,740.901 838.241,744.466 839.302,748.034 840.363,751.604 841.425,755.176 842.486,758.751 843.547,762.326 844.609,765.904 845.67,769.483 846.731,773.064 847.793,776.6 848.854,780.143 849.915,783.692 850.977,787.247 852.038,790.808 853.099,794.374 854.161,797.945 855.222,801.521 856.283,805.101 857.344,808.685 858.406,812.273 859.467,815.865 860.528,819.459 861.59,823.056 862.651,826.656 863.712,830.258 864.774,833.862 865.835,837.468 866.896,841.075 867.958,844.683 869.019,848.292 870.08,851.902 871.142,855.512 872.203,859.122 873.264,862.732 874.326,866.342 875.387,869.951 876.448,873.559 877.51,877.166 878.571,880.772 879.632,884.376 880.694,887.978 881.755,891.578 882.816,895.177 883.878,898.772 884.939,902.365 886,905.956 887.062,909.543 888.123,913.127 889.184,916.707 890.246,920.285 891.307,923.858 892.368,927.427 893.43,930.993 894.491,934.554 895.552,938.11 896.614,941.662 897.675,945.21 898.736,948.752 899.798,952.289 900.859,955.822 901.92,959.349 902.982,962.87 904.043,966.386 905.104,969.896 906.166,973.401 907.227,976.9 908.288,980.392 909.35,983.879 910.411,987.359 911.472,990.833 912.534,994.3 913.595,997.761 914.656,1001.22 915.718,1004.66 916.779,1008.1 917.84,1011.54 918.902,1014.97 919.963,1018.39 921.024,1021.8 922.086,1025.21 923.147,1028.6 924.208,1032 925.269,1035.38 926.331,1038.76 927.392,1042.13 928.453,1045.49 929.515,1048.85 930.576,1052.19 931.637,1055.54 932.699,1058.87 933.76,1062.2 934.821,1065.53 935.883,1068.84 936.944,1072.15 938.005,1075.45 939.067,1078.74 940.128,1082.01 941.189,1085.28 942.251,1088.54 943.312,1091.79 944.373,1095.03 945.435,1098.26 946.496,1101.48 947.557,1104.69 948.619,1107.89 949.68,1111.08 950.741,1114.27 951.803,1117.44 952.864,1120.6 953.925,1123.76 954.987,1126.9 956.048,1130.03 957.109,1133.16 958.171,1136.27 959.232,1139.38 960.293,1142.47 961.355,1145.55 962.416,1148.63 963.477,1151.69 964.539,1154.75 965.6,1157.79 966.661,1160.82 967.723,1163.85 968.784,1166.86 969.845,1169.86 970.907,1172.85 971.968,1175.83 973.029,1178.8 974.091,1181.76 975.152,1184.7 976.213,1187.64 977.275,1190.56 978.336,1193.48 979.397,1196.38 980.459,1199.26 981.52,1202.14 982.581,1205.01 983.643,1207.86 984.704,1210.7 985.765,1213.52 986.827,1216.34 987.888,1219.14 988.949,1221.93 990.011,1224.7 991.072,1227.46 992.133,1230.21 993.195,1232.94 994.256,1235.66 995.317,1238.36 996.378,1241.05 997.44,1243.73 998.501,1246.39 999.562,1249.04 1000.62,1251.67 1001.69,1254.3 1002.75,1256.91 1003.81,1259.5 1004.87,1262.09 1005.93,1264.66 1006.99,1267.21 1008.05,1269.75 1009.11,1272.28 1010.18,1274.79 1011.24,1277.29 1012.3,1279.77 1013.36,1282.24 1014.42,1284.7 1015.48,1287.14 1016.54,1289.56 1017.61,1291.97 1018.67,1294.37 1019.73,1296.75 1020.79,1299.11 1021.85,1301.46 1022.91,1303.79 1023.97,1306.11 1025.03,1308.42 1026.1,1310.7 1027.16,1312.98 1028.22,1315.23 1029.28,1317.48 1030.34,1319.7 1031.4,1321.91 1032.46,1324.11 1033.52,1326.28 1034.59,1328.45 1035.65,1330.59 1036.71,1332.72 1037.77,1334.84 1038.83,1336.94 1039.89,1339.02 1040.95,1341.09 1042.02,1343.14 1043.08,1345.18 1044.14,1347.19 1045.2,1349.19 1046.26,1351.17 1047.32,1353.14 1048.38,1355.09 1049.44,1357.02 1050.51,1358.94 1051.57,1360.84 1052.63,1362.72 1053.69,1364.59 1054.75,1366.45 1055.81,1368.28 1056.87,1370.1 1057.94,1371.91 1059,1373.69 1060.06,1375.46 1061.12,1377.22 1062.18,1378.96 1063.24,1380.68 1064.3,1382.38 1065.36,1384.07 1066.43,1385.74 1067.49,1387.39 1068.55,1389.03 1069.61,1390.65 1070.67,1392.25 1071.73,1393.84 1072.79,1395.41 1073.86,1396.96 1074.92,1398.5 1075.98,1400.01 1077.04,1401.51 1078.1,1403 1079.16,1404.46 1080.22,1405.91 1081.28,1407.34 1082.35,1408.76 1083.41,1410.16 1084.47,1411.53 1085.53,1412.9 1086.59,1414.24 1087.65,1415.57 1088.71,1416.88 1089.78,1418.17 1090.84,1419.44 1091.9,1420.7 1092.96,1421.94 1094.02,1423.16 1095.08,1424.36 1096.14,1425.55 1097.2,1426.72 1098.27,1427.87 1099.33,1429 1100.39,1430.12 1101.45,1431.21 1102.51,1432.33 1103.57,1433.44 1104.63,1434.54 1105.7,1435.61 1106.76,1436.65 1107.82,1437.68 1108.88,1438.68 1109.94,1439.66 1111,1440.62 1112.06,1441.56 1113.12,1442.47 1114.19,1443.36 1115.25,1444.23 1116.31,1445.09 1117.37,1445.92 1118.43,1446.73 1119.49,1447.51 1120.55,1448.28 1121.62,1449.03 1122.68,1449.76 1123.74,1450.47 1124.8,1451.16 1125.86,1451.83 1126.92,1452.48 1127.98,1453.11 1129.04,1453.72 1130.11,1454.32 1131.17,1454.89 1132.23,1455.45 1133.29,1455.99 1134.35,1456.51 1135.41,1457.01 1136.47,1457.49 1137.54,1457.96 1138.6,1458.41 1139.66,1458.84 1140.72,1459.25 1141.78,1459.64 1142.84,1460.02 1143.9,1460.38 1144.96,1460.72 1146.03,1461.05 1147.09,1461.36 1148.15,1461.65 1149.21,1461.92 1150.27,1462.18 1151.33,1462.42 1152.39,1462.64 1153.46,1462.84 1154.52,1463.03 1155.58,1463.2 1156.64,1463.36 1157.7,1463.5 1158.76,1463.62 1159.82,1463.72 1160.88,1463.81 1161.95,1463.88 1163.01,1463.93 1164.07,1463.97 1165.13,1463.99 1166.19,1464 1167.25,1463.98 1168.31,1463.95 1169.37,1463.9 1170.44,1463.83 1171.5,1463.75 1172.56,1463.65 1173.62,1463.54 1174.68,1463.41 1175.74,1463.26 1176.8,1463.1 1177.87,1462.93 1178.93,1462.74 1179.99,1462.53 1181.05,1462.31 1182.11,1462.08 1183.17,1461.82 1184.23,1461.55 1185.29,1461.27 1186.36,1460.97 1187.42,1460.65 1188.48,1460.32 1189.54,1459.97 1190.6,1459.6 1191.66,1459.22 1192.72,1458.82 1193.79,1458.4 1194.85,1457.97 1195.91,1457.53 1196.97,1457.06 1198.03,1456.58 1199.09,1456.08 1200.15,1455.57 1201.21,1455.04 1202.28,1454.49 1203.34,1453.92 1204.4,1453.34 1205.46,1452.75 1206.52,1452.13 1207.58,1451.5 1208.64,1450.85 1209.71,1450.19 1210.77,1449.51 1211.83,1448.81 1212.89,1448.09 1213.95,1447.36 1215.01,1446.62 1216.07,1445.85 1217.13,1445.07 1218.2,1444.27 1219.26,1443.46 1220.32,1442.63 1221.38,1441.78 1222.44,1440.92 1223.5,1440.04 1224.56,1439.14 1225.63,1438.23 1226.69,1437.3 1227.75,1436.36 1228.81,1435.4 1229.87,1434.42 1230.93,1433.43 1231.99,1432.42 1233.05,1431.39 1234.12,1430.35 1235.18,1429.3 1236.24,1428.23 1237.3,1427.14 1238.36,1426.04 1239.42,1424.92 1240.48,1423.78 1241.55,1422.63 1242.61,1421.47 1243.67,1420.29 1244.73,1419.1 1245.79,1417.89 1246.85,1416.66 1247.91,1415.43 1248.97,1414.17 1250.04,1412.91 1251.1,1411.62 1252.16,1410.33 1253.22,1409.02 1254.28,1407.7 1255.34,1406.36 1256.4,1405.01 1257.47,1403.64 1258.53,1402.26 1259.59,1400.87 1260.65,1399.47 1261.71,1398.05 1262.77,1396.62 1263.83,1395.18 1264.89,1393.72 1265.96,1392.24 1267.02,1390.75 1268.08,1389.24 1269.14,1387.72 1270.2,1386.18 1271.26,1384.63 1272.32,1383.06 1273.39,1381.48 1274.45,1379.88 1275.51,1378.27 1276.57,1376.65 1277.63,1375.01 1278.69,1373.36 1279.75,1371.69 1280.81,1370.01 1281.88,1368.31 1282.94,1366.6 1284,1364.88 1285.06,1363.14 1286.12,1361.39 1287.18,1359.63 1288.24,1357.85 1289.31,1356.06 1290.37,1354.26 1291.43,1352.44 1292.49,1350.61 1293.55,1348.77 1294.61,1346.91 1295.67,1345.04 1296.73,1343.16 1297.8,1341.26 1298.86,1339.35 1299.92,1337.43 1300.98,1335.5 1302.04,1333.55 1303.1,1331.59 1304.16,1329.62 1305.22,1327.63 1306.29,1325.64 1307.35,1323.63 1308.41,1321.6 1309.47,1319.57 1310.53,1317.52 1311.59,1315.46 1312.65,1313.39 1313.72,1311.31 1314.78,1309.21 1315.84,1307.11 1316.9,1304.99 1317.96,1302.86 1319.02,1300.71 1320.08,1298.56 1321.14,1296.39 1322.21,1294.21 1323.27,1292.02 1324.33,1289.82 1325.39,1287.61 1326.45,1285.38 1327.51,1283.15 1328.57,1280.9 1329.64,1278.64 1330.7,1276.37 1331.76,1274.09 1332.82,1271.79 1333.88,1269.49 1334.94,1267.17 1336,1264.84 1337.06,1262.5 1338.13,1260.15 1339.19,1257.79 1340.25,1255.42 1341.31,1253.04 1342.37,1250.64 1343.43,1248.23 1344.49,1245.81 1345.56,1243.38 1346.62,1240.95 1347.68,1238.5 1348.74,1236.04 1349.8,1233.57 1350.86,1231.09 1351.92,1228.6 1352.98,1226.1 1354.05,1223.59 1355.11,1221.07 1356.17,1218.54 1357.23,1216 1358.29,1213.45 1359.35,1210.89 1360.41,1208.32 1361.48,1205.74 1362.54,1203.15 1363.6,1200.56 1364.66,1197.95 1365.72,1195.34 1366.78,1192.71 1367.84,1190.07 1368.9,1187.43 1369.97,1184.77 1371.03,1182.11 1372.09,1179.43 1373.15,1176.75 1374.21,1174.06 1375.27,1171.35 1376.33,1168.64 1377.4,1165.92 1378.46,1163.19 1379.52,1160.45 1380.58,1157.7 1381.64,1154.94 1382.7,1152.18 1383.76,1149.4 1384.82,1146.62 1385.89,1143.83 1386.95,1141.03 1388.01,1138.22 1389.07,1135.4 1390.13,1132.57 1391.19,1129.74 1392.25,1126.9 1393.32,1124.05 1394.38,1121.19 1395.44,1118.33 1396.5,1115.45 1397.56,1112.57 1398.62,1109.69 1399.68,1106.79 1400.74,1103.89 1401.81,1100.98 1402.87,1098.06 1403.93,1095.14 1404.99,1092.21 1406.05,1089.27 1407.11,1086.32 1408.17,1083.37 1409.24,1080.41 1410.3,1077.45 1411.36,1074.48 1412.42,1071.5 1413.48,1068.52 1414.54,1065.53 1415.6,1062.53 1416.66,1059.53 1417.73,1056.52 1418.79,1053.51 1419.85,1050.49 1420.91,1047.47 1421.97,1044.44 1423.03,1041.4 1424.09,1038.36 1425.16,1035.31 1426.22,1032.26 1427.28,1029.21 1428.34,1026.15 1429.4,1023.09 1430.46,1020.02 1431.52,1016.95 1432.58,1013.87 1433.65,1010.79 1434.71,1007.7 1435.77,1004.61 1436.83,1001.52 1437.89,998.415 1438.95,995.309 1440.01,992.2 1441.07,989.086 1442.14,985.969 1443.2,982.847 1444.26,979.722 1445.32,976.593 1446.38,973.461 1447.44,970.326 1448.5,967.187 1449.57,964.046 1450.63,960.901 1451.69,957.754 1452.75,954.604 1453.81,951.451 1454.87,948.296 1455.93,945.139 1456.99,941.979 1458.06,938.817 1459.12,935.653 1460.18,932.488 1461.24,929.32 1462.3,926.15 1463.36,922.979 1464.42,919.807 1465.49,916.617 1466.55,913.421 1467.61,910.227 1468.67,907.035 1469.73,903.845 1470.79,900.656 1471.85,897.47 1472.91,894.285 1473.98,891.102 1475.04,887.92 1476.1,884.74 1477.16,881.562 1478.22,878.385 1479.28,875.21 1480.34,872.037 1481.41,868.865 1482.47,865.694 1483.53,862.526 1484.59,859.358 1485.65,856.193 1486.71,853.029 1487.77,849.866 1488.83,846.706 1489.9,843.547 1490.96,840.39 1492.02,837.234 1493.08,834.081 1494.14,830.93 1495.2,827.78 1496.26,824.633 1497.33,821.488 1498.39,818.346 1499.45,815.206 1500.51,812.068 1501.57,808.933 1502.63,805.8 1503.69,802.671 1504.75,799.544 1505.82,796.421 1506.88,793.301 1507.94,790.184 1509,787.071 1510.06,783.961 1511.12,780.856 1512.18,777.754 1513.25,774.657 1514.31,771.564 1515.37,768.475 1516.43,765.392 1517.49,762.313 1518.55,759.239 1519.61,756.171 1520.67,753.108 1521.74,750.052 1522.8,747.001 1523.86,743.968 1524.92,740.949 1525.98,737.932 1527.04,734.919 1528.1,731.909 1529.17,728.903 1530.23,725.902 1531.29,722.906 1532.35,719.915 1533.41,716.93 1534.47,713.95 1535.53,710.977 1536.59,708.011 1537.66,705.052 1538.72,702.1 1539.78,699.156 1540.84,696.22 1541.9,693.292 1542.96,690.373 1544.02,687.463 1545.09,684.562 1546.15,681.671 1547.21,678.79 1548.27,675.918 1549.33,673.057 1550.39,670.207 1551.45,667.367 1552.51,664.538 1553.58,661.721 1554.64,658.915 1555.7,656.121 1556.76,653.339 1557.82,650.568 1558.88,647.81 1559.94,645.065 1561.01,642.332 1562.07,639.612 1563.13,636.905 1564.19,634.211 1565.25,631.53 1566.31,628.862 1567.37,626.208 1568.43,623.568 1569.5,620.941 1570.56,618.328 1571.62,615.728 1572.68,613.143 1573.74,610.572 1574.8,608.014 1575.86,605.471 1576.93,602.942 1577.99,600.427 1579.05,597.927 1580.11,595.44 1581.17,592.968 1582.23,590.511 1583.29,588.06 1584.35,585.62 1585.42,583.198 1586.48,580.795 1587.54,578.41 1588.6,576.043 1589.66,573.695 1590.72,571.364 1591.78,569.052 1592.84,566.758 1593.91,564.482 1594.97,562.223 1596.03,559.983 1597.09,557.76 1598.15,555.555 1599.21,553.368 1600.27,551.199 1601.34,549.047 1602.4,546.914 1603.46,544.798 1604.52,542.7 1605.58,540.62 1606.64,538.558 1607.7,536.514 1608.76,534.489 1609.83,532.482 1610.89,530.493 1611.95,528.522 1613.01,526.57 1614.07,524.637 1615.13,522.723 1616.19,520.828 1617.26,518.952 1618.32,517.095 1619.38,515.258 1620.44,513.441 1621.5,511.643 1622.56,509.866 1623.62,508.109 1624.68,506.372 1625.75,504.657 1626.81,502.962 1627.87,501.289 1628.93,499.637 1629.99,498.002 1631.05,496.386 1632.11,494.791 1633.18,493.217 1634.24,491.664 1635.3,490.132 1636.36,488.621 1637.42,487.133 1638.48,485.666 1639.54,484.222 1640.6,482.801 1641.67,481.402 1642.73,480.025 1643.79,478.672 1644.85,477.343 1645.91,476.036 1646.97,474.754 1648.03,473.495 1649.1,472.26 1650.16,471.049 1651.22,469.863 1652.28,468.7 1653.34,467.563 1654.4,466.45 1655.46,465.362 1656.52,464.298 1657.59,463.26 1658.65,462.247 1659.71,461.259 1660.77,460.296 1661.83,459.358 1662.89,458.446 1663.95,457.559 1665.02,456.698 1666.08,455.863 1667.14,455.052 1668.2,454.268 1669.26,453.509 1670.32,452.776 1671.38,452.068 1672.44,451.386 1673.51,450.73 1674.57,450.1 1675.63,449.495 1676.69,448.915 1677.75,448.362 1678.81,447.833 1679.87,447.33 1680.94,446.853 1682,446.401 1683.06,445.974 1684.12,445.573 1685.18,445.196 1686.24,444.845 1687.3,444.519 1688.36,444.217 1689.43,443.94 1690.49,443.688 1691.55,443.46 1692.61,443.257 1693.67,443.077 1694.73,442.922 1695.79,442.791 1696.86,442.683 1697.92,442.599 1698.98,442.538 1700.04,442.501 1701.1,442.493 1702.16,442.526 1703.22,442.58 1704.28,442.656 1705.35,442.752 1706.41,442.87 1707.47,443.01 1708.53,443.17 1709.59,443.352 1710.65,443.556 1711.71,443.781 1712.78,444.027 1713.84,444.295 1714.9,444.584 1715.96,444.894 1717.02,445.226 1718.08,445.58 1719.14,445.955 1720.2,446.352 1721.27,446.771 1722.33,447.211 1723.39,447.672 1724.45,448.156 1725.51,448.661 1726.57,449.187 1727.63,449.736 1728.69,450.306 1729.76,450.898 1730.82,451.512 1731.88,452.148 1732.94,452.805 1734,453.485 1735.06,454.187 1736.12,454.913 1737.19,455.663 1738.25,456.435 1739.31,457.23 1740.37,458.047 1741.43,458.885 1742.49,459.746 1743.55,460.629 1744.61,461.533 1745.68,462.459 1746.74,463.406 1747.8,464.374 1748.86,465.363 1749.92,466.373 1750.98,467.404 1752.04,468.455 1753.11,469.526 1754.17,470.617 1755.23,471.729 1756.29,472.86 1757.35,474.01 1758.41,475.181 1759.47,476.37 1760.53,477.578 1761.6,478.806 1762.66,480.051 1763.72,481.316 1764.78,482.599 1765.84,483.9 1766.9,485.218 1767.96,486.555 1769.03,487.909 1770.09,489.28 1771.15,490.669 1772.21,492.074 1773.27,493.497 1774.33,494.936 1775.39,496.391 1776.45,497.862 1777.52,499.349 1778.58,500.853 1779.64,502.371 1780.7,503.905 1781.76,505.454 1782.82,507.018 1783.88,508.597 1784.95,510.19 1786.01,511.797 1787.07,513.418 1788.13,515.053 1789.19,516.702 1790.25,518.364 1791.31,520.04 1792.37,521.728 1793.44,523.429 1794.5,525.142 1795.56,526.868 1796.62,528.606 1797.68,530.355 1798.74,532.116 1799.8,533.888 1800.87,535.672 1801.93,537.466 1802.99,539.271 1804.05,541.086 1805.11,542.911 1806.17,544.746 1807.23,546.591 1808.29,548.445 1809.36,550.309 1810.42,552.181 1811.48,554.062 1812.54,555.951 1813.6,557.848 1814.66,559.754 1815.72,561.666 1816.79,563.586 1817.85,565.514 1818.91,567.448 1819.97,569.39 1821.03,571.341 1822.09,573.298 1823.15,575.263 1824.21,577.225 1825.28,579.186 1826.34,581.151 1827.4,583.119 1828.46,585.091 1829.52,587.066 1830.58,589.044 1831.64,591.025 1832.71,593.008 1833.77,594.994 1834.83,596.982 1835.89,598.971 1836.95,600.963 1838.01,602.955 1839.07,604.949 1840.13,606.944 1841.2,608.939 1842.26,610.935 1843.32,612.931 1844.38,614.927 1845.44,616.923 1846.5,618.918 1847.56,620.913 1848.63,622.907 1849.69,624.899 1850.75,626.89 1851.81,628.88 1852.87,630.868 1853.93,632.853 1854.99,634.836 1856.05,636.817 1857.12,638.795 1858.18,640.77 1859.24,642.741 1860.3,644.709 1861.36,646.673 1862.42,648.633 1863.48,650.589 1864.54,652.541 1865.61,654.488 1866.67,656.429 1867.73,658.366 1868.79,660.297 1869.85,662.223 1870.91,664.143 1871.97,666.056 1873.04,667.963 1874.1,669.864 1875.16,671.757 1876.22,673.644 1877.28,675.523 1878.34,677.395 1879.4,679.258 1880.46,681.114 1881.53,682.962 1882.59,684.8 1883.65,686.63 1884.71,688.451 1885.77,690.263 1886.83,692.065 1887.89,693.858 1888.96,695.64 1890.02,697.412 1891.08,699.174 1892.14,700.925 1893.2,702.665 1894.26,704.394 1895.32,706.111 1896.38,707.816 1897.45,709.51 1898.51,711.191 1899.57,712.86 1900.63,714.516 1901.69,716.159 1902.75,717.789 1903.81,719.406 1904.88,721.008 1905.94,722.597 1907,724.172 1908.06,725.732 1909.12,727.277 1910.18,728.808 1911.24,730.323 1912.3,731.823 1913.37,733.307 1914.43,734.776 1915.49,736.226 1916.55,737.661 1917.61,739.079 1918.67,740.482 1919.73,741.869 1920.8,743.24 1921.86,744.594 1922.92,745.932 1923.98,747.254 1925.04,748.56 1926.1,749.848 1927.16,751.118 1928.22,752.371 1929.29,753.605 1930.35,754.821 1931.41,756.02 1932.47,757.2 1933.53,758.361 1934.59,759.504 1935.65,760.629 1936.72,761.735 1937.78,762.822 1938.84,763.891 1939.9,764.941 1940.96,765.971 1942.02,766.983 1943.08,767.976 1944.14,768.949 1945.21,769.903 1946.27,770.838 1947.33,771.753 1948.39,772.649 1949.45,773.525 1950.51,774.381 1951.57,775.217 1952.64,776.034 1953.7,776.83 1954.76,777.607 1955.82,778.363 1956.88,779.099 1957.94,779.815 1959,780.51 1960.06,781.185 1961.13,781.839 1962.19,782.473 1963.25,783.086 1964.31,783.678 1965.37,784.249 1966.43,784.799 1967.49,785.328 1968.56,785.836 1969.62,786.322 1970.68,786.787 1971.74,787.231 1972.8,787.653 1973.86,788.054 1974.92,788.432 1975.98,788.789 1977.05,789.125 1978.11,789.438 1979.17,789.729 1980.23,789.998 1981.29,790.245 1982.35,790.47 1983.41,790.672 1984.48,790.852 1985.54,791.009 1986.6,791.144 1987.66,791.256 1988.72,791.345 1989.78,791.411 1990.84,791.454 1991.9,791.475 1992.97,791.472 1994.03,791.446 1995.09,791.396 1996.15,791.324 1997.21,791.227 1998.27,791.108 1999.33,790.964 2000.39,790.797 2001.46,790.606 2002.52,790.392 2003.58,790.153 2004.64,789.89 2005.7,789.603 2006.76,789.292 2007.82,788.957 2008.89,788.597 2009.95,788.213 2011.01,787.804 2012.07,787.365 2013.13,786.9 2014.19,786.411 2015.25,785.898 2016.31,785.36 2017.38,784.799 2018.44,784.214 2019.5,783.604 2020.56,782.971 2021.62,782.313 2022.68,781.632 2023.74,780.926 2024.81,780.197 2025.87,779.444 2026.93,778.667 2027.99,777.867 2029.05,777.043 2030.11,776.196 2031.17,775.325 2032.23,774.431 2033.3,773.514 2034.36,772.574 2035.42,771.61 2036.48,770.627 2037.54,769.634 2038.6,768.617 2039.66,767.576 2040.73,766.512 2041.79,765.425 2042.85,764.315 2043.91,763.181 2044.97,762.025 2046.03,760.845 2047.09,759.643 2048.15,758.418 2049.22,757.169 2050.28,755.899 2051.34,754.605 2052.4,753.289 2053.46,751.951 2054.52,750.59 2055.58,749.207 2056.65,747.802 2057.71,746.375 2058.77,744.925 2059.83,743.454 2060.89,741.961 2061.95,740.446 2063.01,738.91 2064.07,737.352 2065.14,735.772 2066.2,734.171 2067.26,732.548 2068.32,730.905 2069.38,729.24 2070.44,727.554 2071.5,725.847 2072.57,724.119 2073.63,722.371 2074.69,720.602 2075.75,718.812 2076.81,717.002 2077.87,715.171 2078.93,713.32 2079.99,711.449 2081.06,709.557 2082.12,707.646 2083.18,705.714 2084.24,703.763 2085.3,701.792 2086.36,699.802 2087.42,697.792 2088.49,695.762 2089.55,693.713 2090.61,691.645 2091.67,689.558 2092.73,687.452 2093.79,685.326 2094.85,683.182 2095.91,681.019 2096.98,678.838 2098.04,676.638 2099.1,674.42 2100.16,672.183 2101.22,669.928 2102.28,667.655 2103.34,665.364 2104.41,663.055 2105.47,660.729 2106.53,658.385 2107.59,656.023 2108.65,653.644 2109.71,651.247 2110.77,648.833 2111.83,646.402 2112.9,643.944 2113.96,641.463 2115.02,638.967 2116.08,636.454 2117.14,633.925 2118.2,631.381 2119.26,628.822 2120.33,626.247 2121.39,623.657 2122.45,621.052 2123.51,618.432 2124.57,615.798 2125.63,613.148 2126.69,610.485 2127.75,607.806 2128.82,605.114 2129.88,602.407 2130.94,599.687 2132,596.952 2133.06,594.204 2134.12,591.442 2135.18,588.667 2136.24,585.878 2137.31,583.076 2138.37,580.261 2139.43,577.432 2140.49,574.591 2141.55,571.736 2142.61,568.869 2143.67,565.989 2144.74,563.097 2145.8,560.192 2146.86,557.274 2147.92,554.345 2148.98,551.415 2150.04,548.477 2151.1,545.526 2152.16,542.563 2153.23,539.587 2154.29,536.599 2155.35,533.599 2156.41,530.586 2157.47,527.561 2158.53,524.524 2159.59,521.475 2160.66,518.414 2161.72,515.341 2162.78,512.256 2163.84,509.159 2164.9,506.051 2165.96,502.931 2167.02,499.799 2168.08,496.656 2169.15,493.501 2170.21,490.335 2171.27,487.158 2172.33,483.97 2173.39,480.771 2174.45,477.561 2175.51,474.34 2176.58,471.108 2177.64,467.866 2178.7,464.613 2179.76,461.35 2180.82,458.076 2181.88,454.793 2182.94,451.499 2184,448.195 2185.07,444.881 2186.13,441.558 2187.19,438.225 2188.25,434.883 2189.31,431.531 2190.37,428.17 2191.43,424.8 2192.5,421.422 2193.56,418.034 2194.62,414.638 2195.68,411.233 2196.74,407.82 2197.8,404.398 2198.86,400.969 2199.92,397.531 2200.99,394.086 2202.05,390.633 2203.11,387.173 2204.17,383.706 2205.23,380.231 2206.29,376.749 2207.35,373.261 2208.42,369.766 2209.48,366.264 2210.54,362.757 2211.6,359.243 2212.66,355.723 2213.72,352.198 2214.78,348.666 2215.84,345.13 2216.91,341.588 2217.97,338.042 2219.03,334.49 2220.09,330.934 2221.15,327.374 2222.21,323.809 2223.27,320.241 2224.34,316.668 2225.4,313.092 2226.46,309.513 2227.52,305.93 2228.58,302.344 2229.64,298.756 2230.7,295.165 2231.76,291.572 2232.83,287.977 2233.89,284.38 2234.95,280.781 2236.01,277.181 2237.07,273.579 2238.13,269.977 2239.19,266.374 2240.26,262.77 2241.32,259.166 2242.38,255.563 2243.44,251.959 2244.5,248.356 2245.56,244.754 2246.62,241.153 2247.68,237.553 2248.75,233.954 2249.81,230.357 2250.87,226.766 2251.93,223.183 2252.99,219.602 2254.05,216.022 2255.11,212.444 2256.18,208.867 2257.24,205.292 2258.3,201.719 2259.36,198.148 2260.42,194.579 2261.48,191.013 2262.54,187.449 2263.6,183.887 2264.67,180.327 2265.73,176.77 2266.79,173.216 2267.85,169.665 2268.91,166.117 2269.97,162.571 2271.03,159.028 2272.09,155.489 2273.16,151.952 2274.22,148.419 2275.28,144.889 2276.34,141.362 2277.4,137.838 2278.46,134.318 2279.52,130.801 2280.59,127.287 2281.65,123.777 2282.71,120.27 2283.77,116.766 2284.83,113.266 2285.89,109.77 2286.95,106.277 2288.01,102.787 2289.08,99.3005 "/>
<path clip-path="url(#clip990)" d="M2027.62 1456.66 L2277.76 1456.66 L2277.76 1352.98 L2027.62 1352.98  Z" fill="#ffffff" fill-rule="evenodd" fill-opacity="1"/>
<polyline clip-path="url(#clip990)" style="stroke:#000000; stroke-linecap:round; stroke-linejoin:round; stroke-width:4; stroke-opacity:1; fill:none" points="2027.62,1456.66 2277.76,1456.66 2277.76,1352.98 2027.62,1352.98 2027.62,1456.66 "/>
<polyline clip-path="url(#clip990)" style="stroke:#009af9; stroke-linecap:round; stroke-linejoin:round; stroke-width:4; stroke-opacity:1; fill:none" points="2052.62,1404.82 2202.62,1404.82 "/>
<path clip-path="url(#clip990)" d="M2252.27 1396.17 L2242.89 1408.79 L2252.76 1422.1 L2247.73 1422.1 L2240.19 1411.91 L2232.64 1422.1 L2227.62 1422.1 L2237.69 1408.53 L2228.47 1396.17 L2233.5 1396.17 L2240.37 1405.41 L2247.25 1396.17 L2252.27 1396.17 Z" fill="#000000" fill-rule="nonzero" fill-opacity="1" /></svg>
