<?xml version="1.0" encoding="utf-8"?>
<svg xmlns="http://www.w3.org/2000/svg" xmlns:xlink="http://www.w3.org/1999/xlink" width="600" height="400" viewBox="0 0 2400 1600">
<defs>
  <clipPath id="clip170">
    <rect x="0" y="0" width="2400" height="1600"/>
  </clipPath>
</defs>
<path clip-path="url(#clip170)" d="M0 1600 L2400 1600 L2400 0 L0 0  Z" fill="#ffffff" fill-rule="evenodd" fill-opacity="1"/>
<defs>
  <clipPath id="clip171">
    <rect x="480" y="0" width="1681" height="1600"/>
  </clipPath>
</defs>
<path clip-path="url(#clip170)" d="M102.74 1505.26 L2352.76 1505.26 L2352.76 47.2441 L102.74 47.2441  Z" fill="#ffffff" fill-rule="evenodd" fill-opacity="1"/>
<defs>
  <clipPath id="clip172">
    <rect x="102" y="47" width="2251" height="1459"/>
  </clipPath>
</defs>
<polyline clip-path="url(#clip172)" style="stroke:#000000; stroke-linecap:round; stroke-linejoin:round; stroke-width:2; stroke-opacity:0.1; fill:none" points="102.74,1505.26 102.74,47.2441 "/>
<polyline clip-path="url(#clip172)" style="stroke:#000000; stroke-linecap:round; stroke-linejoin:round; stroke-width:2; stroke-opacity:0.1; fill:none" points="665.244,1505.26 665.244,47.2441 "/>
<polyline clip-path="url(#clip172)" style="stroke:#000000; stroke-linecap:round; stroke-linejoin:round; stroke-width:2; stroke-opacity:0.1; fill:none" points="1227.75,1505.26 1227.75,47.2441 "/>
<polyline clip-path="url(#clip172)" style="stroke:#000000; stroke-linecap:round; stroke-linejoin:round; stroke-width:2; stroke-opacity:0.1; fill:none" points="1790.25,1505.26 1790.25,47.2441 "/>
<polyline clip-path="url(#clip170)" style="stroke:#000000; stroke-linecap:round; stroke-linejoin:round; stroke-width:4; stroke-opacity:1; fill:none" points="102.74,1505.26 2352.76,1505.26 "/>
<polyline clip-path="url(#clip170)" style="stroke:#000000; stroke-linecap:round; stroke-linejoin:round; stroke-width:4; stroke-opacity:1; fill:none" points="102.74,1505.26 102.74,1486.36 "/>
<polyline clip-path="url(#clip170)" style="stroke:#000000; stroke-linecap:round; stroke-linejoin:round; stroke-width:4; stroke-opacity:1; fill:none" points="665.244,1505.26 665.244,1486.36 "/>
<polyline clip-path="url(#clip170)" style="stroke:#000000; stroke-linecap:round; stroke-linejoin:round; stroke-width:4; stroke-opacity:1; fill:none" points="1227.75,1505.26 1227.75,1486.36 "/>
<polyline clip-path="url(#clip170)" style="stroke:#000000; stroke-linecap:round; stroke-linejoin:round; stroke-width:4; stroke-opacity:1; fill:none" points="1790.25,1505.26 1790.25,1486.36 "/>
<path clip-path="url(#clip170)" d="M65.0436 1536.18 Q61.4325 1536.18 59.6038 1539.74 Q57.7983 1543.28 57.7983 1550.41 Q57.7983 1557.52 59.6038 1561.09 Q61.4325 1564.63 65.0436 1564.63 Q68.6778 1564.63 70.4834 1561.09 Q72.3121 1557.52 72.3121 1550.41 Q72.3121 1543.28 70.4834 1539.74 Q68.6778 1536.18 65.0436 1536.18 M65.0436 1532.47 Q70.8538 1532.47 73.9093 1537.08 Q76.988 1541.66 76.988 1550.41 Q76.988 1559.14 73.9093 1563.75 Q70.8538 1568.33 65.0436 1568.33 Q59.2334 1568.33 56.1548 1563.75 Q53.0992 1559.14 53.0992 1550.41 Q53.0992 1541.66 56.1548 1537.08 Q59.2334 1532.47 65.0436 1532.47 Z" fill="#000000" fill-rule="nonzero" fill-opacity="1" /><path clip-path="url(#clip170)" d="M85.2055 1561.78 L90.0898 1561.78 L90.0898 1567.66 L85.2055 1567.66 L85.2055 1561.78 Z" fill="#000000" fill-rule="nonzero" fill-opacity="1" /><path clip-path="url(#clip170)" d="M110.275 1536.18 Q106.664 1536.18 104.835 1539.74 Q103.03 1543.28 103.03 1550.41 Q103.03 1557.52 104.835 1561.09 Q106.664 1564.63 110.275 1564.63 Q113.909 1564.63 115.715 1561.09 Q117.543 1557.52 117.543 1550.41 Q117.543 1543.28 115.715 1539.74 Q113.909 1536.18 110.275 1536.18 M110.275 1532.47 Q116.085 1532.47 119.141 1537.08 Q122.219 1541.66 122.219 1550.41 Q122.219 1559.14 119.141 1563.75 Q116.085 1568.33 110.275 1568.33 Q104.465 1568.33 101.386 1563.75 Q98.3305 1559.14 98.3305 1550.41 Q98.3305 1541.66 101.386 1537.08 Q104.465 1532.47 110.275 1532.47 Z" fill="#000000" fill-rule="nonzero" fill-opacity="1" /><path clip-path="url(#clip170)" d="M140.437 1536.18 Q136.826 1536.18 134.997 1539.74 Q133.191 1543.28 133.191 1550.41 Q133.191 1557.52 134.997 1561.09 Q136.826 1564.63 140.437 1564.63 Q144.071 1564.63 145.877 1561.09 Q147.705 1557.52 147.705 1550.41 Q147.705 1543.28 145.877 1539.74 Q144.071 1536.18 140.437 1536.18 M140.437 1532.47 Q146.247 1532.47 149.302 1537.08 Q152.381 1541.66 152.381 1550.41 Q152.381 1559.14 149.302 1563.75 Q146.247 1568.33 140.437 1568.33 Q134.627 1568.33 131.548 1563.75 Q128.492 1559.14 128.492 1550.41 Q128.492 1541.66 131.548 1537.08 Q134.627 1532.47 140.437 1532.47 Z" fill="#000000" fill-rule="nonzero" fill-opacity="1" /><path clip-path="url(#clip170)" d="M628.045 1536.18 Q624.434 1536.18 622.605 1539.74 Q620.8 1543.28 620.8 1550.41 Q620.8 1557.52 622.605 1561.09 Q624.434 1564.63 628.045 1564.63 Q631.679 1564.63 633.485 1561.09 Q635.314 1557.52 635.314 1550.41 Q635.314 1543.28 633.485 1539.74 Q631.679 1536.18 628.045 1536.18 M628.045 1532.47 Q633.855 1532.47 636.911 1537.08 Q639.99 1541.66 639.99 1550.41 Q639.99 1559.14 636.911 1563.75 Q633.855 1568.33 628.045 1568.33 Q622.235 1568.33 619.156 1563.75 Q616.101 1559.14 616.101 1550.41 Q616.101 1541.66 619.156 1537.08 Q622.235 1532.47 628.045 1532.47 Z" fill="#000000" fill-rule="nonzero" fill-opacity="1" /><path clip-path="url(#clip170)" d="M648.207 1561.78 L653.091 1561.78 L653.091 1567.66 L648.207 1567.66 L648.207 1561.78 Z" fill="#000000" fill-rule="nonzero" fill-opacity="1" /><path clip-path="url(#clip170)" d="M673.276 1536.18 Q669.665 1536.18 667.837 1539.74 Q666.031 1543.28 666.031 1550.41 Q666.031 1557.52 667.837 1561.09 Q669.665 1564.63 673.276 1564.63 Q676.911 1564.63 678.716 1561.09 Q680.545 1557.52 680.545 1550.41 Q680.545 1543.28 678.716 1539.74 Q676.911 1536.18 673.276 1536.18 M673.276 1532.47 Q679.087 1532.47 682.142 1537.08 Q685.221 1541.66 685.221 1550.41 Q685.221 1559.14 682.142 1563.75 Q679.087 1568.33 673.276 1568.33 Q667.466 1568.33 664.388 1563.75 Q661.332 1559.14 661.332 1550.41 Q661.332 1541.66 664.388 1537.08 Q667.466 1532.47 673.276 1532.47 Z" fill="#000000" fill-rule="nonzero" fill-opacity="1" /><path clip-path="url(#clip170)" d="M693.485 1533.1 L711.841 1533.1 L711.841 1537.04 L697.767 1537.04 L697.767 1545.51 Q698.786 1545.16 699.804 1545 Q700.823 1544.81 701.841 1544.81 Q707.628 1544.81 711.008 1547.98 Q714.387 1551.16 714.387 1556.57 Q714.387 1562.15 710.915 1565.25 Q707.443 1568.33 701.124 1568.33 Q698.948 1568.33 696.679 1567.96 Q694.434 1567.59 692.026 1566.85 L692.026 1562.15 Q694.11 1563.28 696.332 1563.84 Q698.554 1564.4 701.031 1564.4 Q705.036 1564.4 707.373 1562.29 Q709.711 1560.18 709.711 1556.57 Q709.711 1552.96 707.373 1550.85 Q705.036 1548.75 701.031 1548.75 Q699.156 1548.75 697.281 1549.16 Q695.429 1549.58 693.485 1550.46 L693.485 1533.1 Z" fill="#000000" fill-rule="nonzero" fill-opacity="1" /><path clip-path="url(#clip170)" d="M1190.05 1536.18 Q1186.44 1536.18 1184.61 1539.74 Q1182.81 1543.28 1182.81 1550.41 Q1182.81 1557.52 1184.61 1561.09 Q1186.44 1564.63 1190.05 1564.63 Q1193.69 1564.63 1195.49 1561.09 Q1197.32 1557.52 1197.32 1550.41 Q1197.32 1543.28 1195.49 1539.74 Q1193.69 1536.18 1190.05 1536.18 M1190.05 1532.47 Q1195.86 1532.47 1198.92 1537.08 Q1202 1541.66 1202 1550.41 Q1202 1559.14 1198.92 1563.75 Q1195.86 1568.33 1190.05 1568.33 Q1184.24 1568.33 1181.16 1563.75 Q1178.11 1559.14 1178.11 1550.41 Q1178.11 1541.66 1181.16 1537.08 Q1184.24 1532.47 1190.05 1532.47 Z" fill="#000000" fill-rule="nonzero" fill-opacity="1" /><path clip-path="url(#clip170)" d="M1210.21 1561.78 L1215.1 1561.78 L1215.1 1567.66 L1210.21 1567.66 L1210.21 1561.78 Z" fill="#000000" fill-rule="nonzero" fill-opacity="1" /><path clip-path="url(#clip170)" d="M1226.09 1563.72 L1233.73 1563.72 L1233.73 1537.36 L1225.42 1539.03 L1225.42 1534.77 L1233.69 1533.1 L1238.36 1533.1 L1238.36 1563.72 L1246 1563.72 L1246 1567.66 L1226.09 1567.66 L1226.09 1563.72 Z" fill="#000000" fill-rule="nonzero" fill-opacity="1" /><path clip-path="url(#clip170)" d="M1265.44 1536.18 Q1261.83 1536.18 1260 1539.74 Q1258.2 1543.28 1258.2 1550.41 Q1258.2 1557.52 1260 1561.09 Q1261.83 1564.63 1265.44 1564.63 Q1269.08 1564.63 1270.88 1561.09 Q1272.71 1557.52 1272.71 1550.41 Q1272.71 1543.28 1270.88 1539.74 Q1269.08 1536.18 1265.44 1536.18 M1265.44 1532.47 Q1271.25 1532.47 1274.31 1537.08 Q1277.39 1541.66 1277.39 1550.41 Q1277.39 1559.14 1274.31 1563.75 Q1271.25 1568.33 1265.44 1568.33 Q1259.63 1568.33 1256.56 1563.75 Q1253.5 1559.14 1253.5 1550.41 Q1253.5 1541.66 1256.56 1537.08 Q1259.63 1532.47 1265.44 1532.47 Z" fill="#000000" fill-rule="nonzero" fill-opacity="1" /><path clip-path="url(#clip170)" d="M1753.05 1536.18 Q1749.44 1536.18 1747.61 1539.74 Q1745.81 1543.28 1745.81 1550.41 Q1745.81 1557.52 1747.61 1561.09 Q1749.44 1564.63 1753.05 1564.63 Q1756.69 1564.63 1758.49 1561.09 Q1760.32 1557.52 1760.32 1550.41 Q1760.32 1543.28 1758.49 1539.74 Q1756.69 1536.18 1753.05 1536.18 M1753.05 1532.47 Q1758.86 1532.47 1761.92 1537.08 Q1765 1541.66 1765 1550.41 Q1765 1559.14 1761.92 1563.75 Q1758.86 1568.33 1753.05 1568.33 Q1747.24 1568.33 1744.16 1563.75 Q1741.11 1559.14 1741.11 1550.41 Q1741.11 1541.66 1744.16 1537.08 Q1747.24 1532.47 1753.05 1532.47 Z" fill="#000000" fill-rule="nonzero" fill-opacity="1" /><path clip-path="url(#clip170)" d="M1773.22 1561.78 L1778.1 1561.78 L1778.1 1567.66 L1773.22 1567.66 L1773.22 1561.78 Z" fill="#000000" fill-rule="nonzero" fill-opacity="1" /><path clip-path="url(#clip170)" d="M1789.09 1563.72 L1796.73 1563.72 L1796.73 1537.36 L1788.42 1539.03 L1788.42 1534.77 L1796.69 1533.1 L1801.36 1533.1 L1801.36 1563.72 L1809 1563.72 L1809 1567.66 L1789.09 1567.66 L1789.09 1563.72 Z" fill="#000000" fill-rule="nonzero" fill-opacity="1" /><path clip-path="url(#clip170)" d="M1818.49 1533.1 L1836.85 1533.1 L1836.85 1537.04 L1822.77 1537.04 L1822.77 1545.51 Q1823.79 1545.16 1824.81 1545 Q1825.83 1544.81 1826.85 1544.81 Q1832.64 1544.81 1836.02 1547.98 Q1839.4 1551.16 1839.4 1556.57 Q1839.4 1562.15 1835.92 1565.25 Q1832.45 1568.33 1826.13 1568.33 Q1823.96 1568.33 1821.69 1567.96 Q1819.44 1567.59 1817.03 1566.85 L1817.03 1562.15 Q1819.12 1563.28 1821.34 1563.84 Q1823.56 1564.4 1826.04 1564.4 Q1830.04 1564.4 1832.38 1562.29 Q1834.72 1560.18 1834.72 1556.57 Q1834.72 1552.96 1832.38 1550.85 Q1830.04 1548.75 1826.04 1548.75 Q1824.16 1548.75 1822.29 1549.16 Q1820.44 1549.58 1818.49 1550.46 L1818.49 1533.1 Z" fill="#000000" fill-rule="nonzero" fill-opacity="1" /><path clip-path="url(#clip170)" d="M1226.81 1604.35 L1226.81 1614.48 L1238.87 1614.48 L1238.87 1619.03 L1226.81 1619.03 L1226.81 1638.38 Q1226.81 1642.74 1227.99 1643.98 Q1229.2 1645.22 1232.86 1645.22 L1238.87 1645.22 L1238.87 1650.12 L1232.86 1650.12 Q1226.08 1650.12 1223.5 1647.61 Q1220.92 1645.06 1220.92 1638.38 L1220.92 1619.03 L1216.62 1619.03 L1216.62 1614.48 L1220.92 1614.48 L1220.92 1604.35 L1226.81 1604.35 Z" fill="#000000" fill-rule="nonzero" fill-opacity="1" /><polyline clip-path="url(#clip172)" style="stroke:#000000; stroke-linecap:round; stroke-linejoin:round; stroke-width:2; stroke-opacity:0.1; fill:none" points="102.74,1293.96 2352.76,1293.96 "/>
<polyline clip-path="url(#clip172)" style="stroke:#000000; stroke-linecap:round; stroke-linejoin:round; stroke-width:2; stroke-opacity:0.1; fill:none" points="102.74,1035.1 2352.76,1035.1 "/>
<polyline clip-path="url(#clip172)" style="stroke:#000000; stroke-linecap:round; stroke-linejoin:round; stroke-width:2; stroke-opacity:0.1; fill:none" points="102.74,776.252 2352.76,776.252 "/>
<polyline clip-path="url(#clip172)" style="stroke:#000000; stroke-linecap:round; stroke-linejoin:round; stroke-width:2; stroke-opacity:0.1; fill:none" points="102.74,517.399 2352.76,517.399 "/>
<polyline clip-path="url(#clip172)" style="stroke:#000000; stroke-linecap:round; stroke-linejoin:round; stroke-width:2; stroke-opacity:0.1; fill:none" points="102.74,258.547 2352.76,258.547 "/>
<polyline clip-path="url(#clip170)" style="stroke:#000000; stroke-linecap:round; stroke-linejoin:round; stroke-width:4; stroke-opacity:1; fill:none" points="102.74,1505.26 102.74,47.2441 "/>
<polyline clip-path="url(#clip170)" style="stroke:#000000; stroke-linecap:round; stroke-linejoin:round; stroke-width:4; stroke-opacity:1; fill:none" points="102.74,1293.96 121.638,1293.96 "/>
<polyline clip-path="url(#clip170)" style="stroke:#000000; stroke-linecap:round; stroke-linejoin:round; stroke-width:4; stroke-opacity:1; fill:none" points="102.74,1035.1 121.638,1035.1 "/>
<polyline clip-path="url(#clip170)" style="stroke:#000000; stroke-linecap:round; stroke-linejoin:round; stroke-width:4; stroke-opacity:1; fill:none" points="102.74,776.252 121.638,776.252 "/>
<polyline clip-path="url(#clip170)" style="stroke:#000000; stroke-linecap:round; stroke-linejoin:round; stroke-width:4; stroke-opacity:1; fill:none" points="102.74,517.399 121.638,517.399 "/>
<polyline clip-path="url(#clip170)" style="stroke:#000000; stroke-linecap:round; stroke-linejoin:round; stroke-width:4; stroke-opacity:1; fill:none" points="102.74,258.547 121.638,258.547 "/>
<path clip-path="url(#clip170)" d="M-55.2962 1294.41 L-25.6205 1294.41 L-25.6205 1298.34 L-55.2962 1298.34 L-55.2962 1294.41 Z" fill="#000000" fill-rule="nonzero" fill-opacity="1" /><path clip-path="url(#clip170)" d="M-11.5002 1307.3 L4.81919 1307.3 L4.81919 1311.24 L-17.1251 1311.24 L-17.1251 1307.3 Q-14.4631 1304.55 -9.8798 1299.92 Q-5.27335 1295.27 -4.0928 1293.92 Q-1.84744 1291.4 -0.967813 1289.66 Q-0.0650401 1287.9 -0.0650401 1286.21 Q-0.0650401 1283.46 -2.00947 1281.72 Q-3.93076 1279.99 -7.0326 1279.99 Q-9.23166 1279.99 -11.6853 1280.75 Q-14.1159 1281.52 -16.8937 1283.07 L-16.8937 1278.34 Q-14.0696 1277.21 -11.6159 1276.63 Q-9.16221 1276.05 -7.12519 1276.05 Q-1.75485 1276.05 1.43958 1278.74 Q4.63401 1281.42 4.63401 1285.91 Q4.63401 1288.04 3.82383 1289.96 Q3.0368 1291.86 0.930325 1294.45 Q0.351624 1295.13 -2.75021 1298.34 Q-5.85205 1301.54 -11.5002 1307.3 Z" fill="#000000" fill-rule="nonzero" fill-opacity="1" /><path clip-path="url(#clip170)" d="M24.6339 1279.76 Q21.0228 1279.76 19.1941 1283.32 Q17.3886 1286.86 17.3886 1293.99 Q17.3886 1301.1 19.1941 1304.66 Q21.0228 1308.2 24.6339 1308.2 Q28.2681 1308.2 30.0737 1304.66 Q31.9024 1301.1 31.9024 1293.99 Q31.9024 1286.86 30.0737 1283.32 Q28.2681 1279.76 24.6339 1279.76 M24.6339 1276.05 Q30.4441 1276.05 33.4996 1280.66 Q36.5783 1285.24 36.5783 1293.99 Q36.5783 1302.72 33.4996 1307.33 Q30.4441 1311.91 24.6339 1311.91 Q18.8237 1311.91 15.7451 1307.33 Q12.6895 1302.72 12.6895 1293.99 Q12.6895 1285.24 15.7451 1280.66 Q18.8237 1276.05 24.6339 1276.05 Z" fill="#000000" fill-rule="nonzero" fill-opacity="1" /><path clip-path="url(#clip170)" d="M54.7958 1279.76 Q51.1847 1279.76 49.356 1283.32 Q47.5504 1286.86 47.5504 1293.99 Q47.5504 1301.1 49.356 1304.66 Q51.1847 1308.2 54.7958 1308.2 Q58.43 1308.2 60.2356 1304.66 Q62.0643 1301.1 62.0643 1293.99 Q62.0643 1286.86 60.2356 1283.32 Q58.43 1279.76 54.7958 1279.76 M54.7958 1276.05 Q60.6059 1276.05 63.6615 1280.66 Q66.7402 1285.24 66.7402 1293.99 Q66.7402 1302.72 63.6615 1307.33 Q60.6059 1311.91 54.7958 1311.91 Q48.9856 1311.91 45.9069 1307.33 Q42.8514 1302.72 42.8514 1293.99 Q42.8514 1285.24 45.9069 1280.66 Q48.9856 1276.05 54.7958 1276.05 Z" fill="#000000" fill-rule="nonzero" fill-opacity="1" /><path clip-path="url(#clip170)" d="M-55.2962 1035.56 L-25.6205 1035.56 L-25.6205 1039.49 L-55.2962 1039.49 L-55.2962 1035.56 Z" fill="#000000" fill-rule="nonzero" fill-opacity="1" /><path clip-path="url(#clip170)" d="M-14.7177 1048.45 L-7.07889 1048.45 L-7.07889 1022.08 L-15.389 1023.75 L-15.389 1019.49 L-7.12519 1017.82 L-2.44929 1017.82 L-2.44929 1048.45 L5.18956 1048.45 L5.18956 1052.38 L-14.7177 1052.38 L-14.7177 1048.45 Z" fill="#000000" fill-rule="nonzero" fill-opacity="1" /><path clip-path="url(#clip170)" d="M24.6339 1020.9 Q21.0228 1020.9 19.1941 1024.47 Q17.3886 1028.01 17.3886 1035.14 Q17.3886 1042.25 19.1941 1045.81 Q21.0228 1049.35 24.6339 1049.35 Q28.2681 1049.35 30.0737 1045.81 Q31.9024 1042.25 31.9024 1035.14 Q31.9024 1028.01 30.0737 1024.47 Q28.2681 1020.9 24.6339 1020.9 M24.6339 1017.2 Q30.4441 1017.2 33.4996 1021.81 Q36.5783 1026.39 36.5783 1035.14 Q36.5783 1043.87 33.4996 1048.47 Q30.4441 1053.06 24.6339 1053.06 Q18.8237 1053.06 15.7451 1048.47 Q12.6895 1043.87 12.6895 1035.14 Q12.6895 1026.39 15.7451 1021.81 Q18.8237 1017.2 24.6339 1017.2 Z" fill="#000000" fill-rule="nonzero" fill-opacity="1" /><path clip-path="url(#clip170)" d="M54.7958 1020.9 Q51.1847 1020.9 49.356 1024.47 Q47.5504 1028.01 47.5504 1035.14 Q47.5504 1042.25 49.356 1045.81 Q51.1847 1049.35 54.7958 1049.35 Q58.43 1049.35 60.2356 1045.81 Q62.0643 1042.25 62.0643 1035.14 Q62.0643 1028.01 60.2356 1024.47 Q58.43 1020.9 54.7958 1020.9 M54.7958 1017.2 Q60.6059 1017.2 63.6615 1021.81 Q66.7402 1026.39 66.7402 1035.14 Q66.7402 1043.87 63.6615 1048.47 Q60.6059 1053.06 54.7958 1053.06 Q48.9856 1053.06 45.9069 1048.47 Q42.8514 1043.87 42.8514 1035.14 Q42.8514 1026.39 45.9069 1021.81 Q48.9856 1017.2 54.7958 1017.2 Z" fill="#000000" fill-rule="nonzero" fill-opacity="1" /><path clip-path="url(#clip170)" d="M54.7958 762.051 Q51.1847 762.051 49.356 765.615 Q47.5504 769.157 47.5504 776.287 Q47.5504 783.393 49.356 786.958 Q51.1847 790.5 54.7958 790.5 Q58.43 790.5 60.2356 786.958 Q62.0643 783.393 62.0643 776.287 Q62.0643 769.157 60.2356 765.615 Q58.43 762.051 54.7958 762.051 M54.7958 758.347 Q60.6059 758.347 63.6615 762.953 Q66.7402 767.537 66.7402 776.287 Q66.7402 785.013 63.6615 789.62 Q60.6059 794.203 54.7958 794.203 Q48.9856 794.203 45.9069 789.62 Q42.8514 785.013 42.8514 776.287 Q42.8514 767.537 45.9069 762.953 Q48.9856 758.347 54.7958 758.347 Z" fill="#000000" fill-rule="nonzero" fill-opacity="1" /><path clip-path="url(#clip170)" d="M-14.7177 530.744 L-7.07889 530.744 L-7.07889 504.379 L-15.389 506.045 L-15.389 501.786 L-7.12519 500.119 L-2.44929 500.119 L-2.44929 530.744 L5.18956 530.744 L5.18956 534.679 L-14.7177 534.679 L-14.7177 530.744 Z" fill="#000000" fill-rule="nonzero" fill-opacity="1" /><path clip-path="url(#clip170)" d="M24.6339 503.198 Q21.0228 503.198 19.1941 506.763 Q17.3886 510.305 17.3886 517.434 Q17.3886 524.541 19.1941 528.105 Q21.0228 531.647 24.6339 531.647 Q28.2681 531.647 30.0737 528.105 Q31.9024 524.541 31.9024 517.434 Q31.9024 510.305 30.0737 506.763 Q28.2681 503.198 24.6339 503.198 M24.6339 499.494 Q30.4441 499.494 33.4996 504.101 Q36.5783 508.684 36.5783 517.434 Q36.5783 526.161 33.4996 530.767 Q30.4441 535.351 24.6339 535.351 Q18.8237 535.351 15.7451 530.767 Q12.6895 526.161 12.6895 517.434 Q12.6895 508.684 15.7451 504.101 Q18.8237 499.494 24.6339 499.494 Z" fill="#000000" fill-rule="nonzero" fill-opacity="1" /><path clip-path="url(#clip170)" d="M54.7958 503.198 Q51.1847 503.198 49.356 506.763 Q47.5504 510.305 47.5504 517.434 Q47.5504 524.541 49.356 528.105 Q51.1847 531.647 54.7958 531.647 Q58.43 531.647 60.2356 528.105 Q62.0643 524.541 62.0643 517.434 Q62.0643 510.305 60.2356 506.763 Q58.43 503.198 54.7958 503.198 M54.7958 499.494 Q60.6059 499.494 63.6615 504.101 Q66.7402 508.684 66.7402 517.434 Q66.7402 526.161 63.6615 530.767 Q60.6059 535.351 54.7958 535.351 Q48.9856 535.351 45.9069 530.767 Q42.8514 526.161 42.8514 517.434 Q42.8514 508.684 45.9069 504.101 Q48.9856 499.494 54.7958 499.494 Z" fill="#000000" fill-rule="nonzero" fill-opacity="1" /><path clip-path="url(#clip170)" d="M-11.5002 271.892 L4.81919 271.892 L4.81919 275.827 L-17.1251 275.827 L-17.1251 271.892 Q-14.4631 269.137 -9.8798 264.507 Q-5.27335 259.855 -4.0928 258.512 Q-1.84744 255.989 -0.967813 254.253 Q-0.0650401 252.494 -0.0650401 250.804 Q-0.0650401 248.049 -2.00947 246.313 Q-3.93076 244.577 -7.0326 244.577 Q-9.23166 244.577 -11.6853 245.341 Q-14.1159 246.105 -16.8937 247.656 L-16.8937 242.933 Q-14.0696 241.799 -11.6159 241.22 Q-9.16221 240.642 -7.12519 240.642 Q-1.75485 240.642 1.43958 243.327 Q4.63401 246.012 4.63401 250.503 Q4.63401 252.632 3.82383 254.554 Q3.0368 256.452 0.930325 259.044 Q0.351624 259.716 -2.75021 262.933 Q-5.85205 266.128 -11.5002 271.892 Z" fill="#000000" fill-rule="nonzero" fill-opacity="1" /><path clip-path="url(#clip170)" d="M24.6339 244.345 Q21.0228 244.345 19.1941 247.91 Q17.3886 251.452 17.3886 258.582 Q17.3886 265.688 19.1941 269.253 Q21.0228 272.794 24.6339 272.794 Q28.2681 272.794 30.0737 269.253 Q31.9024 265.688 31.9024 258.582 Q31.9024 251.452 30.0737 247.91 Q28.2681 244.345 24.6339 244.345 M24.6339 240.642 Q30.4441 240.642 33.4996 245.248 Q36.5783 249.832 36.5783 258.582 Q36.5783 267.308 33.4996 271.915 Q30.4441 276.498 24.6339 276.498 Q18.8237 276.498 15.7451 271.915 Q12.6895 267.308 12.6895 258.582 Q12.6895 249.832 15.7451 245.248 Q18.8237 240.642 24.6339 240.642 Z" fill="#000000" fill-rule="nonzero" fill-opacity="1" /><path clip-path="url(#clip170)" d="M54.7958 244.345 Q51.1847 244.345 49.356 247.91 Q47.5504 251.452 47.5504 258.582 Q47.5504 265.688 49.356 269.253 Q51.1847 272.794 54.7958 272.794 Q58.43 272.794 60.2356 269.253 Q62.0643 265.688 62.0643 258.582 Q62.0643 251.452 60.2356 247.91 Q58.43 244.345 54.7958 244.345 M54.7958 240.642 Q60.6059 240.642 63.6615 245.248 Q66.7402 249.832 66.7402 258.582 Q66.7402 267.308 63.6615 271.915 Q60.6059 276.498 54.7958 276.498 Q48.9856 276.498 45.9069 271.915 Q42.8514 267.308 42.8514 258.582 Q42.8514 249.832 45.9069 245.248 Q48.9856 240.642 54.7958 240.642 Z" fill="#000000" fill-rule="nonzero" fill-opacity="1" /><path clip-path="url(#clip170)" d="M-134.357 770.348 Q-138.304 768.152 -140.182 765.096 Q-142.06 762.041 -142.06 757.903 Q-142.06 752.333 -138.145 749.309 Q-134.262 746.285 -127.068 746.285 L-105.552 746.285 L-105.552 752.174 L-126.877 752.174 Q-132.002 752.174 -134.484 753.988 Q-136.967 755.802 -136.967 759.526 Q-136.967 764.078 -133.943 766.719 Q-130.92 769.361 -125.7 769.361 L-105.552 769.361 L-105.552 775.249 L-126.877 775.249 Q-132.034 775.249 -134.484 777.064 Q-136.967 778.878 -136.967 782.665 Q-136.967 787.153 -133.911 789.795 Q-130.888 792.437 -125.7 792.437 L-105.552 792.437 L-105.552 798.325 L-141.2 798.325 L-141.2 792.437 L-135.662 792.437 Q-138.94 790.432 -140.5 787.631 Q-142.06 784.83 -142.06 780.979 Q-142.06 777.095 -140.086 774.39 Q-138.113 771.653 -134.357 770.348 Z" fill="#000000" fill-rule="nonzero" fill-opacity="1" /><path clip-path="url(#clip170)" d="M-155.077 760.035 L-155.077 754.179 L-147.661 754.179 L-147.661 760.035 L-155.077 760.035 M-142.06 757.043 L-142.06 757.043 Z" fill="#000000" fill-rule="nonzero" fill-opacity="1" /><polyline clip-path="url(#clip172)" style="stroke:#009af9; stroke-linecap:round; stroke-linejoin:round; stroke-width:4; stroke-opacity:1; fill:none" points="102.74,668.523 104.992,668.541 107.245,668.598 109.497,668.693 111.749,668.827 114.001,668.999 116.254,669.209 118.506,669.458 120.758,669.744 123.011,670.07 125.263,670.433 127.515,670.834 129.767,671.273 132.02,671.75 134.272,672.264 136.524,672.816 138.776,673.406 141.029,674.032 143.281,674.695 145.533,675.395 147.786,676.132 150.038,676.904 152.29,677.713 154.542,678.557 156.795,679.437 159.047,680.351 161.299,681.301 163.551,682.285 165.804,683.302 168.056,684.354 170.308,685.438 172.56,686.556 174.813,687.706 177.065,688.888 179.317,690.102 181.57,691.346 183.822,692.622 186.074,693.927 188.326,695.262 190.579,696.627 192.831,698.02 195.083,699.441 197.335,700.889 199.588,702.365 201.84,703.867 204.092,705.395 206.344,706.948 208.597,708.525 210.849,710.127 213.101,711.751 215.354,713.399 217.606,715.068 219.858,716.759 222.11,718.471 224.363,720.202 226.615,721.953 228.867,723.722 231.119,725.51 233.372,727.314 235.624,729.135 237.876,730.971 240.129,732.823 242.381,734.688 244.633,736.567 246.885,738.459 249.138,740.362 251.39,742.277 253.642,744.202 255.894,746.136 258.147,748.079 260.399,750.03 262.651,751.989 264.903,753.954 267.156,755.924 269.408,757.899 271.66,759.878 273.913,761.86 276.165,763.845 278.417,765.831 280.669,767.818 282.922,769.805 285.174,771.791 287.426,773.775 289.678,775.757 291.931,777.736 294.183,779.71 296.435,781.68 298.687,783.645 300.94,785.603 303.192,787.553 305.444,789.496 307.697,791.43 309.949,793.355 312.201,795.27 314.453,797.173 316.706,799.065 318.958,800.945 321.21,802.812 323.462,804.664 325.715,806.502 327.967,808.325 330.219,810.132 332.471,811.923 334.724,813.696 336.976,815.451 339.228,817.187 341.481,818.905 343.733,820.602 345.985,822.279 348.237,823.935 350.49,825.57 352.742,827.182 354.994,828.771 357.246,830.337 359.499,831.88 361.751,833.397 364.003,834.89 366.256,836.357 368.508,837.799 370.76,839.214 373.012,840.602 375.265,841.963 377.517,843.296 379.769,844.601 382.021,845.877 384.274,847.124 386.526,848.342 388.778,849.53 391.03,850.689 393.283,851.816 395.535,852.914 397.787,853.98 400.04,855.014 402.292,856.018 404.544,856.989 406.796,857.928 409.049,858.835 411.301,859.709 413.553,860.551 415.805,861.359 418.058,862.135 420.31,862.877 422.562,863.586 424.814,864.261 427.067,864.902 429.319,865.51 431.571,866.084 433.824,866.624 436.076,867.13 438.328,867.602 440.58,868.039 442.833,868.443 445.085,868.812 447.337,869.148 449.589,869.449 451.842,869.716 454.094,869.949 456.346,870.148 458.599,870.313 460.851,870.444 463.103,870.542 465.355,870.606 467.608,870.636 469.86,870.633 472.112,870.596 474.364,870.527 476.617,870.424 478.869,870.289 481.121,870.12 483.373,869.92 485.626,869.687 487.878,869.422 490.13,869.125 492.383,868.797 494.635,868.437 496.887,868.046 499.139,867.624 501.392,867.172 503.644,866.689 505.896,866.176 508.148,865.633 510.401,865.061 512.653,864.459 514.905,863.828 517.157,863.169 519.41,862.482 521.662,861.766 523.914,861.023 526.167,860.253 528.419,859.455 530.671,858.631 532.923,857.781 535.176,856.904 537.428,856.003 539.68,855.076 541.932,854.124 544.185,853.147 546.437,852.147 548.689,851.123 550.941,850.076 553.194,849.006 555.446,847.913 557.698,846.799 559.951,845.662 562.203,844.505 564.455,843.326 566.707,842.127 568.96,840.908 571.212,839.67 573.464,838.412 575.716,837.136 577.969,835.841 580.221,834.529 582.473,833.199 584.726,831.852 586.978,830.488 589.23,829.108 591.482,827.713 593.735,826.302 595.987,824.877 598.239,823.437 600.491,821.984 602.744,820.516 604.996,819.036 607.248,817.544 609.5,816.039 611.753,814.523 614.005,812.995 616.257,811.457 618.51,809.908 620.762,808.35 623.014,806.782 625.266,805.206 627.519,803.621 629.771,802.028 632.023,800.427 634.275,798.82 636.528,797.206 638.78,795.586 641.032,793.96 643.284,792.329 645.537,790.693 647.789,789.054 650.041,787.41 652.294,785.763 654.546,784.113 656.798,782.461 659.05,780.807 661.303,779.151 663.555,777.495 665.807,775.838 668.059,774.181 670.312,772.524 672.564,770.868 674.816,769.214 677.069,767.561 679.321,765.911 681.573,764.264 683.825,762.619 686.078,760.979 688.33,759.343 690.582,757.711 692.834,756.084 695.087,754.463 697.339,752.848 699.591,751.24 701.843,749.638 704.096,748.044 706.348,746.458 708.6,744.881 710.853,743.312 713.105,741.752 715.357,740.202 717.609,738.663 719.862,737.134 722.114,735.616 724.366,734.11 726.618,732.616 728.871,731.134 731.123,729.666 733.375,728.21 735.627,726.769 737.88,725.342 740.132,723.93 742.384,722.534 744.637,721.153 746.889,719.788 749.141,718.439 751.393,717.108 753.646,715.794 755.898,714.498 758.15,713.221 760.402,711.962 762.655,710.723 764.907,709.503 767.159,708.303 769.411,707.124 771.664,705.966 773.916,704.829 776.168,703.714 778.421,702.621 780.673,701.551 782.925,700.504 785.177,699.48 787.43,698.48 789.682,697.504 791.934,696.553 794.186,695.627 796.439,694.726 798.691,693.851 800.943,693.001 803.196,692.179 805.448,691.383 807.7,690.615 809.952,689.874 812.205,689.16 814.457,688.476 816.709,687.819 818.961,687.192 821.214,686.593 823.466,686.025 825.718,685.486 827.97,684.977 830.223,684.498 832.475,684.051 834.727,683.634 836.98,683.248 839.232,682.894 841.484,682.571 843.736,682.281 845.989,682.022 848.241,681.796 850.493,681.603 852.745,681.442 854.998,681.314 857.25,681.22 859.502,681.159 861.754,681.131 864.007,681.137 866.259,681.177 868.511,681.251 870.764,681.359 873.016,681.501 875.268,681.677 877.52,681.888 879.773,682.133 882.025,682.413 884.277,682.726 886.529,683.075 888.782,683.458 891.034,683.875 893.286,684.328 895.538,684.814 897.791,685.335 900.043,685.891 902.295,686.48 904.548,687.104 906.8,687.763 909.052,688.455 911.304,689.181 913.557,689.941 915.809,690.735 918.061,691.562 920.313,692.423 922.566,693.316 924.818,694.243 927.07,695.202 929.323,696.194 931.575,697.218 933.827,698.274 936.079,699.361 938.332,700.48 940.584,701.63 942.836,702.811 945.088,704.022 947.341,705.263 949.593,706.534 951.845,707.834 954.097,709.163 956.35,710.52 958.602,711.906 960.854,713.319 963.107,714.759 965.359,716.225 967.611,717.718 969.863,719.237 972.116,720.781 974.368,722.349 976.62,723.942 978.872,725.558 981.125,727.197 983.377,728.858 985.629,730.542 987.881,732.246 990.134,733.971 992.386,735.716 994.638,737.481 996.891,739.264 999.143,741.065 1001.4,742.883 1003.65,744.718 1005.9,746.569 1008.15,748.435 1010.4,750.316 1012.66,752.211 1014.91,754.118 1017.16,756.038 1019.41,757.97 1021.67,759.913 1023.92,761.865 1026.17,763.827 1028.42,765.798 1030.67,767.776 1032.93,769.761 1035.18,771.753 1037.43,773.749 1039.68,775.751 1041.94,777.756 1044.19,779.765 1046.44,781.775 1048.69,783.787 1050.94,785.799 1053.2,787.812 1055.45,789.823 1057.7,791.832 1059.95,793.839 1062.21,795.842 1064.46,797.84 1066.71,799.834 1068.96,801.822 1071.22,803.802 1073.47,805.776 1075.72,807.741 1077.97,809.696 1080.22,811.642 1082.48,813.577 1084.73,815.5 1086.98,817.411 1089.23,819.308 1091.49,821.192 1093.74,823.061 1095.99,824.915 1098.24,826.752 1100.49,828.573 1102.75,830.375 1105,832.16 1107.25,833.925 1109.5,835.67 1111.76,837.394 1114.01,839.097 1116.26,840.779 1118.51,842.437 1120.77,844.072 1123.02,845.683 1125.27,847.27 1127.52,848.831 1129.77,850.367 1132.03,851.876 1134.28,853.357 1136.53,854.812 1138.78,856.237 1141.04,857.635 1143.29,859.002 1145.54,860.34 1147.79,861.648 1150.04,862.925 1152.3,864.17 1154.55,865.384 1156.8,866.565 1159.05,867.713 1161.31,868.829 1163.56,869.911 1165.81,870.958 1168.06,871.972 1170.32,872.95 1172.57,873.894 1174.82,874.802 1177.07,875.675 1179.32,876.511 1181.58,877.311 1183.83,878.074 1186.08,878.801 1188.33,879.49 1190.59,880.142 1192.84,880.756 1195.09,881.333 1197.34,881.871 1199.59,882.372 1201.85,882.834 1204.1,883.257 1206.35,883.642 1208.6,883.989 1210.86,884.297 1213.11,884.565 1215.36,884.795 1217.61,884.986 1219.87,885.138 1222.12,885.252 1224.37,885.326 1226.62,885.361 1228.87,885.357 1231.13,885.314 1233.38,885.232 1235.63,885.112 1237.88,884.953 1240.14,884.755 1242.39,884.519 1244.64,884.245 1246.89,883.932 1249.14,883.581 1251.4,883.192 1253.65,882.766 1255.9,882.302 1258.15,881.801 1260.41,881.262 1262.66,880.687 1264.91,880.075 1267.16,879.427 1269.41,878.742 1271.67,878.022 1273.92,877.266 1276.17,876.474 1278.42,875.648 1280.68,874.787 1282.93,873.891 1285.18,872.961 1287.43,871.997 1289.69,871 1291.94,869.97 1294.19,868.907 1296.44,867.812 1298.69,866.685 1300.95,865.526 1303.2,864.336 1305.45,863.115 1307.7,861.864 1309.96,860.583 1312.21,859.273 1314.46,857.933 1316.71,856.565 1318.96,855.169 1321.22,853.745 1323.47,852.293 1325.72,850.815 1327.97,849.31 1330.23,847.78 1332.48,846.224 1334.73,844.644 1336.98,843.039 1339.24,841.41 1341.49,839.758 1343.74,838.083 1345.99,836.385 1348.24,834.666 1350.5,832.926 1352.75,831.164 1355,829.383 1357.25,827.582 1359.51,825.762 1361.76,823.923 1364.01,822.066 1366.26,820.192 1368.51,818.301 1370.77,816.394 1373.02,814.47 1375.27,812.532 1377.52,810.579 1379.78,808.612 1382.03,806.632 1384.28,804.639 1386.53,802.633 1388.79,800.616 1391.04,798.588 1393.29,796.549 1395.54,794.501 1397.79,792.443 1400.05,790.377 1402.3,788.303 1404.55,786.221 1406.8,784.133 1409.06,782.038 1411.31,779.938 1413.56,777.833 1415.81,775.724 1418.06,773.612 1420.32,771.496 1422.57,769.378 1424.82,767.258 1427.07,765.137 1429.33,763.016 1431.58,760.895 1433.83,758.775 1436.08,756.656 1438.34,754.54 1440.59,752.426 1442.84,750.316 1445.09,748.21 1447.34,746.109 1449.6,744.014 1451.85,741.924 1454.1,739.842 1456.35,737.767 1458.61,735.7 1460.86,733.642 1463.11,731.593 1465.36,729.555 1467.61,727.527 1469.87,725.511 1472.12,723.507 1474.37,721.516 1476.62,719.539 1478.88,717.576 1481.13,715.627 1483.38,713.695 1485.63,711.778 1487.88,709.879 1490.14,707.997 1492.39,706.133 1494.64,704.289 1496.89,702.464 1499.15,700.659 1501.4,698.875 1503.65,697.113 1505.9,695.373 1508.16,693.657 1510.41,691.963 1512.66,690.295 1514.91,688.651 1517.16,687.032 1519.42,685.44 1521.67,683.875 1523.92,682.337 1526.17,680.828 1528.43,679.347 1530.68,677.896 1532.93,676.475 1535.18,675.085 1537.43,673.726 1539.69,672.399 1541.94,671.104 1544.19,669.843 1546.44,668.615 1548.7,667.422 1550.95,666.263 1553.2,665.14 1555.45,664.053 1557.71,663.003 1559.96,661.989 1562.21,661.013 1564.46,660.076 1566.71,659.177 1568.97,658.317 1571.22,657.497 1573.47,656.717 1575.72,655.978 1577.98,655.279 1580.23,654.623 1582.48,654.008 1584.73,653.435 1586.98,652.906 1589.24,652.419 1591.49,651.976 1593.74,651.577 1595.99,651.222 1598.25,650.912 1600.5,650.647 1602.75,650.427 1605,650.252 1607.26,650.123 1609.51,650.041 1611.76,650.004 1614.01,650.014 1616.26,650.07 1618.52,650.174 1620.77,650.324 1623.02,650.521 1625.27,650.766 1627.53,651.057 1629.78,651.397 1632.03,651.783 1634.28,652.217 1636.53,652.699 1638.79,653.228 1641.04,653.805 1643.29,654.429 1645.54,655.101 1647.8,655.819 1650.05,656.585 1652.3,657.398 1654.55,658.258 1656.81,659.164 1659.06,660.117 1661.31,661.115 1663.56,662.16 1665.81,663.25 1668.07,664.386 1670.32,665.567 1672.57,666.792 1674.82,668.061 1677.08,669.375 1679.33,670.732 1681.58,672.131 1683.83,673.573 1686.08,675.057 1688.34,676.583 1690.59,678.149 1692.84,679.756 1695.09,681.402 1697.35,683.088 1699.6,684.812 1701.85,686.574 1704.1,688.373 1706.35,690.208 1708.61,692.079 1710.86,693.986 1713.11,695.926 1715.36,697.9 1717.62,699.906 1719.87,701.944 1722.12,704.013 1724.37,706.112 1726.63,708.24 1728.88,710.397 1731.13,712.581 1733.38,714.791 1735.63,717.027 1737.89,719.287 1740.14,721.571 1742.39,723.877 1744.64,726.205 1746.9,728.553 1749.15,730.921 1751.4,733.307 1753.65,735.71 1755.9,738.13 1758.16,740.565 1760.41,743.014 1762.66,745.475 1764.91,747.949 1767.17,750.434 1769.42,752.928 1771.67,755.43 1773.92,757.94 1776.18,760.456 1778.43,762.977 1780.68,765.503 1782.93,768.03 1785.18,770.56 1787.44,773.09 1789.69,775.62 1791.94,778.148 1794.19,780.672 1796.45,783.193 1798.7,785.709 1800.95,788.218 1803.2,790.72 1805.45,793.213 1807.71,795.697 1809.96,798.17 1812.21,800.631 1814.46,803.079 1816.72,805.513 1818.97,807.932 1821.22,810.335 1823.47,812.72 1825.73,815.087 1827.98,817.435 1830.23,819.763 1832.48,822.07 1834.73,824.354 1836.99,826.615 1839.24,828.851 1841.49,831.063 1843.74,833.249 1846,835.407 1848.25,837.538 1850.5,839.64 1852.75,841.713 1855,843.756 1857.26,845.767 1859.51,847.746 1861.76,849.693 1864.01,851.606 1866.27,853.485 1868.52,855.33 1870.77,857.138 1873.02,858.911 1875.28,860.646 1877.53,862.344 1879.78,864.004 1882.03,865.626 1884.28,867.208 1886.54,868.751 1888.79,870.253 1891.04,871.715 1893.29,873.135 1895.55,874.514 1897.8,875.851 1900.05,877.146 1902.3,878.398 1904.55,879.607 1906.81,880.772 1909.06,881.894 1911.31,882.972 1913.56,884.006 1915.82,884.996 1918.07,885.941 1920.32,886.841 1922.57,887.696 1924.82,888.506 1927.08,889.271 1929.33,889.991 1931.58,890.665 1933.83,891.294 1936.09,891.878 1938.34,892.416 1940.59,892.909 1942.84,893.356 1945.1,893.758 1947.35,894.115 1949.6,894.427 1951.85,894.693 1954.1,894.915 1956.36,895.092 1958.61,895.225 1960.86,895.313 1963.11,895.357 1965.37,895.357 1967.62,895.314 1969.87,895.227 1972.12,895.097 1974.37,894.923 1976.63,894.708 1978.88,894.45 1981.13,894.15 1983.38,893.809 1985.64,893.426 1987.89,893.003 1990.14,892.539 1992.39,892.035 1994.65,891.491 1996.9,890.908 1999.15,890.287 2001.4,889.627 2003.65,888.929 2005.91,888.194 2008.16,887.421 2010.41,886.613 2012.66,885.768 2014.92,884.888 2017.17,883.973 2019.42,883.024 2021.67,882.041 2023.92,881.024 2026.18,879.975 2028.43,878.894 2030.68,877.78 2032.93,876.636 2035.19,875.461 2037.44,874.256 2039.69,873.022 2041.94,871.759 2044.2,870.468 2046.45,869.149 2048.7,867.803 2050.95,866.43 2053.2,865.032 2055.46,863.608 2057.71,862.16 2059.96,860.688 2062.21,859.192 2064.47,857.674 2066.72,856.133 2068.97,854.571 2071.22,852.988 2073.47,851.384 2075.73,849.761 2077.98,848.119 2080.23,846.458 2082.48,844.779 2084.74,843.084 2086.99,841.371 2089.24,839.643 2091.49,837.899 2093.75,836.141 2096,834.369 2098.25,832.583 2100.5,830.784 2102.75,828.973 2105.01,827.151 2107.26,825.317 2109.51,823.474 2111.76,821.62 2114.02,819.757 2116.27,817.886 2118.52,816.007 2120.77,814.12 2123.02,812.227 2125.28,810.328 2127.53,808.423 2129.78,806.514 2132.03,804.6 2134.29,802.682 2136.54,800.762 2138.79,798.838 2141.04,796.913 2143.29,794.987 2145.55,793.059 2147.8,791.132 2150.05,789.205 2152.3,787.279 2154.56,785.355 2156.81,783.432 2159.06,781.513 2161.31,779.596 2163.57,777.684 2165.82,775.775 2168.07,773.872 2170.32,771.974 2172.57,770.082 2174.83,768.197 2177.08,766.319 2179.33,764.449 2181.58,762.586 2183.84,760.733 2186.09,758.888 2188.34,757.054 2190.59,755.229 2192.84,753.416 2195.1,751.614 2197.35,749.823 2199.6,748.045 2201.85,746.28 2204.11,744.529 2206.36,742.791 2208.61,741.067 2210.86,739.358 2213.12,737.665 2215.37,735.987 2217.62,734.325 2219.87,732.681 2222.12,731.053 2224.38,729.443 2226.63,727.851 2228.88,726.278 2231.13,724.724 2233.39,723.189 2235.64,721.674 2237.89,720.18 2240.14,718.706 2242.39,717.254 2244.65,715.823 2246.9,714.414 2249.15,713.028 2251.4,711.665 2253.66,710.325 2255.91,709.008 2258.16,707.716 2260.41,706.448 2262.67,705.205 2264.92,703.988 2267.17,702.796 2269.42,701.63 2271.67,700.49 2273.93,699.377 2276.18,698.29 2278.43,697.232 2280.68,696.201 2282.94,695.198 2285.19,694.223 2287.44,693.277 2289.69,692.36 2291.94,691.472 2294.2,690.613 2296.45,689.785 2298.7,688.986 2300.95,688.218 2303.21,687.48 2305.46,686.774 2307.71,686.098 2309.96,685.454 2312.22,684.841 2314.47,684.26 2316.72,683.711 2318.97,683.194 2321.22,682.71 2323.48,682.258 2325.73,681.839 2327.98,681.452 2330.23,681.099 2332.49,680.779 2334.74,680.492 2336.99,680.238 2339.24,680.018 2341.49,679.832 2343.75,679.679 2346,679.561 2348.25,679.476 2350.5,679.424 2352.76,679.407 "/>
<polyline clip-path="url(#clip172)" style="stroke:#e26f46; stroke-linecap:round; stroke-linejoin:round; stroke-width:4; stroke-opacity:1; fill:none" points="102.74,1459.49 103.865,1460.21 104.99,1460.86 106.115,1461.45 107.24,1461.98 108.365,1462.45 109.49,1462.86 110.615,1463.21 111.74,1463.49 112.865,1463.71 113.99,1463.87 115.115,1463.96 116.24,1464 117.365,1463.96 118.49,1463.87 119.615,1463.71 120.74,1463.48 121.865,1463.2 122.99,1462.85 124.115,1462.43 125.24,1461.95 126.365,1461.4 127.49,1460.79 128.615,1460.11 129.74,1459.37 130.865,1458.57 131.99,1457.7 133.115,1456.76 134.24,1455.76 135.365,1454.69 136.49,1453.55 137.615,1452.35 138.74,1451.09 139.865,1449.76 140.99,1448.36 142.115,1446.89 143.24,1445.36 144.365,1443.77 145.49,1442.11 146.615,1440.38 147.74,1438.58 148.865,1436.72 149.99,1434.8 151.115,1432.81 152.241,1430.75 153.366,1428.62 154.491,1426.43 155.616,1424.18 156.741,1421.86 157.866,1419.47 158.991,1417.02 160.116,1414.5 161.241,1411.92 162.366,1409.27 163.491,1406.55 164.616,1403.78 165.741,1400.93 166.866,1398.02 167.991,1395.05 169.116,1392.01 170.241,1388.91 171.366,1385.75 172.491,1382.52 173.616,1379.23 174.741,1375.87 175.866,1372.45 176.991,1368.97 178.116,1365.43 179.241,1361.82 180.366,1358.15 181.491,1354.42 182.616,1350.63 183.741,1346.78 184.866,1342.86 185.991,1338.89 187.116,1334.85 188.241,1330.76 189.366,1326.6 190.491,1322.39 191.616,1318.11 192.741,1313.78 193.866,1309.39 194.991,1304.94 196.116,1300.44 197.241,1295.87 198.366,1291.26 199.491,1286.58 200.616,1281.85 201.741,1277.06 202.866,1272.22 203.991,1267.32 205.116,1262.37 206.241,1257.37 207.366,1252.31 208.491,1247.2 209.616,1242.04 210.741,1236.82 211.866,1231.56 212.991,1226.24 214.116,1220.88 215.241,1215.46 216.366,1210 217.491,1204.49 218.616,1198.92 219.741,1193.32 220.866,1187.66 221.991,1181.96 223.116,1176.21 224.241,1170.42 225.366,1164.59 226.491,1158.71 227.616,1152.78 228.741,1146.82 229.866,1140.81 230.991,1134.76 232.116,1128.67 233.241,1122.54 234.366,1116.37 235.491,1110.16 236.616,1103.92 237.741,1097.63 238.866,1091.31 239.991,1084.96 241.116,1078.57 242.241,1072.14 243.366,1065.68 244.491,1059.19 245.616,1052.66 246.741,1046.11 247.866,1039.52 248.991,1032.9 250.116,1026.25 251.241,1019.58 252.366,1012.87 253.491,1006.14 254.616,999.381 255.741,992.597 256.866,985.788 257.991,978.955 259.116,972.098 260.241,965.219 261.366,958.318 262.491,951.396 263.616,944.453 264.741,937.491 265.866,930.511 266.991,923.512 268.116,916.496 269.241,909.465 270.366,902.417 271.491,895.355 272.616,888.279 273.741,881.19 274.866,874.089 275.991,866.977 277.116,859.854 278.241,852.721 279.366,845.58 280.491,838.43 281.616,831.273 282.741,824.11 283.866,816.941 284.991,809.767 286.116,802.59 287.241,795.409 288.366,788.226 289.491,781.042 290.616,773.857 291.741,766.673 292.866,759.489 293.991,752.308 295.117,745.129 296.242,737.954 297.367,730.783 298.492,723.618 299.617,716.459 300.742,709.307 301.867,702.162 302.992,695.027 304.117,687.9 305.242,680.784 306.367,673.679 307.492,666.586 308.617,659.506 309.742,652.439 310.867,645.387 311.992,638.35 313.117,631.329 314.242,624.324 315.367,617.337 316.492,610.369 317.617,603.42 318.742,596.491 319.867,589.583 320.992,582.696 322.117,575.832 323.242,568.991 324.367,562.174 325.492,555.381 326.617,548.614 327.742,541.874 328.867,535.16 329.992,528.474 331.117,521.817 332.242,515.189 333.367,508.59 334.492,502.023 335.617,495.487 336.742,488.984 337.867,482.513 338.992,476.076 340.117,469.673 341.242,463.305 342.367,456.973 343.492,450.678 344.617,444.419 345.742,438.199 346.867,432.016 347.992,425.873 349.117,419.77 350.242,413.707 351.367,407.686 352.492,401.706 353.617,395.768 354.742,389.874 355.867,384.023 356.992,378.216 358.117,372.454 359.242,366.738 360.367,361.067 361.492,355.444 362.617,349.867 363.742,344.338 364.867,338.858 365.992,333.426 367.117,328.044 368.242,322.711 369.367,317.429 370.492,312.198 371.617,307.019 372.742,301.891 373.867,296.816 374.992,291.794 376.117,286.826 377.242,281.911 378.367,277.051 379.492,272.245 380.617,267.495 381.742,262.801 382.867,258.163 383.992,253.581 385.117,249.056 386.242,244.589 387.367,240.179 388.492,235.827 389.617,231.534 390.742,227.3 391.867,223.125 392.992,219.01 394.117,214.955 395.242,210.96 396.367,207.025 397.492,203.151 398.617,199.339 399.742,195.588 400.867,191.898 401.992,188.271 403.117,184.706 404.242,181.204 405.367,177.764 406.492,174.387 407.617,171.074 408.742,167.824 409.867,164.638 410.992,161.516 412.117,158.457 413.242,155.463 414.367,152.534 415.492,149.669 416.617,146.869 417.742,144.133 418.867,141.463 419.992,138.858 421.117,136.319 422.242,133.844 423.367,131.435 424.492,129.092 425.617,126.815 426.742,124.603 427.867,122.457 428.992,120.377 430.117,118.363 431.242,116.415 432.367,114.533 433.492,112.717 434.617,110.967 435.742,109.283 436.867,107.665 437.993,106.113 439.118,104.627 440.243,103.207 441.368,101.854 442.493,100.566 443.618,99.3437 444.743,98.1876 445.868,97.0972 446.993,96.0725 448.118,95.1135 449.243,94.2199 450.368,93.3918 451.493,92.629 452.618,91.9314 453.743,91.2988 454.868,90.7313 455.993,90.2286 457.118,89.7906 458.243,89.4171 459.368,89.108 460.493,88.8632 461.618,88.6824 462.743,88.5655 463.868,88.5123 464.993,88.5226 466.118,88.5963 467.243,88.733 468.368,88.9327 469.493,89.1951 470.618,89.5199 471.743,89.9071 472.868,90.3562 473.993,90.8671 475.118,91.4396 476.243,92.0733 477.368,92.7681 478.493,93.5237 479.618,94.3398 480.743,95.2161 481.868,96.1524 482.993,97.1483 484.118,98.2037 485.243,99.3182 486.368,100.491 487.493,101.723 488.618,103.013 489.743,104.361 490.868,105.767 491.993,107.229 493.118,108.749 494.243,110.325 495.368,111.958 496.493,113.646 497.618,115.39 498.743,117.19 499.868,119.044 500.993,120.953 502.118,122.916 503.243,124.932 504.368,127.003 505.493,129.126 506.618,131.302 507.743,133.531 508.868,135.812 509.993,138.144 511.118,140.527 512.243,142.962 513.368,145.447 514.493,147.982 515.618,150.566 516.743,153.2 517.868,155.883 518.993,158.615 520.118,161.395 521.243,164.222 522.368,167.097 523.493,170.018 524.618,172.987 525.743,176.001 526.868,179.061 527.993,182.166 529.118,185.317 530.243,188.512 531.368,191.751 532.493,195.033 533.618,198.359 534.743,201.728 535.868,205.139 536.993,208.592 538.118,212.087 539.243,215.623 540.368,219.199 541.493,222.816 542.618,226.473 543.743,230.17 544.868,233.905 545.993,237.679 547.118,241.492 548.243,245.342 549.368,249.23 550.493,253.154 551.618,257.116 552.743,261.113 553.868,265.146 554.993,269.215 556.118,273.318 557.243,277.456 558.368,281.628 559.493,285.833 560.618,290.072 561.743,294.344 562.868,298.648 563.993,302.984 565.118,307.351 566.243,311.75 567.368,316.179 568.493,320.639 569.618,325.129 570.743,329.648 571.868,334.197 572.993,338.774 574.118,343.38 575.243,348.013 576.368,352.674 577.493,357.362 578.618,362.077 579.743,366.818 580.869,371.585 581.994,376.378 583.119,381.196 584.244,386.038 585.369,390.905 586.494,395.796 587.619,400.71 588.744,405.648 589.869,410.609 590.994,415.591 592.119,420.596 593.244,425.623 594.369,430.671 595.494,435.74 596.619,440.829 597.744,445.939 598.869,451.068 599.994,456.217 601.119,461.385 602.244,466.571 603.369,471.776 604.494,476.999 605.619,482.24 606.744,487.498 607.869,492.772 608.994,498.063 610.119,503.371 611.244,508.694 612.369,514.033 613.494,519.386 614.619,524.755 615.744,530.138 616.869,535.535 617.994,540.946 619.119,546.37 620.244,551.808 621.369,557.258 622.494,562.72 623.619,568.195 624.744,573.681 625.869,579.179 626.994,584.687 628.119,590.206 629.244,595.736 630.369,601.276 631.494,606.826 632.619,612.384 633.744,617.952 634.869,623.529 635.994,629.114 637.119,634.708 638.244,640.309 639.369,645.917 640.494,651.533 641.619,657.155 642.744,662.785 643.869,668.42 644.994,674.061 646.119,679.708 647.244,685.36 648.369,691.016 649.494,696.678 650.619,702.344 651.744,708.014 652.869,713.687 653.994,719.364 655.119,725.044 656.244,730.727 657.369,736.412 658.494,742.1 659.619,747.789 660.744,753.48 661.869,759.172 662.994,764.865 664.119,770.558 665.244,776.252 666.369,781.946 667.494,787.639 668.619,793.332 669.744,799.024 670.869,804.715 671.994,810.404 673.119,816.092 674.244,821.777 675.369,827.46 676.494,833.14 677.619,838.817 678.744,844.49 679.869,850.16 680.994,855.826 682.119,861.487 683.244,867.144 684.369,872.796 685.494,878.443 686.619,884.084 687.744,889.719 688.869,895.348 689.994,900.971 691.119,906.587 692.244,912.195 693.369,917.796 694.494,923.39 695.619,928.975 696.744,934.552 697.869,940.119 698.994,945.678 700.119,951.228 701.244,956.768 702.369,962.297 703.494,967.817 704.619,973.325 705.744,978.823 706.869,984.309 707.994,989.784 709.119,995.246 710.244,1000.7 711.369,1006.13 712.494,1011.56 713.619,1016.97 714.744,1022.37 715.869,1027.75 716.994,1033.12 718.119,1038.47 719.244,1043.81 720.369,1049.13 721.494,1054.44 722.619,1059.73 723.745,1065.01 724.87,1070.26 725.995,1075.5 727.12,1080.73 728.245,1085.93 729.37,1091.12 730.495,1096.29 731.62,1101.44 732.745,1106.57 733.87,1111.67 734.995,1116.76 736.12,1121.83 737.245,1126.88 738.37,1131.91 739.495,1136.91 740.62,1141.9 741.745,1146.86 742.87,1151.79 743.995,1156.71 745.12,1161.6 746.245,1166.47 747.37,1171.31 748.495,1176.13 749.62,1180.92 750.745,1185.69 751.87,1190.43 752.995,1195.14 754.12,1199.83 755.245,1204.49 756.37,1209.12 757.495,1213.73 758.62,1218.31 759.745,1222.86 760.87,1227.37 761.995,1231.86 763.12,1236.32 764.245,1240.75 765.37,1245.15 766.495,1249.52 767.62,1253.86 768.745,1258.16 769.87,1262.43 770.995,1266.67 772.12,1270.88 773.245,1275.05 774.37,1279.19 775.495,1283.29 776.62,1287.36 777.745,1291.39 778.87,1295.39 779.995,1299.35 781.12,1303.27 782.245,1307.16 783.37,1311.01 784.495,1314.82 785.62,1318.6 786.745,1322.33 787.87,1326.03 788.995,1329.69 790.12,1333.3 791.245,1336.88 792.37,1340.42 793.495,1343.91 794.62,1347.37 795.745,1350.78 796.87,1354.14 797.995,1357.47 799.12,1360.75 800.245,1363.99 801.37,1367.19 802.495,1370.34 803.62,1373.44 804.745,1376.5 805.87,1379.52 806.995,1382.49 808.12,1385.41 809.245,1388.28 810.37,1391.11 811.495,1393.89 812.62,1396.62 813.745,1399.3 814.87,1401.94 815.995,1404.52 817.12,1407.06 818.245,1409.54 819.37,1411.98 820.495,1414.36 821.62,1416.69 822.745,1418.97 823.87,1421.2 824.995,1423.38 826.12,1425.5 827.245,1427.57 828.37,1429.59 829.495,1431.55 830.62,1433.46 831.745,1435.31 832.87,1437.11 833.995,1438.86 835.12,1440.55 836.245,1442.18 837.37,1443.76 838.495,1445.27 839.62,1446.74 840.745,1448.14 841.87,1449.49 842.995,1450.78 844.12,1452.01 845.245,1453.19 846.37,1454.3 847.495,1455.36 848.62,1456.35 849.745,1457.29 850.87,1458.16 851.995,1458.98 853.12,1459.74 854.245,1460.43 855.37,1461.06 856.495,1461.64 857.62,1462.15 858.745,1462.6 859.87,1462.98 860.995,1463.31 862.12,1463.57 863.245,1463.77 864.37,1463.91 865.495,1463.98 866.621,1463.99 867.746,1463.94 868.871,1463.82 869.996,1463.64 871.121,1463.4 872.246,1463.09 873.371,1462.71 874.496,1462.28 875.621,1461.77 876.746,1461.21 877.871,1460.57 878.996,1459.87 880.121,1459.11 881.246,1458.28 882.371,1457.39 883.496,1456.43 884.621,1455.41 885.746,1454.32 886.871,1453.16 887.996,1451.94 889.121,1450.65 890.246,1449.3 891.371,1447.88 892.496,1446.39 893.621,1444.84 894.746,1443.22 895.871,1441.54 896.996,1439.79 898.121,1437.97 899.246,1436.09 900.371,1434.14 901.496,1432.13 902.621,1430.05 903.746,1427.9 904.871,1425.69 905.996,1423.41 907.121,1421.07 908.246,1418.66 909.371,1416.19 910.496,1413.65 911.621,1411.04 912.746,1408.37 913.871,1405.64 914.996,1402.84 916.121,1399.97 917.246,1397.04 918.371,1394.05 919.496,1390.99 920.621,1387.87 921.746,1384.68 922.871,1381.43 923.996,1378.12 925.121,1374.74 926.246,1371.3 927.371,1367.8 928.496,1364.23 929.621,1360.61 930.746,1356.92 931.871,1353.17 932.996,1349.35 934.121,1345.48 935.246,1341.54 936.371,1337.55 937.496,1333.49 938.621,1329.38 939.746,1325.2 940.871,1320.97 941.996,1316.68 943.121,1312.32 944.246,1307.92 945.371,1303.45 946.496,1298.92 947.621,1294.34 948.746,1289.7 949.871,1285.01 950.996,1280.26 952.121,1275.45 953.246,1270.59 954.371,1265.68 955.496,1260.71 956.621,1255.69 957.746,1250.61 958.871,1245.49 959.996,1240.31 961.121,1235.07 962.246,1229.79 963.371,1224.46 964.496,1219.08 965.621,1213.65 966.746,1208.17 967.871,1202.64 968.996,1197.06 970.121,1191.44 971.246,1185.77 972.371,1180.05 973.496,1174.29 974.621,1168.48 975.746,1162.63 976.871,1156.74 977.996,1150.8 979.121,1144.82 980.246,1138.8 981.371,1132.73 982.496,1126.63 983.621,1120.49 984.746,1114.31 985.871,1108.08 986.996,1101.83 988.121,1095.53 989.246,1089.2 990.371,1082.83 991.496,1076.43 992.621,1069.99 993.746,1063.52 994.871,1057.02 995.996,1050.48 997.121,1043.91 998.246,1037.32 999.371,1030.69 1000.5,1024.03 1001.62,1017.34 1002.75,1010.63 1003.87,1003.89 1005,997.123 1006.12,990.33 1007.25,983.513 1008.37,976.672 1009.5,969.808 1010.62,962.921 1011.75,956.013 1012.87,949.084 1014,942.135 1015.12,935.166 1016.25,928.18 1017.37,921.175 1018.5,914.154 1019.62,907.117 1020.75,900.065 1021.87,892.998 1023,885.918 1024.12,878.825 1025.25,871.72 1026.37,864.604 1027.5,857.477 1028.62,850.342 1029.75,843.197 1030.87,836.045 1032,828.886 1033.12,821.721 1034.25,814.55 1035.37,807.375 1036.5,800.196 1037.62,793.015 1038.75,785.831 1039.87,778.647 1041,771.462 1042.12,764.278 1043.25,757.095 1044.37,749.914 1045.5,742.737 1046.62,735.563 1047.75,728.394 1048.87,721.231 1050,714.074 1051.12,706.924 1052.25,699.783 1053.37,692.65 1054.5,685.527 1055.62,678.415 1056.75,671.313 1057.87,664.225 1059,657.149 1060.12,650.087 1061.25,643.039 1062.37,636.007 1063.5,628.992 1064.62,621.993 1065.75,615.013 1066.87,608.051 1068,601.108 1069.12,594.186 1070.25,587.285 1071.37,580.406 1072.5,573.549 1073.62,566.716 1074.75,559.907 1075.87,553.123 1077,546.364 1078.12,539.633 1079.25,532.928 1080.37,526.252 1081.5,519.604 1082.62,512.986 1083.75,506.398 1084.87,499.841 1086,493.316 1087.12,486.823 1088.25,480.363 1089.37,473.938 1090.5,467.546 1091.62,461.19 1092.75,454.871 1093.87,448.587 1095,442.341 1096.12,436.133 1097.25,429.964 1098.37,423.834 1099.5,417.745 1100.62,411.696 1101.75,405.688 1102.87,399.722 1104,393.799 1105.12,387.919 1106.25,382.082 1107.37,376.291 1108.5,370.544 1109.62,364.843 1110.75,359.188 1111.87,353.58 1113,348.019 1114.12,342.506 1115.25,337.042 1116.37,331.626 1117.5,326.261 1118.62,320.945 1119.75,315.68 1120.87,310.466 1122,305.304 1123.12,300.194 1124.25,295.136 1125.37,290.132 1126.5,285.182 1127.62,280.285 1128.75,275.443 1129.87,270.656 1131,265.924 1132.12,261.249 1133.25,256.629 1134.37,252.066 1135.5,247.561 1136.62,243.112 1137.75,238.722 1138.87,234.39 1140,230.117 1141.12,225.902 1142.25,221.747 1143.37,217.652 1144.5,213.616 1145.62,209.641 1146.75,205.727 1147.87,201.874 1149,198.082 1150.12,194.351 1151.25,190.682 1152.37,187.076 1153.5,183.532 1154.62,180.05 1155.75,176.631 1156.87,173.276 1158,169.984 1159.12,166.755 1160.25,163.59 1161.37,160.489 1162.5,157.452 1163.62,154.48 1164.75,151.572 1165.87,148.728 1167,145.95 1168.12,143.236 1169.25,140.588 1170.37,138.004 1171.5,135.486 1172.62,133.034 1173.75,130.647 1174.87,128.326 1176,126.07 1177.12,123.88 1178.25,121.756 1179.37,119.698 1180.5,117.706 1181.62,115.78 1182.75,113.92 1183.87,112.126 1185,110.398 1186.12,108.736 1187.25,107.14 1188.37,105.61 1189.5,104.147 1190.62,102.749 1191.75,101.417 1192.87,100.151 1194,98.951 1195.12,97.8168 1196.25,96.7484 1197.37,95.7455 1198.5,94.8083 1199.62,93.9366 1200.75,93.1302 1201.87,92.3892 1203,91.7133 1204.12,91.1025 1205.25,90.5565 1206.37,90.0754 1207.5,89.6589 1208.62,89.3069 1209.75,89.0193 1210.87,88.7958 1212,88.6363 1213.12,88.5407 1214.25,88.5087 1215.37,88.5401 1216.5,88.6348 1217.62,88.7926 1218.75,89.0132 1219.87,89.2964 1221,89.6421 1222.12,90.0499 1223.25,90.5196 1224.37,91.0511 1225.5,91.644 1226.62,92.2982 1227.75,93.0132 1228.87,93.789 1230,94.6252 1231.12,95.5215 1232.25,96.4778 1233.37,97.4936 1234.5,98.5686 1235.62,99.7028 1236.75,100.896 1237.87,102.147 1239,103.456 1240.12,104.823 1241.25,106.248 1242.37,107.73 1243.5,109.268 1244.62,110.863 1245.75,112.514 1246.87,114.221 1248,115.984 1249.12,117.802 1250.25,119.674 1251.37,121.601 1252.5,123.582 1253.62,125.617 1254.75,127.705 1255.87,129.846 1257,132.039 1258.12,134.285 1259.25,136.583 1260.37,138.933 1261.5,141.333 1262.62,143.784 1263.75,146.286 1264.87,148.838 1266,151.439 1267.12,154.089 1268.25,156.788 1269.37,159.536 1270.5,162.332 1271.62,165.175 1272.75,168.065 1273.87,171.003 1275,173.986 1276.12,177.016 1277.25,180.091 1278.37,183.212 1279.5,186.377 1280.62,189.586 1281.75,192.84 1282.87,196.137 1284,199.477 1285.12,202.86 1286.25,206.285 1287.37,209.752 1288.5,213.261 1289.62,216.81 1290.75,220.4 1291.87,224.031 1293,227.701 1294.12,231.41 1295.25,235.159 1296.37,238.946 1297.5,242.771 1298.62,246.634 1299.75,250.534 1300.87,254.471 1302,258.444 1303.12,262.453 1304.25,266.498 1305.37,270.578 1306.5,274.693 1307.62,278.843 1308.75,283.026 1309.87,287.242 1311,291.492 1312.12,295.775 1313.25,300.089 1314.37,304.436 1315.5,308.814 1316.62,313.223 1317.75,317.663 1318.87,322.133 1320,326.632 1321.12,331.161 1322.25,335.72 1323.37,340.306 1324.5,344.921 1325.62,349.564 1326.75,354.234 1327.87,358.931 1329,363.655 1330.12,368.404 1331.25,373.18 1332.37,377.981 1333.5,382.807 1334.62,387.658 1335.75,392.533 1336.87,397.432 1338,402.354 1339.12,407.299 1340.25,412.267 1341.37,417.257 1342.5,422.27 1343.62,427.303 1344.75,432.358 1345.87,437.434 1347,442.53 1348.12,447.646 1349.25,452.782 1350.37,457.938 1351.5,463.112 1352.62,468.304 1353.75,473.515 1354.87,478.744 1356,483.99 1357.12,489.254 1358.25,494.534 1359.37,499.831 1360.5,505.143 1361.62,510.472 1362.75,515.816 1363.87,521.174 1365,526.548 1366.12,531.936 1367.25,537.337 1368.37,542.753 1369.5,548.181 1370.62,553.623 1371.75,559.077 1372.87,564.544 1374,570.022 1375.12,575.512 1376.25,581.014 1377.37,586.526 1378.5,592.049 1379.62,597.582 1380.75,603.125 1381.87,608.677 1383,614.239 1384.12,619.81 1385.25,625.39 1386.37,630.978 1387.5,636.574 1388.62,642.177 1389.75,647.788 1390.87,653.406 1392,659.031 1393.12,664.662 1394.25,670.3 1395.37,675.943 1396.5,681.591 1397.62,687.245 1398.75,692.903 1399.87,698.566 1401,704.233 1402.12,709.904 1403.25,715.579 1404.37,721.257 1405.5,726.938 1406.62,732.622 1407.75,738.308 1408.87,743.996 1410,749.686 1411.12,755.377 1412.25,761.069 1413.37,766.762 1414.5,772.456 1415.62,778.15 1416.75,783.844 1417.87,789.537 1419,795.23 1420.12,800.921 1421.25,806.612 1422.37,812.3 1423.5,817.987 1424.62,823.672 1425.75,829.353 1426.87,835.032 1428,840.708 1429.12,846.381 1430.25,852.049 1431.37,857.714 1432.5,863.374 1433.62,869.029 1434.75,874.679 1435.87,880.324 1437,885.963 1438.12,891.596 1439.25,897.223 1440.37,902.844 1441.5,908.457 1442.62,914.063 1443.75,919.662 1444.87,925.252 1446,930.835 1447.12,936.408 1448.25,941.973 1449.37,947.529 1450.5,953.076 1451.62,958.612 1452.75,964.138 1453.87,969.654 1455,975.159 1456.12,980.653 1457.25,986.135 1458.37,991.606 1459.5,997.064 1460.62,1002.51 1461.75,1007.94 1462.87,1013.36 1464,1018.77 1465.12,1024.16 1466.25,1029.54 1467.37,1034.9 1468.5,1040.25 1469.62,1045.59 1470.75,1050.9 1471.87,1056.21 1473,1061.49 1474.12,1066.76 1475.25,1072.01 1476.37,1077.25 1477.5,1082.46 1478.62,1087.66 1479.75,1092.84 1480.87,1098.01 1482,1103.15 1483.12,1108.27 1484.25,1113.37 1485.37,1118.46 1486.5,1123.52 1487.62,1128.56 1488.75,1133.58 1489.87,1138.58 1491,1143.55 1492.12,1148.5 1493.25,1153.43 1494.37,1158.34 1495.5,1163.22 1496.62,1168.08 1497.75,1172.92 1498.87,1177.73 1500,1182.51 1501.12,1187.27 1502.25,1192 1503.37,1196.71 1504.5,1201.39 1505.62,1206.04 1506.75,1210.66 1507.87,1215.26 1509,1219.83 1510.13,1224.37 1511.25,1228.87 1512.38,1233.35 1513.5,1237.8 1514.63,1242.22 1515.75,1246.61 1516.88,1250.97 1518,1255.29 1519.13,1259.59 1520.25,1263.85 1521.38,1268.08 1522.5,1272.27 1523.63,1276.43 1524.75,1280.56 1525.88,1284.65 1527,1288.71 1528.13,1292.73 1529.25,1296.71 1530.38,1300.66 1531.5,1304.57 1532.63,1308.45 1533.75,1312.29 1534.88,1316.09 1536,1319.85 1537.13,1323.57 1538.25,1327.25 1539.38,1330.9 1540.5,1334.5 1541.63,1338.06 1542.75,1341.59 1543.88,1345.07 1545,1348.51 1546.13,1351.9 1547.25,1355.26 1548.38,1358.57 1549.5,1361.84 1550.63,1365.06 1551.75,1368.24 1552.88,1371.38 1554,1374.47 1555.13,1377.51 1556.25,1380.51 1557.38,1383.46 1558.5,1386.37 1559.63,1389.23 1560.75,1392.04 1561.88,1394.8 1563,1397.52 1564.13,1400.19 1565.25,1402.8 1566.38,1405.37 1567.5,1407.89 1568.63,1410.36 1569.75,1412.78 1570.88,1415.14 1572,1417.46 1573.13,1419.72 1574.25,1421.93 1575.38,1424.09 1576.5,1426.2 1577.63,1428.25 1578.75,1430.25 1579.88,1432.19 1581,1434.08 1582.13,1435.92 1583.25,1437.7 1584.38,1439.43 1585.5,1441.1 1586.63,1442.71 1587.75,1444.27 1588.88,1445.77 1590,1447.21 1591.13,1448.6 1592.25,1449.93 1593.38,1451.2 1594.5,1452.41 1595.63,1453.56 1596.75,1454.66 1597.88,1455.69 1599,1456.67 1600.13,1457.59 1601.25,1458.44 1602.38,1459.24 1603.5,1459.97 1604.63,1460.65 1605.75,1461.26 1606.88,1461.81 1608,1462.3 1609.13,1462.73 1610.25,1463.1 1611.38,1463.4 1612.5,1463.64 1613.63,1463.82 1614.75,1463.94 1615.88,1463.99 1617,1463.98 1618.13,1463.91 1619.25,1463.77 1620.38,1463.57 1621.5,1463.3 1622.63,1462.97 1623.75,1462.57 1624.88,1462.11 1626,1461.59 1627.13,1461 1628.25,1460.35 1629.38,1459.63 1630.5,1458.84 1631.63,1457.99 1632.75,1457.08 1633.88,1456.1 1635,1455.05 1636.13,1453.94 1637.25,1452.76 1638.38,1451.52 1639.5,1450.21 1640.63,1448.83 1641.75,1447.39 1642.88,1445.88 1644,1444.31 1645.13,1442.67 1646.25,1440.96 1647.38,1439.19 1648.5,1437.35 1649.63,1435.45 1650.75,1433.48 1651.88,1431.44 1653,1429.34 1654.13,1427.17 1655.25,1424.94 1656.38,1422.64 1657.5,1420.27 1658.63,1417.84 1659.75,1415.35 1660.88,1412.78 1662,1410.16 1663.13,1407.47 1664.25,1404.71 1665.38,1401.89 1666.5,1399 1667.63,1396.05 1668.75,1393.03 1669.88,1389.95 1671,1386.81 1672.13,1383.6 1673.25,1380.33 1674.38,1377 1675.5,1373.6 1676.63,1370.14 1677.75,1366.62 1678.88,1363.03 1680,1359.38 1681.13,1355.67 1682.25,1351.9 1683.38,1348.07 1684.5,1344.17 1685.63,1340.22 1686.75,1336.2 1687.88,1332.13 1689,1327.99 1690.13,1323.8 1691.25,1319.54 1692.38,1315.23 1693.5,1310.86 1694.63,1306.43 1695.75,1301.95 1696.88,1297.4 1698,1292.8 1699.13,1288.14 1700.25,1283.43 1701.38,1278.66 1702.5,1273.84 1703.63,1268.96 1704.75,1264.03 1705.88,1259.04 1707,1254 1708.13,1248.91 1709.25,1243.76 1710.38,1238.57 1711.5,1233.32 1712.63,1228.02 1713.75,1222.67 1714.88,1217.27 1716,1211.82 1717.13,1206.33 1718.25,1200.78 1719.38,1195.19 1720.5,1189.55 1721.63,1183.87 1722.75,1178.13 1723.88,1172.36 1725,1166.54 1726.13,1160.67 1727.25,1154.76 1728.38,1148.81 1729.5,1142.82 1730.63,1136.78 1731.75,1130.7 1732.88,1124.59 1734,1118.43 1735.13,1112.24 1736.25,1106 1737.38,1099.73 1738.5,1093.42 1739.63,1087.08 1740.75,1080.7 1741.88,1074.29 1743,1067.84 1744.13,1061.36 1745.25,1054.84 1746.38,1048.3 1747.5,1041.72 1748.63,1035.11 1749.75,1028.47 1750.88,1021.8 1752,1015.11 1753.13,1008.39 1754.25,1001.64 1755.38,994.861 1756.5,988.061 1757.63,981.235 1758.75,974.386 1759.88,967.515 1761,960.621 1762.13,953.705 1763.25,946.77 1764.38,939.814 1765.5,932.84 1766.63,925.847 1767.75,918.837 1768.88,911.81 1770,904.768 1771.13,897.711 1772.25,890.639 1773.38,883.555 1774.5,876.458 1775.63,869.349 1776.75,862.229 1777.88,855.1 1779,847.961 1780.13,840.814 1781.25,833.659 1782.38,826.498 1783.5,819.331 1784.63,812.159 1785.75,804.982 1786.88,797.803 1788,790.621 1789.13,783.437 1790.25,776.252 1791.38,769.067 1792.5,761.883 1793.63,754.701 1794.75,747.522 1795.88,740.345 1797,733.173 1798.13,726.006 1799.25,718.845 1800.38,711.69 1801.5,704.543 1802.63,697.404 1803.75,690.275 1804.88,683.155 1806,676.046 1807.13,668.949 1808.25,661.865 1809.38,654.793 1810.5,647.736 1811.63,640.694 1812.75,633.667 1813.88,626.657 1815,619.664 1816.13,612.69 1817.25,605.734 1818.38,598.798 1819.5,591.883 1820.63,584.989 1821.75,578.117 1822.88,571.269 1824,564.443 1825.13,557.643 1826.25,550.867 1827.38,544.118 1828.5,537.395 1829.63,530.7 1830.75,524.033 1831.88,517.395 1833,510.786 1834.13,504.209 1835.25,497.662 1836.38,491.148 1837.5,484.666 1838.63,478.218 1839.75,471.803 1840.88,465.424 1842,459.08 1843.13,452.772 1844.25,446.501 1845.38,440.268 1846.5,434.073 1847.63,427.917 1848.75,421.8 1849.88,415.724 1851,409.688 1852.13,403.694 1853.25,397.743 1854.38,391.834 1855.5,385.968 1856.63,380.147 1857.75,374.37 1858.88,368.638 1860,362.952 1861.13,357.313 1862.25,351.721 1863.38,346.176 1864.5,340.679 1865.63,335.231 1866.75,329.832 1867.88,324.483 1869,319.184 1870.13,313.936 1871.25,308.74 1872.38,303.595 1873.5,298.502 1874.63,293.462 1875.75,288.476 1876.88,283.543 1878,278.665 1879.13,273.841 1880.25,269.073 1881.38,264.359 1882.5,259.702 1883.63,255.102 1884.75,250.558 1885.88,246.071 1887,241.642 1888.13,237.272 1889.25,232.959 1890.38,228.705 1891.5,224.51 1892.63,220.375 1893.75,216.3 1894.88,212.285 1896,208.33 1897.13,204.436 1898.25,200.603 1899.38,196.831 1900.5,193.121 1901.63,189.473 1902.75,185.887 1903.88,182.364 1905,178.904 1906.13,175.506 1907.25,172.171 1908.38,168.9 1909.5,165.693 1910.63,162.549 1911.75,159.47 1912.88,156.454 1914,153.503 1915.13,150.617 1916.25,147.795 1917.38,145.038 1918.5,142.346 1919.63,139.719 1920.75,137.158 1921.88,134.662 1923,132.231 1924.13,129.866 1925.25,127.567 1926.38,125.333 1927.5,123.165 1928.63,121.063 1929.75,119.027 1930.88,117.057 1932,115.153 1933.13,113.315 1934.25,111.543 1935.38,109.837 1936.5,108.197 1937.63,106.623 1938.75,105.115 1939.88,103.673 1941,102.298 1942.13,100.988 1943.25,99.7437 1944.38,98.5657 1945.5,97.4534 1946.63,96.4068 1947.75,95.4259 1948.88,94.5105 1950,93.6605 1951.13,92.876 1952.25,92.1567 1953.38,91.5025 1954.5,90.9133 1955.63,90.389 1956.75,89.9294 1957.88,89.5344 1959,89.2039 1960.13,88.9377 1961.25,88.7356 1962.38,88.5974 1963.5,88.523 1964.63,88.5121 1965.75,88.5647 1966.88,88.6804 1968,88.8592 1969.13,89.1007 1970.25,89.4047 1971.38,89.7711 1972.5,90.1996 1973.63,90.69 1974.75,91.2419 1975.88,91.8553 1977,92.5298 1978.13,93.2651 1979.25,94.061 1980.38,94.9173 1981.5,95.8336 1982.63,96.8097 1983.75,97.8453 1984.88,98.9401 1986,100.094 1987.13,101.306 1988.25,102.577 1989.38,103.905 1990.5,105.292 1991.63,106.735 1992.75,108.236 1993.88,109.793 1995,111.407 1996.13,113.077 1997.25,114.803 1998.38,116.584 1999.5,118.42 2000.63,120.31 2001.75,122.255 2002.88,124.254 2004,126.307 2005.13,128.413 2006.25,130.571 2007.38,132.782 2008.5,135.046 2009.63,137.361 2010.75,139.727 2011.88,142.145 2013,144.613 2014.13,147.131 2015.25,149.699 2016.38,152.317 2017.5,154.984 2018.63,157.699 2019.75,160.463 2020.88,163.274 2022,166.133 2023.13,169.039 2024.25,171.992 2025.38,174.991 2026.5,178.036 2027.63,181.126 2028.75,184.262 2029.88,187.442 2031,190.666 2032.13,193.934 2033.25,197.246 2034.38,200.6 2035.5,203.997 2036.63,207.436 2037.75,210.917 2038.88,214.439 2040,218.002 2041.13,221.606 2042.25,225.25 2043.38,228.933 2044.5,232.656 2045.63,236.417 2046.75,240.217 2047.88,244.054 2049,247.93 2050.13,251.842 2051.25,255.791 2052.38,259.777 2053.5,263.798 2054.63,267.855 2055.75,271.946 2056.88,276.073 2058,280.233 2059.13,284.428 2060.25,288.655 2061.38,292.916 2062.5,297.209 2063.63,301.535 2064.75,305.892 2065.88,310.28 2067,314.7 2068.13,319.149 2069.25,323.629 2070.38,328.139 2071.5,332.678 2072.63,337.245 2073.75,341.841 2074.88,346.466 2076,351.118 2077.13,355.797 2078.25,360.503 2079.38,365.235 2080.5,369.994 2081.63,374.778 2082.75,379.587 2083.88,384.421 2085,389.28 2086.13,394.163 2087.25,399.07 2088.38,404 2089.5,408.953 2090.63,413.928 2091.75,418.926 2092.88,423.945 2094,428.986 2095.13,434.048 2096.25,439.13 2097.38,444.233 2098.5,449.356 2099.63,454.499 2100.75,459.66 2101.88,464.841 2103,470.039 2104.13,475.256 2105.25,480.491 2106.38,485.743 2107.5,491.012 2108.63,496.298 2109.75,501.6 2110.88,506.918 2112,512.251 2113.13,517.6 2114.25,522.964 2115.38,528.342 2116.5,533.735 2117.63,539.141 2118.75,544.561 2119.88,549.994 2121,555.44 2122.13,560.898 2123.25,566.369 2124.38,571.851 2125.5,577.345 2126.63,582.85 2127.75,588.366 2128.88,593.892 2130,599.428 2131.13,604.975 2132.25,610.53 2133.38,616.095 2134.5,621.669 2135.63,627.252 2136.75,632.842 2137.88,638.441 2139,644.047 2140.13,649.66 2141.25,655.281 2142.38,660.907 2143.5,666.541 2144.63,672.18 2145.75,677.825 2146.88,683.475 2148,689.13 2149.13,694.79 2150.25,700.455 2151.38,706.123 2152.5,711.796 2153.63,717.471 2154.75,723.151 2155.88,728.832 2157,734.517 2158.13,740.204 2159.25,745.892 2160.38,751.583 2161.5,757.274 2162.63,762.967 2163.75,768.66 2164.88,774.354 2166,780.048 2167.13,785.742 2168.25,791.435 2169.38,797.127 2170.5,802.818 2171.63,808.508 2172.75,814.196 2173.88,819.882 2175,825.566 2176.13,831.247 2177.25,836.925 2178.38,842.599 2179.5,848.271 2180.63,853.938 2181.75,859.601 2182.88,865.259 2184,870.913 2185.13,876.561 2186.25,882.204 2187.38,887.842 2188.5,893.473 2189.63,899.098 2190.75,904.716 2191.88,910.327 2193,915.93 2194.13,921.526 2195.25,927.114 2196.38,932.694 2197.5,938.264 2198.63,943.826 2199.75,949.379 2200.88,954.922 2202,960.455 2203.13,965.978 2204.25,971.49 2205.38,976.992 2206.5,982.482 2207.63,987.96 2208.75,993.427 2209.88,998.881 2211,1004.32 2212.13,1009.75 2213.25,1015.17 2214.38,1020.57 2215.5,1025.96 2216.63,1031.33 2217.75,1036.69 2218.88,1042.03 2220,1047.36 2221.13,1052.67 2222.25,1057.97 2223.38,1063.25 2224.51,1068.51 2225.63,1073.76 2226.76,1078.99 2227.88,1084.2 2229.01,1089.39 2230.13,1094.57 2231.26,1099.72 2232.38,1104.86 2233.51,1109.97 2234.63,1115.07 2235.76,1120.15 2236.88,1125.2 2238.01,1130.23 2239.13,1135.25 2240.26,1140.24 2241.38,1145.2 2242.51,1150.15 2243.63,1155.07 2244.76,1159.97 2245.88,1164.85 2247.01,1169.7 2248.13,1174.52 2249.26,1179.32 2250.38,1184.1 2251.51,1188.85 2252.63,1193.57 2253.76,1198.27 2254.88,1202.94 2256.01,1207.58 2257.13,1212.2 2258.26,1216.78 2259.38,1221.34 2260.51,1225.87 2261.63,1230.37 2262.76,1234.84 2263.88,1239.28 2265.01,1243.69 2266.13,1248.07 2267.26,1252.41 2268.38,1256.73 2269.51,1261.01 2270.63,1265.26 2271.76,1269.48 2272.88,1273.66 2274.01,1277.81 2275.13,1281.93 2276.26,1286.01 2277.38,1290.05 2278.51,1294.06 2279.63,1298.03 2280.76,1301.97 2281.88,1305.87 2283.01,1309.73 2284.13,1313.56 2285.26,1317.35 2286.38,1321.09 2287.51,1324.8 2288.63,1328.47 2289.76,1332.1 2290.88,1335.69 2292.01,1339.24 2293.13,1342.75 2294.26,1346.22 2295.38,1349.64 2296.51,1353.03 2297.63,1356.37 2298.76,1359.66 2299.88,1362.92 2301.01,1366.13 2302.13,1369.29 2303.26,1372.41 2304.38,1375.49 2305.51,1378.52 2306.63,1381.5 2307.76,1384.44 2308.88,1387.33 2310.01,1390.17 2311.13,1392.97 2312.26,1395.72 2313.38,1398.41 2314.51,1401.07 2315.63,1403.67 2316.76,1406.22 2317.88,1408.72 2319.01,1411.17 2320.13,1413.57 2321.26,1415.92 2322.38,1418.22 2323.51,1420.46 2324.63,1422.66 2325.76,1424.8 2326.88,1426.89 2328.01,1428.92 2329.13,1430.9 2330.26,1432.83 2331.38,1434.7 2332.51,1436.52 2333.63,1438.28 2334.76,1439.99 2335.88,1441.64 2337.01,1443.24 2338.13,1444.77 2339.26,1446.26 2340.38,1447.68 2341.51,1449.05 2342.63,1450.36 2343.76,1451.61 2344.88,1452.8 2346.01,1453.94 2347.13,1455.01 2348.26,1456.03 2349.38,1456.98 2350.51,1457.88 2351.63,1458.71 2352.76,1459.49 "/>
<path clip-path="url(#clip170)" d="M1871.62 251.365 L2277.76 251.365 L2277.76 95.8446 L1871.62 95.8446  Z" fill="#ffffff" fill-rule="evenodd" fill-opacity="1"/>
<polyline clip-path="url(#clip170)" style="stroke:#000000; stroke-linecap:round; stroke-linejoin:round; stroke-width:4; stroke-opacity:1; fill:none" points="1871.62,251.365 2277.76,251.365 2277.76,95.8446 1871.62,95.8446 1871.62,251.365 "/>
<polyline clip-path="url(#clip170)" style="stroke:#009af9; stroke-linecap:round; stroke-linejoin:round; stroke-width:4; stroke-opacity:1; fill:none" points="1896.62,147.685 2046.62,147.685 "/>
<path clip-path="url(#clip170)" d="M2090.53 151.701 Q2090.53 147.071 2088.61 144.525 Q2086.71 141.979 2083.27 141.979 Q2079.84 141.979 2077.92 144.525 Q2076.02 147.071 2076.02 151.701 Q2076.02 156.307 2077.92 158.854 Q2079.84 161.4 2083.27 161.4 Q2086.71 161.4 2088.61 158.854 Q2090.53 156.307 2090.53 151.701 M2094.79 161.747 Q2094.79 168.367 2091.85 171.585 Q2088.91 174.826 2082.85 174.826 Q2080.6 174.826 2078.61 174.478 Q2076.62 174.154 2074.75 173.46 L2074.75 169.316 Q2076.62 170.335 2078.45 170.821 Q2080.28 171.307 2082.18 171.307 Q2086.37 171.307 2088.45 169.108 Q2090.53 166.932 2090.53 162.511 L2090.53 160.404 Q2089.21 162.696 2087.15 163.83 Q2085.09 164.965 2082.22 164.965 Q2077.46 164.965 2074.54 161.33 Q2071.62 157.696 2071.62 151.701 Q2071.62 145.682 2074.54 142.048 Q2077.46 138.414 2082.22 138.414 Q2085.09 138.414 2087.15 139.548 Q2089.21 140.682 2090.53 142.974 L2090.53 139.039 L2094.79 139.039 L2094.79 161.747 Z" fill="#000000" fill-rule="nonzero" fill-opacity="1" /><path clip-path="url(#clip170)" d="M2103.13 154.733 L2103.13 139.039 L2107.39 139.039 L2107.39 154.571 Q2107.39 158.252 2108.82 160.104 Q2110.26 161.932 2113.13 161.932 Q2116.58 161.932 2118.57 159.733 Q2120.58 157.534 2120.58 153.738 L2120.58 139.039 L2124.84 139.039 L2124.84 164.965 L2120.58 164.965 L2120.58 160.983 Q2119.03 163.344 2116.97 164.502 Q2114.93 165.636 2112.22 165.636 Q2107.76 165.636 2105.44 162.858 Q2103.13 160.08 2103.13 154.733 M2113.84 138.414 L2113.84 138.414 Z" fill="#000000" fill-rule="nonzero" fill-opacity="1" /><path clip-path="url(#clip170)" d="M2155.79 150.937 L2155.79 153.02 L2136.2 153.02 Q2136.48 157.418 2138.84 159.733 Q2141.23 162.025 2145.46 162.025 Q2147.92 162.025 2150.21 161.423 Q2152.52 160.821 2154.79 159.617 L2154.79 163.645 Q2152.5 164.617 2150.09 165.127 Q2147.69 165.636 2145.21 165.636 Q2139.01 165.636 2135.37 162.025 Q2131.76 158.414 2131.76 152.256 Q2131.76 145.891 2135.19 142.164 Q2138.64 138.414 2144.47 138.414 Q2149.7 138.414 2152.73 141.793 Q2155.79 145.15 2155.79 150.937 M2151.53 149.687 Q2151.48 146.192 2149.56 144.108 Q2147.66 142.025 2144.52 142.025 Q2140.95 142.025 2138.8 144.039 Q2136.67 146.053 2136.34 149.71 L2151.53 149.687 Z" fill="#000000" fill-rule="nonzero" fill-opacity="1" /><path clip-path="url(#clip170)" d="M2179.31 139.803 L2179.31 143.83 Q2177.5 142.905 2175.56 142.442 Q2173.61 141.979 2171.53 141.979 Q2168.36 141.979 2166.76 142.951 Q2165.19 143.923 2165.19 145.867 Q2165.19 147.349 2166.32 148.205 Q2167.45 149.039 2170.88 149.803 L2172.34 150.127 Q2176.88 151.099 2178.77 152.881 Q2180.7 154.641 2180.7 157.812 Q2180.7 161.423 2177.83 163.529 Q2174.98 165.636 2169.98 165.636 Q2167.89 165.636 2165.63 165.219 Q2163.38 164.826 2160.88 164.016 L2160.88 159.617 Q2163.24 160.844 2165.53 161.469 Q2167.83 162.071 2170.07 162.071 Q2173.08 162.071 2174.7 161.053 Q2176.32 160.011 2176.32 158.136 Q2176.32 156.4 2175.14 155.474 Q2173.98 154.548 2170.02 153.692 L2168.54 153.344 Q2164.58 152.511 2162.83 150.798 Q2161.07 149.062 2161.07 146.053 Q2161.07 142.395 2163.66 140.405 Q2166.25 138.414 2171.02 138.414 Q2173.38 138.414 2175.46 138.761 Q2177.55 139.108 2179.31 139.803 Z" fill="#000000" fill-rule="nonzero" fill-opacity="1" /><path clip-path="url(#clip170)" d="M2204.01 139.803 L2204.01 143.83 Q2202.2 142.905 2200.26 142.442 Q2198.31 141.979 2196.23 141.979 Q2193.06 141.979 2191.46 142.951 Q2189.89 143.923 2189.89 145.867 Q2189.89 147.349 2191.02 148.205 Q2192.15 149.039 2195.58 149.803 L2197.04 150.127 Q2201.57 151.099 2203.47 152.881 Q2205.39 154.641 2205.39 157.812 Q2205.39 161.423 2202.52 163.529 Q2199.68 165.636 2194.68 165.636 Q2192.59 165.636 2190.32 165.219 Q2188.08 164.826 2185.58 164.016 L2185.58 159.617 Q2187.94 160.844 2190.23 161.469 Q2192.52 162.071 2194.77 162.071 Q2197.78 162.071 2199.4 161.053 Q2201.02 160.011 2201.02 158.136 Q2201.02 156.4 2199.84 155.474 Q2198.68 154.548 2194.72 153.692 L2193.24 153.344 Q2189.28 152.511 2187.52 150.798 Q2185.76 149.062 2185.76 146.053 Q2185.76 142.395 2188.36 140.405 Q2190.95 138.414 2195.72 138.414 Q2198.08 138.414 2200.16 138.761 Q2202.25 139.108 2204.01 139.803 Z" fill="#000000" fill-rule="nonzero" fill-opacity="1" /><polyline clip-path="url(#clip170)" style="stroke:#e26f46; stroke-linecap:round; stroke-linejoin:round; stroke-width:4; stroke-opacity:1; fill:none" points="1896.62,199.525 2046.62,199.525 "/>
<path clip-path="url(#clip170)" d="M2090.05 191.643 L2090.05 195.67 Q2088.24 194.745 2086.3 194.282 Q2084.35 193.819 2082.27 193.819 Q2079.1 193.819 2077.5 194.791 Q2075.93 195.763 2075.93 197.707 Q2075.93 199.189 2077.06 200.045 Q2078.2 200.879 2081.62 201.643 L2083.08 201.967 Q2087.62 202.939 2089.52 204.721 Q2091.44 206.481 2091.44 209.652 Q2091.44 213.263 2088.57 215.369 Q2085.72 217.476 2080.72 217.476 Q2078.64 217.476 2076.37 217.059 Q2074.12 216.666 2071.62 215.856 L2071.62 211.457 Q2073.98 212.684 2076.27 213.309 Q2078.57 213.911 2080.81 213.911 Q2083.82 213.911 2085.44 212.893 Q2087.06 211.851 2087.06 209.976 Q2087.06 208.24 2085.88 207.314 Q2084.72 206.388 2080.77 205.532 L2079.28 205.184 Q2075.33 204.351 2073.57 202.638 Q2071.81 200.902 2071.81 197.893 Q2071.81 194.235 2074.4 192.245 Q2076.99 190.254 2081.76 190.254 Q2084.12 190.254 2086.21 190.601 Q2088.29 190.948 2090.05 191.643 Z" fill="#000000" fill-rule="nonzero" fill-opacity="1" /><path clip-path="url(#clip170)" d="M2108.27 193.865 Q2104.84 193.865 2102.85 196.55 Q2100.86 199.212 2100.86 203.865 Q2100.86 208.518 2102.83 211.203 Q2104.82 213.865 2108.27 213.865 Q2111.67 213.865 2113.66 211.18 Q2115.65 208.494 2115.65 203.865 Q2115.65 199.258 2113.66 196.573 Q2111.67 193.865 2108.27 193.865 M2108.27 190.254 Q2113.82 190.254 2116.99 193.865 Q2120.16 197.476 2120.16 203.865 Q2120.16 210.231 2116.99 213.865 Q2113.82 217.476 2108.27 217.476 Q2102.69 217.476 2099.52 213.865 Q2096.37 210.231 2096.37 203.865 Q2096.37 197.476 2099.52 193.865 Q2102.69 190.254 2108.27 190.254 Z" fill="#000000" fill-rule="nonzero" fill-opacity="1" /><path clip-path="url(#clip170)" d="M2127.22 180.786 L2131.48 180.786 L2131.48 216.805 L2127.22 216.805 L2127.22 180.786 Z" fill="#000000" fill-rule="nonzero" fill-opacity="1" /><path clip-path="url(#clip170)" d="M2139.95 206.573 L2139.95 190.879 L2144.21 190.879 L2144.21 206.411 Q2144.21 210.092 2145.65 211.944 Q2147.08 213.772 2149.95 213.772 Q2153.4 213.772 2155.39 211.573 Q2157.41 209.374 2157.41 205.578 L2157.41 190.879 L2161.67 190.879 L2161.67 216.805 L2157.41 216.805 L2157.41 212.823 Q2155.86 215.184 2153.8 216.342 Q2151.76 217.476 2149.05 217.476 Q2144.58 217.476 2142.27 214.698 Q2139.95 211.92 2139.95 206.573 M2150.67 190.254 L2150.67 190.254 Z" fill="#000000" fill-rule="nonzero" fill-opacity="1" /><path clip-path="url(#clip170)" d="M2174.65 183.518 L2174.65 190.879 L2183.43 190.879 L2183.43 194.189 L2174.65 194.189 L2174.65 208.263 Q2174.65 211.434 2175.51 212.337 Q2176.39 213.24 2179.05 213.24 L2183.43 213.24 L2183.43 216.805 L2179.05 216.805 Q2174.12 216.805 2172.25 214.976 Q2170.37 213.124 2170.37 208.263 L2170.37 194.189 L2167.25 194.189 L2167.25 190.879 L2170.37 190.879 L2170.37 183.518 L2174.65 183.518 Z" fill="#000000" fill-rule="nonzero" fill-opacity="1" /><path clip-path="url(#clip170)" d="M2189.03 190.879 L2193.29 190.879 L2193.29 216.805 L2189.03 216.805 L2189.03 190.879 M2189.03 180.786 L2193.29 180.786 L2193.29 186.18 L2189.03 186.18 L2189.03 180.786 Z" fill="#000000" fill-rule="nonzero" fill-opacity="1" /><path clip-path="url(#clip170)" d="M2212.25 193.865 Q2208.82 193.865 2206.83 196.55 Q2204.84 199.212 2204.84 203.865 Q2204.84 208.518 2206.81 211.203 Q2208.8 213.865 2212.25 213.865 Q2215.65 213.865 2217.64 211.18 Q2219.63 208.494 2219.63 203.865 Q2219.63 199.258 2217.64 196.573 Q2215.65 193.865 2212.25 193.865 M2212.25 190.254 Q2217.8 190.254 2220.97 193.865 Q2224.14 197.476 2224.14 203.865 Q2224.14 210.231 2220.97 213.865 Q2217.8 217.476 2212.25 217.476 Q2206.67 217.476 2203.5 213.865 Q2200.35 210.231 2200.35 203.865 Q2200.35 197.476 2203.5 193.865 Q2206.67 190.254 2212.25 190.254 Z" fill="#000000" fill-rule="nonzero" fill-opacity="1" /><path clip-path="url(#clip170)" d="M2252.76 201.157 L2252.76 216.805 L2248.5 216.805 L2248.5 201.295 Q2248.5 197.615 2247.06 195.786 Q2245.63 193.958 2242.76 193.958 Q2239.31 193.958 2237.32 196.157 Q2235.32 198.356 2235.32 202.152 L2235.32 216.805 L2231.04 216.805 L2231.04 190.879 L2235.32 190.879 L2235.32 194.907 Q2236.85 192.569 2238.91 191.411 Q2241 190.254 2243.7 190.254 Q2248.17 190.254 2250.46 193.032 Q2252.76 195.786 2252.76 201.157 Z" fill="#000000" fill-rule="nonzero" fill-opacity="1" /></svg>
