<?xml version="1.0" encoding="utf-8"?>
<svg xmlns="http://www.w3.org/2000/svg" xmlns:xlink="http://www.w3.org/1999/xlink" width="600" height="400" viewBox="0 0 2400 1600">
<defs>
  <clipPath id="clip960">
    <rect x="0" y="0" width="2400" height="1600"/>
  </clipPath>
</defs>
<path clip-path="url(#clip960)" d="M0 1600 L2400 1600 L2400 0 L0 0  Z" fill="#ffffff" fill-rule="evenodd" fill-opacity="1"/>
<defs>
  <clipPath id="clip961">
    <rect x="480" y="0" width="1681" height="1600"/>
  </clipPath>
</defs>
<path clip-path="url(#clip960)" d="M246.598 1486.45 L2352.76 1486.45 L2352.76 47.2441 L246.598 47.2441  Z" fill="#ffffff" fill-rule="evenodd" fill-opacity="1"/>
<defs>
  <clipPath id="clip962">
    <rect x="246" y="47" width="2107" height="1440"/>
  </clipPath>
</defs>
<polyline clip-path="url(#clip962)" style="stroke:#000000; stroke-linecap:round; stroke-linejoin:round; stroke-width:2; stroke-opacity:0.1; fill:none" points="306.206,1486.45 306.206,47.2441 "/>
<polyline clip-path="url(#clip962)" style="stroke:#000000; stroke-linecap:round; stroke-linejoin:round; stroke-width:2; stroke-opacity:0.1; fill:none" points="802.941,1486.45 802.941,47.2441 "/>
<polyline clip-path="url(#clip962)" style="stroke:#000000; stroke-linecap:round; stroke-linejoin:round; stroke-width:2; stroke-opacity:0.1; fill:none" points="1299.68,1486.45 1299.68,47.2441 "/>
<polyline clip-path="url(#clip962)" style="stroke:#000000; stroke-linecap:round; stroke-linejoin:round; stroke-width:2; stroke-opacity:0.1; fill:none" points="1796.41,1486.45 1796.41,47.2441 "/>
<polyline clip-path="url(#clip962)" style="stroke:#000000; stroke-linecap:round; stroke-linejoin:round; stroke-width:2; stroke-opacity:0.1; fill:none" points="2293.15,1486.45 2293.15,47.2441 "/>
<polyline clip-path="url(#clip960)" style="stroke:#000000; stroke-linecap:round; stroke-linejoin:round; stroke-width:4; stroke-opacity:1; fill:none" points="246.598,1486.45 2352.76,1486.45 "/>
<polyline clip-path="url(#clip960)" style="stroke:#000000; stroke-linecap:round; stroke-linejoin:round; stroke-width:4; stroke-opacity:1; fill:none" points="306.206,1486.45 306.206,1467.55 "/>
<polyline clip-path="url(#clip960)" style="stroke:#000000; stroke-linecap:round; stroke-linejoin:round; stroke-width:4; stroke-opacity:1; fill:none" points="802.941,1486.45 802.941,1467.55 "/>
<polyline clip-path="url(#clip960)" style="stroke:#000000; stroke-linecap:round; stroke-linejoin:round; stroke-width:4; stroke-opacity:1; fill:none" points="1299.68,1486.45 1299.68,1467.55 "/>
<polyline clip-path="url(#clip960)" style="stroke:#000000; stroke-linecap:round; stroke-linejoin:round; stroke-width:4; stroke-opacity:1; fill:none" points="1796.41,1486.45 1796.41,1467.55 "/>
<polyline clip-path="url(#clip960)" style="stroke:#000000; stroke-linecap:round; stroke-linejoin:round; stroke-width:4; stroke-opacity:1; fill:none" points="2293.15,1486.45 2293.15,1467.55 "/>
<path clip-path="url(#clip960)" d="M306.206 1517.37 Q302.595 1517.37 300.766 1520.93 Q298.961 1524.47 298.961 1531.6 Q298.961 1538.71 300.766 1542.27 Q302.595 1545.82 306.206 1545.82 Q309.84 1545.82 311.646 1542.27 Q313.474 1538.71 313.474 1531.6 Q313.474 1524.47 311.646 1520.93 Q309.84 1517.37 306.206 1517.37 M306.206 1513.66 Q312.016 1513.66 315.072 1518.27 Q318.15 1522.85 318.15 1531.6 Q318.15 1540.33 315.072 1544.94 Q312.016 1549.52 306.206 1549.52 Q300.396 1549.52 297.317 1544.94 Q294.262 1540.33 294.262 1531.6 Q294.262 1522.85 297.317 1518.27 Q300.396 1513.66 306.206 1513.66 Z" fill="#000000" fill-rule="nonzero" fill-opacity="1" /><path clip-path="url(#clip960)" d="M782.212 1544.91 L798.532 1544.91 L798.532 1548.85 L776.587 1548.85 L776.587 1544.91 Q779.249 1542.16 783.833 1537.53 Q788.439 1532.88 789.62 1531.53 Q791.865 1529.01 792.745 1527.27 Q793.647 1525.51 793.647 1523.82 Q793.647 1521.07 791.703 1519.33 Q789.782 1517.6 786.68 1517.6 Q784.481 1517.6 782.027 1518.36 Q779.597 1519.13 776.819 1520.68 L776.819 1515.95 Q779.643 1514.82 782.097 1514.24 Q784.55 1513.66 786.587 1513.66 Q791.958 1513.66 795.152 1516.35 Q798.347 1519.03 798.347 1523.52 Q798.347 1525.65 797.536 1527.57 Q796.749 1529.47 794.643 1532.07 Q794.064 1532.74 790.962 1535.95 Q787.86 1539.15 782.212 1544.91 Z" fill="#000000" fill-rule="nonzero" fill-opacity="1" /><path clip-path="url(#clip960)" d="M808.393 1514.29 L826.749 1514.29 L826.749 1518.22 L812.675 1518.22 L812.675 1526.7 Q813.694 1526.35 814.712 1526.19 Q815.731 1526 816.749 1526 Q822.536 1526 825.916 1529.17 Q829.295 1532.34 829.295 1537.76 Q829.295 1543.34 825.823 1546.44 Q822.351 1549.52 816.032 1549.52 Q813.856 1549.52 811.587 1549.15 Q809.342 1548.78 806.934 1548.04 L806.934 1543.34 Q809.018 1544.47 811.24 1545.03 Q813.462 1545.58 815.939 1545.58 Q819.944 1545.58 822.282 1543.48 Q824.62 1541.37 824.62 1537.76 Q824.62 1534.15 822.282 1532.04 Q819.944 1529.94 815.939 1529.94 Q814.064 1529.94 812.189 1530.35 Q810.337 1530.77 808.393 1531.65 L808.393 1514.29 Z" fill="#000000" fill-rule="nonzero" fill-opacity="1" /><path clip-path="url(#clip960)" d="M1274.38 1514.29 L1292.73 1514.29 L1292.73 1518.22 L1278.66 1518.22 L1278.66 1526.7 Q1279.68 1526.35 1280.7 1526.19 Q1281.71 1526 1282.73 1526 Q1288.52 1526 1291.9 1529.17 Q1295.28 1532.34 1295.28 1537.76 Q1295.28 1543.34 1291.81 1546.44 Q1288.33 1549.52 1282.01 1549.52 Q1279.84 1549.52 1277.57 1549.15 Q1275.33 1548.78 1272.92 1548.04 L1272.92 1543.34 Q1275 1544.47 1277.22 1545.03 Q1279.45 1545.58 1281.92 1545.58 Q1285.93 1545.58 1288.26 1543.48 Q1290.6 1541.37 1290.6 1537.76 Q1290.6 1534.15 1288.26 1532.04 Q1285.93 1529.94 1281.92 1529.94 Q1280.05 1529.94 1278.17 1530.35 Q1276.32 1530.77 1274.38 1531.65 L1274.38 1514.29 Z" fill="#000000" fill-rule="nonzero" fill-opacity="1" /><path clip-path="url(#clip960)" d="M1314.49 1517.37 Q1310.88 1517.37 1309.05 1520.93 Q1307.25 1524.47 1307.25 1531.6 Q1307.25 1538.71 1309.05 1542.27 Q1310.88 1545.82 1314.49 1545.82 Q1318.13 1545.82 1319.93 1542.27 Q1321.76 1538.71 1321.76 1531.6 Q1321.76 1524.47 1319.93 1520.93 Q1318.13 1517.37 1314.49 1517.37 M1314.49 1513.66 Q1320.3 1513.66 1323.36 1518.27 Q1326.44 1522.85 1326.44 1531.6 Q1326.44 1540.33 1323.36 1544.94 Q1320.3 1549.52 1314.49 1549.52 Q1308.68 1549.52 1305.6 1544.94 Q1302.55 1540.33 1302.55 1531.6 Q1302.55 1522.85 1305.6 1518.27 Q1308.68 1513.66 1314.49 1513.66 Z" fill="#000000" fill-rule="nonzero" fill-opacity="1" /><path clip-path="url(#clip960)" d="M1770.27 1514.29 L1792.49 1514.29 L1792.49 1516.28 L1779.94 1548.85 L1775.06 1548.85 L1786.86 1518.22 L1770.27 1518.22 L1770.27 1514.29 Z" fill="#000000" fill-rule="nonzero" fill-opacity="1" /><path clip-path="url(#clip960)" d="M1801.66 1514.29 L1820.01 1514.29 L1820.01 1518.22 L1805.94 1518.22 L1805.94 1526.7 Q1806.96 1526.35 1807.97 1526.19 Q1808.99 1526 1810.01 1526 Q1815.8 1526 1819.18 1529.17 Q1822.56 1532.34 1822.56 1537.76 Q1822.56 1543.34 1819.09 1546.44 Q1815.61 1549.52 1809.29 1549.52 Q1807.12 1549.52 1804.85 1549.15 Q1802.6 1548.78 1800.2 1548.04 L1800.2 1543.34 Q1802.28 1544.47 1804.5 1545.03 Q1806.72 1545.58 1809.2 1545.58 Q1813.21 1545.58 1815.54 1543.48 Q1817.88 1541.37 1817.88 1537.76 Q1817.88 1534.15 1815.54 1532.04 Q1813.21 1529.94 1809.2 1529.94 Q1807.33 1529.94 1805.45 1530.35 Q1803.6 1530.77 1801.66 1531.65 L1801.66 1514.29 Z" fill="#000000" fill-rule="nonzero" fill-opacity="1" /><path clip-path="url(#clip960)" d="M2252.75 1544.91 L2260.39 1544.91 L2260.39 1518.55 L2252.08 1520.21 L2252.08 1515.95 L2260.35 1514.29 L2265.02 1514.29 L2265.02 1544.91 L2272.66 1544.91 L2272.66 1548.85 L2252.75 1548.85 L2252.75 1544.91 Z" fill="#000000" fill-rule="nonzero" fill-opacity="1" /><path clip-path="url(#clip960)" d="M2292.11 1517.37 Q2288.49 1517.37 2286.67 1520.93 Q2284.86 1524.47 2284.86 1531.6 Q2284.86 1538.71 2286.67 1542.27 Q2288.49 1545.82 2292.11 1545.82 Q2295.74 1545.82 2297.55 1542.27 Q2299.37 1538.71 2299.37 1531.6 Q2299.37 1524.47 2297.55 1520.93 Q2295.74 1517.37 2292.11 1517.37 M2292.11 1513.66 Q2297.92 1513.66 2300.97 1518.27 Q2304.05 1522.85 2304.05 1531.6 Q2304.05 1540.33 2300.97 1544.94 Q2297.92 1549.52 2292.11 1549.52 Q2286.3 1549.52 2283.22 1544.94 Q2280.16 1540.33 2280.16 1531.6 Q2280.16 1522.85 2283.22 1518.27 Q2286.3 1513.66 2292.11 1513.66 Z" fill="#000000" fill-rule="nonzero" fill-opacity="1" /><path clip-path="url(#clip960)" d="M2322.27 1517.37 Q2318.66 1517.37 2316.83 1520.93 Q2315.02 1524.47 2315.02 1531.6 Q2315.02 1538.71 2316.83 1542.27 Q2318.66 1545.82 2322.27 1545.82 Q2325.9 1545.82 2327.71 1542.27 Q2329.54 1538.71 2329.54 1531.6 Q2329.54 1524.47 2327.71 1520.93 Q2325.9 1517.37 2322.27 1517.37 M2322.27 1513.66 Q2328.08 1513.66 2331.13 1518.27 Q2334.21 1522.85 2334.21 1531.6 Q2334.21 1540.33 2331.13 1544.94 Q2328.08 1549.52 2322.27 1549.52 Q2316.46 1549.52 2313.38 1544.94 Q2310.32 1540.33 2310.32 1531.6 Q2310.32 1522.85 2313.38 1518.27 Q2316.46 1513.66 2322.27 1513.66 Z" fill="#000000" fill-rule="nonzero" fill-opacity="1" /><polyline clip-path="url(#clip962)" style="stroke:#000000; stroke-linecap:round; stroke-linejoin:round; stroke-width:2; stroke-opacity:0.1; fill:none" points="246.598,1341.14 2352.76,1341.14 "/>
<polyline clip-path="url(#clip962)" style="stroke:#000000; stroke-linecap:round; stroke-linejoin:round; stroke-width:2; stroke-opacity:0.1; fill:none" points="246.598,1069.73 2352.76,1069.73 "/>
<polyline clip-path="url(#clip962)" style="stroke:#000000; stroke-linecap:round; stroke-linejoin:round; stroke-width:2; stroke-opacity:0.1; fill:none" points="246.598,798.325 2352.76,798.325 "/>
<polyline clip-path="url(#clip962)" style="stroke:#000000; stroke-linecap:round; stroke-linejoin:round; stroke-width:2; stroke-opacity:0.1; fill:none" points="246.598,526.917 2352.76,526.917 "/>
<polyline clip-path="url(#clip962)" style="stroke:#000000; stroke-linecap:round; stroke-linejoin:round; stroke-width:2; stroke-opacity:0.1; fill:none" points="246.598,255.509 2352.76,255.509 "/>
<polyline clip-path="url(#clip960)" style="stroke:#000000; stroke-linecap:round; stroke-linejoin:round; stroke-width:4; stroke-opacity:1; fill:none" points="246.598,1486.45 246.598,47.2441 "/>
<polyline clip-path="url(#clip960)" style="stroke:#000000; stroke-linecap:round; stroke-linejoin:round; stroke-width:4; stroke-opacity:1; fill:none" points="246.598,1341.14 265.495,1341.14 "/>
<polyline clip-path="url(#clip960)" style="stroke:#000000; stroke-linecap:round; stroke-linejoin:round; stroke-width:4; stroke-opacity:1; fill:none" points="246.598,1069.73 265.495,1069.73 "/>
<polyline clip-path="url(#clip960)" style="stroke:#000000; stroke-linecap:round; stroke-linejoin:round; stroke-width:4; stroke-opacity:1; fill:none" points="246.598,798.325 265.495,798.325 "/>
<polyline clip-path="url(#clip960)" style="stroke:#000000; stroke-linecap:round; stroke-linejoin:round; stroke-width:4; stroke-opacity:1; fill:none" points="246.598,526.917 265.495,526.917 "/>
<polyline clip-path="url(#clip960)" style="stroke:#000000; stroke-linecap:round; stroke-linejoin:round; stroke-width:4; stroke-opacity:1; fill:none" points="246.598,255.509 265.495,255.509 "/>
<path clip-path="url(#clip960)" d="M62.9365 1326.94 Q59.3254 1326.94 57.4967 1330.5 Q55.6912 1334.05 55.6912 1341.18 Q55.6912 1348.28 57.4967 1351.85 Q59.3254 1355.39 62.9365 1355.39 Q66.5707 1355.39 68.3763 1351.85 Q70.205 1348.28 70.205 1341.18 Q70.205 1334.05 68.3763 1330.5 Q66.5707 1326.94 62.9365 1326.94 M62.9365 1323.24 Q68.7467 1323.24 71.8022 1327.84 Q74.8809 1332.43 74.8809 1341.18 Q74.8809 1349.9 71.8022 1354.51 Q68.7467 1359.09 62.9365 1359.09 Q57.1264 1359.09 54.0477 1354.51 Q50.9921 1349.9 50.9921 1341.18 Q50.9921 1332.43 54.0477 1327.84 Q57.1264 1323.24 62.9365 1323.24 Z" fill="#000000" fill-rule="nonzero" fill-opacity="1" /><path clip-path="url(#clip960)" d="M83.0984 1352.54 L87.9827 1352.54 L87.9827 1358.42 L83.0984 1358.42 L83.0984 1352.54 Z" fill="#000000" fill-rule="nonzero" fill-opacity="1" /><path clip-path="url(#clip960)" d="M108.168 1326.94 Q104.557 1326.94 102.728 1330.5 Q100.922 1334.05 100.922 1341.18 Q100.922 1348.28 102.728 1351.85 Q104.557 1355.39 108.168 1355.39 Q111.802 1355.39 113.608 1351.85 Q115.436 1348.28 115.436 1341.18 Q115.436 1334.05 113.608 1330.5 Q111.802 1326.94 108.168 1326.94 M108.168 1323.24 Q113.978 1323.24 117.033 1327.84 Q120.112 1332.43 120.112 1341.18 Q120.112 1349.9 117.033 1354.51 Q113.978 1359.09 108.168 1359.09 Q102.358 1359.09 99.2789 1354.51 Q96.2234 1349.9 96.2234 1341.18 Q96.2234 1332.43 99.2789 1327.84 Q102.358 1323.24 108.168 1323.24 Z" fill="#000000" fill-rule="nonzero" fill-opacity="1" /><path clip-path="url(#clip960)" d="M138.33 1326.94 Q134.719 1326.94 132.89 1330.5 Q131.084 1334.05 131.084 1341.18 Q131.084 1348.28 132.89 1351.85 Q134.719 1355.39 138.33 1355.39 Q141.964 1355.39 143.769 1351.85 Q145.598 1348.28 145.598 1341.18 Q145.598 1334.05 143.769 1330.5 Q141.964 1326.94 138.33 1326.94 M138.33 1323.24 Q144.14 1323.24 147.195 1327.84 Q150.274 1332.43 150.274 1341.18 Q150.274 1349.9 147.195 1354.51 Q144.14 1359.09 138.33 1359.09 Q132.519 1359.09 129.441 1354.51 Q126.385 1349.9 126.385 1341.18 Q126.385 1332.43 129.441 1327.84 Q132.519 1323.24 138.33 1323.24 Z" fill="#000000" fill-rule="nonzero" fill-opacity="1" /><path clip-path="url(#clip960)" d="M168.491 1326.94 Q164.88 1326.94 163.052 1330.5 Q161.246 1334.05 161.246 1341.18 Q161.246 1348.28 163.052 1351.85 Q164.88 1355.39 168.491 1355.39 Q172.126 1355.39 173.931 1351.85 Q175.76 1348.28 175.76 1341.18 Q175.76 1334.05 173.931 1330.5 Q172.126 1326.94 168.491 1326.94 M168.491 1323.24 Q174.302 1323.24 177.357 1327.84 Q180.436 1332.43 180.436 1341.18 Q180.436 1349.9 177.357 1354.51 Q174.302 1359.09 168.491 1359.09 Q162.681 1359.09 159.603 1354.51 Q156.547 1349.9 156.547 1341.18 Q156.547 1332.43 159.603 1327.84 Q162.681 1323.24 168.491 1323.24 Z" fill="#000000" fill-rule="nonzero" fill-opacity="1" /><path clip-path="url(#clip960)" d="M198.653 1326.94 Q195.042 1326.94 193.214 1330.5 Q191.408 1334.05 191.408 1341.18 Q191.408 1348.28 193.214 1351.85 Q195.042 1355.39 198.653 1355.39 Q202.288 1355.39 204.093 1351.85 Q205.922 1348.28 205.922 1341.18 Q205.922 1334.05 204.093 1330.5 Q202.288 1326.94 198.653 1326.94 M198.653 1323.24 Q204.464 1323.24 207.519 1327.84 Q210.598 1332.43 210.598 1341.18 Q210.598 1349.9 207.519 1354.51 Q204.464 1359.09 198.653 1359.09 Q192.843 1359.09 189.765 1354.51 Q186.709 1349.9 186.709 1341.18 Q186.709 1332.43 189.765 1327.84 Q192.843 1323.24 198.653 1323.24 Z" fill="#000000" fill-rule="nonzero" fill-opacity="1" /><path clip-path="url(#clip960)" d="M63.9319 1055.53 Q60.3208 1055.53 58.4921 1059.1 Q56.6865 1062.64 56.6865 1069.77 Q56.6865 1076.87 58.4921 1080.44 Q60.3208 1083.98 63.9319 1083.98 Q67.5661 1083.98 69.3717 1080.44 Q71.2004 1076.87 71.2004 1069.77 Q71.2004 1062.64 69.3717 1059.1 Q67.5661 1055.53 63.9319 1055.53 M63.9319 1051.83 Q69.742 1051.83 72.7976 1056.43 Q75.8763 1061.02 75.8763 1069.77 Q75.8763 1078.49 72.7976 1083.1 Q69.742 1087.68 63.9319 1087.68 Q58.1217 1087.68 55.043 1083.1 Q51.9875 1078.49 51.9875 1069.77 Q51.9875 1061.02 55.043 1056.43 Q58.1217 1051.83 63.9319 1051.83 Z" fill="#000000" fill-rule="nonzero" fill-opacity="1" /><path clip-path="url(#clip960)" d="M84.0938 1081.13 L88.978 1081.13 L88.978 1087.01 L84.0938 1087.01 L84.0938 1081.13 Z" fill="#000000" fill-rule="nonzero" fill-opacity="1" /><path clip-path="url(#clip960)" d="M109.163 1055.53 Q105.552 1055.53 103.723 1059.1 Q101.918 1062.64 101.918 1069.77 Q101.918 1076.87 103.723 1080.44 Q105.552 1083.98 109.163 1083.98 Q112.797 1083.98 114.603 1080.44 Q116.432 1076.87 116.432 1069.77 Q116.432 1062.64 114.603 1059.1 Q112.797 1055.53 109.163 1055.53 M109.163 1051.83 Q114.973 1051.83 118.029 1056.43 Q121.107 1061.02 121.107 1069.77 Q121.107 1078.49 118.029 1083.1 Q114.973 1087.68 109.163 1087.68 Q103.353 1087.68 100.274 1083.1 Q97.2187 1078.49 97.2187 1069.77 Q97.2187 1061.02 100.274 1056.43 Q103.353 1051.83 109.163 1051.83 Z" fill="#000000" fill-rule="nonzero" fill-opacity="1" /><path clip-path="url(#clip960)" d="M139.325 1055.53 Q135.714 1055.53 133.885 1059.1 Q132.08 1062.64 132.08 1069.77 Q132.08 1076.87 133.885 1080.44 Q135.714 1083.98 139.325 1083.98 Q142.959 1083.98 144.765 1080.44 Q146.593 1076.87 146.593 1069.77 Q146.593 1062.64 144.765 1059.1 Q142.959 1055.53 139.325 1055.53 M139.325 1051.83 Q145.135 1051.83 148.191 1056.43 Q151.269 1061.02 151.269 1069.77 Q151.269 1078.49 148.191 1083.1 Q145.135 1087.68 139.325 1087.68 Q133.515 1087.68 130.436 1083.1 Q127.381 1078.49 127.381 1069.77 Q127.381 1061.02 130.436 1056.43 Q133.515 1051.83 139.325 1051.83 Z" fill="#000000" fill-rule="nonzero" fill-opacity="1" /><path clip-path="url(#clip960)" d="M163.515 1083.08 L179.834 1083.08 L179.834 1087.01 L157.89 1087.01 L157.89 1083.08 Q160.552 1080.32 165.135 1075.69 Q169.741 1071.04 170.922 1069.7 Q173.167 1067.18 174.047 1065.44 Q174.95 1063.68 174.95 1061.99 Q174.95 1059.24 173.005 1057.5 Q171.084 1055.76 167.982 1055.76 Q165.783 1055.76 163.329 1056.53 Q160.899 1057.29 158.121 1058.84 L158.121 1054.12 Q160.945 1052.99 163.399 1052.41 Q165.853 1051.83 167.89 1051.83 Q173.26 1051.83 176.454 1054.51 Q179.649 1057.2 179.649 1061.69 Q179.649 1063.82 178.839 1065.74 Q178.052 1067.64 175.945 1070.23 Q175.366 1070.9 172.265 1074.12 Q169.163 1077.31 163.515 1083.08 Z" fill="#000000" fill-rule="nonzero" fill-opacity="1" /><path clip-path="url(#clip960)" d="M189.695 1052.45 L208.051 1052.45 L208.051 1056.39 L193.977 1056.39 L193.977 1064.86 Q194.996 1064.51 196.014 1064.35 Q197.033 1064.17 198.052 1064.17 Q203.839 1064.17 207.218 1067.34 Q210.598 1070.51 210.598 1075.93 Q210.598 1081.5 207.126 1084.61 Q203.653 1087.68 197.334 1087.68 Q195.158 1087.68 192.89 1087.31 Q190.644 1086.94 188.237 1086.2 L188.237 1081.5 Q190.32 1082.64 192.542 1083.19 Q194.765 1083.75 197.241 1083.75 Q201.246 1083.75 203.584 1081.64 Q205.922 1079.54 205.922 1075.93 Q205.922 1072.31 203.584 1070.21 Q201.246 1068.1 197.241 1068.1 Q195.366 1068.1 193.491 1068.52 Q191.64 1068.93 189.695 1069.81 L189.695 1052.45 Z" fill="#000000" fill-rule="nonzero" fill-opacity="1" /><path clip-path="url(#clip960)" d="M62.9365 784.124 Q59.3254 784.124 57.4967 787.689 Q55.6912 791.23 55.6912 798.36 Q55.6912 805.466 57.4967 809.031 Q59.3254 812.573 62.9365 812.573 Q66.5707 812.573 68.3763 809.031 Q70.205 805.466 70.205 798.36 Q70.205 791.23 68.3763 787.689 Q66.5707 784.124 62.9365 784.124 M62.9365 780.42 Q68.7467 780.42 71.8022 785.027 Q74.8809 789.61 74.8809 798.36 Q74.8809 807.087 71.8022 811.693 Q68.7467 816.276 62.9365 816.276 Q57.1264 816.276 54.0477 811.693 Q50.9921 807.087 50.9921 798.36 Q50.9921 789.61 54.0477 785.027 Q57.1264 780.42 62.9365 780.42 Z" fill="#000000" fill-rule="nonzero" fill-opacity="1" /><path clip-path="url(#clip960)" d="M83.0984 809.726 L87.9827 809.726 L87.9827 815.605 L83.0984 815.605 L83.0984 809.726 Z" fill="#000000" fill-rule="nonzero" fill-opacity="1" /><path clip-path="url(#clip960)" d="M108.168 784.124 Q104.557 784.124 102.728 787.689 Q100.922 791.23 100.922 798.36 Q100.922 805.466 102.728 809.031 Q104.557 812.573 108.168 812.573 Q111.802 812.573 113.608 809.031 Q115.436 805.466 115.436 798.36 Q115.436 791.23 113.608 787.689 Q111.802 784.124 108.168 784.124 M108.168 780.42 Q113.978 780.42 117.033 785.027 Q120.112 789.61 120.112 798.36 Q120.112 807.087 117.033 811.693 Q113.978 816.276 108.168 816.276 Q102.358 816.276 99.2789 811.693 Q96.2234 807.087 96.2234 798.36 Q96.2234 789.61 99.2789 785.027 Q102.358 780.42 108.168 780.42 Z" fill="#000000" fill-rule="nonzero" fill-opacity="1" /><path clip-path="url(#clip960)" d="M138.33 784.124 Q134.719 784.124 132.89 787.689 Q131.084 791.23 131.084 798.36 Q131.084 805.466 132.89 809.031 Q134.719 812.573 138.33 812.573 Q141.964 812.573 143.769 809.031 Q145.598 805.466 145.598 798.36 Q145.598 791.23 143.769 787.689 Q141.964 784.124 138.33 784.124 M138.33 780.42 Q144.14 780.42 147.195 785.027 Q150.274 789.61 150.274 798.36 Q150.274 807.087 147.195 811.693 Q144.14 816.276 138.33 816.276 Q132.519 816.276 129.441 811.693 Q126.385 807.087 126.385 798.36 Q126.385 789.61 129.441 785.027 Q132.519 780.42 138.33 780.42 Z" fill="#000000" fill-rule="nonzero" fill-opacity="1" /><path clip-path="url(#clip960)" d="M158.538 781.045 L176.894 781.045 L176.894 784.98 L162.82 784.98 L162.82 793.452 Q163.839 793.105 164.857 792.943 Q165.876 792.758 166.894 792.758 Q172.681 792.758 176.061 795.929 Q179.441 799.101 179.441 804.517 Q179.441 810.096 175.968 813.198 Q172.496 816.276 166.177 816.276 Q164.001 816.276 161.732 815.906 Q159.487 815.536 157.08 814.795 L157.08 810.096 Q159.163 811.23 161.385 811.786 Q163.607 812.341 166.084 812.341 Q170.089 812.341 172.427 810.235 Q174.765 808.128 174.765 804.517 Q174.765 800.906 172.427 798.8 Q170.089 796.693 166.084 796.693 Q164.209 796.693 162.334 797.11 Q160.482 797.527 158.538 798.406 L158.538 781.045 Z" fill="#000000" fill-rule="nonzero" fill-opacity="1" /><path clip-path="url(#clip960)" d="M198.653 784.124 Q195.042 784.124 193.214 787.689 Q191.408 791.23 191.408 798.36 Q191.408 805.466 193.214 809.031 Q195.042 812.573 198.653 812.573 Q202.288 812.573 204.093 809.031 Q205.922 805.466 205.922 798.36 Q205.922 791.23 204.093 787.689 Q202.288 784.124 198.653 784.124 M198.653 780.42 Q204.464 780.42 207.519 785.027 Q210.598 789.61 210.598 798.36 Q210.598 807.087 207.519 811.693 Q204.464 816.276 198.653 816.276 Q192.843 816.276 189.765 811.693 Q186.709 807.087 186.709 798.36 Q186.709 789.61 189.765 785.027 Q192.843 780.42 198.653 780.42 Z" fill="#000000" fill-rule="nonzero" fill-opacity="1" /><path clip-path="url(#clip960)" d="M63.9319 512.716 Q60.3208 512.716 58.4921 516.281 Q56.6865 519.822 56.6865 526.952 Q56.6865 534.058 58.4921 537.623 Q60.3208 541.165 63.9319 541.165 Q67.5661 541.165 69.3717 537.623 Q71.2004 534.058 71.2004 526.952 Q71.2004 519.822 69.3717 516.281 Q67.5661 512.716 63.9319 512.716 M63.9319 509.012 Q69.742 509.012 72.7976 513.619 Q75.8763 518.202 75.8763 526.952 Q75.8763 535.679 72.7976 540.285 Q69.742 544.868 63.9319 544.868 Q58.1217 544.868 55.043 540.285 Q51.9875 535.679 51.9875 526.952 Q51.9875 518.202 55.043 513.619 Q58.1217 509.012 63.9319 509.012 Z" fill="#000000" fill-rule="nonzero" fill-opacity="1" /><path clip-path="url(#clip960)" d="M84.0938 538.318 L88.978 538.318 L88.978 544.197 L84.0938 544.197 L84.0938 538.318 Z" fill="#000000" fill-rule="nonzero" fill-opacity="1" /><path clip-path="url(#clip960)" d="M109.163 512.716 Q105.552 512.716 103.723 516.281 Q101.918 519.822 101.918 526.952 Q101.918 534.058 103.723 537.623 Q105.552 541.165 109.163 541.165 Q112.797 541.165 114.603 537.623 Q116.432 534.058 116.432 526.952 Q116.432 519.822 114.603 516.281 Q112.797 512.716 109.163 512.716 M109.163 509.012 Q114.973 509.012 118.029 513.619 Q121.107 518.202 121.107 526.952 Q121.107 535.679 118.029 540.285 Q114.973 544.868 109.163 544.868 Q103.353 544.868 100.274 540.285 Q97.2187 535.679 97.2187 526.952 Q97.2187 518.202 100.274 513.619 Q103.353 509.012 109.163 509.012 Z" fill="#000000" fill-rule="nonzero" fill-opacity="1" /><path clip-path="url(#clip960)" d="M139.325 512.716 Q135.714 512.716 133.885 516.281 Q132.08 519.822 132.08 526.952 Q132.08 534.058 133.885 537.623 Q135.714 541.165 139.325 541.165 Q142.959 541.165 144.765 537.623 Q146.593 534.058 146.593 526.952 Q146.593 519.822 144.765 516.281 Q142.959 512.716 139.325 512.716 M139.325 509.012 Q145.135 509.012 148.191 513.619 Q151.269 518.202 151.269 526.952 Q151.269 535.679 148.191 540.285 Q145.135 544.868 139.325 544.868 Q133.515 544.868 130.436 540.285 Q127.381 535.679 127.381 526.952 Q127.381 518.202 130.436 513.619 Q133.515 509.012 139.325 509.012 Z" fill="#000000" fill-rule="nonzero" fill-opacity="1" /><path clip-path="url(#clip960)" d="M158.306 509.637 L180.528 509.637 L180.528 511.628 L167.982 544.197 L163.098 544.197 L174.903 513.572 L158.306 513.572 L158.306 509.637 Z" fill="#000000" fill-rule="nonzero" fill-opacity="1" /><path clip-path="url(#clip960)" d="M189.695 509.637 L208.051 509.637 L208.051 513.572 L193.977 513.572 L193.977 522.045 Q194.996 521.697 196.014 521.535 Q197.033 521.35 198.052 521.35 Q203.839 521.35 207.218 524.521 Q210.598 527.693 210.598 533.109 Q210.598 538.688 207.126 541.79 Q203.653 544.868 197.334 544.868 Q195.158 544.868 192.89 544.498 Q190.644 544.128 188.237 543.387 L188.237 538.688 Q190.32 539.822 192.542 540.378 Q194.765 540.933 197.241 540.933 Q201.246 540.933 203.584 538.827 Q205.922 536.72 205.922 533.109 Q205.922 529.498 203.584 527.392 Q201.246 525.285 197.241 525.285 Q195.366 525.285 193.491 525.702 Q191.64 526.119 189.695 526.998 L189.695 509.637 Z" fill="#000000" fill-rule="nonzero" fill-opacity="1" /><path clip-path="url(#clip960)" d="M62.9365 241.308 Q59.3254 241.308 57.4967 244.873 Q55.6912 248.414 55.6912 255.544 Q55.6912 262.65 57.4967 266.215 Q59.3254 269.757 62.9365 269.757 Q66.5707 269.757 68.3763 266.215 Q70.205 262.65 70.205 255.544 Q70.205 248.414 68.3763 244.873 Q66.5707 241.308 62.9365 241.308 M62.9365 237.604 Q68.7467 237.604 71.8022 242.211 Q74.8809 246.794 74.8809 255.544 Q74.8809 264.271 71.8022 268.877 Q68.7467 273.461 62.9365 273.461 Q57.1264 273.461 54.0477 268.877 Q50.9921 264.271 50.9921 255.544 Q50.9921 246.794 54.0477 242.211 Q57.1264 237.604 62.9365 237.604 Z" fill="#000000" fill-rule="nonzero" fill-opacity="1" /><path clip-path="url(#clip960)" d="M83.0984 266.91 L87.9827 266.91 L87.9827 272.789 L83.0984 272.789 L83.0984 266.91 Z" fill="#000000" fill-rule="nonzero" fill-opacity="1" /><path clip-path="url(#clip960)" d="M108.168 241.308 Q104.557 241.308 102.728 244.873 Q100.922 248.414 100.922 255.544 Q100.922 262.65 102.728 266.215 Q104.557 269.757 108.168 269.757 Q111.802 269.757 113.608 266.215 Q115.436 262.65 115.436 255.544 Q115.436 248.414 113.608 244.873 Q111.802 241.308 108.168 241.308 M108.168 237.604 Q113.978 237.604 117.033 242.211 Q120.112 246.794 120.112 255.544 Q120.112 264.271 117.033 268.877 Q113.978 273.461 108.168 273.461 Q102.358 273.461 99.2789 268.877 Q96.2234 264.271 96.2234 255.544 Q96.2234 246.794 99.2789 242.211 Q102.358 237.604 108.168 237.604 Z" fill="#000000" fill-rule="nonzero" fill-opacity="1" /><path clip-path="url(#clip960)" d="M129.14 268.854 L136.779 268.854 L136.779 242.488 L128.469 244.155 L128.469 239.896 L136.732 238.229 L141.408 238.229 L141.408 268.854 L149.047 268.854 L149.047 272.789 L129.14 272.789 L129.14 268.854 Z" fill="#000000" fill-rule="nonzero" fill-opacity="1" /><path clip-path="url(#clip960)" d="M168.491 241.308 Q164.88 241.308 163.052 244.873 Q161.246 248.414 161.246 255.544 Q161.246 262.65 163.052 266.215 Q164.88 269.757 168.491 269.757 Q172.126 269.757 173.931 266.215 Q175.76 262.65 175.76 255.544 Q175.76 248.414 173.931 244.873 Q172.126 241.308 168.491 241.308 M168.491 237.604 Q174.302 237.604 177.357 242.211 Q180.436 246.794 180.436 255.544 Q180.436 264.271 177.357 268.877 Q174.302 273.461 168.491 273.461 Q162.681 273.461 159.603 268.877 Q156.547 264.271 156.547 255.544 Q156.547 246.794 159.603 242.211 Q162.681 237.604 168.491 237.604 Z" fill="#000000" fill-rule="nonzero" fill-opacity="1" /><path clip-path="url(#clip960)" d="M198.653 241.308 Q195.042 241.308 193.214 244.873 Q191.408 248.414 191.408 255.544 Q191.408 262.65 193.214 266.215 Q195.042 269.757 198.653 269.757 Q202.288 269.757 204.093 266.215 Q205.922 262.65 205.922 255.544 Q205.922 248.414 204.093 244.873 Q202.288 241.308 198.653 241.308 M198.653 237.604 Q204.464 237.604 207.519 242.211 Q210.598 246.794 210.598 255.544 Q210.598 264.271 207.519 268.877 Q204.464 273.461 198.653 273.461 Q192.843 273.461 189.765 268.877 Q186.709 264.271 186.709 255.544 Q186.709 246.794 189.765 242.211 Q192.843 237.604 198.653 237.604 Z" fill="#000000" fill-rule="nonzero" fill-opacity="1" /><polyline clip-path="url(#clip962)" style="stroke:#009af9; stroke-linecap:round; stroke-linejoin:round; stroke-width:4; stroke-opacity:1; fill:none" points="306.206,1341.14 306.206,1341.14 306.206,1341.14 306.206,1341.14 306.206,1341.14 306.206,1341.14 306.206,1341.14 306.207,1341.14 306.208,1341.14 306.21,1341.14 306.213,1341.14 306.22,1341.14 306.235,1341.14 306.264,1341.14 306.321,1341.14 306.436,1341.14 306.666,1341.14 307.127,1341.14 308.048,1341.14 309.889,1341.06 313.572,1338.63 317.255,1331.45 320.938,1318.68 324.621,1300.59 328.304,1277.87 331.987,1263.61 337.199,1251.48 342.41,1250.39 347.621,1248.56 352.832,1258.34 358.043,1276.89 363.254,1314.13 368.466,1348.24 369.161,1348.55 370.551,1347.54 371.941,1346.6 374.72,1345.54 377.5,1347.44 380.28,1350.12 385.84,1371.14 390.635,1393.18 395.429,1415.62 400.224,1432.49 405.018,1442.85 409.813,1445.72 419.402,1388.23 425.723,1333.36 430.314,1321.8 431.038,1325.25 431.107,1325.25 431.176,1325.25 431.314,1325.28 431.59,1325.52 431.865,1325.9 432.417,1328.39 432.968,1332.03 433.519,1336.82 434.621,1343.66 435.724,1347.34 436.826,1349.31 437.929,1350.71 440.134,1350.32 442.339,1348.51 446.748,1327.69 450.717,1299.8 454.686,1260.08 458.655,1211.4 462.624,1156.8 466.593,1099 474.53,1037.14 482.468,1083.49 488.326,1133.56 492.799,1142.91 493.513,1139.66 493.579,1139.66 493.645,1139.65 493.778,1139.62 494.043,1139.39 494.309,1139.02 494.839,1136.7 495.37,1133.35 495.901,1128.96 496.963,1122.79 498.024,1119.49 499.086,1117.74 500.147,1116.49 502.27,1116.81 504.393,1118.35 508.639,1135.92 512.461,1159.33 516.282,1192.66 520.104,1233.61 523.925,1279.78 527.747,1329.03 535.39,1385.18 543.033,1350.36 550.676,1261.61 555.336,1243.7 555.505,1243.62 555.842,1243.49 556.092,1243.54 556.593,1244.46 557.044,1245.86 557.495,1248.11 557.946,1251.04 558.847,1255 559.899,1260.18 560.951,1265.41 562.002,1270.6 563.054,1275.72 565.157,1280.22 567.26,1278.16 569.364,1275.36 573.57,1251.91 577.356,1224.18 581.142,1187.69 584.928,1145 588.714,1098.44 592.5,1050.07 600.072,1002 607.644,1044.39 613.353,1088.34 617.766,1097.37 618.456,1094.64 619.838,1091.01 621.219,1090.16 622.6,1090.6 625.363,1094.98 627.849,1098.14 630.335,1099.85 632.821,1100.5 637.794,1105.71 642.766,1116.68 647.738,1129.25 652.711,1138.32 657.683,1141.5 662.656,1138.78 669.066,1121.76 675.476,1089.35 680.111,1073.93 680.813,1075.49 682.216,1077.94 683.62,1078.7 685.024,1078.47 687.831,1074.92 690.638,1071.79 693.445,1070.29 696.252,1069.6 701.867,1060.47 707.481,1041.19 713.096,1020.5 718.71,1007.98 724.325,1007.72 729.939,1019.31 735.553,1040.79 741.168,1058.25 746.782,1067.38 751.835,1070.11 756.888,1070.48 766.994,1053.63 776.09,998.861 785.185,905.798 793.371,834.386 800.738,816.018 806.501,836.361 807.668,842.121 810.002,848.726 814.141,849.648 818.281,839.549 822.421,828.047 826.561,819.103 830.7,812.762 834.84,808.148 838.98,806.472 843.119,807.713 851.399,841.743 858.611,891.849 864.321,902.106 870.03,885.608 875.74,869.288 881.45,863.165 887.16,868.99 892.869,866.35 898.579,855.479 904.289,825.01 909.998,796.642 915.708,757.606 921.418,735.768 927.128,741.789 932.837,753.531 938.547,753.037 944.257,740.663 949.966,731.22 955.676,735.149 961.386,755.598 967.095,784.449 972.805,817.134 978.515,846.548 984.225,876.044 989.934,900.1 995.644,909.652 1001.35,907.533 1007.06,901.355 1012.77,895.273 1018.48,886.549 1024.19,871.329 1029.9,847.189 1035.61,817.118 1041.32,784.274 1047.03,753.967 1052.74,726.959 1058.45,706.934 1064.16,699.462 1069.87,698.195 1075.58,705.951 1081.29,715.309 1087,735.881 1092.71,756.734 1098.42,790.661 1104.13,816.509 1109.84,819.43 1115.55,819.611 1121.26,828.873 1126.97,837.577 1132.68,845.752 1138.39,838.969 1144.1,828.897 1149.81,802.45 1155.52,782.261 1161.23,745.212 1166.94,725.14 1172.64,735.919 1178.35,752.075 1184.06,751.865 1189.77,742.981 1195.48,729.925 1201.19,733.596 1206.9,743.826 1212.61,773.025 1218.32,794.877 1224.03,832.742 1229.74,851.404 1235.45,838.278 1241.16,819.643 1246.87,818.348 1252.58,835.162 1258.29,852.358 1264,855.954 1269.71,840.704 1275.42,814.978 1281.13,783.943 1286.84,755.455 1292.55,725.524 1298.26,699.727 1303.97,688.444 1308.4,690.04 1312.84,693.432 1317.28,694.161 1321.71,693.339 1330.59,700.169 1337.32,690.034 1343.38,678.711 1349.44,675.127 1355.5,691.596 1361.56,732.612 1367.62,795.519 1368.21,796.595 1369.38,796.728 1371.72,794.815 1374.07,793.782 1376.41,794.457 1378.75,795.607 1383.44,804.86 1388.12,817.238 1392.81,828.793 1397.5,837.36 1402.18,842.302 1406.87,843.602 1411.55,841.319 1417.98,824.756 1424.4,790.078 1429.1,771.974 1429.81,773.421 1431.22,775.804 1432.62,776.591 1434.03,776.382 1436.84,772.796 1439.66,769.549 1442.47,767.95 1445.28,767.232 1450.91,758.044 1456.54,738.599 1462.17,717.673 1467.8,704.994 1473.42,704.738 1479.05,716.514 1484.68,738.323 1490.31,756.026 1495.94,765.258 1501,767.999 1506.07,768.34 1516.2,750.919 1525.31,694.785 1534.43,599.901 1542.64,527.446 1550.02,509.079 1555.73,530.244 1560.55,552.923 1565.36,563.212 1570.18,563.042 1574.99,559.653 1579.8,561.66 1584.62,568.757 1589.43,579.117 1594.25,588.5 1599.06,597.188 1603.88,604.754 1608.69,612.795 1613.5,620.018 1618.32,626.451 1623.13,630.431 1627.95,632.485 1632.76,631.895 1637.58,629.61 1647.2,590.936 1655.1,527.512 1662.99,462.685 1670.09,428.164 1677.2,430.573 1682.31,449.505 1687.42,460.419 1692.53,461.231 1697.65,457.429 1702.76,458.182 1707.87,465.025 1712.98,476.079 1718.09,487.504 1723.2,498.295 1728.32,508.395 1733.43,518.392 1738.54,527.651 1743.65,535.303 1748.76,540.345 1753.88,542.466 1758.99,541.628 1769.21,507.619 1777.87,438.252 1786.53,351.793 1794.32,297.677 1801.33,286.799 1806.71,302.387 1812.08,314.158 1817.46,315.5 1822.83,312 1828.21,312.965 1833.58,321.113 1838.96,333.821 1844.33,347.265 1849.7,359.874 1855.08,371.761 1860.45,383.112 1865.83,393.215 1871.2,400.888 1876.58,405.207 1881.95,405.859 1892.7,363.673 1901.54,279.379 1910.37,169.256 1918.32,102.9 1925.48,87.9763 1931.92,96.3867 1937.71,104.611 1943.51,105.957 1949.31,105.574 1957.57,122.699 1965.84,211.839 1974.1,374.128 1982.37,509.953 1988.44,519.86 1993.63,486.343 1998.81,462.243 2004,459.971 2009.19,469.177 2014.38,472.513 2021.6,453.518 2028.82,384.957 2036.05,297.217 2043.27,245.063 2049.78,247.033 2056.28,266.274 2062.78,272.224 2069.28,257.209 2075.78,245.467 2084.43,271.803 2093.08,393.566 2100.86,511.659 2108.64,566.087 2115.65,557.49 2116.84,552.373 2119.24,545.912 2121.63,545.231 2124.02,546.738 2128.8,562.012 2132.79,575.98 2136.77,589.296 2140.75,599.242 2144.74,606.945 2148.72,612.213 2156.69,624.433 2164.65,632.765 2172.62,595.228 2177.78,575.593 2178.57,579.378 2180.15,584.796 2181.73,586.289 2183.3,585.726 2186.46,578.691 2189.28,573.29 2192.09,570.063 2194.9,568.649 2200.53,558.78 2206.16,539.869 2211.79,519.994 2217.42,508.45 2223.05,509.279 2228.68,522.07 2234.3,544.785 2239.93,562.864 2245.56,571.902 2250.62,574.398 2255.68,574.479 2265.8,555.893 2274.9,497.814 2284.01,401.433 2292.21,329.122 2293.15,334.306 "/>
<polyline clip-path="url(#clip962)" style="stroke:#e26f46; stroke-linecap:round; stroke-linejoin:round; stroke-width:4; stroke-opacity:1; fill:none" points="306.206,1341.14 306.206,1341.14 306.206,1341.14 306.206,1341.14 306.206,1341.14 306.411,1341.16 307.068,1341.9 308.039,1344.93 309.135,1350.1 310.539,1353.6 312.253,1355.37 314.08,1355.31 316.081,1354.27 318.254,1352.52 322.507,1348.95 327.589,1339.62 332.761,1325.58 337.953,1311.96 343.008,1304.46 344.629,1302.49 345.732,1301.12 346.705,1299.6 347.64,1297.96 350.222,1292.68 353.403,1282.11 356.546,1269.97 359.474,1260.75 362.12,1255.59 366.155,1256.63 370.553,1266.23 370.562,1266.23 370.567,1266.23 370.571,1266.23 370.575,1266.23 370.718,1266.21 371.214,1265.89 371.987,1264.4 372.904,1261.49 374.373,1258.96 376.223,1257.4 378.201,1257.61 380.357,1259.02 382.681,1261.52 387.049,1266.89 392.123,1277.3 397.25,1290.24 402.364,1300.87 407.344,1305.32 408.956,1304.69 410.054,1305.57 411.027,1307.2 411.962,1309.07 414.427,1314.52 417.422,1323.4 420.378,1332.55 423.134,1339.17 425.63,1342.77 429.595,1341.29 433.962,1332.32 433.975,1332.33 433.983,1332.33 433.988,1332.33 433.993,1332.33 434.158,1332.36 434.678,1332.74 435.458,1334.29 436.366,1337.13 437.919,1339.75 439.876,1341.27 441.965,1340.78 444.231,1338.82 446.665,1335.5 451.071,1329.13 456.129,1318.68 461.21,1307.18 466.27,1298.77 467.892,1294.73 468.998,1292.98 469.971,1291.55 470.906,1290.12 473.598,1285.03 476.957,1272.58 480.272,1257.12 483.351,1245.1 486.121,1238.35 490.208,1238.9 494.62,1248.97 494.628,1248.97 494.632,1248.97 494.635,1248.97 494.637,1248.97 494.76,1248.96 495.231,1248.7 496.002,1247.25 496.934,1244.21 498.331,1241.73 500.089,1240.15 501.973,1240.18 504.036,1241.25 506.267,1243.2 510.598,1247.76 515.684,1257.99 520.85,1271.99 526.01,1284.5 531.034,1290.7 532.651,1291.59 533.752,1292.75 534.725,1294.31 535.66,1296.05 538.193,1301.4 541.297,1311.25 544.363,1322.09 547.221,1330.18 549.807,1334.67 553.814,1333.44 558.198,1324.09 558.209,1324.1 558.215,1324.1 558.22,1324.1 558.223,1324.1 558.376,1324.12 558.883,1324.46 559.66,1325.99 560.574,1328.88 562.079,1331.46 563.973,1333.02 565.998,1332.7 568.199,1331.08 570.567,1328.27 574.953,1322.5 580.021,1312.04 585.131,1299.66 590.224,1289.91 591.849,1284.58 592.957,1282.58 593.93,1281.2 594.865,1279.89 597.625,1274.95 601.097,1261.18 604.518,1243.42 607.686,1229.49 610.527,1221.69 614.639,1221.95 619.058,1232.27 619.065,1232.27 619.068,1232.27 619.07,1232.27 619.071,1232.27 619.18,1232.26 619.632,1232.03 620.401,1230.61 621.347,1227.47 622.702,1225 624.408,1223.41 626.237,1223.36 628.247,1224.27 630.427,1225.95 634.73,1230.06 639.823,1240.11 645.009,1254.62 650.196,1268.18 655.245,1275.41 656.865,1277.17 657.967,1278.5 658.94,1280.03 659.875,1281.68 662.447,1286.97 665.614,1297.4 668.743,1309.3 671.659,1318.31 674.294,1323.35 678.322,1322.28 682.715,1312.74 682.725,1312.75 682.73,1312.75 682.734,1312.75 682.738,1312.75 682.883,1312.76 683.383,1313.09 684.16,1314.6 685.079,1317.54 686.557,1320.1 688.416,1321.67 690.404,1321.44 692.569,1319.98 694.902,1317.43 699.275,1311.97 704.349,1301.55 709.475,1288.69 714.586,1278.21 719.563,1273.91 721.176,1274.68 722.274,1273.83 723.248,1272.19 724.183,1270.3 726.642,1264.83 729.629,1256.03 732.575,1247.02 735.323,1240.52 737.811,1236.99 741.773,1238.51 746.141,1247.46 746.155,1247.46 746.163,1247.46 746.169,1247.45 746.174,1247.45 746.339,1247.42 746.859,1247.04 747.637,1245.5 748.542,1242.69 750.097,1240.09 752.058,1238.57 754.152,1239.08 756.423,1241.07 758.863,1244.43 763.268,1250.85 768.324,1261.28 773.401,1272.69 778.457,1280.97 780.078,1284.88 781.183,1286.61 782.156,1288.05 783.09,1289.48 785.776,1294.57 789.124,1306.91 792.43,1322.16 795.5,1334.01 798.263,1340.68 802.345,1340.1 806.755,1330.08 806.763,1330.08 806.767,1330.08 806.769,1330.08 806.771,1330.08 806.897,1330.09 807.373,1330.36 808.148,1331.84 809.085,1334.92 810.489,1337.44 812.256,1339.03 814.148,1338.98 816.218,1337.89 818.457,1335.91 822.791,1331.28 827.879,1321.04 833.043,1307.09 838.202,1294.69 843.224,1288.6 844.841,1287.82 845.942,1286.68 846.916,1285.11 847.851,1283.36 850.38,1277.99 853.477,1268.21 856.536,1257.48 859.387,1249.5 861.968,1245.07 865.974,1246.33 870.36,1255.67 870.371,1255.67 870.377,1255.67 870.382,1255.67 870.386,1255.67 870.538,1255.65 871.045,1255.3 871.82,1253.79 872.73,1250.93 874.236,1248.37 876.133,1246.82 878.16,1247.15 880.364,1248.78 882.736,1251.61 887.121,1257.42 892.187,1267.86 897.294,1280.18 902.383,1289.83 904.007,1295.08 905.114,1297.06 906.088,1298.44 907.022,1299.75 909.777,1304.69 913.241,1318.37 916.655,1335.97 919.817,1349.77 922.653,1357.5 926.762,1357.22 931.179,1346.95 931.186,1346.95 931.188,1346.95 931.19,1346.95 931.192,1346.95 931.302,1346.95 931.761,1347.19 932.537,1348.65 933.489,1351.86 934.852,1354.38 936.566,1355.98 938.403,1356.02 940.419,1355.09 942.606,1353.37 946.913,1349.22 952.007,1339.16 957.192,1324.69 962.378,1311.23 967.425,1304.1 969.045,1302.43 970.148,1301.12 971.121,1299.58 972.056,1297.92 974.625,1292.62 977.785,1282.24 980.908,1270.45 983.818,1261.55 986.448,1256.57 990.476,1257.66 994.871,1267.2 994.881,1267.2 994.886,1267.2 994.89,1267.2 994.894,1267.2 995.039,1267.18 995.538,1266.86 996.312,1265.36 997.227,1262.46 998.705,1259.92 1000.57,1258.36 1002.56,1258.6 1004.72,1260.07 1007.06,1262.64 1011.43,1268.12 1016.5,1278.53 1021.63,1291.33 1026.73,1301.73 1031.71,1305.97 1033.32,1305.14 1034.42,1305.99 1035.39,1307.62 1036.33,1309.52 1038.78,1314.97 1041.77,1323.74 1044.71,1332.69 1047.45,1339.13 1049.93,1342.63 1053.89,1341.12 1058.26,1332.21 1058.27,1332.21 1058.28,1332.21 1058.29,1332.21 1058.29,1332.21 1058.46,1332.24 1058.98,1332.63 1059.76,1334.19 1060.67,1337.02 1062.22,1339.64 1064.19,1341.16 1066.29,1340.64 1068.56,1338.63 1071,1335.25 1075.41,1328.79 1080.47,1318.35 1085.55,1306.96 1090.6,1298.72 1092.22,1294.86 1093.33,1293.13 1094.3,1291.69 1095.24,1290.25 1097.92,1285.15 1101.27,1272.84 1104.57,1257.67 1107.64,1245.88 1110.4,1239.25 1114.48,1239.84 1118.89,1249.88 1118.9,1249.87 1118.9,1249.87 1118.91,1249.87 1118.91,1249.87 1119.03,1249.86 1119.51,1249.6 1120.28,1248.14 1121.21,1245.12 1122.61,1242.63 1124.38,1241.06 1126.27,1241.1 1128.34,1242.19 1130.57,1244.18 1134.91,1248.8 1139.99,1259.04 1145.16,1272.97 1150.31,1285.34 1155.33,1291.42 1156.95,1292.19 1158.05,1293.33 1159.02,1294.9 1159.96,1296.64 1162.49,1302.01 1165.58,1311.78 1168.64,1322.49 1171.49,1330.46 1174.07,1334.88 1178.07,1333.63 1182.46,1324.31 1182.47,1324.32 1182.47,1324.32 1182.48,1324.32 1182.48,1324.32 1182.64,1324.34 1183.14,1324.69 1183.92,1326.21 1184.84,1329.1 1186.34,1331.68 1188.24,1333.24 1190.27,1332.91 1192.48,1331.27 1194.85,1328.43 1199.24,1322.61 1204.31,1312.15 1209.41,1299.83 1214.5,1290.18 1216.13,1284.94 1217.24,1282.96 1218.21,1281.57 1219.14,1280.26 1221.9,1275.31 1225.36,1261.64 1228.78,1244.06 1231.94,1230.27 1234.77,1222.56 1238.88,1222.84 1243.3,1233.14 1243.31,1233.14 1243.31,1233.14 1243.31,1233.14 1243.32,1233.14 1243.43,1233.13 1243.88,1232.9 1244.65,1231.48 1245.59,1228.34 1246.95,1225.87 1248.66,1224.29 1250.49,1224.24 1252.51,1225.16 1254.69,1226.86 1259,1231.01 1264.09,1241.06 1269.27,1255.54 1274.46,1269.02 1279.51,1276.18 1281.13,1277.88 1282.23,1279.2 1283.2,1280.73 1284.14,1282.38 1286.71,1287.68 1289.87,1298.07 1292.99,1309.89 1295.9,1318.83 1298.53,1323.83 1302.56,1322.75 1306.95,1313.23 1306.96,1313.23 1306.97,1313.23 1306.97,1313.23 1306.98,1313.23 1307.12,1313.24 1307.62,1313.57 1308.4,1315.09 1309.32,1318.02 1310.8,1320.58 1312.66,1322.15 1314.65,1321.92 1316.82,1320.45 1319.15,1317.88 1323.53,1312.4 1328.6,1301.97 1333.73,1289.15 1338.84,1278.72 1343.81,1274.46 1345.43,1275.28 1346.52,1274.43 1347.5,1272.79 1348.43,1270.89 1350.89,1265.43 1353.87,1256.65 1356.82,1247.68 1359.56,1241.23 1362.05,1237.72 1366.01,1239.24 1370.37,1248.18 1370.39,1248.18 1370.4,1248.18 1370.4,1248.18 1370.41,1248.17 1370.57,1248.15 1371.09,1247.76 1371.87,1246.22 1372.78,1243.41 1374.33,1240.81 1376.3,1239.29 1378.39,1239.81 1380.67,1241.81 1383.11,1245.18 1387.51,1251.62 1392.57,1262.05 1397.64,1273.43 1402.7,1281.67 1404.32,1285.55 1405.42,1287.27 1406.4,1288.71 1407.33,1290.14 1410.02,1295.24 1413.36,1307.55 1416.66,1322.73 1419.73,1334.54 1422.49,1341.17 1426.57,1340.59 1430.98,1330.57 1430.99,1330.57 1431,1330.57 1431,1330.57 1431,1330.57 1431.13,1330.58 1431.6,1330.86 1432.38,1332.34 1433.31,1335.41 1434.72,1337.93 1436.49,1339.52 1438.38,1339.47 1440.45,1338.38 1442.69,1336.38 1447.03,1331.75 1452.12,1321.5 1457.28,1307.57 1462.44,1295.2 1467.46,1289.14 1469.08,1288.38 1470.18,1287.24 1471.15,1285.67 1472.08,1283.92 1474.61,1278.55 1477.71,1268.78 1480.77,1258.09 1483.62,1250.13 1486.19,1245.71 1490.2,1246.97 1494.59,1256.31 1494.6,1256.31 1494.6,1256.31 1494.61,1256.31 1494.61,1256.31 1494.76,1256.29 1495.27,1255.95 1496.05,1254.43 1496.96,1251.57 1498.46,1249.01 1500.36,1247.46 1502.39,1247.79 1504.59,1249.43 1506.97,1252.27 1511.35,1258.09 1516.42,1268.53 1521.52,1280.83 1526.61,1290.46 1528.24,1295.69 1529.34,1297.67 1530.32,1299.05 1531.25,1300.36 1534.01,1305.3 1537.47,1318.96 1540.88,1336.52 1544.04,1350.29 1546.88,1358 1550.98,1357.72 1555.4,1347.44 1555.41,1347.44 1555.41,1347.44 1555.41,1347.44 1555.41,1347.44 1555.53,1347.45 1555.98,1347.69 1556.76,1349.15 1557.71,1352.36 1559.07,1354.88 1560.79,1356.48 1562.63,1356.51 1564.65,1355.59 1566.83,1353.86 1571.14,1349.7 1576.23,1339.63 1581.42,1325.17 1586.6,1311.73 1591.65,1304.62 1593.27,1302.96 1594.37,1301.65 1595.35,1300.12 1596.28,1298.45 1598.85,1293.15 1602.01,1282.78 1605.13,1271.01 1608.04,1262.12 1610.67,1257.15 1614.7,1258.24 1619.09,1267.78 1619.1,1267.78 1619.11,1267.78 1619.11,1267.78 1619.11,1267.78 1619.26,1267.76 1619.76,1267.44 1620.53,1265.94 1621.45,1263.04 1622.93,1260.5 1624.79,1258.94 1626.78,1259.18 1628.95,1260.65 1631.28,1263.22 1635.66,1268.71 1640.73,1279.12 1645.85,1291.91 1650.96,1302.3 1655.93,1306.53 1657.54,1305.7 1658.64,1306.54 1659.62,1308.17 1660.55,1310.07 1663.01,1315.53 1665.99,1324.28 1668.93,1333.23 1671.67,1339.66 1674.15,1343.16 1678.11,1341.64 1682.48,1332.73 1682.49,1332.74 1682.5,1332.74 1682.51,1332.74 1682.51,1332.74 1682.68,1332.77 1683.2,1333.16 1683.98,1334.71 1684.89,1337.55 1686.45,1340.16 1688.41,1341.69 1690.51,1341.17 1692.78,1339.16 1695.23,1335.77 1699.63,1329.31 1704.69,1318.87 1709.77,1307.48 1714.82,1299.25 1716.45,1295.39 1717.55,1293.67 1718.52,1292.23 1719.46,1290.79 1722.14,1285.68 1725.49,1273.39 1728.79,1258.22 1731.85,1246.44 1734.62,1239.82 1738.7,1240.42 1743.11,1250.45 1743.12,1250.45 1743.12,1250.45 1743.12,1250.45 1743.13,1250.45 1743.25,1250.44 1743.73,1250.17 1744.5,1248.72 1745.43,1245.7 1746.83,1243.21 1748.59,1241.63 1750.49,1241.68 1752.56,1242.77 1754.79,1244.75 1759.13,1249.38 1764.21,1259.62 1769.38,1273.55 1774.53,1285.92 1779.55,1291.98 1781.17,1292.75 1782.27,1293.89 1783.24,1295.46 1784.18,1297.2 1786.71,1302.57 1789.8,1312.33 1792.86,1323.04 1795.71,1331 1798.29,1335.42 1802.29,1334.17 1806.68,1324.85 1806.69,1324.86 1806.69,1324.86 1806.7,1324.86 1806.7,1324.86 1806.85,1324.88 1807.36,1325.23 1808.14,1326.75 1809.05,1329.64 1810.56,1332.22 1812.46,1333.78 1814.49,1333.45 1816.7,1331.81 1819.07,1328.96 1823.46,1323.14 1828.53,1312.69 1833.63,1300.36 1838.72,1290.72 1840.35,1285.49 1841.46,1283.51 1842.43,1282.12 1843.36,1280.81 1846.12,1275.86 1849.58,1262.19 1852.99,1244.62 1856.16,1230.84 1858.99,1223.13 1863.1,1223.41 1867.52,1233.71 1867.53,1233.71 1867.53,1233.71 1867.53,1233.71 1867.53,1233.71 1867.64,1233.7 1868.1,1233.47 1868.87,1232.05 1869.81,1228.91 1871.17,1226.44 1872.88,1224.86 1874.71,1224.81 1876.73,1225.73 1878.91,1227.44 1883.22,1231.58 1888.31,1241.64 1893.49,1256.12 1898.68,1269.6 1903.72,1276.75 1905.34,1278.45 1906.45,1279.76 1907.42,1281.29 1908.35,1282.95 1910.92,1288.24 1914.09,1298.63 1917.21,1310.45 1920.12,1319.39 1922.75,1324.38 1926.78,1323.3 1931.17,1313.78 1931.18,1313.78 1931.19,1313.78 1931.19,1313.78 1931.19,1313.78 1931.34,1313.8 1931.84,1314.12 1932.62,1315.64 1933.54,1318.57 1935.02,1321.13 1936.88,1322.7 1938.87,1322.47 1941.04,1321 1943.37,1318.42 1947.75,1312.94 1952.82,1302.52 1957.94,1289.7 1963.05,1279.27 1968.03,1275.02 1969.64,1275.83 1970.74,1274.99 1971.71,1273.35 1972.65,1271.45 1975.11,1265.99 1978.09,1257.21 1981.03,1248.24 1983.78,1241.79 1986.26,1238.28 1990.22,1239.8 1994.59,1248.74 1994.61,1248.74 1994.61,1248.74 1994.62,1248.74 1994.62,1248.74 1994.79,1248.71 1995.31,1248.33 1996.09,1246.78 1996.99,1243.97 1998.55,1241.37 2000.51,1239.85 2002.61,1240.37 2004.88,1242.37 2007.32,1245.75 2011.73,1252.19 2016.79,1262.62 2021.86,1274 2026.92,1282.23 2028.54,1286.11 2029.64,1287.83 2030.62,1289.27 2031.55,1290.7 2034.23,1295.8 2037.58,1308.1 2040.88,1323.29 2043.95,1335.09 2046.71,1341.72 2050.79,1341.14 2055.2,1331.13 2055.21,1331.13 2055.21,1331.13 2055.21,1331.13 2055.22,1331.13 2055.34,1331.14 2055.82,1331.41 2056.59,1332.89 2057.53,1335.96 2058.94,1338.48 2060.7,1340.07 2062.6,1340.02 2064.67,1338.93 2066.91,1336.93 2071.24,1332.3 2076.33,1322.05 2081.5,1308.12 2086.65,1295.75 2091.67,1289.69 2093.29,1288.93 2094.39,1287.8 2095.37,1286.22 2096.3,1284.47 2098.83,1279.1 2101.92,1269.34 2104.98,1258.64 2107.83,1250.68 2110.41,1246.27 2114.42,1247.53 2118.8,1256.87 2118.81,1256.87 2118.82,1256.87 2118.82,1256.87 2118.83,1256.87 2118.98,1256.85 2119.49,1256.5 2120.26,1254.99 2121.17,1252.13 2122.68,1249.57 2124.58,1248.02 2126.61,1248.35 2128.81,1249.99 2131.18,1252.83 2135.57,1258.65 2140.64,1269.09 2145.74,1281.39 2150.83,1291.02 2152.45,1296.25 2153.56,1298.22 2154.53,1299.61 2155.47,1300.91 2158.22,1305.86 2161.68,1319.51 2165.1,1337.07 2168.26,1350.84 2171.09,1358.55 2175.2,1358.27 2179.62,1348 2179.62,1348 2179.63,1348 2179.63,1348 2179.63,1348 2179.74,1348 2180.2,1348.24 2180.98,1349.7 2181.93,1352.91 2183.29,1355.43 2185.01,1357.03 2186.84,1357.07 2188.86,1356.14 2191.05,1354.41 2195.36,1350.25 2200.45,1340.18 2205.63,1325.72 2210.82,1312.28 2215.87,1305.17 2217.49,1303.51 2218.59,1302.21 2219.56,1300.67 2220.5,1299 2223.07,1293.7 2226.23,1283.33 2229.35,1271.56 2232.26,1262.67 2234.89,1257.7 2238.91,1258.79 2243.31,1268.33 2243.32,1268.33 2243.32,1268.33 2243.33,1268.33 2243.33,1268.33 2243.48,1268.31 2243.98,1267.99 2244.75,1266.49 2245.66,1263.59 2247.14,1261.05 2249,1259.49 2251,1259.73 2253.16,1261.2 2255.5,1263.77 2259.87,1269.26 2264.94,1279.68 2270.07,1292.46 2275.17,1302.85 2280.15,1307.08 2281.76,1306.25 2282.86,1307.09 2283.83,1308.72 2284.77,1310.62 2287.22,1316.08 2290.2,1324.84 2293.14,1333.78 2293.15,1333.78 "/>
<path clip-path="url(#clip960)" d="M316.803 250.738 L680.08 250.738 L680.08 95.2176 L316.803 95.2176  Z" fill="#ffffff" fill-rule="evenodd" fill-opacity="1"/>
<polyline clip-path="url(#clip960)" style="stroke:#000000; stroke-linecap:round; stroke-linejoin:round; stroke-width:4; stroke-opacity:1; fill:none" points="316.803,250.738 680.08,250.738 680.08,95.2176 316.803,95.2176 316.803,250.738 "/>
<polyline clip-path="url(#clip960)" style="stroke:#009af9; stroke-linecap:round; stroke-linejoin:round; stroke-width:4; stroke-opacity:1; fill:none" points="340.205,147.058 480.615,147.058 "/>
<path clip-path="url(#clip960)" d="M504.017 129.778 L508.693 129.778 L508.693 164.338 L504.017 164.338 L504.017 129.778 Z" fill="#000000" fill-rule="nonzero" fill-opacity="1" /><path clip-path="url(#clip960)" d="M522.674 133.62 L522.674 160.495 L528.323 160.495 Q535.475 160.495 538.785 157.254 Q542.119 154.014 542.119 147.023 Q542.119 140.078 538.785 136.861 Q535.475 133.62 528.323 133.62 L522.674 133.62 M517.998 129.778 L527.605 129.778 Q537.651 129.778 542.35 133.967 Q547.049 138.134 547.049 147.023 Q547.049 155.958 542.327 160.148 Q537.605 164.338 527.605 164.338 L517.998 164.338 L517.998 129.778 Z" fill="#000000" fill-rule="nonzero" fill-opacity="1" /><path clip-path="url(#clip960)" d="M565.22 134.384 L558.878 151.583 L571.586 151.583 L565.22 134.384 M562.582 129.778 L567.882 129.778 L581.054 164.338 L576.193 164.338 L573.044 155.472 L557.466 155.472 L554.318 164.338 L549.387 164.338 L562.582 129.778 Z" fill="#000000" fill-rule="nonzero" fill-opacity="1" /><polyline clip-path="url(#clip960)" style="stroke:#e26f46; stroke-linecap:round; stroke-linejoin:round; stroke-width:4; stroke-opacity:1; fill:none" points="340.205,198.898 480.615,198.898 "/>
<path clip-path="url(#clip960)" d="M508.693 185.46 L508.693 212.335 L514.341 212.335 Q521.494 212.335 524.804 209.094 Q528.137 205.854 528.137 198.863 Q528.137 191.918 524.804 188.701 Q521.494 185.46 514.341 185.46 L508.693 185.46 M504.017 181.618 L513.624 181.618 Q523.67 181.618 528.369 185.807 Q533.068 189.974 533.068 198.863 Q533.068 207.798 528.346 211.988 Q523.623 216.178 513.624 216.178 L504.017 216.178 L504.017 181.618 Z" fill="#000000" fill-rule="nonzero" fill-opacity="1" /><path clip-path="url(#clip960)" d="M540.522 181.618 L560.383 181.618 L560.383 185.553 L545.197 185.553 L545.197 195.738 L558.901 195.738 L558.901 199.673 L545.197 199.673 L545.197 216.178 L540.522 216.178 L540.522 181.618 Z" fill="#000000" fill-rule="nonzero" fill-opacity="1" /><path clip-path="url(#clip960)" d="M572.466 199.673 L572.466 212.335 L579.966 212.335 Q583.739 212.335 585.544 210.784 Q587.373 209.21 587.373 205.992 Q587.373 202.752 585.544 201.224 Q583.739 199.673 579.966 199.673 L572.466 199.673 M572.466 185.46 L572.466 195.877 L579.387 195.877 Q582.813 195.877 584.48 194.604 Q586.169 193.307 586.169 190.668 Q586.169 188.053 584.48 186.756 Q582.813 185.46 579.387 185.46 L572.466 185.46 M567.79 181.618 L579.734 181.618 Q585.081 181.618 587.975 183.84 Q590.868 186.062 590.868 190.159 Q590.868 193.33 589.387 195.205 Q587.906 197.08 585.035 197.543 Q588.484 198.284 590.382 200.645 Q592.304 202.983 592.304 206.502 Q592.304 211.131 589.156 213.654 Q586.007 216.178 580.197 216.178 L567.79 216.178 L567.79 181.618 Z" fill="#000000" fill-rule="nonzero" fill-opacity="1" /><path clip-path="url(#clip960)" d="M604.989 185.46 L604.989 212.335 L610.637 212.335 Q617.79 212.335 621.1 209.094 Q624.433 205.854 624.433 198.863 Q624.433 191.918 621.1 188.701 Q617.79 185.46 610.637 185.46 L604.989 185.46 M600.313 181.618 L609.919 181.618 Q619.966 181.618 624.665 185.807 Q629.364 189.974 629.364 198.863 Q629.364 207.798 624.641 211.988 Q619.919 216.178 609.919 216.178 L600.313 216.178 L600.313 181.618 Z" fill="#000000" fill-rule="nonzero" fill-opacity="1" /><path clip-path="url(#clip960)" d="M636.817 181.618 L656.678 181.618 L656.678 185.553 L641.493 185.553 L641.493 195.738 L655.197 195.738 L655.197 199.673 L641.493 199.673 L641.493 216.178 L636.817 216.178 L636.817 181.618 Z" fill="#000000" fill-rule="nonzero" fill-opacity="1" /></svg>
