<?xml version="1.0" encoding="utf-8"?>
<svg xmlns="http://www.w3.org/2000/svg" xmlns:xlink="http://www.w3.org/1999/xlink" width="600" height="400" viewBox="0 0 2400 1600">
<defs>
  <clipPath id="clip930">
    <rect x="0" y="0" width="2400" height="1600"/>
  </clipPath>
</defs>
<path clip-path="url(#clip930)" d="M0 1600 L2400 1600 L2400 0 L0 0  Z" fill="#ffffff" fill-rule="evenodd" fill-opacity="1"/>
<defs>
  <clipPath id="clip931">
    <rect x="480" y="0" width="1681" height="1600"/>
  </clipPath>
</defs>
<path clip-path="url(#clip930)" d="M149.191 1423.18 L2352.76 1423.18 L2352.76 47.2441 L149.191 47.2441  Z" fill="#ffffff" fill-rule="evenodd" fill-opacity="1"/>
<defs>
  <clipPath id="clip932">
    <rect x="149" y="47" width="2205" height="1377"/>
  </clipPath>
</defs>
<polyline clip-path="url(#clip932)" style="stroke:#000000; stroke-linecap:round; stroke-linejoin:round; stroke-width:2; stroke-opacity:0.1; fill:none" points="149.191,1423.18 149.191,47.2441 "/>
<polyline clip-path="url(#clip932)" style="stroke:#000000; stroke-linecap:round; stroke-linejoin:round; stroke-width:2; stroke-opacity:0.1; fill:none" points="589.904,1423.18 589.904,47.2441 "/>
<polyline clip-path="url(#clip932)" style="stroke:#000000; stroke-linecap:round; stroke-linejoin:round; stroke-width:2; stroke-opacity:0.1; fill:none" points="1030.62,1423.18 1030.62,47.2441 "/>
<polyline clip-path="url(#clip932)" style="stroke:#000000; stroke-linecap:round; stroke-linejoin:round; stroke-width:2; stroke-opacity:0.1; fill:none" points="1471.33,1423.18 1471.33,47.2441 "/>
<polyline clip-path="url(#clip932)" style="stroke:#000000; stroke-linecap:round; stroke-linejoin:round; stroke-width:2; stroke-opacity:0.1; fill:none" points="1912.04,1423.18 1912.04,47.2441 "/>
<polyline clip-path="url(#clip930)" style="stroke:#000000; stroke-linecap:round; stroke-linejoin:round; stroke-width:4; stroke-opacity:1; fill:none" points="149.191,1423.18 2352.76,1423.18 "/>
<polyline clip-path="url(#clip930)" style="stroke:#000000; stroke-linecap:round; stroke-linejoin:round; stroke-width:4; stroke-opacity:1; fill:none" points="149.191,1423.18 149.191,1404.28 "/>
<polyline clip-path="url(#clip930)" style="stroke:#000000; stroke-linecap:round; stroke-linejoin:round; stroke-width:4; stroke-opacity:1; fill:none" points="589.904,1423.18 589.904,1404.28 "/>
<polyline clip-path="url(#clip930)" style="stroke:#000000; stroke-linecap:round; stroke-linejoin:round; stroke-width:4; stroke-opacity:1; fill:none" points="1030.62,1423.18 1030.62,1404.28 "/>
<polyline clip-path="url(#clip930)" style="stroke:#000000; stroke-linecap:round; stroke-linejoin:round; stroke-width:4; stroke-opacity:1; fill:none" points="1471.33,1423.18 1471.33,1404.28 "/>
<polyline clip-path="url(#clip930)" style="stroke:#000000; stroke-linecap:round; stroke-linejoin:round; stroke-width:4; stroke-opacity:1; fill:none" points="1912.04,1423.18 1912.04,1404.28 "/>
<path clip-path="url(#clip930)" d="M111.494 1454.1 Q107.883 1454.1 106.055 1457.66 Q104.249 1461.2 104.249 1468.33 Q104.249 1475.44 106.055 1479.01 Q107.883 1482.55 111.494 1482.55 Q115.129 1482.55 116.934 1479.01 Q118.763 1475.44 118.763 1468.33 Q118.763 1461.2 116.934 1457.66 Q115.129 1454.1 111.494 1454.1 M111.494 1450.39 Q117.304 1450.39 120.36 1455 Q123.439 1459.58 123.439 1468.33 Q123.439 1477.06 120.36 1481.67 Q117.304 1486.25 111.494 1486.25 Q105.684 1486.25 102.605 1481.67 Q99.5499 1477.06 99.5499 1468.33 Q99.5499 1459.58 102.605 1455 Q105.684 1450.39 111.494 1450.39 Z" fill="#000000" fill-rule="nonzero" fill-opacity="1" /><path clip-path="url(#clip930)" d="M131.656 1479.7 L136.54 1479.7 L136.54 1485.58 L131.656 1485.58 L131.656 1479.7 Z" fill="#000000" fill-rule="nonzero" fill-opacity="1" /><path clip-path="url(#clip930)" d="M156.726 1454.1 Q153.114 1454.1 151.286 1457.66 Q149.48 1461.2 149.48 1468.33 Q149.48 1475.44 151.286 1479.01 Q153.114 1482.55 156.726 1482.55 Q160.36 1482.55 162.165 1479.01 Q163.994 1475.44 163.994 1468.33 Q163.994 1461.2 162.165 1457.66 Q160.36 1454.1 156.726 1454.1 M156.726 1450.39 Q162.536 1450.39 165.591 1455 Q168.67 1459.58 168.67 1468.33 Q168.67 1477.06 165.591 1481.67 Q162.536 1486.25 156.726 1486.25 Q150.915 1486.25 147.837 1481.67 Q144.781 1477.06 144.781 1468.33 Q144.781 1459.58 147.837 1455 Q150.915 1450.39 156.726 1450.39 Z" fill="#000000" fill-rule="nonzero" fill-opacity="1" /><path clip-path="url(#clip930)" d="M186.887 1454.1 Q183.276 1454.1 181.448 1457.66 Q179.642 1461.2 179.642 1468.33 Q179.642 1475.44 181.448 1479.01 Q183.276 1482.55 186.887 1482.55 Q190.522 1482.55 192.327 1479.01 Q194.156 1475.44 194.156 1468.33 Q194.156 1461.2 192.327 1457.66 Q190.522 1454.1 186.887 1454.1 M186.887 1450.39 Q192.698 1450.39 195.753 1455 Q198.832 1459.58 198.832 1468.33 Q198.832 1477.06 195.753 1481.67 Q192.698 1486.25 186.887 1486.25 Q181.077 1486.25 177.999 1481.67 Q174.943 1477.06 174.943 1468.33 Q174.943 1459.58 177.999 1455 Q181.077 1450.39 186.887 1450.39 Z" fill="#000000" fill-rule="nonzero" fill-opacity="1" /><path clip-path="url(#clip930)" d="M553.006 1454.1 Q549.395 1454.1 547.566 1457.66 Q545.761 1461.2 545.761 1468.33 Q545.761 1475.44 547.566 1479.01 Q549.395 1482.55 553.006 1482.55 Q556.64 1482.55 558.446 1479.01 Q560.274 1475.44 560.274 1468.33 Q560.274 1461.2 558.446 1457.66 Q556.64 1454.1 553.006 1454.1 M553.006 1450.39 Q558.816 1450.39 561.872 1455 Q564.95 1459.58 564.95 1468.33 Q564.95 1477.06 561.872 1481.67 Q558.816 1486.25 553.006 1486.25 Q547.196 1486.25 544.117 1481.67 Q541.062 1477.06 541.062 1468.33 Q541.062 1459.58 544.117 1455 Q547.196 1450.39 553.006 1450.39 Z" fill="#000000" fill-rule="nonzero" fill-opacity="1" /><path clip-path="url(#clip930)" d="M573.168 1479.7 L578.052 1479.7 L578.052 1485.58 L573.168 1485.58 L573.168 1479.7 Z" fill="#000000" fill-rule="nonzero" fill-opacity="1" /><path clip-path="url(#clip930)" d="M598.237 1454.1 Q594.626 1454.1 592.797 1457.66 Q590.992 1461.2 590.992 1468.33 Q590.992 1475.44 592.797 1479.01 Q594.626 1482.55 598.237 1482.55 Q601.871 1482.55 603.677 1479.01 Q605.506 1475.44 605.506 1468.33 Q605.506 1461.2 603.677 1457.66 Q601.871 1454.1 598.237 1454.1 M598.237 1450.39 Q604.047 1450.39 607.103 1455 Q610.182 1459.58 610.182 1468.33 Q610.182 1477.06 607.103 1481.67 Q604.047 1486.25 598.237 1486.25 Q592.427 1486.25 589.348 1481.67 Q586.293 1477.06 586.293 1468.33 Q586.293 1459.58 589.348 1455 Q592.427 1450.39 598.237 1450.39 Z" fill="#000000" fill-rule="nonzero" fill-opacity="1" /><path clip-path="url(#clip930)" d="M622.427 1481.64 L638.746 1481.64 L638.746 1485.58 L616.802 1485.58 L616.802 1481.64 Q619.464 1478.89 624.047 1474.26 Q628.654 1469.61 629.834 1468.27 Q632.08 1465.74 632.959 1464.01 Q633.862 1462.25 633.862 1460.56 Q633.862 1457.8 631.918 1456.07 Q629.996 1454.33 626.894 1454.33 Q624.695 1454.33 622.242 1455.09 Q619.811 1455.86 617.033 1457.41 L617.033 1452.69 Q619.857 1451.55 622.311 1450.97 Q624.765 1450.39 626.802 1450.39 Q632.172 1450.39 635.367 1453.08 Q638.561 1455.77 638.561 1460.26 Q638.561 1462.39 637.751 1464.31 Q636.964 1466.2 634.857 1468.8 Q634.279 1469.47 631.177 1472.69 Q628.075 1475.88 622.427 1481.64 Z" fill="#000000" fill-rule="nonzero" fill-opacity="1" /><path clip-path="url(#clip930)" d="M992.677 1454.1 Q989.066 1454.1 987.237 1457.66 Q985.432 1461.2 985.432 1468.33 Q985.432 1475.44 987.237 1479.01 Q989.066 1482.55 992.677 1482.55 Q996.312 1482.55 998.117 1479.01 Q999.946 1475.44 999.946 1468.33 Q999.946 1461.2 998.117 1457.66 Q996.312 1454.1 992.677 1454.1 M992.677 1450.39 Q998.487 1450.39 1001.54 1455 Q1004.62 1459.58 1004.62 1468.33 Q1004.62 1477.06 1001.54 1481.67 Q998.487 1486.25 992.677 1486.25 Q986.867 1486.25 983.788 1481.67 Q980.733 1477.06 980.733 1468.33 Q980.733 1459.58 983.788 1455 Q986.867 1450.39 992.677 1450.39 Z" fill="#000000" fill-rule="nonzero" fill-opacity="1" /><path clip-path="url(#clip930)" d="M1012.84 1479.7 L1017.72 1479.7 L1017.72 1485.58 L1012.84 1485.58 L1012.84 1479.7 Z" fill="#000000" fill-rule="nonzero" fill-opacity="1" /><path clip-path="url(#clip930)" d="M1037.91 1454.1 Q1034.3 1454.1 1032.47 1457.66 Q1030.66 1461.2 1030.66 1468.33 Q1030.66 1475.44 1032.47 1479.01 Q1034.3 1482.55 1037.91 1482.55 Q1041.54 1482.55 1043.35 1479.01 Q1045.18 1475.44 1045.18 1468.33 Q1045.18 1461.2 1043.35 1457.66 Q1041.54 1454.1 1037.91 1454.1 M1037.91 1450.39 Q1043.72 1450.39 1046.77 1455 Q1049.85 1459.58 1049.85 1468.33 Q1049.85 1477.06 1046.77 1481.67 Q1043.72 1486.25 1037.91 1486.25 Q1032.1 1486.25 1029.02 1481.67 Q1025.96 1477.06 1025.96 1468.33 Q1025.96 1459.58 1029.02 1455 Q1032.1 1450.39 1037.91 1450.39 Z" fill="#000000" fill-rule="nonzero" fill-opacity="1" /><path clip-path="url(#clip930)" d="M1070.92 1455.09 L1059.11 1473.54 L1070.92 1473.54 L1070.92 1455.09 M1069.69 1451.02 L1075.57 1451.02 L1075.57 1473.54 L1080.5 1473.54 L1080.5 1477.43 L1075.57 1477.43 L1075.57 1485.58 L1070.92 1485.58 L1070.92 1477.43 L1055.32 1477.43 L1055.32 1472.92 L1069.69 1451.02 Z" fill="#000000" fill-rule="nonzero" fill-opacity="1" /><path clip-path="url(#clip930)" d="M1433.55 1454.1 Q1429.94 1454.1 1428.11 1457.66 Q1426.31 1461.2 1426.31 1468.33 Q1426.31 1475.44 1428.11 1479.01 Q1429.94 1482.55 1433.55 1482.55 Q1437.19 1482.55 1438.99 1479.01 Q1440.82 1475.44 1440.82 1468.33 Q1440.82 1461.2 1438.99 1457.66 Q1437.19 1454.1 1433.55 1454.1 M1433.55 1450.39 Q1439.36 1450.39 1442.42 1455 Q1445.5 1459.58 1445.5 1468.33 Q1445.5 1477.06 1442.42 1481.67 Q1439.36 1486.25 1433.55 1486.25 Q1427.74 1486.25 1424.66 1481.67 Q1421.61 1477.06 1421.61 1468.33 Q1421.61 1459.58 1424.66 1455 Q1427.74 1450.39 1433.55 1450.39 Z" fill="#000000" fill-rule="nonzero" fill-opacity="1" /><path clip-path="url(#clip930)" d="M1453.71 1479.7 L1458.6 1479.7 L1458.6 1485.58 L1453.71 1485.58 L1453.71 1479.7 Z" fill="#000000" fill-rule="nonzero" fill-opacity="1" /><path clip-path="url(#clip930)" d="M1478.78 1454.1 Q1475.17 1454.1 1473.34 1457.66 Q1471.54 1461.2 1471.54 1468.33 Q1471.54 1475.44 1473.34 1479.01 Q1475.17 1482.55 1478.78 1482.55 Q1482.42 1482.55 1484.22 1479.01 Q1486.05 1475.44 1486.05 1468.33 Q1486.05 1461.2 1484.22 1457.66 Q1482.42 1454.1 1478.78 1454.1 M1478.78 1450.39 Q1484.59 1450.39 1487.65 1455 Q1490.73 1459.58 1490.73 1468.33 Q1490.73 1477.06 1487.65 1481.67 Q1484.59 1486.25 1478.78 1486.25 Q1472.97 1486.25 1469.89 1481.67 Q1466.84 1477.06 1466.84 1468.33 Q1466.84 1459.58 1469.89 1455 Q1472.97 1450.39 1478.78 1450.39 Z" fill="#000000" fill-rule="nonzero" fill-opacity="1" /><path clip-path="url(#clip930)" d="M1509.52 1466.44 Q1506.38 1466.44 1504.52 1468.59 Q1502.7 1470.74 1502.7 1474.49 Q1502.7 1478.22 1504.52 1480.39 Q1506.38 1482.55 1509.52 1482.55 Q1512.67 1482.55 1514.5 1480.39 Q1516.35 1478.22 1516.35 1474.49 Q1516.35 1470.74 1514.5 1468.59 Q1512.67 1466.44 1509.52 1466.44 M1518.81 1451.78 L1518.81 1456.04 Q1517.05 1455.21 1515.24 1454.77 Q1513.46 1454.33 1511.7 1454.33 Q1507.07 1454.33 1504.62 1457.45 Q1502.19 1460.58 1501.84 1466.9 Q1503.2 1464.89 1505.26 1463.82 Q1507.33 1462.73 1509.8 1462.73 Q1515.01 1462.73 1518.02 1465.9 Q1521.05 1469.05 1521.05 1474.49 Q1521.05 1479.82 1517.9 1483.03 Q1514.76 1486.25 1509.52 1486.25 Q1503.53 1486.25 1500.36 1481.67 Q1497.19 1477.06 1497.19 1468.33 Q1497.19 1460.14 1501.08 1455.28 Q1504.96 1450.39 1511.51 1450.39 Q1513.27 1450.39 1515.06 1450.74 Q1516.86 1451.09 1518.81 1451.78 Z" fill="#000000" fill-rule="nonzero" fill-opacity="1" /><path clip-path="url(#clip930)" d="M1874.39 1454.1 Q1870.78 1454.1 1868.95 1457.66 Q1867.15 1461.2 1867.15 1468.33 Q1867.15 1475.44 1868.95 1479.01 Q1870.78 1482.55 1874.39 1482.55 Q1878.03 1482.55 1879.83 1479.01 Q1881.66 1475.44 1881.66 1468.33 Q1881.66 1461.2 1879.83 1457.66 Q1878.03 1454.1 1874.39 1454.1 M1874.39 1450.39 Q1880.2 1450.39 1883.26 1455 Q1886.34 1459.58 1886.34 1468.33 Q1886.34 1477.06 1883.26 1481.67 Q1880.2 1486.25 1874.39 1486.25 Q1868.58 1486.25 1865.5 1481.67 Q1862.45 1477.06 1862.45 1468.33 Q1862.45 1459.58 1865.5 1455 Q1868.58 1450.39 1874.39 1450.39 Z" fill="#000000" fill-rule="nonzero" fill-opacity="1" /><path clip-path="url(#clip930)" d="M1894.55 1479.7 L1899.44 1479.7 L1899.44 1485.58 L1894.55 1485.58 L1894.55 1479.7 Z" fill="#000000" fill-rule="nonzero" fill-opacity="1" /><path clip-path="url(#clip930)" d="M1919.62 1454.1 Q1916.01 1454.1 1914.18 1457.66 Q1912.38 1461.2 1912.38 1468.33 Q1912.38 1475.44 1914.18 1479.01 Q1916.01 1482.55 1919.62 1482.55 Q1923.26 1482.55 1925.06 1479.01 Q1926.89 1475.44 1926.89 1468.33 Q1926.89 1461.2 1925.06 1457.66 Q1923.26 1454.1 1919.62 1454.1 M1919.62 1450.39 Q1925.43 1450.39 1928.49 1455 Q1931.57 1459.58 1931.57 1468.33 Q1931.57 1477.06 1928.49 1481.67 Q1925.43 1486.25 1919.62 1486.25 Q1913.81 1486.25 1910.74 1481.67 Q1907.68 1477.06 1907.68 1468.33 Q1907.68 1459.58 1910.74 1455 Q1913.81 1450.39 1919.62 1450.39 Z" fill="#000000" fill-rule="nonzero" fill-opacity="1" /><path clip-path="url(#clip930)" d="M1949.79 1469.17 Q1946.45 1469.17 1944.53 1470.95 Q1942.63 1472.73 1942.63 1475.86 Q1942.63 1478.98 1944.53 1480.77 Q1946.45 1482.55 1949.79 1482.55 Q1953.12 1482.55 1955.04 1480.77 Q1956.96 1478.96 1956.96 1475.86 Q1956.96 1472.73 1955.04 1470.95 Q1953.14 1469.17 1949.79 1469.17 M1945.11 1467.18 Q1942.1 1466.44 1940.41 1464.38 Q1938.74 1462.32 1938.74 1459.35 Q1938.74 1455.21 1941.68 1452.8 Q1944.65 1450.39 1949.79 1450.39 Q1954.95 1450.39 1957.89 1452.8 Q1960.83 1455.21 1960.83 1459.35 Q1960.83 1462.32 1959.14 1464.38 Q1957.47 1466.44 1954.48 1467.18 Q1957.86 1467.96 1959.74 1470.26 Q1961.64 1472.55 1961.64 1475.86 Q1961.64 1480.88 1958.56 1483.57 Q1955.5 1486.25 1949.79 1486.25 Q1944.07 1486.25 1940.99 1483.57 Q1937.93 1480.88 1937.93 1475.86 Q1937.93 1472.55 1939.83 1470.26 Q1941.73 1467.96 1945.11 1467.18 M1943.4 1459.79 Q1943.4 1462.48 1945.06 1463.98 Q1946.75 1465.49 1949.79 1465.49 Q1952.79 1465.49 1954.48 1463.98 Q1956.2 1462.48 1956.2 1459.79 Q1956.2 1457.11 1954.48 1455.6 Q1952.79 1454.1 1949.79 1454.1 Q1946.75 1454.1 1945.06 1455.6 Q1943.4 1457.11 1943.4 1459.79 Z" fill="#000000" fill-rule="nonzero" fill-opacity="1" /><path clip-path="url(#clip930)" d="M1250.03 1522.27 L1250.03 1532.4 L1262.1 1532.4 L1262.1 1536.95 L1250.03 1536.95 L1250.03 1556.3 Q1250.03 1560.66 1251.21 1561.9 Q1252.42 1563.14 1256.08 1563.14 L1262.1 1563.14 L1262.1 1568.04 L1256.08 1568.04 Q1249.3 1568.04 1246.72 1565.53 Q1244.15 1562.98 1244.15 1556.3 L1244.15 1536.95 L1239.85 1536.95 L1239.85 1532.4 L1244.15 1532.4 L1244.15 1522.27 L1250.03 1522.27 Z" fill="#000000" fill-rule="nonzero" fill-opacity="1" /><polyline clip-path="url(#clip932)" style="stroke:#000000; stroke-linecap:round; stroke-linejoin:round; stroke-width:2; stroke-opacity:0.1; fill:none" points="149.191,1399.09 2352.76,1399.09 "/>
<polyline clip-path="url(#clip932)" style="stroke:#000000; stroke-linecap:round; stroke-linejoin:round; stroke-width:2; stroke-opacity:0.1; fill:none" points="149.191,1103.63 2352.76,1103.63 "/>
<polyline clip-path="url(#clip932)" style="stroke:#000000; stroke-linecap:round; stroke-linejoin:round; stroke-width:2; stroke-opacity:0.1; fill:none" points="149.191,808.169 2352.76,808.169 "/>
<polyline clip-path="url(#clip932)" style="stroke:#000000; stroke-linecap:round; stroke-linejoin:round; stroke-width:2; stroke-opacity:0.1; fill:none" points="149.191,512.709 2352.76,512.709 "/>
<polyline clip-path="url(#clip932)" style="stroke:#000000; stroke-linecap:round; stroke-linejoin:round; stroke-width:2; stroke-opacity:0.1; fill:none" points="149.191,217.25 2352.76,217.25 "/>
<polyline clip-path="url(#clip930)" style="stroke:#000000; stroke-linecap:round; stroke-linejoin:round; stroke-width:4; stroke-opacity:1; fill:none" points="149.191,1423.18 149.191,47.2441 "/>
<polyline clip-path="url(#clip930)" style="stroke:#000000; stroke-linecap:round; stroke-linejoin:round; stroke-width:4; stroke-opacity:1; fill:none" points="149.191,1399.09 168.089,1399.09 "/>
<polyline clip-path="url(#clip930)" style="stroke:#000000; stroke-linecap:round; stroke-linejoin:round; stroke-width:4; stroke-opacity:1; fill:none" points="149.191,1103.63 168.089,1103.63 "/>
<polyline clip-path="url(#clip930)" style="stroke:#000000; stroke-linecap:round; stroke-linejoin:round; stroke-width:4; stroke-opacity:1; fill:none" points="149.191,808.169 168.089,808.169 "/>
<polyline clip-path="url(#clip930)" style="stroke:#000000; stroke-linecap:round; stroke-linejoin:round; stroke-width:4; stroke-opacity:1; fill:none" points="149.191,512.709 168.089,512.709 "/>
<polyline clip-path="url(#clip930)" style="stroke:#000000; stroke-linecap:round; stroke-linejoin:round; stroke-width:4; stroke-opacity:1; fill:none" points="149.191,217.25 168.089,217.25 "/>
<path clip-path="url(#clip930)" d="M51.5708 1399.54 L81.2466 1399.54 L81.2466 1403.48 L51.5708 1403.48 L51.5708 1399.54 Z" fill="#000000" fill-rule="nonzero" fill-opacity="1" /><path clip-path="url(#clip930)" d="M101.339 1399.96 Q98.0058 1399.96 96.0845 1401.74 Q94.1863 1403.52 94.1863 1406.65 Q94.1863 1409.77 96.0845 1411.55 Q98.0058 1413.34 101.339 1413.34 Q104.672 1413.34 106.594 1411.55 Q108.515 1409.75 108.515 1406.65 Q108.515 1403.52 106.594 1401.74 Q104.696 1399.96 101.339 1399.96 M96.6632 1397.97 Q93.6539 1397.23 91.9641 1395.17 Q90.2975 1393.11 90.2975 1390.14 Q90.2975 1386 93.2373 1383.59 Q96.2002 1381.18 101.339 1381.18 Q106.501 1381.18 109.441 1383.59 Q112.381 1386 112.381 1390.14 Q112.381 1393.11 110.691 1395.17 Q109.024 1397.23 106.038 1397.97 Q109.418 1398.75 111.293 1401.04 Q113.191 1403.34 113.191 1406.65 Q113.191 1411.67 110.112 1414.35 Q107.057 1417.04 101.339 1417.04 Q95.6215 1417.04 92.5428 1414.35 Q89.4873 1411.67 89.4873 1406.65 Q89.4873 1403.34 91.3854 1401.04 Q93.2836 1398.75 96.6632 1397.97 M94.9502 1390.58 Q94.9502 1393.27 96.6169 1394.77 Q98.3067 1396.28 101.339 1396.28 Q104.348 1396.28 106.038 1394.77 Q107.751 1393.27 107.751 1390.58 Q107.751 1387.9 106.038 1386.39 Q104.348 1384.89 101.339 1384.89 Q98.3067 1384.89 96.6169 1386.39 Q94.9502 1387.9 94.9502 1390.58 Z" fill="#000000" fill-rule="nonzero" fill-opacity="1" /><path clip-path="url(#clip930)" d="M51.3162 1104.08 L80.992 1104.08 L80.992 1108.02 L51.3162 1108.02 L51.3162 1104.08 Z" fill="#000000" fill-rule="nonzero" fill-opacity="1" /><path clip-path="url(#clip930)" d="M101.663 1101.77 Q98.515 1101.77 96.6632 1103.92 Q94.8345 1106.07 94.8345 1109.82 Q94.8345 1113.55 96.6632 1115.72 Q98.515 1117.88 101.663 1117.88 Q104.811 1117.88 106.64 1115.72 Q108.492 1113.55 108.492 1109.82 Q108.492 1106.07 106.64 1103.92 Q104.811 1101.77 101.663 1101.77 M110.946 1087.11 L110.946 1091.37 Q109.186 1090.54 107.381 1090.1 Q105.598 1089.66 103.839 1089.66 Q99.2095 1089.66 96.7558 1092.78 Q94.3252 1095.91 93.978 1102.23 Q95.3437 1100.21 97.4039 1099.15 Q99.4641 1098.06 101.941 1098.06 Q107.149 1098.06 110.158 1101.23 Q113.191 1104.38 113.191 1109.82 Q113.191 1115.15 110.043 1118.36 Q106.895 1121.58 101.663 1121.58 Q95.6678 1121.58 92.4965 1117 Q89.3253 1112.39 89.3253 1103.66 Q89.3253 1095.47 93.2141 1090.61 Q97.103 1085.72 103.654 1085.72 Q105.413 1085.72 107.196 1086.07 Q109.001 1086.42 110.946 1087.11 Z" fill="#000000" fill-rule="nonzero" fill-opacity="1" /><path clip-path="url(#clip930)" d="M50.9921 808.621 L80.6679 808.621 L80.6679 812.556 L50.9921 812.556 L50.9921 808.621 Z" fill="#000000" fill-rule="nonzero" fill-opacity="1" /><path clip-path="url(#clip930)" d="M103.608 794.963 L91.8021 813.412 L103.608 813.412 L103.608 794.963 M102.381 790.889 L108.26 790.889 L108.26 813.412 L113.191 813.412 L113.191 817.301 L108.26 817.301 L108.26 825.449 L103.608 825.449 L103.608 817.301 L88.0058 817.301 L88.0058 812.787 L102.381 790.889 Z" fill="#000000" fill-rule="nonzero" fill-opacity="1" /><path clip-path="url(#clip930)" d="M53.0754 513.161 L82.7512 513.161 L82.7512 517.096 L53.0754 517.096 L53.0754 513.161 Z" fill="#000000" fill-rule="nonzero" fill-opacity="1" /><path clip-path="url(#clip930)" d="M96.8715 526.054 L113.191 526.054 L113.191 529.989 L91.2465 529.989 L91.2465 526.054 Q93.9086 523.3 98.4919 518.67 Q103.098 514.017 104.279 512.675 Q106.524 510.152 107.404 508.415 Q108.307 506.656 108.307 504.966 Q108.307 502.212 106.362 500.476 Q104.441 498.74 101.339 498.74 Q99.14 498.74 96.6863 499.503 Q94.2558 500.267 91.478 501.818 L91.478 497.096 Q94.3021 495.962 96.7558 495.383 Q99.2095 494.804 101.246 494.804 Q106.617 494.804 109.811 497.49 Q113.006 500.175 113.006 504.665 Q113.006 506.795 112.196 508.716 Q111.408 510.615 109.302 513.207 Q108.723 513.878 105.621 517.096 Q102.52 520.29 96.8715 526.054 Z" fill="#000000" fill-rule="nonzero" fill-opacity="1" /><path clip-path="url(#clip930)" d="M101.246 203.048 Q97.6354 203.048 95.8067 206.613 Q94.0012 210.155 94.0012 217.284 Q94.0012 224.391 95.8067 227.956 Q97.6354 231.497 101.246 231.497 Q104.881 231.497 106.686 227.956 Q108.515 224.391 108.515 217.284 Q108.515 210.155 106.686 206.613 Q104.881 203.048 101.246 203.048 M101.246 199.345 Q107.057 199.345 110.112 203.951 Q113.191 208.534 113.191 217.284 Q113.191 226.011 110.112 230.618 Q107.057 235.201 101.246 235.201 Q95.4363 235.201 92.3576 230.618 Q89.3021 226.011 89.3021 217.284 Q89.3021 208.534 92.3576 203.951 Q95.4363 199.345 101.246 199.345 Z" fill="#000000" fill-rule="nonzero" fill-opacity="1" /><polyline clip-path="url(#clip932)" style="stroke:#009af9; stroke-linecap:round; stroke-linejoin:round; stroke-width:4; stroke-opacity:1; fill:none" points="149.191,217.25 151.397,641.451 153.602,919.63 155.808,1168.58 158.014,1304 160.22,1292.12 162.425,1270.38 164.631,1306.59 166.837,1336.64 169.043,1359.04 171.249,1374.18 173.454,1382.45 175.66,1384.24 177.866,1379.92 180.072,1369.88 182.277,1354.51 184.483,1334.18 186.689,1309.29 188.895,1280.23 191.101,1247.36 193.306,1211.09 195.512,1171.78 197.718,1129.84 199.924,1085.64 202.129,1039.57 204.335,992.008 206.541,943.345 208.747,893.964 210.952,844.249 213.158,794.585 215.364,745.357 217.57,696.949 219.776,649.746 221.981,604.134 224.187,560.495 226.393,519.216 228.599,480.68 230.804,445.273 233.01,413.379 235.216,385.275 237.422,359.28 239.627,334.673 241.833,311.426 244.039,289.511 246.245,268.898 248.451,249.56 250.656,231.467 252.862,214.591 255.068,198.903 257.274,184.375 259.479,170.979 261.685,158.685 263.891,147.465 266.097,137.29 268.302,128.132 270.508,119.962 272.714,112.752 274.92,106.473 277.126,101.097 279.331,96.5938 281.537,92.9361 283.743,90.0951 285.949,88.042 288.154,86.7484 290.36,86.1857 292.566,86.3251 294.772,87.1382 296.978,88.5963 299.183,90.6709 301.389,93.3333 303.595,96.5549 305.801,100.307 308.006,104.562 310.212,109.289 312.418,114.462 314.624,120.051 316.829,126.027 319.035,132.363 321.241,139.029 323.447,145.997 325.653,153.238 327.858,160.724 330.064,168.426 332.27,176.316 334.476,184.364 336.681,192.543 338.887,200.823 341.093,209.176 343.299,217.574 345.504,225.988 347.71,234.389 349.916,242.749 352.122,251.039 354.328,259.231 356.533,267.295 358.739,275.204 360.945,282.928 363.151,290.44 365.356,297.71 367.562,304.71 369.768,311.411 371.974,317.785 374.179,323.803 376.385,329.437 378.591,334.658 380.797,339.437 383.003,343.746 385.208,347.556 387.414,350.838 389.62,353.565 391.826,355.707 394.031,357.235 396.237,358.122 398.443,358.338 400.649,357.963 402.855,357.556 405.06,357.201 407.266,356.897 409.472,356.64 411.678,356.429 413.883,356.261 416.089,356.136 418.295,356.051 420.501,356.003 422.706,355.992 424.912,356.014 427.118,356.068 429.324,356.151 431.53,356.263 433.735,356.4 435.941,356.561 438.147,356.743 440.353,356.945 442.558,357.165 444.764,357.401 446.97,357.65 449.176,357.91 451.381,358.181 453.587,358.458 455.793,358.742 457.999,359.029 460.205,359.317 462.41,359.605 464.616,359.89 466.822,360.171 469.028,360.446 471.233,360.711 473.439,360.966 475.645,361.209 477.851,361.437 480.056,361.648 482.262,361.84 484.468,362.012 486.674,362.161 488.88,362.285 491.085,362.388 493.291,362.488 495.497,362.587 497.703,362.684 499.908,362.781 502.114,362.877 504.32,362.972 506.526,363.066 508.732,363.159 510.937,363.251 513.143,363.342 515.349,363.432 517.555,363.522 519.76,363.61 521.966,363.697 524.172,363.784 526.378,363.869 528.583,363.954 530.789,364.037 532.995,364.12 535.201,364.202 537.407,364.283 539.612,364.363 541.818,364.442 544.024,364.52 546.23,364.598 548.435,364.674 550.641,364.75 552.847,364.824 555.053,364.898 557.258,364.971 559.464,365.043 561.67,365.114 563.876,365.185 566.082,365.254 568.287,365.323 570.493,365.39 572.699,365.457 574.905,365.523 577.11,365.588 579.316,365.653 581.522,365.716 583.728,365.779 585.933,365.841 588.139,365.902 590.345,365.962 592.551,366.021 594.757,366.08 596.962,366.138 599.168,366.195 601.374,366.251 603.58,366.306 605.785,366.361 607.991,366.414 610.197,366.467 612.403,366.52 614.609,366.571 616.814,366.622 619.02,366.671 621.226,366.72 623.432,366.769 625.637,366.816 627.843,366.863 630.049,366.909 632.255,366.954 634.46,366.999 636.666,367.043 638.872,367.086 641.078,367.128 643.284,367.169 645.489,367.21 647.695,367.25 649.901,367.29 652.107,367.328 654.312,367.366 656.518,367.403 658.724,367.44 660.93,367.476 663.135,367.511 665.341,367.545 667.547,367.579 669.753,367.612 671.959,367.644 674.164,367.676 676.37,367.707 678.576,367.737 680.782,367.767 682.987,367.796 685.193,367.824 687.399,367.851 689.605,367.878 691.81,367.905 694.016,367.93 696.222,367.955 698.428,367.98 700.634,368.003 702.839,368.026 705.045,368.049 707.251,368.071 709.457,368.092 711.662,368.112 713.868,368.132 716.074,368.151 718.28,368.17 720.486,368.188 722.691,368.206 724.897,368.223 727.103,368.239 729.309,368.254 731.514,368.27 733.72,368.284 735.926,368.298 738.132,368.311 740.337,368.324 742.543,368.336 744.749,368.348 746.955,368.359 749.161,368.369 751.366,368.379 753.572,368.389 755.778,368.397 757.984,368.406 760.189,368.413 762.395,368.421 764.601,368.427 766.807,368.433 769.012,368.439 771.218,368.444 773.424,368.448 775.63,368.452 777.836,368.456 780.041,368.459 782.247,368.461 784.453,368.463 786.659,368.465 788.864,368.466 791.07,368.466 793.276,368.466 795.482,368.466 797.687,368.465 799.893,368.463 802.099,368.461 804.305,368.459 806.511,368.456 808.716,368.453 810.922,368.449 813.128,368.445 815.334,368.44 817.539,368.435 819.745,368.429 821.951,368.423 824.157,368.417 826.363,368.41 828.568,368.402 830.774,368.394 832.98,368.386 835.186,368.377 837.391,368.368 839.597,368.359 841.803,368.349 844.009,368.339 846.214,368.328 848.42,368.317 850.626,368.305 852.832,368.293 855.038,368.281 857.243,368.269 859.449,368.255 861.655,368.242 863.861,368.228 866.066,368.214 868.272,368.199 870.478,368.185 872.684,368.169 874.889,368.154 877.095,368.138 879.301,368.121 881.507,368.105 883.713,368.088 885.918,368.07 888.124,368.053 890.33,368.034 892.536,368.016 894.741,367.997 896.947,367.978 899.153,367.959 901.359,367.939 903.564,367.919 905.77,367.899 907.976,367.879 910.182,367.858 912.388,367.837 914.593,367.815 916.799,367.793 919.005,367.771 921.211,367.749 923.416,367.727 925.622,367.704 927.828,367.681 930.034,367.657 932.24,367.634 934.445,367.61 936.651,367.585 938.857,367.561 941.063,367.536 943.268,367.511 945.474,367.486 947.68,367.461 949.886,367.435 952.091,367.409 954.297,367.383 956.503,367.357 958.709,367.33 960.915,367.304 963.12,367.277 965.326,367.249 967.532,367.222 969.738,367.194 971.943,367.167 974.149,367.139 976.355,367.111 978.561,367.082 980.766,367.054 982.972,367.025 985.178,366.996 987.384,366.967 989.59,366.938 991.795,366.908 994.001,366.879 996.207,366.849 998.413,366.819 1000.62,366.789 1002.82,366.759 1005.03,366.729 1007.24,366.698 1009.44,366.667 1011.65,366.637 1013.85,366.606 1016.06,366.575 1018.26,366.544 1020.47,366.512 1022.68,366.481 1024.88,366.45 1027.09,366.418 1029.29,366.386 1031.5,366.355 1033.7,366.323 1035.91,366.291 1038.12,366.259 1040.32,366.226 1042.53,366.194 1044.73,366.162 1046.94,366.13 1049.15,366.097 1051.35,366.065 1053.56,366.032 1055.76,365.999 1057.97,365.967 1060.17,365.934 1062.38,365.901 1064.59,365.868 1066.79,365.835 1069,365.802 1071.2,365.769 1073.41,365.736 1075.61,365.703 1077.82,365.67 1080.03,365.637 1082.23,365.604 1084.44,365.571 1086.64,365.537 1088.85,365.504 1091.06,365.471 1093.26,365.438 1095.47,365.405 1097.67,365.372 1099.88,365.339 1102.08,365.305 1104.29,365.272 1106.5,365.239 1108.7,365.206 1110.91,365.173 1113.11,365.14 1115.32,365.107 1117.52,365.074 1119.73,365.041 1121.94,365.009 1124.14,364.976 1126.35,364.943 1128.55,364.91 1130.76,364.878 1132.96,364.845 1135.17,364.813 1137.38,364.78 1139.58,364.748 1141.79,364.716 1143.99,364.683 1146.2,364.651 1148.41,364.619 1150.61,364.587 1152.82,364.556 1155.02,364.524 1157.23,364.492 1159.43,364.461 1161.64,364.429 1163.85,364.398 1166.05,364.367 1168.26,364.336 1170.46,364.305 1172.67,364.274 1174.87,364.244 1177.08,364.213 1179.29,364.183 1181.49,364.153 1183.7,364.123 1185.9,364.093 1188.11,364.063 1190.31,364.033 1192.52,364.004 1194.73,363.974 1196.93,363.945 1199.14,363.916 1201.34,363.888 1203.55,363.859 1205.76,363.831 1207.96,363.802 1210.17,363.774 1212.37,363.747 1214.58,363.719 1216.78,363.692 1218.99,363.664 1221.2,363.637 1223.4,363.61 1225.61,363.584 1227.81,363.558 1230.02,363.531 1232.22,363.505 1234.43,363.48 1236.64,363.454 1238.84,363.429 1241.05,363.404 1243.25,363.379 1245.46,363.355 1247.66,363.331 1249.87,363.307 1252.08,363.283 1254.28,363.259 1256.49,363.236 1258.69,363.213 1260.9,363.191 1263.11,363.168 1265.31,363.146 1267.52,363.124 1269.72,363.103 1271.93,363.082 1274.13,363.061 1276.34,363.04 1278.55,363.02 1280.75,363 1282.96,362.98 1285.16,362.961 1287.37,362.942 1289.57,362.923 1291.78,362.904 1293.99,362.886 1296.19,362.869 1298.4,362.851 1300.6,362.834 1302.81,362.817 1305.01,362.801 1307.22,362.785 1309.43,362.769 1311.63,362.754 1313.84,362.739 1316.04,362.724 1318.25,362.71 1320.46,362.696 1322.66,362.682 1324.87,362.669 1327.07,362.656 1329.28,362.644 1331.48,362.632 1333.69,362.62 1335.9,362.609 1338.1,362.598 1340.31,362.588 1342.51,362.578 1344.72,362.568 1346.92,362.559 1349.13,362.55 1351.34,362.542 1353.54,362.534 1355.75,362.527 1357.95,362.52 1360.16,362.513 1362.36,362.507 1364.57,362.501 1366.78,362.496 1368.98,362.491 1371.19,362.487 1373.39,362.483 1375.6,362.479 1377.81,362.476 1380.01,362.474 1382.22,362.472 1384.42,362.47 1386.63,362.469 1388.83,362.468 1391.04,362.468 1393.25,362.469 1395.45,362.469 1397.66,362.469 1399.86,362.47 1402.07,362.47 1404.27,362.47 1406.48,362.471 1408.69,362.471 1410.89,362.471 1413.1,362.472 1415.3,362.472 1417.51,362.472 1419.71,362.472 1421.92,362.473 1424.13,362.473 1426.33,362.473 1428.54,362.474 1430.74,362.474 1432.95,362.474 1435.16,362.475 1437.36,362.475 1439.57,362.475 1441.77,362.475 1443.98,362.476 1446.18,362.476 1448.39,362.476 1450.6,362.476 1452.8,362.477 1455.01,362.477 1457.21,362.477 1459.42,362.477 1461.62,362.478 1463.83,362.478 1466.04,362.478 1468.24,362.478 1470.45,362.479 1472.65,362.479 1474.86,362.479 1477.06,362.479 1479.27,362.479 1481.48,362.48 1483.68,362.48 1485.89,362.48 1488.09,362.48 1490.3,362.48 1492.51,362.481 1494.71,362.481 1496.92,362.481 1499.12,362.481 1501.33,362.481 1503.53,362.482 1505.74,362.482 1507.95,362.482 1510.15,362.482 1512.36,362.482 1514.56,362.482 1516.77,362.483 1518.97,362.483 1521.18,362.483 1523.39,362.483 1525.59,362.483 1527.8,362.483 1530,362.483 1532.21,362.484 1534.41,362.484 1536.62,362.484 1538.83,362.484 1541.03,362.484 1543.24,362.484 1545.44,362.484 1547.65,362.484 1549.86,362.485 1552.06,362.485 1554.27,362.485 1556.47,362.485 1558.68,362.485 1560.88,362.485 1563.09,362.485 1565.3,362.485 1567.5,362.485 1569.71,362.485 1571.91,362.486 1574.12,362.486 1576.32,362.486 1578.53,362.486 1580.74,362.486 1582.94,362.486 1585.15,362.486 1587.35,362.486 1589.56,362.486 1591.76,362.486 1593.97,362.486 1596.18,362.486 1598.38,362.486 1600.59,362.486 1602.79,362.486 1605,362.487 1607.21,362.487 1609.41,362.487 1611.62,362.487 1613.82,362.487 1616.03,362.487 1618.23,362.487 1620.44,362.487 1622.65,362.487 1624.85,362.487 1627.06,362.487 1629.26,362.487 1631.47,362.487 1633.67,362.487 1635.88,362.487 1638.09,362.487 1640.29,362.487 1642.5,362.487 1644.7,362.487 1646.91,362.487 1649.12,362.487 1651.32,362.487 1653.53,362.487 1655.73,362.487 1657.94,362.487 1660.14,362.487 1662.35,362.487 1664.56,362.487 1666.76,362.487 1668.97,362.487 1671.17,362.487 1673.38,362.487 1675.58,362.487 1677.79,362.487 1680,362.487 1682.2,362.487 1684.41,362.487 1686.61,362.487 1688.82,362.487 1691.02,362.487 1693.23,362.487 1695.44,362.486 1697.64,362.486 1699.85,362.486 1702.05,362.486 1704.26,362.486 1706.47,362.486 1708.67,362.486 1710.88,362.486 1713.08,362.486 1715.29,362.486 1717.49,362.486 1719.7,362.486 1721.91,362.486 1724.11,362.486 1726.32,362.486 1728.52,362.486 1730.73,362.485 1732.93,362.485 1735.14,362.485 1737.35,362.485 1739.55,362.485 1741.76,362.485 1743.96,362.485 1746.17,362.485 1748.37,362.485 1750.58,362.485 1752.79,362.485 1754.99,362.485 1757.2,362.484 1759.4,362.484 1761.61,362.484 1763.82,362.484 1766.02,362.484 1768.23,362.484 1770.43,362.484 1772.64,362.484 1774.84,362.484 1777.05,362.484 1779.26,362.483 1781.46,362.483 1783.67,362.483 1785.87,362.483 1788.08,362.483 1790.28,362.483 1792.49,362.483 1794.7,362.483 1796.9,362.482 1799.11,362.482 1801.31,362.482 1803.52,362.482 1805.72,362.482 1807.93,362.482 1810.14,362.482 1812.34,362.482 1814.55,362.481 1816.75,362.481 1818.96,362.481 1821.17,362.481 1823.37,362.481 1825.58,362.481 1827.78,362.481 1829.99,362.48 1832.19,362.48 1834.4,362.48 1836.61,362.48 1838.81,362.48 1841.02,362.48 1843.22,362.48 1845.43,362.479 1847.63,362.479 1849.84,362.479 1852.05,362.479 1854.25,362.479 1856.46,362.479 1858.66,362.478 1860.87,362.478 1863.07,362.478 1865.28,362.478 1867.49,362.478 1869.69,362.478 1871.9,362.477 1874.1,362.477 1876.31,362.477 1878.52,362.477 1880.72,362.477 1882.93,362.477 1885.13,362.476 1887.34,362.476 1889.54,362.476 1891.75,362.476 1893.96,362.476 1896.16,362.476 1898.37,362.475 1900.57,362.475 1902.78,362.475 1904.98,362.475 1907.19,362.475 1909.4,362.475 1911.6,362.474 1913.81,362.474 1916.01,362.474 1918.22,362.474 1920.42,362.474 1922.63,362.473 1924.84,362.473 1927.04,362.473 1929.25,362.473 1931.45,362.473 1933.66,362.473 1935.87,362.472 1938.07,362.472 1940.28,362.472 1942.48,362.472 1944.69,362.472 1946.89,362.471 1949.1,362.471 1951.31,362.471 1953.51,362.471 1955.72,362.471 1957.92,362.47 1960.13,362.47 1962.33,362.47 1964.54,362.47 1966.75,362.47 1968.95,362.469 1971.16,362.469 1973.36,362.469 1975.57,362.469 1977.77,362.469 1979.98,362.468 1982.19,362.468 1984.39,362.468 1986.6,362.468 1988.8,362.468 1991.01,362.468 1993.22,362.467 1995.42,362.467 1997.63,362.467 1999.83,362.467 2002.04,362.467 2004.24,362.466 2006.45,362.466 2008.66,362.466 2010.86,362.466 2013.07,362.465 2015.27,362.465 2017.48,362.465 2019.68,362.465 2021.89,362.465 2024.1,362.464 2026.3,362.464 2028.51,362.464 2030.71,362.464 2032.92,362.464 2035.12,362.463 2037.33,362.463 2039.54,362.463 2041.74,362.463 2043.95,362.463 2046.15,362.462 2048.36,362.462 2050.57,362.462 2052.77,362.462 2054.98,362.462 2057.18,362.461 2059.39,362.461 2061.59,362.461 2063.8,362.461 2066.01,362.461 2068.21,362.46 2070.42,362.46 2072.62,362.46 2074.83,362.46 2077.03,362.46 2079.24,362.459 2081.45,362.459 2083.65,362.459 2085.86,362.459 2088.06,362.459 2090.27,362.458 2092.47,362.458 2094.68,362.458 2096.89,362.458 2099.09,362.458 2101.3,362.457 2103.5,362.457 2105.71,362.457 2107.92,362.457 2110.12,362.457 2112.33,362.456 2114.53,362.456 2116.74,362.456 2118.94,362.456 2121.15,362.456 2123.36,362.455 2125.56,362.455 2127.77,362.455 2129.97,362.455 2132.18,362.455 2134.38,362.455 2136.59,362.454 2138.8,362.454 2141,362.454 2143.21,362.454 2145.41,362.454 2147.62,362.453 2149.82,362.453 2152.03,362.453 2154.24,362.453 2156.44,362.453 2158.65,362.452 2160.85,362.452 2163.06,362.452 2165.27,362.452 2167.47,362.452 2169.68,362.452 2171.88,362.451 2174.09,362.451 2176.29,362.451 2178.5,362.451 2180.71,362.451 2182.91,362.45 2185.12,362.45 2187.32,362.45 2189.53,362.45 2191.73,362.45 2193.94,362.45 2196.15,362.449 2198.35,362.449 2200.56,362.449 2202.76,362.449 2204.97,362.449 2207.18,362.449 2209.38,362.448 2211.59,362.448 2213.79,362.448 2216,362.448 2218.2,362.448 2220.41,362.448 2222.62,362.447 2224.82,362.447 2227.03,362.447 2229.23,362.447 2231.44,362.447 2233.64,362.447 2235.85,362.447 2238.06,362.446 2240.26,362.446 2242.47,362.446 2244.67,362.446 2246.88,362.446 2249.08,362.446 2251.29,362.445 2253.5,362.445 2255.7,362.445 2257.91,362.445 2260.11,362.445 2262.32,362.445 2264.53,362.445 2266.73,362.444 2268.94,362.444 2271.14,362.444 2273.35,362.444 2275.55,362.444 2277.76,362.444 2279.97,362.444 2282.17,362.444 2284.38,362.443 2286.58,362.443 2288.79,362.443 2290.99,362.443 2293.2,362.443 2295.41,362.443 2297.61,362.443 2299.82,362.443 2302.02,362.442 2304.23,362.442 2306.43,362.442 2308.64,362.442 2310.85,362.442 2313.05,362.442 2315.26,362.442 2317.46,362.442 2319.67,362.442 2321.88,362.442 2324.08,362.441 2326.29,362.441 2328.49,362.441 2330.7,362.441 2332.9,362.441 2335.11,362.441 2337.32,362.441 2339.52,362.441 2341.73,362.441 2343.93,362.441 2346.14,362.441 2348.34,362.44 2350.55,362.44 2352.76,362.44 "/>
<path clip-path="url(#clip930)" d="M1786.91 1377.32 L2279.3 1377.32 L2279.3 1273.64 L1786.91 1273.64  Z" fill="#ffffff" fill-rule="evenodd" fill-opacity="1"/>
<polyline clip-path="url(#clip930)" style="stroke:#000000; stroke-linecap:round; stroke-linejoin:round; stroke-width:4; stroke-opacity:1; fill:none" points="1786.91,1377.32 2279.3,1377.32 2279.3,1273.64 1786.91,1273.64 1786.91,1377.32 "/>
<polyline clip-path="url(#clip930)" style="stroke:#009af9; stroke-linecap:round; stroke-linejoin:round; stroke-width:4; stroke-opacity:1; fill:none" points="1811.4,1325.48 1958.3,1325.48 "/>
<path clip-path="url(#clip930)" d="M1996.19 1329.72 Q1991.02 1329.72 1989.03 1330.9 Q1987.04 1332.08 1987.04 1334.93 Q1987.04 1337.2 1988.52 1338.54 Q1990.03 1339.86 1992.6 1339.86 Q1996.14 1339.86 1998.27 1337.36 Q2000.42 1334.84 2000.42 1330.67 L2000.42 1329.72 L1996.19 1329.72 M2004.68 1327.96 L2004.68 1342.76 L2000.42 1342.76 L2000.42 1338.82 Q1998.96 1341.18 1996.79 1342.32 Q1994.61 1343.43 1991.46 1343.43 Q1987.48 1343.43 1985.12 1341.2 Q1982.78 1338.96 1982.78 1335.21 Q1982.78 1330.83 1985.7 1328.61 Q1988.64 1326.39 1994.45 1326.39 L2000.42 1326.39 L2000.42 1325.97 Q2000.42 1323.03 1998.48 1321.44 Q1996.56 1319.82 1993.06 1319.82 Q1990.84 1319.82 1988.73 1320.35 Q1986.63 1320.88 1984.68 1321.95 L1984.68 1318.01 Q1987.02 1317.11 1989.22 1316.67 Q1991.42 1316.2 1993.5 1316.2 Q1999.13 1316.2 2001.9 1319.12 Q2004.68 1322.04 2004.68 1327.96 Z" fill="#000000" fill-rule="nonzero" fill-opacity="1" /><path clip-path="url(#clip930)" d="M2032.11 1317.82 L2032.11 1321.81 Q2030.31 1320.81 2028.48 1320.32 Q2026.67 1319.82 2024.82 1319.82 Q2020.68 1319.82 2018.39 1322.45 Q2016.09 1325.07 2016.09 1329.82 Q2016.09 1334.56 2018.39 1337.2 Q2020.68 1339.82 2024.82 1339.82 Q2026.67 1339.82 2028.48 1339.33 Q2030.31 1338.82 2032.11 1337.82 L2032.11 1341.76 Q2030.33 1342.59 2028.41 1343.01 Q2026.51 1343.43 2024.36 1343.43 Q2018.5 1343.43 2015.05 1339.75 Q2011.6 1336.07 2011.6 1329.82 Q2011.6 1323.47 2015.08 1319.84 Q2018.57 1316.2 2024.64 1316.2 Q2026.6 1316.2 2028.48 1316.62 Q2030.35 1317.01 2032.11 1317.82 Z" fill="#000000" fill-rule="nonzero" fill-opacity="1" /><path clip-path="url(#clip930)" d="M2043.73 1309.47 L2043.73 1316.83 L2052.51 1316.83 L2052.51 1320.14 L2043.73 1320.14 L2043.73 1334.21 Q2043.73 1337.38 2044.59 1338.29 Q2045.47 1339.19 2048.13 1339.19 L2052.51 1339.19 L2052.51 1342.76 L2048.13 1342.76 Q2043.2 1342.76 2041.33 1340.93 Q2039.45 1339.07 2039.45 1334.21 L2039.45 1320.14 L2036.33 1320.14 L2036.33 1316.83 L2039.45 1316.83 L2039.45 1309.47 L2043.73 1309.47 Z" fill="#000000" fill-rule="nonzero" fill-opacity="1" /><path clip-path="url(#clip930)" d="M2067.37 1326.11 L2067.37 1333.33 L2075.49 1333.33 L2075.49 1335.53 L2067.37 1335.53 L2067.37 1342.76 L2064.94 1342.76 L2064.94 1335.53 L2056.81 1335.53 L2056.81 1333.33 L2064.94 1333.33 L2064.94 1326.11 L2067.37 1326.11 Z" fill="#000000" fill-rule="nonzero" fill-opacity="1" /><path clip-path="url(#clip930)" d="M2103.32 1321.81 Q2104.91 1318.94 2107.14 1317.57 Q2109.36 1316.2 2112.37 1316.2 Q2116.42 1316.2 2118.62 1319.05 Q2120.82 1321.88 2120.82 1327.11 L2120.82 1342.76 L2116.53 1342.76 L2116.53 1327.25 Q2116.53 1323.52 2115.21 1321.71 Q2113.89 1319.91 2111.19 1319.91 Q2107.88 1319.91 2105.95 1322.11 Q2104.03 1324.31 2104.03 1328.1 L2104.03 1342.76 L2099.75 1342.76 L2099.75 1327.25 Q2099.75 1323.5 2098.43 1321.71 Q2097.11 1319.91 2094.36 1319.91 Q2091.09 1319.91 2089.17 1322.13 Q2087.25 1324.33 2087.25 1328.1 L2087.25 1342.76 L2082.97 1342.76 L2082.97 1316.83 L2087.25 1316.83 L2087.25 1320.86 Q2088.71 1318.47 2090.75 1317.34 Q2092.78 1316.2 2095.58 1316.2 Q2098.41 1316.2 2100.38 1317.64 Q2102.37 1319.07 2103.32 1321.81 Z" fill="#000000" fill-rule="nonzero" fill-opacity="1" /><path clip-path="url(#clip930)" d="M2141.09 1329.72 Q2135.93 1329.72 2133.94 1330.9 Q2131.95 1332.08 2131.95 1334.93 Q2131.95 1337.2 2133.43 1338.54 Q2134.94 1339.86 2137.51 1339.86 Q2141.05 1339.86 2143.18 1337.36 Q2145.33 1334.84 2145.33 1330.67 L2145.33 1329.72 L2141.09 1329.72 M2149.59 1327.96 L2149.59 1342.76 L2145.33 1342.76 L2145.33 1338.82 Q2143.87 1341.18 2141.7 1342.32 Q2139.52 1343.43 2136.37 1343.43 Q2132.39 1343.43 2130.03 1341.2 Q2127.69 1338.96 2127.69 1335.21 Q2127.69 1330.83 2130.61 1328.61 Q2133.55 1326.39 2139.36 1326.39 L2145.33 1326.39 L2145.33 1325.97 Q2145.33 1323.03 2143.39 1321.44 Q2141.46 1319.82 2137.97 1319.82 Q2135.75 1319.82 2133.64 1320.35 Q2131.53 1320.88 2129.59 1321.95 L2129.59 1318.01 Q2131.93 1317.11 2134.13 1316.67 Q2136.32 1316.2 2138.41 1316.2 Q2144.03 1316.2 2146.81 1319.12 Q2149.59 1322.04 2149.59 1327.96 Z" fill="#000000" fill-rule="nonzero" fill-opacity="1" /><path clip-path="url(#clip930)" d="M2174.89 1317.59 L2174.89 1321.62 Q2173.08 1320.7 2171.14 1320.23 Q2169.2 1319.77 2167.11 1319.77 Q2163.94 1319.77 2162.34 1320.74 Q2160.77 1321.71 2160.77 1323.66 Q2160.77 1325.14 2161.9 1326 Q2163.04 1326.83 2166.46 1327.59 L2167.92 1327.92 Q2172.46 1328.89 2174.36 1330.67 Q2176.28 1332.43 2176.28 1335.6 Q2176.28 1339.21 2173.41 1341.32 Q2170.56 1343.43 2165.56 1343.43 Q2163.48 1343.43 2161.21 1343.01 Q2158.96 1342.62 2156.46 1341.81 L2156.46 1337.41 Q2158.82 1338.63 2161.12 1339.26 Q2163.41 1339.86 2165.65 1339.86 Q2168.66 1339.86 2170.28 1338.84 Q2171.9 1337.8 2171.9 1335.93 Q2171.9 1334.19 2170.72 1333.26 Q2169.57 1332.34 2165.61 1331.48 L2164.13 1331.14 Q2160.17 1330.3 2158.41 1328.59 Q2156.65 1326.85 2156.65 1323.84 Q2156.65 1320.19 2159.24 1318.2 Q2161.83 1316.2 2166.6 1316.2 Q2168.96 1316.2 2171.05 1316.55 Q2173.13 1316.9 2174.89 1317.59 Z" fill="#000000" fill-rule="nonzero" fill-opacity="1" /><path clip-path="url(#clip930)" d="M2199.59 1317.59 L2199.59 1321.62 Q2197.78 1320.7 2195.84 1320.23 Q2193.89 1319.77 2191.81 1319.77 Q2188.64 1319.77 2187.04 1320.74 Q2185.47 1321.71 2185.47 1323.66 Q2185.47 1325.14 2186.6 1326 Q2187.74 1326.83 2191.16 1327.59 L2192.62 1327.92 Q2197.16 1328.89 2199.06 1330.67 Q2200.98 1332.43 2200.98 1335.6 Q2200.98 1339.21 2198.11 1341.32 Q2195.26 1343.43 2190.26 1343.43 Q2188.18 1343.43 2185.91 1343.01 Q2183.66 1342.62 2181.16 1341.81 L2181.16 1337.41 Q2183.52 1338.63 2185.82 1339.26 Q2188.11 1339.86 2190.35 1339.86 Q2193.36 1339.86 2194.98 1338.84 Q2196.6 1337.8 2196.6 1335.93 Q2196.6 1334.19 2195.42 1333.26 Q2194.26 1332.34 2190.31 1331.48 L2188.82 1331.14 Q2184.87 1330.3 2183.11 1328.59 Q2181.35 1326.85 2181.35 1323.84 Q2181.35 1320.19 2183.94 1318.2 Q2186.53 1316.2 2191.3 1316.2 Q2193.66 1316.2 2195.75 1316.55 Q2197.83 1316.9 2199.59 1317.59 Z" fill="#000000" fill-rule="nonzero" fill-opacity="1" /><path clip-path="url(#clip930)" d="M2217.02 1326.11 L2217.02 1333.33 L2225.14 1333.33 L2225.14 1335.53 L2217.02 1335.53 L2217.02 1342.76 L2214.59 1342.76 L2214.59 1335.53 L2206.46 1335.53 L2206.46 1333.33 L2214.59 1333.33 L2214.59 1326.11 L2217.02 1326.11 Z" fill="#000000" fill-rule="nonzero" fill-opacity="1" /><path clip-path="url(#clip930)" d="M2240.26 1306.74 L2244.52 1306.74 L2244.52 1312.13 L2240.26 1312.13 L2240.26 1306.74 M2242.44 1316.2 L2242.44 1316.2 M2254.33 1316.83 L2244.96 1329.45 L2254.82 1342.76 L2249.8 1342.76 L2242.25 1332.57 L2234.7 1342.76 L2229.68 1342.76 L2239.75 1329.19 L2230.54 1316.83 L2235.56 1316.83 L2242.44 1326.07 L2249.31 1316.83 L2254.33 1316.83 Z" fill="#000000" fill-rule="nonzero" fill-opacity="1" /></svg>
