<?xml version="1.0" encoding="utf-8"?>
<svg xmlns="http://www.w3.org/2000/svg" xmlns:xlink="http://www.w3.org/1999/xlink" width="600" height="400" viewBox="0 0 2400 1600">
<defs>
  <clipPath id="clip050">
    <rect x="0" y="0" width="2400" height="1600"/>
  </clipPath>
</defs>
<path clip-path="url(#clip050)" d="M0 1600 L2400 1600 L2400 0 L0 0  Z" fill="#ffffff" fill-rule="evenodd" fill-opacity="1"/>
<defs>
  <clipPath id="clip051">
    <rect x="480" y="0" width="1681" height="1600"/>
  </clipPath>
</defs>
<path clip-path="url(#clip050)" d="M86.9921 1505.26 L2352.76 1505.26 L2352.76 47.2441 L86.9921 47.2441  Z" fill="#ffffff" fill-rule="evenodd" fill-opacity="1"/>
<defs>
  <clipPath id="clip052">
    <rect x="86" y="47" width="2267" height="1459"/>
  </clipPath>
</defs>
<polyline clip-path="url(#clip052)" style="stroke:#000000; stroke-linecap:round; stroke-linejoin:round; stroke-width:2; stroke-opacity:0.1; fill:none" points="86.9921,1505.26 86.9921,47.2441 "/>
<polyline clip-path="url(#clip052)" style="stroke:#000000; stroke-linecap:round; stroke-linejoin:round; stroke-width:2; stroke-opacity:0.1; fill:none" points="653.433,1505.26 653.433,47.2441 "/>
<polyline clip-path="url(#clip052)" style="stroke:#000000; stroke-linecap:round; stroke-linejoin:round; stroke-width:2; stroke-opacity:0.1; fill:none" points="1219.87,1505.26 1219.87,47.2441 "/>
<polyline clip-path="url(#clip052)" style="stroke:#000000; stroke-linecap:round; stroke-linejoin:round; stroke-width:2; stroke-opacity:0.1; fill:none" points="1786.31,1505.26 1786.31,47.2441 "/>
<polyline clip-path="url(#clip052)" style="stroke:#000000; stroke-linecap:round; stroke-linejoin:round; stroke-width:2; stroke-opacity:0.1; fill:none" points="2352.76,1505.26 2352.76,47.2441 "/>
<polyline clip-path="url(#clip050)" style="stroke:#000000; stroke-linecap:round; stroke-linejoin:round; stroke-width:4; stroke-opacity:1; fill:none" points="86.9921,1505.26 2352.76,1505.26 "/>
<polyline clip-path="url(#clip050)" style="stroke:#000000; stroke-linecap:round; stroke-linejoin:round; stroke-width:4; stroke-opacity:1; fill:none" points="86.9921,1505.26 86.9921,1486.36 "/>
<polyline clip-path="url(#clip050)" style="stroke:#000000; stroke-linecap:round; stroke-linejoin:round; stroke-width:4; stroke-opacity:1; fill:none" points="653.433,1505.26 653.433,1486.36 "/>
<polyline clip-path="url(#clip050)" style="stroke:#000000; stroke-linecap:round; stroke-linejoin:round; stroke-width:4; stroke-opacity:1; fill:none" points="1219.87,1505.26 1219.87,1486.36 "/>
<polyline clip-path="url(#clip050)" style="stroke:#000000; stroke-linecap:round; stroke-linejoin:round; stroke-width:4; stroke-opacity:1; fill:none" points="1786.31,1505.26 1786.31,1486.36 "/>
<polyline clip-path="url(#clip050)" style="stroke:#000000; stroke-linecap:round; stroke-linejoin:round; stroke-width:4; stroke-opacity:1; fill:none" points="2352.76,1505.26 2352.76,1486.36 "/>
<path clip-path="url(#clip050)" d="M64.3765 1536.18 Q60.7654 1536.18 58.9367 1539.74 Q57.1312 1543.28 57.1312 1550.41 Q57.1312 1557.52 58.9367 1561.09 Q60.7654 1564.63 64.3765 1564.63 Q68.0107 1564.63 69.8163 1561.09 Q71.645 1557.52 71.645 1550.41 Q71.645 1543.28 69.8163 1539.74 Q68.0107 1536.18 64.3765 1536.18 M64.3765 1532.47 Q70.1867 1532.47 73.2422 1537.08 Q76.3209 1541.66 76.3209 1550.41 Q76.3209 1559.14 73.2422 1563.75 Q70.1867 1568.33 64.3765 1568.33 Q58.5664 1568.33 55.4877 1563.75 Q52.4321 1559.14 52.4321 1550.41 Q52.4321 1541.66 55.4877 1537.08 Q58.5664 1532.47 64.3765 1532.47 Z" fill="#000000" fill-rule="nonzero" fill-opacity="1" /><path clip-path="url(#clip050)" d="M84.5384 1561.78 L89.4227 1561.78 L89.4227 1567.66 L84.5384 1567.66 L84.5384 1561.78 Z" fill="#000000" fill-rule="nonzero" fill-opacity="1" /><path clip-path="url(#clip050)" d="M109.608 1536.18 Q105.997 1536.18 104.168 1539.74 Q102.362 1543.28 102.362 1550.41 Q102.362 1557.52 104.168 1561.09 Q105.997 1564.63 109.608 1564.63 Q113.242 1564.63 115.048 1561.09 Q116.876 1557.52 116.876 1550.41 Q116.876 1543.28 115.048 1539.74 Q113.242 1536.18 109.608 1536.18 M109.608 1532.47 Q115.418 1532.47 118.473 1537.08 Q121.552 1541.66 121.552 1550.41 Q121.552 1559.14 118.473 1563.75 Q115.418 1568.33 109.608 1568.33 Q103.798 1568.33 100.719 1563.75 Q97.6634 1559.14 97.6634 1550.41 Q97.6634 1541.66 100.719 1537.08 Q103.798 1532.47 109.608 1532.47 Z" fill="#000000" fill-rule="nonzero" fill-opacity="1" /><path clip-path="url(#clip050)" d="M631.315 1536.18 Q627.704 1536.18 625.875 1539.74 Q624.07 1543.28 624.07 1550.41 Q624.07 1557.52 625.875 1561.09 Q627.704 1564.63 631.315 1564.63 Q634.949 1564.63 636.755 1561.09 Q638.584 1557.52 638.584 1550.41 Q638.584 1543.28 636.755 1539.74 Q634.949 1536.18 631.315 1536.18 M631.315 1532.47 Q637.125 1532.47 640.181 1537.08 Q643.26 1541.66 643.26 1550.41 Q643.26 1559.14 640.181 1563.75 Q637.125 1568.33 631.315 1568.33 Q625.505 1568.33 622.426 1563.75 Q619.371 1559.14 619.371 1550.41 Q619.371 1541.66 622.426 1537.08 Q625.505 1532.47 631.315 1532.47 Z" fill="#000000" fill-rule="nonzero" fill-opacity="1" /><path clip-path="url(#clip050)" d="M651.477 1561.78 L656.361 1561.78 L656.361 1567.66 L651.477 1567.66 L651.477 1561.78 Z" fill="#000000" fill-rule="nonzero" fill-opacity="1" /><path clip-path="url(#clip050)" d="M666.593 1533.1 L684.949 1533.1 L684.949 1537.04 L670.875 1537.04 L670.875 1545.51 Q671.894 1545.16 672.912 1545 Q673.931 1544.81 674.949 1544.81 Q680.736 1544.81 684.116 1547.98 Q687.495 1551.16 687.495 1556.57 Q687.495 1562.15 684.023 1565.25 Q680.551 1568.33 674.232 1568.33 Q672.056 1568.33 669.787 1567.96 Q667.542 1567.59 665.134 1566.85 L665.134 1562.15 Q667.218 1563.28 669.44 1563.84 Q671.662 1564.4 674.139 1564.4 Q678.144 1564.4 680.482 1562.29 Q682.819 1560.18 682.819 1556.57 Q682.819 1552.96 680.482 1550.85 Q678.144 1548.75 674.139 1548.75 Q672.264 1548.75 670.389 1549.16 Q668.537 1549.58 666.593 1550.46 L666.593 1533.1 Z" fill="#000000" fill-rule="nonzero" fill-opacity="1" /><path clip-path="url(#clip050)" d="M1187.03 1563.72 L1194.67 1563.72 L1194.67 1537.36 L1186.36 1539.03 L1186.36 1534.77 L1194.62 1533.1 L1199.3 1533.1 L1199.3 1563.72 L1206.93 1563.72 L1206.93 1567.66 L1187.03 1567.66 L1187.03 1563.72 Z" fill="#000000" fill-rule="nonzero" fill-opacity="1" /><path clip-path="url(#clip050)" d="M1216.38 1561.78 L1221.26 1561.78 L1221.26 1567.66 L1216.38 1567.66 L1216.38 1561.78 Z" fill="#000000" fill-rule="nonzero" fill-opacity="1" /><path clip-path="url(#clip050)" d="M1241.45 1536.18 Q1237.84 1536.18 1236.01 1539.74 Q1234.2 1543.28 1234.2 1550.41 Q1234.2 1557.52 1236.01 1561.09 Q1237.84 1564.63 1241.45 1564.63 Q1245.08 1564.63 1246.89 1561.09 Q1248.72 1557.52 1248.72 1550.41 Q1248.72 1543.28 1246.89 1539.74 Q1245.08 1536.18 1241.45 1536.18 M1241.45 1532.47 Q1247.26 1532.47 1250.31 1537.08 Q1253.39 1541.66 1253.39 1550.41 Q1253.39 1559.14 1250.31 1563.75 Q1247.26 1568.33 1241.45 1568.33 Q1235.64 1568.33 1232.56 1563.75 Q1229.5 1559.14 1229.5 1550.41 Q1229.5 1541.66 1232.56 1537.08 Q1235.64 1532.47 1241.45 1532.47 Z" fill="#000000" fill-rule="nonzero" fill-opacity="1" /><path clip-path="url(#clip050)" d="M1753.97 1563.72 L1761.6 1563.72 L1761.6 1537.36 L1753.29 1539.03 L1753.29 1534.77 L1761.56 1533.1 L1766.23 1533.1 L1766.23 1563.72 L1773.87 1563.72 L1773.87 1567.66 L1753.97 1567.66 L1753.97 1563.72 Z" fill="#000000" fill-rule="nonzero" fill-opacity="1" /><path clip-path="url(#clip050)" d="M1783.32 1561.78 L1788.2 1561.78 L1788.2 1567.66 L1783.32 1567.66 L1783.32 1561.78 Z" fill="#000000" fill-rule="nonzero" fill-opacity="1" /><path clip-path="url(#clip050)" d="M1798.43 1533.1 L1816.79 1533.1 L1816.79 1537.04 L1802.72 1537.04 L1802.72 1545.51 Q1803.73 1545.16 1804.75 1545 Q1805.77 1544.81 1806.79 1544.81 Q1812.58 1544.81 1815.96 1547.98 Q1819.34 1551.16 1819.34 1556.57 Q1819.34 1562.15 1815.86 1565.25 Q1812.39 1568.33 1806.07 1568.33 Q1803.9 1568.33 1801.63 1567.96 Q1799.38 1567.59 1796.97 1566.85 L1796.97 1562.15 Q1799.06 1563.28 1801.28 1563.84 Q1803.5 1564.4 1805.98 1564.4 Q1809.98 1564.4 1812.32 1562.29 Q1814.66 1560.18 1814.66 1556.57 Q1814.66 1552.96 1812.32 1550.85 Q1809.98 1548.75 1805.98 1548.75 Q1804.1 1548.75 1802.23 1549.16 Q1800.38 1549.58 1798.43 1550.46 L1798.43 1533.1 Z" fill="#000000" fill-rule="nonzero" fill-opacity="1" /><path clip-path="url(#clip050)" d="M2323.99 1563.72 L2340.31 1563.72 L2340.31 1567.66 L2318.37 1567.66 L2318.37 1563.72 Q2321.03 1560.97 2325.61 1556.34 Q2330.22 1551.69 2331.4 1550.35 Q2333.65 1547.82 2334.53 1546.09 Q2335.43 1544.33 2335.43 1542.64 Q2335.43 1539.88 2333.49 1538.15 Q2331.56 1536.41 2328.46 1536.41 Q2326.26 1536.41 2323.81 1537.17 Q2321.38 1537.94 2318.6 1539.49 L2318.6 1534.77 Q2321.43 1533.63 2323.88 1533.05 Q2326.33 1532.47 2328.37 1532.47 Q2333.74 1532.47 2336.93 1535.16 Q2340.13 1537.85 2340.13 1542.34 Q2340.13 1544.47 2339.32 1546.39 Q2338.53 1548.28 2336.42 1550.88 Q2335.85 1551.55 2332.74 1554.77 Q2329.64 1557.96 2323.99 1563.72 Z" fill="#000000" fill-rule="nonzero" fill-opacity="1" /><path clip-path="url(#clip050)" d="M2350.13 1561.78 L2355.01 1561.78 L2355.01 1567.66 L2350.13 1567.66 L2350.13 1561.78 Z" fill="#000000" fill-rule="nonzero" fill-opacity="1" /><path clip-path="url(#clip050)" d="M2375.2 1536.18 Q2371.59 1536.18 2369.76 1539.74 Q2367.95 1543.28 2367.95 1550.41 Q2367.95 1557.52 2369.76 1561.09 Q2371.59 1564.63 2375.2 1564.63 Q2378.83 1564.63 2380.64 1561.09 Q2382.47 1557.52 2382.47 1550.41 Q2382.47 1543.28 2380.64 1539.74 Q2378.83 1536.18 2375.2 1536.18 M2375.2 1532.47 Q2381.01 1532.47 2384.06 1537.08 Q2387.14 1541.66 2387.14 1550.41 Q2387.14 1559.14 2384.06 1563.75 Q2381.01 1568.33 2375.2 1568.33 Q2369.39 1568.33 2366.31 1563.75 Q2363.25 1559.14 2363.25 1550.41 Q2363.25 1541.66 2366.31 1537.08 Q2369.39 1532.47 2375.2 1532.47 Z" fill="#000000" fill-rule="nonzero" fill-opacity="1" /><path clip-path="url(#clip050)" d="M1218.94 1604.35 L1218.94 1614.48 L1231 1614.48 L1231 1619.03 L1218.94 1619.03 L1218.94 1638.38 Q1218.94 1642.74 1220.11 1643.98 Q1221.32 1645.22 1224.98 1645.22 L1231 1645.22 L1231 1650.12 L1224.98 1650.12 Q1218.2 1650.12 1215.62 1647.61 Q1213.05 1645.06 1213.05 1638.38 L1213.05 1619.03 L1208.75 1619.03 L1208.75 1614.48 L1213.05 1614.48 L1213.05 1604.35 L1218.94 1604.35 Z" fill="#000000" fill-rule="nonzero" fill-opacity="1" /><polyline clip-path="url(#clip052)" style="stroke:#000000; stroke-linecap:round; stroke-linejoin:round; stroke-width:2; stroke-opacity:0.1; fill:none" points="86.9921,1371.11 2352.76,1371.11 "/>
<polyline clip-path="url(#clip052)" style="stroke:#000000; stroke-linecap:round; stroke-linejoin:round; stroke-width:2; stroke-opacity:0.1; fill:none" points="86.9921,974.626 2352.76,974.626 "/>
<polyline clip-path="url(#clip052)" style="stroke:#000000; stroke-linecap:round; stroke-linejoin:round; stroke-width:2; stroke-opacity:0.1; fill:none" points="86.9921,578.137 2352.76,578.137 "/>
<polyline clip-path="url(#clip052)" style="stroke:#000000; stroke-linecap:round; stroke-linejoin:round; stroke-width:2; stroke-opacity:0.1; fill:none" points="86.9921,181.648 2352.76,181.648 "/>
<polyline clip-path="url(#clip050)" style="stroke:#000000; stroke-linecap:round; stroke-linejoin:round; stroke-width:4; stroke-opacity:1; fill:none" points="86.9921,1505.26 86.9921,47.2441 "/>
<polyline clip-path="url(#clip050)" style="stroke:#000000; stroke-linecap:round; stroke-linejoin:round; stroke-width:4; stroke-opacity:1; fill:none" points="86.9921,1371.11 105.89,1371.11 "/>
<polyline clip-path="url(#clip050)" style="stroke:#000000; stroke-linecap:round; stroke-linejoin:round; stroke-width:4; stroke-opacity:1; fill:none" points="86.9921,974.626 105.89,974.626 "/>
<polyline clip-path="url(#clip050)" style="stroke:#000000; stroke-linecap:round; stroke-linejoin:round; stroke-width:4; stroke-opacity:1; fill:none" points="86.9921,578.137 105.89,578.137 "/>
<polyline clip-path="url(#clip050)" style="stroke:#000000; stroke-linecap:round; stroke-linejoin:round; stroke-width:4; stroke-opacity:1; fill:none" points="86.9921,181.648 105.89,181.648 "/>
<path clip-path="url(#clip050)" d="M-96.6691 1356.91 Q-100.28 1356.91 -102.109 1360.48 Q-103.914 1364.02 -103.914 1371.15 Q-103.914 1378.26 -102.109 1381.82 Q-100.28 1385.36 -96.6691 1385.36 Q-93.0349 1385.36 -91.2293 1381.82 Q-89.4006 1378.26 -89.4006 1371.15 Q-89.4006 1364.02 -91.2293 1360.48 Q-93.0349 1356.91 -96.6691 1356.91 M-96.6691 1353.21 Q-90.859 1353.21 -87.8034 1357.82 Q-84.7247 1362.4 -84.7247 1371.15 Q-84.7247 1379.88 -87.8034 1384.48 Q-90.859 1389.07 -96.6691 1389.07 Q-102.479 1389.07 -105.558 1384.48 Q-108.614 1379.88 -108.614 1371.15 Q-108.614 1362.4 -105.558 1357.82 Q-102.479 1353.21 -96.6691 1353.21 Z" fill="#000000" fill-rule="nonzero" fill-opacity="1" /><path clip-path="url(#clip050)" d="M-76.5072 1382.51 L-71.623 1382.51 L-71.623 1388.39 L-76.5072 1388.39 L-76.5072 1382.51 Z" fill="#000000" fill-rule="nonzero" fill-opacity="1" /><path clip-path="url(#clip050)" d="M-51.4379 1356.91 Q-55.049 1356.91 -56.8777 1360.48 Q-58.6832 1364.02 -58.6832 1371.15 Q-58.6832 1378.26 -56.8777 1381.82 Q-55.049 1385.36 -51.4379 1385.36 Q-47.8036 1385.36 -45.9981 1381.82 Q-44.1694 1378.26 -44.1694 1371.15 Q-44.1694 1364.02 -45.9981 1360.48 Q-47.8036 1356.91 -51.4379 1356.91 M-51.4379 1353.21 Q-45.6277 1353.21 -42.5722 1357.82 Q-39.4935 1362.4 -39.4935 1371.15 Q-39.4935 1379.88 -42.5722 1384.48 Q-45.6277 1389.07 -51.4379 1389.07 Q-57.248 1389.07 -60.3267 1384.48 Q-63.3823 1379.88 -63.3823 1371.15 Q-63.3823 1362.4 -60.3267 1357.82 Q-57.248 1353.21 -51.4379 1353.21 Z" fill="#000000" fill-rule="nonzero" fill-opacity="1" /><path clip-path="url(#clip050)" d="M-21.276 1356.91 Q-24.8871 1356.91 -26.7158 1360.48 Q-28.5213 1364.02 -28.5213 1371.15 Q-28.5213 1378.26 -26.7158 1381.82 Q-24.8871 1385.36 -21.276 1385.36 Q-17.6418 1385.36 -15.8362 1381.82 Q-14.0075 1378.26 -14.0075 1371.15 Q-14.0075 1364.02 -15.8362 1360.48 Q-17.6418 1356.91 -21.276 1356.91 M-21.276 1353.21 Q-15.4659 1353.21 -12.4103 1357.82 Q-9.33162 1362.4 -9.33162 1371.15 Q-9.33162 1379.88 -12.4103 1384.48 Q-15.4659 1389.07 -21.276 1389.07 Q-27.0862 1389.07 -30.1648 1384.48 Q-33.2204 1379.88 -33.2204 1371.15 Q-33.2204 1362.4 -30.1648 1357.82 Q-27.0862 1353.21 -21.276 1353.21 Z" fill="#000000" fill-rule="nonzero" fill-opacity="1" /><path clip-path="url(#clip050)" d="M8.88587 1356.91 Q5.27478 1356.91 3.44608 1360.48 Q1.64054 1364.02 1.64054 1371.15 Q1.64054 1378.26 3.44608 1381.82 Q5.27478 1385.36 8.88587 1385.36 Q12.5201 1385.36 14.3257 1381.82 Q16.1543 1378.26 16.1543 1371.15 Q16.1543 1364.02 14.3257 1360.48 Q12.5201 1356.91 8.88587 1356.91 M8.88587 1353.21 Q14.696 1353.21 17.7516 1357.82 Q20.8303 1362.4 20.8303 1371.15 Q20.8303 1379.88 17.7516 1384.48 Q14.696 1389.07 8.88587 1389.07 Q3.07572 1389.07 -0.00297114 1384.48 Q-3.05851 1379.88 -3.05851 1371.15 Q-3.05851 1362.4 -0.00297114 1357.82 Q3.07572 1353.21 8.88587 1353.21 Z" fill="#000000" fill-rule="nonzero" fill-opacity="1" /><path clip-path="url(#clip050)" d="M39.0477 1356.91 Q35.4367 1356.91 33.608 1360.48 Q31.8024 1364.02 31.8024 1371.15 Q31.8024 1378.26 33.608 1381.82 Q35.4367 1385.36 39.0477 1385.36 Q42.682 1385.36 44.4875 1381.82 Q46.3162 1378.26 46.3162 1371.15 Q46.3162 1364.02 44.4875 1360.48 Q42.682 1356.91 39.0477 1356.91 M39.0477 1353.21 Q44.8579 1353.21 47.9134 1357.82 Q50.9921 1362.4 50.9921 1371.15 Q50.9921 1379.88 47.9134 1384.48 Q44.8579 1389.07 39.0477 1389.07 Q33.2376 1389.07 30.1589 1384.48 Q27.1034 1379.88 27.1034 1371.15 Q27.1034 1362.4 30.1589 1357.82 Q33.2376 1353.21 39.0477 1353.21 Z" fill="#000000" fill-rule="nonzero" fill-opacity="1" /><path clip-path="url(#clip050)" d="M-95.6738 960.424 Q-99.2848 960.424 -101.114 963.989 Q-102.919 967.531 -102.919 974.66 Q-102.919 981.767 -101.114 985.332 Q-99.2848 988.873 -95.6738 988.873 Q-92.0395 988.873 -90.234 985.332 Q-88.4053 981.767 -88.4053 974.66 Q-88.4053 967.531 -90.234 963.989 Q-92.0395 960.424 -95.6738 960.424 M-95.6738 956.721 Q-89.8636 956.721 -86.8081 961.327 Q-83.7294 965.91 -83.7294 974.66 Q-83.7294 983.387 -86.8081 987.994 Q-89.8636 992.577 -95.6738 992.577 Q-101.484 992.577 -104.563 987.994 Q-107.618 983.387 -107.618 974.66 Q-107.618 965.91 -104.563 961.327 Q-101.484 956.721 -95.6738 956.721 Z" fill="#000000" fill-rule="nonzero" fill-opacity="1" /><path clip-path="url(#clip050)" d="M-75.5118 986.026 L-70.6276 986.026 L-70.6276 991.906 L-75.5118 991.906 L-75.5118 986.026 Z" fill="#000000" fill-rule="nonzero" fill-opacity="1" /><path clip-path="url(#clip050)" d="M-50.4425 960.424 Q-54.0536 960.424 -55.8823 963.989 Q-57.6878 967.531 -57.6878 974.66 Q-57.6878 981.767 -55.8823 985.332 Q-54.0536 988.873 -50.4425 988.873 Q-46.8083 988.873 -45.0027 985.332 Q-43.174 981.767 -43.174 974.66 Q-43.174 967.531 -45.0027 963.989 Q-46.8083 960.424 -50.4425 960.424 M-50.4425 956.721 Q-44.6324 956.721 -41.5768 961.327 Q-38.4981 965.91 -38.4981 974.66 Q-38.4981 983.387 -41.5768 987.994 Q-44.6324 992.577 -50.4425 992.577 Q-56.2527 992.577 -59.3314 987.994 Q-62.3869 983.387 -62.3869 974.66 Q-62.3869 965.91 -59.3314 961.327 Q-56.2527 956.721 -50.4425 956.721 Z" fill="#000000" fill-rule="nonzero" fill-opacity="1" /><path clip-path="url(#clip050)" d="M-20.2806 960.424 Q-23.8917 960.424 -25.7204 963.989 Q-27.526 967.531 -27.526 974.66 Q-27.526 981.767 -25.7204 985.332 Q-23.8917 988.873 -20.2806 988.873 Q-16.6464 988.873 -14.8409 985.332 Q-13.0122 981.767 -13.0122 974.66 Q-13.0122 967.531 -14.8409 963.989 Q-16.6464 960.424 -20.2806 960.424 M-20.2806 956.721 Q-14.4705 956.721 -11.4149 961.327 Q-8.33626 965.91 -8.33626 974.66 Q-8.33626 983.387 -11.4149 987.994 Q-14.4705 992.577 -20.2806 992.577 Q-26.0908 992.577 -29.1695 987.994 Q-32.225 983.387 -32.225 974.66 Q-32.225 965.91 -29.1695 961.327 Q-26.0908 956.721 -20.2806 956.721 Z" fill="#000000" fill-rule="nonzero" fill-opacity="1" /><path clip-path="url(#clip050)" d="M9.88124 960.424 Q6.27014 960.424 4.44145 963.989 Q2.6359 967.531 2.6359 974.66 Q2.6359 981.767 4.44145 985.332 Q6.27014 988.873 9.88124 988.873 Q13.5155 988.873 15.321 985.332 Q17.1497 981.767 17.1497 974.66 Q17.1497 967.531 15.321 963.989 Q13.5155 960.424 9.88124 960.424 M9.88124 956.721 Q15.6914 956.721 18.7469 961.327 Q21.8256 965.91 21.8256 974.66 Q21.8256 983.387 18.7469 987.994 Q15.6914 992.577 9.88124 992.577 Q4.07108 992.577 0.992394 987.994 Q-2.06315 983.387 -2.06315 974.66 Q-2.06315 965.91 0.992394 961.327 Q4.07108 956.721 9.88124 956.721 Z" fill="#000000" fill-rule="nonzero" fill-opacity="1" /><path clip-path="url(#clip050)" d="M30.0895 957.346 L48.4458 957.346 L48.4458 961.281 L34.3718 961.281 L34.3718 969.753 Q35.3904 969.406 36.4089 969.244 Q37.4274 969.059 38.4459 969.059 Q44.2329 969.059 47.6125 972.23 Q50.9921 975.401 50.9921 980.818 Q50.9921 986.396 47.5199 989.498 Q44.0477 992.577 37.7283 992.577 Q35.5524 992.577 33.2839 992.207 Q31.0385 991.836 28.6311 991.096 L28.6311 986.396 Q30.7145 987.531 32.9367 988.086 Q35.1589 988.642 37.6357 988.642 Q41.6403 988.642 43.9783 986.535 Q46.3162 984.429 46.3162 980.818 Q46.3162 977.207 43.9783 975.1 Q41.6403 972.994 37.6357 972.994 Q35.7607 972.994 33.8857 973.41 Q32.0339 973.827 30.0895 974.707 L30.0895 957.346 Z" fill="#000000" fill-rule="nonzero" fill-opacity="1" /><path clip-path="url(#clip050)" d="M-96.6691 563.936 Q-100.28 563.936 -102.109 567.5 Q-103.914 571.042 -103.914 578.172 Q-103.914 585.278 -102.109 588.843 Q-100.28 592.385 -96.6691 592.385 Q-93.0349 592.385 -91.2293 588.843 Q-89.4006 585.278 -89.4006 578.172 Q-89.4006 571.042 -91.2293 567.5 Q-93.0349 563.936 -96.6691 563.936 M-96.6691 560.232 Q-90.859 560.232 -87.8034 564.838 Q-84.7247 569.422 -84.7247 578.172 Q-84.7247 586.899 -87.8034 591.505 Q-90.859 596.088 -96.6691 596.088 Q-102.479 596.088 -105.558 591.505 Q-108.614 586.899 -108.614 578.172 Q-108.614 569.422 -105.558 564.838 Q-102.479 560.232 -96.6691 560.232 Z" fill="#000000" fill-rule="nonzero" fill-opacity="1" /><path clip-path="url(#clip050)" d="M-76.5072 589.537 L-71.623 589.537 L-71.623 595.417 L-76.5072 595.417 L-76.5072 589.537 Z" fill="#000000" fill-rule="nonzero" fill-opacity="1" /><path clip-path="url(#clip050)" d="M-51.4379 563.936 Q-55.049 563.936 -56.8777 567.5 Q-58.6832 571.042 -58.6832 578.172 Q-58.6832 585.278 -56.8777 588.843 Q-55.049 592.385 -51.4379 592.385 Q-47.8036 592.385 -45.9981 588.843 Q-44.1694 585.278 -44.1694 578.172 Q-44.1694 571.042 -45.9981 567.5 Q-47.8036 563.936 -51.4379 563.936 M-51.4379 560.232 Q-45.6277 560.232 -42.5722 564.838 Q-39.4935 569.422 -39.4935 578.172 Q-39.4935 586.899 -42.5722 591.505 Q-45.6277 596.088 -51.4379 596.088 Q-57.248 596.088 -60.3267 591.505 Q-63.3823 586.899 -63.3823 578.172 Q-63.3823 569.422 -60.3267 564.838 Q-57.248 560.232 -51.4379 560.232 Z" fill="#000000" fill-rule="nonzero" fill-opacity="1" /><path clip-path="url(#clip050)" d="M-21.276 563.936 Q-24.8871 563.936 -26.7158 567.5 Q-28.5213 571.042 -28.5213 578.172 Q-28.5213 585.278 -26.7158 588.843 Q-24.8871 592.385 -21.276 592.385 Q-17.6418 592.385 -15.8362 588.843 Q-14.0075 585.278 -14.0075 578.172 Q-14.0075 571.042 -15.8362 567.5 Q-17.6418 563.936 -21.276 563.936 M-21.276 560.232 Q-15.4659 560.232 -12.4103 564.838 Q-9.33162 569.422 -9.33162 578.172 Q-9.33162 586.899 -12.4103 591.505 Q-15.4659 596.088 -21.276 596.088 Q-27.0862 596.088 -30.1648 591.505 Q-33.2204 586.899 -33.2204 578.172 Q-33.2204 569.422 -30.1648 564.838 Q-27.0862 560.232 -21.276 560.232 Z" fill="#000000" fill-rule="nonzero" fill-opacity="1" /><path clip-path="url(#clip050)" d="M-0.303895 591.482 L7.33495 591.482 L7.33495 565.116 L-0.975188 566.783 L-0.975188 562.524 L7.28866 560.857 L11.9646 560.857 L11.9646 591.482 L19.6034 591.482 L19.6034 595.417 L-0.303895 595.417 L-0.303895 591.482 Z" fill="#000000" fill-rule="nonzero" fill-opacity="1" /><path clip-path="url(#clip050)" d="M39.0477 563.936 Q35.4367 563.936 33.608 567.5 Q31.8024 571.042 31.8024 578.172 Q31.8024 585.278 33.608 588.843 Q35.4367 592.385 39.0477 592.385 Q42.682 592.385 44.4875 588.843 Q46.3162 585.278 46.3162 578.172 Q46.3162 571.042 44.4875 567.5 Q42.682 563.936 39.0477 563.936 M39.0477 560.232 Q44.8579 560.232 47.9134 564.838 Q50.9921 569.422 50.9921 578.172 Q50.9921 586.899 47.9134 591.505 Q44.8579 596.088 39.0477 596.088 Q33.2376 596.088 30.1589 591.505 Q27.1034 586.899 27.1034 578.172 Q27.1034 569.422 30.1589 564.838 Q33.2376 560.232 39.0477 560.232 Z" fill="#000000" fill-rule="nonzero" fill-opacity="1" /><path clip-path="url(#clip050)" d="M-95.6738 167.447 Q-99.2848 167.447 -101.114 171.012 Q-102.919 174.553 -102.919 181.683 Q-102.919 188.789 -101.114 192.354 Q-99.2848 195.896 -95.6738 195.896 Q-92.0395 195.896 -90.234 192.354 Q-88.4053 188.789 -88.4053 181.683 Q-88.4053 174.553 -90.234 171.012 Q-92.0395 167.447 -95.6738 167.447 M-95.6738 163.743 Q-89.8636 163.743 -86.8081 168.35 Q-83.7294 172.933 -83.7294 181.683 Q-83.7294 190.41 -86.8081 195.016 Q-89.8636 199.6 -95.6738 199.6 Q-101.484 199.6 -104.563 195.016 Q-107.618 190.41 -107.618 181.683 Q-107.618 172.933 -104.563 168.35 Q-101.484 163.743 -95.6738 163.743 Z" fill="#000000" fill-rule="nonzero" fill-opacity="1" /><path clip-path="url(#clip050)" d="M-75.5118 193.049 L-70.6276 193.049 L-70.6276 198.928 L-75.5118 198.928 L-75.5118 193.049 Z" fill="#000000" fill-rule="nonzero" fill-opacity="1" /><path clip-path="url(#clip050)" d="M-50.4425 167.447 Q-54.0536 167.447 -55.8823 171.012 Q-57.6878 174.553 -57.6878 181.683 Q-57.6878 188.789 -55.8823 192.354 Q-54.0536 195.896 -50.4425 195.896 Q-46.8083 195.896 -45.0027 192.354 Q-43.174 188.789 -43.174 181.683 Q-43.174 174.553 -45.0027 171.012 Q-46.8083 167.447 -50.4425 167.447 M-50.4425 163.743 Q-44.6324 163.743 -41.5768 168.35 Q-38.4981 172.933 -38.4981 181.683 Q-38.4981 190.41 -41.5768 195.016 Q-44.6324 199.6 -50.4425 199.6 Q-56.2527 199.6 -59.3314 195.016 Q-62.3869 190.41 -62.3869 181.683 Q-62.3869 172.933 -59.3314 168.35 Q-56.2527 163.743 -50.4425 163.743 Z" fill="#000000" fill-rule="nonzero" fill-opacity="1" /><path clip-path="url(#clip050)" d="M-20.2806 167.447 Q-23.8917 167.447 -25.7204 171.012 Q-27.526 174.553 -27.526 181.683 Q-27.526 188.789 -25.7204 192.354 Q-23.8917 195.896 -20.2806 195.896 Q-16.6464 195.896 -14.8409 192.354 Q-13.0122 188.789 -13.0122 181.683 Q-13.0122 174.553 -14.8409 171.012 Q-16.6464 167.447 -20.2806 167.447 M-20.2806 163.743 Q-14.4705 163.743 -11.4149 168.35 Q-8.33626 172.933 -8.33626 181.683 Q-8.33626 190.41 -11.4149 195.016 Q-14.4705 199.6 -20.2806 199.6 Q-26.0908 199.6 -29.1695 195.016 Q-32.225 190.41 -32.225 181.683 Q-32.225 172.933 -29.1695 168.35 Q-26.0908 163.743 -20.2806 163.743 Z" fill="#000000" fill-rule="nonzero" fill-opacity="1" /><path clip-path="url(#clip050)" d="M0.69147 194.993 L8.33032 194.993 L8.33032 168.627 L0.0201769 170.294 L0.0201769 166.035 L8.28402 164.368 L12.9599 164.368 L12.9599 194.993 L20.5988 194.993 L20.5988 198.928 L0.69147 198.928 L0.69147 194.993 Z" fill="#000000" fill-rule="nonzero" fill-opacity="1" /><path clip-path="url(#clip050)" d="M30.0895 164.368 L48.4458 164.368 L48.4458 168.303 L34.3718 168.303 L34.3718 176.776 Q35.3904 176.428 36.4089 176.266 Q37.4274 176.081 38.4459 176.081 Q44.2329 176.081 47.6125 179.252 Q50.9921 182.424 50.9921 187.84 Q50.9921 193.419 47.5199 196.521 Q44.0477 199.6 37.7283 199.6 Q35.5524 199.6 33.2839 199.229 Q31.0385 198.859 28.6311 198.118 L28.6311 193.419 Q30.7145 194.553 32.9367 195.109 Q35.1589 195.664 37.6357 195.664 Q41.6403 195.664 43.9783 193.558 Q46.3162 191.451 46.3162 187.84 Q46.3162 184.229 43.9783 182.123 Q41.6403 180.016 37.6357 180.016 Q35.7607 180.016 33.8857 180.433 Q32.0339 180.85 30.0895 181.729 L30.0895 164.368 Z" fill="#000000" fill-rule="nonzero" fill-opacity="1" /><polyline clip-path="url(#clip052)" style="stroke:#009af9; stroke-linecap:round; stroke-linejoin:round; stroke-width:4; stroke-opacity:1; fill:none" points="86.9921,1371.11 89.2602,1370.96 91.5282,1370.48 93.7962,1369.69 96.0643,1368.57 98.3323,1367.15 100.6,1365.41 102.868,1363.35 105.136,1360.98 107.404,1358.31 109.672,1355.32 111.94,1352.02 114.209,1348.42 116.477,1344.52 118.745,1340.31 121.013,1335.81 123.281,1331.01 125.549,1325.93 127.817,1320.55 130.085,1314.88 132.353,1308.93 134.621,1302.71 136.889,1296.21 139.157,1289.43 141.425,1282.4 143.693,1275.09 145.961,1267.53 148.229,1259.72 150.497,1251.66 152.765,1243.35 155.033,1234.8 157.301,1226.02 159.569,1217.01 161.837,1207.78 164.105,1198.33 166.373,1188.66 168.641,1178.79 170.909,1168.72 173.177,1158.45 175.445,1147.99 177.713,1137.36 179.981,1126.54 182.249,1115.55 184.517,1104.4 186.786,1093.09 189.054,1081.63 191.322,1070.03 193.59,1058.28 195.858,1046.41 198.126,1034.41 200.394,1022.3 202.662,1010.07 204.93,997.739 207.198,985.311 209.466,972.793 211.734,960.191 214.002,947.514 216.27,934.767 218.538,921.959 220.806,909.095 223.074,896.184 225.342,883.231 227.61,870.244 229.878,857.231 232.146,844.198 234.414,831.153 236.682,818.101 238.95,805.051 241.218,792.009 243.486,778.982 245.754,765.976 248.022,752.999 250.29,740.056 252.558,727.155 254.826,714.302 257.095,701.503 259.363,688.765 261.631,676.095 263.899,663.499 266.167,650.982 268.435,638.552 270.703,626.213 272.971,613.972 275.239,601.834 277.507,589.805 279.775,577.892 282.043,566.099 284.311,554.433 286.579,542.898 288.847,531.5 291.115,520.243 293.383,509.134 295.651,498.176 297.919,487.374 300.187,476.733 302.455,466.256 304.723,455.949 306.991,445.816 309.259,435.859 311.527,426.084 313.795,416.493 316.063,407.09 318.331,397.879 320.599,388.863 322.867,380.045 325.135,371.428 327.403,363.014 329.672,354.806 331.94,346.807 334.208,339.018 336.476,331.444 338.744,324.084 341.012,316.942 343.28,310.02 345.548,303.318 347.816,296.839 350.084,290.584 352.352,284.553 354.62,278.748 356.888,273.17 359.156,267.82 361.424,262.697 363.692,257.802 365.96,253.136 368.228,248.697 370.496,244.487 372.764,240.505 375.032,236.75 377.3,233.221 379.568,229.917 381.836,226.839 384.104,223.984 386.372,221.351 388.64,218.939 390.908,216.747 393.176,214.773 395.444,213.016 397.712,211.473 399.981,210.144 402.249,209.026 404.517,208.117 406.785,207.414 409.053,206.916 411.321,206.62 413.589,206.523 415.857,206.623 418.125,206.917 420.393,207.403 422.661,208.077 424.929,208.935 427.197,209.976 429.465,211.196 431.733,212.59 434.001,214.157 436.269,215.891 438.537,217.79 440.805,219.849 443.073,222.065 445.341,224.433 447.609,226.95 449.877,229.61 452.145,232.41 454.413,235.345 456.681,238.413 458.949,241.61 461.217,244.931 463.485,248.371 465.753,251.928 468.021,255.595 470.29,259.368 472.558,263.244 474.826,267.218 477.094,271.285 479.362,275.441 481.63,279.682 483.898,284.002 486.166,288.399 488.434,292.867 490.702,297.402 492.97,301.999 495.238,306.655 497.506,311.365 499.774,316.125 502.042,320.93 504.31,325.775 506.578,330.657 508.846,335.571 511.114,340.514 513.382,345.479 515.65,350.464 517.918,355.464 520.186,360.474 522.454,365.49 524.722,370.509 526.99,375.524 529.258,380.534 531.526,385.536 533.794,390.526 536.062,395.499 538.33,400.453 540.598,405.382 542.867,410.283 545.135,415.153 547.403,419.987 549.671,424.782 551.939,429.535 554.207,434.242 556.475,438.9 558.743,443.506 561.011,448.056 563.279,452.548 565.547,456.979 567.815,461.346 570.083,465.646 572.351,469.876 574.619,474.034 576.887,478.118 579.155,482.124 581.423,486.052 583.691,489.898 585.959,493.661 588.227,497.338 590.495,500.928 592.763,504.428 595.031,507.837 597.299,511.154 599.567,514.377 601.835,517.504 604.103,520.534 606.371,523.465 608.639,526.297 610.907,529.029 613.176,531.658 615.444,534.185 617.712,536.607 619.98,538.924 622.248,541.135 624.516,543.239 626.784,545.235 629.052,547.123 631.32,548.901 633.588,550.57 635.856,552.128 638.124,553.576 640.392,554.912 642.66,556.138 644.928,557.253 647.196,558.256 649.464,559.148 651.732,559.929 654,560.599 656.268,561.159 658.536,561.608 660.804,561.948 663.072,562.178 665.34,562.299 667.608,562.313 669.876,562.22 672.144,562.02 674.412,561.715 676.68,561.306 678.948,560.794 681.216,560.179 683.484,559.464 685.753,558.65 688.021,557.738 690.289,556.729 692.557,555.622 694.825,554.419 697.093,553.121 699.361,551.73 701.629,550.247 703.897,548.672 706.165,547.009 708.433,545.257 710.701,543.419 712.969,541.497 715.237,539.49 717.505,537.402 719.773,535.233 722.041,532.985 724.309,530.659 726.577,528.258 728.845,525.783 731.113,523.236 733.381,520.617 735.649,517.929 737.917,515.174 740.185,512.353 742.453,509.468 744.721,506.52 746.989,503.512 749.257,500.446 751.525,497.322 753.793,494.143 756.062,490.912 758.33,487.629 760.598,484.296 762.866,480.916 765.134,477.491 767.402,474.022 769.67,470.511 771.938,466.959 774.206,463.367 776.474,459.738 778.742,456.073 781.01,452.374 783.278,448.644 785.546,444.884 787.814,441.096 790.082,437.282 792.35,433.444 794.618,429.583 796.886,425.702 799.154,421.802 801.422,417.885 803.69,413.954 805.958,410.009 808.226,406.052 810.494,402.085 812.762,398.111 815.03,394.13 817.298,390.144 819.566,386.155 821.834,382.165 824.102,378.176 826.37,374.188 828.639,370.205 830.907,366.226 833.175,362.254 835.443,358.291 837.711,354.338 839.979,350.396 842.247,346.468 844.515,342.554 846.783,338.657 849.051,334.777 851.319,330.917 853.587,327.078 855.855,323.261 858.123,319.468 860.391,315.702 862.659,311.964 864.927,308.255 867.195,304.577 869.463,300.932 871.731,297.321 873.999,293.746 876.267,290.209 878.535,286.711 880.803,283.255 883.071,279.84 885.339,276.47 887.607,273.146 889.875,269.869 892.143,266.641 894.411,263.463 896.679,260.338 898.948,257.266 901.216,254.25 903.484,251.29 905.752,248.389 908.02,245.548 910.288,242.769 912.556,240.052 914.824,237.4 917.092,234.815 919.36,232.297 921.628,229.848 923.896,227.471 926.164,225.165 928.432,222.933 930.7,220.777 932.968,218.697 935.236,216.696 937.504,214.775 939.772,212.936 942.04,211.181 944.308,209.511 946.576,207.929 948.844,206.436 951.112,205.033 953.38,203.722 955.648,202.505 957.916,201.382 960.184,200.356 962.452,199.429 964.72,198.6 966.988,197.873 969.257,197.248 971.525,196.727 973.793,196.311 976.061,196.002 978.329,195.801 980.597,195.71 982.865,195.73 985.133,195.862 987.401,196.108 989.669,196.469 991.937,196.947 994.205,197.542 996.473,198.257 998.741,199.092 1001.01,200.048 1003.28,201.128 1005.55,202.332 1007.81,203.662 1010.08,205.119 1012.35,206.704 1014.62,208.418 1016.89,210.263 1019.15,212.239 1021.42,214.349 1023.69,216.593 1025.96,218.972 1028.23,221.488 1030.49,224.142 1032.76,226.934 1035.03,229.865 1037.3,232.935 1039.57,236.145 1041.83,239.495 1044.1,242.987 1046.37,246.621 1048.64,250.397 1050.91,254.317 1053.17,258.379 1055.44,262.585 1057.71,266.935 1059.98,271.429 1062.25,276.067 1064.51,280.849 1066.78,285.776 1069.05,290.846 1071.32,296.061 1073.59,301.42 1075.85,306.922 1078.12,312.567 1080.39,318.355 1082.66,324.285 1084.93,330.357 1087.19,336.57 1089.46,342.924 1091.73,349.418 1094,356.05 1096.27,362.821 1098.53,369.729 1100.8,376.773 1103.07,383.952 1105.34,391.265 1107.61,398.711 1109.87,406.288 1112.14,413.996 1114.41,421.832 1116.68,429.796 1118.95,437.885 1121.21,446.099 1123.48,454.436 1125.75,462.893 1128.02,471.467 1130.29,480.157 1132.55,488.958 1134.82,497.87 1137.09,506.89 1139.36,516.015 1141.63,525.243 1143.89,534.572 1146.16,543.999 1148.43,553.52 1150.7,563.134 1152.97,572.837 1155.24,582.627 1157.5,592.5 1159.77,602.453 1162.04,612.483 1164.31,622.587 1166.58,632.761 1168.84,643.002 1171.11,653.306 1173.38,663.669 1175.65,674.088 1177.92,684.559 1180.18,695.079 1182.45,705.642 1184.72,716.246 1186.99,726.885 1189.26,737.556 1191.52,748.255 1193.79,758.976 1196.06,769.716 1198.33,780.469 1200.6,791.232 1202.86,802 1205.13,812.767 1207.4,823.529 1209.67,834.28 1211.94,845.017 1214.2,855.735 1216.47,866.429 1218.74,877.094 1221.01,887.726 1223.28,898.32 1225.54,908.87 1227.81,919.372 1230.08,929.822 1232.35,940.213 1234.62,950.542 1236.88,960.804 1239.15,970.994 1241.42,981.106 1243.69,991.137 1245.96,1001.08 1248.22,1010.93 1250.49,1020.69 1252.76,1030.35 1255.03,1039.9 1257.3,1049.34 1259.56,1058.67 1261.83,1067.87 1264.1,1076.95 1266.37,1085.91 1268.64,1094.72 1270.9,1103.4 1273.17,1111.94 1275.44,1120.33 1277.71,1128.57 1279.98,1136.65 1282.24,1144.56 1284.51,1152.31 1286.78,1159.89 1289.05,1167.3 1291.32,1174.52 1293.59,1181.56 1295.85,1188.41 1298.12,1195.07 1300.39,1201.52 1302.66,1207.77 1304.93,1213.82 1307.19,1219.65 1309.46,1225.28 1311.73,1230.69 1314,1235.88 1316.27,1240.86 1318.53,1245.6 1320.8,1250.13 1323.07,1254.41 1325.34,1258.47 1327.61,1262.29 1329.87,1265.87 1332.14,1269.21 1334.41,1272.3 1336.68,1275.15 1338.95,1277.75 1341.21,1280.1 1343.48,1282.2 1345.75,1284.04 1348.02,1285.63 1350.29,1286.96 1352.55,1288.03 1354.82,1288.85 1357.09,1289.4 1359.36,1289.69 1361.63,1289.73 1363.89,1289.49 1366.16,1289 1368.43,1288.24 1370.7,1287.22 1372.97,1285.94 1375.23,1284.39 1377.5,1282.59 1379.77,1280.52 1382.04,1278.18 1384.31,1275.59 1386.57,1272.74 1388.84,1269.63 1391.11,1266.26 1393.38,1262.63 1395.65,1258.76 1397.91,1254.63 1400.18,1250.25 1402.45,1245.63 1404.72,1240.76 1406.99,1235.64 1409.25,1230.28 1411.52,1224.69 1413.79,1218.85 1416.06,1212.78 1418.33,1206.48 1420.59,1199.95 1422.86,1193.19 1425.13,1186.21 1427.4,1179.02 1429.67,1171.6 1431.93,1163.98 1434.2,1156.14 1436.47,1148.1 1438.74,1139.86 1441.01,1131.42 1443.28,1122.8 1445.54,1113.98 1447.81,1104.98 1450.08,1095.8 1452.35,1086.45 1454.62,1076.94 1456.88,1067.26 1459.15,1057.42 1461.42,1047.43 1463.69,1037.29 1465.96,1027.02 1468.22,1016.61 1470.49,1006.07 1472.76,995.407 1475.03,984.631 1477.3,973.746 1479.56,962.759 1481.83,951.675 1484.1,940.499 1486.37,929.234 1488.64,917.889 1490.9,906.468 1493.17,894.979 1495.44,883.428 1497.71,871.821 1499.98,860.164 1502.24,848.464 1504.51,836.726 1506.78,824.958 1509.05,813.166 1511.32,801.355 1513.58,789.533 1515.85,777.705 1518.12,765.877 1520.39,754.057 1522.66,742.25 1524.92,730.462 1527.19,718.699 1529.46,706.969 1531.73,695.277 1534,683.629 1536.26,672.032 1538.53,660.492 1540.8,649.014 1543.07,637.606 1545.34,626.274 1547.6,615.023 1549.87,603.859 1552.14,592.79 1554.41,581.821 1556.68,570.958 1558.94,560.208 1561.21,549.577 1563.48,539.069 1565.75,528.688 1568.02,518.437 1570.28,508.322 1572.55,498.348 1574.82,488.522 1577.09,478.847 1579.36,469.33 1581.63,459.975 1583.89,450.786 1586.16,441.769 1588.43,432.927 1590.7,424.265 1592.97,415.786 1595.23,407.496 1597.5,399.397 1599.77,391.493 1602.04,383.787 1604.31,376.284 1606.57,368.985 1608.84,361.895 1611.11,355.015 1613.38,348.349 1615.65,341.898 1617.91,335.666 1620.18,329.655 1622.45,323.866 1624.72,318.301 1626.99,312.963 1629.25,307.852 1631.52,302.97 1633.79,298.319 1636.06,293.9 1638.33,289.712 1640.59,285.759 1642.86,282.039 1645.13,278.553 1647.4,275.302 1649.67,272.286 1651.93,269.505 1654.2,266.957 1656.47,264.64 1658.74,262.553 1661.01,260.696 1663.27,259.07 1665.54,257.672 1667.81,256.503 1670.08,255.562 1672.35,254.847 1674.61,254.357 1676.88,254.092 1679.15,254.049 1681.42,254.227 1683.69,254.624 1685.95,255.239 1688.22,256.068 1690.49,257.11 1692.76,258.362 1695.03,259.822 1697.29,261.487 1699.56,263.354 1701.83,265.419 1704.1,267.681 1706.37,270.135 1708.63,272.777 1710.9,275.605 1713.17,278.614 1715.44,281.8 1717.71,285.16 1719.98,288.688 1722.24,292.38 1724.51,296.232 1726.78,300.238 1729.05,304.395 1731.32,308.696 1733.58,313.137 1735.85,317.712 1738.12,322.416 1740.39,327.242 1742.66,332.185 1744.92,337.24 1747.19,342.398 1749.46,347.655 1751.73,353.004 1754,358.438 1756.26,363.956 1758.53,369.557 1760.8,375.233 1763.07,380.98 1765.34,386.792 1767.6,392.663 1769.87,398.587 1772.14,404.558 1774.41,410.572 1776.68,416.623 1778.94,422.704 1781.21,428.811 1783.48,434.938 1785.75,441.079 1788.02,447.23 1790.28,453.384 1792.55,459.536 1794.82,465.682 1797.09,471.815 1799.36,477.931 1801.62,484.023 1803.89,490.088 1806.16,496.119 1808.43,502.112 1810.7,508.061 1812.96,513.961 1815.23,519.807 1817.5,525.595 1819.77,531.318 1822.04,536.973 1824.3,542.553 1826.57,548.055 1828.84,553.472 1831.11,558.802 1833.38,564.037 1835.64,569.174 1837.91,574.208 1840.18,579.134 1842.45,583.947 1844.72,588.642 1846.98,593.221 1849.25,597.682 1851.52,602.019 1853.79,606.23 1856.06,610.31 1858.32,614.255 1860.59,618.062 1862.86,621.727 1865.13,625.247 1867.4,628.619 1869.67,631.839 1871.93,634.905 1874.2,637.814 1876.47,640.564 1878.74,643.152 1881.01,645.576 1883.27,647.833 1885.54,649.922 1887.81,651.841 1890.08,653.588 1892.35,655.162 1894.61,656.561 1896.88,657.785 1899.15,658.831 1901.42,659.7 1903.69,660.391 1905.95,660.902 1908.22,661.234 1910.49,661.386 1912.76,661.358 1915.03,661.151 1917.29,660.763 1919.56,660.196 1921.83,659.451 1924.1,658.527 1926.37,657.425 1928.63,656.147 1930.9,654.693 1933.17,653.066 1935.44,651.265 1937.71,649.293 1939.97,647.152 1942.24,644.842 1944.51,642.367 1946.78,639.727 1949.05,636.923 1951.31,633.958 1953.58,630.832 1955.85,627.549 1958.12,624.111 1960.39,620.518 1962.65,616.774 1964.92,612.88 1967.19,608.84 1969.46,604.656 1971.73,600.329 1973.99,595.864 1976.26,591.262 1978.53,586.526 1980.8,581.66 1983.07,576.666 1985.33,571.548 1987.6,566.309 1989.87,560.951 1992.14,555.479 1994.41,549.896 1996.67,544.205 1998.94,538.411 2001.21,532.516 2003.48,526.525 2005.75,520.442 2008.02,514.271 2010.28,508.015 2012.55,501.68 2014.82,495.269 2017.09,488.787 2019.36,482.238 2021.62,475.627 2023.89,468.958 2026.16,462.237 2028.43,455.468 2030.7,448.656 2032.96,441.806 2035.23,434.923 2037.5,428.013 2039.77,421.078 2042.04,414.119 2044.3,407.139 2046.57,400.144 2048.84,393.137 2051.11,386.124 2053.38,379.109 2055.64,372.096 2057.91,365.089 2060.18,358.093 2062.45,351.112 2064.72,344.15 2066.98,337.212 2069.25,330.301 2071.52,323.421 2073.79,316.577 2076.06,309.773 2078.32,303.012 2080.59,296.298 2082.86,289.635 2085.13,283.027 2087.4,276.478 2089.66,269.991 2091.93,263.57 2094.2,257.218 2096.47,250.939 2098.74,244.737 2101,238.615 2103.27,232.576 2105.54,226.623 2107.81,220.761 2110.08,214.992 2112.34,209.32 2114.61,203.747 2116.88,198.276 2119.15,192.912 2121.42,187.657 2123.68,182.513 2125.95,177.484 2128.22,172.57 2130.49,167.772 2132.76,163.094 2135.02,158.538 2137.29,154.106 2139.56,149.802 2141.83,145.627 2144.1,141.585 2146.37,137.678 2148.63,133.907 2150.9,130.275 2153.17,126.785 2155.44,123.437 2157.71,120.234 2159.97,117.177 2162.24,114.268 2164.51,111.509 2166.78,108.901 2169.05,106.446 2171.31,104.144 2173.58,101.997 2175.85,100.006 2178.12,98.1709 2180.39,96.494 2182.65,94.9753 2184.92,93.6157 2187.19,92.4156 2189.46,91.3756 2191.73,90.4959 2193.99,89.7768 2196.26,89.2186 2198.53,88.8212 2200.8,88.5846 2203.07,88.5087 2205.33,88.5932 2207.6,88.8379 2209.87,89.2423 2212.14,89.8059 2214.41,90.528 2216.67,91.4079 2218.94,92.4449 2221.21,93.638 2223.48,94.9861 2225.75,96.4882 2228.01,98.1443 2230.28,99.9557 2232.55,101.922 2234.82,104.042 2237.09,106.314 2239.35,108.739 2241.62,111.315 2243.89,114.041 2246.16,116.916 2248.43,119.94 2250.69,123.11 2252.96,126.426 2255.23,129.886 2257.5,133.49 2259.77,137.236 2262.03,141.123 2264.3,145.149 2266.57,149.313 2268.84,153.614 2271.11,158.05 2273.37,162.619 2275.64,167.321 2277.91,172.152 2280.18,177.113 2282.45,182.2 2284.71,187.413 2286.98,192.749 2289.25,198.208 2291.52,203.785 2293.79,209.481 2296.06,215.293 2298.32,221.219 2300.59,227.257 2302.86,233.404 2305.13,239.66 2307.4,246.021 2309.66,252.485 2311.93,259.051 2314.2,265.716 2316.47,272.477 2318.74,279.333 2321,286.283 2323.27,293.324 2325.54,300.456 2327.81,307.675 2330.08,314.98 2332.34,322.368 2334.61,329.838 2336.88,337.387 2339.15,345.013 2341.42,352.715 2343.68,360.489 2345.95,368.334 2348.22,376.248 2350.49,384.228 2352.76,392.272 "/>
<polyline clip-path="url(#clip052)" style="stroke:#e26f46; stroke-linecap:round; stroke-linejoin:round; stroke-width:4; stroke-opacity:1; fill:none" points="86.9921,1371.11 89.2602,1371.11 91.5282,1371.11 93.7962,1371.11 96.0643,1371.11 98.3323,1371.11 100.6,1371.11 102.868,1371.11 105.136,1371.1 107.404,1371.09 109.672,1371.08 111.94,1371.07 114.209,1371.05 116.477,1371.03 118.745,1371 121.013,1370.96 123.281,1370.92 125.549,1370.87 127.817,1370.81 130.085,1370.74 132.353,1370.66 134.621,1370.56 136.889,1370.45 139.157,1370.33 141.425,1370.19 143.693,1370.03 145.961,1369.85 148.229,1369.65 150.497,1369.43 152.765,1369.19 155.033,1368.92 157.301,1368.62 159.569,1368.3 161.837,1367.94 164.105,1367.56 166.373,1367.14 168.641,1366.69 170.909,1366.2 173.177,1365.67 175.445,1365.1 177.713,1364.49 179.981,1363.84 182.249,1363.14 184.517,1362.4 186.786,1361.61 189.054,1360.76 191.322,1359.87 193.59,1358.92 195.858,1357.91 198.126,1356.85 200.394,1355.73 202.662,1354.55 204.93,1353.3 207.198,1352 209.466,1350.62 211.734,1349.18 214.002,1347.67 216.27,1346.1 218.538,1344.44 220.806,1342.72 223.074,1340.92 225.342,1339.05 227.61,1337.09 229.878,1335.06 232.146,1332.95 234.414,1330.76 236.682,1328.48 238.95,1326.12 241.218,1323.68 243.486,1321.15 245.754,1318.53 248.022,1315.83 250.29,1313.03 252.558,1310.15 254.826,1307.18 257.095,1304.12 259.363,1300.96 261.631,1297.72 263.899,1294.38 266.167,1290.95 268.435,1287.43 270.703,1283.81 272.971,1280.1 275.239,1276.3 277.507,1272.4 279.775,1268.41 282.043,1264.33 284.311,1260.15 286.579,1255.88 288.847,1251.52 291.115,1247.07 293.383,1242.52 295.651,1237.89 297.919,1233.16 300.187,1228.34 302.455,1223.44 304.723,1218.44 306.991,1213.36 309.259,1208.2 311.527,1202.95 313.795,1197.61 316.063,1192.2 318.331,1186.7 320.599,1181.12 322.867,1175.47 325.135,1169.74 327.403,1163.94 329.672,1158.06 331.94,1152.11 334.208,1146.1 336.476,1140.02 338.744,1133.87 341.012,1127.66 343.28,1121.39 345.548,1115.06 347.816,1108.67 350.084,1102.23 352.352,1095.74 354.62,1089.2 356.888,1082.61 359.156,1075.98 361.424,1069.31 363.692,1062.6 365.96,1055.85 368.228,1049.06 370.496,1042.25 372.764,1035.41 375.032,1028.54 377.3,1021.65 379.568,1014.75 381.836,1007.82 384.104,1000.89 386.372,993.941 388.64,986.988 390.908,980.032 393.176,973.074 395.444,966.118 397.712,959.168 399.981,952.227 402.249,945.297 404.517,938.381 406.785,931.483 409.053,924.607 411.321,917.754 413.589,910.928 415.857,904.131 418.125,897.368 420.393,890.641 422.661,883.953 424.929,877.307 427.197,870.705 429.465,864.151 431.733,857.648 434.001,851.199 436.269,844.806 438.537,838.473 440.805,832.201 443.073,825.995 445.341,819.857 447.609,813.79 449.877,807.796 452.145,801.879 454.413,796.04 456.681,790.282 458.949,784.606 461.217,779.015 463.485,773.511 465.753,768.097 468.021,762.775 470.29,757.547 472.558,752.415 474.826,747.382 477.094,742.448 479.362,737.616 481.63,732.888 483.898,728.264 486.166,723.748 488.434,719.339 490.702,715.04 492.97,710.852 495.238,706.775 497.506,702.811 499.774,698.962 502.042,695.227 504.31,691.607 506.578,688.104 508.846,684.718 511.114,681.449 513.382,678.298 515.65,675.265 517.918,672.35 520.186,669.555 522.454,666.877 524.722,664.319 526.99,661.879 529.258,659.557 531.526,657.352 533.794,655.264 536.062,653.293 538.33,651.437 540.598,649.697 542.867,648.072 545.135,646.561 547.403,645.164 549.671,643.879 551.939,642.706 554.207,641.643 556.475,640.689 558.743,639.844 561.011,639.106 563.279,638.473 565.547,637.943 567.815,637.516 570.083,637.19 572.351,636.963 574.619,636.832 576.887,636.796 579.155,636.854 581.423,637.002 583.691,637.239 585.959,637.562 588.227,637.969 590.495,638.457 592.763,639.024 595.031,639.667 597.299,640.384 599.567,641.171 601.835,642.025 604.103,642.945 606.371,643.925 608.639,644.964 610.907,646.061 613.176,647.212 615.444,648.415 617.712,649.666 619.98,650.964 622.248,652.305 624.516,653.686 626.784,655.104 629.052,656.557 631.32,658.042 633.588,659.554 635.856,661.093 638.124,662.655 640.392,664.237 642.66,665.836 644.928,667.45 647.196,669.075 649.464,670.709 651.732,672.349 654,673.993 656.268,675.637 658.536,677.278 660.804,678.915 663.072,680.543 665.34,682.162 667.608,683.766 669.876,685.355 672.144,686.925 674.412,688.473 676.68,689.998 678.948,691.495 681.216,692.963 683.484,694.398 685.753,695.798 688.021,697.161 690.289,698.485 692.557,699.77 694.825,701.014 697.093,702.214 699.361,703.369 701.629,704.476 703.897,705.534 706.165,706.54 708.433,707.494 710.701,708.393 712.969,709.236 715.237,710.021 717.505,710.748 719.773,711.415 722.041,712.021 724.309,712.565 726.577,713.046 728.845,713.463 731.113,713.816 733.381,714.104 735.649,714.326 737.917,714.482 740.185,714.572 742.453,714.596 744.721,714.552 746.989,714.443 749.257,714.266 751.525,714.023 753.793,713.714 756.062,713.34 758.33,712.9 760.598,712.395 762.866,711.827 765.134,711.195 767.402,710.501 769.67,709.746 771.938,708.931 774.206,708.057 776.474,707.126 778.742,706.138 781.01,705.095 783.278,703.997 785.546,702.847 787.814,701.646 790.082,700.394 792.35,699.095 794.618,697.748 796.886,696.357 799.154,694.923 801.422,693.448 803.69,691.933 805.958,690.381 808.226,688.795 810.494,687.175 812.762,685.525 815.03,683.847 817.298,682.144 819.566,680.417 821.834,678.67 824.102,676.905 826.37,675.124 828.639,673.332 830.907,671.531 833.175,669.723 835.443,667.912 837.711,666.101 839.979,664.293 842.247,662.492 844.515,660.701 846.783,658.924 849.051,657.164 851.319,655.424 853.587,653.708 855.855,652.016 858.123,650.351 860.391,648.718 862.659,647.118 864.927,645.555 867.195,644.032 869.463,642.553 871.731,641.12 873.999,639.736 876.267,638.405 878.535,637.13 880.803,635.913 883.071,634.757 885.339,633.665 887.607,632.641 889.875,631.686 892.143,630.804 894.411,629.997 896.679,629.268 898.948,628.62 901.216,628.055 903.484,627.575 905.752,627.185 908.02,626.885 910.288,626.678 912.556,626.567 914.824,626.555 917.092,626.642 919.36,626.833 921.628,627.129 923.896,627.533 926.164,628.046 928.432,628.671 930.7,629.409 932.968,630.264 935.236,631.238 937.504,632.331 939.772,633.543 942.04,634.874 944.308,636.325 946.576,637.899 948.844,639.596 951.112,641.419 953.38,643.368 955.648,645.444 957.916,647.648 960.184,649.982 962.452,652.446 964.72,655.04 966.988,657.766 969.257,660.623 971.525,663.612 973.793,666.734 976.061,669.988 978.329,673.374 980.597,676.892 982.865,680.542 985.133,684.323 987.401,688.235 989.669,692.278 991.937,696.451 994.205,700.752 996.473,705.181 998.741,709.737 1001.01,714.419 1003.28,719.225 1005.55,724.154 1007.81,729.205 1010.08,734.375 1012.35,739.664 1014.62,745.069 1016.89,750.588 1019.15,756.219 1021.42,761.961 1023.69,767.81 1025.96,773.765 1028.23,779.822 1030.49,785.979 1032.76,792.234 1035.03,798.584 1037.3,805.028 1039.57,811.562 1041.83,818.184 1044.1,824.892 1046.37,831.683 1048.64,838.554 1050.91,845.503 1053.17,852.526 1055.44,859.621 1057.71,866.784 1059.98,874.014 1062.25,881.307 1064.51,888.66 1066.78,896.07 1069.05,903.533 1071.32,911.048 1073.59,918.609 1075.85,926.216 1078.12,933.862 1080.39,941.547 1082.66,949.266 1084.93,957.015 1087.19,964.792 1089.46,972.593 1091.73,980.414 1094,988.252 1096.27,996.102 1098.53,1003.96 1100.8,1011.83 1103.07,1019.7 1105.34,1027.56 1107.61,1035.42 1109.87,1043.27 1112.14,1051.11 1114.41,1058.92 1116.68,1066.72 1118.95,1074.49 1121.21,1082.23 1123.48,1089.93 1125.75,1097.6 1128.02,1105.23 1130.29,1112.82 1132.55,1120.36 1134.82,1127.86 1137.09,1135.31 1139.36,1142.7 1141.63,1150.04 1143.89,1157.32 1146.16,1164.53 1148.43,1171.68 1150.7,1178.76 1152.97,1185.77 1155.24,1192.7 1157.5,1199.55 1159.77,1206.33 1162.04,1213.02 1164.31,1219.63 1166.58,1226.14 1168.84,1232.57 1171.11,1238.91 1173.38,1245.15 1175.65,1251.3 1177.92,1257.35 1180.18,1263.3 1182.45,1269.14 1184.72,1274.89 1186.99,1280.52 1189.26,1286.05 1191.52,1291.47 1193.79,1296.78 1196.06,1301.98 1198.33,1307.06 1200.6,1312.04 1202.86,1316.89 1205.13,1321.63 1207.4,1326.25 1209.67,1330.76 1211.94,1335.14 1214.2,1339.41 1216.47,1343.56 1218.74,1347.59 1221.01,1351.5 1223.28,1355.29 1225.54,1358.96 1227.81,1362.5 1230.08,1365.93 1232.35,1369.24 1234.62,1372.42 1236.88,1375.48 1239.15,1378.42 1241.42,1381.24 1243.69,1383.93 1245.96,1386.5 1248.22,1388.96 1250.49,1391.29 1252.76,1393.5 1255.03,1395.6 1257.3,1397.57 1259.56,1399.43 1261.83,1401.17 1264.1,1402.8 1266.37,1404.31 1268.64,1405.71 1270.9,1407 1273.17,1408.17 1275.44,1409.24 1277.71,1410.2 1279.98,1411.05 1282.24,1411.8 1284.51,1412.45 1286.78,1413 1289.05,1413.45 1291.32,1413.8 1293.59,1414.06 1295.85,1414.23 1298.12,1414.31 1300.39,1414.31 1302.66,1414.22 1304.93,1414.04 1307.19,1413.79 1309.46,1413.46 1311.73,1413.05 1314,1412.56 1316.27,1412 1318.53,1411.36 1320.8,1410.66 1323.07,1409.89 1325.34,1409.05 1327.61,1408.15 1329.87,1407.19 1332.14,1406.17 1334.41,1405.09 1336.68,1403.96 1338.95,1402.77 1341.21,1401.53 1343.48,1400.25 1345.75,1398.91 1348.02,1397.54 1350.29,1396.12 1352.55,1394.66 1354.82,1393.16 1357.09,1391.62 1359.36,1390.05 1361.63,1388.45 1363.89,1386.81 1366.16,1385.15 1368.43,1383.46 1370.7,1381.75 1372.97,1380.01 1375.23,1378.25 1377.5,1376.48 1379.77,1374.68 1382.04,1372.87 1384.31,1371.05 1386.57,1369.22 1388.84,1367.37 1391.11,1365.52 1393.38,1363.66 1395.65,1361.79 1397.91,1359.91 1400.18,1358.03 1402.45,1356.15 1404.72,1354.26 1406.99,1352.37 1409.25,1350.48 1411.52,1348.6 1413.79,1346.71 1416.06,1344.83 1418.33,1342.96 1420.59,1341.08 1422.86,1339.22 1425.13,1337.36 1427.4,1335.51 1429.67,1333.67 1431.93,1331.84 1434.2,1330.01 1436.47,1328.19 1438.74,1326.39 1441.01,1324.59 1443.28,1322.81 1445.54,1321.03 1447.81,1319.26 1450.08,1317.51 1452.35,1315.76 1454.62,1314.03 1456.88,1312.3 1459.15,1310.58 1461.42,1308.87 1463.69,1307.17 1465.96,1305.48 1468.22,1303.79 1470.49,1302.11 1472.76,1300.44 1475.03,1298.76 1477.3,1297.1 1479.56,1295.43 1481.83,1293.77 1484.1,1292.11 1486.37,1290.45 1488.64,1288.79 1490.9,1287.13 1493.17,1285.47 1495.44,1283.8 1497.71,1282.13 1499.98,1280.46 1502.24,1278.78 1504.51,1277.1 1506.78,1275.4 1509.05,1273.7 1511.32,1271.99 1513.58,1270.27 1515.85,1268.53 1518.12,1266.78 1520.39,1265.02 1522.66,1263.24 1524.92,1261.45 1527.19,1259.63 1529.46,1257.8 1531.73,1255.94 1534,1254.07 1536.26,1252.17 1538.53,1250.24 1540.8,1248.29 1543.07,1246.31 1545.34,1244.3 1547.6,1242.26 1549.87,1240.19 1552.14,1238.08 1554.41,1235.94 1556.68,1233.77 1558.94,1231.55 1561.21,1229.3 1563.48,1227 1565.75,1224.66 1568.02,1222.28 1570.28,1219.86 1572.55,1217.4 1574.82,1214.89 1577.09,1212.33 1579.36,1209.73 1581.63,1207.08 1583.89,1204.38 1586.16,1201.63 1588.43,1198.83 1590.7,1195.97 1592.97,1193.07 1595.23,1190.11 1597.5,1187.1 1599.77,1184.03 1602.04,1180.91 1604.31,1177.74 1606.57,1174.5 1608.84,1171.21 1611.11,1167.87 1613.38,1164.47 1615.65,1161.01 1617.91,1157.49 1620.18,1153.92 1622.45,1150.29 1624.72,1146.6 1626.99,1142.85 1629.25,1139.05 1631.52,1135.19 1633.79,1131.27 1636.06,1127.3 1638.33,1123.27 1640.59,1119.19 1642.86,1115.05 1645.13,1110.85 1647.4,1106.6 1649.67,1102.29 1651.93,1097.94 1654.2,1093.53 1656.47,1089.07 1658.74,1084.56 1661.01,1080.01 1663.27,1075.41 1665.54,1070.76 1667.81,1066.07 1670.08,1061.33 1672.35,1056.55 1674.61,1051.73 1676.88,1046.87 1679.15,1041.96 1681.42,1037.02 1683.69,1032.04 1685.95,1027.03 1688.22,1021.98 1690.49,1016.89 1692.76,1011.77 1695.03,1006.63 1697.29,1001.45 1699.56,996.25 1701.83,991.021 1704.1,985.769 1706.37,980.495 1708.63,975.2 1710.9,969.887 1713.17,964.558 1715.44,959.214 1717.71,953.858 1719.98,948.492 1722.24,943.118 1724.51,937.737 1726.78,932.354 1729.05,926.969 1731.32,921.585 1733.58,916.204 1735.85,910.83 1738.12,905.464 1740.39,900.109 1742.66,894.768 1744.92,889.444 1747.19,884.138 1749.46,878.855 1751.73,873.597 1754,868.366 1756.26,863.163 1758.53,857.987 1760.8,852.841 1763.07,847.727 1765.34,842.648 1767.6,837.605 1769.87,832.601 1772.14,827.638 1774.41,822.717 1776.68,817.842 1778.94,813.012 1781.21,808.232 1783.48,803.502 1785.75,798.823 1788.02,794.199 1790.28,789.631 1792.55,785.12 1794.82,780.668 1797.09,776.276 1799.36,771.947 1801.62,767.681 1803.89,763.48 1806.16,759.346 1808.43,755.28 1810.7,751.282 1812.96,747.356 1815.23,743.501 1817.5,739.719 1819.77,736.011 1822.04,732.378 1824.3,728.821 1826.57,725.342 1828.84,721.941 1831.11,718.619 1833.38,715.378 1835.64,712.217 1837.91,709.138 1840.18,706.142 1842.45,703.229 1844.72,700.4 1846.98,697.653 1849.25,694.987 1851.52,692.403 1853.79,689.901 1856.06,687.482 1858.32,685.145 1860.59,682.891 1862.86,680.72 1865.13,678.632 1867.4,676.627 1869.67,674.704 1871.93,672.864 1874.2,671.107 1876.47,669.431 1878.74,667.837 1881.01,666.324 1883.27,664.892 1885.54,663.539 1887.81,662.265 1890.08,661.07 1892.35,659.952 1894.61,658.911 1896.88,657.945 1899.15,657.053 1901.42,656.235 1903.69,655.489 1905.95,654.814 1908.22,654.208 1910.49,653.67 1912.76,653.198 1915.03,652.792 1917.29,652.448 1919.56,652.166 1921.83,651.944 1924.1,651.779 1926.37,651.67 1928.63,651.615 1930.9,651.612 1933.17,651.658 1935.44,651.751 1937.71,651.89 1939.97,652.07 1942.24,652.291 1944.51,652.551 1946.78,652.849 1949.05,653.184 1951.31,653.554 1953.58,653.956 1955.85,654.388 1958.12,654.849 1960.39,655.337 1962.65,655.849 1964.92,656.384 1967.19,656.939 1969.46,657.513 1971.73,658.105 1973.99,658.711 1976.26,659.33 1978.53,659.961 1980.8,660.601 1983.07,661.249 1985.33,661.902 1987.6,662.559 1989.87,663.219 1992.14,663.879 1994.41,664.537 1996.67,665.193 1998.94,665.843 2001.21,666.487 2003.48,667.123 2005.75,667.749 2008.02,668.363 2010.28,668.964 2012.55,669.55 2014.82,670.119 2017.09,670.67 2019.36,671.201 2021.62,671.711 2023.89,672.198 2026.16,672.66 2028.43,673.096 2030.7,673.505 2032.96,673.884 2035.23,674.233 2037.5,674.549 2039.77,674.834 2042.04,675.089 2044.3,675.312 2046.57,675.505 2048.84,675.664 2051.11,675.791 2053.38,675.883 2055.64,675.941 2057.91,675.964 2060.18,675.952 2062.45,675.903 2064.72,675.819 2066.98,675.699 2069.25,675.542 2071.52,675.349 2073.79,675.12 2076.06,674.855 2078.32,674.554 2080.59,674.218 2082.86,673.846 2085.13,673.44 2087.4,673 2089.66,672.527 2091.93,672.021 2094.2,671.483 2096.47,670.914 2098.74,670.316 2101,669.688 2103.27,669.033 2105.54,668.351 2107.81,667.644 2110.08,666.913 2112.34,666.159 2114.61,665.385 2116.88,664.592 2119.15,663.781 2121.42,662.955 2123.68,662.114 2125.95,661.262 2128.22,660.4 2130.49,659.531 2132.76,658.655 2135.02,657.775 2137.29,656.892 2139.56,656.009 2141.83,655.127 2144.1,654.248 2146.37,653.374 2148.63,652.508 2150.9,651.65 2153.17,650.803 2155.44,649.97 2157.71,649.152 2159.97,648.351 2162.24,647.569 2164.51,646.809 2166.78,646.072 2169.05,645.362 2171.31,644.679 2173.58,644.027 2175.85,643.408 2178.12,642.823 2180.39,642.276 2182.65,641.769 2184.92,641.304 2187.19,640.883 2189.46,640.51 2191.73,640.186 2193.99,639.914 2196.26,639.696 2198.53,639.535 2200.8,639.435 2203.07,639.396 2205.33,639.422 2207.6,639.516 2209.87,639.68 2212.14,639.918 2214.41,640.231 2216.67,640.622 2218.94,641.095 2221.21,641.653 2223.48,642.297 2225.75,643.031 2228.01,643.856 2230.28,644.769 2232.55,645.772 2234.82,646.867 2237.09,648.057 2239.35,649.343 2241.62,650.728 2243.89,652.212 2246.16,653.797 2248.43,655.485 2250.69,657.278 2252.96,659.177 2255.23,661.183 2257.5,663.297 2259.77,665.521 2262.03,667.855 2264.3,670.301 2266.57,672.859 2268.84,675.53 2271.11,678.315 2273.37,681.215 2275.64,684.23 2277.91,687.36 2280.18,690.607 2282.45,693.969 2284.71,697.448 2286.98,701.043 2289.25,704.755 2291.52,708.584 2293.79,712.528 2296.06,716.589 2298.32,720.766 2300.59,725.058 2302.86,729.465 2305.13,733.986 2307.4,738.622 2309.66,743.37 2311.93,748.23 2314.2,753.202 2316.47,758.284 2318.74,763.475 2321,768.774 2323.27,774.18 2325.54,779.691 2327.81,785.306 2330.08,791.023 2332.34,796.841 2334.61,802.758 2336.88,808.772 2339.15,814.882 2341.42,821.085 2343.68,827.379 2345.95,833.763 2348.22,840.234 2350.49,846.79 2352.76,853.428 "/>
<polyline clip-path="url(#clip052)" style="stroke:#3da44d; stroke-linecap:round; stroke-linejoin:round; stroke-width:4; stroke-opacity:1; fill:none" points="86.9921,1371.11 89.2602,1371.11 91.5282,1371.11 93.7962,1371.11 96.0643,1371.11 98.3323,1371.11 100.6,1371.11 102.868,1371.11 105.136,1371.11 107.404,1371.11 109.672,1371.11 111.94,1371.11 114.209,1371.11 116.477,1371.11 118.745,1371.11 121.013,1371.11 123.281,1371.11 125.549,1371.11 127.817,1371.11 130.085,1371.11 132.353,1371.11 134.621,1371.11 136.889,1371.11 139.157,1371.11 141.425,1371.11 143.693,1371.11 145.961,1371.11 148.229,1371.1 150.497,1371.1 152.765,1371.1 155.033,1371.09 157.301,1371.09 159.569,1371.09 161.837,1371.08 164.105,1371.07 166.373,1371.07 168.641,1371.06 170.909,1371.05 173.177,1371.04 175.445,1371.02 177.713,1371.01 179.981,1370.99 182.249,1370.97 184.517,1370.95 186.786,1370.93 189.054,1370.91 191.322,1370.88 193.59,1370.85 195.858,1370.81 198.126,1370.77 200.394,1370.73 202.662,1370.69 204.93,1370.64 207.198,1370.58 209.466,1370.52 211.734,1370.46 214.002,1370.39 216.27,1370.31 218.538,1370.22 220.806,1370.13 223.074,1370.03 225.342,1369.93 227.61,1369.81 229.878,1369.69 232.146,1369.56 234.414,1369.42 236.682,1369.26 238.95,1369.1 241.218,1368.92 243.486,1368.74 245.754,1368.54 248.022,1368.32 250.29,1368.09 252.558,1367.85 254.826,1367.6 257.095,1367.32 259.363,1367.03 261.631,1366.72 263.899,1366.4 266.167,1366.05 268.435,1365.69 270.703,1365.3 272.971,1364.9 275.239,1364.47 277.507,1364.02 279.775,1363.54 282.043,1363.04 284.311,1362.51 286.579,1361.96 288.847,1361.38 291.115,1360.77 293.383,1360.13 295.651,1359.46 297.919,1358.76 300.187,1358.03 302.455,1357.26 304.723,1356.46 306.991,1355.62 309.259,1354.75 311.527,1353.84 313.795,1352.89 316.063,1351.9 318.331,1350.88 320.599,1349.81 322.867,1348.69 325.135,1347.53 327.403,1346.33 329.672,1345.08 331.94,1343.79 334.208,1342.45 336.476,1341.05 338.744,1339.61 341.012,1338.12 343.28,1336.57 345.548,1334.97 347.816,1333.32 350.084,1331.61 352.352,1329.84 354.62,1328.02 356.888,1326.13 359.156,1324.19 361.424,1322.19 363.692,1320.13 365.96,1318 368.228,1315.81 370.496,1313.56 372.764,1311.24 375.032,1308.85 377.3,1306.4 379.568,1303.88 381.836,1301.29 384.104,1298.63 386.372,1295.9 388.64,1293.11 390.908,1290.23 393.176,1287.29 395.444,1284.27 397.712,1281.18 399.981,1278.02 402.249,1274.78 404.517,1271.46 406.785,1268.07 409.053,1264.6 411.321,1261.06 413.589,1257.44 415.857,1253.74 418.125,1249.96 420.393,1246.11 422.661,1242.17 424.929,1238.16 427.197,1234.07 429.465,1229.9 431.733,1225.65 434.001,1221.32 436.269,1216.92 438.537,1212.43 440.805,1207.87 443.073,1203.22 445.341,1198.5 447.609,1193.71 449.877,1188.83 452.145,1183.88 454.413,1178.85 456.681,1173.74 458.949,1168.56 461.217,1163.3 463.485,1157.97 465.753,1152.56 468.021,1147.09 470.29,1141.54 472.558,1135.91 474.826,1130.22 477.094,1124.46 479.362,1118.63 481.63,1112.73 483.898,1106.77 486.166,1100.73 488.434,1094.64 490.702,1088.48 492.97,1082.26 495.238,1075.98 497.506,1069.65 499.774,1063.25 502.042,1056.8 504.31,1050.3 506.578,1043.74 508.846,1037.13 511.114,1030.47 513.382,1023.77 515.65,1017.02 517.918,1010.23 520.186,1003.4 522.454,996.528 524.722,989.62 526.99,982.677 529.258,975.703 531.526,968.697 533.794,961.664 536.062,954.605 538.33,947.523 540.598,940.42 542.867,933.298 545.135,926.16 547.403,919.007 549.671,911.844 551.939,904.672 554.207,897.493 556.475,890.31 558.743,883.127 561.011,875.944 563.279,868.766 565.547,861.594 567.815,854.432 570.083,847.281 572.351,840.145 574.619,833.027 576.887,825.93 579.155,818.855 581.423,811.807 583.691,804.788 585.959,797.8 588.227,790.847 590.495,783.932 592.763,777.058 595.031,770.228 597.299,763.444 599.567,756.711 601.835,750.031 604.103,743.406 606.371,736.842 608.639,730.339 610.907,723.901 613.176,717.53 615.444,711.228 617.712,704.999 619.98,698.846 622.248,692.772 624.516,686.778 626.784,680.869 629.052,675.047 631.32,669.315 633.588,663.674 635.856,658.129 638.124,652.681 640.392,647.333 642.66,642.087 644.928,636.947 647.196,631.914 649.464,626.991 651.732,622.179 654,617.483 656.268,612.903 658.536,608.442 660.804,604.102 663.072,599.885 665.34,595.793 667.608,591.829 669.876,587.995 672.144,584.291 674.412,580.721 676.68,577.287 678.948,573.989 681.216,570.83 683.484,567.812 685.753,564.937 688.021,562.205 690.289,559.619 692.557,557.178 694.825,554.883 697.093,552.737 699.361,550.741 701.629,548.895 703.897,547.201 706.165,545.659 708.433,544.272 710.701,543.039 712.969,541.961 715.237,541.039 717.505,540.274 719.773,539.666 722.041,539.215 724.309,538.922 726.577,538.788 728.845,538.811 731.113,538.993 733.381,539.332 735.649,539.83 737.917,540.486 740.185,541.3 742.453,542.27 744.721,543.398 746.989,544.681 749.257,546.121 751.525,547.715 753.793,549.463 756.062,551.365 758.33,553.419 760.598,555.624 762.866,557.979 765.134,560.483 767.402,563.134 769.67,565.931 771.938,568.873 774.206,571.959 776.474,575.186 778.742,578.553 781.01,582.059 783.278,585.702 785.546,589.481 787.814,593.393 790.082,597.436 792.35,601.61 794.618,605.911 796.886,610.338 799.154,614.889 801.422,619.561 803.69,624.353 805.958,629.262 808.226,634.286 810.494,639.422 812.762,644.668 815.03,650.021 817.298,655.479 819.566,661.039 821.834,666.699 824.102,672.455 826.37,678.306 828.639,684.247 830.907,690.276 833.175,696.39 835.443,702.586 837.711,708.861 839.979,715.211 842.247,721.634 844.515,728.125 846.783,734.682 849.051,741.301 851.319,747.979 853.587,754.712 855.855,761.5 858.123,768.338 860.391,775.224 862.659,782.153 864.927,789.124 867.195,796.133 869.463,803.175 871.731,810.249 873.999,817.351 876.267,824.477 878.535,831.625 880.803,838.791 883.071,845.973 885.339,853.166 887.607,860.369 889.875,867.577 892.143,874.788 894.411,881.999 896.679,889.207 898.948,896.408 901.216,903.6 903.484,910.78 905.752,917.944 908.02,925.091 910.288,932.216 912.556,939.317 914.824,946.392 917.092,953.436 919.36,960.448 921.628,967.425 923.896,974.363 926.164,981.26 928.432,988.114 930.7,994.921 932.968,1001.68 935.236,1008.38 937.504,1015.03 939.772,1021.63 942.04,1028.17 944.308,1034.65 946.576,1041.07 948.844,1047.42 951.112,1053.71 953.38,1059.93 955.648,1066.08 957.916,1072.16 960.184,1078.16 962.452,1084.09 964.72,1089.94 966.988,1095.7 969.257,1101.39 971.525,1107 973.793,1112.52 976.061,1117.95 978.329,1123.3 980.597,1128.56 982.865,1133.72 985.133,1138.8 987.401,1143.79 989.669,1148.69 991.937,1153.49 994.205,1158.19 996.473,1162.81 998.741,1167.32 1001.01,1171.75 1003.28,1176.07 1005.55,1180.3 1007.81,1184.43 1010.08,1188.47 1012.35,1192.4 1014.62,1196.24 1016.89,1199.99 1019.15,1203.63 1021.42,1207.18 1023.69,1210.64 1025.96,1213.99 1028.23,1217.25 1030.49,1220.42 1032.76,1223.49 1035.03,1226.46 1037.3,1229.35 1039.57,1232.14 1041.83,1234.83 1044.1,1237.44 1046.37,1239.95 1048.64,1242.37 1050.91,1244.71 1053.17,1246.95 1055.44,1249.11 1057.71,1251.17 1059.98,1253.16 1062.25,1255.05 1064.51,1256.87 1066.78,1258.6 1069.05,1260.24 1071.32,1261.81 1073.59,1263.3 1075.85,1264.71 1078.12,1266.05 1080.39,1267.31 1082.66,1268.49 1084.93,1269.61 1087.19,1270.65 1089.46,1271.63 1091.73,1272.54 1094,1273.38 1096.27,1274.16 1098.53,1274.88 1100.8,1275.54 1103.07,1276.14 1105.34,1276.69 1107.61,1277.19 1109.87,1277.63 1112.14,1278.02 1114.41,1278.37 1116.68,1278.67 1118.95,1278.93 1121.21,1279.15 1123.48,1279.33 1125.75,1279.48 1128.02,1279.6 1130.29,1279.68 1132.55,1279.72 1134.82,1279.74 1137.09,1279.73 1139.36,1279.7 1141.63,1279.64 1143.89,1279.56 1146.16,1279.46 1148.43,1279.35 1150.7,1279.22 1152.97,1279.07 1155.24,1278.91 1157.5,1278.75 1159.77,1278.58 1162.04,1278.4 1164.31,1278.21 1166.58,1278.03 1168.84,1277.84 1171.11,1277.66 1173.38,1277.47 1175.65,1277.3 1177.92,1277.12 1180.18,1276.96 1182.45,1276.81 1184.72,1276.67 1186.99,1276.54 1189.26,1276.42 1191.52,1276.32 1193.79,1276.24 1196.06,1276.17 1198.33,1276.13 1200.6,1276.11 1202.86,1276.11 1205.13,1276.14 1207.4,1276.19 1209.67,1276.27 1211.94,1276.37 1214.2,1276.51 1216.47,1276.67 1218.74,1276.86 1221.01,1277.09 1223.28,1277.34 1225.54,1277.63 1227.81,1277.96 1230.08,1278.32 1232.35,1278.71 1234.62,1279.14 1236.88,1279.61 1239.15,1280.12 1241.42,1280.67 1243.69,1281.26 1245.96,1281.88 1248.22,1282.55 1250.49,1283.26 1252.76,1284.01 1255.03,1284.8 1257.3,1285.63 1259.56,1286.51 1261.83,1287.43 1264.1,1288.39 1266.37,1289.39 1268.64,1290.44 1270.9,1291.52 1273.17,1292.65 1275.44,1293.82 1277.71,1295.04 1279.98,1296.29 1282.24,1297.58 1284.51,1298.92 1286.78,1300.3 1289.05,1301.71 1291.32,1303.16 1293.59,1304.66 1295.85,1306.18 1298.12,1307.75 1300.39,1309.35 1302.66,1310.99 1304.93,1312.66 1307.19,1314.36 1309.46,1316.1 1311.73,1317.87 1314,1319.67 1316.27,1321.51 1318.53,1323.37 1320.8,1325.26 1323.07,1327.18 1325.34,1329.13 1327.61,1331.11 1329.87,1333.11 1332.14,1335.13 1334.41,1337.18 1336.68,1339.25 1338.95,1341.34 1341.21,1343.45 1343.48,1345.58 1345.75,1347.73 1348.02,1349.89 1350.29,1352.07 1352.55,1354.26 1354.82,1356.47 1357.09,1358.69 1359.36,1360.92 1361.63,1363.15 1363.89,1365.4 1366.16,1367.65 1368.43,1369.9 1370.7,1372.16 1372.97,1374.42 1375.23,1376.68 1377.5,1378.94 1379.77,1381.2 1382.04,1383.45 1384.31,1385.7 1386.57,1387.94 1388.84,1390.17 1391.11,1392.39 1393.38,1394.6 1395.65,1396.8 1397.91,1398.99 1400.18,1401.16 1402.45,1403.32 1404.72,1405.46 1406.99,1407.58 1409.25,1409.68 1411.52,1411.75 1413.79,1413.81 1416.06,1415.84 1418.33,1417.84 1420.59,1419.82 1422.86,1421.77 1425.13,1423.69 1427.4,1425.58 1429.67,1427.43 1431.93,1429.25 1434.2,1431.04 1436.47,1432.8 1438.74,1434.51 1441.01,1436.19 1443.28,1437.83 1445.54,1439.43 1447.81,1440.98 1450.08,1442.5 1452.35,1443.97 1454.62,1445.4 1456.88,1446.78 1459.15,1448.11 1461.42,1449.4 1463.69,1450.64 1465.96,1451.83 1468.22,1452.97 1470.49,1454.05 1472.76,1455.09 1475.03,1456.07 1477.3,1457 1479.56,1457.87 1481.83,1458.69 1484.1,1459.46 1486.37,1460.16 1488.64,1460.81 1490.9,1461.4 1493.17,1461.93 1495.44,1462.41 1497.71,1462.82 1499.98,1463.17 1502.24,1463.46 1504.51,1463.69 1506.78,1463.85 1509.05,1463.96 1511.32,1464 1513.58,1463.97 1515.85,1463.88 1518.12,1463.73 1520.39,1463.5 1522.66,1463.22 1524.92,1462.87 1527.19,1462.45 1529.46,1461.96 1531.73,1461.41 1534,1460.79 1536.26,1460.1 1538.53,1459.35 1540.8,1458.52 1543.07,1457.63 1545.34,1456.67 1547.6,1455.64 1549.87,1454.55 1552.14,1453.38 1554.41,1452.15 1556.68,1450.85 1558.94,1449.48 1561.21,1448.04 1563.48,1446.53 1565.75,1444.96 1568.02,1443.32 1570.28,1441.6 1572.55,1439.82 1574.82,1437.97 1577.09,1436.06 1579.36,1434.07 1581.63,1432.02 1583.89,1429.89 1586.16,1427.7 1588.43,1425.44 1590.7,1423.12 1592.97,1420.72 1595.23,1418.26 1597.5,1415.73 1599.77,1413.14 1602.04,1410.48 1604.31,1407.75 1606.57,1404.95 1608.84,1402.09 1611.11,1399.16 1613.38,1396.17 1615.65,1393.11 1617.91,1389.99 1620.18,1386.8 1622.45,1383.55 1624.72,1380.23 1626.99,1376.86 1629.25,1373.41 1631.52,1369.91 1633.79,1366.34 1636.06,1362.71 1638.33,1359.02 1640.59,1355.27 1642.86,1351.45 1645.13,1347.58 1647.4,1343.65 1649.67,1339.66 1651.93,1335.61 1654.2,1331.5 1656.47,1327.33 1658.74,1323.11 1661.01,1318.82 1663.27,1314.48 1665.54,1310.09 1667.81,1305.64 1670.08,1301.13 1672.35,1296.57 1674.61,1291.95 1676.88,1287.28 1679.15,1282.56 1681.42,1277.79 1683.69,1272.96 1685.95,1268.09 1688.22,1263.16 1690.49,1258.18 1692.76,1253.16 1695.03,1248.09 1697.29,1242.97 1699.56,1237.8 1701.83,1232.58 1704.1,1227.33 1706.37,1222.02 1708.63,1216.67 1710.9,1211.28 1713.17,1205.85 1715.44,1200.38 1717.71,1194.86 1719.98,1189.3 1722.24,1183.71 1724.51,1178.07 1726.78,1172.4 1729.05,1166.69 1731.32,1160.95 1733.58,1155.17 1735.85,1149.35 1738.12,1143.5 1740.39,1137.62 1742.66,1131.71 1744.92,1125.77 1747.19,1119.79 1749.46,1113.79 1751.73,1107.76 1754,1101.7 1756.26,1095.61 1758.53,1089.5 1760.8,1083.37 1763.07,1077.21 1765.34,1071.03 1767.6,1064.83 1769.87,1058.62 1772.14,1052.38 1774.41,1046.13 1776.68,1039.86 1778.94,1033.58 1781.21,1027.28 1783.48,1020.98 1785.75,1014.66 1788.02,1008.33 1790.28,1002 1792.55,995.654 1794.82,989.307 1797.09,982.955 1799.36,976.601 1801.62,970.246 1803.89,963.89 1806.16,957.537 1808.43,951.186 1810.7,944.839 1812.96,938.499 1815.23,932.166 1817.5,925.841 1819.77,919.528 1822.04,913.226 1824.3,906.937 1826.57,900.664 1828.84,894.408 1831.11,888.17 1833.38,881.952 1835.64,875.755 1837.91,869.582 1840.18,863.433 1842.45,857.312 1844.72,851.218 1846.98,845.155 1849.25,839.124 1851.52,833.127 1853.79,827.165 1856.06,821.241 1858.32,815.355 1860.59,809.51 1862.86,803.708 1865.13,797.95 1867.4,792.237 1869.67,786.572 1871.93,780.956 1874.2,775.391 1876.47,769.879 1878.74,764.421 1881.01,759.019 1883.27,753.675 1885.54,748.391 1887.81,743.167 1890.08,738.007 1892.35,732.91 1894.61,727.881 1896.88,722.919 1899.15,718.026 1901.42,713.205 1903.69,708.457 1905.95,703.784 1908.22,699.187 1910.49,694.668 1912.76,690.229 1915.03,685.871 1917.29,681.596 1919.56,677.405 1921.83,673.302 1924.1,669.286 1926.37,665.36 1928.63,661.525 1930.9,657.783 1933.17,654.136 1935.44,650.585 1937.71,647.132 1939.97,643.779 1942.24,640.527 1944.51,637.378 1946.78,634.33 1949.05,631.387 1951.31,628.548 1953.58,625.816 1955.85,623.191 1958.12,620.675 1960.39,618.27 1962.65,615.975 1964.92,613.792 1967.19,611.723 1969.46,609.767 1971.73,607.927 1973.99,606.203 1976.26,604.595 1978.53,603.105 1980.8,601.733 1983.07,600.48 1985.33,599.346 1987.6,598.333 1989.87,597.44 1992.14,596.668 1994.41,596.018 1996.67,595.49 1998.94,595.084 2001.21,594.801 2003.48,594.641 2005.75,594.603 2008.02,594.689 2010.28,594.898 2012.55,595.231 2014.82,595.687 2017.09,596.267 2019.36,596.969 2021.62,597.795 2023.89,598.744 2026.16,599.816 2028.43,601.01 2030.7,602.326 2032.96,603.764 2035.23,605.323 2037.5,607.003 2039.77,608.804 2042.04,610.722 2044.3,612.759 2046.57,614.913 2048.84,617.183 2051.11,619.568 2053.38,622.068 2055.64,624.682 2057.91,627.409 2060.18,630.247 2062.45,633.196 2064.72,636.254 2066.98,639.42 2069.25,642.694 2071.52,646.072 2073.79,649.556 2076.06,653.141 2078.32,656.829 2080.59,660.616 2082.86,664.501 2085.13,668.483 2087.4,672.559 2089.66,676.729 2091.93,680.99 2094.2,685.34 2096.47,689.778 2098.74,694.301 2101,698.908 2103.27,703.596 2105.54,708.364 2107.81,713.208 2110.08,718.127 2112.34,723.119 2114.61,728.181 2116.88,733.311 2119.15,738.506 2121.42,743.764 2123.68,749.082 2125.95,754.458 2128.22,759.889 2130.49,765.374 2132.76,770.909 2135.02,776.494 2137.29,782.124 2139.56,787.798 2141.83,793.512 2144.1,799.265 2146.37,805.055 2148.63,810.877 2150.9,816.731 2153.17,822.613 2155.44,828.52 2157.71,834.452 2159.97,840.404 2162.24,846.375 2164.51,852.361 2166.78,858.361 2169.05,864.372 2171.31,870.391 2173.58,876.416 2175.85,882.445 2178.12,888.474 2180.39,894.502 2182.65,900.526 2184.92,906.543 2187.19,912.551 2189.46,918.547 2191.73,924.53 2193.99,930.495 2196.26,936.442 2198.53,942.367 2200.8,948.268 2203.07,954.142 2205.33,959.988 2207.6,965.802 2209.87,971.581 2212.14,977.325 2214.41,983.029 2216.67,988.692 2218.94,994.31 2221.21,999.882 2223.48,1005.41 2225.75,1010.88 2228.01,1016.3 2230.28,1021.66 2232.55,1026.98 2234.82,1032.23 2237.09,1037.43 2239.35,1042.57 2241.62,1047.65 2243.89,1052.66 2246.16,1057.61 2248.43,1062.49 2250.69,1067.3 2252.96,1072.05 2255.23,1076.72 2257.5,1081.32 2259.77,1085.84 2262.03,1090.29 2264.3,1094.67 2266.57,1098.97 2268.84,1103.18 2271.11,1107.32 2273.37,1111.38 2275.64,1115.36 2277.91,1119.26 2280.18,1123.07 2282.45,1126.8 2284.71,1130.45 2286.98,1134.01 2289.25,1137.49 2291.52,1140.89 2293.79,1144.19 2296.06,1147.42 2298.32,1150.56 2300.59,1153.61 2302.86,1156.58 2305.13,1159.46 2307.4,1162.26 2309.66,1164.97 2311.93,1167.6 2314.2,1170.14 2316.47,1172.6 2318.74,1174.97 2321,1177.26 2323.27,1179.47 2325.54,1181.6 2327.81,1183.64 2330.08,1185.61 2332.34,1187.49 2334.61,1189.29 2336.88,1191.02 2339.15,1192.66 2341.42,1194.24 2343.68,1195.73 2345.95,1197.15 2348.22,1198.5 2350.49,1199.77 2352.76,1200.98 "/>
<path clip-path="url(#clip050)" d="M1699.68 1456.66 L2277.23 1456.66 L2277.23 1249.3 L1699.68 1249.3  Z" fill="#ffffff" fill-rule="evenodd" fill-opacity="1"/>
<polyline clip-path="url(#clip050)" style="stroke:#000000; stroke-linecap:round; stroke-linejoin:round; stroke-width:4; stroke-opacity:1; fill:none" points="1699.68,1456.66 2277.23,1456.66 2277.23,1249.3 1699.68,1249.3 1699.68,1456.66 "/>
<polyline clip-path="url(#clip050)" style="stroke:#009af9; stroke-linecap:round; stroke-linejoin:round; stroke-width:4; stroke-opacity:1; fill:none" points="1724.86,1301.14 1875.91,1301.14 "/>
<path clip-path="url(#clip050)" d="M1921.43 1297.47 Q1923.03 1294.6 1925.25 1293.23 Q1927.47 1291.87 1930.48 1291.87 Q1934.53 1291.87 1936.73 1294.72 Q1938.93 1297.54 1938.93 1302.77 L1938.93 1318.42 L1934.65 1318.42 L1934.65 1302.91 Q1934.65 1299.18 1933.33 1297.38 Q1932.01 1295.57 1929.3 1295.57 Q1925.99 1295.57 1924.07 1297.77 Q1922.15 1299.97 1922.15 1303.77 L1922.15 1318.42 L1917.87 1318.42 L1917.87 1302.91 Q1917.87 1299.16 1916.55 1297.38 Q1915.23 1295.57 1912.47 1295.57 Q1909.21 1295.57 1907.29 1297.79 Q1905.37 1299.99 1905.37 1303.77 L1905.37 1318.42 L1901.08 1318.42 L1901.08 1292.49 L1905.37 1292.49 L1905.37 1296.52 Q1906.83 1294.14 1908.86 1293 Q1910.9 1291.87 1913.7 1291.87 Q1916.52 1291.87 1918.49 1293.3 Q1920.48 1294.74 1921.43 1297.47 Z" fill="#000000" fill-rule="nonzero" fill-opacity="1" /><path clip-path="url(#clip050)" d="M1963.95 1293.26 L1963.95 1297.29 Q1962.15 1296.36 1960.21 1295.9 Q1958.26 1295.43 1956.18 1295.43 Q1953.01 1295.43 1951.41 1296.41 Q1949.83 1297.38 1949.83 1299.32 Q1949.83 1300.8 1950.97 1301.66 Q1952.1 1302.49 1955.53 1303.26 L1956.99 1303.58 Q1961.52 1304.55 1963.42 1306.34 Q1965.34 1308.1 1965.34 1311.27 Q1965.34 1314.88 1962.47 1316.98 Q1959.63 1319.09 1954.63 1319.09 Q1952.54 1319.09 1950.27 1318.67 Q1948.03 1318.28 1945.53 1317.47 L1945.53 1313.07 Q1947.89 1314.3 1950.18 1314.92 Q1952.47 1315.53 1954.72 1315.53 Q1957.73 1315.53 1959.35 1314.51 Q1960.97 1313.47 1960.97 1311.59 Q1960.97 1309.85 1959.79 1308.93 Q1958.63 1308 1954.67 1307.15 L1953.19 1306.8 Q1949.23 1305.97 1947.47 1304.25 Q1945.71 1302.52 1945.71 1299.51 Q1945.71 1295.85 1948.31 1293.86 Q1950.9 1291.87 1955.67 1291.87 Q1958.03 1291.87 1960.11 1292.22 Q1962.2 1292.56 1963.95 1293.26 Z" fill="#000000" fill-rule="nonzero" fill-opacity="1" /><path clip-path="url(#clip050)" d="M1989.19 1296.43 L1989.19 1282.4 L1993.45 1282.4 L1993.45 1318.42 L1989.19 1318.42 L1989.19 1314.53 Q1987.84 1316.85 1985.78 1317.98 Q1983.75 1319.09 1980.88 1319.09 Q1976.18 1319.09 1973.21 1315.34 Q1970.27 1311.59 1970.27 1305.48 Q1970.27 1299.37 1973.21 1295.62 Q1976.18 1291.87 1980.88 1291.87 Q1983.75 1291.87 1985.78 1293 Q1987.84 1294.11 1989.19 1296.43 M1974.67 1305.48 Q1974.67 1310.18 1976.59 1312.86 Q1978.54 1315.53 1981.92 1315.53 Q1985.3 1315.53 1987.24 1312.86 Q1989.19 1310.18 1989.19 1305.48 Q1989.19 1300.78 1987.24 1298.12 Q1985.3 1295.43 1981.92 1295.43 Q1978.54 1295.43 1976.59 1298.12 Q1974.67 1300.78 1974.67 1305.48 Z" fill="#000000" fill-rule="nonzero" fill-opacity="1" /><path clip-path="url(#clip050)" d="M2003.63 1314.48 L2011.27 1314.48 L2011.27 1288.12 L2002.96 1289.79 L2002.96 1285.53 L2011.22 1283.86 L2015.9 1283.86 L2015.9 1314.48 L2023.54 1314.48 L2023.54 1318.42 L2003.63 1318.42 L2003.63 1314.48 Z" fill="#000000" fill-rule="nonzero" fill-opacity="1" /><path clip-path="url(#clip050)" d="M2041.64 1301.78 L2041.64 1309 L2049.76 1309 L2049.76 1311.2 L2041.64 1311.2 L2041.64 1318.42 L2039.21 1318.42 L2039.21 1311.2 L2031.08 1311.2 L2031.08 1309 L2039.21 1309 L2039.21 1301.78 L2041.64 1301.78 Z" fill="#000000" fill-rule="nonzero" fill-opacity="1" /><path clip-path="url(#clip050)" d="M2073.93 1293.26 L2073.93 1297.29 Q2072.13 1296.36 2070.18 1295.9 Q2068.24 1295.43 2066.15 1295.43 Q2062.98 1295.43 2061.39 1296.41 Q2059.81 1297.38 2059.81 1299.32 Q2059.81 1300.8 2060.95 1301.66 Q2062.08 1302.49 2065.51 1303.26 L2066.96 1303.58 Q2071.5 1304.55 2073.4 1306.34 Q2075.32 1308.1 2075.32 1311.27 Q2075.32 1314.88 2072.45 1316.98 Q2069.6 1319.09 2064.6 1319.09 Q2062.52 1319.09 2060.25 1318.67 Q2058.01 1318.28 2055.51 1317.47 L2055.51 1313.07 Q2057.87 1314.3 2060.16 1314.92 Q2062.45 1315.53 2064.7 1315.53 Q2067.7 1315.53 2069.32 1314.51 Q2070.95 1313.47 2070.95 1311.59 Q2070.95 1309.85 2069.76 1308.93 Q2068.61 1308 2064.65 1307.15 L2063.17 1306.8 Q2059.21 1305.97 2057.45 1304.25 Q2055.69 1302.52 2055.69 1299.51 Q2055.69 1295.85 2058.28 1293.86 Q2060.88 1291.87 2065.64 1291.87 Q2068.01 1291.87 2070.09 1292.22 Q2072.17 1292.56 2073.93 1293.26 Z" fill="#000000" fill-rule="nonzero" fill-opacity="1" /><path clip-path="url(#clip050)" d="M2086.22 1314.53 L2086.22 1328.28 L2081.94 1328.28 L2081.94 1292.49 L2086.22 1292.49 L2086.22 1296.43 Q2087.57 1294.11 2089.6 1293 Q2091.66 1291.87 2094.51 1291.87 Q2099.23 1291.87 2102.17 1295.62 Q2105.13 1299.37 2105.13 1305.48 Q2105.13 1311.59 2102.17 1315.34 Q2099.23 1319.09 2094.51 1319.09 Q2091.66 1319.09 2089.6 1317.98 Q2087.57 1316.85 2086.22 1314.53 M2100.71 1305.48 Q2100.71 1300.78 2098.77 1298.12 Q2096.85 1295.43 2093.47 1295.43 Q2090.09 1295.43 2088.14 1298.12 Q2086.22 1300.78 2086.22 1305.48 Q2086.22 1310.18 2088.14 1312.86 Q2090.09 1315.53 2093.47 1315.53 Q2096.85 1315.53 2098.77 1312.86 Q2100.71 1310.18 2100.71 1305.48 Z" fill="#000000" fill-rule="nonzero" fill-opacity="1" /><path clip-path="url(#clip050)" d="M2127.22 1296.47 Q2126.5 1296.06 2125.64 1295.87 Q2124.81 1295.66 2123.79 1295.66 Q2120.18 1295.66 2118.24 1298.03 Q2116.32 1300.36 2116.32 1304.76 L2116.32 1318.42 L2112.03 1318.42 L2112.03 1292.49 L2116.32 1292.49 L2116.32 1296.52 Q2117.66 1294.16 2119.81 1293.03 Q2121.96 1291.87 2125.04 1291.87 Q2125.48 1291.87 2126.01 1291.94 Q2126.55 1291.98 2127.19 1292.1 L2127.22 1296.47 Z" fill="#000000" fill-rule="nonzero" fill-opacity="1" /><path clip-path="url(#clip050)" d="M2131.69 1292.49 L2135.94 1292.49 L2135.94 1318.42 L2131.69 1318.42 L2131.69 1292.49 M2131.69 1282.4 L2135.94 1282.4 L2135.94 1287.79 L2131.69 1287.79 L2131.69 1282.4 Z" fill="#000000" fill-rule="nonzero" fill-opacity="1" /><path clip-path="url(#clip050)" d="M2166.41 1302.77 L2166.41 1318.42 L2162.15 1318.42 L2162.15 1302.91 Q2162.15 1299.23 2160.71 1297.4 Q2159.28 1295.57 2156.41 1295.57 Q2152.96 1295.57 2150.97 1297.77 Q2148.98 1299.97 2148.98 1303.77 L2148.98 1318.42 L2144.69 1318.42 L2144.69 1292.49 L2148.98 1292.49 L2148.98 1296.52 Q2150.5 1294.18 2152.57 1293.03 Q2154.65 1291.87 2157.36 1291.87 Q2161.82 1291.87 2164.12 1294.65 Q2166.41 1297.4 2166.41 1302.77 Z" fill="#000000" fill-rule="nonzero" fill-opacity="1" /><path clip-path="url(#clip050)" d="M2191.96 1305.16 Q2191.96 1300.53 2190.04 1297.98 Q2188.14 1295.43 2184.69 1295.43 Q2181.27 1295.43 2179.35 1297.98 Q2177.45 1300.53 2177.45 1305.16 Q2177.45 1309.76 2179.35 1312.31 Q2181.27 1314.85 2184.69 1314.85 Q2188.14 1314.85 2190.04 1312.31 Q2191.96 1309.76 2191.96 1305.16 M2196.22 1315.2 Q2196.22 1321.82 2193.28 1325.04 Q2190.34 1328.28 2184.28 1328.28 Q2182.03 1328.28 2180.04 1327.93 Q2178.05 1327.61 2176.18 1326.91 L2176.18 1322.77 Q2178.05 1323.79 2179.88 1324.28 Q2181.71 1324.76 2183.61 1324.76 Q2187.8 1324.76 2189.88 1322.56 Q2191.96 1320.39 2191.96 1315.97 L2191.96 1313.86 Q2190.64 1316.15 2188.58 1317.29 Q2186.52 1318.42 2183.65 1318.42 Q2178.88 1318.42 2175.97 1314.79 Q2173.05 1311.15 2173.05 1305.16 Q2173.05 1299.14 2175.97 1295.5 Q2178.88 1291.87 2183.65 1291.87 Q2186.52 1291.87 2188.58 1293 Q2190.64 1294.14 2191.96 1296.43 L2191.96 1292.49 L2196.22 1292.49 L2196.22 1315.2 Z" fill="#000000" fill-rule="nonzero" fill-opacity="1" /><path clip-path="url(#clip050)" d="M2214.25 1301.78 L2214.25 1309 L2222.38 1309 L2222.38 1311.2 L2214.25 1311.2 L2214.25 1318.42 L2211.82 1318.42 L2211.82 1311.2 L2203.7 1311.2 L2203.7 1309 L2211.82 1309 L2211.82 1301.78 L2214.25 1301.78 Z" fill="#000000" fill-rule="nonzero" fill-opacity="1" /><path clip-path="url(#clip050)" d="M2251.57 1292.49 L2242.19 1305.11 L2252.06 1318.42 L2247.03 1318.42 L2239.49 1308.23 L2231.94 1318.42 L2226.92 1318.42 L2236.99 1304.85 L2227.77 1292.49 L2232.8 1292.49 L2239.67 1301.73 L2246.55 1292.49 L2251.57 1292.49 Z" fill="#000000" fill-rule="nonzero" fill-opacity="1" /><polyline clip-path="url(#clip050)" style="stroke:#e26f46; stroke-linecap:round; stroke-linejoin:round; stroke-width:4; stroke-opacity:1; fill:none" points="1724.86,1352.98 1875.91,1352.98 "/>
<path clip-path="url(#clip050)" d="M1921.43 1349.31 Q1923.03 1346.44 1925.25 1345.07 Q1927.47 1343.71 1930.48 1343.71 Q1934.53 1343.71 1936.73 1346.56 Q1938.93 1349.38 1938.93 1354.61 L1938.93 1370.26 L1934.65 1370.26 L1934.65 1354.75 Q1934.65 1351.02 1933.33 1349.22 Q1932.01 1347.41 1929.3 1347.41 Q1925.99 1347.41 1924.07 1349.61 Q1922.15 1351.81 1922.15 1355.61 L1922.15 1370.26 L1917.87 1370.26 L1917.87 1354.75 Q1917.87 1351 1916.55 1349.22 Q1915.23 1347.41 1912.47 1347.41 Q1909.21 1347.41 1907.29 1349.63 Q1905.37 1351.83 1905.37 1355.61 L1905.37 1370.26 L1901.08 1370.26 L1901.08 1344.33 L1905.37 1344.33 L1905.37 1348.36 Q1906.83 1345.98 1908.86 1344.84 Q1910.9 1343.71 1913.7 1343.71 Q1916.52 1343.71 1918.49 1345.14 Q1920.48 1346.58 1921.43 1349.31 Z" fill="#000000" fill-rule="nonzero" fill-opacity="1" /><path clip-path="url(#clip050)" d="M1963.95 1345.1 L1963.95 1349.13 Q1962.15 1348.2 1960.21 1347.74 Q1958.26 1347.27 1956.18 1347.27 Q1953.01 1347.27 1951.41 1348.25 Q1949.83 1349.22 1949.83 1351.16 Q1949.83 1352.64 1950.97 1353.5 Q1952.1 1354.33 1955.53 1355.1 L1956.99 1355.42 Q1961.52 1356.39 1963.42 1358.18 Q1965.34 1359.94 1965.34 1363.11 Q1965.34 1366.72 1962.47 1368.82 Q1959.63 1370.93 1954.63 1370.93 Q1952.54 1370.93 1950.27 1370.51 Q1948.03 1370.12 1945.53 1369.31 L1945.53 1364.91 Q1947.89 1366.14 1950.18 1366.76 Q1952.47 1367.37 1954.72 1367.37 Q1957.73 1367.37 1959.35 1366.35 Q1960.97 1365.31 1960.97 1363.43 Q1960.97 1361.69 1959.79 1360.77 Q1958.63 1359.84 1954.67 1358.99 L1953.19 1358.64 Q1949.23 1357.81 1947.47 1356.09 Q1945.71 1354.36 1945.71 1351.35 Q1945.71 1347.69 1948.31 1345.7 Q1950.9 1343.71 1955.67 1343.71 Q1958.03 1343.71 1960.11 1344.06 Q1962.2 1344.4 1963.95 1345.1 Z" fill="#000000" fill-rule="nonzero" fill-opacity="1" /><path clip-path="url(#clip050)" d="M1989.19 1348.27 L1989.19 1334.24 L1993.45 1334.24 L1993.45 1370.26 L1989.19 1370.26 L1989.19 1366.37 Q1987.84 1368.69 1985.78 1369.82 Q1983.75 1370.93 1980.88 1370.93 Q1976.18 1370.93 1973.21 1367.18 Q1970.27 1363.43 1970.27 1357.32 Q1970.27 1351.21 1973.21 1347.46 Q1976.18 1343.71 1980.88 1343.71 Q1983.75 1343.71 1985.78 1344.84 Q1987.84 1345.95 1989.19 1348.27 M1974.67 1357.32 Q1974.67 1362.02 1976.59 1364.7 Q1978.54 1367.37 1981.92 1367.37 Q1985.3 1367.37 1987.24 1364.7 Q1989.19 1362.02 1989.19 1357.32 Q1989.19 1352.62 1987.24 1349.96 Q1985.3 1347.27 1981.92 1347.27 Q1978.54 1347.27 1976.59 1349.96 Q1974.67 1352.62 1974.67 1357.32 Z" fill="#000000" fill-rule="nonzero" fill-opacity="1" /><path clip-path="url(#clip050)" d="M2006.85 1366.32 L2023.17 1366.32 L2023.17 1370.26 L2001.22 1370.26 L2001.22 1366.32 Q2003.89 1363.57 2008.47 1358.94 Q2013.08 1354.29 2014.26 1352.94 Q2016.5 1350.42 2017.38 1348.69 Q2018.28 1346.93 2018.28 1345.24 Q2018.28 1342.48 2016.34 1340.75 Q2014.42 1339.01 2011.32 1339.01 Q2009.12 1339.01 2006.66 1339.77 Q2004.23 1340.54 2001.45 1342.09 L2001.45 1337.37 Q2004.28 1336.23 2006.73 1335.65 Q2009.19 1335.07 2011.22 1335.07 Q2016.59 1335.07 2019.79 1337.76 Q2022.98 1340.44 2022.98 1344.94 Q2022.98 1347.06 2022.17 1348.99 Q2021.39 1350.88 2019.28 1353.48 Q2018.7 1354.15 2015.6 1357.37 Q2012.5 1360.56 2006.85 1366.32 Z" fill="#000000" fill-rule="nonzero" fill-opacity="1" /><path clip-path="url(#clip050)" d="M2041.64 1353.62 L2041.64 1360.84 L2049.76 1360.84 L2049.76 1363.04 L2041.64 1363.04 L2041.64 1370.26 L2039.21 1370.26 L2039.21 1363.04 L2031.08 1363.04 L2031.08 1360.84 L2039.21 1360.84 L2039.21 1353.62 L2041.64 1353.62 Z" fill="#000000" fill-rule="nonzero" fill-opacity="1" /><path clip-path="url(#clip050)" d="M2073.93 1345.1 L2073.93 1349.13 Q2072.13 1348.2 2070.18 1347.74 Q2068.24 1347.27 2066.15 1347.27 Q2062.98 1347.27 2061.39 1348.25 Q2059.81 1349.22 2059.81 1351.16 Q2059.81 1352.64 2060.95 1353.5 Q2062.08 1354.33 2065.51 1355.1 L2066.96 1355.42 Q2071.5 1356.39 2073.4 1358.18 Q2075.32 1359.94 2075.32 1363.11 Q2075.32 1366.72 2072.45 1368.82 Q2069.6 1370.93 2064.6 1370.93 Q2062.52 1370.93 2060.25 1370.51 Q2058.01 1370.12 2055.51 1369.31 L2055.51 1364.91 Q2057.87 1366.14 2060.16 1366.76 Q2062.45 1367.37 2064.7 1367.37 Q2067.7 1367.37 2069.32 1366.35 Q2070.95 1365.31 2070.95 1363.43 Q2070.95 1361.69 2069.76 1360.77 Q2068.61 1359.84 2064.65 1358.99 L2063.17 1358.64 Q2059.21 1357.81 2057.45 1356.09 Q2055.69 1354.36 2055.69 1351.35 Q2055.69 1347.69 2058.28 1345.7 Q2060.88 1343.71 2065.64 1343.71 Q2068.01 1343.71 2070.09 1344.06 Q2072.17 1344.4 2073.93 1345.1 Z" fill="#000000" fill-rule="nonzero" fill-opacity="1" /><path clip-path="url(#clip050)" d="M2086.22 1366.37 L2086.22 1380.12 L2081.94 1380.12 L2081.94 1344.33 L2086.22 1344.33 L2086.22 1348.27 Q2087.57 1345.95 2089.6 1344.84 Q2091.66 1343.71 2094.51 1343.71 Q2099.23 1343.71 2102.17 1347.46 Q2105.13 1351.21 2105.13 1357.32 Q2105.13 1363.43 2102.17 1367.18 Q2099.23 1370.93 2094.51 1370.93 Q2091.66 1370.93 2089.6 1369.82 Q2087.57 1368.69 2086.22 1366.37 M2100.71 1357.32 Q2100.71 1352.62 2098.77 1349.96 Q2096.85 1347.27 2093.47 1347.27 Q2090.09 1347.27 2088.14 1349.96 Q2086.22 1352.62 2086.22 1357.32 Q2086.22 1362.02 2088.14 1364.7 Q2090.09 1367.37 2093.47 1367.37 Q2096.85 1367.37 2098.77 1364.7 Q2100.71 1362.02 2100.71 1357.32 Z" fill="#000000" fill-rule="nonzero" fill-opacity="1" /><path clip-path="url(#clip050)" d="M2127.22 1348.31 Q2126.5 1347.9 2125.64 1347.71 Q2124.81 1347.5 2123.79 1347.5 Q2120.18 1347.5 2118.24 1349.87 Q2116.32 1352.2 2116.32 1356.6 L2116.32 1370.26 L2112.03 1370.26 L2112.03 1344.33 L2116.32 1344.33 L2116.32 1348.36 Q2117.66 1346 2119.81 1344.87 Q2121.96 1343.71 2125.04 1343.71 Q2125.48 1343.71 2126.01 1343.78 Q2126.55 1343.82 2127.19 1343.94 L2127.22 1348.31 Z" fill="#000000" fill-rule="nonzero" fill-opacity="1" /><path clip-path="url(#clip050)" d="M2131.69 1344.33 L2135.94 1344.33 L2135.94 1370.26 L2131.69 1370.26 L2131.69 1344.33 M2131.69 1334.24 L2135.94 1334.24 L2135.94 1339.63 L2131.69 1339.63 L2131.69 1334.24 Z" fill="#000000" fill-rule="nonzero" fill-opacity="1" /><path clip-path="url(#clip050)" d="M2166.41 1354.61 L2166.41 1370.26 L2162.15 1370.26 L2162.15 1354.75 Q2162.15 1351.07 2160.71 1349.24 Q2159.28 1347.41 2156.41 1347.41 Q2152.96 1347.41 2150.97 1349.61 Q2148.98 1351.81 2148.98 1355.61 L2148.98 1370.26 L2144.69 1370.26 L2144.69 1344.33 L2148.98 1344.33 L2148.98 1348.36 Q2150.5 1346.02 2152.57 1344.87 Q2154.65 1343.71 2157.36 1343.71 Q2161.82 1343.71 2164.12 1346.49 Q2166.41 1349.24 2166.41 1354.61 Z" fill="#000000" fill-rule="nonzero" fill-opacity="1" /><path clip-path="url(#clip050)" d="M2191.96 1357 Q2191.96 1352.37 2190.04 1349.82 Q2188.14 1347.27 2184.69 1347.27 Q2181.27 1347.27 2179.35 1349.82 Q2177.45 1352.37 2177.45 1357 Q2177.45 1361.6 2179.35 1364.15 Q2181.27 1366.69 2184.69 1366.69 Q2188.14 1366.69 2190.04 1364.15 Q2191.96 1361.6 2191.96 1357 M2196.22 1367.04 Q2196.22 1373.66 2193.28 1376.88 Q2190.34 1380.12 2184.28 1380.12 Q2182.03 1380.12 2180.04 1379.77 Q2178.05 1379.45 2176.18 1378.75 L2176.18 1374.61 Q2178.05 1375.63 2179.88 1376.12 Q2181.71 1376.6 2183.61 1376.6 Q2187.8 1376.6 2189.88 1374.4 Q2191.96 1372.23 2191.96 1367.81 L2191.96 1365.7 Q2190.64 1367.99 2188.58 1369.13 Q2186.52 1370.26 2183.65 1370.26 Q2178.88 1370.26 2175.97 1366.63 Q2173.05 1362.99 2173.05 1357 Q2173.05 1350.98 2175.97 1347.34 Q2178.88 1343.71 2183.65 1343.71 Q2186.52 1343.71 2188.58 1344.84 Q2190.64 1345.98 2191.96 1348.27 L2191.96 1344.33 L2196.22 1344.33 L2196.22 1367.04 Z" fill="#000000" fill-rule="nonzero" fill-opacity="1" /><path clip-path="url(#clip050)" d="M2214.25 1353.62 L2214.25 1360.84 L2222.38 1360.84 L2222.38 1363.04 L2214.25 1363.04 L2214.25 1370.26 L2211.82 1370.26 L2211.82 1363.04 L2203.7 1363.04 L2203.7 1360.84 L2211.82 1360.84 L2211.82 1353.62 L2214.25 1353.62 Z" fill="#000000" fill-rule="nonzero" fill-opacity="1" /><path clip-path="url(#clip050)" d="M2251.57 1344.33 L2242.19 1356.95 L2252.06 1370.26 L2247.03 1370.26 L2239.49 1360.07 L2231.94 1370.26 L2226.92 1370.26 L2236.99 1356.69 L2227.77 1344.33 L2232.8 1344.33 L2239.67 1353.57 L2246.55 1344.33 L2251.57 1344.33 Z" fill="#000000" fill-rule="nonzero" fill-opacity="1" /><polyline clip-path="url(#clip050)" style="stroke:#3da44d; stroke-linecap:round; stroke-linejoin:round; stroke-width:4; stroke-opacity:1; fill:none" points="1724.86,1404.82 1875.91,1404.82 "/>
<path clip-path="url(#clip050)" d="M1921.43 1401.15 Q1923.03 1398.28 1925.25 1396.91 Q1927.47 1395.55 1930.48 1395.55 Q1934.53 1395.55 1936.73 1398.4 Q1938.93 1401.22 1938.93 1406.45 L1938.93 1422.1 L1934.65 1422.1 L1934.65 1406.59 Q1934.65 1402.86 1933.33 1401.06 Q1932.01 1399.25 1929.3 1399.25 Q1925.99 1399.25 1924.07 1401.45 Q1922.15 1403.65 1922.15 1407.45 L1922.15 1422.1 L1917.87 1422.1 L1917.87 1406.59 Q1917.87 1402.84 1916.55 1401.06 Q1915.23 1399.25 1912.47 1399.25 Q1909.21 1399.25 1907.29 1401.47 Q1905.37 1403.67 1905.37 1407.45 L1905.37 1422.1 L1901.08 1422.1 L1901.08 1396.17 L1905.37 1396.17 L1905.37 1400.2 Q1906.83 1397.82 1908.86 1396.68 Q1910.9 1395.55 1913.7 1395.55 Q1916.52 1395.55 1918.49 1396.98 Q1920.48 1398.42 1921.43 1401.15 Z" fill="#000000" fill-rule="nonzero" fill-opacity="1" /><path clip-path="url(#clip050)" d="M1963.95 1396.94 L1963.95 1400.97 Q1962.15 1400.04 1960.21 1399.58 Q1958.26 1399.11 1956.18 1399.11 Q1953.01 1399.11 1951.41 1400.09 Q1949.83 1401.06 1949.83 1403 Q1949.83 1404.48 1950.97 1405.34 Q1952.1 1406.17 1955.53 1406.94 L1956.99 1407.26 Q1961.52 1408.23 1963.42 1410.02 Q1965.34 1411.78 1965.34 1414.95 Q1965.34 1418.56 1962.47 1420.66 Q1959.63 1422.77 1954.63 1422.77 Q1952.54 1422.77 1950.27 1422.35 Q1948.03 1421.96 1945.53 1421.15 L1945.53 1416.75 Q1947.89 1417.98 1950.18 1418.6 Q1952.47 1419.21 1954.72 1419.21 Q1957.73 1419.21 1959.35 1418.19 Q1960.97 1417.15 1960.97 1415.27 Q1960.97 1413.53 1959.79 1412.61 Q1958.63 1411.68 1954.67 1410.83 L1953.19 1410.48 Q1949.23 1409.65 1947.47 1407.93 Q1945.71 1406.2 1945.71 1403.19 Q1945.71 1399.53 1948.31 1397.54 Q1950.9 1395.55 1955.67 1395.55 Q1958.03 1395.55 1960.11 1395.9 Q1962.2 1396.24 1963.95 1396.94 Z" fill="#000000" fill-rule="nonzero" fill-opacity="1" /><path clip-path="url(#clip050)" d="M1989.19 1400.11 L1989.19 1386.08 L1993.45 1386.08 L1993.45 1422.1 L1989.19 1422.1 L1989.19 1418.21 Q1987.84 1420.53 1985.78 1421.66 Q1983.75 1422.77 1980.88 1422.77 Q1976.18 1422.77 1973.21 1419.02 Q1970.27 1415.27 1970.27 1409.16 Q1970.27 1403.05 1973.21 1399.3 Q1976.18 1395.55 1980.88 1395.55 Q1983.75 1395.55 1985.78 1396.68 Q1987.84 1397.79 1989.19 1400.11 M1974.67 1409.16 Q1974.67 1413.86 1976.59 1416.54 Q1978.54 1419.21 1981.92 1419.21 Q1985.3 1419.21 1987.24 1416.54 Q1989.19 1413.86 1989.19 1409.16 Q1989.19 1404.46 1987.24 1401.8 Q1985.3 1399.11 1981.92 1399.11 Q1978.54 1399.11 1976.59 1401.8 Q1974.67 1404.46 1974.67 1409.16 Z" fill="#000000" fill-rule="nonzero" fill-opacity="1" /><path clip-path="url(#clip050)" d="M2016.99 1403.47 Q2020.34 1404.18 2022.22 1406.45 Q2024.12 1408.72 2024.12 1412.05 Q2024.12 1417.17 2020.6 1419.97 Q2017.08 1422.77 2010.6 1422.77 Q2008.42 1422.77 2006.11 1422.33 Q2003.82 1421.91 2001.36 1421.06 L2001.36 1416.54 Q2003.31 1417.68 2005.62 1418.26 Q2007.94 1418.84 2010.46 1418.84 Q2014.86 1418.84 2017.15 1417.1 Q2019.46 1415.36 2019.46 1412.05 Q2019.46 1409 2017.31 1407.28 Q2015.18 1405.55 2011.36 1405.55 L2007.33 1405.55 L2007.33 1401.71 L2011.55 1401.71 Q2015 1401.71 2016.83 1400.34 Q2018.65 1398.95 2018.65 1396.36 Q2018.65 1393.7 2016.76 1392.28 Q2014.88 1390.85 2011.36 1390.85 Q2009.44 1390.85 2007.24 1391.27 Q2005.04 1391.68 2002.4 1392.56 L2002.4 1388.4 Q2005.07 1387.66 2007.38 1387.28 Q2009.72 1386.91 2011.78 1386.91 Q2017.1 1386.91 2020.2 1389.34 Q2023.31 1391.75 2023.31 1395.87 Q2023.31 1398.74 2021.66 1400.73 Q2020.02 1402.7 2016.99 1403.47 Z" fill="#000000" fill-rule="nonzero" fill-opacity="1" /><path clip-path="url(#clip050)" d="M2041.64 1405.46 L2041.64 1412.68 L2049.76 1412.68 L2049.76 1414.88 L2041.64 1414.88 L2041.64 1422.1 L2039.21 1422.1 L2039.21 1414.88 L2031.08 1414.88 L2031.08 1412.68 L2039.21 1412.68 L2039.21 1405.46 L2041.64 1405.46 Z" fill="#000000" fill-rule="nonzero" fill-opacity="1" /><path clip-path="url(#clip050)" d="M2073.93 1396.94 L2073.93 1400.97 Q2072.13 1400.04 2070.18 1399.58 Q2068.24 1399.11 2066.15 1399.11 Q2062.98 1399.11 2061.39 1400.09 Q2059.81 1401.06 2059.81 1403 Q2059.81 1404.48 2060.95 1405.34 Q2062.08 1406.17 2065.51 1406.94 L2066.96 1407.26 Q2071.5 1408.23 2073.4 1410.02 Q2075.32 1411.78 2075.32 1414.95 Q2075.32 1418.56 2072.45 1420.66 Q2069.6 1422.77 2064.6 1422.77 Q2062.52 1422.77 2060.25 1422.35 Q2058.01 1421.96 2055.51 1421.15 L2055.51 1416.75 Q2057.87 1417.98 2060.16 1418.6 Q2062.45 1419.21 2064.7 1419.21 Q2067.7 1419.21 2069.32 1418.19 Q2070.95 1417.15 2070.95 1415.27 Q2070.95 1413.53 2069.76 1412.61 Q2068.61 1411.68 2064.65 1410.83 L2063.17 1410.48 Q2059.21 1409.65 2057.45 1407.93 Q2055.69 1406.2 2055.69 1403.19 Q2055.69 1399.53 2058.28 1397.54 Q2060.88 1395.55 2065.64 1395.55 Q2068.01 1395.55 2070.09 1395.9 Q2072.17 1396.24 2073.93 1396.94 Z" fill="#000000" fill-rule="nonzero" fill-opacity="1" /><path clip-path="url(#clip050)" d="M2086.22 1418.21 L2086.22 1431.96 L2081.94 1431.96 L2081.94 1396.17 L2086.22 1396.17 L2086.22 1400.11 Q2087.57 1397.79 2089.6 1396.68 Q2091.66 1395.55 2094.51 1395.55 Q2099.23 1395.55 2102.17 1399.3 Q2105.13 1403.05 2105.13 1409.16 Q2105.13 1415.27 2102.17 1419.02 Q2099.23 1422.77 2094.51 1422.77 Q2091.66 1422.77 2089.6 1421.66 Q2087.57 1420.53 2086.22 1418.21 M2100.71 1409.16 Q2100.71 1404.46 2098.77 1401.8 Q2096.85 1399.11 2093.47 1399.11 Q2090.09 1399.11 2088.14 1401.8 Q2086.22 1404.46 2086.22 1409.16 Q2086.22 1413.86 2088.14 1416.54 Q2090.09 1419.21 2093.47 1419.21 Q2096.85 1419.21 2098.77 1416.54 Q2100.71 1413.86 2100.71 1409.16 Z" fill="#000000" fill-rule="nonzero" fill-opacity="1" /><path clip-path="url(#clip050)" d="M2127.22 1400.15 Q2126.5 1399.74 2125.64 1399.55 Q2124.81 1399.34 2123.79 1399.34 Q2120.18 1399.34 2118.24 1401.71 Q2116.32 1404.04 2116.32 1408.44 L2116.32 1422.1 L2112.03 1422.1 L2112.03 1396.17 L2116.32 1396.17 L2116.32 1400.2 Q2117.66 1397.84 2119.81 1396.71 Q2121.96 1395.55 2125.04 1395.55 Q2125.48 1395.55 2126.01 1395.62 Q2126.55 1395.66 2127.19 1395.78 L2127.22 1400.15 Z" fill="#000000" fill-rule="nonzero" fill-opacity="1" /><path clip-path="url(#clip050)" d="M2131.69 1396.17 L2135.94 1396.17 L2135.94 1422.1 L2131.69 1422.1 L2131.69 1396.17 M2131.69 1386.08 L2135.94 1386.08 L2135.94 1391.47 L2131.69 1391.47 L2131.69 1386.08 Z" fill="#000000" fill-rule="nonzero" fill-opacity="1" /><path clip-path="url(#clip050)" d="M2166.41 1406.45 L2166.41 1422.1 L2162.15 1422.1 L2162.15 1406.59 Q2162.15 1402.91 2160.71 1401.08 Q2159.28 1399.25 2156.41 1399.25 Q2152.96 1399.25 2150.97 1401.45 Q2148.98 1403.65 2148.98 1407.45 L2148.98 1422.1 L2144.69 1422.1 L2144.69 1396.17 L2148.98 1396.17 L2148.98 1400.2 Q2150.5 1397.86 2152.57 1396.71 Q2154.65 1395.55 2157.36 1395.55 Q2161.82 1395.55 2164.12 1398.33 Q2166.41 1401.08 2166.41 1406.45 Z" fill="#000000" fill-rule="nonzero" fill-opacity="1" /><path clip-path="url(#clip050)" d="M2191.96 1408.84 Q2191.96 1404.21 2190.04 1401.66 Q2188.14 1399.11 2184.69 1399.11 Q2181.27 1399.11 2179.35 1401.66 Q2177.45 1404.21 2177.45 1408.84 Q2177.45 1413.44 2179.35 1415.99 Q2181.27 1418.53 2184.69 1418.53 Q2188.14 1418.53 2190.04 1415.99 Q2191.96 1413.44 2191.96 1408.84 M2196.22 1418.88 Q2196.22 1425.5 2193.28 1428.72 Q2190.34 1431.96 2184.28 1431.96 Q2182.03 1431.96 2180.04 1431.61 Q2178.05 1431.29 2176.18 1430.59 L2176.18 1426.45 Q2178.05 1427.47 2179.88 1427.96 Q2181.71 1428.44 2183.61 1428.44 Q2187.8 1428.44 2189.88 1426.24 Q2191.96 1424.07 2191.96 1419.65 L2191.96 1417.54 Q2190.64 1419.83 2188.58 1420.97 Q2186.52 1422.1 2183.65 1422.1 Q2178.88 1422.1 2175.97 1418.47 Q2173.05 1414.83 2173.05 1408.84 Q2173.05 1402.82 2175.97 1399.18 Q2178.88 1395.55 2183.65 1395.55 Q2186.52 1395.55 2188.58 1396.68 Q2190.64 1397.82 2191.96 1400.11 L2191.96 1396.17 L2196.22 1396.17 L2196.22 1418.88 Z" fill="#000000" fill-rule="nonzero" fill-opacity="1" /><path clip-path="url(#clip050)" d="M2214.25 1405.46 L2214.25 1412.68 L2222.38 1412.68 L2222.38 1414.88 L2214.25 1414.88 L2214.25 1422.1 L2211.82 1422.1 L2211.82 1414.88 L2203.7 1414.88 L2203.7 1412.68 L2211.82 1412.68 L2211.82 1405.46 L2214.25 1405.46 Z" fill="#000000" fill-rule="nonzero" fill-opacity="1" /><path clip-path="url(#clip050)" d="M2251.57 1396.17 L2242.19 1408.79 L2252.06 1422.1 L2247.03 1422.1 L2239.49 1411.91 L2231.94 1422.1 L2226.92 1422.1 L2236.99 1408.53 L2227.77 1396.17 L2232.8 1396.17 L2239.67 1405.41 L2246.55 1396.17 L2251.57 1396.17 Z" fill="#000000" fill-rule="nonzero" fill-opacity="1" /></svg>
