<?xml version="1.0" encoding="utf-8"?>
<svg xmlns="http://www.w3.org/2000/svg" xmlns:xlink="http://www.w3.org/1999/xlink" width="600" height="400" viewBox="0 0 2400 1600">
<defs>
  <clipPath id="clip900">
    <rect x="0" y="0" width="2400" height="1600"/>
  </clipPath>
</defs>
<path clip-path="url(#clip900)" d="M0 1600 L2400 1600 L2400 0 L0 0  Z" fill="#ffffff" fill-rule="evenodd" fill-opacity="1"/>
<defs>
  <clipPath id="clip901">
    <rect x="480" y="0" width="1681" height="1600"/>
  </clipPath>
</defs>
<path clip-path="url(#clip900)" d="M86.9921 1505.26 L2352.76 1505.26 L2352.76 47.2441 L86.9921 47.2441  Z" fill="#ffffff" fill-rule="evenodd" fill-opacity="1"/>
<defs>
  <clipPath id="clip902">
    <rect x="86" y="47" width="2267" height="1459"/>
  </clipPath>
</defs>
<polyline clip-path="url(#clip902)" style="stroke:#000000; stroke-linecap:round; stroke-linejoin:round; stroke-width:2; stroke-opacity:0.1; fill:none" points="86.9921,1505.26 86.9921,47.2441 "/>
<polyline clip-path="url(#clip902)" style="stroke:#000000; stroke-linecap:round; stroke-linejoin:round; stroke-width:2; stroke-opacity:0.1; fill:none" points="540.145,1505.26 540.145,47.2441 "/>
<polyline clip-path="url(#clip902)" style="stroke:#000000; stroke-linecap:round; stroke-linejoin:round; stroke-width:2; stroke-opacity:0.1; fill:none" points="993.298,1505.26 993.298,47.2441 "/>
<polyline clip-path="url(#clip902)" style="stroke:#000000; stroke-linecap:round; stroke-linejoin:round; stroke-width:2; stroke-opacity:0.1; fill:none" points="1446.45,1505.26 1446.45,47.2441 "/>
<polyline clip-path="url(#clip902)" style="stroke:#000000; stroke-linecap:round; stroke-linejoin:round; stroke-width:2; stroke-opacity:0.1; fill:none" points="1899.6,1505.26 1899.6,47.2441 "/>
<polyline clip-path="url(#clip902)" style="stroke:#000000; stroke-linecap:round; stroke-linejoin:round; stroke-width:2; stroke-opacity:0.1; fill:none" points="2352.76,1505.26 2352.76,47.2441 "/>
<polyline clip-path="url(#clip900)" style="stroke:#000000; stroke-linecap:round; stroke-linejoin:round; stroke-width:4; stroke-opacity:1; fill:none" points="86.9921,1505.26 2352.76,1505.26 "/>
<polyline clip-path="url(#clip900)" style="stroke:#000000; stroke-linecap:round; stroke-linejoin:round; stroke-width:4; stroke-opacity:1; fill:none" points="86.9921,1505.26 86.9921,1486.36 "/>
<polyline clip-path="url(#clip900)" style="stroke:#000000; stroke-linecap:round; stroke-linejoin:round; stroke-width:4; stroke-opacity:1; fill:none" points="540.145,1505.26 540.145,1486.36 "/>
<polyline clip-path="url(#clip900)" style="stroke:#000000; stroke-linecap:round; stroke-linejoin:round; stroke-width:4; stroke-opacity:1; fill:none" points="993.298,1505.26 993.298,1486.36 "/>
<polyline clip-path="url(#clip900)" style="stroke:#000000; stroke-linecap:round; stroke-linejoin:round; stroke-width:4; stroke-opacity:1; fill:none" points="1446.45,1505.26 1446.45,1486.36 "/>
<polyline clip-path="url(#clip900)" style="stroke:#000000; stroke-linecap:round; stroke-linejoin:round; stroke-width:4; stroke-opacity:1; fill:none" points="1899.6,1505.26 1899.6,1486.36 "/>
<polyline clip-path="url(#clip900)" style="stroke:#000000; stroke-linecap:round; stroke-linejoin:round; stroke-width:4; stroke-opacity:1; fill:none" points="2352.76,1505.26 2352.76,1486.36 "/>
<path clip-path="url(#clip900)" d="M86.9921 1536.18 Q83.381 1536.18 81.5523 1539.74 Q79.7468 1543.28 79.7468 1550.41 Q79.7468 1557.52 81.5523 1561.09 Q83.381 1564.63 86.9921 1564.63 Q90.6264 1564.63 92.4319 1561.09 Q94.2606 1557.52 94.2606 1550.41 Q94.2606 1543.28 92.4319 1539.74 Q90.6264 1536.18 86.9921 1536.18 M86.9921 1532.47 Q92.8023 1532.47 95.8578 1537.08 Q98.9365 1541.66 98.9365 1550.41 Q98.9365 1559.14 95.8578 1563.75 Q92.8023 1568.33 86.9921 1568.33 Q81.182 1568.33 78.1033 1563.75 Q75.0477 1559.14 75.0477 1550.41 Q75.0477 1541.66 78.1033 1537.08 Q81.182 1532.47 86.9921 1532.47 Z" fill="#000000" fill-rule="nonzero" fill-opacity="1" /><path clip-path="url(#clip900)" d="M534.798 1563.72 L551.117 1563.72 L551.117 1567.66 L529.173 1567.66 L529.173 1563.72 Q531.835 1560.97 536.418 1556.34 Q541.025 1551.69 542.205 1550.35 Q544.45 1547.82 545.33 1546.09 Q546.233 1544.33 546.233 1542.64 Q546.233 1539.88 544.288 1538.15 Q542.367 1536.41 539.265 1536.41 Q537.066 1536.41 534.613 1537.17 Q532.182 1537.94 529.404 1539.49 L529.404 1534.77 Q532.228 1533.63 534.682 1533.05 Q537.136 1532.47 539.173 1532.47 Q544.543 1532.47 547.737 1535.16 Q550.932 1537.85 550.932 1542.34 Q550.932 1544.47 550.122 1546.39 Q549.335 1548.28 547.228 1550.88 Q546.649 1551.55 543.548 1554.77 Q540.446 1557.96 534.798 1563.72 Z" fill="#000000" fill-rule="nonzero" fill-opacity="1" /><path clip-path="url(#clip900)" d="M996.307 1537.17 L984.501 1555.62 L996.307 1555.62 L996.307 1537.17 M995.08 1533.1 L1000.96 1533.1 L1000.96 1555.62 L1005.89 1555.62 L1005.89 1559.51 L1000.96 1559.51 L1000.96 1567.66 L996.307 1567.66 L996.307 1559.51 L980.705 1559.51 L980.705 1555 L995.08 1533.1 Z" fill="#000000" fill-rule="nonzero" fill-opacity="1" /><path clip-path="url(#clip900)" d="M1446.86 1548.52 Q1443.71 1548.52 1441.86 1550.67 Q1440.03 1552.82 1440.03 1556.57 Q1440.03 1560.3 1441.86 1562.47 Q1443.71 1564.63 1446.86 1564.63 Q1450 1564.63 1451.83 1562.47 Q1453.68 1560.3 1453.68 1556.57 Q1453.68 1552.82 1451.83 1550.67 Q1450 1548.52 1446.86 1548.52 M1456.14 1533.86 L1456.14 1538.12 Q1454.38 1537.29 1452.57 1536.85 Q1450.79 1536.41 1449.03 1536.41 Q1444.4 1536.41 1441.95 1539.53 Q1439.52 1542.66 1439.17 1548.98 Q1440.54 1546.97 1442.6 1545.9 Q1444.66 1544.81 1447.13 1544.81 Q1452.34 1544.81 1455.35 1547.98 Q1458.38 1551.13 1458.38 1556.57 Q1458.38 1561.9 1455.24 1565.11 Q1452.09 1568.33 1446.86 1568.33 Q1440.86 1568.33 1437.69 1563.75 Q1434.52 1559.14 1434.52 1550.41 Q1434.52 1542.22 1438.41 1537.36 Q1442.3 1532.47 1448.85 1532.47 Q1450.61 1532.47 1452.39 1532.82 Q1454.19 1533.17 1456.14 1533.86 Z" fill="#000000" fill-rule="nonzero" fill-opacity="1" /><path clip-path="url(#clip900)" d="M1899.6 1551.25 Q1896.27 1551.25 1894.35 1553.03 Q1892.45 1554.81 1892.45 1557.94 Q1892.45 1561.06 1894.35 1562.85 Q1896.27 1564.63 1899.6 1564.63 Q1902.94 1564.63 1904.86 1562.85 Q1906.78 1561.04 1906.78 1557.94 Q1906.78 1554.81 1904.86 1553.03 Q1902.96 1551.25 1899.6 1551.25 M1894.93 1549.26 Q1891.92 1548.52 1890.23 1546.46 Q1888.56 1544.4 1888.56 1541.43 Q1888.56 1537.29 1891.5 1534.88 Q1894.46 1532.47 1899.6 1532.47 Q1904.77 1532.47 1907.7 1534.88 Q1910.64 1537.29 1910.64 1541.43 Q1910.64 1544.4 1908.95 1546.46 Q1907.29 1548.52 1904.3 1549.26 Q1907.68 1550.04 1909.56 1552.34 Q1911.45 1554.63 1911.45 1557.94 Q1911.45 1562.96 1908.38 1565.65 Q1905.32 1568.33 1899.6 1568.33 Q1893.89 1568.33 1890.81 1565.65 Q1887.75 1562.96 1887.75 1557.94 Q1887.75 1554.63 1889.65 1552.34 Q1891.55 1550.04 1894.93 1549.26 M1893.21 1541.87 Q1893.21 1544.56 1894.88 1546.06 Q1896.57 1547.57 1899.6 1547.57 Q1902.61 1547.57 1904.3 1546.06 Q1906.02 1544.56 1906.02 1541.87 Q1906.02 1539.19 1904.3 1537.68 Q1902.61 1536.18 1899.6 1536.18 Q1896.57 1536.18 1894.88 1537.68 Q1893.21 1539.19 1893.21 1541.87 Z" fill="#000000" fill-rule="nonzero" fill-opacity="1" /><path clip-path="url(#clip900)" d="M2327.44 1563.72 L2335.08 1563.72 L2335.08 1537.36 L2326.77 1539.03 L2326.77 1534.77 L2335.04 1533.1 L2339.71 1533.1 L2339.71 1563.72 L2347.35 1563.72 L2347.35 1567.66 L2327.44 1567.66 L2327.44 1563.72 Z" fill="#000000" fill-rule="nonzero" fill-opacity="1" /><path clip-path="url(#clip900)" d="M2366.8 1536.18 Q2363.18 1536.18 2361.36 1539.74 Q2359.55 1543.28 2359.55 1550.41 Q2359.55 1557.52 2361.36 1561.09 Q2363.18 1564.63 2366.8 1564.63 Q2370.43 1564.63 2372.23 1561.09 Q2374.06 1557.52 2374.06 1550.41 Q2374.06 1543.28 2372.23 1539.74 Q2370.43 1536.18 2366.8 1536.18 M2366.8 1532.47 Q2372.61 1532.47 2375.66 1537.08 Q2378.74 1541.66 2378.74 1550.41 Q2378.74 1559.14 2375.66 1563.75 Q2372.61 1568.33 2366.8 1568.33 Q2360.99 1568.33 2357.91 1563.75 Q2354.85 1559.14 2354.85 1550.41 Q2354.85 1541.66 2357.91 1537.08 Q2360.99 1532.47 2366.8 1532.47 Z" fill="#000000" fill-rule="nonzero" fill-opacity="1" /><path clip-path="url(#clip900)" d="M1218.94 1604.35 L1218.94 1614.48 L1231 1614.48 L1231 1619.03 L1218.94 1619.03 L1218.94 1638.38 Q1218.94 1642.74 1220.11 1643.98 Q1221.32 1645.22 1224.98 1645.22 L1231 1645.22 L1231 1650.12 L1224.98 1650.12 Q1218.2 1650.12 1215.62 1647.61 Q1213.05 1645.06 1213.05 1638.38 L1213.05 1619.03 L1208.75 1619.03 L1208.75 1614.48 L1213.05 1614.48 L1213.05 1604.35 L1218.94 1604.35 Z" fill="#000000" fill-rule="nonzero" fill-opacity="1" /><polyline clip-path="url(#clip902)" style="stroke:#000000; stroke-linecap:round; stroke-linejoin:round; stroke-width:2; stroke-opacity:0.1; fill:none" points="86.9921,1478.62 2352.76,1478.62 "/>
<polyline clip-path="url(#clip902)" style="stroke:#000000; stroke-linecap:round; stroke-linejoin:round; stroke-width:2; stroke-opacity:0.1; fill:none" points="86.9921,1250.18 2352.76,1250.18 "/>
<polyline clip-path="url(#clip902)" style="stroke:#000000; stroke-linecap:round; stroke-linejoin:round; stroke-width:2; stroke-opacity:0.1; fill:none" points="86.9921,1021.75 2352.76,1021.75 "/>
<polyline clip-path="url(#clip902)" style="stroke:#000000; stroke-linecap:round; stroke-linejoin:round; stroke-width:2; stroke-opacity:0.1; fill:none" points="86.9921,793.322 2352.76,793.322 "/>
<polyline clip-path="url(#clip902)" style="stroke:#000000; stroke-linecap:round; stroke-linejoin:round; stroke-width:2; stroke-opacity:0.1; fill:none" points="86.9921,564.891 2352.76,564.891 "/>
<polyline clip-path="url(#clip902)" style="stroke:#000000; stroke-linecap:round; stroke-linejoin:round; stroke-width:2; stroke-opacity:0.1; fill:none" points="86.9921,336.46 2352.76,336.46 "/>
<polyline clip-path="url(#clip902)" style="stroke:#000000; stroke-linecap:round; stroke-linejoin:round; stroke-width:2; stroke-opacity:0.1; fill:none" points="86.9921,108.029 2352.76,108.029 "/>
<polyline clip-path="url(#clip900)" style="stroke:#000000; stroke-linecap:round; stroke-linejoin:round; stroke-width:4; stroke-opacity:1; fill:none" points="86.9921,1505.26 86.9921,47.2441 "/>
<polyline clip-path="url(#clip900)" style="stroke:#000000; stroke-linecap:round; stroke-linejoin:round; stroke-width:4; stroke-opacity:1; fill:none" points="86.9921,1478.62 105.89,1478.62 "/>
<polyline clip-path="url(#clip900)" style="stroke:#000000; stroke-linecap:round; stroke-linejoin:round; stroke-width:4; stroke-opacity:1; fill:none" points="86.9921,1250.18 105.89,1250.18 "/>
<polyline clip-path="url(#clip900)" style="stroke:#000000; stroke-linecap:round; stroke-linejoin:round; stroke-width:4; stroke-opacity:1; fill:none" points="86.9921,1021.75 105.89,1021.75 "/>
<polyline clip-path="url(#clip900)" style="stroke:#000000; stroke-linecap:round; stroke-linejoin:round; stroke-width:4; stroke-opacity:1; fill:none" points="86.9921,793.322 105.89,793.322 "/>
<polyline clip-path="url(#clip900)" style="stroke:#000000; stroke-linecap:round; stroke-linejoin:round; stroke-width:4; stroke-opacity:1; fill:none" points="86.9921,564.891 105.89,564.891 "/>
<polyline clip-path="url(#clip900)" style="stroke:#000000; stroke-linecap:round; stroke-linejoin:round; stroke-width:4; stroke-opacity:1; fill:none" points="86.9921,336.46 105.89,336.46 "/>
<polyline clip-path="url(#clip900)" style="stroke:#000000; stroke-linecap:round; stroke-linejoin:round; stroke-width:4; stroke-opacity:1; fill:none" points="86.9921,108.029 105.89,108.029 "/>
<path clip-path="url(#clip900)" d="M-115.627 1479.07 L-85.9516 1479.07 L-85.9516 1483 L-115.627 1483 L-115.627 1479.07 Z" fill="#000000" fill-rule="nonzero" fill-opacity="1" /><path clip-path="url(#clip900)" d="M-65.8591 1464.41 Q-69.4702 1464.41 -71.2989 1467.98 Q-73.1044 1471.52 -73.1044 1478.65 Q-73.1044 1485.76 -71.2989 1489.32 Q-69.4702 1492.86 -65.8591 1492.86 Q-62.2249 1492.86 -60.4193 1489.32 Q-58.5906 1485.76 -58.5906 1478.65 Q-58.5906 1471.52 -60.4193 1467.98 Q-62.2249 1464.41 -65.8591 1464.41 M-65.8591 1460.71 Q-60.0489 1460.71 -56.9934 1465.32 Q-53.9147 1469.9 -53.9147 1478.65 Q-53.9147 1487.38 -56.9934 1491.98 Q-60.0489 1496.57 -65.8591 1496.57 Q-71.6693 1496.57 -74.7479 1491.98 Q-77.8035 1487.38 -77.8035 1478.65 Q-77.8035 1469.9 -74.7479 1465.32 Q-71.6693 1460.71 -65.8591 1460.71 Z" fill="#000000" fill-rule="nonzero" fill-opacity="1" /><path clip-path="url(#clip900)" d="M-45.6972 1490.02 L-40.8129 1490.02 L-40.8129 1495.9 L-45.6972 1495.9 L-45.6972 1490.02 Z" fill="#000000" fill-rule="nonzero" fill-opacity="1" /><path clip-path="url(#clip900)" d="M-20.6279 1464.41 Q-24.239 1464.41 -26.0676 1467.98 Q-27.8732 1471.52 -27.8732 1478.65 Q-27.8732 1485.76 -26.0676 1489.32 Q-24.239 1492.86 -20.6279 1492.86 Q-16.9936 1492.86 -15.1881 1489.32 Q-13.3594 1485.76 -13.3594 1478.65 Q-13.3594 1471.52 -15.1881 1467.98 Q-16.9936 1464.41 -20.6279 1464.41 M-20.6279 1460.71 Q-14.8177 1460.71 -11.7622 1465.32 Q-8.68348 1469.9 -8.68348 1478.65 Q-8.68348 1487.38 -11.7622 1491.98 Q-14.8177 1496.57 -20.6279 1496.57 Q-26.438 1496.57 -29.5167 1491.98 Q-32.5722 1487.38 -32.5722 1478.65 Q-32.5722 1469.9 -29.5167 1465.32 Q-26.438 1460.71 -20.6279 1460.71 Z" fill="#000000" fill-rule="nonzero" fill-opacity="1" /><path clip-path="url(#clip900)" d="M9.53401 1464.41 Q5.92292 1464.41 4.09423 1467.98 Q2.28868 1471.52 2.28868 1478.65 Q2.28868 1485.76 4.09423 1489.32 Q5.92292 1492.86 9.53401 1492.86 Q13.1683 1492.86 14.9738 1489.32 Q16.8025 1485.76 16.8025 1478.65 Q16.8025 1471.52 14.9738 1467.98 Q13.1683 1464.41 9.53401 1464.41 M9.53401 1460.71 Q15.3442 1460.71 18.3997 1465.32 Q21.4784 1469.9 21.4784 1478.65 Q21.4784 1487.38 18.3997 1491.98 Q15.3442 1496.57 9.53401 1496.57 Q3.72386 1496.57 0.645174 1491.98 Q-2.41037 1487.38 -2.41037 1478.65 Q-2.41037 1469.9 0.645174 1465.32 Q3.72386 1460.71 9.53401 1460.71 Z" fill="#000000" fill-rule="nonzero" fill-opacity="1" /><path clip-path="url(#clip900)" d="M43.8625 1477.26 Q47.219 1477.98 49.094 1480.25 Q50.9921 1482.52 50.9921 1485.85 Q50.9921 1490.97 47.4736 1493.77 Q43.9551 1496.57 37.4737 1496.57 Q35.2978 1496.57 32.983 1496.13 Q30.6913 1495.71 28.2376 1494.85 L28.2376 1490.34 Q30.1821 1491.47 32.4969 1492.05 Q34.8117 1492.63 37.3348 1492.63 Q41.7329 1492.63 44.0246 1490.9 Q46.3394 1489.16 46.3394 1485.85 Q46.3394 1482.79 44.1866 1481.08 Q42.057 1479.34 38.2376 1479.34 L34.2098 1479.34 L34.2098 1475.5 L38.4227 1475.5 Q41.8718 1475.5 43.7005 1474.14 Q45.5292 1472.75 45.5292 1470.16 Q45.5292 1467.49 43.6311 1466.08 Q41.7561 1464.65 38.2376 1464.65 Q36.3163 1464.65 34.1172 1465.06 Q31.9182 1465.48 29.2793 1466.36 L29.2793 1462.19 Q31.9413 1461.45 34.2561 1461.08 Q36.5941 1460.71 38.6542 1460.71 Q43.9783 1460.71 47.0801 1463.14 Q50.1819 1465.55 50.1819 1469.67 Q50.1819 1472.54 48.5384 1474.53 Q46.8949 1476.5 43.8625 1477.26 Z" fill="#000000" fill-rule="nonzero" fill-opacity="1" /><path clip-path="url(#clip900)" d="M-114.678 1250.64 L-85.0025 1250.64 L-85.0025 1254.57 L-114.678 1254.57 L-114.678 1250.64 Z" fill="#000000" fill-rule="nonzero" fill-opacity="1" /><path clip-path="url(#clip900)" d="M-64.91 1235.98 Q-68.5211 1235.98 -70.3498 1239.55 Q-72.1554 1243.09 -72.1554 1250.22 Q-72.1554 1257.33 -70.3498 1260.89 Q-68.5211 1264.43 -64.91 1264.43 Q-61.2758 1264.43 -59.4702 1260.89 Q-57.6416 1257.33 -57.6416 1250.22 Q-57.6416 1243.09 -59.4702 1239.55 Q-61.2758 1235.98 -64.91 1235.98 M-64.91 1232.28 Q-59.0999 1232.28 -56.0443 1236.89 Q-52.9657 1241.47 -52.9657 1250.22 Q-52.9657 1258.95 -56.0443 1263.55 Q-59.0999 1268.14 -64.91 1268.14 Q-70.7202 1268.14 -73.7989 1263.55 Q-76.8544 1258.95 -76.8544 1250.22 Q-76.8544 1241.47 -73.7989 1236.89 Q-70.7202 1232.28 -64.91 1232.28 Z" fill="#000000" fill-rule="nonzero" fill-opacity="1" /><path clip-path="url(#clip900)" d="M-44.7481 1261.59 L-39.8639 1261.59 L-39.8639 1267.46 L-44.7481 1267.46 L-44.7481 1261.59 Z" fill="#000000" fill-rule="nonzero" fill-opacity="1" /><path clip-path="url(#clip900)" d="M-19.6788 1235.98 Q-23.2899 1235.98 -25.1186 1239.55 Q-26.9241 1243.09 -26.9241 1250.22 Q-26.9241 1257.33 -25.1186 1260.89 Q-23.2899 1264.43 -19.6788 1264.43 Q-16.0446 1264.43 -14.239 1260.89 Q-12.4103 1257.33 -12.4103 1250.22 Q-12.4103 1243.09 -14.239 1239.55 Q-16.0446 1235.98 -19.6788 1235.98 M-19.6788 1232.28 Q-13.8686 1232.28 -10.8131 1236.89 Q-7.73441 1241.47 -7.73441 1250.22 Q-7.73441 1258.95 -10.8131 1263.55 Q-13.8686 1268.14 -19.6788 1268.14 Q-25.4889 1268.14 -28.5676 1263.55 Q-31.6232 1258.95 -31.6232 1250.22 Q-31.6232 1241.47 -28.5676 1236.89 Q-25.4889 1232.28 -19.6788 1232.28 Z" fill="#000000" fill-rule="nonzero" fill-opacity="1" /><path clip-path="url(#clip900)" d="M10.4831 1235.98 Q6.87199 1235.98 5.0433 1239.55 Q3.23775 1243.09 3.23775 1250.22 Q3.23775 1257.33 5.0433 1260.89 Q6.87199 1264.43 10.4831 1264.43 Q14.1173 1264.43 15.9229 1260.89 Q17.7516 1257.33 17.7516 1250.22 Q17.7516 1243.09 15.9229 1239.55 Q14.1173 1235.98 10.4831 1235.98 M10.4831 1232.28 Q16.2932 1232.28 19.3488 1236.89 Q22.4275 1241.47 22.4275 1250.22 Q22.4275 1258.95 19.3488 1263.55 Q16.2932 1268.14 10.4831 1268.14 Q4.67293 1268.14 1.59424 1263.55 Q-1.4613 1258.95 -1.4613 1250.22 Q-1.4613 1241.47 1.59424 1236.89 Q4.67293 1232.28 10.4831 1232.28 Z" fill="#000000" fill-rule="nonzero" fill-opacity="1" /><path clip-path="url(#clip900)" d="M34.6728 1263.53 L50.9921 1263.53 L50.9921 1267.46 L29.0478 1267.46 L29.0478 1263.53 Q31.7098 1260.77 36.2931 1256.15 Q40.8996 1251.49 42.0801 1250.15 Q44.3255 1247.63 45.2051 1245.89 Q46.1079 1244.13 46.1079 1242.44 Q46.1079 1239.69 44.1635 1237.95 Q42.2422 1236.21 39.1403 1236.21 Q36.9413 1236.21 34.4876 1236.98 Q32.057 1237.74 29.2793 1239.29 L29.2793 1234.57 Q32.1033 1233.44 34.557 1232.86 Q37.0107 1232.28 39.0477 1232.28 Q44.4181 1232.28 47.6125 1234.96 Q50.8069 1237.65 50.8069 1242.14 Q50.8069 1244.27 49.9968 1246.19 Q49.2097 1248.09 47.1033 1250.68 Q46.5246 1251.35 43.4227 1254.57 Q40.3209 1257.77 34.6728 1263.53 Z" fill="#000000" fill-rule="nonzero" fill-opacity="1" /><path clip-path="url(#clip900)" d="M-115.049 1022.2 L-85.3729 1022.2 L-85.3729 1026.14 L-115.049 1026.14 L-115.049 1022.2 Z" fill="#000000" fill-rule="nonzero" fill-opacity="1" /><path clip-path="url(#clip900)" d="M-65.2804 1007.55 Q-68.8915 1007.55 -70.7202 1011.12 Q-72.5257 1014.66 -72.5257 1021.79 Q-72.5257 1028.89 -70.7202 1032.46 Q-68.8915 1036 -65.2804 1036 Q-61.6462 1036 -59.8406 1032.46 Q-58.0119 1028.89 -58.0119 1021.79 Q-58.0119 1014.66 -59.8406 1011.12 Q-61.6462 1007.55 -65.2804 1007.55 M-65.2804 1003.85 Q-59.4702 1003.85 -56.4147 1008.46 Q-53.336 1013.04 -53.336 1021.79 Q-53.336 1030.52 -56.4147 1035.12 Q-59.4702 1039.7 -65.2804 1039.7 Q-71.0906 1039.7 -74.1692 1035.12 Q-77.2248 1030.52 -77.2248 1021.79 Q-77.2248 1013.04 -74.1692 1008.46 Q-71.0906 1003.85 -65.2804 1003.85 Z" fill="#000000" fill-rule="nonzero" fill-opacity="1" /><path clip-path="url(#clip900)" d="M-45.1185 1033.15 L-40.2342 1033.15 L-40.2342 1039.03 L-45.1185 1039.03 L-45.1185 1033.15 Z" fill="#000000" fill-rule="nonzero" fill-opacity="1" /><path clip-path="url(#clip900)" d="M-20.0492 1007.55 Q-23.6603 1007.55 -25.4889 1011.12 Q-27.2945 1014.66 -27.2945 1021.79 Q-27.2945 1028.89 -25.4889 1032.46 Q-23.6603 1036 -20.0492 1036 Q-16.4149 1036 -14.6094 1032.46 Q-12.7807 1028.89 -12.7807 1021.79 Q-12.7807 1014.66 -14.6094 1011.12 Q-16.4149 1007.55 -20.0492 1007.55 M-20.0492 1003.85 Q-14.239 1003.85 -11.1835 1008.46 Q-8.10478 1013.04 -8.10478 1021.79 Q-8.10478 1030.52 -11.1835 1035.12 Q-14.239 1039.7 -20.0492 1039.7 Q-25.8593 1039.7 -28.938 1035.12 Q-31.9935 1030.52 -31.9935 1021.79 Q-31.9935 1013.04 -28.938 1008.46 Q-25.8593 1003.85 -20.0492 1003.85 Z" fill="#000000" fill-rule="nonzero" fill-opacity="1" /><path clip-path="url(#clip900)" d="M10.1127 1007.55 Q6.50162 1007.55 4.67293 1011.12 Q2.86738 1014.66 2.86738 1021.79 Q2.86738 1028.89 4.67293 1032.46 Q6.50162 1036 10.1127 1036 Q13.747 1036 15.5525 1032.46 Q17.3812 1028.89 17.3812 1021.79 Q17.3812 1014.66 15.5525 1011.12 Q13.747 1007.55 10.1127 1007.55 M10.1127 1003.85 Q15.9229 1003.85 18.9784 1008.46 Q22.0571 1013.04 22.0571 1021.79 Q22.0571 1030.52 18.9784 1035.12 Q15.9229 1039.7 10.1127 1039.7 Q4.30256 1039.7 1.22387 1035.12 Q-1.83167 1030.52 -1.83167 1021.79 Q-1.83167 1013.04 1.22387 1008.46 Q4.30256 1003.85 10.1127 1003.85 Z" fill="#000000" fill-rule="nonzero" fill-opacity="1" /><path clip-path="url(#clip900)" d="M31.0848 1035.1 L38.7237 1035.1 L38.7237 1008.73 L30.4135 1010.4 L30.4135 1006.14 L38.6774 1004.47 L43.3533 1004.47 L43.3533 1035.1 L50.9921 1035.1 L50.9921 1039.03 L31.0848 1039.03 L31.0848 1035.1 Z" fill="#000000" fill-rule="nonzero" fill-opacity="1" /><path clip-path="url(#clip900)" d="M-66.5072 779.121 Q-70.1183 779.121 -71.947 782.686 Q-73.7526 786.228 -73.7526 793.357 Q-73.7526 800.464 -71.947 804.028 Q-70.1183 807.57 -66.5072 807.57 Q-62.873 807.57 -61.0675 804.028 Q-59.2388 800.464 -59.2388 793.357 Q-59.2388 786.228 -61.0675 782.686 Q-62.873 779.121 -66.5072 779.121 M-66.5072 775.417 Q-60.6971 775.417 -57.6416 780.024 Q-54.5629 784.607 -54.5629 793.357 Q-54.5629 802.084 -57.6416 806.69 Q-60.6971 811.274 -66.5072 811.274 Q-72.3174 811.274 -75.3961 806.69 Q-78.4516 802.084 -78.4516 793.357 Q-78.4516 784.607 -75.3961 780.024 Q-72.3174 775.417 -66.5072 775.417 Z" fill="#000000" fill-rule="nonzero" fill-opacity="1" /><path clip-path="url(#clip900)" d="M-46.3453 804.723 L-41.4611 804.723 L-41.4611 810.602 L-46.3453 810.602 L-46.3453 804.723 Z" fill="#000000" fill-rule="nonzero" fill-opacity="1" /><path clip-path="url(#clip900)" d="M-21.276 779.121 Q-24.8871 779.121 -26.7158 782.686 Q-28.5213 786.228 -28.5213 793.357 Q-28.5213 800.464 -26.7158 804.028 Q-24.8871 807.57 -21.276 807.57 Q-17.6418 807.57 -15.8362 804.028 Q-14.0075 800.464 -14.0075 793.357 Q-14.0075 786.228 -15.8362 782.686 Q-17.6418 779.121 -21.276 779.121 M-21.276 775.417 Q-15.4659 775.417 -12.4103 780.024 Q-9.33162 784.607 -9.33162 793.357 Q-9.33162 802.084 -12.4103 806.69 Q-15.4659 811.274 -21.276 811.274 Q-27.0862 811.274 -30.1648 806.69 Q-33.2204 802.084 -33.2204 793.357 Q-33.2204 784.607 -30.1648 780.024 Q-27.0862 775.417 -21.276 775.417 Z" fill="#000000" fill-rule="nonzero" fill-opacity="1" /><path clip-path="url(#clip900)" d="M8.88587 779.121 Q5.27478 779.121 3.44608 782.686 Q1.64054 786.228 1.64054 793.357 Q1.64054 800.464 3.44608 804.028 Q5.27478 807.57 8.88587 807.57 Q12.5201 807.57 14.3257 804.028 Q16.1543 800.464 16.1543 793.357 Q16.1543 786.228 14.3257 782.686 Q12.5201 779.121 8.88587 779.121 M8.88587 775.417 Q14.696 775.417 17.7516 780.024 Q20.8303 784.607 20.8303 793.357 Q20.8303 802.084 17.7516 806.69 Q14.696 811.274 8.88587 811.274 Q3.07572 811.274 -0.00297114 806.69 Q-3.05851 802.084 -3.05851 793.357 Q-3.05851 784.607 -0.00297114 780.024 Q3.07572 775.417 8.88587 775.417 Z" fill="#000000" fill-rule="nonzero" fill-opacity="1" /><path clip-path="url(#clip900)" d="M39.0477 779.121 Q35.4367 779.121 33.608 782.686 Q31.8024 786.228 31.8024 793.357 Q31.8024 800.464 33.608 804.028 Q35.4367 807.57 39.0477 807.57 Q42.682 807.57 44.4875 804.028 Q46.3162 800.464 46.3162 793.357 Q46.3162 786.228 44.4875 782.686 Q42.682 779.121 39.0477 779.121 M39.0477 775.417 Q44.8579 775.417 47.9134 780.024 Q50.9921 784.607 50.9921 793.357 Q50.9921 802.084 47.9134 806.69 Q44.8579 811.274 39.0477 811.274 Q33.2376 811.274 30.1589 806.69 Q27.1034 802.084 27.1034 793.357 Q27.1034 784.607 30.1589 780.024 Q33.2376 775.417 39.0477 775.417 Z" fill="#000000" fill-rule="nonzero" fill-opacity="1" /><path clip-path="url(#clip900)" d="M-65.2804 550.69 Q-68.8915 550.69 -70.7202 554.255 Q-72.5257 557.796 -72.5257 564.926 Q-72.5257 572.032 -70.7202 575.597 Q-68.8915 579.139 -65.2804 579.139 Q-61.6462 579.139 -59.8406 575.597 Q-58.0119 572.032 -58.0119 564.926 Q-58.0119 557.796 -59.8406 554.255 Q-61.6462 550.69 -65.2804 550.69 M-65.2804 546.986 Q-59.4702 546.986 -56.4147 551.593 Q-53.336 556.176 -53.336 564.926 Q-53.336 573.653 -56.4147 578.259 Q-59.4702 582.843 -65.2804 582.843 Q-71.0906 582.843 -74.1692 578.259 Q-77.2248 573.653 -77.2248 564.926 Q-77.2248 556.176 -74.1692 551.593 Q-71.0906 546.986 -65.2804 546.986 Z" fill="#000000" fill-rule="nonzero" fill-opacity="1" /><path clip-path="url(#clip900)" d="M-45.1185 576.292 L-40.2342 576.292 L-40.2342 582.171 L-45.1185 582.171 L-45.1185 576.292 Z" fill="#000000" fill-rule="nonzero" fill-opacity="1" /><path clip-path="url(#clip900)" d="M-20.0492 550.69 Q-23.6603 550.69 -25.4889 554.255 Q-27.2945 557.796 -27.2945 564.926 Q-27.2945 572.032 -25.4889 575.597 Q-23.6603 579.139 -20.0492 579.139 Q-16.4149 579.139 -14.6094 575.597 Q-12.7807 572.032 -12.7807 564.926 Q-12.7807 557.796 -14.6094 554.255 Q-16.4149 550.69 -20.0492 550.69 M-20.0492 546.986 Q-14.239 546.986 -11.1835 551.593 Q-8.10478 556.176 -8.10478 564.926 Q-8.10478 573.653 -11.1835 578.259 Q-14.239 582.843 -20.0492 582.843 Q-25.8593 582.843 -28.938 578.259 Q-31.9935 573.653 -31.9935 564.926 Q-31.9935 556.176 -28.938 551.593 Q-25.8593 546.986 -20.0492 546.986 Z" fill="#000000" fill-rule="nonzero" fill-opacity="1" /><path clip-path="url(#clip900)" d="M10.1127 550.69 Q6.50162 550.69 4.67293 554.255 Q2.86738 557.796 2.86738 564.926 Q2.86738 572.032 4.67293 575.597 Q6.50162 579.139 10.1127 579.139 Q13.747 579.139 15.5525 575.597 Q17.3812 572.032 17.3812 564.926 Q17.3812 557.796 15.5525 554.255 Q13.747 550.69 10.1127 550.69 M10.1127 546.986 Q15.9229 546.986 18.9784 551.593 Q22.0571 556.176 22.0571 564.926 Q22.0571 573.653 18.9784 578.259 Q15.9229 582.843 10.1127 582.843 Q4.30256 582.843 1.22387 578.259 Q-1.83167 573.653 -1.83167 564.926 Q-1.83167 556.176 1.22387 551.593 Q4.30256 546.986 10.1127 546.986 Z" fill="#000000" fill-rule="nonzero" fill-opacity="1" /><path clip-path="url(#clip900)" d="M31.0848 578.236 L38.7237 578.236 L38.7237 551.871 L30.4135 553.537 L30.4135 549.278 L38.6774 547.611 L43.3533 547.611 L43.3533 578.236 L50.9921 578.236 L50.9921 582.171 L31.0848 582.171 L31.0848 578.236 Z" fill="#000000" fill-rule="nonzero" fill-opacity="1" /><path clip-path="url(#clip900)" d="M-64.91 322.259 Q-68.5211 322.259 -70.3498 325.824 Q-72.1554 329.365 -72.1554 336.495 Q-72.1554 343.601 -70.3498 347.166 Q-68.5211 350.708 -64.91 350.708 Q-61.2758 350.708 -59.4702 347.166 Q-57.6416 343.601 -57.6416 336.495 Q-57.6416 329.365 -59.4702 325.824 Q-61.2758 322.259 -64.91 322.259 M-64.91 318.555 Q-59.0999 318.555 -56.0443 323.162 Q-52.9657 327.745 -52.9657 336.495 Q-52.9657 345.222 -56.0443 349.828 Q-59.0999 354.411 -64.91 354.411 Q-70.7202 354.411 -73.7989 349.828 Q-76.8544 345.222 -76.8544 336.495 Q-76.8544 327.745 -73.7989 323.162 Q-70.7202 318.555 -64.91 318.555 Z" fill="#000000" fill-rule="nonzero" fill-opacity="1" /><path clip-path="url(#clip900)" d="M-44.7481 347.861 L-39.8639 347.861 L-39.8639 353.74 L-44.7481 353.74 L-44.7481 347.861 Z" fill="#000000" fill-rule="nonzero" fill-opacity="1" /><path clip-path="url(#clip900)" d="M-19.6788 322.259 Q-23.2899 322.259 -25.1186 325.824 Q-26.9241 329.365 -26.9241 336.495 Q-26.9241 343.601 -25.1186 347.166 Q-23.2899 350.708 -19.6788 350.708 Q-16.0446 350.708 -14.239 347.166 Q-12.4103 343.601 -12.4103 336.495 Q-12.4103 329.365 -14.239 325.824 Q-16.0446 322.259 -19.6788 322.259 M-19.6788 318.555 Q-13.8686 318.555 -10.8131 323.162 Q-7.73441 327.745 -7.73441 336.495 Q-7.73441 345.222 -10.8131 349.828 Q-13.8686 354.411 -19.6788 354.411 Q-25.4889 354.411 -28.5676 349.828 Q-31.6232 345.222 -31.6232 336.495 Q-31.6232 327.745 -28.5676 323.162 Q-25.4889 318.555 -19.6788 318.555 Z" fill="#000000" fill-rule="nonzero" fill-opacity="1" /><path clip-path="url(#clip900)" d="M10.4831 322.259 Q6.87199 322.259 5.0433 325.824 Q3.23775 329.365 3.23775 336.495 Q3.23775 343.601 5.0433 347.166 Q6.87199 350.708 10.4831 350.708 Q14.1173 350.708 15.9229 347.166 Q17.7516 343.601 17.7516 336.495 Q17.7516 329.365 15.9229 325.824 Q14.1173 322.259 10.4831 322.259 M10.4831 318.555 Q16.2932 318.555 19.3488 323.162 Q22.4275 327.745 22.4275 336.495 Q22.4275 345.222 19.3488 349.828 Q16.2932 354.411 10.4831 354.411 Q4.67293 354.411 1.59424 349.828 Q-1.4613 345.222 -1.4613 336.495 Q-1.4613 327.745 1.59424 323.162 Q4.67293 318.555 10.4831 318.555 Z" fill="#000000" fill-rule="nonzero" fill-opacity="1" /><path clip-path="url(#clip900)" d="M34.6728 349.805 L50.9921 349.805 L50.9921 353.74 L29.0478 353.74 L29.0478 349.805 Q31.7098 347.05 36.2931 342.421 Q40.8996 337.768 42.0801 336.425 Q44.3255 333.902 45.2051 332.166 Q46.1079 330.407 46.1079 328.717 Q46.1079 325.963 44.1635 324.226 Q42.2422 322.49 39.1403 322.49 Q36.9413 322.49 34.4876 323.254 Q32.057 324.018 29.2793 325.569 L29.2793 320.847 Q32.1033 319.713 34.557 319.134 Q37.0107 318.555 39.0477 318.555 Q44.4181 318.555 47.6125 321.24 Q50.8069 323.926 50.8069 328.416 Q50.8069 330.546 49.9968 332.467 Q49.2097 334.365 47.1033 336.958 Q46.5246 337.629 43.4227 340.847 Q40.3209 344.041 34.6728 349.805 Z" fill="#000000" fill-rule="nonzero" fill-opacity="1" /><path clip-path="url(#clip900)" d="M-65.8591 93.8278 Q-69.4702 93.8278 -71.2989 97.3926 Q-73.1044 100.934 -73.1044 108.064 Q-73.1044 115.17 -71.2989 118.735 Q-69.4702 122.277 -65.8591 122.277 Q-62.2249 122.277 -60.4193 118.735 Q-58.5906 115.17 -58.5906 108.064 Q-58.5906 100.934 -60.4193 97.3926 Q-62.2249 93.8278 -65.8591 93.8278 M-65.8591 90.1241 Q-60.0489 90.1241 -56.9934 94.7305 Q-53.9147 99.3139 -53.9147 108.064 Q-53.9147 116.791 -56.9934 121.397 Q-60.0489 125.98 -65.8591 125.98 Q-71.6693 125.98 -74.7479 121.397 Q-77.8035 116.791 -77.8035 108.064 Q-77.8035 99.3139 -74.7479 94.7305 Q-71.6693 90.1241 -65.8591 90.1241 Z" fill="#000000" fill-rule="nonzero" fill-opacity="1" /><path clip-path="url(#clip900)" d="M-45.6972 119.429 L-40.8129 119.429 L-40.8129 125.309 L-45.6972 125.309 L-45.6972 119.429 Z" fill="#000000" fill-rule="nonzero" fill-opacity="1" /><path clip-path="url(#clip900)" d="M-20.6279 93.8278 Q-24.239 93.8278 -26.0676 97.3926 Q-27.8732 100.934 -27.8732 108.064 Q-27.8732 115.17 -26.0676 118.735 Q-24.239 122.277 -20.6279 122.277 Q-16.9936 122.277 -15.1881 118.735 Q-13.3594 115.17 -13.3594 108.064 Q-13.3594 100.934 -15.1881 97.3926 Q-16.9936 93.8278 -20.6279 93.8278 M-20.6279 90.1241 Q-14.8177 90.1241 -11.7622 94.7305 Q-8.68348 99.3139 -8.68348 108.064 Q-8.68348 116.791 -11.7622 121.397 Q-14.8177 125.98 -20.6279 125.98 Q-26.438 125.98 -29.5167 121.397 Q-32.5722 116.791 -32.5722 108.064 Q-32.5722 99.3139 -29.5167 94.7305 Q-26.438 90.1241 -20.6279 90.1241 Z" fill="#000000" fill-rule="nonzero" fill-opacity="1" /><path clip-path="url(#clip900)" d="M9.53401 93.8278 Q5.92292 93.8278 4.09423 97.3926 Q2.28868 100.934 2.28868 108.064 Q2.28868 115.17 4.09423 118.735 Q5.92292 122.277 9.53401 122.277 Q13.1683 122.277 14.9738 118.735 Q16.8025 115.17 16.8025 108.064 Q16.8025 100.934 14.9738 97.3926 Q13.1683 93.8278 9.53401 93.8278 M9.53401 90.1241 Q15.3442 90.1241 18.3997 94.7305 Q21.4784 99.3139 21.4784 108.064 Q21.4784 116.791 18.3997 121.397 Q15.3442 125.98 9.53401 125.98 Q3.72386 125.98 0.645174 121.397 Q-2.41037 116.791 -2.41037 108.064 Q-2.41037 99.3139 0.645174 94.7305 Q3.72386 90.1241 9.53401 90.1241 Z" fill="#000000" fill-rule="nonzero" fill-opacity="1" /><path clip-path="url(#clip900)" d="M43.8625 106.675 Q47.219 107.393 49.094 109.661 Q50.9921 111.93 50.9921 115.263 Q50.9921 120.379 47.4736 123.179 Q43.9551 125.98 37.4737 125.98 Q35.2978 125.98 32.983 125.541 Q30.6913 125.124 28.2376 124.267 L28.2376 119.754 Q30.1821 120.888 32.4969 121.467 Q34.8117 122.045 37.3348 122.045 Q41.7329 122.045 44.0246 120.309 Q46.3394 118.573 46.3394 115.263 Q46.3394 112.207 44.1866 110.494 Q42.057 108.758 38.2376 108.758 L34.2098 108.758 L34.2098 104.916 L38.4227 104.916 Q41.8718 104.916 43.7005 103.55 Q45.5292 102.161 45.5292 99.5685 Q45.5292 96.9065 43.6311 95.4944 Q41.7561 94.0593 38.2376 94.0593 Q36.3163 94.0593 34.1172 94.4759 Q31.9182 94.8926 29.2793 95.7722 L29.2793 91.6056 Q31.9413 90.8648 34.2561 90.4945 Q36.5941 90.1241 38.6542 90.1241 Q43.9783 90.1241 47.0801 92.5546 Q50.1819 94.962 50.1819 99.0824 Q50.1819 101.953 48.5384 103.943 Q46.8949 105.911 43.8625 106.675 Z" fill="#000000" fill-rule="nonzero" fill-opacity="1" /><polyline clip-path="url(#clip902)" style="stroke:#009af9; stroke-linecap:round; stroke-linejoin:round; stroke-width:4; stroke-opacity:1; fill:none" points="86.9921,793.322 89.2602,770.472 91.5282,747.667 93.7962,724.93 96.0643,702.285 98.3323,679.754 100.6,657.359 102.868,635.122 105.136,613.066 107.404,591.213 109.672,569.584 111.94,548.2 114.209,527.084 116.477,506.255 118.745,485.735 121.013,465.543 123.281,445.699 125.549,426.224 127.817,407.135 130.085,388.453 132.353,370.195 134.621,352.378 136.889,335.022 139.157,318.141 141.425,301.753 143.693,285.874 145.961,270.518 148.229,255.701 150.497,241.438 152.765,227.741 155.033,214.625 157.301,202.102 159.569,190.183 161.837,178.88 164.105,168.204 166.373,158.165 168.641,148.772 170.909,140.033 173.177,131.958 175.445,124.552 177.713,117.823 179.981,111.778 182.249,106.42 184.517,101.756 186.786,97.7897 189.054,94.5239 191.322,91.9613 193.59,90.104 195.858,88.953 198.126,88.5087 200.394,88.7708 202.662,89.7383 204.93,91.4094 207.198,93.7814 209.466,96.8512 211.734,100.615 214.002,105.068 216.27,110.206 218.538,116.022 220.806,122.51 223.074,129.664 225.342,137.476 227.61,145.936 229.878,155.037 232.146,164.768 234.414,175.12 236.682,186.081 238.95,197.639 241.218,209.784 243.486,222.5 245.754,235.776 248.022,249.596 250.29,263.947 252.558,278.812 254.826,294.177 257.095,310.027 259.363,326.344 261.631,343.112 263.899,360.314 266.167,377.932 268.435,395.947 270.703,414.343 272.971,433.099 275.239,452.198 277.507,471.62 279.775,491.346 282.043,511.355 284.311,531.628 286.579,552.143 288.847,572.88 291.115,593.818 293.383,614.936 295.651,636.21 297.919,657.62 300.187,679.142 302.455,700.756 304.723,722.443 306.991,744.179 309.259,765.943 311.527,787.712 313.795,809.464 316.063,831.177 318.331,852.83 320.599,874.401 322.867,895.869 325.135,917.212 327.403,938.41 329.672,959.442 331.94,980.287 334.208,1000.93 336.476,1021.33 338.744,1041.5 341.012,1061.39 343.28,1081 345.548,1100.29 347.816,1119.27 350.084,1137.89 352.352,1156.15 354.62,1174.03 356.888,1191.52 359.156,1208.58 361.424,1225.22 363.692,1241.4 365.96,1257.12 368.228,1272.36 370.496,1287.1 372.764,1301.33 375.032,1315.04 377.3,1328.21 379.568,1340.83 381.836,1352.89 384.104,1364.38 386.372,1375.29 388.64,1385.6 390.908,1395.31 393.176,1404.4 395.444,1412.88 397.712,1420.73 399.981,1427.94 402.249,1434.51 404.517,1440.43 406.785,1445.7 409.053,1450.31 411.321,1454.27 413.589,1457.55 415.857,1460.17 418.125,1462.12 420.393,1463.39 422.661,1464 424.929,1463.92 427.197,1463.18 429.465,1461.76 431.733,1459.68 434.001,1456.92 436.269,1453.51 438.537,1449.43 440.805,1444.7 443.073,1439.32 445.341,1433.3 447.609,1426.65 449.877,1419.37 452.145,1411.47 454.413,1402.95 456.681,1393.85 458.949,1384.15 461.217,1373.87 463.485,1363.02 465.753,1351.61 468.021,1339.65 470.29,1327.16 472.558,1314.15 474.826,1300.64 477.094,1286.62 479.362,1272.13 481.63,1257.17 483.898,1241.76 486.166,1225.92 488.434,1209.65 490.702,1192.99 492.97,1175.93 495.238,1158.51 497.506,1140.74 499.774,1122.64 502.042,1104.22 504.31,1085.51 506.578,1066.53 508.846,1047.29 511.114,1027.81 513.382,1008.13 515.65,988.248 517.918,968.199 520.186,947.992 522.454,927.651 524.722,907.195 526.99,886.646 529.258,866.025 531.526,845.353 533.794,824.65 536.062,803.938 538.33,783.237 540.598,762.567 542.867,741.949 545.135,721.404 547.403,700.95 549.671,680.609 551.939,660.4 554.207,640.343 556.475,620.458 558.743,600.764 561.011,581.281 563.279,562.029 565.547,543.026 567.815,524.293 570.083,505.847 572.351,487.708 574.619,469.894 576.887,452.426 579.155,435.318 581.423,418.583 583.691,402.238 585.959,386.3 588.227,370.785 590.495,355.709 592.763,341.087 595.031,326.933 597.299,313.262 599.567,300.086 601.835,287.418 604.103,275.271 606.371,263.656 608.639,252.584 610.907,242.065 613.176,232.11 615.444,222.727 617.712,213.925 619.98,205.713 622.248,198.097 624.516,191.084 626.784,184.681 629.052,178.893 631.32,173.726 633.588,169.184 635.856,165.271 638.124,161.989 640.392,159.338 642.66,157.322 644.928,155.943 647.196,155.202 649.464,155.1 651.732,155.636 654,156.811 656.268,158.623 658.536,161.069 660.804,164.148 663.072,167.855 665.34,172.187 667.608,177.139 669.876,182.705 672.144,188.88 674.412,195.657 676.68,203.028 678.948,210.985 681.216,219.519 683.484,228.622 685.753,238.282 688.021,248.489 690.289,259.232 692.557,270.498 694.825,282.274 697.093,294.547 699.361,307.303 701.629,320.529 703.897,334.213 706.165,348.343 708.433,362.902 710.701,377.876 712.969,393.25 715.237,409.007 717.505,425.132 719.773,441.61 722.041,458.422 724.309,475.553 726.577,492.986 728.845,510.703 731.113,528.687 733.381,546.92 735.649,565.384 737.917,584.06 740.185,602.93 742.453,621.975 744.721,641.176 746.989,660.513 749.257,679.967 751.525,699.517 753.793,719.144 756.062,738.826 758.33,758.543 760.598,778.274 762.866,797.997 765.134,817.691 767.402,837.333 769.67,856.911 771.938,876.408 774.206,895.804 776.474,915.079 778.742,934.213 781.01,953.186 783.278,971.979 785.546,990.573 787.814,1008.95 790.082,1027.09 792.35,1044.98 794.618,1062.59 796.886,1079.92 799.154,1096.95 801.422,1113.65 803.69,1130.01 805.958,1146.02 808.226,1161.67 810.494,1176.92 812.762,1191.79 815.03,1206.23 817.298,1220.25 819.566,1233.84 821.834,1246.96 824.102,1259.62 826.37,1271.8 828.639,1283.49 830.907,1294.68 833.175,1305.35 835.443,1315.49 837.711,1325.11 839.979,1334.18 842.247,1342.71 844.515,1350.68 846.783,1358.09 849.051,1364.92 851.319,1371.17 853.587,1376.84 855.855,1381.92 858.123,1386.4 860.391,1390.28 862.659,1393.56 864.927,1396.23 867.195,1398.29 869.463,1399.74 871.731,1400.59 873.999,1400.82 876.267,1400.44 878.535,1399.45 880.803,1397.86 883.071,1395.66 885.339,1392.85 887.607,1389.45 889.875,1385.46 892.143,1380.88 894.411,1375.71 896.679,1369.97 898.948,1363.67 901.216,1356.8 903.484,1349.37 905.752,1341.4 908.02,1332.89 910.288,1323.86 912.556,1314.3 914.824,1304.23 917.092,1293.66 919.36,1282.6 921.628,1271.06 923.896,1259.05 926.164,1246.59 928.432,1233.68 930.7,1220.34 932.968,1206.59 935.236,1192.44 937.504,1177.89 939.772,1162.97 942.04,1147.69 944.308,1132.07 946.576,1116.12 948.844,1099.87 951.112,1083.31 953.38,1066.48 955.648,1049.4 957.916,1032.07 960.184,1014.52 962.452,996.774 964.72,978.843 966.988,960.751 969.257,942.517 971.525,924.152 973.793,905.672 976.061,887.099 978.329,868.45 980.597,849.746 982.865,831.005 985.133,812.246 987.401,793.488 989.669,774.75 991.937,756.051 994.205,737.408 996.473,718.84 998.741,700.366 1001.01,682.003 1003.28,663.769 1005.55,645.682 1007.81,627.759 1010.08,610.018 1012.35,592.477 1014.62,575.152 1016.89,558.06 1019.15,541.22 1021.42,524.646 1023.69,508.357 1025.96,492.368 1028.23,476.696 1030.49,461.357 1032.76,446.368 1035.03,431.744 1037.3,417.501 1039.57,403.653 1041.83,390.205 1044.1,377.171 1046.37,364.565 1048.64,352.4 1050.91,340.688 1053.17,329.441 1055.44,318.671 1057.71,308.387 1059.98,298.601 1062.25,289.321 1064.51,280.557 1066.78,272.317 1069.05,264.609 1071.32,257.439 1073.59,250.815 1075.85,244.741 1078.12,239.225 1080.39,234.27 1082.66,229.88 1084.93,226.06 1087.19,222.811 1089.46,220.138 1091.73,218.041 1094,216.522 1096.27,215.581 1098.53,215.219 1100.8,215.434 1103.07,216.227 1105.34,217.593 1107.61,219.531 1109.87,222.038 1112.14,225.112 1114.41,228.75 1116.68,232.947 1118.95,237.701 1121.21,243.006 1123.48,248.857 1125.75,255.247 1128.02,262.172 1130.29,269.622 1132.55,277.592 1134.82,286.073 1137.09,295.056 1139.36,304.532 1141.63,314.492 1143.89,324.924 1146.16,335.819 1148.43,347.164 1150.7,358.948 1152.97,371.158 1155.24,383.782 1157.5,396.804 1159.77,410.212 1162.04,423.99 1164.31,438.124 1166.58,452.596 1168.84,467.392 1171.11,482.493 1173.38,497.883 1175.65,513.552 1177.92,529.486 1180.18,545.667 1182.45,562.078 1184.72,578.702 1186.99,595.524 1189.26,612.525 1191.52,629.688 1193.79,646.997 1196.06,664.435 1198.33,681.984 1200.6,699.626 1202.86,717.346 1205.13,735.125 1207.4,752.946 1209.67,770.791 1211.94,788.644 1214.2,806.487 1216.47,824.302 1218.74,842.072 1221.01,859.778 1223.28,877.404 1225.54,894.932 1227.81,912.343 1230.08,929.621 1232.35,946.747 1234.62,963.702 1236.88,980.471 1239.15,997.033 1241.42,1013.37 1243.69,1029.47 1245.96,1045.31 1248.22,1060.87 1250.49,1076.15 1252.76,1091.13 1255.03,1105.81 1257.3,1120.16 1259.56,1134.16 1261.83,1147.81 1264.1,1161.09 1266.37,1173.99 1268.64,1186.49 1270.9,1198.59 1273.17,1210.27 1275.44,1221.51 1277.71,1232.32 1279.98,1242.67 1282.24,1252.56 1284.51,1261.98 1286.78,1270.92 1289.05,1279.37 1291.32,1287.33 1293.59,1294.79 1295.85,1301.73 1298.12,1308.16 1300.39,1314.07 1302.66,1319.45 1304.93,1324.3 1307.19,1328.61 1309.46,1332.39 1311.73,1335.62 1314,1338.3 1316.27,1340.44 1318.53,1342.03 1320.8,1343.08 1323.07,1343.58 1325.34,1343.52 1327.61,1342.92 1329.87,1341.77 1332.14,1340.07 1334.41,1337.83 1336.68,1335.04 1338.95,1331.71 1341.21,1327.84 1343.48,1323.44 1345.75,1318.51 1348.02,1313.05 1350.29,1307.08 1352.55,1300.59 1354.82,1293.6 1357.09,1286.12 1359.36,1278.14 1361.63,1269.69 1363.89,1260.76 1366.16,1251.37 1368.43,1241.53 1370.7,1231.25 1372.97,1220.55 1375.23,1209.42 1377.5,1197.9 1379.77,1185.98 1382.04,1173.69 1384.31,1161.03 1386.57,1148.02 1388.84,1134.67 1391.11,1121 1393.38,1107.01 1395.65,1092.72 1397.91,1078.15 1400.18,1063.31 1402.45,1048.21 1404.72,1032.88 1406.99,1017.32 1409.25,1001.55 1411.52,985.592 1413.79,969.453 1416.06,953.154 1418.33,936.708 1420.59,920.133 1422.86,903.444 1425.13,886.659 1427.4,869.794 1429.67,852.865 1431.93,835.89 1434.2,818.886 1436.47,801.871 1438.74,784.861 1441.01,767.874 1443.28,750.929 1445.54,734.043 1447.81,717.234 1450.08,700.521 1452.35,683.922 1454.62,667.456 1456.88,651.14 1459.15,634.981 1461.42,618.994 1463.69,603.195 1465.96,587.603 1468.22,572.231 1470.49,557.097 1472.76,542.215 1475.03,527.601 1477.3,513.268 1479.56,499.232 1481.83,485.505 1484.1,472.102 1486.37,459.034 1488.64,446.316 1490.9,433.958 1493.17,421.973 1495.44,410.372 1497.71,399.167 1499.98,388.367 1502.24,377.983 1504.51,368.025 1506.78,358.502 1509.05,349.423 1511.32,340.797 1513.58,332.633 1515.85,324.938 1518.12,317.719 1520.39,310.984 1522.66,304.74 1524.92,298.992 1527.19,293.743 1529.46,288.995 1531.73,284.754 1534,281.023 1536.26,277.808 1538.53,275.111 1540.8,272.936 1543.07,271.283 1545.34,270.156 1547.6,269.554 1549.87,269.479 1552.14,269.931 1554.41,270.908 1556.68,272.409 1558.94,274.433 1561.21,276.978 1563.48,280.039 1565.75,283.614 1568.02,287.698 1570.28,292.287 1572.55,297.376 1574.82,302.958 1577.09,309.027 1579.36,315.576 1581.63,322.597 1583.89,330.083 1586.16,338.024 1588.43,346.411 1590.7,355.234 1592.97,364.483 1595.23,374.147 1597.5,384.219 1599.77,394.689 1602.04,405.545 1604.31,416.777 1606.57,428.373 1608.84,440.321 1611.11,452.609 1613.38,465.225 1615.65,478.156 1617.91,491.39 1620.18,504.914 1622.45,518.713 1624.72,532.776 1626.99,547.087 1629.25,561.633 1631.52,576.399 1633.79,591.371 1636.06,606.533 1638.33,621.871 1640.59,637.369 1642.86,653.012 1645.13,668.782 1647.4,684.665 1649.67,700.643 1651.93,716.7 1654.2,732.819 1656.47,748.982 1658.74,765.172 1661.01,781.371 1663.27,797.561 1665.54,813.723 1667.81,829.842 1670.08,845.91 1672.35,861.912 1674.61,877.831 1676.88,893.65 1679.15,909.353 1681.42,924.923 1683.69,940.344 1685.95,955.602 1688.22,970.681 1690.49,985.566 1692.76,1000.24 1695.03,1014.7 1697.29,1028.91 1699.56,1042.88 1701.83,1056.58 1704.1,1070 1706.37,1083.14 1708.63,1095.97 1710.9,1108.48 1713.17,1120.67 1715.44,1132.52 1717.71,1144.02 1719.98,1155.16 1722.24,1165.93 1724.51,1176.31 1726.78,1186.3 1729.05,1195.89 1731.32,1205.07 1733.58,1213.82 1735.85,1222.14 1738.12,1230.03 1740.39,1237.46 1742.66,1244.44 1744.92,1250.96 1747.19,1257.03 1749.46,1262.62 1751.73,1267.74 1754,1272.39 1756.26,1276.54 1758.53,1280.21 1760.8,1283.39 1763.07,1286.08 1765.34,1288.26 1767.6,1289.95 1769.87,1291.14 1772.14,1291.82 1774.41,1292 1776.68,1291.68 1778.94,1290.86 1781.21,1289.54 1783.48,1287.73 1785.75,1285.42 1788.02,1282.61 1790.28,1279.32 1792.55,1275.54 1794.82,1271.28 1797.09,1266.55 1799.36,1261.35 1801.62,1255.69 1803.89,1249.57 1806.16,1243 1808.43,1235.99 1810.7,1228.55 1812.96,1220.68 1815.23,1212.4 1817.5,1203.71 1819.77,1194.61 1822.04,1185.13 1824.3,1175.26 1826.57,1165.03 1828.84,1154.43 1831.11,1143.48 1833.38,1132.2 1835.64,1120.58 1837.91,1108.64 1840.18,1096.41 1842.45,1083.87 1844.72,1071.06 1846.98,1057.98 1849.25,1044.64 1851.52,1031.06 1853.79,1017.25 1856.06,1003.23 1858.32,989.009 1860.59,974.602 1862.86,960.025 1865.13,945.292 1867.4,930.42 1869.67,915.424 1871.93,900.321 1874.2,885.128 1876.47,869.86 1878.74,854.535 1881.01,839.171 1883.27,823.785 1885.54,808.383 1887.81,792.98 1890.08,777.592 1892.35,762.235 1894.61,746.924 1896.88,731.676 1899.15,716.506 1901.42,701.429 1903.69,686.46 1905.95,671.615 1908.22,656.907 1910.49,642.351 1912.76,627.961 1915.03,613.752 1917.29,599.737 1919.56,585.929 1921.83,572.342 1924.1,558.99 1926.37,545.884 1928.63,533.037 1930.9,520.463 1933.17,508.173 1935.44,496.179 1937.71,484.493 1939.97,473.127 1942.24,462.091 1944.51,451.398 1946.78,441.058 1949.05,431.082 1951.31,421.481 1953.58,412.263 1955.85,403.441 1958.12,395.018 1960.39,386.999 1962.65,379.392 1964.92,372.205 1967.19,365.445 1969.46,359.12 1971.73,353.236 1973.99,347.798 1976.26,342.813 1978.53,338.285 1980.8,334.219 1983.07,330.618 1985.33,327.485 1987.6,324.824 1989.87,322.637 1992.14,320.925 1994.41,319.69 1996.67,318.932 1998.94,318.652 2001.21,318.849 2003.48,319.522 2005.75,320.67 2008.02,322.291 2010.28,324.383 2012.55,326.943 2014.82,329.966 2017.09,333.45 2019.36,337.389 2021.62,341.779 2023.89,346.614 2026.16,351.888 2028.43,357.596 2030.7,363.732 2032.96,370.289 2035.23,377.262 2037.5,384.642 2039.77,392.422 2042.04,400.596 2044.3,409.154 2046.57,418.087 2048.84,427.389 2051.11,437.048 2053.38,447.055 2055.64,457.401 2057.91,468.076 2060.18,479.068 2062.45,490.367 2064.72,501.961 2066.98,513.838 2069.25,525.987 2071.52,538.395 2073.79,551.05 2076.06,563.937 2078.32,577.044 2080.59,590.357 2082.86,603.861 2085.13,617.542 2087.4,631.385 2089.66,645.375 2091.93,659.496 2094.2,673.732 2096.47,688.066 2098.74,702.486 2101,716.984 2103.27,731.545 2105.54,746.153 2107.81,760.794 2110.08,775.452 2112.34,790.111 2114.61,804.759 2116.88,819.378 2119.15,833.956 2121.42,848.478 2123.68,862.929 2125.95,877.295 2128.22,891.562 2130.49,905.718 2132.76,919.747 2135.02,933.636 2137.29,947.372 2139.56,960.942 2141.83,974.333 2144.1,987.531 2146.37,1000.52 2148.63,1013.3 2150.9,1025.84 2153.17,1038.14 2155.44,1050.19 2157.71,1061.97 2159.97,1073.47 2162.24,1084.68 2164.51,1095.59 2166.78,1106.18 2169.05,1116.44 2171.31,1126.37 2173.58,1135.96 2175.85,1145.18 2178.12,1154.04 2180.39,1162.53 2182.65,1170.64 2184.92,1178.37 2187.19,1185.71 2189.46,1192.65 2191.73,1199.18 2193.99,1205.3 2196.26,1211 2198.53,1216.28 2200.8,1221.12 2203.07,1225.53 2205.33,1229.5 2207.6,1233.03 2209.87,1236.12 2212.14,1238.75 2214.41,1240.94 2216.67,1242.67 2218.94,1243.95 2221.21,1244.78 2223.48,1245.15 2225.75,1245.07 2228.01,1244.54 2230.28,1243.55 2232.55,1242.11 2234.82,1240.23 2237.09,1237.9 2239.35,1235.13 2241.62,1231.93 2243.89,1228.29 2246.16,1224.22 2248.43,1219.72 2250.69,1214.81 2252.96,1209.48 2255.23,1203.74 2257.5,1197.6 2259.77,1191.06 2262.03,1184.14 2264.3,1176.82 2266.57,1169.13 2268.84,1161.08 2271.11,1152.66 2273.37,1143.88 2275.64,1134.77 2277.91,1125.31 2280.18,1115.54 2282.45,1105.44 2284.71,1095.04 2286.98,1084.35 2289.25,1073.37 2291.52,1062.11 2293.79,1050.6 2296.06,1038.84 2298.32,1026.84 2300.59,1014.61 2302.86,1002.18 2305.13,989.543 2307.4,976.725 2309.66,963.738 2311.93,950.597 2314.2,937.315 2316.47,923.908 2318.74,910.392 2321,896.774 2323.27,883.066 2325.54,869.282 2327.81,855.436 2330.08,841.541 2332.34,827.613 2334.61,813.664 2336.88,799.709 2339.15,785.761 2341.42,771.834 2343.68,757.943 2345.95,744.101 2348.22,730.322 2350.49,716.62 2352.76,703.009 "/>
<polyline clip-path="url(#clip902)" style="stroke:#e26f46; stroke-linecap:round; stroke-linejoin:round; stroke-width:4; stroke-opacity:1; fill:none" points="86.9921,793.322 89.2602,793.208 91.5282,792.865 93.7962,792.294 96.0643,791.496 98.3323,790.472 100.6,789.223 102.868,787.751 105.136,786.056 107.404,784.143 109.672,782.011 111.94,779.664 114.209,777.105 116.477,774.335 118.745,771.358 121.013,768.178 123.281,764.797 125.549,761.22 127.817,757.449 130.085,753.49 132.353,749.345 134.621,745.02 136.889,740.519 139.157,735.847 141.425,731.008 143.693,726.007 145.961,720.85 148.229,715.542 150.497,710.089 152.765,704.496 155.033,698.768 157.301,692.912 159.569,686.934 161.837,680.84 164.105,674.635 166.373,668.327 168.641,661.921 170.909,655.425 173.177,648.844 175.445,642.186 177.713,635.458 179.981,628.665 182.249,621.815 184.517,614.915 186.786,607.972 189.054,600.993 191.322,593.985 193.59,586.955 195.858,579.909 198.126,572.856 200.394,565.802 202.662,558.753 204.93,551.718 207.198,544.703 209.466,537.715 211.734,530.761 214.002,523.849 216.27,516.984 218.538,510.174 220.806,503.426 223.074,496.746 225.342,490.141 227.61,483.618 229.878,477.184 232.146,470.843 234.414,464.603 236.682,458.469 238.95,452.448 241.218,446.546 243.486,440.768 245.754,435.12 248.022,429.608 250.29,424.236 252.558,419.011 254.826,413.937 257.095,409.018 259.363,404.26 261.631,399.668 263.899,395.246 266.167,390.999 268.435,386.93 270.703,383.043 272.971,379.343 275.239,375.833 277.507,372.516 279.775,369.395 282.043,366.473 284.311,363.752 286.579,361.236 288.847,358.926 291.115,356.825 293.383,354.935 295.651,353.256 297.919,351.79 300.187,350.54 302.455,349.505 304.723,348.686 306.991,348.084 309.259,347.7 311.527,347.533 313.795,347.585 316.063,347.854 318.331,348.34 320.599,349.042 322.867,349.961 325.135,351.094 327.403,352.44 329.672,353.998 331.94,355.766 334.208,357.742 336.476,359.924 338.744,362.309 341.012,364.895 343.28,367.678 345.548,370.656 347.816,373.825 350.084,377.182 352.352,380.722 354.62,384.444 356.888,388.342 359.156,392.413 361.424,396.653 363.692,401.057 365.96,405.62 368.228,410.338 370.496,415.206 372.764,420.219 375.032,425.373 377.3,430.661 379.568,436.079 381.836,441.62 384.104,447.28 386.372,453.052 388.64,458.931 390.908,464.91 393.176,470.984 395.444,477.145 397.712,483.388 399.981,489.706 402.249,496.092 404.517,502.541 406.785,509.046 409.053,515.6 411.321,522.197 413.589,528.83 415.857,535.492 418.125,542.177 420.393,548.877 422.661,555.587 424.929,562.299 427.197,569.007 429.465,575.704 431.733,582.384 434.001,589.04 436.269,595.666 438.537,602.254 440.805,608.799 443.073,615.294 445.341,621.732 447.609,628.107 449.877,634.412 452.145,640.642 454.413,646.789 456.681,652.847 458.949,658.81 461.217,664.675 463.485,670.434 465.753,676.083 468.021,681.614 470.29,687.023 472.558,692.304 474.826,697.452 477.094,702.461 479.362,707.327 481.63,712.046 483.898,716.611 486.166,721.02 488.434,725.268 490.702,729.351 492.97,733.265 495.238,737.007 497.506,740.572 499.774,743.958 502.042,747.161 504.31,750.178 506.578,753.007 508.846,755.646 511.114,758.09 513.382,760.339 515.65,762.39 517.918,764.241 520.186,765.892 522.454,767.34 524.722,768.585 526.99,769.626 529.258,770.46 531.526,771.088 533.794,771.509 536.062,771.722 538.33,771.728 540.598,771.526 542.867,771.116 545.135,770.5 547.403,769.679 549.671,768.652 551.939,767.421 554.207,765.989 556.475,764.355 558.743,762.524 561.011,760.495 563.279,758.272 565.547,755.858 567.815,753.255 570.083,750.466 572.351,747.494 574.619,744.343 576.887,741.017 579.155,737.518 581.423,733.851 583.691,730.018 585.959,726.024 588.227,721.873 590.495,717.57 592.763,713.118 595.031,708.522 597.299,703.787 599.567,698.918 601.835,693.919 604.103,688.795 606.371,683.553 608.639,678.196 610.907,672.731 613.176,667.162 615.444,661.496 617.712,655.739 619.98,649.895 622.248,643.972 624.516,637.975 626.784,631.911 629.052,625.786 631.32,619.606 633.588,613.379 635.856,607.11 638.124,600.806 640.392,594.472 642.66,588.114 644.928,581.739 647.196,575.354 649.464,568.965 651.732,562.579 654,556.201 656.268,549.84 658.536,543.5 660.804,537.188 663.072,530.91 665.34,524.672 667.608,518.481 669.876,512.343 672.144,506.263 674.412,500.247 676.68,494.302 678.948,488.433 681.216,482.646 683.484,476.946 685.753,471.34 688.021,465.833 690.289,460.43 692.557,455.137 694.825,449.96 697.093,444.903 699.361,439.973 701.629,435.173 703.897,430.506 706.165,425.978 708.433,421.592 710.701,417.354 712.969,413.268 715.237,409.338 717.505,405.567 719.773,401.96 722.041,398.521 724.309,395.252 726.577,392.156 728.845,389.238 731.113,386.499 733.381,383.941 735.649,381.568 737.917,379.382 740.185,377.384 742.453,375.576 744.721,373.96 746.989,372.537 749.257,371.309 751.525,370.275 753.793,369.437 756.062,368.796 758.33,368.352 760.598,368.105 762.866,368.054 765.134,368.201 767.402,368.543 769.67,369.081 771.938,369.813 774.206,370.739 776.474,371.858 778.742,373.168 781.01,374.668 783.278,376.357 785.546,378.233 787.814,380.294 790.082,382.538 792.35,384.963 794.618,387.566 796.886,390.345 799.154,393.297 801.422,396.418 803.69,399.706 805.958,403.157 808.226,406.768 810.494,410.534 812.762,414.452 815.03,418.518 817.298,422.728 819.566,427.076 821.834,431.558 824.102,436.17 826.37,440.905 828.639,445.76 830.907,450.728 833.175,455.803 835.443,460.981 837.711,466.256 839.979,471.626 842.247,477.083 844.515,482.622 846.783,488.238 849.051,493.925 851.319,499.676 853.587,505.487 855.855,511.352 858.123,517.264 860.391,523.217 862.659,529.207 864.927,535.226 867.195,541.27 869.463,547.331 871.731,553.405 873.999,559.485 876.267,565.565 878.535,571.638 880.803,577.7 883.071,583.743 885.339,589.762 887.607,595.75 889.875,601.702 892.143,607.611 894.411,613.47 896.679,619.274 898.948,625.017 901.216,630.692 903.484,636.298 905.752,641.827 908.02,647.275 910.288,652.634 912.556,657.901 914.824,663.069 917.092,668.133 919.36,673.088 921.628,677.929 923.896,682.652 926.164,687.252 928.432,691.724 930.7,696.064 932.968,700.269 935.236,704.333 937.504,708.253 939.772,712.026 942.04,715.647 944.308,719.114 946.576,722.423 948.844,725.571 951.112,728.555 953.38,731.373 955.648,734.021 957.916,736.498 960.184,738.8 962.452,740.925 964.72,742.873 966.988,744.64 969.257,746.225 971.525,747.628 973.793,748.848 976.061,749.884 978.329,750.734 980.597,751.398 982.865,751.875 985.133,752.164 987.401,752.266 989.669,752.179 991.937,751.905 994.205,751.443 996.473,750.795 998.741,749.96 1001.01,748.939 1003.28,747.735 1005.55,746.347 1007.81,744.779 1010.08,743.03 1012.35,741.104 1014.62,739.003 1016.89,736.728 1019.15,734.283 1021.42,731.67 1023.69,728.892 1025.96,725.953 1028.23,722.855 1030.49,719.603 1032.76,716.2 1035.03,712.65 1037.3,708.957 1039.57,705.125 1041.83,701.157 1044.1,697.057 1046.37,692.829 1048.64,688.478 1050.91,684.007 1053.17,679.422 1055.44,674.727 1057.71,669.928 1059.98,665.028 1062.25,660.032 1064.51,654.946 1066.78,649.775 1069.05,644.523 1071.32,639.196 1073.59,633.8 1075.85,628.339 1078.12,622.82 1080.39,617.247 1082.66,611.626 1084.93,605.964 1087.19,600.265 1089.46,594.536 1091.73,588.783 1094,583.012 1096.27,577.228 1098.53,571.439 1100.8,565.65 1103.07,559.868 1105.34,554.097 1107.61,548.341 1109.87,542.608 1112.14,536.902 1114.41,531.23 1116.68,525.598 1118.95,520.011 1121.21,514.475 1123.48,508.995 1125.75,503.577 1128.02,498.226 1130.29,492.948 1132.55,487.747 1134.82,482.629 1137.09,477.599 1139.36,472.661 1141.63,467.82 1143.89,463.081 1146.16,458.448 1148.43,453.926 1150.7,449.52 1152.97,445.233 1155.24,441.069 1157.5,437.034 1159.77,433.13 1162.04,429.362 1164.31,425.734 1166.58,422.248 1168.84,418.91 1171.11,415.721 1173.38,412.686 1175.65,409.805 1177.92,407.08 1180.18,404.515 1182.45,402.112 1184.72,399.873 1186.99,397.802 1189.26,395.9 1191.52,394.169 1193.79,392.611 1196.06,391.227 1198.33,390.019 1200.6,388.989 1202.86,388.136 1205.13,387.462 1207.4,386.967 1209.67,386.652 1211.94,386.516 1214.2,386.561 1216.47,386.785 1218.74,387.188 1221.01,387.769 1223.28,388.528 1225.54,389.464 1227.81,390.575 1230.08,391.86 1232.35,393.317 1234.62,394.945 1236.88,396.74 1239.15,398.703 1241.42,400.828 1243.69,403.115 1245.96,405.56 1248.22,408.161 1250.49,410.915 1252.76,413.82 1255.03,416.873 1257.3,420.071 1259.56,423.41 1261.83,426.886 1264.1,430.498 1266.37,434.24 1268.64,438.109 1270.9,442.102 1273.17,446.214 1275.44,450.441 1277.71,454.778 1279.98,459.223 1282.24,463.769 1284.51,468.413 1286.78,473.15 1289.05,477.974 1291.32,482.882 1293.59,487.868 1295.85,492.927 1298.12,498.054 1300.39,503.242 1302.66,508.488 1304.93,513.784 1307.19,519.126 1309.46,524.508 1311.73,529.923 1314,535.366 1316.27,540.833 1318.53,546.319 1320.8,551.818 1323.07,557.325 1325.34,562.834 1327.61,568.339 1329.87,573.835 1332.14,579.316 1334.41,584.777 1336.68,590.212 1338.95,595.616 1341.21,600.983 1343.48,606.309 1345.75,611.589 1348.02,616.816 1350.29,621.986 1352.55,627.095 1354.82,632.136 1357.09,637.106 1359.36,641.998 1361.63,646.81 1363.89,651.535 1366.16,656.169 1368.43,660.707 1370.7,665.146 1372.97,669.479 1375.23,673.704 1377.5,677.815 1379.77,681.808 1382.04,685.679 1384.31,689.424 1386.57,693.042 1388.84,696.529 1391.11,699.882 1393.38,703.097 1395.65,706.171 1397.91,709.101 1400.18,711.884 1402.45,714.516 1404.72,716.995 1406.99,719.32 1409.25,721.486 1411.52,723.494 1413.79,725.339 1416.06,727.022 1418.33,728.539 1420.59,729.891 1422.86,731.075 1425.13,732.091 1427.4,732.938 1429.67,733.615 1431.93,734.122 1434.2,734.459 1436.47,734.625 1438.74,734.621 1441.01,734.446 1443.28,734.102 1445.54,733.589 1447.81,732.908 1450.08,732.06 1452.35,731.045 1454.62,729.866 1456.88,728.525 1459.15,727.021 1461.42,725.358 1463.69,723.536 1465.96,721.558 1468.22,719.426 1470.49,717.141 1472.76,714.707 1475.03,712.125 1477.3,709.398 1479.56,706.529 1481.83,703.521 1484.1,700.377 1486.37,697.099 1488.64,693.692 1490.9,690.158 1493.17,686.502 1495.44,682.726 1497.71,678.835 1499.98,674.833 1502.24,670.724 1504.51,666.512 1506.78,662.201 1509.05,657.797 1511.32,653.304 1513.58,648.727 1515.85,644.07 1518.12,639.339 1520.39,634.539 1522.66,629.676 1524.92,624.755 1527.19,619.78 1529.46,614.755 1531.73,609.684 1534,604.574 1536.26,599.429 1538.53,594.256 1540.8,589.058 1543.07,583.842 1545.34,578.612 1547.6,573.375 1549.87,568.134 1552.14,562.895 1554.41,557.663 1556.68,552.444 1558.94,547.242 1561.21,542.063 1563.48,536.911 1565.75,531.792 1568.02,526.711 1570.28,521.672 1572.55,516.681 1574.82,511.742 1577.09,506.861 1579.36,502.042 1581.63,497.291 1583.89,492.613 1586.16,488.011 1588.43,483.491 1590.7,479.059 1592.97,474.718 1595.23,470.473 1597.5,466.325 1599.77,462.279 1602.04,458.339 1604.31,454.509 1606.57,450.793 1608.84,447.195 1611.11,443.718 1613.38,440.367 1615.65,437.144 1617.91,434.052 1620.18,431.095 1622.45,428.276 1624.72,425.597 1626.99,423.06 1629.25,420.669 1631.52,418.425 1633.79,416.33 1636.06,414.387 1638.33,412.597 1640.59,410.961 1642.86,409.482 1645.13,408.16 1647.4,406.996 1649.67,405.991 1651.93,405.147 1654.2,404.463 1656.47,403.941 1658.74,403.58 1661.01,403.381 1663.27,403.343 1665.54,403.467 1667.81,403.752 1670.08,404.196 1672.35,404.799 1674.61,405.561 1676.88,406.481 1679.15,407.558 1681.42,408.79 1683.69,410.177 1685.95,411.718 1688.22,413.411 1690.49,415.253 1692.76,417.244 1695.03,419.382 1697.29,421.664 1699.56,424.087 1701.83,426.651 1704.1,429.351 1706.37,432.186 1708.63,435.151 1710.9,438.245 1713.17,441.465 1715.44,444.805 1717.71,448.264 1719.98,451.838 1722.24,455.522 1724.51,459.312 1726.78,463.205 1729.05,467.196 1731.32,471.281 1733.58,475.455 1735.85,479.713 1738.12,484.051 1740.39,488.463 1742.66,492.944 1744.92,497.493 1747.19,502.105 1749.46,506.775 1751.73,511.498 1754,516.27 1756.26,521.086 1758.53,525.94 1760.8,530.828 1763.07,535.745 1765.34,540.686 1767.6,545.646 1769.87,550.621 1772.14,555.605 1774.41,560.594 1776.68,565.582 1778.94,570.565 1781.21,575.538 1783.48,580.496 1785.75,585.435 1788.02,590.348 1790.28,595.231 1792.55,600.08 1794.82,604.889 1797.09,609.654 1799.36,614.369 1801.62,619.03 1803.89,623.632 1806.16,628.169 1808.43,632.637 1810.7,637.031 1812.96,641.351 1815.23,645.59 1817.5,649.746 1819.77,653.812 1822.04,657.786 1824.3,661.663 1826.57,665.439 1828.84,669.11 1831.11,672.672 1833.38,676.123 1835.64,679.458 1837.91,682.675 1840.18,685.77 1842.45,688.741 1844.72,691.584 1846.98,694.297 1849.25,696.877 1851.52,699.323 1853.79,701.631 1856.06,703.8 1858.32,705.827 1860.59,707.711 1862.86,709.45 1865.13,711.043 1867.4,712.488 1869.67,713.783 1871.93,714.929 1874.2,715.923 1876.47,716.765 1878.74,717.454 1881.01,717.99 1883.27,718.372 1885.54,718.601 1887.81,718.677 1890.08,718.6 1892.35,718.371 1894.61,717.988 1896.88,717.454 1899.15,716.767 1901.42,715.929 1903.69,714.94 1905.95,713.803 1908.22,712.516 1910.49,711.083 1912.76,709.504 1915.03,707.781 1917.29,705.916 1919.56,703.911 1921.83,701.767 1924.1,699.487 1926.37,697.074 1928.63,694.53 1930.9,691.857 1933.17,689.059 1935.44,686.138 1937.71,683.098 1939.97,679.943 1942.24,676.674 1944.51,673.297 1946.78,669.815 1949.05,666.233 1951.31,662.553 1953.58,658.781 1955.85,654.92 1958.12,650.975 1960.39,646.948 1962.65,642.842 1964.92,638.663 1967.19,634.414 1969.46,630.101 1971.73,625.727 1973.99,621.296 1976.26,616.814 1978.53,612.284 1980.8,607.712 1983.07,603.101 1985.33,598.457 1987.6,593.783 1989.87,589.084 1992.14,584.366 1994.41,579.632 1996.67,574.887 1998.94,570.137 2001.21,565.385 2003.48,560.637 2005.75,555.897 2008.02,551.17 2010.28,546.462 2012.55,541.776 2014.82,537.118 2017.09,532.492 2019.36,527.904 2021.62,523.359 2023.89,518.862 2026.16,514.416 2028.43,510.024 2030.7,505.69 2032.96,501.419 2035.23,497.216 2037.5,493.085 2039.77,489.03 2042.04,485.055 2044.3,481.165 2046.57,477.362 2048.84,473.652 2051.11,470.037 2053.38,466.52 2055.64,463.107 2057.91,459.799 2060.18,456.599 2062.45,453.512 2064.72,450.54 2066.98,447.685 2069.25,444.95 2071.52,442.338 2073.79,439.851 2076.06,437.492 2078.32,435.263 2080.59,433.166 2082.86,431.203 2085.13,429.375 2087.4,427.685 2089.66,426.133 2091.93,424.723 2094.2,423.454 2096.47,422.328 2098.74,421.346 2101,420.506 2103.27,419.811 2105.54,419.26 2107.81,418.854 2110.08,418.594 2112.34,418.48 2114.61,418.512 2116.88,418.691 2119.15,419.016 2121.42,419.487 2123.68,420.104 2125.95,420.865 2128.22,421.771 2130.49,422.821 2132.76,424.012 2135.02,425.344 2137.29,426.816 2139.56,428.427 2141.83,430.173 2144.1,432.054 2146.37,434.068 2148.63,436.211 2150.9,438.483 2153.17,440.88 2155.44,443.4 2157.71,446.04 2159.97,448.796 2162.24,451.667 2164.51,454.648 2166.78,457.736 2169.05,460.927 2171.31,464.218 2173.58,467.605 2175.85,471.083 2178.12,474.649 2180.39,478.303 2182.65,482.039 2184.92,485.855 2187.19,489.745 2189.46,493.706 2191.73,497.734 2193.99,501.826 2196.26,505.976 2198.53,510.181 2200.8,514.436 2203.07,518.738 2205.33,523.082 2207.6,527.463 2209.87,531.878 2212.14,536.322 2214.41,540.791 2216.67,545.281 2218.94,549.786 2221.21,554.302 2223.48,558.825 2225.75,563.35 2228.01,567.873 2230.28,572.389 2232.55,576.893 2234.82,581.38 2237.09,585.847 2239.35,590.287 2241.62,594.696 2243.89,599.069 2246.16,603.404 2248.43,607.697 2250.69,611.943 2252.96,616.139 2255.23,620.279 2257.5,624.359 2259.77,628.376 2262.03,632.325 2264.3,636.202 2266.57,640.004 2268.84,643.726 2271.11,647.365 2273.37,650.917 2275.64,654.38 2277.91,657.749 2280.18,661.022 2282.45,664.194 2284.71,667.265 2286.98,670.229 2289.25,673.085 2291.52,675.83 2293.79,678.462 2296.06,680.977 2298.32,683.373 2300.59,685.649 2302.86,687.802 2305.13,689.829 2307.4,691.73 2309.66,693.502 2311.93,695.143 2314.2,696.651 2316.47,698.026 2318.74,699.266 2321,700.37 2323.27,701.337 2325.54,702.167 2327.81,702.858 2330.08,703.41 2332.34,703.823 2334.61,704.097 2336.88,704.231 2339.15,704.225 2341.42,704.079 2343.68,703.794 2345.95,703.371 2348.22,702.809 2350.49,702.109 2352.76,701.273 "/>
<path clip-path="url(#clip900)" d="M1854.1 251.365 L2277.23 251.365 L2277.23 95.8446 L1854.1 95.8446  Z" fill="#ffffff" fill-rule="evenodd" fill-opacity="1"/>
<polyline clip-path="url(#clip900)" style="stroke:#000000; stroke-linecap:round; stroke-linejoin:round; stroke-width:4; stroke-opacity:1; fill:none" points="1854.1,251.365 2277.23,251.365 2277.23,95.8446 1854.1,95.8446 1854.1,251.365 "/>
<polyline clip-path="url(#clip900)" style="stroke:#009af9; stroke-linecap:round; stroke-linejoin:round; stroke-width:4; stroke-opacity:1; fill:none" points="1879.28,147.685 2030.33,147.685 "/>
<path clip-path="url(#clip900)" d="M2075.85 144.016 Q2077.45 141.145 2079.67 139.78 Q2081.89 138.414 2084.9 138.414 Q2088.95 138.414 2091.15 141.261 Q2093.35 144.085 2093.35 149.317 L2093.35 164.965 L2089.07 164.965 L2089.07 149.455 Q2089.07 145.729 2087.75 143.923 Q2086.43 142.118 2083.72 142.118 Q2080.41 142.118 2078.49 144.317 Q2076.57 146.516 2076.57 150.312 L2076.57 164.965 L2072.29 164.965 L2072.29 149.455 Q2072.29 145.705 2070.97 143.923 Q2069.65 142.118 2066.89 142.118 Q2063.63 142.118 2061.71 144.34 Q2059.79 146.539 2059.79 150.312 L2059.79 164.965 L2055.51 164.965 L2055.51 139.039 L2059.79 139.039 L2059.79 143.067 Q2061.25 140.682 2063.28 139.548 Q2065.32 138.414 2068.12 138.414 Q2070.95 138.414 2072.91 139.849 Q2074.9 141.284 2075.85 144.016 Z" fill="#000000" fill-rule="nonzero" fill-opacity="1" /><path clip-path="url(#clip900)" d="M2113.63 151.932 Q2108.47 151.932 2106.48 153.113 Q2104.49 154.293 2104.49 157.141 Q2104.49 159.409 2105.97 160.752 Q2107.47 162.071 2110.04 162.071 Q2113.58 162.071 2115.71 159.571 Q2117.87 157.048 2117.87 152.881 L2117.87 151.932 L2113.63 151.932 M2122.13 150.173 L2122.13 164.965 L2117.87 164.965 L2117.87 161.029 Q2116.41 163.391 2114.23 164.525 Q2112.06 165.636 2108.91 165.636 Q2104.93 165.636 2102.57 163.414 Q2100.23 161.168 2100.23 157.418 Q2100.23 153.043 2103.14 150.821 Q2106.08 148.599 2111.89 148.599 L2117.87 148.599 L2117.87 148.182 Q2117.87 145.243 2115.92 143.645 Q2114 142.025 2110.51 142.025 Q2108.28 142.025 2106.18 142.557 Q2104.07 143.09 2102.13 144.155 L2102.13 140.219 Q2104.46 139.317 2106.66 138.877 Q2108.86 138.414 2110.94 138.414 Q2116.57 138.414 2119.35 141.33 Q2122.13 144.247 2122.13 150.173 Z" fill="#000000" fill-rule="nonzero" fill-opacity="1" /><path clip-path="url(#clip900)" d="M2147.43 139.803 L2147.43 143.83 Q2145.62 142.905 2143.68 142.442 Q2141.73 141.979 2139.65 141.979 Q2136.48 141.979 2134.88 142.951 Q2133.31 143.923 2133.31 145.867 Q2133.31 147.349 2134.44 148.205 Q2135.57 149.039 2139 149.803 L2140.46 150.127 Q2145 151.099 2146.89 152.881 Q2148.82 154.641 2148.82 157.812 Q2148.82 161.423 2145.94 163.529 Q2143.1 165.636 2138.1 165.636 Q2136.01 165.636 2133.75 165.219 Q2131.5 164.826 2129 164.016 L2129 159.617 Q2131.36 160.844 2133.65 161.469 Q2135.94 162.071 2138.19 162.071 Q2141.2 162.071 2142.82 161.053 Q2144.44 160.011 2144.44 158.136 Q2144.44 156.4 2143.26 155.474 Q2142.1 154.548 2138.14 153.692 L2136.66 153.344 Q2132.7 152.511 2130.94 150.798 Q2129.19 149.062 2129.19 146.053 Q2129.19 142.395 2131.78 140.405 Q2134.37 138.414 2139.14 138.414 Q2141.5 138.414 2143.58 138.761 Q2145.67 139.108 2147.43 139.803 Z" fill="#000000" fill-rule="nonzero" fill-opacity="1" /><path clip-path="url(#clip900)" d="M2172.13 139.803 L2172.13 143.83 Q2170.32 142.905 2168.38 142.442 Q2166.43 141.979 2164.35 141.979 Q2161.18 141.979 2159.58 142.951 Q2158 143.923 2158 145.867 Q2158 147.349 2159.14 148.205 Q2160.27 149.039 2163.7 149.803 L2165.16 150.127 Q2169.69 151.099 2171.59 152.881 Q2173.51 154.641 2173.51 157.812 Q2173.51 161.423 2170.64 163.529 Q2167.8 165.636 2162.8 165.636 Q2160.71 165.636 2158.44 165.219 Q2156.2 164.826 2153.7 164.016 L2153.7 159.617 Q2156.06 160.844 2158.35 161.469 Q2160.64 162.071 2162.89 162.071 Q2165.9 162.071 2167.52 161.053 Q2169.14 160.011 2169.14 158.136 Q2169.14 156.4 2167.96 155.474 Q2166.8 154.548 2162.84 153.692 L2161.36 153.344 Q2157.4 152.511 2155.64 150.798 Q2153.88 149.062 2153.88 146.053 Q2153.88 142.395 2156.48 140.405 Q2159.07 138.414 2163.84 138.414 Q2166.2 138.414 2168.28 138.761 Q2170.37 139.108 2172.13 139.803 Z" fill="#000000" fill-rule="nonzero" fill-opacity="1" /><path clip-path="url(#clip900)" d="M2189.56 148.321 L2189.56 155.543 L2197.68 155.543 L2197.68 157.742 L2189.56 157.742 L2189.56 164.965 L2187.13 164.965 L2187.13 157.742 L2179 157.742 L2179 155.543 L2187.13 155.543 L2187.13 148.321 L2189.56 148.321 Z" fill="#000000" fill-rule="nonzero" fill-opacity="1" /><path clip-path="url(#clip900)" d="M2202.26 139.039 L2206.78 139.039 L2214.88 160.798 L2222.98 139.039 L2227.5 139.039 L2217.77 164.965 L2211.99 164.965 L2202.26 139.039 Z" fill="#000000" fill-rule="nonzero" fill-opacity="1" /><polyline clip-path="url(#clip900)" style="stroke:#e26f46; stroke-linecap:round; stroke-linejoin:round; stroke-width:4; stroke-opacity:1; fill:none" points="1879.28,199.525 2030.33,199.525 "/>
<path clip-path="url(#clip900)" d="M2073.93 191.643 L2073.93 195.67 Q2072.13 194.745 2070.18 194.282 Q2068.24 193.819 2066.15 193.819 Q2062.98 193.819 2061.39 194.791 Q2059.81 195.763 2059.81 197.707 Q2059.81 199.189 2060.95 200.045 Q2062.08 200.879 2065.51 201.643 L2066.96 201.967 Q2071.5 202.939 2073.4 204.721 Q2075.32 206.481 2075.32 209.652 Q2075.32 213.263 2072.45 215.369 Q2069.6 217.476 2064.6 217.476 Q2062.52 217.476 2060.25 217.059 Q2058.01 216.666 2055.51 215.856 L2055.51 211.457 Q2057.87 212.684 2060.16 213.309 Q2062.45 213.911 2064.7 213.911 Q2067.7 213.911 2069.32 212.893 Q2070.95 211.851 2070.95 209.976 Q2070.95 208.24 2069.76 207.314 Q2068.61 206.388 2064.65 205.532 L2063.17 205.184 Q2059.21 204.351 2057.45 202.638 Q2055.69 200.902 2055.69 197.893 Q2055.69 194.235 2058.28 192.245 Q2060.88 190.254 2065.64 190.254 Q2068.01 190.254 2070.09 190.601 Q2072.17 190.948 2073.93 191.643 Z" fill="#000000" fill-rule="nonzero" fill-opacity="1" /><path clip-path="url(#clip900)" d="M2086.22 212.916 L2086.22 226.666 L2081.94 226.666 L2081.94 190.879 L2086.22 190.879 L2086.22 194.814 Q2087.57 192.499 2089.6 191.388 Q2091.66 190.254 2094.51 190.254 Q2099.23 190.254 2102.17 194.004 Q2105.13 197.754 2105.13 203.865 Q2105.13 209.976 2102.17 213.726 Q2099.23 217.476 2094.51 217.476 Q2091.66 217.476 2089.6 216.365 Q2087.57 215.231 2086.22 212.916 M2100.71 203.865 Q2100.71 199.166 2098.77 196.504 Q2096.85 193.819 2093.47 193.819 Q2090.09 193.819 2088.14 196.504 Q2086.22 199.166 2086.22 203.865 Q2086.22 208.564 2088.14 211.249 Q2090.09 213.911 2093.47 213.911 Q2096.85 213.911 2098.77 211.249 Q2100.71 208.564 2100.71 203.865 Z" fill="#000000" fill-rule="nonzero" fill-opacity="1" /><path clip-path="url(#clip900)" d="M2127.22 194.86 Q2126.5 194.444 2125.64 194.258 Q2124.81 194.05 2123.79 194.05 Q2120.18 194.05 2118.24 196.411 Q2116.32 198.749 2116.32 203.147 L2116.32 216.805 L2112.03 216.805 L2112.03 190.879 L2116.32 190.879 L2116.32 194.907 Q2117.66 192.545 2119.81 191.411 Q2121.96 190.254 2125.04 190.254 Q2125.48 190.254 2126.01 190.323 Q2126.55 190.37 2127.19 190.485 L2127.22 194.86 Z" fill="#000000" fill-rule="nonzero" fill-opacity="1" /><path clip-path="url(#clip900)" d="M2131.69 190.879 L2135.94 190.879 L2135.94 216.805 L2131.69 216.805 L2131.69 190.879 M2131.69 180.786 L2135.94 180.786 L2135.94 186.18 L2131.69 186.18 L2131.69 180.786 Z" fill="#000000" fill-rule="nonzero" fill-opacity="1" /><path clip-path="url(#clip900)" d="M2166.41 201.157 L2166.41 216.805 L2162.15 216.805 L2162.15 201.295 Q2162.15 197.615 2160.71 195.786 Q2159.28 193.958 2156.41 193.958 Q2152.96 193.958 2150.97 196.157 Q2148.98 198.356 2148.98 202.152 L2148.98 216.805 L2144.69 216.805 L2144.69 190.879 L2148.98 190.879 L2148.98 194.907 Q2150.5 192.569 2152.57 191.411 Q2154.65 190.254 2157.36 190.254 Q2161.82 190.254 2164.12 193.032 Q2166.41 195.786 2166.41 201.157 Z" fill="#000000" fill-rule="nonzero" fill-opacity="1" /><path clip-path="url(#clip900)" d="M2191.96 203.541 Q2191.96 198.911 2190.04 196.365 Q2188.14 193.819 2184.69 193.819 Q2181.27 193.819 2179.35 196.365 Q2177.45 198.911 2177.45 203.541 Q2177.45 208.147 2179.35 210.694 Q2181.27 213.24 2184.69 213.24 Q2188.14 213.24 2190.04 210.694 Q2191.96 208.147 2191.96 203.541 M2196.22 213.587 Q2196.22 220.207 2193.28 223.425 Q2190.34 226.666 2184.28 226.666 Q2182.03 226.666 2180.04 226.318 Q2178.05 225.994 2176.18 225.3 L2176.18 221.156 Q2178.05 222.175 2179.88 222.661 Q2181.71 223.147 2183.61 223.147 Q2187.8 223.147 2189.88 220.948 Q2191.96 218.772 2191.96 214.351 L2191.96 212.244 Q2190.64 214.536 2188.58 215.67 Q2186.52 216.805 2183.65 216.805 Q2178.88 216.805 2175.97 213.17 Q2173.05 209.536 2173.05 203.541 Q2173.05 197.522 2175.97 193.888 Q2178.88 190.254 2183.65 190.254 Q2186.52 190.254 2188.58 191.388 Q2190.64 192.522 2191.96 194.814 L2191.96 190.879 L2196.22 190.879 L2196.22 213.587 Z" fill="#000000" fill-rule="nonzero" fill-opacity="1" /><path clip-path="url(#clip900)" d="M2214.25 200.161 L2214.25 207.383 L2222.38 207.383 L2222.38 209.582 L2214.25 209.582 L2214.25 216.805 L2211.82 216.805 L2211.82 209.582 L2203.7 209.582 L2203.7 207.383 L2211.82 207.383 L2211.82 200.161 L2214.25 200.161 Z" fill="#000000" fill-rule="nonzero" fill-opacity="1" /><path clip-path="url(#clip900)" d="M2251.57 190.879 L2242.19 203.495 L2252.06 216.805 L2247.03 216.805 L2239.49 206.619 L2231.94 216.805 L2226.92 216.805 L2236.99 203.24 L2227.77 190.879 L2232.8 190.879 L2239.67 200.115 L2246.55 190.879 L2251.57 190.879 Z" fill="#000000" fill-rule="nonzero" fill-opacity="1" /></svg>
