<?xml version="1.0" encoding="utf-8"?>
<svg xmlns="http://www.w3.org/2000/svg" xmlns:xlink="http://www.w3.org/1999/xlink" width="600" height="400" viewBox="0 0 2400 1600">
<defs>
  <clipPath id="clip690">
    <rect x="0" y="0" width="2400" height="1600"/>
  </clipPath>
</defs>
<path clip-path="url(#clip690)" d="M0 1600 L2400 1600 L2400 0 L0 0  Z" fill="#ffffff" fill-rule="evenodd" fill-opacity="1"/>
<defs>
  <clipPath id="clip691">
    <rect x="480" y="0" width="1681" height="1600"/>
  </clipPath>
</defs>
<path clip-path="url(#clip690)" d="M102.74 1505.26 L2352.76 1505.26 L2352.76 47.2441 L102.74 47.2441  Z" fill="#ffffff" fill-rule="evenodd" fill-opacity="1"/>
<defs>
  <clipPath id="clip692">
    <rect x="102" y="47" width="2251" height="1459"/>
  </clipPath>
</defs>
<polyline clip-path="url(#clip692)" style="stroke:#000000; stroke-linecap:round; stroke-linejoin:round; stroke-width:2; stroke-opacity:0.1; fill:none" points="102.74,1505.26 102.74,47.2441 "/>
<polyline clip-path="url(#clip692)" style="stroke:#000000; stroke-linecap:round; stroke-linejoin:round; stroke-width:2; stroke-opacity:0.1; fill:none" points="552.743,1505.26 552.743,47.2441 "/>
<polyline clip-path="url(#clip692)" style="stroke:#000000; stroke-linecap:round; stroke-linejoin:round; stroke-width:2; stroke-opacity:0.1; fill:none" points="1002.75,1505.26 1002.75,47.2441 "/>
<polyline clip-path="url(#clip692)" style="stroke:#000000; stroke-linecap:round; stroke-linejoin:round; stroke-width:2; stroke-opacity:0.1; fill:none" points="1452.75,1505.26 1452.75,47.2441 "/>
<polyline clip-path="url(#clip692)" style="stroke:#000000; stroke-linecap:round; stroke-linejoin:round; stroke-width:2; stroke-opacity:0.1; fill:none" points="1902.75,1505.26 1902.75,47.2441 "/>
<polyline clip-path="url(#clip692)" style="stroke:#000000; stroke-linecap:round; stroke-linejoin:round; stroke-width:2; stroke-opacity:0.1; fill:none" points="2352.76,1505.26 2352.76,47.2441 "/>
<polyline clip-path="url(#clip690)" style="stroke:#000000; stroke-linecap:round; stroke-linejoin:round; stroke-width:4; stroke-opacity:1; fill:none" points="102.74,1505.26 2352.76,1505.26 "/>
<polyline clip-path="url(#clip690)" style="stroke:#000000; stroke-linecap:round; stroke-linejoin:round; stroke-width:4; stroke-opacity:1; fill:none" points="102.74,1505.26 102.74,1486.36 "/>
<polyline clip-path="url(#clip690)" style="stroke:#000000; stroke-linecap:round; stroke-linejoin:round; stroke-width:4; stroke-opacity:1; fill:none" points="552.743,1505.26 552.743,1486.36 "/>
<polyline clip-path="url(#clip690)" style="stroke:#000000; stroke-linecap:round; stroke-linejoin:round; stroke-width:4; stroke-opacity:1; fill:none" points="1002.75,1505.26 1002.75,1486.36 "/>
<polyline clip-path="url(#clip690)" style="stroke:#000000; stroke-linecap:round; stroke-linejoin:round; stroke-width:4; stroke-opacity:1; fill:none" points="1452.75,1505.26 1452.75,1486.36 "/>
<polyline clip-path="url(#clip690)" style="stroke:#000000; stroke-linecap:round; stroke-linejoin:round; stroke-width:4; stroke-opacity:1; fill:none" points="1902.75,1505.26 1902.75,1486.36 "/>
<polyline clip-path="url(#clip690)" style="stroke:#000000; stroke-linecap:round; stroke-linejoin:round; stroke-width:4; stroke-opacity:1; fill:none" points="2352.76,1505.26 2352.76,1486.36 "/>
<path clip-path="url(#clip690)" d="M49.9627 1536.18 Q46.3516 1536.18 44.5229 1539.74 Q42.7173 1543.28 42.7173 1550.41 Q42.7173 1557.52 44.5229 1561.09 Q46.3516 1564.63 49.9627 1564.63 Q53.5969 1564.63 55.4024 1561.09 Q57.2311 1557.52 57.2311 1550.41 Q57.2311 1543.28 55.4024 1539.74 Q53.5969 1536.18 49.9627 1536.18 M49.9627 1532.47 Q55.7728 1532.47 58.8284 1537.08 Q61.907 1541.66 61.907 1550.41 Q61.907 1559.14 58.8284 1563.75 Q55.7728 1568.33 49.9627 1568.33 Q44.1525 1568.33 41.0738 1563.75 Q38.0183 1559.14 38.0183 1550.41 Q38.0183 1541.66 41.0738 1537.08 Q44.1525 1532.47 49.9627 1532.47 Z" fill="#000000" fill-rule="nonzero" fill-opacity="1" /><path clip-path="url(#clip690)" d="M70.1246 1561.78 L75.0088 1561.78 L75.0088 1567.66 L70.1246 1567.66 L70.1246 1561.78 Z" fill="#000000" fill-rule="nonzero" fill-opacity="1" /><path clip-path="url(#clip690)" d="M95.1939 1536.18 Q91.5828 1536.18 89.7541 1539.74 Q87.9486 1543.28 87.9486 1550.41 Q87.9486 1557.52 89.7541 1561.09 Q91.5828 1564.63 95.1939 1564.63 Q98.8281 1564.63 100.634 1561.09 Q102.462 1557.52 102.462 1550.41 Q102.462 1543.28 100.634 1539.74 Q98.8281 1536.18 95.1939 1536.18 M95.1939 1532.47 Q101.004 1532.47 104.06 1537.08 Q107.138 1541.66 107.138 1550.41 Q107.138 1559.14 104.06 1563.75 Q101.004 1568.33 95.1939 1568.33 Q89.3837 1568.33 86.3051 1563.75 Q83.2495 1559.14 83.2495 1550.41 Q83.2495 1541.66 86.3051 1537.08 Q89.3837 1532.47 95.1939 1532.47 Z" fill="#000000" fill-rule="nonzero" fill-opacity="1" /><path clip-path="url(#clip690)" d="M125.356 1536.18 Q121.745 1536.18 119.916 1539.74 Q118.11 1543.28 118.11 1550.41 Q118.11 1557.52 119.916 1561.09 Q121.745 1564.63 125.356 1564.63 Q128.99 1564.63 130.796 1561.09 Q132.624 1557.52 132.624 1550.41 Q132.624 1543.28 130.796 1539.74 Q128.99 1536.18 125.356 1536.18 M125.356 1532.47 Q131.166 1532.47 134.221 1537.08 Q137.3 1541.66 137.3 1550.41 Q137.3 1559.14 134.221 1563.75 Q131.166 1568.33 125.356 1568.33 Q119.546 1568.33 116.467 1563.75 Q113.411 1559.14 113.411 1550.41 Q113.411 1541.66 116.467 1537.08 Q119.546 1532.47 125.356 1532.47 Z" fill="#000000" fill-rule="nonzero" fill-opacity="1" /><path clip-path="url(#clip690)" d="M155.518 1536.18 Q151.907 1536.18 150.078 1539.74 Q148.272 1543.28 148.272 1550.41 Q148.272 1557.52 150.078 1561.09 Q151.907 1564.63 155.518 1564.63 Q159.152 1564.63 160.957 1561.09 Q162.786 1557.52 162.786 1550.41 Q162.786 1543.28 160.957 1539.74 Q159.152 1536.18 155.518 1536.18 M155.518 1532.47 Q161.328 1532.47 164.383 1537.08 Q167.462 1541.66 167.462 1550.41 Q167.462 1559.14 164.383 1563.75 Q161.328 1568.33 155.518 1568.33 Q149.707 1568.33 146.629 1563.75 Q143.573 1559.14 143.573 1550.41 Q143.573 1541.66 146.629 1537.08 Q149.707 1532.47 155.518 1532.47 Z" fill="#000000" fill-rule="nonzero" fill-opacity="1" /><path clip-path="url(#clip690)" d="M500.764 1536.18 Q497.153 1536.18 495.325 1539.74 Q493.519 1543.28 493.519 1550.41 Q493.519 1557.52 495.325 1561.09 Q497.153 1564.63 500.764 1564.63 Q504.399 1564.63 506.204 1561.09 Q508.033 1557.52 508.033 1550.41 Q508.033 1543.28 506.204 1539.74 Q504.399 1536.18 500.764 1536.18 M500.764 1532.47 Q506.575 1532.47 509.63 1537.08 Q512.709 1541.66 512.709 1550.41 Q512.709 1559.14 509.63 1563.75 Q506.575 1568.33 500.764 1568.33 Q494.954 1568.33 491.876 1563.75 Q488.82 1559.14 488.82 1550.41 Q488.82 1541.66 491.876 1537.08 Q494.954 1532.47 500.764 1532.47 Z" fill="#000000" fill-rule="nonzero" fill-opacity="1" /><path clip-path="url(#clip690)" d="M520.926 1561.78 L525.811 1561.78 L525.811 1567.66 L520.926 1567.66 L520.926 1561.78 Z" fill="#000000" fill-rule="nonzero" fill-opacity="1" /><path clip-path="url(#clip690)" d="M545.996 1536.18 Q542.385 1536.18 540.556 1539.74 Q538.75 1543.28 538.75 1550.41 Q538.75 1557.52 540.556 1561.09 Q542.385 1564.63 545.996 1564.63 Q549.63 1564.63 551.435 1561.09 Q553.264 1557.52 553.264 1550.41 Q553.264 1543.28 551.435 1539.74 Q549.63 1536.18 545.996 1536.18 M545.996 1532.47 Q551.806 1532.47 554.861 1537.08 Q557.94 1541.66 557.94 1550.41 Q557.94 1559.14 554.861 1563.75 Q551.806 1568.33 545.996 1568.33 Q540.186 1568.33 537.107 1563.75 Q534.051 1559.14 534.051 1550.41 Q534.051 1541.66 537.107 1537.08 Q540.186 1532.47 545.996 1532.47 Z" fill="#000000" fill-rule="nonzero" fill-opacity="1" /><path clip-path="url(#clip690)" d="M576.158 1536.18 Q572.546 1536.18 570.718 1539.74 Q568.912 1543.28 568.912 1550.41 Q568.912 1557.52 570.718 1561.09 Q572.546 1564.63 576.158 1564.63 Q579.792 1564.63 581.597 1561.09 Q583.426 1557.52 583.426 1550.41 Q583.426 1543.28 581.597 1539.74 Q579.792 1536.18 576.158 1536.18 M576.158 1532.47 Q581.968 1532.47 585.023 1537.08 Q588.102 1541.66 588.102 1550.41 Q588.102 1559.14 585.023 1563.75 Q581.968 1568.33 576.158 1568.33 Q570.347 1568.33 567.269 1563.75 Q564.213 1559.14 564.213 1550.41 Q564.213 1541.66 567.269 1537.08 Q570.347 1532.47 576.158 1532.47 Z" fill="#000000" fill-rule="nonzero" fill-opacity="1" /><path clip-path="url(#clip690)" d="M600.347 1563.72 L616.667 1563.72 L616.667 1567.66 L594.722 1567.66 L594.722 1563.72 Q597.384 1560.97 601.968 1556.34 Q606.574 1551.69 607.755 1550.35 Q610 1547.82 610.88 1546.09 Q611.782 1544.33 611.782 1542.64 Q611.782 1539.88 609.838 1538.15 Q607.917 1536.41 604.815 1536.41 Q602.616 1536.41 600.162 1537.17 Q597.731 1537.94 594.954 1539.49 L594.954 1534.77 Q597.778 1533.63 600.231 1533.05 Q602.685 1532.47 604.722 1532.47 Q610.093 1532.47 613.287 1535.16 Q616.481 1537.85 616.481 1542.34 Q616.481 1544.47 615.671 1546.39 Q614.884 1548.28 612.778 1550.88 Q612.199 1551.55 609.097 1554.77 Q605.995 1557.96 600.347 1563.72 Z" fill="#000000" fill-rule="nonzero" fill-opacity="1" /><path clip-path="url(#clip690)" d="M949.726 1536.18 Q946.115 1536.18 944.286 1539.74 Q942.481 1543.28 942.481 1550.41 Q942.481 1557.52 944.286 1561.09 Q946.115 1564.63 949.726 1564.63 Q953.36 1564.63 955.166 1561.09 Q956.994 1557.52 956.994 1550.41 Q956.994 1543.28 955.166 1539.74 Q953.36 1536.18 949.726 1536.18 M949.726 1532.47 Q955.536 1532.47 958.592 1537.08 Q961.67 1541.66 961.67 1550.41 Q961.67 1559.14 958.592 1563.75 Q955.536 1568.33 949.726 1568.33 Q943.916 1568.33 940.837 1563.75 Q937.782 1559.14 937.782 1550.41 Q937.782 1541.66 940.837 1537.08 Q943.916 1532.47 949.726 1532.47 Z" fill="#000000" fill-rule="nonzero" fill-opacity="1" /><path clip-path="url(#clip690)" d="M969.888 1561.78 L974.772 1561.78 L974.772 1567.66 L969.888 1567.66 L969.888 1561.78 Z" fill="#000000" fill-rule="nonzero" fill-opacity="1" /><path clip-path="url(#clip690)" d="M994.957 1536.18 Q991.346 1536.18 989.517 1539.74 Q987.712 1543.28 987.712 1550.41 Q987.712 1557.52 989.517 1561.09 Q991.346 1564.63 994.957 1564.63 Q998.591 1564.63 1000.4 1561.09 Q1002.23 1557.52 1002.23 1550.41 Q1002.23 1543.28 1000.4 1539.74 Q998.591 1536.18 994.957 1536.18 M994.957 1532.47 Q1000.77 1532.47 1003.82 1537.08 Q1006.9 1541.66 1006.9 1550.41 Q1006.9 1559.14 1003.82 1563.75 Q1000.77 1568.33 994.957 1568.33 Q989.147 1568.33 986.068 1563.75 Q983.013 1559.14 983.013 1550.41 Q983.013 1541.66 986.068 1537.08 Q989.147 1532.47 994.957 1532.47 Z" fill="#000000" fill-rule="nonzero" fill-opacity="1" /><path clip-path="url(#clip690)" d="M1025.12 1536.18 Q1021.51 1536.18 1019.68 1539.74 Q1017.87 1543.28 1017.87 1550.41 Q1017.87 1557.52 1019.68 1561.09 Q1021.51 1564.63 1025.12 1564.63 Q1028.75 1564.63 1030.56 1561.09 Q1032.39 1557.52 1032.39 1550.41 Q1032.39 1543.28 1030.56 1539.74 Q1028.75 1536.18 1025.12 1536.18 M1025.12 1532.47 Q1030.93 1532.47 1033.98 1537.08 Q1037.06 1541.66 1037.06 1550.41 Q1037.06 1559.14 1033.98 1563.75 Q1030.93 1568.33 1025.12 1568.33 Q1019.31 1568.33 1016.23 1563.75 Q1013.17 1559.14 1013.17 1550.41 Q1013.17 1541.66 1016.23 1537.08 Q1019.31 1532.47 1025.12 1532.47 Z" fill="#000000" fill-rule="nonzero" fill-opacity="1" /><path clip-path="url(#clip690)" d="M1058.13 1537.17 L1046.32 1555.62 L1058.13 1555.62 L1058.13 1537.17 M1056.9 1533.1 L1062.78 1533.1 L1062.78 1555.62 L1067.71 1555.62 L1067.71 1559.51 L1062.78 1559.51 L1062.78 1567.66 L1058.13 1567.66 L1058.13 1559.51 L1042.53 1559.51 L1042.53 1555 L1056.9 1533.1 Z" fill="#000000" fill-rule="nonzero" fill-opacity="1" /><path clip-path="url(#clip690)" d="M1399.89 1536.18 Q1396.28 1536.18 1394.45 1539.74 Q1392.65 1543.28 1392.65 1550.41 Q1392.65 1557.52 1394.45 1561.09 Q1396.28 1564.63 1399.89 1564.63 Q1403.53 1564.63 1405.33 1561.09 Q1407.16 1557.52 1407.16 1550.41 Q1407.16 1543.28 1405.33 1539.74 Q1403.53 1536.18 1399.89 1536.18 M1399.89 1532.47 Q1405.7 1532.47 1408.76 1537.08 Q1411.84 1541.66 1411.84 1550.41 Q1411.84 1559.14 1408.76 1563.75 Q1405.7 1568.33 1399.89 1568.33 Q1394.08 1568.33 1391 1563.75 Q1387.95 1559.14 1387.95 1550.41 Q1387.95 1541.66 1391 1537.08 Q1394.08 1532.47 1399.89 1532.47 Z" fill="#000000" fill-rule="nonzero" fill-opacity="1" /><path clip-path="url(#clip690)" d="M1420.05 1561.78 L1424.94 1561.78 L1424.94 1567.66 L1420.05 1567.66 L1420.05 1561.78 Z" fill="#000000" fill-rule="nonzero" fill-opacity="1" /><path clip-path="url(#clip690)" d="M1445.12 1536.18 Q1441.51 1536.18 1439.68 1539.74 Q1437.88 1543.28 1437.88 1550.41 Q1437.88 1557.52 1439.68 1561.09 Q1441.51 1564.63 1445.12 1564.63 Q1448.76 1564.63 1450.56 1561.09 Q1452.39 1557.52 1452.39 1550.41 Q1452.39 1543.28 1450.56 1539.74 Q1448.76 1536.18 1445.12 1536.18 M1445.12 1532.47 Q1450.93 1532.47 1453.99 1537.08 Q1457.07 1541.66 1457.07 1550.41 Q1457.07 1559.14 1453.99 1563.75 Q1450.93 1568.33 1445.12 1568.33 Q1439.31 1568.33 1436.23 1563.75 Q1433.18 1559.14 1433.18 1550.41 Q1433.18 1541.66 1436.23 1537.08 Q1439.31 1532.47 1445.12 1532.47 Z" fill="#000000" fill-rule="nonzero" fill-opacity="1" /><path clip-path="url(#clip690)" d="M1475.28 1536.18 Q1471.67 1536.18 1469.84 1539.74 Q1468.04 1543.28 1468.04 1550.41 Q1468.04 1557.52 1469.84 1561.09 Q1471.67 1564.63 1475.28 1564.63 Q1478.92 1564.63 1480.72 1561.09 Q1482.55 1557.52 1482.55 1550.41 Q1482.55 1543.28 1480.72 1539.74 Q1478.92 1536.18 1475.28 1536.18 M1475.28 1532.47 Q1481.09 1532.47 1484.15 1537.08 Q1487.23 1541.66 1487.23 1550.41 Q1487.23 1559.14 1484.15 1563.75 Q1481.09 1568.33 1475.28 1568.33 Q1469.47 1568.33 1466.4 1563.75 Q1463.34 1559.14 1463.34 1550.41 Q1463.34 1541.66 1466.4 1537.08 Q1469.47 1532.47 1475.28 1532.47 Z" fill="#000000" fill-rule="nonzero" fill-opacity="1" /><path clip-path="url(#clip690)" d="M1506.02 1548.52 Q1502.88 1548.52 1501.02 1550.67 Q1499.2 1552.82 1499.2 1556.57 Q1499.2 1560.3 1501.02 1562.47 Q1502.88 1564.63 1506.02 1564.63 Q1509.17 1564.63 1511 1562.47 Q1512.85 1560.3 1512.85 1556.57 Q1512.85 1552.82 1511 1550.67 Q1509.17 1548.52 1506.02 1548.52 M1515.31 1533.86 L1515.31 1538.12 Q1513.55 1537.29 1511.74 1536.85 Q1509.96 1536.41 1508.2 1536.41 Q1503.57 1536.41 1501.12 1539.53 Q1498.69 1542.66 1498.34 1548.98 Q1499.71 1546.97 1501.77 1545.9 Q1503.83 1544.81 1506.3 1544.81 Q1511.51 1544.81 1514.52 1547.98 Q1517.55 1551.13 1517.55 1556.57 Q1517.55 1561.9 1514.4 1565.11 Q1511.26 1568.33 1506.02 1568.33 Q1500.03 1568.33 1496.86 1563.75 Q1493.69 1559.14 1493.69 1550.41 Q1493.69 1542.22 1497.58 1537.36 Q1501.46 1532.47 1508.02 1532.47 Q1509.77 1532.47 1511.56 1532.82 Q1513.36 1533.17 1515.31 1533.86 Z" fill="#000000" fill-rule="nonzero" fill-opacity="1" /><path clip-path="url(#clip690)" d="M1850.02 1536.18 Q1846.41 1536.18 1844.58 1539.74 Q1842.78 1543.28 1842.78 1550.41 Q1842.78 1557.52 1844.58 1561.09 Q1846.41 1564.63 1850.02 1564.63 Q1853.66 1564.63 1855.46 1561.09 Q1857.29 1557.52 1857.29 1550.41 Q1857.29 1543.28 1855.46 1539.74 Q1853.66 1536.18 1850.02 1536.18 M1850.02 1532.47 Q1855.83 1532.47 1858.89 1537.08 Q1861.97 1541.66 1861.97 1550.41 Q1861.97 1559.14 1858.89 1563.75 Q1855.83 1568.33 1850.02 1568.33 Q1844.21 1568.33 1841.13 1563.75 Q1838.08 1559.14 1838.08 1550.41 Q1838.08 1541.66 1841.13 1537.08 Q1844.21 1532.47 1850.02 1532.47 Z" fill="#000000" fill-rule="nonzero" fill-opacity="1" /><path clip-path="url(#clip690)" d="M1870.18 1561.78 L1875.07 1561.78 L1875.07 1567.66 L1870.18 1567.66 L1870.18 1561.78 Z" fill="#000000" fill-rule="nonzero" fill-opacity="1" /><path clip-path="url(#clip690)" d="M1895.25 1536.18 Q1891.64 1536.18 1889.81 1539.74 Q1888.01 1543.28 1888.01 1550.41 Q1888.01 1557.52 1889.81 1561.09 Q1891.64 1564.63 1895.25 1564.63 Q1898.89 1564.63 1900.69 1561.09 Q1902.52 1557.52 1902.52 1550.41 Q1902.52 1543.28 1900.69 1539.74 Q1898.89 1536.18 1895.25 1536.18 M1895.25 1532.47 Q1901.06 1532.47 1904.12 1537.08 Q1907.2 1541.66 1907.2 1550.41 Q1907.2 1559.14 1904.12 1563.75 Q1901.06 1568.33 1895.25 1568.33 Q1889.44 1568.33 1886.36 1563.75 Q1883.31 1559.14 1883.31 1550.41 Q1883.31 1541.66 1886.36 1537.08 Q1889.44 1532.47 1895.25 1532.47 Z" fill="#000000" fill-rule="nonzero" fill-opacity="1" /><path clip-path="url(#clip690)" d="M1925.41 1536.18 Q1921.8 1536.18 1919.97 1539.74 Q1918.17 1543.28 1918.17 1550.41 Q1918.17 1557.52 1919.97 1561.09 Q1921.8 1564.63 1925.41 1564.63 Q1929.05 1564.63 1930.85 1561.09 Q1932.68 1557.52 1932.68 1550.41 Q1932.68 1543.28 1930.85 1539.74 Q1929.05 1536.18 1925.41 1536.18 M1925.41 1532.47 Q1931.22 1532.47 1934.28 1537.08 Q1937.36 1541.66 1937.36 1550.41 Q1937.36 1559.14 1934.28 1563.75 Q1931.22 1568.33 1925.41 1568.33 Q1919.6 1568.33 1916.53 1563.75 Q1913.47 1559.14 1913.47 1550.41 Q1913.47 1541.66 1916.53 1537.08 Q1919.6 1532.47 1925.41 1532.47 Z" fill="#000000" fill-rule="nonzero" fill-opacity="1" /><path clip-path="url(#clip690)" d="M1955.58 1551.25 Q1952.24 1551.25 1950.32 1553.03 Q1948.42 1554.81 1948.42 1557.94 Q1948.42 1561.06 1950.32 1562.85 Q1952.24 1564.63 1955.58 1564.63 Q1958.91 1564.63 1960.83 1562.85 Q1962.75 1561.04 1962.75 1557.94 Q1962.75 1554.81 1960.83 1553.03 Q1958.93 1551.25 1955.58 1551.25 M1950.9 1549.26 Q1947.89 1548.52 1946.2 1546.46 Q1944.53 1544.4 1944.53 1541.43 Q1944.53 1537.29 1947.47 1534.88 Q1950.44 1532.47 1955.58 1532.47 Q1960.74 1532.47 1963.68 1534.88 Q1966.62 1537.29 1966.62 1541.43 Q1966.62 1544.4 1964.93 1546.46 Q1963.26 1548.52 1960.28 1549.26 Q1963.66 1550.04 1965.53 1552.34 Q1967.43 1554.63 1967.43 1557.94 Q1967.43 1562.96 1964.35 1565.65 Q1961.29 1568.33 1955.58 1568.33 Q1949.86 1568.33 1946.78 1565.65 Q1943.72 1562.96 1943.72 1557.94 Q1943.72 1554.63 1945.62 1552.34 Q1947.52 1550.04 1950.9 1549.26 M1949.19 1541.87 Q1949.19 1544.56 1950.85 1546.06 Q1952.54 1547.57 1955.58 1547.57 Q1958.59 1547.57 1960.28 1546.06 Q1961.99 1544.56 1961.99 1541.87 Q1961.99 1539.19 1960.28 1537.68 Q1958.59 1536.18 1955.58 1536.18 Q1952.54 1536.18 1950.85 1537.68 Q1949.19 1539.19 1949.19 1541.87 Z" fill="#000000" fill-rule="nonzero" fill-opacity="1" /><path clip-path="url(#clip690)" d="M2299.98 1536.18 Q2296.37 1536.18 2294.54 1539.74 Q2292.73 1543.28 2292.73 1550.41 Q2292.73 1557.52 2294.54 1561.09 Q2296.37 1564.63 2299.98 1564.63 Q2303.61 1564.63 2305.42 1561.09 Q2307.25 1557.52 2307.25 1550.41 Q2307.25 1543.28 2305.42 1539.74 Q2303.61 1536.18 2299.98 1536.18 M2299.98 1532.47 Q2305.79 1532.47 2308.84 1537.08 Q2311.92 1541.66 2311.92 1550.41 Q2311.92 1559.14 2308.84 1563.75 Q2305.79 1568.33 2299.98 1568.33 Q2294.17 1568.33 2291.09 1563.75 Q2288.03 1559.14 2288.03 1550.41 Q2288.03 1541.66 2291.09 1537.08 Q2294.17 1532.47 2299.98 1532.47 Z" fill="#000000" fill-rule="nonzero" fill-opacity="1" /><path clip-path="url(#clip690)" d="M2320.14 1561.78 L2325.02 1561.78 L2325.02 1567.66 L2320.14 1567.66 L2320.14 1561.78 Z" fill="#000000" fill-rule="nonzero" fill-opacity="1" /><path clip-path="url(#clip690)" d="M2345.21 1536.18 Q2341.6 1536.18 2339.77 1539.74 Q2337.96 1543.28 2337.96 1550.41 Q2337.96 1557.52 2339.77 1561.09 Q2341.6 1564.63 2345.21 1564.63 Q2348.84 1564.63 2350.65 1561.09 Q2352.48 1557.52 2352.48 1550.41 Q2352.48 1543.28 2350.65 1539.74 Q2348.84 1536.18 2345.21 1536.18 M2345.21 1532.47 Q2351.02 1532.47 2354.08 1537.08 Q2357.15 1541.66 2357.15 1550.41 Q2357.15 1559.14 2354.08 1563.75 Q2351.02 1568.33 2345.21 1568.33 Q2339.4 1568.33 2336.32 1563.75 Q2333.27 1559.14 2333.27 1550.41 Q2333.27 1541.66 2336.32 1537.08 Q2339.4 1532.47 2345.21 1532.47 Z" fill="#000000" fill-rule="nonzero" fill-opacity="1" /><path clip-path="url(#clip690)" d="M2366.18 1563.72 L2373.82 1563.72 L2373.82 1537.36 L2365.51 1539.03 L2365.51 1534.77 L2373.77 1533.1 L2378.45 1533.1 L2378.45 1563.72 L2386.09 1563.72 L2386.09 1567.66 L2366.18 1567.66 L2366.18 1563.72 Z" fill="#000000" fill-rule="nonzero" fill-opacity="1" /><path clip-path="url(#clip690)" d="M2405.53 1536.18 Q2401.92 1536.18 2400.09 1539.74 Q2398.29 1543.28 2398.29 1550.41 Q2398.29 1557.52 2400.09 1561.09 Q2401.92 1564.63 2405.53 1564.63 Q2409.17 1564.63 2410.97 1561.09 Q2412.8 1557.52 2412.8 1550.41 Q2412.8 1543.28 2410.97 1539.74 Q2409.17 1536.18 2405.53 1536.18 M2405.53 1532.47 Q2411.34 1532.47 2414.4 1537.08 Q2417.48 1541.66 2417.48 1550.41 Q2417.48 1559.14 2414.4 1563.75 Q2411.34 1568.33 2405.53 1568.33 Q2399.72 1568.33 2396.64 1563.75 Q2393.59 1559.14 2393.59 1550.41 Q2393.59 1541.66 2396.64 1537.08 Q2399.72 1532.47 2405.53 1532.47 Z" fill="#000000" fill-rule="nonzero" fill-opacity="1" /><path clip-path="url(#clip690)" d="M1115.2 1604.35 L1115.2 1614.48 L1127.27 1614.48 L1127.27 1619.03 L1115.2 1619.03 L1115.2 1638.38 Q1115.2 1642.74 1116.38 1643.98 Q1117.59 1645.22 1121.25 1645.22 L1127.27 1645.22 L1127.27 1650.12 L1121.25 1650.12 Q1114.47 1650.12 1111.89 1647.61 Q1109.31 1645.06 1109.31 1638.38 L1109.31 1619.03 L1105.02 1619.03 L1105.02 1614.48 L1109.31 1614.48 L1109.31 1604.35 L1115.2 1604.35 Z" fill="#000000" fill-rule="nonzero" fill-opacity="1" /><path clip-path="url(#clip690)" d="M1134.97 1614.48 L1140.82 1614.48 L1140.82 1650.12 L1134.97 1650.12 L1134.97 1614.48 M1134.97 1600.6 L1140.82 1600.6 L1140.82 1608.01 L1134.97 1608.01 L1134.97 1600.6 Z" fill="#000000" fill-rule="nonzero" fill-opacity="1" /><path clip-path="url(#clip690)" d="M1180.83 1621.32 Q1183.03 1617.37 1186.08 1615.49 Q1189.14 1613.62 1193.28 1613.62 Q1198.85 1613.62 1201.87 1617.53 Q1204.9 1621.41 1204.9 1628.61 L1204.9 1650.12 L1199.01 1650.12 L1199.01 1628.8 Q1199.01 1623.67 1197.19 1621.19 Q1195.38 1618.71 1191.65 1618.71 Q1187.1 1618.71 1184.46 1621.73 Q1181.82 1624.76 1181.82 1629.98 L1181.82 1650.12 L1175.93 1650.12 L1175.93 1628.8 Q1175.93 1623.64 1174.12 1621.19 Q1172.3 1618.71 1168.52 1618.71 Q1164.03 1618.71 1161.39 1621.76 Q1158.74 1624.79 1158.74 1629.98 L1158.74 1650.12 L1152.86 1650.12 L1152.86 1614.48 L1158.74 1614.48 L1158.74 1620.01 Q1160.75 1616.74 1163.55 1615.18 Q1166.35 1613.62 1170.2 1613.62 Q1174.09 1613.62 1176.79 1615.59 Q1179.53 1617.56 1180.83 1621.32 Z" fill="#000000" fill-rule="nonzero" fill-opacity="1" /><path clip-path="url(#clip690)" d="M1247.07 1630.84 L1247.07 1633.7 L1220.14 1633.7 Q1220.52 1639.75 1223.77 1642.93 Q1227.05 1646.08 1232.87 1646.08 Q1236.25 1646.08 1239.4 1645.25 Q1242.58 1644.43 1245.7 1642.77 L1245.7 1648.31 Q1242.55 1649.65 1239.24 1650.35 Q1235.93 1651.05 1232.52 1651.05 Q1223.99 1651.05 1219 1646.08 Q1214.03 1641.12 1214.03 1632.65 Q1214.03 1623.9 1218.74 1618.77 Q1223.48 1613.62 1231.5 1613.62 Q1238.7 1613.62 1242.87 1618.26 Q1247.07 1622.88 1247.07 1630.84 M1241.21 1629.12 Q1241.15 1624.31 1238.51 1621.45 Q1235.9 1618.58 1231.57 1618.58 Q1226.67 1618.58 1223.71 1621.35 Q1220.78 1624.12 1220.33 1629.15 L1241.21 1629.12 Z" fill="#000000" fill-rule="nonzero" fill-opacity="1" /><path clip-path="url(#clip690)" d="M1276.86 1600.6 L1290.35 1600.6 L1290.35 1605.15 L1282.72 1605.15 L1282.72 1654.17 L1290.35 1654.17 L1290.35 1658.72 L1276.86 1658.72 L1276.86 1600.6 Z" fill="#000000" fill-rule="nonzero" fill-opacity="1" /><path clip-path="url(#clip690)" d="M1325.56 1615.53 L1325.56 1621.06 Q1323.07 1619.79 1320.4 1619.15 Q1317.73 1618.52 1314.86 1618.52 Q1310.5 1618.52 1308.31 1619.85 Q1306.14 1621.19 1306.14 1623.87 Q1306.14 1625.9 1307.7 1627.08 Q1309.26 1628.23 1313.97 1629.28 L1315.98 1629.72 Q1322.22 1631.06 1324.83 1633.51 Q1327.47 1635.93 1327.47 1640.29 Q1327.47 1645.25 1323.52 1648.15 Q1319.61 1651.05 1312.73 1651.05 Q1309.87 1651.05 1306.75 1650.47 Q1303.66 1649.93 1300.22 1648.82 L1300.22 1642.77 Q1303.47 1644.46 1306.62 1645.32 Q1309.77 1646.15 1312.86 1646.15 Q1317 1646.15 1319.22 1644.74 Q1321.45 1643.31 1321.45 1640.73 Q1321.45 1638.35 1319.83 1637.07 Q1318.24 1635.8 1312.79 1634.62 L1310.76 1634.15 Q1305.31 1633 1302.9 1630.64 Q1300.48 1628.26 1300.48 1624.12 Q1300.48 1619.09 1304.04 1616.35 Q1307.61 1613.62 1314.16 1613.62 Q1317.41 1613.62 1320.27 1614.09 Q1323.14 1614.57 1325.56 1615.53 Z" fill="#000000" fill-rule="nonzero" fill-opacity="1" /><path clip-path="url(#clip690)" d="M1350.48 1600.6 L1350.48 1658.72 L1336.98 1658.72 L1336.98 1654.17 L1344.59 1654.17 L1344.59 1605.15 L1336.98 1605.15 L1336.98 1600.6 L1350.48 1600.6 Z" fill="#000000" fill-rule="nonzero" fill-opacity="1" /><polyline clip-path="url(#clip692)" style="stroke:#000000; stroke-linecap:round; stroke-linejoin:round; stroke-width:2; stroke-opacity:0.1; fill:none" points="102.74,1464 2352.76,1464 "/>
<polyline clip-path="url(#clip692)" style="stroke:#000000; stroke-linecap:round; stroke-linejoin:round; stroke-width:2; stroke-opacity:0.1; fill:none" points="102.74,1144.35 2352.76,1144.35 "/>
<polyline clip-path="url(#clip692)" style="stroke:#000000; stroke-linecap:round; stroke-linejoin:round; stroke-width:2; stroke-opacity:0.1; fill:none" points="102.74,824.7 2352.76,824.7 "/>
<polyline clip-path="url(#clip692)" style="stroke:#000000; stroke-linecap:round; stroke-linejoin:round; stroke-width:2; stroke-opacity:0.1; fill:none" points="102.74,505.052 2352.76,505.052 "/>
<polyline clip-path="url(#clip692)" style="stroke:#000000; stroke-linecap:round; stroke-linejoin:round; stroke-width:2; stroke-opacity:0.1; fill:none" points="102.74,185.405 2352.76,185.405 "/>
<polyline clip-path="url(#clip690)" style="stroke:#000000; stroke-linecap:round; stroke-linejoin:round; stroke-width:4; stroke-opacity:1; fill:none" points="102.74,1505.26 102.74,47.2441 "/>
<polyline clip-path="url(#clip690)" style="stroke:#000000; stroke-linecap:round; stroke-linejoin:round; stroke-width:4; stroke-opacity:1; fill:none" points="102.74,1464 121.638,1464 "/>
<polyline clip-path="url(#clip690)" style="stroke:#000000; stroke-linecap:round; stroke-linejoin:round; stroke-width:4; stroke-opacity:1; fill:none" points="102.74,1144.35 121.638,1144.35 "/>
<polyline clip-path="url(#clip690)" style="stroke:#000000; stroke-linecap:round; stroke-linejoin:round; stroke-width:4; stroke-opacity:1; fill:none" points="102.74,824.7 121.638,824.7 "/>
<polyline clip-path="url(#clip690)" style="stroke:#000000; stroke-linecap:round; stroke-linejoin:round; stroke-width:4; stroke-opacity:1; fill:none" points="102.74,505.052 121.638,505.052 "/>
<polyline clip-path="url(#clip690)" style="stroke:#000000; stroke-linecap:round; stroke-linejoin:round; stroke-width:4; stroke-opacity:1; fill:none" points="102.74,185.405 121.638,185.405 "/>
<path clip-path="url(#clip690)" d="M-20.5973 1449.79 Q-24.2084 1449.79 -26.0371 1453.36 Q-27.8427 1456.9 -27.8427 1464.03 Q-27.8427 1471.14 -26.0371 1474.7 Q-24.2084 1478.24 -20.5973 1478.24 Q-16.9631 1478.24 -15.1576 1474.7 Q-13.3289 1471.14 -13.3289 1464.03 Q-13.3289 1456.9 -15.1576 1453.36 Q-16.9631 1449.79 -20.5973 1449.79 M-20.5973 1446.09 Q-14.7872 1446.09 -11.7316 1450.7 Q-8.65296 1455.28 -8.65296 1464.03 Q-8.65296 1472.76 -11.7316 1477.36 Q-14.7872 1481.95 -20.5973 1481.95 Q-26.4075 1481.95 -29.4862 1477.36 Q-32.5417 1472.76 -32.5417 1464.03 Q-32.5417 1455.28 -29.4862 1450.7 Q-26.4075 1446.09 -20.5973 1446.09 Z" fill="#000000" fill-rule="nonzero" fill-opacity="1" /><path clip-path="url(#clip690)" d="M-0.435408 1475.4 L4.44882 1475.4 L4.44882 1481.28 L-0.435408 1481.28 L-0.435408 1475.4 Z" fill="#000000" fill-rule="nonzero" fill-opacity="1" /><path clip-path="url(#clip690)" d="M24.6339 1449.79 Q21.0228 1449.79 19.1941 1453.36 Q17.3886 1456.9 17.3886 1464.03 Q17.3886 1471.14 19.1941 1474.7 Q21.0228 1478.24 24.6339 1478.24 Q28.2681 1478.24 30.0737 1474.7 Q31.9024 1471.14 31.9024 1464.03 Q31.9024 1456.9 30.0737 1453.36 Q28.2681 1449.79 24.6339 1449.79 M24.6339 1446.09 Q30.4441 1446.09 33.4996 1450.7 Q36.5783 1455.28 36.5783 1464.03 Q36.5783 1472.76 33.4996 1477.36 Q30.4441 1481.95 24.6339 1481.95 Q18.8237 1481.95 15.7451 1477.36 Q12.6895 1472.76 12.6895 1464.03 Q12.6895 1455.28 15.7451 1450.7 Q18.8237 1446.09 24.6339 1446.09 Z" fill="#000000" fill-rule="nonzero" fill-opacity="1" /><path clip-path="url(#clip690)" d="M54.7958 1449.79 Q51.1847 1449.79 49.356 1453.36 Q47.5504 1456.9 47.5504 1464.03 Q47.5504 1471.14 49.356 1474.7 Q51.1847 1478.24 54.7958 1478.24 Q58.43 1478.24 60.2356 1474.7 Q62.0643 1471.14 62.0643 1464.03 Q62.0643 1456.9 60.2356 1453.36 Q58.43 1449.79 54.7958 1449.79 M54.7958 1446.09 Q60.6059 1446.09 63.6615 1450.7 Q66.7402 1455.28 66.7402 1464.03 Q66.7402 1472.76 63.6615 1477.36 Q60.6059 1481.95 54.7958 1481.95 Q48.9856 1481.95 45.9069 1477.36 Q42.8514 1472.76 42.8514 1464.03 Q42.8514 1455.28 45.9069 1450.7 Q48.9856 1446.09 54.7958 1446.09 Z" fill="#000000" fill-rule="nonzero" fill-opacity="1" /><path clip-path="url(#clip690)" d="M-19.602 1130.15 Q-23.2131 1130.15 -25.0418 1133.71 Q-26.8473 1137.25 -26.8473 1144.38 Q-26.8473 1151.49 -25.0418 1155.05 Q-23.2131 1158.6 -19.602 1158.6 Q-15.9677 1158.6 -14.1622 1155.05 Q-12.3335 1151.49 -12.3335 1144.38 Q-12.3335 1137.25 -14.1622 1133.71 Q-15.9677 1130.15 -19.602 1130.15 M-19.602 1126.44 Q-13.7918 1126.44 -10.7363 1131.05 Q-7.65759 1135.63 -7.65759 1144.38 Q-7.65759 1153.11 -10.7363 1157.72 Q-13.7918 1162.3 -19.602 1162.3 Q-25.4121 1162.3 -28.4908 1157.72 Q-31.5464 1153.11 -31.5464 1144.38 Q-31.5464 1135.63 -28.4908 1131.05 Q-25.4121 1126.44 -19.602 1126.44 Z" fill="#000000" fill-rule="nonzero" fill-opacity="1" /><path clip-path="url(#clip690)" d="M0.559957 1155.75 L5.44419 1155.75 L5.44419 1161.63 L0.559957 1161.63 L0.559957 1155.75 Z" fill="#000000" fill-rule="nonzero" fill-opacity="1" /><path clip-path="url(#clip690)" d="M25.6293 1130.15 Q22.0182 1130.15 20.1895 1133.71 Q18.3839 1137.25 18.3839 1144.38 Q18.3839 1151.49 20.1895 1155.05 Q22.0182 1158.6 25.6293 1158.6 Q29.2635 1158.6 31.0691 1155.05 Q32.8977 1151.49 32.8977 1144.38 Q32.8977 1137.25 31.0691 1133.71 Q29.2635 1130.15 25.6293 1130.15 M25.6293 1126.44 Q31.4394 1126.44 34.495 1131.05 Q37.5736 1135.63 37.5736 1144.38 Q37.5736 1153.11 34.495 1157.72 Q31.4394 1162.3 25.6293 1162.3 Q19.8191 1162.3 16.7404 1157.72 Q13.6849 1153.11 13.6849 1144.38 Q13.6849 1135.63 16.7404 1131.05 Q19.8191 1126.44 25.6293 1126.44 Z" fill="#000000" fill-rule="nonzero" fill-opacity="1" /><path clip-path="url(#clip690)" d="M45.8375 1127.07 L64.1939 1127.07 L64.1939 1131 L50.1199 1131 L50.1199 1139.47 Q51.1384 1139.13 52.1569 1138.97 Q53.1754 1138.78 54.1939 1138.78 Q59.9809 1138.78 63.3605 1141.95 Q66.7402 1145.12 66.7402 1150.54 Q66.7402 1156.12 63.268 1159.22 Q59.7958 1162.3 53.4763 1162.3 Q51.3004 1162.3 49.0319 1161.93 Q46.7866 1161.56 44.3792 1160.82 L44.3792 1156.12 Q46.4625 1157.25 48.6847 1157.81 Q50.9069 1158.36 53.3837 1158.36 Q57.3884 1158.36 59.7263 1156.26 Q62.0643 1154.15 62.0643 1150.54 Q62.0643 1146.93 59.7263 1144.82 Q57.3884 1142.72 53.3837 1142.72 Q51.5088 1142.72 49.6338 1143.13 Q47.7819 1143.55 45.8375 1144.43 L45.8375 1127.07 Z" fill="#000000" fill-rule="nonzero" fill-opacity="1" /><path clip-path="url(#clip690)" d="M-20.5973 810.499 Q-24.2084 810.499 -26.0371 814.063 Q-27.8427 817.605 -27.8427 824.735 Q-27.8427 831.841 -26.0371 835.406 Q-24.2084 838.948 -20.5973 838.948 Q-16.9631 838.948 -15.1576 835.406 Q-13.3289 831.841 -13.3289 824.735 Q-13.3289 817.605 -15.1576 814.063 Q-16.9631 810.499 -20.5973 810.499 M-20.5973 806.795 Q-14.7872 806.795 -11.7316 811.401 Q-8.65296 815.985 -8.65296 824.735 Q-8.65296 833.461 -11.7316 838.068 Q-14.7872 842.651 -20.5973 842.651 Q-26.4075 842.651 -29.4862 838.068 Q-32.5417 833.461 -32.5417 824.735 Q-32.5417 815.985 -29.4862 811.401 Q-26.4075 806.795 -20.5973 806.795 Z" fill="#000000" fill-rule="nonzero" fill-opacity="1" /><path clip-path="url(#clip690)" d="M-0.435408 836.1 L4.44882 836.1 L4.44882 841.98 L-0.435408 841.98 L-0.435408 836.1 Z" fill="#000000" fill-rule="nonzero" fill-opacity="1" /><path clip-path="url(#clip690)" d="M15.4441 838.045 L23.083 838.045 L23.083 811.679 L14.7728 813.346 L14.7728 809.087 L23.0367 807.42 L27.7126 807.42 L27.7126 838.045 L35.3514 838.045 L35.3514 841.98 L15.4441 841.98 L15.4441 838.045 Z" fill="#000000" fill-rule="nonzero" fill-opacity="1" /><path clip-path="url(#clip690)" d="M54.7958 810.499 Q51.1847 810.499 49.356 814.063 Q47.5504 817.605 47.5504 824.735 Q47.5504 831.841 49.356 835.406 Q51.1847 838.948 54.7958 838.948 Q58.43 838.948 60.2356 835.406 Q62.0643 831.841 62.0643 824.735 Q62.0643 817.605 60.2356 814.063 Q58.43 810.499 54.7958 810.499 M54.7958 806.795 Q60.6059 806.795 63.6615 811.401 Q66.7402 815.985 66.7402 824.735 Q66.7402 833.461 63.6615 838.068 Q60.6059 842.651 54.7958 842.651 Q48.9856 842.651 45.9069 838.068 Q42.8514 833.461 42.8514 824.735 Q42.8514 815.985 45.9069 811.401 Q48.9856 806.795 54.7958 806.795 Z" fill="#000000" fill-rule="nonzero" fill-opacity="1" /><path clip-path="url(#clip690)" d="M-19.602 490.851 Q-23.2131 490.851 -25.0418 494.416 Q-26.8473 497.957 -26.8473 505.087 Q-26.8473 512.193 -25.0418 515.758 Q-23.2131 519.3 -19.602 519.3 Q-15.9677 519.3 -14.1622 515.758 Q-12.3335 512.193 -12.3335 505.087 Q-12.3335 497.957 -14.1622 494.416 Q-15.9677 490.851 -19.602 490.851 M-19.602 487.147 Q-13.7918 487.147 -10.7363 491.754 Q-7.65759 496.337 -7.65759 505.087 Q-7.65759 513.814 -10.7363 518.42 Q-13.7918 523.004 -19.602 523.004 Q-25.4121 523.004 -28.4908 518.42 Q-31.5464 513.814 -31.5464 505.087 Q-31.5464 496.337 -28.4908 491.754 Q-25.4121 487.147 -19.602 487.147 Z" fill="#000000" fill-rule="nonzero" fill-opacity="1" /><path clip-path="url(#clip690)" d="M0.559957 516.453 L5.44419 516.453 L5.44419 522.332 L0.559957 522.332 L0.559957 516.453 Z" fill="#000000" fill-rule="nonzero" fill-opacity="1" /><path clip-path="url(#clip690)" d="M16.4395 518.397 L24.0783 518.397 L24.0783 492.031 L15.7682 493.698 L15.7682 489.439 L24.0321 487.772 L28.708 487.772 L28.708 518.397 L36.3468 518.397 L36.3468 522.332 L16.4395 522.332 L16.4395 518.397 Z" fill="#000000" fill-rule="nonzero" fill-opacity="1" /><path clip-path="url(#clip690)" d="M45.8375 487.772 L64.1939 487.772 L64.1939 491.707 L50.1199 491.707 L50.1199 500.18 Q51.1384 499.832 52.1569 499.67 Q53.1754 499.485 54.1939 499.485 Q59.9809 499.485 63.3605 502.656 Q66.7402 505.828 66.7402 511.244 Q66.7402 516.823 63.268 519.925 Q59.7958 523.004 53.4763 523.004 Q51.3004 523.004 49.0319 522.633 Q46.7866 522.263 44.3792 521.522 L44.3792 516.823 Q46.4625 517.957 48.6847 518.513 Q50.9069 519.068 53.3837 519.068 Q57.3884 519.068 59.7263 516.962 Q62.0643 514.855 62.0643 511.244 Q62.0643 507.633 59.7263 505.527 Q57.3884 503.42 53.3837 503.42 Q51.5088 503.42 49.6338 503.837 Q47.7819 504.254 45.8375 505.133 L45.8375 487.772 Z" fill="#000000" fill-rule="nonzero" fill-opacity="1" /><path clip-path="url(#clip690)" d="M-20.5973 171.203 Q-24.2084 171.203 -26.0371 174.768 Q-27.8427 178.31 -27.8427 185.439 Q-27.8427 192.546 -26.0371 196.111 Q-24.2084 199.652 -20.5973 199.652 Q-16.9631 199.652 -15.1576 196.111 Q-13.3289 192.546 -13.3289 185.439 Q-13.3289 178.31 -15.1576 174.768 Q-16.9631 171.203 -20.5973 171.203 M-20.5973 167.5 Q-14.7872 167.5 -11.7316 172.106 Q-8.65296 176.689 -8.65296 185.439 Q-8.65296 194.166 -11.7316 198.773 Q-14.7872 203.356 -20.5973 203.356 Q-26.4075 203.356 -29.4862 198.773 Q-32.5417 194.166 -32.5417 185.439 Q-32.5417 176.689 -29.4862 172.106 Q-26.4075 167.5 -20.5973 167.5 Z" fill="#000000" fill-rule="nonzero" fill-opacity="1" /><path clip-path="url(#clip690)" d="M-0.435408 196.805 L4.44882 196.805 L4.44882 202.685 L-0.435408 202.685 L-0.435408 196.805 Z" fill="#000000" fill-rule="nonzero" fill-opacity="1" /><path clip-path="url(#clip690)" d="M18.6617 198.749 L34.9811 198.749 L34.9811 202.685 L13.0367 202.685 L13.0367 198.749 Q15.6988 195.995 20.2821 191.365 Q24.8885 186.712 26.0691 185.37 Q28.3144 182.847 29.1941 181.111 Q30.0968 179.351 30.0968 177.662 Q30.0968 174.907 28.1524 173.171 Q26.2311 171.435 23.1293 171.435 Q20.9302 171.435 18.4765 172.199 Q16.046 172.963 13.2682 174.513 L13.2682 169.791 Q16.0923 168.657 18.546 168.078 Q20.9997 167.5 23.0367 167.5 Q28.407 167.5 31.6015 170.185 Q34.7959 172.87 34.7959 177.361 Q34.7959 179.49 33.9857 181.412 Q33.1987 183.31 31.0922 185.902 Q30.5135 186.574 27.4117 189.791 Q24.3098 192.986 18.6617 198.749 Z" fill="#000000" fill-rule="nonzero" fill-opacity="1" /><path clip-path="url(#clip690)" d="M54.7958 171.203 Q51.1847 171.203 49.356 174.768 Q47.5504 178.31 47.5504 185.439 Q47.5504 192.546 49.356 196.111 Q51.1847 199.652 54.7958 199.652 Q58.43 199.652 60.2356 196.111 Q62.0643 192.546 62.0643 185.439 Q62.0643 178.31 60.2356 174.768 Q58.43 171.203 54.7958 171.203 M54.7958 167.5 Q60.6059 167.5 63.6615 172.106 Q66.7402 176.689 66.7402 185.439 Q66.7402 194.166 63.6615 198.773 Q60.6059 203.356 54.7958 203.356 Q48.9856 203.356 45.9069 198.773 Q42.8514 194.166 42.8514 185.439 Q42.8514 176.689 45.9069 172.106 Q48.9856 167.5 54.7958 167.5 Z" fill="#000000" fill-rule="nonzero" fill-opacity="1" /><path clip-path="url(#clip690)" d="M-118.446 825.443 L-101.099 838.334 L-82.7977 824.775 L-82.7977 831.681 L-96.8023 842.057 L-82.7977 852.434 L-82.7977 859.34 L-101.449 845.495 L-118.446 858.163 L-118.446 851.256 L-105.746 841.803 L-118.446 832.35 L-118.446 825.443 Z" fill="#000000" fill-rule="nonzero" fill-opacity="1" /><path clip-path="url(#clip690)" d="M-132.323 796.32 L-132.323 782.825 L-127.771 782.825 L-127.771 790.463 L-78.7555 790.463 L-78.7555 782.825 L-74.204 782.825 L-74.204 796.32 L-132.323 796.32 Z" fill="#000000" fill-rule="nonzero" fill-opacity="1" /><path clip-path="url(#clip690)" d="M-111.603 742.593 Q-115.549 740.397 -117.427 737.342 Q-119.305 734.286 -119.305 730.148 Q-119.305 724.578 -115.39 721.555 Q-111.507 718.531 -104.314 718.531 L-82.7977 718.531 L-82.7977 724.419 L-104.123 724.419 Q-109.247 724.419 -111.73 726.233 Q-114.212 728.048 -114.212 731.772 Q-114.212 736.323 -111.189 738.965 Q-108.165 741.607 -102.945 741.607 L-82.7977 741.607 L-82.7977 747.495 L-104.123 747.495 Q-109.279 747.495 -111.73 749.309 Q-114.212 751.123 -114.212 754.911 Q-114.212 759.399 -111.157 762.041 Q-108.133 764.682 -102.945 764.682 L-82.7977 764.682 L-82.7977 770.571 L-118.446 770.571 L-118.446 764.682 L-112.908 764.682 Q-116.186 762.677 -117.745 759.876 Q-119.305 757.075 -119.305 753.224 Q-119.305 749.341 -117.332 746.636 Q-115.358 743.898 -111.603 742.593 Z" fill="#000000" fill-rule="nonzero" fill-opacity="1" /><path clip-path="url(#clip690)" d="M-132.323 693.164 L-74.204 693.164 L-74.204 706.659 L-78.7555 706.659 L-78.7555 699.052 L-127.771 699.052 L-127.771 706.659 L-132.323 706.659 L-132.323 693.164 Z" fill="#000000" fill-rule="nonzero" fill-opacity="1" /><polyline clip-path="url(#clip692)" style="stroke:#009af9; stroke-linecap:round; stroke-linejoin:round; stroke-width:4; stroke-opacity:1; fill:none" points="102.74,1464 104.992,1457.6 107.245,1451.2 109.497,1444.81 111.749,1438.42 114.001,1432.04 116.254,1425.67 118.506,1419.3 120.758,1412.95 123.011,1406.6 125.263,1400.26 127.515,1393.93 129.767,1387.61 132.02,1381.3 134.272,1375 136.524,1368.71 138.776,1362.43 141.029,1356.16 143.281,1349.91 145.533,1343.67 147.786,1337.44 150.038,1331.23 152.29,1325.03 154.542,1318.84 156.795,1312.67 159.047,1306.51 161.299,1300.36 163.551,1294.23 165.804,1288.12 168.056,1282.02 170.308,1275.93 172.56,1269.87 174.813,1263.81 177.065,1257.78 179.317,1251.76 181.57,1245.75 183.822,1239.76 186.074,1233.79 188.326,1227.84 190.579,1221.9 192.831,1215.99 195.083,1210.08 197.335,1204.2 199.588,1198.33 201.84,1192.48 204.092,1186.65 206.344,1180.84 208.597,1175.05 210.849,1169.27 213.101,1163.52 215.354,1157.78 217.606,1152.06 219.858,1146.36 222.11,1140.68 224.363,1135.02 226.615,1129.38 228.867,1123.76 231.119,1118.16 233.372,1112.58 235.624,1107.01 237.876,1101.47 240.129,1095.95 242.381,1090.45 244.633,1084.96 246.885,1079.5 249.138,1074.06 251.39,1068.64 253.642,1063.23 255.894,1057.85 258.147,1052.49 260.399,1047.15 262.651,1041.83 264.903,1036.53 267.156,1031.25 269.408,1025.99 271.66,1020.75 273.913,1015.53 276.165,1010.33 278.417,1005.15 280.669,999.993 282.922,994.856 285.174,989.74 287.426,984.645 289.678,979.57 291.931,974.517 294.183,969.484 296.435,964.471 298.687,959.48 300.94,954.509 303.192,949.56 305.444,944.631 307.697,939.723 309.949,934.836 312.201,929.969 314.453,925.124 316.706,920.3 318.958,915.497 321.21,910.714 323.462,905.953 325.715,901.212 327.967,896.493 330.219,891.795 332.471,887.117 334.724,882.461 336.976,877.825 339.228,873.21 341.481,868.617 343.733,864.044 345.985,859.492 348.237,854.962 350.49,850.452 352.742,845.963 354.994,841.495 357.246,837.048 359.499,832.622 361.751,828.216 364.003,823.832 366.256,819.468 368.508,815.125 370.76,810.803 373.012,806.502 375.265,802.221 377.517,797.961 379.769,793.722 382.021,789.503 384.274,785.306 386.526,781.128 388.778,776.971 391.03,772.835 393.283,768.72 395.535,764.624 397.787,760.549 400.04,756.495 402.292,752.461 404.544,748.447 406.796,744.453 409.049,740.48 411.301,736.527 413.553,732.594 415.805,728.681 418.058,724.788 420.31,720.915 422.562,717.061 424.814,713.228 427.067,709.415 429.319,705.621 431.571,701.847 433.824,698.093 436.076,694.358 438.328,690.642 440.58,686.946 442.833,683.27 445.085,679.613 447.337,675.975 449.589,672.356 451.842,668.756 454.094,665.176 456.346,661.614 458.599,658.071 460.851,654.548 463.103,651.042 465.355,647.556 467.608,644.088 469.86,640.638 472.112,637.207 474.364,633.795 476.617,630.4 478.869,627.024 481.121,623.666 483.373,620.326 485.626,617.003 487.878,613.699 490.13,610.413 492.383,607.144 494.635,603.894 496.887,600.661 499.139,597.446 501.392,594.249 503.644,591.069 505.896,587.907 508.148,584.762 510.401,581.635 512.653,578.525 514.905,575.432 517.157,572.357 519.41,569.299 521.662,566.257 523.914,563.233 526.167,560.226 528.419,557.235 530.671,554.262 532.923,551.305 535.176,548.365 537.428,545.441 539.68,542.535 541.932,539.644 544.185,536.77 546.437,533.912 548.689,531.071 550.941,528.246 553.194,525.437 555.446,522.644 557.698,519.867 559.951,517.106 562.203,514.361 564.455,511.632 566.707,508.919 568.96,506.221 571.212,503.539 573.464,500.872 575.716,498.221 577.969,495.586 580.221,492.966 582.473,490.361 584.726,487.771 586.978,485.197 589.23,482.637 591.482,480.093 593.735,477.563 595.987,475.049 598.239,472.549 600.491,470.065 602.744,467.594 604.996,465.139 607.248,462.698 609.5,460.272 611.753,457.86 614.005,455.462 616.257,453.079 618.51,450.71 620.762,448.355 623.014,446.014 625.266,443.687 627.519,441.375 629.771,439.076 632.023,436.791 634.275,434.52 636.528,432.262 638.78,430.018 641.032,427.788 643.284,425.571 645.537,423.368 647.789,421.178 650.041,419.002 652.294,416.838 654.546,414.688 656.798,412.551 659.05,410.427 661.303,408.316 663.555,406.218 665.807,404.133 668.059,402.06 670.312,400 672.564,397.953 674.816,395.919 677.069,393.896 679.321,391.887 681.573,389.89 683.825,387.905 686.078,385.932 688.33,383.971 690.582,382.023 692.834,380.087 695.087,378.162 697.339,376.25 699.591,374.349 701.843,372.46 704.096,370.583 706.348,368.717 708.6,366.863 710.853,365.021 713.105,363.19 715.357,361.37 717.609,359.562 719.862,357.765 722.114,355.979 724.366,354.204 726.618,352.44 728.871,350.687 731.123,348.945 733.375,347.214 735.627,345.493 737.88,343.784 740.132,342.085 742.384,340.396 744.637,338.718 746.889,337.05 749.141,335.393 751.393,333.746 753.646,332.109 755.898,330.483 758.15,328.866 760.402,327.26 762.655,325.664 764.907,324.077 767.159,322.501 769.411,320.935 771.664,319.379 773.916,317.832 776.168,316.295 778.421,314.768 780.673,313.251 782.925,311.743 785.177,310.245 787.43,308.756 789.682,307.277 791.934,305.807 794.186,304.347 796.439,302.896 798.691,301.454 800.943,300.021 803.196,298.597 805.448,297.183 807.7,295.777 809.952,294.381 812.205,292.994 814.457,291.615 816.709,290.245 818.961,288.884 821.214,287.532 823.466,286.188 825.718,284.854 827.97,283.527 830.223,282.21 832.475,280.9 834.727,279.599 836.98,278.307 839.232,277.023 841.484,275.747 843.736,274.48 845.989,273.22 848.241,271.969 850.493,270.726 852.745,269.491 854.998,268.264 857.25,267.045 859.502,265.834 861.754,264.63 864.007,263.435 866.259,262.247 868.511,261.067 870.764,259.895 873.016,258.73 875.268,257.573 877.52,256.424 879.773,255.282 882.025,254.147 884.277,253.02 886.529,251.9 888.782,250.788 891.034,249.683 893.286,248.585 895.538,247.494 897.791,246.41 900.043,245.334 902.295,244.264 904.548,243.202 906.8,242.146 909.052,241.098 911.304,240.056 913.557,239.021 915.809,237.993 918.061,236.972 920.313,235.957 922.566,234.949 924.818,233.947 927.07,232.953 929.323,231.964 931.575,230.983 933.827,230.007 936.079,229.038 938.332,228.076 940.584,227.12 942.836,226.17 945.088,225.226 947.341,224.289 949.593,223.357 951.845,222.432 954.097,221.513 956.35,220.6 958.602,219.693 960.854,218.792 963.107,217.897 965.359,217.008 967.611,216.125 969.863,215.247 972.116,214.375 974.368,213.509 976.62,212.649 978.872,211.794 981.125,210.945 983.377,210.102 985.629,209.264 987.881,208.431 990.134,207.604 992.386,206.783 994.638,205.966 996.891,205.155 999.143,204.35 1001.4,203.55 1003.65,202.755 1005.9,201.965 1008.15,201.18 1010.4,200.401 1012.66,199.627 1014.91,198.858 1017.16,198.094 1019.41,197.335 1021.67,196.581 1023.92,195.832 1026.17,195.088 1028.42,194.349 1030.67,193.615 1032.93,192.885 1035.18,192.161 1037.43,191.441 1039.68,190.727 1041.94,190.017 1044.19,189.311 1046.44,188.611 1048.69,187.915 1050.94,187.224 1053.2,186.537 1055.45,185.855 1057.7,185.178 1059.95,184.505 1062.21,183.837 1064.46,183.173 1066.71,182.514 1068.96,181.859 1071.22,181.208 1073.47,180.562 1075.72,179.921 1077.97,179.283 1080.22,178.65 1082.48,178.021 1084.73,177.397 1086.98,176.776 1089.23,176.16 1091.49,175.548 1093.74,174.94 1095.99,174.337 1098.24,173.737 1100.49,173.141 1102.75,172.55 1105,171.962 1107.25,171.379 1109.5,170.799 1111.76,170.224 1114.01,169.652 1116.26,169.084 1118.51,168.52 1120.77,167.96 1123.02,167.404 1125.27,166.851 1127.52,166.303 1129.77,165.758 1132.03,165.216 1134.28,164.679 1136.53,164.145 1138.78,163.615 1141.04,163.088 1143.29,162.565 1145.54,162.045 1147.79,161.529 1150.04,161.017 1152.3,160.508 1154.55,160.003 1156.8,159.501 1159.05,159.002 1161.31,158.507 1163.56,158.015 1165.81,157.527 1168.06,157.042 1170.32,156.56 1172.57,156.081 1174.82,155.606 1177.07,155.134 1179.32,154.665 1181.58,154.2 1183.83,153.737 1186.08,153.278 1188.33,152.822 1190.59,152.369 1192.84,151.919 1195.09,151.472 1197.34,151.028 1199.59,150.588 1201.85,150.15 1204.1,149.715 1206.35,149.283 1208.6,148.854 1210.86,148.428 1213.11,148.005 1215.36,147.585 1217.61,147.167 1219.87,146.753 1222.12,146.341 1224.37,145.932 1226.62,145.526 1228.87,145.122 1231.13,144.722 1233.38,144.324 1235.63,143.928 1237.88,143.536 1240.14,143.146 1242.39,142.758 1244.64,142.373 1246.89,141.991 1249.14,141.612 1251.4,141.235 1253.65,140.86 1255.9,140.488 1258.15,140.118 1260.41,139.751 1262.66,139.386 1264.91,139.024 1267.16,138.664 1269.41,138.307 1271.67,137.952 1273.92,137.599 1276.17,137.249 1278.42,136.901 1280.68,136.555 1282.93,136.212 1285.18,135.871 1287.43,135.532 1289.69,135.195 1291.94,134.861 1294.19,134.529 1296.44,134.199 1298.69,133.872 1300.95,133.546 1303.2,133.223 1305.45,132.902 1307.7,132.583 1309.96,132.267 1312.21,131.952 1314.46,131.64 1316.71,131.33 1318.96,131.022 1321.22,130.716 1323.47,130.412 1325.72,130.11 1327.97,129.81 1330.23,129.512 1332.48,129.216 1334.73,128.923 1336.98,128.631 1339.24,128.341 1341.49,128.054 1343.74,127.768 1345.99,127.484 1348.24,127.202 1350.5,126.922 1352.75,126.644 1355,126.368 1357.25,126.094 1359.51,125.822 1361.76,125.551 1364.01,125.283 1366.26,125.016 1368.51,124.751 1370.77,124.488 1373.02,124.227 1375.27,123.967 1377.52,123.71 1379.78,123.454 1382.03,123.2 1384.28,122.947 1386.53,122.697 1388.79,122.448 1391.04,122.201 1393.29,121.955 1395.54,121.712 1397.79,121.47 1400.05,121.229 1402.3,120.99 1404.55,120.753 1406.8,120.518 1409.06,120.284 1411.31,120.052 1413.56,119.822 1415.81,119.593 1418.06,119.365 1420.32,119.14 1422.57,118.916 1424.82,118.693 1427.07,118.472 1429.33,118.252 1431.58,118.034 1433.83,117.818 1436.08,117.603 1438.34,117.389 1440.59,117.177 1442.84,116.967 1445.09,116.758 1447.34,116.55 1449.6,116.344 1451.85,116.139 1454.1,115.936 1456.35,115.734 1458.61,115.534 1460.86,115.335 1463.11,115.137 1465.36,114.941 1467.61,114.746 1469.87,114.552 1472.12,114.36 1474.37,114.169 1476.62,113.979 1478.88,113.791 1481.13,113.604 1483.38,113.418 1485.63,113.234 1487.88,113.051 1490.14,112.869 1492.39,112.688 1494.64,112.509 1496.89,112.331 1499.15,112.154 1501.4,111.978 1503.65,111.804 1505.9,111.631 1508.16,111.458 1510.41,111.288 1512.66,111.118 1514.91,110.949 1517.16,110.782 1519.42,110.616 1521.67,110.451 1523.92,110.287 1526.17,110.124 1528.43,109.962 1530.68,109.802 1532.93,109.642 1535.18,109.484 1537.43,109.327 1539.69,109.17 1541.94,109.015 1544.19,108.861 1546.44,108.708 1548.7,108.556 1550.95,108.405 1553.2,108.255 1555.45,108.106 1557.71,107.958 1559.96,107.811 1562.21,107.665 1564.46,107.52 1566.71,107.376 1568.97,107.233 1571.22,107.091 1573.47,106.95 1575.72,106.809 1577.98,106.67 1580.23,106.532 1582.48,106.394 1584.73,106.258 1586.98,106.122 1589.24,105.988 1591.49,105.854 1593.74,105.721 1595.99,105.589 1598.25,105.458 1600.5,105.327 1602.75,105.198 1605,105.069 1607.26,104.942 1609.51,104.815 1611.76,104.689 1614.01,104.564 1616.26,104.44 1618.52,104.316 1620.77,104.194 1623.02,104.072 1625.27,103.951 1627.53,103.831 1629.78,103.711 1632.03,103.593 1634.28,103.475 1636.53,103.358 1638.79,103.242 1641.04,103.127 1643.29,103.012 1645.54,102.899 1647.8,102.786 1650.05,102.674 1652.3,102.562 1654.55,102.452 1656.81,102.342 1659.06,102.233 1661.31,102.124 1663.56,102.017 1665.81,101.91 1668.07,101.804 1670.32,101.698 1672.57,101.594 1674.82,101.49 1677.08,101.387 1679.33,101.284 1681.58,101.182 1683.83,101.081 1686.08,100.981 1688.34,100.881 1690.59,100.782 1692.84,100.684 1695.09,100.587 1697.35,100.49 1699.6,100.394 1701.85,100.298 1704.1,100.203 1706.35,100.109 1708.61,100.016 1710.86,99.9227 1713.11,99.8305 1715.36,99.739 1717.62,99.6481 1719.87,99.5579 1722.12,99.4683 1724.37,99.3793 1726.63,99.291 1728.88,99.2032 1731.13,99.1162 1733.38,99.0297 1735.63,98.9438 1737.89,98.8586 1740.14,98.774 1742.39,98.6899 1744.64,98.6065 1746.9,98.5237 1749.15,98.4414 1751.4,98.3598 1753.65,98.2787 1755.9,98.1982 1758.16,98.1183 1760.41,98.0389 1762.66,97.9602 1764.91,97.8819 1767.17,97.8043 1769.42,97.7272 1771.67,97.6506 1773.92,97.5746 1776.18,97.4992 1778.43,97.4242 1780.68,97.3499 1782.93,97.276 1785.18,97.2027 1787.44,97.1299 1789.69,97.0576 1791.94,96.9859 1794.19,96.9146 1796.45,96.8439 1798.7,96.7737 1800.95,96.7039 1803.2,96.6347 1805.45,96.566 1807.71,96.4977 1809.96,96.43 1812.21,96.3627 1814.46,96.2959 1816.72,96.2296 1818.97,96.1638 1821.22,96.0984 1823.47,96.0335 1825.73,95.969 1827.98,95.905 1830.23,95.8415 1832.48,95.7784 1834.73,95.7158 1836.99,95.6536 1839.24,95.5918 1841.49,95.5305 1843.74,95.4697 1846,95.4092 1848.25,95.3492 1850.5,95.2896 1852.75,95.2304 1855,95.1716 1857.26,95.1132 1859.51,95.0553 1861.76,94.9978 1864.01,94.9406 1866.27,94.8839 1868.52,94.8275 1870.77,94.7715 1873.02,94.716 1875.28,94.6608 1877.53,94.606 1879.78,94.5515 1882.03,94.4975 1884.28,94.4438 1886.54,94.3905 1888.79,94.3375 1891.04,94.2849 1893.29,94.2327 1895.55,94.1808 1897.8,94.1293 1900.05,94.0781 1902.3,94.0273 1904.55,93.9768 1906.81,93.9266 1909.06,93.8768 1911.31,93.8273 1913.56,93.7781 1915.82,93.7293 1918.07,93.6807 1920.32,93.6325 1922.57,93.5846 1924.82,93.5371 1927.08,93.4898 1929.33,93.4428 1931.58,93.3962 1933.83,93.3498 1936.09,93.3037 1938.34,93.258 1940.59,93.2125 1942.84,93.1673 1945.1,93.1224 1947.35,93.0777 1949.6,93.0334 1951.85,92.9893 1954.1,92.9455 1956.36,92.902 1958.61,92.8587 1960.86,92.8158 1963.11,92.7731 1965.37,92.7307 1967.62,92.6886 1969.87,92.6468 1972.12,92.6052 1974.37,92.564 1976.63,92.523 1978.88,92.4822 1981.13,92.4418 1983.38,92.4016 1985.64,92.3617 1987.89,92.322 1990.14,92.2827 1992.39,92.2436 1994.65,92.2047 1996.9,92.1661 1999.15,92.1278 2001.4,92.0897 2003.65,92.0519 2005.91,92.0144 2008.16,91.9771 2010.41,91.94 2012.66,91.9032 2014.92,91.8667 2017.17,91.8304 2019.42,91.7943 2021.67,91.7586 2023.92,91.723 2026.18,91.6877 2028.43,91.6526 2030.68,91.6178 2032.93,91.5832 2035.19,91.5489 2037.44,91.5148 2039.69,91.4809 2041.94,91.4473 2044.2,91.4139 2046.45,91.3808 2048.7,91.3478 2050.95,91.3151 2053.2,91.2827 2055.46,91.2504 2057.71,91.2184 2059.96,91.1866 2062.21,91.155 2064.47,91.1237 2066.72,91.0926 2068.97,91.0617 2071.22,91.031 2073.47,91.0005 2075.73,90.9703 2077.98,90.9402 2080.23,90.9104 2082.48,90.8808 2084.74,90.8514 2086.99,90.8222 2089.24,90.7932 2091.49,90.7644 2093.75,90.7359 2096,90.7075 2098.25,90.6793 2100.5,90.6514 2102.75,90.6236 2105.01,90.596 2107.26,90.5687 2109.51,90.5415 2111.76,90.5145 2114.02,90.4878 2116.27,90.4612 2118.52,90.4348 2120.77,90.4086 2123.02,90.3826 2125.28,90.3567 2127.53,90.3311 2129.78,90.3056 2132.03,90.2804 2134.29,90.2553 2136.54,90.2304 2138.79,90.2057 2141.04,90.1811 2143.29,90.1568 2145.55,90.1326 2147.8,90.1086 2150.05,90.0847 2152.3,90.0611 2154.56,90.0376 2156.81,90.0143 2159.06,89.9911 2161.31,89.9681 2163.57,89.9453 2165.82,89.9227 2168.07,89.9002 2170.32,89.8779 2172.57,89.8557 2174.83,89.8337 2177.08,89.8119 2179.33,89.7902 2181.58,89.7687 2183.84,89.7473 2186.09,89.7261 2188.34,89.7051 2190.59,89.6842 2192.84,89.6634 2195.1,89.6428 2197.35,89.6224 2199.6,89.6021 2201.85,89.5819 2204.11,89.5619 2206.36,89.5421 2208.61,89.5224 2210.86,89.5028 2213.12,89.4834 2215.37,89.4641 2217.62,89.4449 2219.87,89.4259 2222.12,89.407 2224.38,89.3883 2226.63,89.3697 2228.88,89.3512 2231.13,89.3329 2233.39,89.3147 2235.64,89.2966 2237.89,89.2787 2240.14,89.2608 2242.39,89.2431 2244.65,89.2256 2246.9,89.2081 2249.15,89.1908 2251.4,89.1736 2253.66,89.1565 2255.91,89.1396 2258.16,89.1227 2260.41,89.106 2262.67,89.0894 2264.92,89.0729 2267.17,89.0566 2269.42,89.0403 2271.67,89.0242 2273.93,89.0081 2276.18,88.9922 2278.43,88.9764 2280.68,88.9607 2282.94,88.9451 2285.19,88.9296 2287.44,88.9142 2289.69,88.8989 2291.94,88.8837 2294.2,88.8686 2296.45,88.8537 2298.7,88.8388 2300.95,88.824 2303.21,88.8093 2305.46,88.7947 2307.71,88.7802 2309.96,88.7658 2312.22,88.7515 2314.47,88.7373 2316.72,88.7232 2318.97,88.7091 2321.22,88.6952 2323.48,88.6813 2325.73,88.6676 2327.98,88.6539 2330.23,88.6403 2332.49,88.6268 2334.74,88.6133 2336.99,88.6 2339.24,88.5867 2341.49,88.5735 2343.75,88.5604 2346,88.5473 2348.25,88.5344 2350.5,88.5215 2352.76,88.5087 "/>
<path clip-path="url(#clip690)" d="M1963.66 1456.66 L2277.76 1456.66 L2277.76 1352.98 L1963.66 1352.98  Z" fill="#ffffff" fill-rule="evenodd" fill-opacity="1"/>
<polyline clip-path="url(#clip690)" style="stroke:#000000; stroke-linecap:round; stroke-linejoin:round; stroke-width:4; stroke-opacity:1; fill:none" points="1963.66,1456.66 2277.76,1456.66 2277.76,1352.98 1963.66,1352.98 1963.66,1456.66 "/>
<polyline clip-path="url(#clip690)" style="stroke:#009af9; stroke-linecap:round; stroke-linejoin:round; stroke-width:4; stroke-opacity:1; fill:none" points="1988.66,1404.82 2138.66,1404.82 "/>
<path clip-path="url(#clip690)" d="M2163.66 1411.87 L2163.66 1396.17 L2167.92 1396.17 L2167.92 1411.71 Q2167.92 1415.39 2169.35 1417.24 Q2170.79 1419.07 2173.66 1419.07 Q2177.11 1419.07 2179.1 1416.87 Q2181.11 1414.67 2181.11 1410.87 L2181.11 1396.17 L2185.37 1396.17 L2185.37 1422.1 L2181.11 1422.1 L2181.11 1418.12 Q2179.56 1420.48 2177.5 1421.64 Q2175.46 1422.77 2172.76 1422.77 Q2168.29 1422.77 2165.97 1419.99 Q2163.66 1417.22 2163.66 1411.87 M2174.38 1395.55 L2174.38 1395.55 Z" fill="#000000" fill-rule="nonzero" fill-opacity="1" /><path clip-path="url(#clip690)" d="M2193.75 1386.08 L2203.57 1386.08 L2203.57 1389.39 L2198.01 1389.39 L2198.01 1425.04 L2203.57 1425.04 L2203.57 1428.35 L2193.75 1428.35 L2193.75 1386.08 Z" fill="#000000" fill-rule="nonzero" fill-opacity="1" /><path clip-path="url(#clip690)" d="M2214.05 1418.16 L2221.69 1418.16 L2221.69 1391.8 L2213.38 1393.47 L2213.38 1389.21 L2221.64 1387.54 L2226.32 1387.54 L2226.32 1418.16 L2233.96 1418.16 L2233.96 1422.1 L2214.05 1422.1 L2214.05 1418.16 Z" fill="#000000" fill-rule="nonzero" fill-opacity="1" /><path clip-path="url(#clip690)" d="M2252.76 1386.08 L2252.76 1428.35 L2242.94 1428.35 L2242.94 1425.04 L2248.47 1425.04 L2248.47 1389.39 L2242.94 1389.39 L2242.94 1386.08 L2252.76 1386.08 Z" fill="#000000" fill-rule="nonzero" fill-opacity="1" /></svg>
