<?xml version="1.0" encoding="utf-8"?>
<svg xmlns="http://www.w3.org/2000/svg" xmlns:xlink="http://www.w3.org/1999/xlink" width="600" height="400" viewBox="0 0 2400 1600">
<defs>
  <clipPath id="clip060">
    <rect x="0" y="0" width="2400" height="1600"/>
  </clipPath>
</defs>
<path clip-path="url(#clip060)" d="M0 1600 L2400 1600 L2400 0 L0 0  Z" fill="#ffffff" fill-rule="evenodd" fill-opacity="1"/>
<defs>
  <clipPath id="clip061">
    <rect x="480" y="0" width="1681" height="1600"/>
  </clipPath>
</defs>
<path clip-path="url(#clip060)" d="M193.936 1423.18 L2352.76 1423.18 L2352.76 47.2441 L193.936 47.2441  Z" fill="#ffffff" fill-rule="evenodd" fill-opacity="1"/>
<defs>
  <clipPath id="clip062">
    <rect x="193" y="47" width="2160" height="1377"/>
  </clipPath>
</defs>
<polyline clip-path="url(#clip062)" style="stroke:#000000; stroke-linecap:round; stroke-linejoin:round; stroke-width:2; stroke-opacity:0.1; fill:none" points="193.936,1423.18 193.936,47.2441 "/>
<polyline clip-path="url(#clip062)" style="stroke:#000000; stroke-linecap:round; stroke-linejoin:round; stroke-width:2; stroke-opacity:0.1; fill:none" points="776.12,1423.18 776.12,47.2441 "/>
<polyline clip-path="url(#clip062)" style="stroke:#000000; stroke-linecap:round; stroke-linejoin:round; stroke-width:2; stroke-opacity:0.1; fill:none" points="1358.3,1423.18 1358.3,47.2441 "/>
<polyline clip-path="url(#clip062)" style="stroke:#000000; stroke-linecap:round; stroke-linejoin:round; stroke-width:2; stroke-opacity:0.1; fill:none" points="1940.49,1423.18 1940.49,47.2441 "/>
<polyline clip-path="url(#clip060)" style="stroke:#000000; stroke-linecap:round; stroke-linejoin:round; stroke-width:4; stroke-opacity:1; fill:none" points="193.936,1423.18 2352.76,1423.18 "/>
<polyline clip-path="url(#clip060)" style="stroke:#000000; stroke-linecap:round; stroke-linejoin:round; stroke-width:4; stroke-opacity:1; fill:none" points="193.936,1423.18 193.936,1404.28 "/>
<polyline clip-path="url(#clip060)" style="stroke:#000000; stroke-linecap:round; stroke-linejoin:round; stroke-width:4; stroke-opacity:1; fill:none" points="776.12,1423.18 776.12,1404.28 "/>
<polyline clip-path="url(#clip060)" style="stroke:#000000; stroke-linecap:round; stroke-linejoin:round; stroke-width:4; stroke-opacity:1; fill:none" points="1358.3,1423.18 1358.3,1404.28 "/>
<polyline clip-path="url(#clip060)" style="stroke:#000000; stroke-linecap:round; stroke-linejoin:round; stroke-width:4; stroke-opacity:1; fill:none" points="1940.49,1423.18 1940.49,1404.28 "/>
<path clip-path="url(#clip060)" d="M171.32 1454.1 Q167.709 1454.1 165.881 1457.66 Q164.075 1461.2 164.075 1468.33 Q164.075 1475.44 165.881 1479.01 Q167.709 1482.55 171.32 1482.55 Q174.955 1482.55 176.76 1479.01 Q178.589 1475.44 178.589 1468.33 Q178.589 1461.2 176.76 1457.66 Q174.955 1454.1 171.32 1454.1 M171.32 1450.39 Q177.131 1450.39 180.186 1455 Q183.265 1459.58 183.265 1468.33 Q183.265 1477.06 180.186 1481.67 Q177.131 1486.25 171.32 1486.25 Q165.51 1486.25 162.432 1481.67 Q159.376 1477.06 159.376 1468.33 Q159.376 1459.58 162.432 1455 Q165.51 1450.39 171.32 1450.39 Z" fill="#000000" fill-rule="nonzero" fill-opacity="1" /><path clip-path="url(#clip060)" d="M191.482 1479.7 L196.367 1479.7 L196.367 1485.58 L191.482 1485.58 L191.482 1479.7 Z" fill="#000000" fill-rule="nonzero" fill-opacity="1" /><path clip-path="url(#clip060)" d="M216.552 1454.1 Q212.941 1454.1 211.112 1457.66 Q209.306 1461.2 209.306 1468.33 Q209.306 1475.44 211.112 1479.01 Q212.941 1482.55 216.552 1482.55 Q220.186 1482.55 221.991 1479.01 Q223.82 1475.44 223.82 1468.33 Q223.82 1461.2 221.991 1457.66 Q220.186 1454.1 216.552 1454.1 M216.552 1450.39 Q222.362 1450.39 225.417 1455 Q228.496 1459.58 228.496 1468.33 Q228.496 1477.06 225.417 1481.67 Q222.362 1486.25 216.552 1486.25 Q210.741 1486.25 207.663 1481.67 Q204.607 1477.06 204.607 1468.33 Q204.607 1459.58 207.663 1455 Q210.741 1450.39 216.552 1450.39 Z" fill="#000000" fill-rule="nonzero" fill-opacity="1" /><path clip-path="url(#clip060)" d="M754.002 1454.1 Q750.391 1454.1 748.563 1457.66 Q746.757 1461.2 746.757 1468.33 Q746.757 1475.44 748.563 1479.01 Q750.391 1482.55 754.002 1482.55 Q757.637 1482.55 759.442 1479.01 Q761.271 1475.44 761.271 1468.33 Q761.271 1461.2 759.442 1457.66 Q757.637 1454.1 754.002 1454.1 M754.002 1450.39 Q759.813 1450.39 762.868 1455 Q765.947 1459.58 765.947 1468.33 Q765.947 1477.06 762.868 1481.67 Q759.813 1486.25 754.002 1486.25 Q748.192 1486.25 745.114 1481.67 Q742.058 1477.06 742.058 1468.33 Q742.058 1459.58 745.114 1455 Q748.192 1450.39 754.002 1450.39 Z" fill="#000000" fill-rule="nonzero" fill-opacity="1" /><path clip-path="url(#clip060)" d="M774.164 1479.7 L779.049 1479.7 L779.049 1485.58 L774.164 1485.58 L774.164 1479.7 Z" fill="#000000" fill-rule="nonzero" fill-opacity="1" /><path clip-path="url(#clip060)" d="M789.28 1451.02 L807.636 1451.02 L807.636 1454.96 L793.562 1454.96 L793.562 1463.43 Q794.581 1463.08 795.599 1462.92 Q796.618 1462.73 797.636 1462.73 Q803.423 1462.73 806.803 1465.9 Q810.183 1469.08 810.183 1474.49 Q810.183 1480.07 806.71 1483.17 Q803.238 1486.25 796.919 1486.25 Q794.743 1486.25 792.474 1485.88 Q790.229 1485.51 787.822 1484.77 L787.822 1480.07 Q789.905 1481.2 792.127 1481.76 Q794.349 1482.32 796.826 1482.32 Q800.831 1482.32 803.169 1480.21 Q805.507 1478.1 805.507 1474.49 Q805.507 1470.88 803.169 1468.77 Q800.831 1466.67 796.826 1466.67 Q794.951 1466.67 793.076 1467.08 Q791.224 1467.5 789.28 1468.38 L789.28 1451.02 Z" fill="#000000" fill-rule="nonzero" fill-opacity="1" /><path clip-path="url(#clip060)" d="M1325.46 1481.64 L1333.1 1481.64 L1333.1 1455.28 L1324.79 1456.95 L1324.79 1452.69 L1333.05 1451.02 L1337.73 1451.02 L1337.73 1481.64 L1345.36 1481.64 L1345.36 1485.58 L1325.46 1485.58 L1325.46 1481.64 Z" fill="#000000" fill-rule="nonzero" fill-opacity="1" /><path clip-path="url(#clip060)" d="M1354.81 1479.7 L1359.69 1479.7 L1359.69 1485.58 L1354.81 1485.58 L1354.81 1479.7 Z" fill="#000000" fill-rule="nonzero" fill-opacity="1" /><path clip-path="url(#clip060)" d="M1379.88 1454.1 Q1376.27 1454.1 1374.44 1457.66 Q1372.63 1461.2 1372.63 1468.33 Q1372.63 1475.44 1374.44 1479.01 Q1376.27 1482.55 1379.88 1482.55 Q1383.51 1482.55 1385.32 1479.01 Q1387.15 1475.44 1387.15 1468.33 Q1387.15 1461.2 1385.32 1457.66 Q1383.51 1454.1 1379.88 1454.1 M1379.88 1450.39 Q1385.69 1450.39 1388.74 1455 Q1391.82 1459.58 1391.82 1468.33 Q1391.82 1477.06 1388.74 1481.67 Q1385.69 1486.25 1379.88 1486.25 Q1374.07 1486.25 1370.99 1481.67 Q1367.93 1477.06 1367.93 1468.33 Q1367.93 1459.58 1370.99 1455 Q1374.07 1450.39 1379.88 1450.39 Z" fill="#000000" fill-rule="nonzero" fill-opacity="1" /><path clip-path="url(#clip060)" d="M1908.14 1481.64 L1915.78 1481.64 L1915.78 1455.28 L1907.47 1456.95 L1907.47 1452.69 L1915.73 1451.02 L1920.41 1451.02 L1920.41 1481.64 L1928.05 1481.64 L1928.05 1485.58 L1908.14 1485.58 L1908.14 1481.64 Z" fill="#000000" fill-rule="nonzero" fill-opacity="1" /><path clip-path="url(#clip060)" d="M1937.49 1479.7 L1942.38 1479.7 L1942.38 1485.58 L1937.49 1485.58 L1937.49 1479.7 Z" fill="#000000" fill-rule="nonzero" fill-opacity="1" /><path clip-path="url(#clip060)" d="M1952.61 1451.02 L1970.96 1451.02 L1970.96 1454.96 L1956.89 1454.96 L1956.89 1463.43 Q1957.91 1463.08 1958.93 1462.92 Q1959.94 1462.73 1960.96 1462.73 Q1966.75 1462.73 1970.13 1465.9 Q1973.51 1469.08 1973.51 1474.49 Q1973.51 1480.07 1970.04 1483.17 Q1966.57 1486.25 1960.25 1486.25 Q1958.07 1486.25 1955.8 1485.88 Q1953.56 1485.51 1951.15 1484.77 L1951.15 1480.07 Q1953.23 1481.2 1955.45 1481.76 Q1957.68 1482.32 1960.15 1482.32 Q1964.16 1482.32 1966.5 1480.21 Q1968.83 1478.1 1968.83 1474.49 Q1968.83 1470.88 1966.5 1468.77 Q1964.16 1466.67 1960.15 1466.67 Q1958.28 1466.67 1956.4 1467.08 Q1954.55 1467.5 1952.61 1468.38 L1952.61 1451.02 Z" fill="#000000" fill-rule="nonzero" fill-opacity="1" /><path clip-path="url(#clip060)" d="M1272.41 1522.27 L1272.41 1532.4 L1284.47 1532.4 L1284.47 1536.95 L1272.41 1536.95 L1272.41 1556.3 Q1272.41 1560.66 1273.58 1561.9 Q1274.79 1563.14 1278.45 1563.14 L1284.47 1563.14 L1284.47 1568.04 L1278.45 1568.04 Q1271.67 1568.04 1269.1 1565.53 Q1266.52 1562.98 1266.52 1556.3 L1266.52 1536.95 L1262.22 1536.95 L1262.22 1532.4 L1266.52 1532.4 L1266.52 1522.27 L1272.41 1522.27 Z" fill="#000000" fill-rule="nonzero" fill-opacity="1" /><polyline clip-path="url(#clip062)" style="stroke:#000000; stroke-linecap:round; stroke-linejoin:round; stroke-width:2; stroke-opacity:0.1; fill:none" points="193.936,1384.24 2352.76,1384.24 "/>
<polyline clip-path="url(#clip062)" style="stroke:#000000; stroke-linecap:round; stroke-linejoin:round; stroke-width:2; stroke-opacity:0.1; fill:none" points="193.936,1059.73 2352.76,1059.73 "/>
<polyline clip-path="url(#clip062)" style="stroke:#000000; stroke-linecap:round; stroke-linejoin:round; stroke-width:2; stroke-opacity:0.1; fill:none" points="193.936,735.212 2352.76,735.212 "/>
<polyline clip-path="url(#clip062)" style="stroke:#000000; stroke-linecap:round; stroke-linejoin:round; stroke-width:2; stroke-opacity:0.1; fill:none" points="193.936,410.699 2352.76,410.699 "/>
<polyline clip-path="url(#clip062)" style="stroke:#000000; stroke-linecap:round; stroke-linejoin:round; stroke-width:2; stroke-opacity:0.1; fill:none" points="193.936,86.1857 2352.76,86.1857 "/>
<polyline clip-path="url(#clip060)" style="stroke:#000000; stroke-linecap:round; stroke-linejoin:round; stroke-width:4; stroke-opacity:1; fill:none" points="193.936,1423.18 193.936,47.2441 "/>
<polyline clip-path="url(#clip060)" style="stroke:#000000; stroke-linecap:round; stroke-linejoin:round; stroke-width:4; stroke-opacity:1; fill:none" points="193.936,1384.24 212.834,1384.24 "/>
<polyline clip-path="url(#clip060)" style="stroke:#000000; stroke-linecap:round; stroke-linejoin:round; stroke-width:4; stroke-opacity:1; fill:none" points="193.936,1059.73 212.834,1059.73 "/>
<polyline clip-path="url(#clip060)" style="stroke:#000000; stroke-linecap:round; stroke-linejoin:round; stroke-width:4; stroke-opacity:1; fill:none" points="193.936,735.212 212.834,735.212 "/>
<polyline clip-path="url(#clip060)" style="stroke:#000000; stroke-linecap:round; stroke-linejoin:round; stroke-width:4; stroke-opacity:1; fill:none" points="193.936,410.699 212.834,410.699 "/>
<polyline clip-path="url(#clip060)" style="stroke:#000000; stroke-linecap:round; stroke-linejoin:round; stroke-width:4; stroke-opacity:1; fill:none" points="193.936,86.1857 212.834,86.1857 "/>
<path clip-path="url(#clip060)" d="M50.9921 1384.69 L80.6679 1384.69 L80.6679 1388.62 L50.9921 1388.62 L50.9921 1384.69 Z" fill="#000000" fill-rule="nonzero" fill-opacity="1" /><path clip-path="url(#clip060)" d="M91.5706 1397.58 L99.2095 1397.58 L99.2095 1371.22 L90.8993 1372.88 L90.8993 1368.62 L99.1632 1366.96 L103.839 1366.96 L103.839 1397.58 L111.478 1397.58 L111.478 1401.52 L91.5706 1401.52 L91.5706 1397.58 Z" fill="#000000" fill-rule="nonzero" fill-opacity="1" /><path clip-path="url(#clip060)" d="M120.922 1395.64 L125.807 1395.64 L125.807 1401.52 L120.922 1401.52 L120.922 1395.64 Z" fill="#000000" fill-rule="nonzero" fill-opacity="1" /><path clip-path="url(#clip060)" d="M145.992 1370.04 Q142.381 1370.04 140.552 1373.6 Q138.746 1377.14 138.746 1384.27 Q138.746 1391.38 140.552 1394.94 Q142.381 1398.49 145.992 1398.49 Q149.626 1398.49 151.431 1394.94 Q153.26 1391.38 153.26 1384.27 Q153.26 1377.14 151.431 1373.6 Q149.626 1370.04 145.992 1370.04 M145.992 1366.33 Q151.802 1366.33 154.857 1370.94 Q157.936 1375.52 157.936 1384.27 Q157.936 1393 154.857 1397.61 Q151.802 1402.19 145.992 1402.19 Q140.181 1402.19 137.103 1397.61 Q134.047 1393 134.047 1384.27 Q134.047 1375.52 137.103 1370.94 Q140.181 1366.33 145.992 1366.33 Z" fill="#000000" fill-rule="nonzero" fill-opacity="1" /><path clip-path="url(#clip060)" d="M51.9875 1060.18 L81.6633 1060.18 L81.6633 1064.11 L51.9875 1064.11 L51.9875 1060.18 Z" fill="#000000" fill-rule="nonzero" fill-opacity="1" /><path clip-path="url(#clip060)" d="M101.756 1045.52 Q98.1447 1045.52 96.316 1049.09 Q94.5104 1052.63 94.5104 1059.76 Q94.5104 1066.87 96.316 1070.43 Q98.1447 1073.97 101.756 1073.97 Q105.39 1073.97 107.196 1070.43 Q109.024 1066.87 109.024 1059.76 Q109.024 1052.63 107.196 1049.09 Q105.39 1045.52 101.756 1045.52 M101.756 1041.82 Q107.566 1041.82 110.621 1046.43 Q113.7 1051.01 113.7 1059.76 Q113.7 1068.49 110.621 1073.09 Q107.566 1077.68 101.756 1077.68 Q95.9456 1077.68 92.8669 1073.09 Q89.8114 1068.49 89.8114 1059.76 Q89.8114 1051.01 92.8669 1046.43 Q95.9456 1041.82 101.756 1041.82 Z" fill="#000000" fill-rule="nonzero" fill-opacity="1" /><path clip-path="url(#clip060)" d="M121.918 1071.13 L126.802 1071.13 L126.802 1077.01 L121.918 1077.01 L121.918 1071.13 Z" fill="#000000" fill-rule="nonzero" fill-opacity="1" /><path clip-path="url(#clip060)" d="M137.033 1042.45 L155.39 1042.45 L155.39 1046.38 L141.316 1046.38 L141.316 1054.85 Q142.334 1054.51 143.353 1054.34 Q144.371 1054.16 145.39 1054.16 Q151.177 1054.16 154.556 1057.33 Q157.936 1060.5 157.936 1065.92 Q157.936 1071.5 154.464 1074.6 Q150.992 1077.68 144.672 1077.68 Q142.496 1077.68 140.228 1077.31 Q137.982 1076.94 135.575 1076.19 L135.575 1071.5 Q137.658 1072.63 139.881 1073.19 Q142.103 1073.74 144.58 1073.74 Q148.584 1073.74 150.922 1071.63 Q153.26 1069.53 153.26 1065.92 Q153.26 1062.31 150.922 1060.2 Q148.584 1058.09 144.58 1058.09 Q142.705 1058.09 140.83 1058.51 Q138.978 1058.93 137.033 1059.81 L137.033 1042.45 Z" fill="#000000" fill-rule="nonzero" fill-opacity="1" /><path clip-path="url(#clip060)" d="M100.76 721.011 Q97.1493 721.011 95.3206 724.575 Q93.515 728.117 93.515 735.247 Q93.515 742.353 95.3206 745.918 Q97.1493 749.46 100.76 749.46 Q104.395 749.46 106.2 745.918 Q108.029 742.353 108.029 735.247 Q108.029 728.117 106.2 724.575 Q104.395 721.011 100.76 721.011 M100.76 717.307 Q106.571 717.307 109.626 721.913 Q112.705 726.497 112.705 735.247 Q112.705 743.973 109.626 748.58 Q106.571 753.163 100.76 753.163 Q94.9502 753.163 91.8715 748.58 Q88.816 743.973 88.816 735.247 Q88.816 726.497 91.8715 721.913 Q94.9502 717.307 100.76 717.307 Z" fill="#000000" fill-rule="nonzero" fill-opacity="1" /><path clip-path="url(#clip060)" d="M120.922 746.612 L125.807 746.612 L125.807 752.492 L120.922 752.492 L120.922 746.612 Z" fill="#000000" fill-rule="nonzero" fill-opacity="1" /><path clip-path="url(#clip060)" d="M145.992 721.011 Q142.381 721.011 140.552 724.575 Q138.746 728.117 138.746 735.247 Q138.746 742.353 140.552 745.918 Q142.381 749.46 145.992 749.46 Q149.626 749.46 151.431 745.918 Q153.26 742.353 153.26 735.247 Q153.26 728.117 151.431 724.575 Q149.626 721.011 145.992 721.011 M145.992 717.307 Q151.802 717.307 154.857 721.913 Q157.936 726.497 157.936 735.247 Q157.936 743.973 154.857 748.58 Q151.802 753.163 145.992 753.163 Q140.181 753.163 137.103 748.58 Q134.047 743.973 134.047 735.247 Q134.047 726.497 137.103 721.913 Q140.181 717.307 145.992 717.307 Z" fill="#000000" fill-rule="nonzero" fill-opacity="1" /><path clip-path="url(#clip060)" d="M101.756 396.498 Q98.1447 396.498 96.316 400.062 Q94.5104 403.604 94.5104 410.734 Q94.5104 417.84 96.316 421.405 Q98.1447 424.946 101.756 424.946 Q105.39 424.946 107.196 421.405 Q109.024 417.84 109.024 410.734 Q109.024 403.604 107.196 400.062 Q105.39 396.498 101.756 396.498 M101.756 392.794 Q107.566 392.794 110.621 397.4 Q113.7 401.984 113.7 410.734 Q113.7 419.46 110.621 424.067 Q107.566 428.65 101.756 428.65 Q95.9456 428.65 92.8669 424.067 Q89.8114 419.46 89.8114 410.734 Q89.8114 401.984 92.8669 397.4 Q95.9456 392.794 101.756 392.794 Z" fill="#000000" fill-rule="nonzero" fill-opacity="1" /><path clip-path="url(#clip060)" d="M121.918 422.099 L126.802 422.099 L126.802 427.979 L121.918 427.979 L121.918 422.099 Z" fill="#000000" fill-rule="nonzero" fill-opacity="1" /><path clip-path="url(#clip060)" d="M137.033 393.419 L155.39 393.419 L155.39 397.354 L141.316 397.354 L141.316 405.826 Q142.334 405.479 143.353 405.317 Q144.371 405.132 145.39 405.132 Q151.177 405.132 154.556 408.303 Q157.936 411.474 157.936 416.891 Q157.936 422.47 154.464 425.571 Q150.992 428.65 144.672 428.65 Q142.496 428.65 140.228 428.28 Q137.982 427.909 135.575 427.169 L135.575 422.47 Q137.658 423.604 139.881 424.159 Q142.103 424.715 144.58 424.715 Q148.584 424.715 150.922 422.608 Q153.26 420.502 153.26 416.891 Q153.26 413.28 150.922 411.173 Q148.584 409.067 144.58 409.067 Q142.705 409.067 140.83 409.484 Q138.978 409.9 137.033 410.78 L137.033 393.419 Z" fill="#000000" fill-rule="nonzero" fill-opacity="1" /><path clip-path="url(#clip060)" d="M91.5706 99.5305 L99.2095 99.5305 L99.2095 73.1649 L90.8993 74.8316 L90.8993 70.5723 L99.1632 68.9057 L103.839 68.9057 L103.839 99.5305 L111.478 99.5305 L111.478 103.466 L91.5706 103.466 L91.5706 99.5305 Z" fill="#000000" fill-rule="nonzero" fill-opacity="1" /><path clip-path="url(#clip060)" d="M120.922 97.5861 L125.807 97.5861 L125.807 103.466 L120.922 103.466 L120.922 97.5861 Z" fill="#000000" fill-rule="nonzero" fill-opacity="1" /><path clip-path="url(#clip060)" d="M145.992 71.9844 Q142.381 71.9844 140.552 75.5492 Q138.746 79.0908 138.746 86.2204 Q138.746 93.3268 140.552 96.8916 Q142.381 100.433 145.992 100.433 Q149.626 100.433 151.431 96.8916 Q153.26 93.3268 153.26 86.2204 Q153.26 79.0908 151.431 75.5492 Q149.626 71.9844 145.992 71.9844 M145.992 68.2807 Q151.802 68.2807 154.857 72.8871 Q157.936 77.4704 157.936 86.2204 Q157.936 94.9472 154.857 99.5537 Q151.802 104.137 145.992 104.137 Q140.181 104.137 137.103 99.5537 Q134.047 94.9472 134.047 86.2204 Q134.047 77.4704 137.103 72.8871 Q140.181 68.2807 145.992 68.2807 Z" fill="#000000" fill-rule="nonzero" fill-opacity="1" /><polyline clip-path="url(#clip062)" style="stroke:#009af9; stroke-linecap:round; stroke-linejoin:round; stroke-width:4; stroke-opacity:1; fill:none" points="193.936,86.1857 195.067,86.1857 196.198,86.1857 197.329,86.1857 198.459,86.1857 199.59,86.1857 200.721,86.1857 201.852,86.1857 202.983,86.1857 204.114,86.1857 205.245,86.1857 206.376,86.1857 207.506,86.1857 208.637,86.1857 209.768,86.1857 210.899,86.1857 212.03,86.1857 213.161,86.1857 214.292,86.1857 215.422,86.1857 216.553,86.1857 217.684,86.1857 218.815,86.1857 219.946,86.1857 221.077,86.1857 222.208,86.1857 223.338,86.1857 224.469,86.1857 225.6,86.1857 226.731,86.1857 227.862,86.1857 228.993,86.1857 230.124,86.1857 231.255,86.1858 232.385,86.1858 233.516,86.1858 234.647,86.1858 235.778,86.1858 236.909,86.1858 238.04,86.1858 239.171,86.1859 240.301,86.1859 241.432,86.1859 242.563,86.1859 243.694,86.1859 244.825,86.186 245.956,86.186 247.087,86.186 248.217,86.1861 249.348,86.1861 250.479,86.1861 251.61,86.1862 252.741,86.1862 253.872,86.1862 255.003,86.1863 256.134,86.1863 257.264,86.1864 258.395,86.1864 259.526,86.1865 260.657,86.1865 261.788,86.1866 262.919,86.1867 264.05,86.1867 265.18,86.1868 266.311,86.1869 267.442,86.187 268.573,86.187 269.704,86.1871 270.835,86.1872 271.966,86.1873 273.096,86.1874 274.227,86.1875 275.358,86.1876 276.489,86.1877 277.62,86.1878 278.751,86.188 279.882,86.1881 281.013,86.1882 282.143,86.1883 283.274,86.1885 284.405,86.1886 285.536,86.1888 286.667,86.1889 287.798,86.1891 288.929,86.1893 290.059,86.1894 291.19,86.1896 292.321,86.1898 293.452,86.19 294.583,86.1902 295.714,86.1904 296.845,86.1906 297.976,86.1908 299.106,86.1911 300.237,86.1913 301.368,86.1915 302.499,86.1918 303.63,86.1921 304.761,86.1923 305.892,86.1926 307.022,86.1929 308.153,86.1932 309.284,86.1935 310.415,86.1938 311.546,86.1941 312.677,86.1944 313.808,86.1948 314.938,86.1951 316.069,86.1955 317.2,86.1959 318.331,86.1962 319.462,86.1966 320.593,86.197 321.724,86.1974 322.855,86.1979 323.985,86.1983 325.116,86.1987 326.247,86.1992 327.378,86.1997 328.509,86.2002 329.64,86.2006 330.771,86.2011 331.901,86.2017 333.032,86.2022 334.163,86.2027 335.294,86.2033 336.425,86.2039 337.556,86.2045 338.687,86.2051 339.817,86.2057 340.948,86.2063 342.079,86.2069 343.21,86.2076 344.341,86.2083 345.472,86.209 346.603,86.2097 347.734,86.2104 348.864,86.2111 349.995,86.2119 351.126,86.2126 352.257,86.2134 353.388,86.2142 354.519,86.215 355.65,86.2159 356.78,86.2167 357.911,86.2176 359.042,86.2185 360.173,86.2194 361.304,86.2203 362.435,86.2212 363.566,86.2222 364.697,86.2232 365.827,86.2242 366.958,86.2252 368.089,86.2263 369.22,86.2273 370.351,86.2284 371.482,86.2295 372.613,86.2307 373.743,86.2318 374.874,86.233 376.005,86.2342 377.136,86.2354 378.267,86.2366 379.398,86.2379 380.529,86.2392 381.659,86.2405 382.79,86.2418 383.921,86.2432 385.052,86.2446 386.183,86.246 387.314,86.2474 388.445,86.2488 389.576,86.2503 390.706,86.2518 391.837,86.2534 392.968,86.2549 394.099,86.2565 395.23,86.2581 396.361,86.2598 397.492,86.2614 398.622,86.2631 399.753,86.2649 400.884,86.2666 402.015,86.2684 403.146,86.2702 404.277,86.2721 405.408,86.2739 406.538,86.2758 407.669,86.2778 408.8,86.2797 409.931,86.2817 411.062,86.2838 412.193,86.2858 413.324,86.2879 414.455,86.29 415.585,86.2922 416.716,86.2944 417.847,86.2966 418.978,86.2989 420.109,86.3012 421.24,86.3035 422.371,86.3059 423.501,86.3083 424.632,86.3107 425.763,86.3132 426.894,86.3157 428.025,86.3182 429.156,86.3208 430.287,86.3234 431.417,86.3261 432.548,86.3288 433.679,86.3315 434.81,86.3343 435.941,86.3371 437.072,86.3399 438.203,86.3428 439.334,86.3457 440.464,86.3487 441.595,86.3517 442.726,86.3548 443.857,86.3579 444.988,86.361 446.119,86.3642 447.25,86.3674 448.38,86.3707 449.511,86.374 450.642,86.3773 451.773,86.3807 452.904,86.3842 454.035,86.3876 455.166,86.3912 456.297,86.3948 457.427,86.3984 458.558,86.4021 459.689,86.4058 460.82,86.4096 461.951,86.4134 463.082,86.4172 464.213,86.4212 465.343,86.4251 466.474,86.4292 467.605,86.4332 468.736,86.4373 469.867,86.4415 470.998,86.4457 472.129,86.45 473.259,86.4543 474.39,86.4587 475.521,86.4631 476.652,86.4676 477.783,86.4721 478.914,86.4767 480.045,86.4814 481.176,86.4861 482.306,86.4908 483.437,86.4957 484.568,86.5005 485.699,86.5055 486.83,86.5104 487.961,86.5155 489.092,86.5206 490.222,86.5258 491.353,86.531 492.484,86.5363 493.615,86.5416 494.746,86.547 495.877,86.5525 497.008,86.558 498.138,86.5636 499.269,86.5692 500.4,86.5749 501.531,86.5807 502.662,86.5866 503.793,86.5925 504.924,86.5984 506.055,86.6045 507.185,86.6106 508.316,86.6168 509.447,86.623 510.578,86.6293 511.709,86.6357 512.84,86.6421 513.971,86.6486 515.101,86.6552 516.232,86.6618 517.363,86.6685 518.494,86.6753 519.625,86.6822 520.756,86.6891 521.887,86.6961 523.018,86.7032 524.148,86.7103 525.279,86.7176 526.41,86.7249 527.541,86.7322 528.672,86.7397 529.803,86.7472 530.934,86.7548 532.064,86.7625 533.195,86.7702 534.326,86.7781 535.457,86.786 536.588,86.794 537.719,86.802 538.85,86.8102 539.98,86.8184 541.111,86.8267 542.242,86.8351 543.373,86.8436 544.504,86.8521 545.635,86.8608 546.766,86.8695 547.897,86.8783 549.027,86.8872 550.158,86.8961 551.289,86.9052 552.42,86.9144 553.551,86.9236 554.682,86.9329 555.813,86.9423 556.943,86.9518 558.074,86.9614 559.205,86.9711 560.336,86.9809 561.467,86.9907 562.598,87.0007 563.729,87.0107 564.859,87.0208 565.99,87.0311 567.121,87.0414 568.252,87.0518 569.383,87.0623 570.514,87.0729 571.645,87.0836 572.776,87.0944 573.906,87.1053 575.037,87.1163 576.168,87.1274 577.299,87.1386 578.43,87.1499 579.561,87.1613 580.692,87.1728 581.822,87.1844 582.953,87.196 584.084,87.2078 585.215,87.2197 586.346,87.2317 587.477,87.2438 588.608,87.256 589.738,87.2684 590.869,87.2808 592,87.2933 593.131,87.3059 594.262,87.3187 595.393,87.3315 596.524,87.3445 597.655,87.3576 598.785,87.3707 599.916,87.384 601.047,87.3974 602.178,87.4109 603.309,87.4246 604.44,87.4383 605.571,87.4522 606.701,87.4661 607.832,87.4802 608.963,87.4944 610.094,87.5087 611.225,87.5231 612.356,87.5377 613.487,87.5524 614.618,87.5671 615.748,87.5821 616.879,87.5971 618.01,87.6122 619.141,87.6275 620.272,87.6429 621.403,87.6584 622.534,87.674 623.664,87.6898 624.795,87.7057 625.926,87.7217 627.057,87.7378 628.188,87.7541 629.319,87.7705 630.45,87.787 631.58,87.8036 632.711,87.8204 633.842,87.8373 634.973,87.8544 636.104,87.8715 637.235,87.8888 638.366,87.9063 639.497,87.9238 640.627,87.9415 641.758,87.9594 642.889,87.9773 644.02,87.9954 645.151,88.0137 646.282,88.0321 647.413,88.0506 648.543,88.0692 649.674,88.088 650.805,88.107 651.936,88.1261 653.067,88.1453 654.198,88.1646 655.329,88.1841 656.459,88.2038 657.59,88.2236 658.721,88.2435 659.852,88.2636 660.983,88.2838 662.114,88.3042 663.245,88.3247 664.376,88.3454 665.506,88.3662 666.637,88.3872 667.768,88.4083 668.899,88.4296 670.03,88.451 671.161,88.4726 672.292,88.4943 673.422,88.5162 674.553,88.5382 675.684,88.5604 676.815,88.5828 677.946,88.6053 679.077,88.628 680.208,88.6508 681.339,88.6738 682.469,88.6969 683.6,88.7202 684.731,88.7437 685.862,88.7673 686.993,88.7911 688.124,88.8151 689.255,88.8392 690.385,88.8635 691.516,88.8879 692.647,88.9125 693.778,88.9373 694.909,88.9623 696.04,88.9874 697.171,89.0127 698.301,89.0381 699.432,89.0638 700.563,89.0896 701.694,89.1156 702.825,89.1417 703.956,89.168 705.087,89.1945 706.218,89.2212 707.348,89.2481 708.479,89.2751 709.61,89.3023 710.741,89.3297 711.872,89.3573 713.003,89.385 714.134,89.4129 715.264,89.441 716.395,89.4693 717.526,89.4978 718.657,89.5264 719.788,89.5553 720.919,89.5843 722.05,89.6135 723.18,89.6429 724.311,89.6725 725.442,89.7023 726.573,89.7323 727.704,89.7624 728.835,89.7928 729.966,89.8233 731.097,89.8541 732.227,89.885 733.358,89.9161 734.489,89.9475 735.62,89.979 736.751,90.0107 737.882,90.0426 739.013,90.0747 740.143,90.107 741.274,90.1395 742.405,90.1723 743.536,90.2052 744.667,90.2383 745.798,90.2716 746.929,90.3052 748.059,90.3389 749.19,90.3728 750.321,90.407 751.452,90.4414 752.583,90.4759 753.714,90.5107 754.845,90.5457 755.976,90.5809 757.106,90.6163 758.237,90.6519 759.368,90.6878 760.499,90.7238 761.63,90.7601 762.761,90.7966 763.892,90.8333 765.022,90.8702 766.153,90.9074 767.284,90.9447 768.415,90.9823 769.546,91.0201 770.677,91.0581 771.808,91.0964 772.939,91.1349 774.069,91.1736 775.2,91.2125 776.331,91.2516 777.462,91.291 778.593,91.3306 779.724,91.3705 780.855,91.4105 781.985,91.4508 783.116,91.4914 784.247,91.5321 785.378,91.5731 786.509,91.6144 787.64,91.6558 788.771,91.6975 789.901,91.7395 791.032,91.7816 792.163,91.824 793.294,91.8667 794.425,91.9096 795.556,91.9527 796.687,91.9961 797.818,92.0397 798.948,92.0836 800.079,92.1277 801.21,92.172 802.341,92.2166 803.472,92.2615 804.603,92.3066 805.734,92.3519 806.864,92.3975 807.995,92.4434 809.126,92.4895 810.257,92.5358 811.388,92.5824 812.519,92.6293 813.65,92.6764 814.78,92.7237 815.911,92.7713 817.042,92.8192 818.173,92.8673 819.304,92.9157 820.435,92.9644 821.566,93.0133 822.697,93.0625 823.827,93.1119 824.958,93.1616 826.089,93.2116 827.22,93.2618 828.351,93.3123 829.482,93.3631 830.613,93.4141 831.743,93.4654 832.874,93.5169 834.005,93.5688 835.136,93.6209 836.267,93.6733 837.398,93.726 838.529,93.7789 839.66,93.8322 840.79,93.8857 841.921,93.9395 843.052,93.9936 844.183,94.0479 845.314,94.1026 846.445,94.1575 847.576,94.2127 848.706,94.2681 849.837,94.3239 850.968,94.3799 852.099,94.4363 853.23,94.4929 854.361,94.5498 855.492,94.607 856.622,94.6644 857.753,94.7222 858.884,94.7803 860.015,94.8386 861.146,94.8973 862.277,94.9562 863.408,95.0155 864.539,95.075 865.669,95.1348 866.8,95.195 867.931,95.2554 869.062,95.3161 870.193,95.3772 871.324,95.4385 872.455,95.5002 873.585,95.5621 874.716,95.6244 875.847,95.687 876.978,95.7499 878.109,95.8131 879.24,95.8766 880.371,95.9404 881.501,96.0045 882.632,96.069 883.763,96.1337 884.894,96.1988 886.025,96.2642 887.156,96.3299 888.287,96.396 889.418,96.4623 890.548,96.529 891.679,96.596 892.81,96.6633 893.941,96.731 895.072,96.7989 896.203,96.8673 897.334,96.9359 898.464,97.0049 899.595,97.0741 900.726,97.1438 901.857,97.2137 902.988,97.284 904.119,97.3546 905.25,97.4256 906.38,97.4969 907.511,97.5685 908.642,97.6405 909.773,97.7128 910.904,97.7855 912.035,97.8585 913.166,97.9318 914.297,98.0055 915.427,98.0795 916.558,98.1539 917.689,98.2286 918.82,98.3036 919.951,98.3791 921.082,98.4548 922.213,98.5309 923.343,98.6074 924.474,98.6842 925.605,98.7614 926.736,98.8389 927.867,98.9168 928.998,98.995 930.129,99.0736 931.26,99.1525 932.39,99.2318 933.521,99.3115 934.652,99.3915 935.783,99.4719 936.914,99.5526 938.045,99.6338 939.176,99.7152 940.306,99.7971 941.437,99.8793 942.568,99.9618 943.699,100.045 944.83,100.128 945.961,100.212 947.092,100.296 948.222,100.38 949.353,100.465 950.484,100.55 951.615,100.636 952.746,100.722 953.877,100.808 955.008,100.895 956.139,100.982 957.269,101.069 958.4,101.157 959.531,101.245 960.662,101.334 961.793,101.423 962.924,101.512 964.055,101.602 965.185,101.692 966.316,101.782 967.447,101.873 968.578,101.964 969.709,102.056 970.84,102.148 971.971,102.241 973.101,102.333 974.232,102.427 975.363,102.52 976.494,102.614 977.625,102.709 978.756,102.803 979.887,102.899 981.018,102.994 982.148,103.09 983.279,103.186 984.41,103.283 985.541,103.38 986.672,103.478 987.803,103.576 988.934,103.674 990.064,103.773 991.195,103.872 992.326,103.972 993.457,104.072 994.588,104.173 995.719,104.274 996.85,104.375 997.98,104.477 999.111,104.579 1000.24,104.682 1001.37,104.785 1002.5,104.889 1003.63,104.993 1004.77,105.097 1005.9,105.202 1007.03,105.307 1008.16,105.412 1009.29,105.518 1010.42,105.625 1011.55,105.732 1012.68,105.839 1013.81,105.947 1014.94,106.055 1016.07,106.164 1017.21,106.273 1018.34,106.382 1019.47,106.492 1020.6,106.602 1021.73,106.713 1022.86,106.824 1023.99,106.936 1025.12,107.048 1026.25,107.161 1027.38,107.274 1028.51,107.387 1029.64,107.501 1030.78,107.615 1031.91,107.73 1033.04,107.845 1034.17,107.961 1035.3,108.077 1036.43,108.194 1037.56,108.311 1038.69,108.429 1039.82,108.547 1040.95,108.665 1042.08,108.784 1043.22,108.904 1044.35,109.024 1045.48,109.144 1046.61,109.265 1047.74,109.386 1048.87,109.508 1050,109.63 1051.13,109.753 1052.26,109.876 1053.39,110 1054.52,110.124 1055.65,110.249 1056.79,110.374 1057.92,110.5 1059.05,110.626 1060.18,110.752 1061.31,110.879 1062.44,111.007 1063.57,111.135 1064.7,111.264 1065.83,111.393 1066.96,111.522 1068.09,111.652 1069.22,111.783 1070.36,111.914 1071.49,112.045 1072.62,112.177 1073.75,112.31 1074.88,112.443 1076.01,112.577 1077.14,112.711 1078.27,112.845 1079.4,112.98 1080.53,113.116 1081.66,113.252 1082.8,113.388 1083.93,113.525 1085.06,113.663 1086.19,113.801 1087.32,113.94 1088.45,114.079 1089.58,114.219 1090.71,114.359 1091.84,114.499 1092.97,114.641 1094.1,114.782 1095.23,114.924 1096.37,115.067 1097.5,115.21 1098.63,115.354 1099.76,115.499 1100.89,115.643 1102.02,115.789 1103.15,115.935 1104.28,116.081 1105.41,116.228 1106.54,116.375 1107.67,116.523 1108.81,116.672 1109.94,116.821 1111.07,116.97 1112.2,117.121 1113.33,117.271 1114.46,117.422 1115.59,117.574 1116.72,117.726 1117.85,117.879 1118.98,118.032 1120.11,118.186 1121.24,118.34 1122.38,118.495 1123.51,118.651 1124.64,118.807 1125.77,118.963 1126.9,119.12 1128.03,119.278 1129.16,119.436 1130.29,119.595 1131.42,119.754 1132.55,119.914 1133.68,120.074 1134.82,120.235 1135.95,120.396 1137.08,120.558 1138.21,120.721 1139.34,120.884 1140.47,121.047 1141.6,121.211 1142.73,121.376 1143.86,121.541 1144.99,121.707 1146.12,121.873 1147.25,122.04 1148.39,122.207 1149.52,122.375 1150.65,122.544 1151.78,122.713 1152.91,122.882 1154.04,123.053 1155.17,123.223 1156.3,123.394 1157.43,123.566 1158.56,123.739 1159.69,123.911 1160.82,124.085 1161.96,124.259 1163.09,124.434 1164.22,124.61 1165.35,124.786 1166.48,124.963 1167.61,125.141 1168.74,125.319 1169.87,125.497 1171,125.677 1172.13,125.856 1173.26,126.037 1174.4,126.218 1175.53,126.399 1176.66,126.581 1177.79,126.764 1178.92,126.947 1180.05,127.131 1181.18,127.315 1182.31,127.5 1183.44,127.686 1184.57,127.872 1185.7,128.058 1186.83,128.246 1187.97,128.434 1189.1,128.622 1190.23,128.811 1191.36,129.001 1192.49,129.191 1193.62,129.382 1194.75,129.574 1195.88,129.766 1197.01,129.959 1198.14,130.152 1199.27,130.346 1200.41,130.541 1201.54,130.736 1202.67,130.932 1203.8,131.128 1204.93,131.326 1206.06,131.523 1207.19,131.722 1208.32,131.921 1209.45,132.121 1210.58,132.321 1211.71,132.522 1212.84,132.723 1213.98,132.926 1215.11,133.129 1216.24,133.332 1217.37,133.536 1218.5,133.741 1219.63,133.947 1220.76,134.153 1221.89,134.36 1223.02,134.567 1224.15,134.775 1225.28,134.984 1226.42,135.194 1227.55,135.404 1228.68,135.614 1229.81,135.826 1230.94,136.038 1232.07,136.251 1233.2,136.464 1234.33,136.678 1235.46,136.893 1236.59,137.109 1237.72,137.325 1238.85,137.541 1239.99,137.759 1241.12,137.977 1242.25,138.196 1243.38,138.415 1244.51,138.636 1245.64,138.857 1246.77,139.078 1247.9,139.3 1249.03,139.523 1250.16,139.747 1251.29,139.971 1252.42,140.196 1253.56,140.422 1254.69,140.648 1255.82,140.875 1256.95,141.103 1258.08,141.331 1259.21,141.561 1260.34,141.79 1261.47,142.021 1262.6,142.252 1263.73,142.484 1264.86,142.717 1266,142.95 1267.13,143.184 1268.26,143.419 1269.39,143.654 1270.52,143.89 1271.65,144.127 1272.78,144.364 1273.91,144.602 1275.04,144.841 1276.17,145.081 1277.3,145.321 1278.43,145.562 1279.57,145.804 1280.7,146.046 1281.83,146.289 1282.96,146.533 1284.09,146.777 1285.22,147.022 1286.35,147.268 1287.48,147.515 1288.61,147.762 1289.74,148.01 1290.87,148.258 1292.01,148.508 1293.14,148.758 1294.27,149.008 1295.4,149.26 1296.53,149.512 1297.66,149.765 1298.79,150.018 1299.92,150.272 1301.05,150.527 1302.18,150.783 1303.31,151.039 1304.44,151.296 1305.58,151.554 1306.71,151.812 1307.84,152.071 1308.97,152.331 1310.1,152.592 1311.23,152.853 1312.36,153.114 1313.49,153.377 1314.62,153.64 1315.75,153.904 1316.88,154.169 1318.02,154.434 1319.15,154.7 1320.28,154.966 1321.41,155.234 1322.54,155.502 1323.67,155.77 1324.8,156.04 1325.93,156.31 1327.06,156.581 1328.19,156.852 1329.32,157.124 1330.45,157.397 1331.59,157.67 1332.72,157.944 1333.85,158.219 1334.98,158.495 1336.11,158.771 1337.24,159.048 1338.37,159.325 1339.5,159.604 1340.63,159.885 1341.76,160.167 1342.89,160.449 1344.02,160.732 1345.16,161.016 1346.29,161.3 1347.42,161.585 1348.55,161.871 1349.68,162.157 1350.81,162.444 1351.94,162.732 1353.07,163.021 1354.2,163.31 1355.33,163.6 1356.46,163.89 1357.6,164.182 1358.73,164.474 1359.86,164.766 1360.99,165.06 1362.12,165.354 1363.25,165.649 1364.38,165.945 1365.51,166.241 1366.64,166.538 1367.77,166.836 1368.9,167.135 1370.03,167.435 1371.17,167.735 1372.3,168.036 1373.43,168.338 1374.56,168.64 1375.69,168.944 1376.82,169.248 1377.95,169.553 1379.08,169.858 1380.21,170.165 1381.34,170.472 1382.47,170.78 1383.61,171.089 1384.74,171.399 1385.87,171.71 1387,172.021 1388.13,172.333 1389.26,172.646 1390.39,172.96 1391.52,173.274 1392.65,173.59 1393.78,173.906 1394.91,174.223 1396.04,174.541 1397.18,174.86 1398.31,175.18 1399.44,175.5 1400.57,175.821 1401.7,176.143 1402.83,176.466 1403.96,176.79 1405.09,177.115 1406.22,177.44 1407.35,177.767 1408.48,178.094 1409.62,178.422 1410.75,178.751 1411.88,179.08 1413.01,179.411 1414.14,179.743 1415.27,180.075 1416.4,180.408 1417.53,180.742 1418.66,181.077 1419.79,181.413 1420.92,181.749 1422.05,182.087 1423.19,182.425 1424.32,182.764 1425.45,183.104 1426.58,183.445 1427.71,183.787 1428.84,184.13 1429.97,184.473 1431.1,184.817 1432.23,185.163 1433.36,185.509 1434.49,185.856 1435.62,186.203 1436.76,186.552 1437.89,186.902 1439.02,187.252 1440.15,187.603 1441.28,187.955 1442.41,188.308 1443.54,188.662 1444.67,189.017 1445.8,189.372 1446.93,189.729 1448.06,190.086 1449.2,190.444 1450.33,190.803 1451.46,191.163 1452.59,191.523 1453.72,191.885 1454.85,192.247 1455.98,192.61 1457.11,192.974 1458.24,193.339 1459.37,193.705 1460.5,194.071 1461.63,194.439 1462.77,194.807 1463.9,195.176 1465.03,195.546 1466.16,195.917 1467.29,196.288 1468.42,196.66 1469.55,197.034 1470.68,197.408 1471.81,197.782 1472.94,198.158 1474.07,198.534 1475.21,198.912 1476.34,199.29 1477.47,199.668 1478.6,200.048 1479.73,200.428 1480.86,200.81 1481.99,201.192 1483.12,201.574 1484.25,201.958 1485.38,202.342 1486.51,202.727 1487.64,203.113 1488.78,203.5 1489.91,203.887 1491.04,204.276 1492.17,204.665 1493.3,205.054 1494.43,205.445 1495.56,205.836 1496.69,206.228 1497.82,206.62 1498.95,207.014 1500.08,207.408 1501.22,207.803 1502.35,208.198 1503.48,208.595 1504.61,208.992 1505.74,209.389 1506.87,209.788 1508,210.187 1509.13,210.587 1510.26,210.987 1511.39,211.388 1512.52,211.79 1513.65,212.193 1514.79,212.596 1515.92,213.003 1517.05,213.414 1518.18,213.824 1519.31,214.236 1520.44,214.648 1521.57,215.061 1522.7,215.474 1523.83,215.888 1524.96,216.303 1526.09,216.719 1527.22,217.135 1528.36,217.552 1529.49,217.969 1530.62,218.388 1531.75,218.807 1532.88,219.226 1534.01,219.647 1535.14,220.068 1536.27,220.491 1537.4,220.913 1538.53,221.337 1539.66,221.762 1540.8,222.187 1541.93,222.613 1543.06,223.04 1544.19,223.468 1545.32,223.897 1546.45,224.326 1547.58,224.756 1548.71,225.188 1549.84,225.62 1550.97,226.053 1552.1,226.487 1553.23,226.921 1554.37,227.357 1555.5,227.794 1556.63,228.231 1557.76,228.67 1558.89,229.109 1560.02,229.549 1561.15,229.991 1562.28,230.433 1563.41,230.876 1564.54,231.32 1565.67,231.765 1566.81,232.211 1567.94,232.658 1569.07,233.106 1570.2,233.555 1571.33,234.005 1572.46,234.455 1573.59,234.907 1574.72,235.36 1575.85,235.814 1576.98,236.269 1578.11,236.724 1579.24,237.181 1580.38,237.639 1581.51,238.098 1582.64,238.558 1583.77,239.019 1584.9,239.48 1586.03,239.943 1587.16,240.407 1588.29,240.872 1589.42,241.338 1590.55,241.805 1591.68,242.273 1592.82,242.742 1593.95,243.212 1595.08,243.683 1596.21,244.154 1597.34,244.627 1598.47,245.102 1599.6,245.577 1600.73,246.053 1601.86,246.53 1602.99,247.008 1604.12,247.487 1605.25,247.967 1606.39,248.448 1607.52,248.93 1608.65,249.413 1609.78,249.897 1610.91,250.382 1612.04,250.869 1613.17,251.356 1614.3,251.844 1615.43,252.333 1616.56,252.823 1617.69,253.314 1618.82,253.806 1619.96,254.299 1621.09,254.793 1622.22,255.288 1623.35,255.784 1624.48,256.281 1625.61,256.779 1626.74,257.277 1627.87,257.777 1629,258.278 1630.13,258.779 1631.26,259.282 1632.4,259.785 1633.53,260.29 1634.66,260.795 1635.79,261.301 1636.92,261.808 1638.05,262.316 1639.18,262.825 1640.31,263.335 1641.44,263.845 1642.57,264.357 1643.7,264.869 1644.83,265.382 1645.97,265.896 1647.1,266.411 1648.23,266.927 1649.36,267.443 1650.49,267.961 1651.62,268.479 1652.75,268.998 1653.88,269.517 1655.01,270.038 1656.14,270.559 1657.27,271.081 1658.41,271.603 1659.54,272.127 1660.67,272.651 1661.8,273.176 1662.93,273.701 1664.06,274.228 1665.19,274.755 1666.32,275.282 1667.45,275.81 1668.58,276.339 1669.71,276.869 1670.84,277.399 1671.98,277.93 1673.11,278.461 1674.24,278.993 1675.37,279.526 1676.5,280.059 1677.63,280.593 1678.76,281.127 1679.89,281.662 1681.02,282.197 1682.15,282.733 1683.28,283.269 1684.42,283.805 1685.55,284.343 1686.68,284.88 1687.81,285.418 1688.94,285.957 1690.07,286.496 1691.2,287.035 1692.33,287.583 1693.46,288.136 1694.59,288.69 1695.72,289.244 1696.85,289.799 1697.99,290.354 1699.12,290.91 1700.25,291.466 1701.38,292.022 1702.51,292.579 1703.64,293.137 1704.77,293.695 1705.9,294.254 1707.03,294.813 1708.16,295.373 1709.29,295.934 1710.42,296.495 1711.56,297.057 1712.69,297.62 1713.82,298.184 1714.95,298.748 1716.08,299.314 1717.21,299.88 1718.34,300.446 1719.47,301.014 1720.6,301.582 1721.73,302.152 1722.86,302.722 1724,303.293 1725.13,303.865 1726.26,304.438 1727.39,305.012 1728.52,305.587 1729.65,306.163 1730.78,306.74 1731.91,307.317 1733.04,307.896 1734.17,308.476 1735.3,309.057 1736.43,309.639 1737.57,310.222 1738.7,310.805 1739.83,311.39 1740.96,311.976 1742.09,312.564 1743.22,313.152 1744.35,313.741 1745.48,314.331 1746.61,314.923 1747.74,315.515 1748.87,316.109 1750.01,316.704 1751.14,317.3 1752.27,317.897 1753.4,318.495 1754.53,319.094 1755.66,319.694 1756.79,320.296 1757.92,320.898 1759.05,321.502 1760.18,322.107 1761.31,322.712 1762.44,323.319 1763.58,323.928 1764.71,324.537 1765.84,325.147 1766.97,325.759 1768.1,326.371 1769.23,326.985 1770.36,327.599 1771.49,328.215 1772.62,328.832 1773.75,329.45 1774.88,330.069 1776.02,330.689 1777.15,331.31 1778.28,331.933 1779.41,332.556 1780.54,333.18 1781.67,333.805 1782.8,334.432 1783.93,335.059 1785.06,335.687 1786.19,336.316 1787.32,336.947 1788.45,337.578 1789.59,338.21 1790.72,338.843 1791.85,339.477 1792.98,340.112 1794.11,340.747 1795.24,341.384 1796.37,342.022 1797.5,342.66 1798.63,343.299 1799.76,343.939 1800.89,344.58 1802.03,345.221 1803.16,345.863 1804.29,346.506 1805.42,347.15 1806.55,347.794 1807.68,348.439 1808.81,349.085 1809.94,349.731 1811.07,350.378 1812.2,351.026 1813.33,351.674 1814.46,352.322 1815.6,352.971 1816.73,353.621 1817.86,354.271 1818.99,354.922 1820.12,355.572 1821.25,356.224 1822.38,356.875 1823.51,357.528 1824.64,358.18 1825.77,358.832 1826.9,359.485 1828.03,360.138 1829.17,360.792 1830.3,361.445 1831.43,362.099 1832.56,362.753 1833.69,363.406 1834.82,364.06 1835.95,364.714 1837.08,365.368 1838.21,366.022 1839.34,366.675 1840.47,367.329 1841.61,367.982 1842.74,368.635 1843.87,369.307 1845,369.982 1846.13,370.657 1847.26,371.332 1848.39,372.007 1849.52,372.682 1850.65,373.357 1851.78,374.033 1852.91,374.708 1854.04,375.384 1855.18,376.06 1856.31,376.736 1857.44,377.413 1858.57,378.09 1859.7,378.767 1860.83,379.445 1861.96,380.124 1863.09,380.803 1864.22,381.483 1865.35,382.164 1866.48,382.845 1867.62,383.527 1868.75,384.21 1869.88,384.893 1871.01,385.578 1872.14,386.263 1873.27,386.949 1874.4,387.636 1875.53,388.324 1876.66,389.013 1877.79,389.703 1878.92,390.394 1880.05,391.086 1881.19,391.778 1882.32,392.473 1883.45,393.168 1884.58,393.864 1885.71,394.561 1886.84,395.26 1887.97,395.959 1889.1,396.66 1890.23,397.362 1891.36,398.065 1892.49,398.769 1893.63,399.474 1894.76,400.181 1895.89,400.889 1897.02,401.597 1898.15,402.308 1899.28,403.019 1900.41,403.731 1901.54,404.445 1902.67,405.16 1903.8,405.875 1904.93,406.592 1906.06,407.311 1907.2,408.03 1908.33,408.751 1909.46,409.472 1910.59,410.195 1911.72,410.919 1912.85,411.643 1913.98,412.369 1915.11,413.096 1916.24,413.824 1917.37,414.553 1918.5,415.283 1919.63,416.014 1920.77,416.745 1921.9,417.478 1923.03,418.211 1924.16,418.946 1925.29,419.681 1926.42,420.417 1927.55,421.153 1928.68,421.891 1929.81,422.629 1930.94,423.367 1932.07,424.107 1933.21,424.846 1934.34,425.587 1935.47,426.328 1936.6,427.069 1937.73,427.81 1938.86,428.552 1939.99,429.295 1941.12,430.037 1942.25,430.78 1943.38,431.523 1944.51,432.266 1945.64,433.009 1946.78,433.752 1947.91,434.495 1949.04,435.238 1950.17,435.98 1951.3,436.723 1952.43,437.465 1953.56,438.207 1954.69,438.948 1955.82,439.689 1956.95,440.43 1958.08,441.169 1959.22,441.908 1960.35,442.647 1961.48,443.384 1962.61,444.121 1963.74,444.857 1964.87,445.591 1966,446.347 1967.13,447.11 1968.26,447.872 1969.39,448.633 1970.52,449.394 1971.65,450.154 1972.79,450.915 1973.92,451.675 1975.05,452.434 1976.18,453.194 1977.31,453.954 1978.44,454.715 1979.57,455.475 1980.7,456.236 1981.83,456.997 1982.96,457.759 1984.09,458.521 1985.23,459.284 1986.36,460.048 1987.49,460.812 1988.62,461.577 1989.75,462.343 1990.88,463.11 1992.01,463.878 1993.14,464.647 1994.27,465.416 1995.4,466.187 1996.53,466.959 1997.66,467.732 1998.8,468.506 1999.93,469.282 2001.06,470.058 2002.19,470.836 2003.32,471.614 2004.45,472.394 2005.58,473.176 2006.71,473.958 2007.84,474.741 2008.97,475.526 2010.1,476.312 2011.23,477.099 2012.37,477.887 2013.5,478.676 2014.63,479.466 2015.76,480.257 2016.89,481.049 2018.02,481.842 2019.15,482.636 2020.28,483.431 2021.41,484.227 2022.54,485.024 2023.67,485.821 2024.81,486.619 2025.94,487.417 2027.07,488.216 2028.2,489.015 2029.33,489.815 2030.46,490.615 2031.59,491.415 2032.72,492.216 2033.85,493.016 2034.98,493.816 2036.11,494.617 2037.24,495.417 2038.38,496.216 2039.51,497.015 2040.64,497.814 2041.77,498.612 2042.9,499.409 2044.03,500.205 2045.16,501 2046.29,501.794 2047.42,502.587 2048.55,503.379 2049.68,504.168 2050.82,504.956 2051.95,505.767 2053.08,506.58 2054.21,507.391 2055.34,508.202 2056.47,509.011 2057.6,509.82 2058.73,510.629 2059.86,511.436 2060.99,512.244 2062.12,513.052 2063.25,513.86 2064.39,514.668 2065.52,515.476 2066.65,516.285 2067.78,517.094 2068.91,517.904 2070.04,518.714 2071.17,519.525 2072.3,520.338 2073.43,521.151 2074.56,521.965 2075.69,522.781 2076.83,523.597 2077.96,524.415 2079.09,525.234 2080.22,526.054 2081.35,526.875 2082.48,527.698 2083.61,528.522 2084.74,529.347 2085.87,530.173 2087,531.001 2088.13,531.83 2089.26,532.66 2090.4,533.491 2091.53,534.324 2092.66,535.157 2093.79,535.992 2094.92,536.827 2096.05,537.663 2097.18,538.5 2098.31,539.338 2099.44,540.176 2100.57,541.015 2101.7,541.854 2102.83,542.694 2103.97,543.533 2105.1,544.373 2106.23,545.212 2107.36,546.052 2108.49,546.89 2109.62,547.728 2110.75,548.566 2111.88,549.402 2113.01,550.237 2114.14,551.071 2115.27,551.903 2116.41,552.734 2117.54,553.562 2118.67,554.389 2119.8,555.213 2120.93,556.034 2122.06,556.853 2123.19,557.701 2124.32,558.549 2125.45,559.395 2126.58,560.24 2127.71,561.082 2128.84,561.924 2129.98,562.764 2131.11,563.604 2132.24,564.444 2133.37,565.283 2134.5,566.122 2135.63,566.962 2136.76,567.802 2137.89,568.643 2139.02,569.484 2140.15,570.327 2141.28,571.171 2142.42,572.016 2143.55,572.862 2144.68,573.71 2145.81,574.559 2146.94,575.409 2148.07,576.261 2149.2,577.115 2150.33,577.97 2151.46,578.827 2152.59,579.685 2153.72,580.544 2154.85,581.404 2155.99,582.266 2157.12,583.129 2158.25,583.993 2159.38,584.857 2160.51,585.722 2161.64,586.587 2162.77,587.453 2163.9,588.318 2165.03,589.184 2166.16,590.048 2167.29,590.912 2168.43,591.775 2169.56,592.636 2170.69,593.496 2171.82,594.354 2172.95,595.209 2174.08,596.061 2175.21,596.91 2176.34,597.755 2177.47,598.596 2178.6,599.435 2179.73,600.308 2180.86,601.177 2182,602.043 2183.13,602.906 2184.26,603.768 2185.39,604.629 2186.52,605.489 2187.65,606.348 2188.78,607.208 2189.91,608.068 2191.04,608.929 2192.17,609.791 2193.3,610.655 2194.43,611.519 2195.57,612.386 2196.7,613.254 2197.83,614.124 2198.96,614.995 2200.09,615.868 2201.22,616.742 2202.35,617.618 2203.48,618.495 2204.61,619.372 2205.74,620.251 2206.87,621.129 2208.01,622.007 2209.14,622.884 2210.27,623.76 2211.4,624.635 2212.53,625.507 2213.66,626.376 2214.79,627.241 2215.92,628.102 2217.05,628.958 2218.18,629.832 2219.31,630.711 2220.44,631.586 2221.58,632.458 2222.71,633.329 2223.84,634.198 2224.97,635.068 2226.1,635.938 2227.23,636.808 2228.36,637.68 2229.49,638.554 2230.62,639.429 2231.75,640.307 2232.88,641.186 2234.02,642.068 2235.15,642.951 2236.28,643.836 2237.41,644.722 2238.54,645.609 2239.67,646.497 2240.8,647.385 2241.93,648.272 2243.06,649.157 2244.19,650.04 2245.32,650.92 2246.45,651.796 2247.59,652.666 2248.72,653.53 2249.85,654.401 2250.98,655.289 2252.11,656.171 2253.24,657.05 2254.37,657.926 2255.5,658.802 2256.63,659.678 2257.76,660.555 2258.89,661.433 2260.03,662.315 2261.16,663.198 2262.29,664.085 2263.42,664.974 2264.55,665.865 2265.68,666.758 2266.81,667.652 2267.94,668.546 2269.07,669.439 2270.2,670.329 2271.33,671.216 2272.46,672.096 2273.6,672.969 2274.73,673.832 2275.86,674.725 2276.99,675.612 2278.12,676.495 2279.25,677.376 2280.38,678.256 2281.51,679.139 2282.64,680.024 2283.77,680.913 2284.9,681.805 2286.03,682.699 2287.17,683.594 2288.3,684.489 2289.43,685.38 2290.56,686.266 2291.69,687.143 2292.82,688.027 2293.95,688.915 2295.08,689.799 2296.21,690.681 2297.34,691.565 2298.47,692.453 2299.61,693.344 2300.74,694.239 2301.87,695.137 2303,696.034 2304.13,696.929 2305.26,697.815 2306.39,698.689 2307.52,699.581 2308.65,700.467 2309.78,701.35 2310.91,702.236 2312.04,703.126 2313.18,704.022 2314.31,704.921 2315.44,705.82 2316.57,706.712 2317.7,707.588 2318.83,708.48 2319.96,709.366 2321.09,710.252 2322.22,711.145 2323.35,712.043 2324.48,712.939 2325.62,713.821 2326.75,714.712 2327.88,715.597 2329.01,716.489 2330.14,717.388 2331.27,718.284 2332.4,719.168 2333.53,720.055 2334.66,720.944 2335.79,721.844 2336.92,722.735 2338.05,723.622 2339.19,724.513 2340.32,725.409 2341.45,726.295 2342.58,727.189 2343.71,728.08 2344.84,728.97 2345.97,729.863 2347.1,730.756 2348.23,731.646 2349.36,732.538 2350.49,733.428 2351.63,734.321 2352.76,735.212 "/>
<polyline clip-path="url(#clip062)" style="stroke:#e26f46; stroke-linecap:round; stroke-linejoin:round; stroke-width:4; stroke-opacity:1; fill:none" points="193.936,735.212 195.067,735.212 196.198,735.213 197.329,735.215 198.459,735.217 199.59,735.22 200.721,735.223 201.852,735.227 202.983,735.232 204.114,735.237 205.245,735.243 206.376,735.249 207.506,735.256 208.637,735.264 209.768,735.272 210.899,735.281 212.03,735.29 213.161,735.3 214.292,735.311 215.422,735.322 216.553,735.334 217.684,735.347 218.815,735.36 219.946,735.374 221.077,735.388 222.208,735.403 223.338,735.419 224.469,735.435 225.6,735.452 226.731,735.469 227.862,735.487 228.993,735.506 230.124,735.525 231.255,735.545 232.385,735.566 233.516,735.587 234.647,735.609 235.778,735.631 236.909,735.654 238.04,735.678 239.171,735.702 240.301,735.727 241.432,735.752 242.563,735.778 243.694,735.805 244.825,735.832 245.956,735.86 247.087,735.888 248.217,735.917 249.348,735.947 250.479,735.977 251.61,736.008 252.741,736.04 253.872,736.072 255.003,736.105 256.134,736.138 257.264,736.172 258.395,736.207 259.526,736.242 260.657,736.278 261.788,736.314 262.919,736.351 264.05,736.389 265.18,736.427 266.311,736.466 267.442,736.505 268.573,736.545 269.704,736.586 270.835,736.627 271.966,736.669 273.096,736.712 274.227,736.755 275.358,736.799 276.489,736.843 277.62,736.888 278.751,736.934 279.882,736.98 281.013,737.027 282.143,737.074 283.274,737.122 284.405,737.171 285.536,737.22 286.667,737.27 287.798,737.321 288.929,737.372 290.059,737.424 291.19,737.476 292.321,737.529 293.452,737.582 294.583,737.637 295.714,737.691 296.845,737.747 297.976,737.803 299.106,737.859 300.237,737.917 301.368,737.975 302.499,738.033 303.63,738.092 304.761,738.152 305.892,738.212 307.022,738.273 308.153,738.335 309.284,738.397 310.415,738.459 311.546,738.523 312.677,738.587 313.808,738.651 314.938,738.717 316.069,738.782 317.2,738.849 318.331,738.916 319.462,738.983 320.593,739.052 321.724,739.121 322.855,739.19 323.985,739.26 325.116,739.331 326.247,739.402 327.378,739.474 328.509,739.547 329.64,739.62 330.771,739.694 331.901,739.768 333.032,739.843 334.163,739.919 335.294,739.995 336.425,740.072 337.556,740.149 338.687,740.227 339.817,740.306 340.948,740.385 342.079,740.465 343.21,740.545 344.341,740.627 345.472,740.708 346.603,740.791 347.734,740.874 348.864,740.957 349.995,741.041 351.126,741.126 352.257,741.212 353.388,741.298 354.519,741.384 355.65,741.471 356.78,741.559 357.911,741.648 359.042,741.737 360.173,741.826 361.304,741.917 362.435,742.008 363.566,742.099 364.697,742.191 365.827,742.284 366.958,742.377 368.089,742.471 369.22,742.566 370.351,742.661 371.482,742.757 372.613,742.853 373.743,742.95 374.874,743.048 376.005,743.146 377.136,743.245 378.267,743.345 379.398,743.445 380.529,743.545 381.659,743.647 382.79,743.749 383.921,743.851 385.052,743.954 386.183,744.058 387.314,744.162 388.445,744.267 389.576,744.373 390.706,744.479 391.837,744.586 392.968,744.694 394.099,744.802 395.23,744.91 396.361,745.019 397.492,745.129 398.622,745.24 399.753,745.351 400.884,745.463 402.015,745.575 403.146,745.688 404.277,745.801 405.408,745.916 406.538,746.03 407.669,746.146 408.8,746.262 409.931,746.378 411.062,746.496 412.193,746.613 413.324,746.732 414.455,746.851 415.585,746.971 416.716,747.091 417.847,747.212 418.978,747.333 420.109,747.455 421.24,747.578 422.371,747.701 423.501,747.825 424.632,747.95 425.763,748.075 426.894,748.201 428.025,748.327 429.156,748.454 430.287,748.582 431.417,748.71 432.548,748.839 433.679,748.968 434.81,749.098 435.941,749.229 437.072,749.36 438.203,749.492 439.334,749.625 440.464,749.758 441.595,749.892 442.726,750.026 443.857,750.161 444.988,750.296 446.119,750.433 447.25,750.569 448.38,750.707 449.511,750.845 450.642,750.983 451.773,751.123 452.904,751.263 454.035,751.403 455.166,751.544 456.297,751.686 457.427,751.828 458.558,751.971 459.689,752.114 460.82,752.259 461.951,752.403 463.082,752.549 464.213,752.695 465.343,752.841 466.474,752.988 467.605,753.136 468.736,753.284 469.867,753.433 470.998,753.583 472.129,753.733 473.259,753.884 474.39,754.036 475.521,754.188 476.652,754.34 477.783,754.494 478.914,754.647 480.045,754.802 481.176,754.957 482.306,755.113 483.437,755.269 484.568,755.426 485.699,755.584 486.83,755.742 487.961,755.901 489.092,756.06 490.222,756.22 491.353,756.381 492.484,756.542 493.615,756.704 494.746,756.866 495.877,757.029 497.008,757.193 498.138,757.357 499.269,757.522 500.4,757.687 501.531,757.853 502.662,758.02 503.793,758.187 504.924,758.355 506.055,758.524 507.185,758.693 508.316,758.863 509.447,759.033 510.578,759.204 511.709,759.376 512.84,759.548 513.971,759.721 515.101,759.894 516.232,760.068 517.363,760.243 518.494,760.418 519.625,760.594 520.756,760.77 521.887,760.947 523.018,761.125 524.148,761.303 525.279,761.482 526.41,761.662 527.541,761.842 528.672,762.023 529.803,762.204 530.934,762.386 532.064,762.568 533.195,762.752 534.326,762.935 535.457,763.12 536.588,763.305 537.719,763.49 538.85,763.677 539.98,763.863 541.111,764.051 542.242,764.239 543.373,764.427 544.504,764.617 545.635,764.807 546.766,764.997 547.897,765.188 549.027,765.38 550.158,765.572 551.289,765.765 552.42,765.958 553.551,766.153 554.682,766.347 555.813,766.543 556.943,766.739 558.074,766.935 559.205,767.132 560.336,767.33 561.467,767.528 562.598,767.727 563.729,767.927 564.859,768.127 565.99,768.328 567.121,768.529 568.252,768.731 569.383,768.934 570.514,769.137 571.645,769.341 572.776,769.546 573.906,769.751 575.037,769.956 576.168,770.162 577.299,770.369 578.43,770.577 579.561,770.785 580.692,770.994 581.822,771.203 582.953,771.413 584.084,771.623 585.215,771.834 586.346,772.046 587.477,772.258 588.608,772.471 589.738,772.685 590.869,772.899 592,773.114 593.131,773.329 594.262,773.545 595.393,773.762 596.524,773.979 597.655,774.197 598.785,774.415 599.916,774.634 601.047,774.854 602.178,775.074 603.309,775.295 604.44,775.516 605.571,775.738 606.701,775.961 607.832,776.184 608.963,776.408 610.094,776.632 611.225,776.857 612.356,777.083 613.487,777.309 614.618,777.536 615.748,777.764 616.879,777.992 618.01,778.22 619.141,778.45 620.272,778.679 621.403,778.91 622.534,779.141 623.664,779.373 624.795,779.605 625.926,779.838 627.057,780.071 628.188,780.306 629.319,780.54 630.45,780.776 631.58,781.011 632.711,781.248 633.842,781.485 634.973,781.723 636.104,781.961 637.235,782.2 638.366,782.44 639.497,782.68 640.627,782.92 641.758,783.162 642.889,783.404 644.02,783.646 645.151,783.889 646.282,784.133 647.413,784.378 648.543,784.623 649.674,784.868 650.805,785.114 651.936,785.361 653.067,785.608 654.198,785.856 655.329,786.105 656.459,786.354 657.59,786.604 658.721,786.854 659.852,787.105 660.983,787.357 662.114,787.609 663.245,787.862 664.376,788.115 665.506,788.369 666.637,788.623 667.768,788.879 668.899,789.134 670.03,789.391 671.161,789.648 672.292,789.905 673.422,790.163 674.553,790.422 675.684,790.682 676.815,790.942 677.946,791.202 679.077,791.463 680.208,791.725 681.339,791.987 682.469,792.25 683.6,792.514 684.731,792.778 685.862,793.043 686.993,793.308 688.124,793.574 689.255,793.841 690.385,794.108 691.516,794.375 692.647,794.644 693.778,794.913 694.909,795.182 696.04,795.452 697.171,795.723 698.301,795.994 699.432,796.266 700.563,796.539 701.694,796.812 702.825,797.086 703.956,797.36 705.087,797.635 706.218,797.91 707.348,798.186 708.479,798.463 709.61,798.74 710.741,799.018 711.872,799.297 713.003,799.576 714.134,799.855 715.264,800.135 716.395,800.416 717.526,800.698 718.657,800.98 719.788,801.262 720.919,801.546 722.05,801.829 723.18,802.114 724.311,802.399 725.442,802.684 726.573,802.97 727.704,803.257 728.835,803.545 729.966,803.832 731.097,804.121 732.227,804.41 733.358,804.7 734.489,804.99 735.62,805.281 736.751,805.573 737.882,805.865 739.013,806.157 740.143,806.451 741.274,806.744 742.405,807.039 743.536,807.334 744.667,807.629 745.798,807.926 746.929,808.222 748.059,808.52 749.19,808.818 750.321,809.116 751.452,809.416 752.583,809.715 753.714,810.016 754.845,810.317 755.976,810.618 757.106,810.92 758.237,811.223 759.368,811.526 760.499,811.83 761.63,812.134 762.761,812.439 763.892,812.745 765.022,813.051 766.153,813.358 767.284,813.665 768.415,813.973 769.546,814.282 770.677,814.591 771.808,814.901 772.939,815.211 774.069,815.522 775.2,815.833 776.331,816.145 777.462,816.458 778.593,816.771 779.724,817.085 780.855,817.399 781.985,817.714 783.116,818.03 784.247,818.346 785.378,818.663 786.509,818.98 787.64,819.298 788.771,819.616 789.901,819.935 791.032,820.255 792.163,820.575 793.294,820.896 794.425,821.217 795.556,821.539 796.687,821.862 797.818,822.185 798.948,822.509 800.079,822.833 801.21,823.158 802.341,823.483 803.472,823.809 804.603,824.136 805.734,824.463 806.864,824.791 807.995,825.119 809.126,825.448 810.257,825.777 811.388,826.107 812.519,826.438 813.65,826.769 814.78,827.101 815.911,827.433 817.042,827.766 818.173,828.1 819.304,828.434 820.435,828.768 821.566,829.104 822.697,829.439 823.827,829.776 824.958,830.113 826.089,830.45 827.22,830.788 828.351,831.127 829.482,831.466 830.613,831.806 831.743,832.146 832.874,832.487 834.005,832.829 835.136,833.171 836.267,833.513 837.398,833.857 838.529,834.2 839.66,834.545 840.79,834.89 841.921,835.235 843.052,835.581 844.183,835.928 845.314,836.275 846.445,836.623 847.576,836.971 848.706,837.32 849.837,837.67 850.968,838.02 852.099,838.37 853.23,838.721 854.361,839.073 855.492,839.425 856.622,839.778 857.753,840.132 858.884,840.486 860.015,840.84 861.146,841.195 862.277,841.551 863.408,841.907 864.539,842.264 865.669,842.621 866.8,842.979 867.931,843.338 869.062,843.697 870.193,844.056 871.324,844.417 872.455,844.777 873.585,845.139 874.716,845.5 875.847,845.863 876.978,846.226 878.109,846.589 879.24,846.953 880.371,847.318 881.501,847.683 882.632,848.049 883.763,848.415 884.894,848.782 886.025,849.15 887.156,849.518 888.287,849.886 889.418,850.255 890.548,850.625 891.679,850.995 892.81,851.366 893.941,851.737 895.072,852.109 896.203,852.481 897.334,852.854 898.464,853.228 899.595,853.602 900.726,853.977 901.857,854.352 902.988,854.727 904.119,855.104 905.25,855.481 906.38,855.858 907.511,856.236 908.642,856.614 909.773,856.993 910.904,857.373 912.035,857.753 913.166,858.134 914.297,858.515 915.427,858.897 916.558,859.279 917.689,859.662 918.82,860.045 919.951,860.429 921.082,860.814 922.213,861.199 923.343,861.584 924.474,861.97 925.605,862.357 926.736,862.744 927.867,863.132 928.998,863.52 930.129,863.909 931.26,864.298 932.39,864.688 933.521,865.079 934.652,865.47 935.783,865.861 936.914,866.253 938.045,866.646 939.176,867.039 940.306,867.433 941.437,867.827 942.568,868.221 943.699,868.617 944.83,869.013 945.961,869.409 947.092,869.806 948.222,870.203 949.353,870.601 950.484,871 951.615,871.399 952.746,871.798 953.877,872.198 955.008,872.599 956.139,873 957.269,873.402 958.4,873.804 959.531,874.206 960.662,874.61 961.793,875.013 962.924,875.418 964.055,875.823 965.185,876.228 966.316,876.634 967.447,877.04 968.578,877.447 969.709,877.855 970.84,878.262 971.971,878.671 973.101,879.08 974.232,879.49 975.363,879.9 976.494,880.31 977.625,880.721 978.756,881.133 979.887,881.545 981.018,881.958 982.148,882.371 983.279,882.784 984.41,883.199 985.541,883.613 986.672,884.029 987.803,884.444 988.934,884.861 990.064,885.277 991.195,885.695 992.326,886.113 993.457,886.531 994.588,886.95 995.719,887.369 996.85,887.789 997.98,888.209 999.111,888.63 1000.24,889.052 1001.37,889.473 1002.5,889.896 1003.63,890.319 1004.77,890.742 1005.9,891.166 1007.03,891.591 1008.16,892.015 1009.29,892.441 1010.42,892.867 1011.55,893.293 1012.68,893.72 1013.81,894.148 1014.94,894.576 1016.07,895.004 1017.21,895.433 1018.34,895.863 1019.47,896.292 1020.6,896.723 1021.73,897.154 1022.86,897.585 1023.99,898.017 1025.12,898.45 1026.25,898.883 1027.38,899.316 1028.51,899.75 1029.64,900.184 1030.78,900.619 1031.91,901.055 1033.04,901.491 1034.17,901.927 1035.3,902.364 1036.43,902.801 1037.56,903.239 1038.69,903.678 1039.82,904.116 1040.95,904.556 1042.08,904.996 1043.22,905.436 1044.35,905.877 1045.48,906.318 1046.61,906.76 1047.74,907.202 1048.87,907.645 1050,908.088 1051.13,908.532 1052.26,908.976 1053.39,909.42 1054.52,909.866 1055.65,910.311 1056.79,910.757 1057.92,911.204 1059.05,911.651 1060.18,912.098 1061.31,912.546 1062.44,912.995 1063.57,913.444 1064.7,913.893 1065.83,914.343 1066.96,914.794 1068.09,915.244 1069.22,915.696 1070.36,916.148 1071.49,916.6 1072.62,917.053 1073.75,917.506 1074.88,917.959 1076.01,918.414 1077.14,918.868 1078.27,919.323 1079.4,919.779 1080.53,920.235 1081.66,920.691 1082.8,921.148 1083.93,921.606 1085.06,922.063 1086.19,922.522 1087.32,922.98 1088.45,923.44 1089.58,923.899 1090.71,924.359 1091.84,924.82 1092.97,925.281 1094.1,925.743 1095.23,926.205 1096.37,926.667 1097.5,927.13 1098.63,927.593 1099.76,928.057 1100.89,928.521 1102.02,928.986 1103.15,929.451 1104.28,929.917 1105.41,930.383 1106.54,930.849 1107.67,931.316 1108.81,931.783 1109.94,932.251 1111.07,932.719 1112.2,933.188 1113.33,933.657 1114.46,934.127 1115.59,934.597 1116.72,935.067 1117.85,935.538 1118.98,936.009 1120.11,936.481 1121.24,936.953 1122.38,937.426 1123.51,937.899 1124.64,938.372 1125.77,938.846 1126.9,939.321 1128.03,939.795 1129.16,940.271 1130.29,940.746 1131.42,941.222 1132.55,941.699 1133.68,942.176 1134.82,942.653 1135.95,943.131 1137.08,943.609 1138.21,944.088 1139.34,944.567 1140.47,945.046 1141.6,945.526 1142.73,946.006 1143.86,946.487 1144.99,946.968 1146.12,947.45 1147.25,947.932 1148.39,948.414 1149.52,948.897 1150.65,949.38 1151.78,949.864 1152.91,950.348 1154.04,950.832 1155.17,951.317 1156.3,951.802 1157.43,952.288 1158.56,952.774 1159.69,953.26 1160.82,953.747 1161.96,954.234 1163.09,954.722 1164.22,955.21 1165.35,955.699 1166.48,956.187 1167.61,956.677 1168.74,957.166 1169.87,957.657 1171,958.147 1172.13,958.638 1173.26,959.129 1174.4,959.621 1175.53,960.113 1176.66,960.605 1177.79,961.098 1178.92,961.591 1180.05,962.085 1181.18,962.579 1182.31,963.073 1183.44,963.568 1184.57,964.063 1185.7,964.559 1186.83,965.055 1187.97,965.551 1189.1,966.048 1190.23,966.545 1191.36,967.042 1192.49,967.54 1193.62,968.038 1194.75,968.537 1195.88,969.036 1197.01,969.535 1198.14,970.035 1199.27,970.535 1200.41,971.035 1201.54,971.536 1202.67,972.037 1203.8,972.539 1204.93,973.041 1206.06,973.543 1207.19,974.045 1208.32,974.548 1209.45,975.052 1210.58,975.555 1211.71,976.06 1212.84,976.564 1213.98,977.069 1215.11,977.574 1216.24,978.08 1217.37,978.585 1218.5,979.092 1219.63,979.598 1220.76,980.105 1221.89,980.612 1223.02,981.12 1224.15,981.628 1225.28,982.136 1226.42,982.645 1227.55,983.154 1228.68,983.663 1229.81,984.173 1230.94,984.683 1232.07,985.194 1233.2,985.704 1234.33,986.215 1235.46,986.727 1236.59,987.239 1237.72,987.751 1238.85,988.263 1239.99,988.776 1241.12,989.289 1242.25,989.802 1243.38,990.316 1244.51,990.83 1245.64,991.345 1246.77,991.859 1247.9,992.375 1249.03,992.89 1250.16,993.406 1251.29,993.922 1252.42,994.438 1253.56,994.955 1254.69,995.472 1255.82,995.989 1256.95,996.507 1258.08,997.025 1259.21,997.543 1260.34,998.061 1261.47,998.58 1262.6,999.099 1263.73,999.619 1264.86,1000.14 1266,1000.66 1267.13,1001.18 1268.26,1001.7 1269.39,1002.22 1270.52,1002.74 1271.65,1003.26 1272.78,1003.79 1273.91,1004.31 1275.04,1004.83 1276.17,1005.35 1277.3,1005.88 1278.43,1006.4 1279.57,1006.92 1280.7,1007.45 1281.83,1007.97 1282.96,1008.5 1284.09,1009.02 1285.22,1009.55 1286.35,1010.07 1287.48,1010.6 1288.61,1011.12 1289.74,1011.65 1290.87,1012.18 1292.01,1012.7 1293.14,1013.23 1294.27,1013.76 1295.4,1014.29 1296.53,1014.81 1297.66,1015.34 1298.79,1015.87 1299.92,1016.4 1301.05,1016.93 1302.18,1017.46 1303.31,1017.99 1304.44,1018.52 1305.58,1019.05 1306.71,1019.58 1307.84,1020.11 1308.97,1020.64 1310.1,1021.17 1311.23,1021.7 1312.36,1022.23 1313.49,1022.76 1314.62,1023.3 1315.75,1023.83 1316.88,1024.36 1318.02,1024.89 1319.15,1025.43 1320.28,1025.96 1321.41,1026.49 1322.54,1027.03 1323.67,1027.56 1324.8,1028.1 1325.93,1028.63 1327.06,1029.17 1328.19,1029.7 1329.32,1030.24 1330.45,1030.77 1331.59,1031.31 1332.72,1031.84 1333.85,1032.38 1334.98,1032.91 1336.11,1033.45 1337.24,1033.99 1338.37,1034.53 1339.5,1035.06 1340.63,1035.6 1341.76,1036.14 1342.89,1036.68 1344.02,1037.21 1345.16,1037.75 1346.29,1038.29 1347.42,1038.83 1348.55,1039.37 1349.68,1039.91 1350.81,1040.45 1351.94,1040.99 1353.07,1041.53 1354.2,1042.07 1355.33,1042.61 1356.46,1043.15 1357.6,1043.69 1358.73,1044.23 1359.86,1044.77 1360.99,1045.31 1362.12,1045.85 1363.25,1046.39 1364.38,1046.94 1365.51,1047.48 1366.64,1048.02 1367.77,1048.56 1368.9,1049.1 1370.03,1049.65 1371.17,1050.19 1372.3,1050.73 1373.43,1051.28 1374.56,1051.82 1375.69,1052.36 1376.82,1052.91 1377.95,1053.45 1379.08,1053.99 1380.21,1054.54 1381.34,1055.08 1382.47,1055.63 1383.61,1056.17 1384.74,1056.72 1385.87,1057.26 1387,1057.81 1388.13,1058.35 1389.26,1058.9 1390.39,1059.45 1391.52,1059.99 1392.65,1060.54 1393.78,1061.08 1394.91,1061.63 1396.04,1062.18 1397.18,1062.72 1398.31,1063.27 1399.44,1063.82 1400.57,1064.36 1401.7,1064.91 1402.83,1065.46 1403.96,1066.01 1405.09,1066.55 1406.22,1067.1 1407.35,1067.65 1408.48,1068.2 1409.62,1068.75 1410.75,1069.29 1411.88,1069.84 1413.01,1070.39 1414.14,1070.94 1415.27,1071.49 1416.4,1072.04 1417.53,1072.59 1418.66,1073.13 1419.79,1073.68 1420.92,1074.23 1422.05,1074.78 1423.19,1075.33 1424.32,1075.88 1425.45,1076.43 1426.58,1076.98 1427.71,1077.53 1428.84,1078.08 1429.97,1078.63 1431.1,1079.18 1432.23,1079.73 1433.36,1080.28 1434.49,1080.83 1435.62,1081.39 1436.76,1081.94 1437.89,1082.49 1439.02,1083.04 1440.15,1083.59 1441.28,1084.14 1442.41,1084.69 1443.54,1085.24 1444.67,1085.79 1445.8,1086.35 1446.93,1086.9 1448.06,1087.45 1449.2,1088 1450.33,1088.55 1451.46,1089.1 1452.59,1089.66 1453.72,1090.21 1454.85,1090.76 1455.98,1091.31 1457.11,1091.86 1458.24,1092.42 1459.37,1092.97 1460.5,1093.52 1461.63,1094.07 1462.77,1094.63 1463.9,1095.18 1465.03,1095.73 1466.16,1096.28 1467.29,1096.84 1468.42,1097.39 1469.55,1097.94 1470.68,1098.49 1471.81,1099.05 1472.94,1099.6 1474.07,1100.15 1475.21,1100.7 1476.34,1101.26 1477.47,1101.81 1478.6,1102.36 1479.73,1102.92 1480.86,1103.47 1481.99,1104.02 1483.12,1104.57 1484.25,1105.13 1485.38,1105.68 1486.51,1106.23 1487.64,1106.79 1488.78,1107.34 1489.91,1107.89 1491.04,1108.45 1492.17,1109 1493.3,1109.55 1494.43,1110.11 1495.56,1110.66 1496.69,1111.21 1497.82,1111.76 1498.95,1112.32 1500.08,1112.87 1501.22,1113.42 1502.35,1113.98 1503.48,1114.53 1504.61,1115.08 1505.74,1115.64 1506.87,1116.19 1508,1116.74 1509.13,1117.29 1510.26,1117.85 1511.39,1118.4 1512.52,1118.95 1513.65,1119.51 1514.79,1120.06 1515.92,1120.61 1517.05,1121.16 1518.18,1121.72 1519.31,1122.27 1520.44,1122.82 1521.57,1123.37 1522.7,1123.93 1523.83,1124.48 1524.96,1125.03 1526.09,1125.58 1527.22,1126.14 1528.36,1126.69 1529.49,1127.24 1530.62,1127.79 1531.75,1128.34 1532.88,1128.9 1534.01,1129.45 1535.14,1130 1536.27,1130.55 1537.4,1131.1 1538.53,1131.65 1539.66,1132.21 1540.8,1132.76 1541.93,1133.31 1543.06,1133.86 1544.19,1134.41 1545.32,1134.96 1546.45,1135.51 1547.58,1136.06 1548.71,1136.62 1549.84,1137.17 1550.97,1137.72 1552.1,1138.27 1553.23,1138.82 1554.37,1139.37 1555.5,1139.92 1556.63,1140.47 1557.76,1141.02 1558.89,1141.57 1560.02,1142.12 1561.15,1142.67 1562.28,1143.22 1563.41,1143.77 1564.54,1144.32 1565.67,1144.87 1566.81,1145.42 1567.94,1145.97 1569.07,1146.52 1570.2,1147.06 1571.33,1147.61 1572.46,1148.16 1573.59,1148.71 1574.72,1149.26 1575.85,1149.81 1576.98,1150.36 1578.11,1150.9 1579.24,1151.45 1580.38,1152 1581.51,1152.55 1582.64,1153.09 1583.77,1153.64 1584.9,1154.19 1586.03,1154.74 1587.16,1155.28 1588.29,1155.83 1589.42,1156.38 1590.55,1156.92 1591.68,1157.47 1592.82,1158.01 1593.95,1158.56 1595.08,1159.11 1596.21,1159.65 1597.34,1160.2 1598.47,1160.74 1599.6,1161.29 1600.73,1161.83 1601.86,1162.38 1602.99,1162.92 1604.12,1163.46 1605.25,1164.01 1606.39,1164.55 1607.52,1165.1 1608.65,1165.64 1609.78,1166.18 1610.91,1166.73 1612.04,1167.27 1613.17,1167.81 1614.3,1168.35 1615.43,1168.9 1616.56,1169.44 1617.69,1169.98 1618.82,1170.52 1619.96,1171.06 1621.09,1171.6 1622.22,1172.15 1623.35,1172.69 1624.48,1173.23 1625.61,1173.77 1626.74,1174.31 1627.87,1174.85 1629,1175.39 1630.13,1175.93 1631.26,1176.47 1632.4,1177.01 1633.53,1177.54 1634.66,1178.08 1635.79,1178.62 1636.92,1179.16 1638.05,1179.7 1639.18,1180.23 1640.31,1180.77 1641.44,1181.31 1642.57,1181.85 1643.7,1182.38 1644.83,1182.92 1645.97,1183.45 1647.1,1183.99 1648.23,1184.52 1649.36,1185.06 1650.49,1185.59 1651.62,1186.13 1652.75,1186.66 1653.88,1187.2 1655.01,1187.73 1656.14,1188.27 1657.27,1188.8 1658.41,1189.33 1659.54,1189.86 1660.67,1190.4 1661.8,1190.93 1662.93,1191.46 1664.06,1191.99 1665.19,1192.52 1666.32,1193.05 1667.45,1193.58 1668.58,1194.11 1669.71,1194.64 1670.84,1195.17 1671.98,1195.7 1673.11,1196.23 1674.24,1196.76 1675.37,1197.29 1676.5,1197.82 1677.63,1198.34 1678.76,1198.87 1679.89,1199.4 1681.02,1199.93 1682.15,1200.45 1683.28,1200.98 1684.42,1201.5 1685.55,1202.03 1686.68,1202.55 1687.81,1203.08 1688.94,1203.6 1690.07,1204.13 1691.2,1204.65 1692.33,1205.17 1693.46,1205.7 1694.59,1206.22 1695.72,1206.74 1696.85,1207.26 1697.99,1207.79 1699.12,1208.31 1700.25,1208.83 1701.38,1209.35 1702.51,1209.87 1703.64,1210.39 1704.77,1210.91 1705.9,1211.43 1707.03,1211.94 1708.16,1212.46 1709.29,1212.98 1710.42,1213.5 1711.56,1214.01 1712.69,1214.53 1713.82,1215.05 1714.95,1215.56 1716.08,1216.08 1717.21,1216.59 1718.34,1217.11 1719.47,1217.62 1720.6,1218.14 1721.73,1218.65 1722.86,1219.16 1724,1219.68 1725.13,1220.19 1726.26,1220.7 1727.39,1221.21 1728.52,1221.72 1729.65,1222.23 1730.78,1222.74 1731.91,1223.25 1733.04,1223.76 1734.17,1224.27 1735.3,1224.78 1736.43,1225.29 1737.57,1225.8 1738.7,1226.3 1739.83,1226.81 1740.96,1227.32 1742.09,1227.82 1743.22,1228.33 1744.35,1228.83 1745.48,1229.34 1746.61,1229.84 1747.74,1230.35 1748.87,1230.85 1750.01,1231.35 1751.14,1231.85 1752.27,1232.36 1753.4,1232.86 1754.53,1233.36 1755.66,1233.86 1756.79,1234.36 1757.92,1234.86 1759.05,1235.36 1760.18,1235.86 1761.31,1236.35 1762.44,1236.85 1763.58,1237.35 1764.71,1237.84 1765.84,1238.34 1766.97,1238.84 1768.1,1239.33 1769.23,1239.83 1770.36,1240.32 1771.49,1240.81 1772.62,1241.31 1773.75,1241.8 1774.88,1242.29 1776.02,1242.78 1777.15,1243.27 1778.28,1243.76 1779.41,1244.26 1780.54,1244.74 1781.67,1245.23 1782.8,1245.72 1783.93,1246.21 1785.06,1246.7 1786.19,1247.18 1787.32,1247.67 1788.45,1248.16 1789.59,1248.64 1790.72,1249.13 1791.85,1249.61 1792.98,1250.09 1794.11,1250.58 1795.24,1251.06 1796.37,1251.54 1797.5,1252.02 1798.63,1252.51 1799.76,1252.99 1800.89,1253.47 1802.03,1253.94 1803.16,1254.42 1804.29,1254.9 1805.42,1255.38 1806.55,1255.86 1807.68,1256.33 1808.81,1256.81 1809.94,1257.28 1811.07,1257.76 1812.2,1258.23 1813.33,1258.71 1814.46,1259.18 1815.6,1259.65 1816.73,1260.12 1817.86,1260.6 1818.99,1261.07 1820.12,1261.54 1821.25,1262.01 1822.38,1262.47 1823.51,1262.94 1824.64,1263.41 1825.77,1263.88 1826.9,1264.34 1828.03,1264.81 1829.17,1265.27 1830.3,1265.74 1831.43,1266.2 1832.56,1266.67 1833.69,1267.13 1834.82,1267.59 1835.95,1268.05 1837.08,1268.51 1838.21,1268.97 1839.34,1269.43 1840.47,1269.89 1841.61,1270.35 1842.74,1270.81 1843.87,1271.26 1845,1271.72 1846.13,1272.18 1847.26,1272.63 1848.39,1273.09 1849.52,1273.54 1850.65,1273.99 1851.78,1274.45 1852.91,1274.9 1854.04,1275.35 1855.18,1275.8 1856.31,1276.25 1857.44,1276.7 1858.57,1277.15 1859.7,1277.59 1860.83,1278.04 1861.96,1278.49 1863.09,1278.93 1864.22,1279.38 1865.35,1279.82 1866.48,1280.27 1867.62,1280.71 1868.75,1281.15 1869.88,1281.59 1871.01,1282.04 1872.14,1282.48 1873.27,1282.92 1874.4,1283.35 1875.53,1283.79 1876.66,1284.23 1877.79,1284.67 1878.92,1285.1 1880.05,1285.54 1881.19,1285.97 1882.32,1286.41 1883.45,1286.84 1884.58,1287.27 1885.71,1287.71 1886.84,1288.14 1887.97,1288.57 1889.1,1289 1890.23,1289.43 1891.36,1289.86 1892.49,1290.28 1893.63,1290.71 1894.76,1291.14 1895.89,1291.56 1897.02,1291.99 1898.15,1292.41 1899.28,1292.83 1900.41,1293.26 1901.54,1293.68 1902.67,1294.1 1903.8,1294.52 1904.93,1294.94 1906.06,1295.36 1907.2,1295.77 1908.33,1296.19 1909.46,1296.61 1910.59,1297.02 1911.72,1297.44 1912.85,1297.85 1913.98,1298.27 1915.11,1298.68 1916.24,1299.09 1917.37,1299.5 1918.5,1299.91 1919.63,1300.32 1920.77,1300.73 1921.9,1301.14 1923.03,1301.55 1924.16,1301.95 1925.29,1302.36 1926.42,1302.76 1927.55,1303.17 1928.68,1303.57 1929.81,1303.97 1930.94,1304.37 1932.07,1304.77 1933.21,1305.17 1934.34,1305.57 1935.47,1305.97 1936.6,1306.37 1937.73,1306.77 1938.86,1307.16 1939.99,1307.56 1941.12,1307.95 1942.25,1308.35 1943.38,1308.74 1944.51,1309.13 1945.64,1309.52 1946.78,1309.91 1947.91,1310.3 1949.04,1310.69 1950.17,1311.08 1951.3,1311.46 1952.43,1311.85 1953.56,1312.24 1954.69,1312.62 1955.82,1313 1956.95,1313.39 1958.08,1313.77 1959.22,1314.15 1960.35,1314.53 1961.48,1314.91 1962.61,1315.29 1963.74,1315.66 1964.87,1316.04 1966,1316.42 1967.13,1316.79 1968.26,1317.17 1969.39,1317.54 1970.52,1317.91 1971.65,1318.28 1972.79,1318.65 1973.92,1319.02 1975.05,1319.39 1976.18,1319.76 1977.31,1320.13 1978.44,1320.49 1979.57,1320.86 1980.7,1321.22 1981.83,1321.59 1982.96,1321.95 1984.09,1322.31 1985.23,1322.67 1986.36,1323.03 1987.49,1323.39 1988.62,1323.75 1989.75,1324.11 1990.88,1324.46 1992.01,1324.82 1993.14,1325.17 1994.27,1325.53 1995.4,1325.88 1996.53,1326.23 1997.66,1326.58 1998.8,1326.93 1999.93,1327.28 2001.06,1327.63 2002.19,1327.98 2003.32,1328.33 2004.45,1328.67 2005.58,1329.02 2006.71,1329.36 2007.84,1329.7 2008.97,1330.04 2010.1,1330.38 2011.23,1330.72 2012.37,1331.06 2013.5,1331.4 2014.63,1331.74 2015.76,1332.08 2016.89,1332.41 2018.02,1332.75 2019.15,1333.08 2020.28,1333.41 2021.41,1333.74 2022.54,1334.07 2023.67,1334.4 2024.81,1334.73 2025.94,1335.06 2027.07,1335.39 2028.2,1335.71 2029.33,1336.04 2030.46,1336.36 2031.59,1336.68 2032.72,1337.01 2033.85,1337.33 2034.98,1337.65 2036.11,1337.97 2037.24,1338.28 2038.38,1338.6 2039.51,1338.92 2040.64,1339.23 2041.77,1339.55 2042.9,1339.86 2044.03,1340.17 2045.16,1340.48 2046.29,1340.79 2047.42,1341.1 2048.55,1341.41 2049.68,1341.72 2050.82,1342.02 2051.95,1342.33 2053.08,1342.63 2054.21,1342.94 2055.34,1343.24 2056.47,1343.54 2057.6,1343.84 2058.73,1344.14 2059.86,1344.44 2060.99,1344.74 2062.12,1345.03 2063.25,1345.33 2064.39,1345.62 2065.52,1345.91 2066.65,1346.21 2067.78,1346.5 2068.91,1346.79 2070.04,1347.08 2071.17,1347.37 2072.3,1347.65 2073.43,1347.94 2074.56,1348.22 2075.69,1348.51 2076.83,1348.79 2077.96,1349.07 2079.09,1349.35 2080.22,1349.63 2081.35,1349.91 2082.48,1350.19 2083.61,1350.47 2084.74,1350.74 2085.87,1351.02 2087,1351.29 2088.13,1351.56 2089.26,1351.84 2090.4,1352.11 2091.53,1352.38 2092.66,1352.64 2093.79,1352.91 2094.92,1353.18 2096.05,1353.44 2097.18,1353.71 2098.31,1353.97 2099.44,1354.23 2100.57,1354.49 2101.7,1354.75 2102.83,1355.01 2103.97,1355.27 2105.1,1355.53 2106.23,1355.78 2107.36,1356.04 2108.49,1356.29 2109.62,1356.55 2110.75,1356.8 2111.88,1357.05 2113.01,1357.3 2114.14,1357.55 2115.27,1357.79 2116.41,1358.04 2117.54,1358.28 2118.67,1358.53 2119.8,1358.77 2120.93,1359.01 2122.06,1359.25 2123.19,1359.49 2124.32,1359.73 2125.45,1359.97 2126.58,1360.2 2127.71,1360.44 2128.84,1360.67 2129.98,1360.91 2131.11,1361.14 2132.24,1361.37 2133.37,1361.6 2134.5,1361.83 2135.63,1362.06 2136.76,1362.28 2137.89,1362.51 2139.02,1362.73 2140.15,1362.96 2141.28,1363.18 2142.42,1363.4 2143.55,1363.62 2144.68,1363.84 2145.81,1364.06 2146.94,1364.27 2148.07,1364.49 2149.2,1364.7 2150.33,1364.92 2151.46,1365.13 2152.59,1365.34 2153.72,1365.55 2154.85,1365.76 2155.99,1365.96 2157.12,1366.17 2158.25,1366.38 2159.38,1366.58 2160.51,1366.78 2161.64,1366.99 2162.77,1367.19 2163.9,1367.39 2165.03,1367.59 2166.16,1367.78 2167.29,1367.98 2168.43,1368.17 2169.56,1368.37 2170.69,1368.56 2171.82,1368.75 2172.95,1368.94 2174.08,1369.13 2175.21,1369.32 2176.34,1369.51 2177.47,1369.69 2178.6,1369.88 2179.73,1370.06 2180.86,1370.25 2182,1370.43 2183.13,1370.61 2184.26,1370.79 2185.39,1370.97 2186.52,1371.14 2187.65,1371.32 2188.78,1371.49 2189.91,1371.67 2191.04,1371.84 2192.17,1372.01 2193.3,1372.18 2194.43,1372.35 2195.57,1372.52 2196.7,1372.68 2197.83,1372.85 2198.96,1373.01 2200.09,1373.18 2201.22,1373.34 2202.35,1373.5 2203.48,1373.66 2204.61,1373.82 2205.74,1373.97 2206.87,1374.13 2208.01,1374.28 2209.14,1374.44 2210.27,1374.59 2211.4,1374.74 2212.53,1374.89 2213.66,1375.04 2214.79,1375.19 2215.92,1375.34 2217.05,1375.48 2218.18,1375.63 2219.31,1375.77 2220.44,1375.91 2221.58,1376.05 2222.71,1376.19 2223.84,1376.33 2224.97,1376.47 2226.1,1376.6 2227.23,1376.74 2228.36,1376.87 2229.49,1377 2230.62,1377.14 2231.75,1377.27 2232.88,1377.4 2234.02,1377.52 2235.15,1377.65 2236.28,1377.78 2237.41,1377.9 2238.54,1378.02 2239.67,1378.14 2240.8,1378.27 2241.93,1378.38 2243.06,1378.5 2244.19,1378.62 2245.32,1378.74 2246.45,1378.85 2247.59,1378.96 2248.72,1379.08 2249.85,1379.19 2250.98,1379.3 2252.11,1379.41 2253.24,1379.51 2254.37,1379.62 2255.5,1379.73 2256.63,1379.83 2257.76,1379.93 2258.89,1380.03 2260.03,1380.13 2261.16,1380.23 2262.29,1380.33 2263.42,1380.43 2264.55,1380.52 2265.68,1380.62 2266.81,1380.71 2267.94,1380.8 2269.07,1380.89 2270.2,1380.98 2271.33,1381.07 2272.46,1381.16 2273.6,1381.25 2274.73,1381.33 2275.86,1381.41 2276.99,1381.5 2278.12,1381.58 2279.25,1381.66 2280.38,1381.74 2281.51,1381.81 2282.64,1381.89 2283.77,1381.96 2284.9,1382.04 2286.03,1382.11 2287.17,1382.18 2288.3,1382.25 2289.43,1382.32 2290.56,1382.39 2291.69,1382.46 2292.82,1382.52 2293.95,1382.58 2295.08,1382.65 2296.21,1382.71 2297.34,1382.77 2298.47,1382.83 2299.61,1382.89 2300.74,1382.94 2301.87,1383 2303,1383.05 2304.13,1383.11 2305.26,1383.16 2306.39,1383.21 2307.52,1383.26 2308.65,1383.31 2309.78,1383.35 2310.91,1383.4 2312.04,1383.45 2313.18,1383.49 2314.31,1383.53 2315.44,1383.57 2316.57,1383.61 2317.7,1383.65 2318.83,1383.69 2319.96,1383.72 2321.09,1383.76 2322.22,1383.79 2323.35,1383.82 2324.48,1383.86 2325.62,1383.89 2326.75,1383.91 2327.88,1383.94 2329.01,1383.97 2330.14,1383.99 2331.27,1384.02 2332.4,1384.04 2333.53,1384.06 2334.66,1384.08 2335.79,1384.1 2336.92,1384.12 2338.05,1384.13 2339.19,1384.15 2340.32,1384.16 2341.45,1384.18 2342.58,1384.19 2343.71,1384.2 2344.84,1384.21 2345.97,1384.22 2347.1,1384.22 2348.23,1384.23 2349.36,1384.23 2350.49,1384.24 2351.63,1384.24 2352.76,1384.24 "/>
<path clip-path="url(#clip060)" d="M265.897 1377.32 L507.01 1377.32 L507.01 1221.8 L265.897 1221.8  Z" fill="#ffffff" fill-rule="evenodd" fill-opacity="1"/>
<polyline clip-path="url(#clip060)" style="stroke:#000000; stroke-linecap:round; stroke-linejoin:round; stroke-width:4; stroke-opacity:1; fill:none" points="265.897,1377.32 507.01,1377.32 507.01,1221.8 265.897,1221.8 265.897,1377.32 "/>
<polyline clip-path="url(#clip060)" style="stroke:#009af9; stroke-linecap:round; stroke-linejoin:round; stroke-width:4; stroke-opacity:1; fill:none" points="289.884,1273.64 433.805,1273.64 "/>
<path clip-path="url(#clip060)" d="M482.444 1264.99 L473.069 1277.61 L482.931 1290.92 L477.907 1290.92 L470.361 1280.73 L462.815 1290.92 L457.792 1290.92 L467.861 1277.35 L458.648 1264.99 L463.671 1264.99 L470.546 1274.23 L477.421 1264.99 L482.444 1264.99 Z" fill="#000000" fill-rule="nonzero" fill-opacity="1" /><polyline clip-path="url(#clip060)" style="stroke:#e26f46; stroke-linecap:round; stroke-linejoin:round; stroke-width:4; stroke-opacity:1; fill:none" points="289.884,1325.48 433.805,1325.48 "/>
<path clip-path="url(#clip060)" d="M471.634 1345.16 Q469.829 1349.79 468.116 1351.2 Q466.403 1352.62 463.532 1352.62 L460.13 1352.62 L460.13 1349.05 L462.63 1349.05 Q464.389 1349.05 465.361 1348.22 Q466.333 1347.38 467.514 1344.28 L468.278 1342.34 L457.792 1316.83 L462.306 1316.83 L470.407 1337.11 L478.509 1316.83 L483.023 1316.83 L471.634 1345.16 Z" fill="#000000" fill-rule="nonzero" fill-opacity="1" /></svg>
