<?xml version="1.0" encoding="utf-8"?>
<svg xmlns="http://www.w3.org/2000/svg" xmlns:xlink="http://www.w3.org/1999/xlink" width="600" height="400" viewBox="0 0 2400 1600">
<defs>
  <clipPath id="clip590">
    <rect x="0" y="0" width="2400" height="1600"/>
  </clipPath>
</defs>
<path clip-path="url(#clip590)" d="M0 1600 L2400 1600 L2400 0 L0 0  Z" fill="#ffffff" fill-rule="evenodd" fill-opacity="1"/>
<defs>
  <clipPath id="clip591">
    <rect x="480" y="0" width="1681" height="1600"/>
  </clipPath>
</defs>
<path clip-path="url(#clip590)" d="M86.9921 1505.26 L2352.76 1505.26 L2352.76 47.2441 L86.9921 47.2441  Z" fill="#ffffff" fill-rule="evenodd" fill-opacity="1"/>
<defs>
  <clipPath id="clip592">
    <rect x="86" y="47" width="2267" height="1459"/>
  </clipPath>
</defs>
<polyline clip-path="url(#clip592)" style="stroke:#000000; stroke-linecap:round; stroke-linejoin:round; stroke-width:2; stroke-opacity:0.1; fill:none" points="86.9921,1505.26 86.9921,47.2441 "/>
<polyline clip-path="url(#clip592)" style="stroke:#000000; stroke-linecap:round; stroke-linejoin:round; stroke-width:2; stroke-opacity:0.1; fill:none" points="653.433,1505.26 653.433,47.2441 "/>
<polyline clip-path="url(#clip592)" style="stroke:#000000; stroke-linecap:round; stroke-linejoin:round; stroke-width:2; stroke-opacity:0.1; fill:none" points="1219.87,1505.26 1219.87,47.2441 "/>
<polyline clip-path="url(#clip592)" style="stroke:#000000; stroke-linecap:round; stroke-linejoin:round; stroke-width:2; stroke-opacity:0.1; fill:none" points="1786.31,1505.26 1786.31,47.2441 "/>
<polyline clip-path="url(#clip590)" style="stroke:#000000; stroke-linecap:round; stroke-linejoin:round; stroke-width:4; stroke-opacity:1; fill:none" points="86.9921,1505.26 2352.76,1505.26 "/>
<polyline clip-path="url(#clip590)" style="stroke:#000000; stroke-linecap:round; stroke-linejoin:round; stroke-width:4; stroke-opacity:1; fill:none" points="86.9921,1505.26 86.9921,1486.36 "/>
<polyline clip-path="url(#clip590)" style="stroke:#000000; stroke-linecap:round; stroke-linejoin:round; stroke-width:4; stroke-opacity:1; fill:none" points="653.433,1505.26 653.433,1486.36 "/>
<polyline clip-path="url(#clip590)" style="stroke:#000000; stroke-linecap:round; stroke-linejoin:round; stroke-width:4; stroke-opacity:1; fill:none" points="1219.87,1505.26 1219.87,1486.36 "/>
<polyline clip-path="url(#clip590)" style="stroke:#000000; stroke-linecap:round; stroke-linejoin:round; stroke-width:4; stroke-opacity:1; fill:none" points="1786.31,1505.26 1786.31,1486.36 "/>
<path clip-path="url(#clip590)" d="M49.2956 1536.18 Q45.6845 1536.18 43.8558 1539.74 Q42.0502 1543.28 42.0502 1550.41 Q42.0502 1557.52 43.8558 1561.09 Q45.6845 1564.63 49.2956 1564.63 Q52.9298 1564.63 54.7354 1561.09 Q56.564 1557.52 56.564 1550.41 Q56.564 1543.28 54.7354 1539.74 Q52.9298 1536.18 49.2956 1536.18 M49.2956 1532.47 Q55.1057 1532.47 58.1613 1537.08 Q61.2399 1541.66 61.2399 1550.41 Q61.2399 1559.14 58.1613 1563.75 Q55.1057 1568.33 49.2956 1568.33 Q43.4854 1568.33 40.4067 1563.75 Q37.3512 1559.14 37.3512 1550.41 Q37.3512 1541.66 40.4067 1537.08 Q43.4854 1532.47 49.2956 1532.47 Z" fill="#000000" fill-rule="nonzero" fill-opacity="1" /><path clip-path="url(#clip590)" d="M69.4575 1561.78 L74.3417 1561.78 L74.3417 1567.66 L69.4575 1567.66 L69.4575 1561.78 Z" fill="#000000" fill-rule="nonzero" fill-opacity="1" /><path clip-path="url(#clip590)" d="M94.5268 1536.18 Q90.9157 1536.18 89.087 1539.74 Q87.2815 1543.28 87.2815 1550.41 Q87.2815 1557.52 89.087 1561.09 Q90.9157 1564.63 94.5268 1564.63 Q98.161 1564.63 99.9666 1561.09 Q101.795 1557.52 101.795 1550.41 Q101.795 1543.28 99.9666 1539.74 Q98.161 1536.18 94.5268 1536.18 M94.5268 1532.47 Q100.337 1532.47 103.393 1537.08 Q106.471 1541.66 106.471 1550.41 Q106.471 1559.14 103.393 1563.75 Q100.337 1568.33 94.5268 1568.33 Q88.7167 1568.33 85.638 1563.75 Q82.5824 1559.14 82.5824 1550.41 Q82.5824 1541.66 85.638 1537.08 Q88.7167 1532.47 94.5268 1532.47 Z" fill="#000000" fill-rule="nonzero" fill-opacity="1" /><path clip-path="url(#clip590)" d="M124.689 1536.18 Q121.078 1536.18 119.249 1539.74 Q117.443 1543.28 117.443 1550.41 Q117.443 1557.52 119.249 1561.09 Q121.078 1564.63 124.689 1564.63 Q128.323 1564.63 130.128 1561.09 Q131.957 1557.52 131.957 1550.41 Q131.957 1543.28 130.128 1539.74 Q128.323 1536.18 124.689 1536.18 M124.689 1532.47 Q130.499 1532.47 133.554 1537.08 Q136.633 1541.66 136.633 1550.41 Q136.633 1559.14 133.554 1563.75 Q130.499 1568.33 124.689 1568.33 Q118.879 1568.33 115.8 1563.75 Q112.744 1559.14 112.744 1550.41 Q112.744 1541.66 115.8 1537.08 Q118.879 1532.47 124.689 1532.47 Z" fill="#000000" fill-rule="nonzero" fill-opacity="1" /><path clip-path="url(#clip590)" d="M616.234 1536.18 Q612.623 1536.18 610.794 1539.74 Q608.989 1543.28 608.989 1550.41 Q608.989 1557.52 610.794 1561.09 Q612.623 1564.63 616.234 1564.63 Q619.868 1564.63 621.674 1561.09 Q623.503 1557.52 623.503 1550.41 Q623.503 1543.28 621.674 1539.74 Q619.868 1536.18 616.234 1536.18 M616.234 1532.47 Q622.044 1532.47 625.1 1537.08 Q628.179 1541.66 628.179 1550.41 Q628.179 1559.14 625.1 1563.75 Q622.044 1568.33 616.234 1568.33 Q610.424 1568.33 607.345 1563.75 Q604.29 1559.14 604.29 1550.41 Q604.29 1541.66 607.345 1537.08 Q610.424 1532.47 616.234 1532.47 Z" fill="#000000" fill-rule="nonzero" fill-opacity="1" /><path clip-path="url(#clip590)" d="M636.396 1561.78 L641.28 1561.78 L641.28 1567.66 L636.396 1567.66 L636.396 1561.78 Z" fill="#000000" fill-rule="nonzero" fill-opacity="1" /><path clip-path="url(#clip590)" d="M661.465 1536.18 Q657.854 1536.18 656.026 1539.74 Q654.22 1543.28 654.22 1550.41 Q654.22 1557.52 656.026 1561.09 Q657.854 1564.63 661.465 1564.63 Q665.1 1564.63 666.905 1561.09 Q668.734 1557.52 668.734 1550.41 Q668.734 1543.28 666.905 1539.74 Q665.1 1536.18 661.465 1536.18 M661.465 1532.47 Q667.276 1532.47 670.331 1537.08 Q673.41 1541.66 673.41 1550.41 Q673.41 1559.14 670.331 1563.75 Q667.276 1568.33 661.465 1568.33 Q655.655 1568.33 652.577 1563.75 Q649.521 1559.14 649.521 1550.41 Q649.521 1541.66 652.577 1537.08 Q655.655 1532.47 661.465 1532.47 Z" fill="#000000" fill-rule="nonzero" fill-opacity="1" /><path clip-path="url(#clip590)" d="M681.674 1533.1 L700.03 1533.1 L700.03 1537.04 L685.956 1537.04 L685.956 1545.51 Q686.975 1545.16 687.993 1545 Q689.012 1544.81 690.03 1544.81 Q695.817 1544.81 699.197 1547.98 Q702.576 1551.16 702.576 1556.57 Q702.576 1562.15 699.104 1565.25 Q695.632 1568.33 689.313 1568.33 Q687.137 1568.33 684.868 1567.96 Q682.623 1567.59 680.215 1566.85 L680.215 1562.15 Q682.299 1563.28 684.521 1563.84 Q686.743 1564.4 689.22 1564.4 Q693.225 1564.4 695.562 1562.29 Q697.9 1560.18 697.9 1556.57 Q697.9 1552.96 695.562 1550.85 Q693.225 1548.75 689.22 1548.75 Q687.345 1548.75 685.47 1549.16 Q683.618 1549.58 681.674 1550.46 L681.674 1533.1 Z" fill="#000000" fill-rule="nonzero" fill-opacity="1" /><path clip-path="url(#clip590)" d="M1182.18 1536.18 Q1178.57 1536.18 1176.74 1539.74 Q1174.93 1543.28 1174.93 1550.41 Q1174.93 1557.52 1176.74 1561.09 Q1178.57 1564.63 1182.18 1564.63 Q1185.81 1564.63 1187.62 1561.09 Q1189.45 1557.52 1189.45 1550.41 Q1189.45 1543.28 1187.62 1539.74 Q1185.81 1536.18 1182.18 1536.18 M1182.18 1532.47 Q1187.99 1532.47 1191.04 1537.08 Q1194.12 1541.66 1194.12 1550.41 Q1194.12 1559.14 1191.04 1563.75 Q1187.99 1568.33 1182.18 1568.33 Q1176.37 1568.33 1173.29 1563.75 Q1170.23 1559.14 1170.23 1550.41 Q1170.23 1541.66 1173.29 1537.08 Q1176.37 1532.47 1182.18 1532.47 Z" fill="#000000" fill-rule="nonzero" fill-opacity="1" /><path clip-path="url(#clip590)" d="M1202.34 1561.78 L1207.22 1561.78 L1207.22 1567.66 L1202.34 1567.66 L1202.34 1561.78 Z" fill="#000000" fill-rule="nonzero" fill-opacity="1" /><path clip-path="url(#clip590)" d="M1218.22 1563.72 L1225.86 1563.72 L1225.86 1537.36 L1217.55 1539.03 L1217.55 1534.77 L1225.81 1533.1 L1230.49 1533.1 L1230.49 1563.72 L1238.13 1563.72 L1238.13 1567.66 L1218.22 1567.66 L1218.22 1563.72 Z" fill="#000000" fill-rule="nonzero" fill-opacity="1" /><path clip-path="url(#clip590)" d="M1257.57 1536.18 Q1253.96 1536.18 1252.13 1539.74 Q1250.33 1543.28 1250.33 1550.41 Q1250.33 1557.52 1252.13 1561.09 Q1253.96 1564.63 1257.57 1564.63 Q1261.2 1564.63 1263.01 1561.09 Q1264.84 1557.52 1264.84 1550.41 Q1264.84 1543.28 1263.01 1539.74 Q1261.2 1536.18 1257.57 1536.18 M1257.57 1532.47 Q1263.38 1532.47 1266.44 1537.08 Q1269.51 1541.66 1269.51 1550.41 Q1269.51 1559.14 1266.44 1563.75 Q1263.38 1568.33 1257.57 1568.33 Q1251.76 1568.33 1248.68 1563.75 Q1245.63 1559.14 1245.63 1550.41 Q1245.63 1541.66 1248.68 1537.08 Q1251.76 1532.47 1257.57 1532.47 Z" fill="#000000" fill-rule="nonzero" fill-opacity="1" /><path clip-path="url(#clip590)" d="M1749.12 1536.18 Q1745.5 1536.18 1743.68 1539.74 Q1741.87 1543.28 1741.87 1550.41 Q1741.87 1557.52 1743.68 1561.09 Q1745.5 1564.63 1749.12 1564.63 Q1752.75 1564.63 1754.56 1561.09 Q1756.38 1557.52 1756.38 1550.41 Q1756.38 1543.28 1754.56 1539.74 Q1752.75 1536.18 1749.12 1536.18 M1749.12 1532.47 Q1754.93 1532.47 1757.98 1537.08 Q1761.06 1541.66 1761.06 1550.41 Q1761.06 1559.14 1757.98 1563.75 Q1754.93 1568.33 1749.12 1568.33 Q1743.31 1568.33 1740.23 1563.75 Q1737.17 1559.14 1737.17 1550.41 Q1737.17 1541.66 1740.23 1537.08 Q1743.31 1532.47 1749.12 1532.47 Z" fill="#000000" fill-rule="nonzero" fill-opacity="1" /><path clip-path="url(#clip590)" d="M1769.28 1561.78 L1774.16 1561.78 L1774.16 1567.66 L1769.28 1567.66 L1769.28 1561.78 Z" fill="#000000" fill-rule="nonzero" fill-opacity="1" /><path clip-path="url(#clip590)" d="M1785.16 1563.72 L1792.8 1563.72 L1792.8 1537.36 L1784.49 1539.03 L1784.49 1534.77 L1792.75 1533.1 L1797.43 1533.1 L1797.43 1563.72 L1805.06 1563.72 L1805.06 1567.66 L1785.16 1567.66 L1785.16 1563.72 Z" fill="#000000" fill-rule="nonzero" fill-opacity="1" /><path clip-path="url(#clip590)" d="M1814.56 1533.1 L1832.91 1533.1 L1832.91 1537.04 L1818.84 1537.04 L1818.84 1545.51 Q1819.86 1545.16 1820.87 1545 Q1821.89 1544.81 1822.91 1544.81 Q1828.7 1544.81 1832.08 1547.98 Q1835.46 1551.16 1835.46 1556.57 Q1835.46 1562.15 1831.99 1565.25 Q1828.51 1568.33 1822.19 1568.33 Q1820.02 1568.33 1817.75 1567.96 Q1815.5 1567.59 1813.1 1566.85 L1813.1 1562.15 Q1815.18 1563.28 1817.4 1563.84 Q1819.62 1564.4 1822.1 1564.4 Q1826.11 1564.4 1828.44 1562.29 Q1830.78 1560.18 1830.78 1556.57 Q1830.78 1552.96 1828.44 1550.85 Q1826.11 1548.75 1822.1 1548.75 Q1820.23 1548.75 1818.35 1549.16 Q1816.5 1549.58 1814.56 1550.46 L1814.56 1533.1 Z" fill="#000000" fill-rule="nonzero" fill-opacity="1" /><path clip-path="url(#clip590)" d="M1218.94 1604.35 L1218.94 1614.48 L1231 1614.48 L1231 1619.03 L1218.94 1619.03 L1218.94 1638.38 Q1218.94 1642.74 1220.11 1643.98 Q1221.32 1645.22 1224.98 1645.22 L1231 1645.22 L1231 1650.12 L1224.98 1650.12 Q1218.2 1650.12 1215.62 1647.61 Q1213.05 1645.06 1213.05 1638.38 L1213.05 1619.03 L1208.75 1619.03 L1208.75 1614.48 L1213.05 1614.48 L1213.05 1604.35 L1218.94 1604.35 Z" fill="#000000" fill-rule="nonzero" fill-opacity="1" /><polyline clip-path="url(#clip592)" style="stroke:#000000; stroke-linecap:round; stroke-linejoin:round; stroke-width:2; stroke-opacity:0.1; fill:none" points="86.9921,1293.96 2352.76,1293.96 "/>
<polyline clip-path="url(#clip592)" style="stroke:#000000; stroke-linecap:round; stroke-linejoin:round; stroke-width:2; stroke-opacity:0.1; fill:none" points="86.9921,1035.1 2352.76,1035.1 "/>
<polyline clip-path="url(#clip592)" style="stroke:#000000; stroke-linecap:round; stroke-linejoin:round; stroke-width:2; stroke-opacity:0.1; fill:none" points="86.9921,776.252 2352.76,776.252 "/>
<polyline clip-path="url(#clip592)" style="stroke:#000000; stroke-linecap:round; stroke-linejoin:round; stroke-width:2; stroke-opacity:0.1; fill:none" points="86.9921,517.399 2352.76,517.399 "/>
<polyline clip-path="url(#clip592)" style="stroke:#000000; stroke-linecap:round; stroke-linejoin:round; stroke-width:2; stroke-opacity:0.1; fill:none" points="86.9921,258.547 2352.76,258.547 "/>
<polyline clip-path="url(#clip590)" style="stroke:#000000; stroke-linecap:round; stroke-linejoin:round; stroke-width:4; stroke-opacity:1; fill:none" points="86.9921,1505.26 86.9921,47.2441 "/>
<polyline clip-path="url(#clip590)" style="stroke:#000000; stroke-linecap:round; stroke-linejoin:round; stroke-width:4; stroke-opacity:1; fill:none" points="86.9921,1293.96 105.89,1293.96 "/>
<polyline clip-path="url(#clip590)" style="stroke:#000000; stroke-linecap:round; stroke-linejoin:round; stroke-width:4; stroke-opacity:1; fill:none" points="86.9921,1035.1 105.89,1035.1 "/>
<polyline clip-path="url(#clip590)" style="stroke:#000000; stroke-linecap:round; stroke-linejoin:round; stroke-width:4; stroke-opacity:1; fill:none" points="86.9921,776.252 105.89,776.252 "/>
<polyline clip-path="url(#clip590)" style="stroke:#000000; stroke-linecap:round; stroke-linejoin:round; stroke-width:4; stroke-opacity:1; fill:none" points="86.9921,517.399 105.89,517.399 "/>
<polyline clip-path="url(#clip590)" style="stroke:#000000; stroke-linecap:round; stroke-linejoin:round; stroke-width:4; stroke-opacity:1; fill:none" points="86.9921,258.547 105.89,258.547 "/>
<path clip-path="url(#clip590)" d="M-71.0443 1294.41 L-41.3685 1294.41 L-41.3685 1298.34 L-71.0443 1298.34 L-71.0443 1294.41 Z" fill="#000000" fill-rule="nonzero" fill-opacity="1" /><path clip-path="url(#clip590)" d="M-27.2482 1307.3 L-10.9288 1307.3 L-10.9288 1311.24 L-32.8732 1311.24 L-32.8732 1307.3 Q-30.2111 1304.55 -25.6278 1299.92 Q-21.0214 1295.27 -19.8408 1293.92 Q-17.5955 1291.4 -16.7158 1289.66 Q-15.8131 1287.9 -15.8131 1286.21 Q-15.8131 1283.46 -17.7575 1281.72 Q-19.6788 1279.99 -22.7806 1279.99 Q-24.9797 1279.99 -27.4334 1280.75 Q-29.8639 1281.52 -32.6417 1283.07 L-32.6417 1278.34 Q-29.8176 1277.21 -27.3639 1276.63 Q-24.9102 1276.05 -22.8732 1276.05 Q-17.5029 1276.05 -14.3085 1278.74 Q-11.114 1281.42 -11.114 1285.91 Q-11.114 1288.04 -11.9242 1289.96 Q-12.7112 1291.86 -14.8177 1294.45 Q-15.3964 1295.13 -18.4982 1298.34 Q-21.6001 1301.54 -27.2482 1307.3 Z" fill="#000000" fill-rule="nonzero" fill-opacity="1" /><path clip-path="url(#clip590)" d="M8.88587 1279.76 Q5.27478 1279.76 3.44608 1283.32 Q1.64054 1286.86 1.64054 1293.99 Q1.64054 1301.1 3.44608 1304.66 Q5.27478 1308.2 8.88587 1308.2 Q12.5201 1308.2 14.3257 1304.66 Q16.1543 1301.1 16.1543 1293.99 Q16.1543 1286.86 14.3257 1283.32 Q12.5201 1279.76 8.88587 1279.76 M8.88587 1276.05 Q14.696 1276.05 17.7516 1280.66 Q20.8303 1285.24 20.8303 1293.99 Q20.8303 1302.72 17.7516 1307.33 Q14.696 1311.91 8.88587 1311.91 Q3.07572 1311.91 -0.00297114 1307.33 Q-3.05851 1302.72 -3.05851 1293.99 Q-3.05851 1285.24 -0.00297114 1280.66 Q3.07572 1276.05 8.88587 1276.05 Z" fill="#000000" fill-rule="nonzero" fill-opacity="1" /><path clip-path="url(#clip590)" d="M39.0477 1279.76 Q35.4367 1279.76 33.608 1283.32 Q31.8024 1286.86 31.8024 1293.99 Q31.8024 1301.1 33.608 1304.66 Q35.4367 1308.2 39.0477 1308.2 Q42.682 1308.2 44.4875 1304.66 Q46.3162 1301.1 46.3162 1293.99 Q46.3162 1286.86 44.4875 1283.32 Q42.682 1279.76 39.0477 1279.76 M39.0477 1276.05 Q44.8579 1276.05 47.9134 1280.66 Q50.9921 1285.24 50.9921 1293.99 Q50.9921 1302.72 47.9134 1307.33 Q44.8579 1311.91 39.0477 1311.91 Q33.2376 1311.91 30.1589 1307.33 Q27.1034 1302.72 27.1034 1293.99 Q27.1034 1285.24 30.1589 1280.66 Q33.2376 1276.05 39.0477 1276.05 Z" fill="#000000" fill-rule="nonzero" fill-opacity="1" /><path clip-path="url(#clip590)" d="M-71.0443 1035.56 L-41.3685 1035.56 L-41.3685 1039.49 L-71.0443 1039.49 L-71.0443 1035.56 Z" fill="#000000" fill-rule="nonzero" fill-opacity="1" /><path clip-path="url(#clip590)" d="M-30.4658 1048.45 L-22.8269 1048.45 L-22.8269 1022.08 L-31.1371 1023.75 L-31.1371 1019.49 L-22.8732 1017.82 L-18.1973 1017.82 L-18.1973 1048.45 L-10.5585 1048.45 L-10.5585 1052.38 L-30.4658 1052.38 L-30.4658 1048.45 Z" fill="#000000" fill-rule="nonzero" fill-opacity="1" /><path clip-path="url(#clip590)" d="M8.88587 1020.9 Q5.27478 1020.9 3.44608 1024.47 Q1.64054 1028.01 1.64054 1035.14 Q1.64054 1042.25 3.44608 1045.81 Q5.27478 1049.35 8.88587 1049.35 Q12.5201 1049.35 14.3257 1045.81 Q16.1543 1042.25 16.1543 1035.14 Q16.1543 1028.01 14.3257 1024.47 Q12.5201 1020.9 8.88587 1020.9 M8.88587 1017.2 Q14.696 1017.2 17.7516 1021.81 Q20.8303 1026.39 20.8303 1035.14 Q20.8303 1043.87 17.7516 1048.47 Q14.696 1053.06 8.88587 1053.06 Q3.07572 1053.06 -0.00297114 1048.47 Q-3.05851 1043.87 -3.05851 1035.14 Q-3.05851 1026.39 -0.00297114 1021.81 Q3.07572 1017.2 8.88587 1017.2 Z" fill="#000000" fill-rule="nonzero" fill-opacity="1" /><path clip-path="url(#clip590)" d="M39.0477 1020.9 Q35.4367 1020.9 33.608 1024.47 Q31.8024 1028.01 31.8024 1035.14 Q31.8024 1042.25 33.608 1045.81 Q35.4367 1049.35 39.0477 1049.35 Q42.682 1049.35 44.4875 1045.81 Q46.3162 1042.25 46.3162 1035.14 Q46.3162 1028.01 44.4875 1024.47 Q42.682 1020.9 39.0477 1020.9 M39.0477 1017.2 Q44.8579 1017.2 47.9134 1021.81 Q50.9921 1026.39 50.9921 1035.14 Q50.9921 1043.87 47.9134 1048.47 Q44.8579 1053.06 39.0477 1053.06 Q33.2376 1053.06 30.1589 1048.47 Q27.1034 1043.87 27.1034 1035.14 Q27.1034 1026.39 30.1589 1021.81 Q33.2376 1017.2 39.0477 1017.2 Z" fill="#000000" fill-rule="nonzero" fill-opacity="1" /><path clip-path="url(#clip590)" d="M39.0477 762.051 Q35.4367 762.051 33.608 765.615 Q31.8024 769.157 31.8024 776.287 Q31.8024 783.393 33.608 786.958 Q35.4367 790.5 39.0477 790.5 Q42.682 790.5 44.4875 786.958 Q46.3162 783.393 46.3162 776.287 Q46.3162 769.157 44.4875 765.615 Q42.682 762.051 39.0477 762.051 M39.0477 758.347 Q44.8579 758.347 47.9134 762.953 Q50.9921 767.537 50.9921 776.287 Q50.9921 785.013 47.9134 789.62 Q44.8579 794.203 39.0477 794.203 Q33.2376 794.203 30.1589 789.62 Q27.1034 785.013 27.1034 776.287 Q27.1034 767.537 30.1589 762.953 Q33.2376 758.347 39.0477 758.347 Z" fill="#000000" fill-rule="nonzero" fill-opacity="1" /><path clip-path="url(#clip590)" d="M-30.4658 530.744 L-22.8269 530.744 L-22.8269 504.379 L-31.1371 506.045 L-31.1371 501.786 L-22.8732 500.119 L-18.1973 500.119 L-18.1973 530.744 L-10.5585 530.744 L-10.5585 534.679 L-30.4658 534.679 L-30.4658 530.744 Z" fill="#000000" fill-rule="nonzero" fill-opacity="1" /><path clip-path="url(#clip590)" d="M8.88587 503.198 Q5.27478 503.198 3.44608 506.763 Q1.64054 510.305 1.64054 517.434 Q1.64054 524.541 3.44608 528.105 Q5.27478 531.647 8.88587 531.647 Q12.5201 531.647 14.3257 528.105 Q16.1543 524.541 16.1543 517.434 Q16.1543 510.305 14.3257 506.763 Q12.5201 503.198 8.88587 503.198 M8.88587 499.494 Q14.696 499.494 17.7516 504.101 Q20.8303 508.684 20.8303 517.434 Q20.8303 526.161 17.7516 530.767 Q14.696 535.351 8.88587 535.351 Q3.07572 535.351 -0.00297114 530.767 Q-3.05851 526.161 -3.05851 517.434 Q-3.05851 508.684 -0.00297114 504.101 Q3.07572 499.494 8.88587 499.494 Z" fill="#000000" fill-rule="nonzero" fill-opacity="1" /><path clip-path="url(#clip590)" d="M39.0477 503.198 Q35.4367 503.198 33.608 506.763 Q31.8024 510.305 31.8024 517.434 Q31.8024 524.541 33.608 528.105 Q35.4367 531.647 39.0477 531.647 Q42.682 531.647 44.4875 528.105 Q46.3162 524.541 46.3162 517.434 Q46.3162 510.305 44.4875 506.763 Q42.682 503.198 39.0477 503.198 M39.0477 499.494 Q44.8579 499.494 47.9134 504.101 Q50.9921 508.684 50.9921 517.434 Q50.9921 526.161 47.9134 530.767 Q44.8579 535.351 39.0477 535.351 Q33.2376 535.351 30.1589 530.767 Q27.1034 526.161 27.1034 517.434 Q27.1034 508.684 30.1589 504.101 Q33.2376 499.494 39.0477 499.494 Z" fill="#000000" fill-rule="nonzero" fill-opacity="1" /><path clip-path="url(#clip590)" d="M-27.2482 271.892 L-10.9288 271.892 L-10.9288 275.827 L-32.8732 275.827 L-32.8732 271.892 Q-30.2111 269.137 -25.6278 264.507 Q-21.0214 259.855 -19.8408 258.512 Q-17.5955 255.989 -16.7158 254.253 Q-15.8131 252.494 -15.8131 250.804 Q-15.8131 248.049 -17.7575 246.313 Q-19.6788 244.577 -22.7806 244.577 Q-24.9797 244.577 -27.4334 245.341 Q-29.8639 246.105 -32.6417 247.656 L-32.6417 242.933 Q-29.8176 241.799 -27.3639 241.22 Q-24.9102 240.642 -22.8732 240.642 Q-17.5029 240.642 -14.3085 243.327 Q-11.114 246.012 -11.114 250.503 Q-11.114 252.632 -11.9242 254.554 Q-12.7112 256.452 -14.8177 259.044 Q-15.3964 259.716 -18.4982 262.933 Q-21.6001 266.128 -27.2482 271.892 Z" fill="#000000" fill-rule="nonzero" fill-opacity="1" /><path clip-path="url(#clip590)" d="M8.88587 244.345 Q5.27478 244.345 3.44608 247.91 Q1.64054 251.452 1.64054 258.582 Q1.64054 265.688 3.44608 269.253 Q5.27478 272.794 8.88587 272.794 Q12.5201 272.794 14.3257 269.253 Q16.1543 265.688 16.1543 258.582 Q16.1543 251.452 14.3257 247.91 Q12.5201 244.345 8.88587 244.345 M8.88587 240.642 Q14.696 240.642 17.7516 245.248 Q20.8303 249.832 20.8303 258.582 Q20.8303 267.308 17.7516 271.915 Q14.696 276.498 8.88587 276.498 Q3.07572 276.498 -0.00297114 271.915 Q-3.05851 267.308 -3.05851 258.582 Q-3.05851 249.832 -0.00297114 245.248 Q3.07572 240.642 8.88587 240.642 Z" fill="#000000" fill-rule="nonzero" fill-opacity="1" /><path clip-path="url(#clip590)" d="M39.0477 244.345 Q35.4367 244.345 33.608 247.91 Q31.8024 251.452 31.8024 258.582 Q31.8024 265.688 33.608 269.253 Q35.4367 272.794 39.0477 272.794 Q42.682 272.794 44.4875 269.253 Q46.3162 265.688 46.3162 258.582 Q46.3162 251.452 44.4875 247.91 Q42.682 244.345 39.0477 244.345 M39.0477 240.642 Q44.8579 240.642 47.9134 245.248 Q50.9921 249.832 50.9921 258.582 Q50.9921 267.308 47.9134 271.915 Q44.8579 276.498 39.0477 276.498 Q33.2376 276.498 30.1589 271.915 Q27.1034 267.308 27.1034 258.582 Q27.1034 249.832 30.1589 245.248 Q33.2376 240.642 39.0477 240.642 Z" fill="#000000" fill-rule="nonzero" fill-opacity="1" /><polyline clip-path="url(#clip592)" style="stroke:#009af9; stroke-linecap:round; stroke-linejoin:round; stroke-width:4; stroke-opacity:1; fill:none" points="86.9921,1459.49 88.125,1460.21 89.2579,1460.86 90.3908,1461.45 91.5237,1461.98 92.6565,1462.45 93.7894,1462.86 94.9223,1463.21 96.0552,1463.49 97.1881,1463.71 98.3209,1463.87 99.4538,1463.96 100.587,1464 101.72,1463.96 102.852,1463.87 103.985,1463.71 105.118,1463.48 106.251,1463.2 107.384,1462.85 108.517,1462.43 109.65,1461.95 110.783,1461.4 111.916,1460.79 113.048,1460.11 114.181,1459.37 115.314,1458.57 116.447,1457.7 117.58,1456.76 118.713,1455.76 119.846,1454.69 120.979,1453.55 122.111,1452.35 123.244,1451.09 124.377,1449.76 125.51,1448.36 126.643,1446.89 127.776,1445.36 128.909,1443.77 130.042,1442.11 131.175,1440.38 132.307,1438.58 133.44,1436.72 134.573,1434.8 135.706,1432.81 136.839,1430.75 137.972,1428.62 139.105,1426.43 140.238,1424.18 141.37,1421.86 142.503,1419.47 143.636,1417.02 144.769,1414.5 145.902,1411.92 147.035,1409.27 148.168,1406.55 149.301,1403.78 150.434,1400.93 151.566,1398.02 152.699,1395.05 153.832,1392.01 154.965,1388.91 156.098,1385.75 157.231,1382.52 158.364,1379.23 159.497,1375.87 160.629,1372.45 161.762,1368.97 162.895,1365.43 164.028,1361.82 165.161,1358.15 166.294,1354.42 167.427,1350.63 168.56,1346.78 169.693,1342.86 170.825,1338.89 171.958,1334.85 173.091,1330.76 174.224,1326.6 175.357,1322.39 176.49,1318.11 177.623,1313.78 178.756,1309.39 179.888,1304.94 181.021,1300.44 182.154,1295.87 183.287,1291.26 184.42,1286.58 185.553,1281.85 186.686,1277.06 187.819,1272.22 188.951,1267.32 190.084,1262.37 191.217,1257.37 192.35,1252.31 193.483,1247.2 194.616,1242.04 195.749,1236.82 196.882,1231.56 198.015,1226.24 199.147,1220.88 200.28,1215.46 201.413,1210 202.546,1204.49 203.679,1198.92 204.812,1193.32 205.945,1187.66 207.078,1181.96 208.21,1176.21 209.343,1170.42 210.476,1164.59 211.609,1158.71 212.742,1152.78 213.875,1146.82 215.008,1140.81 216.141,1134.76 217.274,1128.67 218.406,1122.54 219.539,1116.37 220.672,1110.16 221.805,1103.92 222.938,1097.63 224.071,1091.31 225.204,1084.96 226.337,1078.57 227.469,1072.14 228.602,1065.68 229.735,1059.19 230.868,1052.66 232.001,1046.11 233.134,1039.52 234.267,1032.9 235.4,1026.25 236.533,1019.58 237.665,1012.87 238.798,1006.14 239.931,999.381 241.064,992.597 242.197,985.788 243.33,978.955 244.463,972.098 245.596,965.219 246.728,958.318 247.861,951.396 248.994,944.453 250.127,937.491 251.26,930.511 252.393,923.512 253.526,916.496 254.659,909.465 255.792,902.417 256.924,895.355 258.057,888.279 259.19,881.19 260.323,874.089 261.456,866.977 262.589,859.854 263.722,852.721 264.855,845.58 265.987,838.43 267.12,831.273 268.253,824.11 269.386,816.941 270.519,809.767 271.652,802.59 272.785,795.409 273.918,788.226 275.051,781.042 276.183,773.857 277.316,766.673 278.449,759.489 279.582,752.308 280.715,745.129 281.848,737.954 282.981,730.783 284.114,723.618 285.246,716.459 286.379,709.307 287.512,702.162 288.645,695.027 289.778,687.9 290.911,680.784 292.044,673.679 293.177,666.586 294.31,659.506 295.442,652.439 296.575,645.387 297.708,638.35 298.841,631.329 299.974,624.324 301.107,617.337 302.24,610.369 303.373,603.42 304.505,596.491 305.638,589.583 306.771,582.696 307.904,575.832 309.037,568.991 310.17,562.174 311.303,555.381 312.436,548.614 313.569,541.874 314.701,535.16 315.834,528.474 316.967,521.817 318.1,515.189 319.233,508.59 320.366,502.023 321.499,495.487 322.632,488.984 323.764,482.513 324.897,476.076 326.03,469.673 327.163,463.305 328.296,456.973 329.429,450.678 330.562,444.419 331.695,438.199 332.827,432.016 333.96,425.873 335.093,419.77 336.226,413.707 337.359,407.686 338.492,401.706 339.625,395.768 340.758,389.874 341.891,384.023 343.023,378.216 344.156,372.454 345.289,366.738 346.422,361.067 347.555,355.444 348.688,349.867 349.821,344.338 350.954,338.858 352.086,333.426 353.219,328.044 354.352,322.711 355.485,317.429 356.618,312.198 357.751,307.019 358.884,301.891 360.017,296.816 361.15,291.794 362.282,286.826 363.415,281.911 364.548,277.051 365.681,272.245 366.814,267.495 367.947,262.801 369.08,258.163 370.213,253.581 371.345,249.056 372.478,244.589 373.611,240.179 374.744,235.827 375.877,231.534 377.01,227.3 378.143,223.125 379.276,219.01 380.409,214.955 381.541,210.96 382.674,207.025 383.807,203.151 384.94,199.339 386.073,195.588 387.206,191.898 388.339,188.271 389.472,184.706 390.604,181.204 391.737,177.764 392.87,174.387 394.003,171.074 395.136,167.824 396.269,164.638 397.402,161.516 398.535,158.457 399.668,155.463 400.8,152.534 401.933,149.669 403.066,146.869 404.199,144.133 405.332,141.463 406.465,138.858 407.598,136.319 408.731,133.844 409.863,131.435 410.996,129.092 412.129,126.815 413.262,124.603 414.395,122.457 415.528,120.377 416.661,118.363 417.794,116.415 418.927,114.533 420.059,112.717 421.192,110.967 422.325,109.283 423.458,107.665 424.591,106.113 425.724,104.627 426.857,103.207 427.99,101.854 429.122,100.566 430.255,99.3437 431.388,98.1876 432.521,97.0972 433.654,96.0725 434.787,95.1135 435.92,94.2199 437.053,93.3918 438.186,92.629 439.318,91.9314 440.451,91.2988 441.584,90.7313 442.717,90.2286 443.85,89.7906 444.983,89.4171 446.116,89.108 447.249,88.8632 448.381,88.6824 449.514,88.5655 450.647,88.5123 451.78,88.5226 452.913,88.5963 454.046,88.733 455.179,88.9327 456.312,89.1951 457.445,89.5199 458.577,89.9071 459.71,90.3562 460.843,90.8671 461.976,91.4396 463.109,92.0733 464.242,92.7681 465.375,93.5237 466.508,94.3398 467.64,95.2161 468.773,96.1524 469.906,97.1483 471.039,98.2037 472.172,99.3182 473.305,100.491 474.438,101.723 475.571,103.013 476.703,104.361 477.836,105.767 478.969,107.229 480.102,108.749 481.235,110.325 482.368,111.958 483.501,113.646 484.634,115.39 485.767,117.19 486.899,119.044 488.032,120.953 489.165,122.916 490.298,124.932 491.431,127.003 492.564,129.126 493.697,131.302 494.83,133.531 495.962,135.812 497.095,138.144 498.228,140.527 499.361,142.962 500.494,145.447 501.627,147.982 502.76,150.566 503.893,153.2 505.026,155.883 506.158,158.615 507.291,161.395 508.424,164.222 509.557,167.097 510.69,170.018 511.823,172.987 512.956,176.001 514.089,179.061 515.221,182.166 516.354,185.317 517.487,188.512 518.62,191.751 519.753,195.033 520.886,198.359 522.019,201.728 523.152,205.139 524.285,208.592 525.417,212.087 526.55,215.623 527.683,219.199 528.816,222.816 529.949,226.473 531.082,230.17 532.215,233.905 533.348,237.679 534.48,241.492 535.613,245.342 536.746,249.23 537.879,253.154 539.012,257.116 540.145,261.113 541.278,265.146 542.411,269.215 543.544,273.318 544.676,277.456 545.809,281.628 546.942,285.833 548.075,290.072 549.208,294.344 550.341,298.648 551.474,302.984 552.607,307.351 553.739,311.75 554.872,316.179 556.005,320.639 557.138,325.129 558.271,329.648 559.404,334.197 560.537,338.774 561.67,343.38 562.803,348.013 563.935,352.674 565.068,357.362 566.201,362.077 567.334,366.818 568.467,371.585 569.6,376.378 570.733,381.196 571.866,386.038 572.998,390.905 574.131,395.796 575.264,400.71 576.397,405.648 577.53,410.609 578.663,415.591 579.796,420.596 580.929,425.623 582.062,430.671 583.194,435.74 584.327,440.829 585.46,445.939 586.593,451.068 587.726,456.217 588.859,461.385 589.992,466.571 591.125,471.776 592.257,476.999 593.39,482.24 594.523,487.498 595.656,492.772 596.789,498.063 597.922,503.371 599.055,508.694 600.188,514.033 601.321,519.386 602.453,524.755 603.586,530.138 604.719,535.535 605.852,540.946 606.985,546.37 608.118,551.808 609.251,557.258 610.384,562.72 611.516,568.195 612.649,573.681 613.782,579.179 614.915,584.687 616.048,590.206 617.181,595.736 618.314,601.276 619.447,606.826 620.579,612.384 621.712,617.952 622.845,623.529 623.978,629.114 625.111,634.708 626.244,640.309 627.377,645.917 628.51,651.533 629.643,657.155 630.775,662.785 631.908,668.42 633.041,674.061 634.174,679.708 635.307,685.36 636.44,691.016 637.573,696.678 638.706,702.344 639.838,708.014 640.971,713.687 642.104,719.364 643.237,725.044 644.37,730.727 645.503,736.412 646.636,742.1 647.769,747.789 648.902,753.48 650.034,759.172 651.167,764.865 652.3,770.558 653.433,776.252 654.566,781.946 655.699,787.639 656.832,793.332 657.965,799.024 659.097,804.715 660.23,810.404 661.363,816.092 662.496,821.777 663.629,827.46 664.762,833.14 665.895,838.817 667.028,844.49 668.161,850.16 669.293,855.826 670.426,861.487 671.559,867.144 672.692,872.796 673.825,878.443 674.958,884.084 676.091,889.719 677.224,895.348 678.356,900.971 679.489,906.587 680.622,912.195 681.755,917.796 682.888,923.39 684.021,928.975 685.154,934.552 686.287,940.119 687.42,945.678 688.552,951.228 689.685,956.768 690.818,962.297 691.951,967.817 693.084,973.325 694.217,978.823 695.35,984.309 696.483,989.784 697.615,995.246 698.748,1000.7 699.881,1006.13 701.014,1011.56 702.147,1016.97 703.28,1022.37 704.413,1027.75 705.546,1033.12 706.679,1038.47 707.811,1043.81 708.944,1049.13 710.077,1054.44 711.21,1059.73 712.343,1065.01 713.476,1070.26 714.609,1075.5 715.742,1080.73 716.874,1085.93 718.007,1091.12 719.14,1096.29 720.273,1101.44 721.406,1106.57 722.539,1111.67 723.672,1116.76 724.805,1121.83 725.938,1126.88 727.07,1131.91 728.203,1136.91 729.336,1141.9 730.469,1146.86 731.602,1151.79 732.735,1156.71 733.868,1161.6 735.001,1166.47 736.133,1171.31 737.266,1176.13 738.399,1180.92 739.532,1185.69 740.665,1190.43 741.798,1195.14 742.931,1199.83 744.064,1204.49 745.197,1209.12 746.329,1213.73 747.462,1218.31 748.595,1222.86 749.728,1227.37 750.861,1231.86 751.994,1236.32 753.127,1240.75 754.26,1245.15 755.392,1249.52 756.525,1253.86 757.658,1258.16 758.791,1262.43 759.924,1266.67 761.057,1270.88 762.19,1275.05 763.323,1279.19 764.455,1283.29 765.588,1287.36 766.721,1291.39 767.854,1295.39 768.987,1299.35 770.12,1303.27 771.253,1307.16 772.386,1311.01 773.519,1314.82 774.651,1318.6 775.784,1322.33 776.917,1326.03 778.05,1329.69 779.183,1333.3 780.316,1336.88 781.449,1340.42 782.582,1343.91 783.714,1347.37 784.847,1350.78 785.98,1354.14 787.113,1357.47 788.246,1360.75 789.379,1363.99 790.512,1367.19 791.645,1370.34 792.778,1373.44 793.91,1376.5 795.043,1379.52 796.176,1382.49 797.309,1385.41 798.442,1388.28 799.575,1391.11 800.708,1393.89 801.841,1396.62 802.973,1399.3 804.106,1401.94 805.239,1404.52 806.372,1407.06 807.505,1409.54 808.638,1411.98 809.771,1414.36 810.904,1416.69 812.037,1418.97 813.169,1421.2 814.302,1423.38 815.435,1425.5 816.568,1427.57 817.701,1429.59 818.834,1431.55 819.967,1433.46 821.1,1435.31 822.232,1437.11 823.365,1438.86 824.498,1440.55 825.631,1442.18 826.764,1443.76 827.897,1445.27 829.03,1446.74 830.163,1448.14 831.296,1449.49 832.428,1450.78 833.561,1452.01 834.694,1453.19 835.827,1454.3 836.96,1455.36 838.093,1456.35 839.226,1457.29 840.359,1458.16 841.491,1458.98 842.624,1459.74 843.757,1460.43 844.89,1461.06 846.023,1461.64 847.156,1462.15 848.289,1462.6 849.422,1462.98 850.555,1463.31 851.687,1463.57 852.82,1463.77 853.953,1463.91 855.086,1463.98 856.219,1463.99 857.352,1463.94 858.485,1463.82 859.618,1463.64 860.75,1463.4 861.883,1463.09 863.016,1462.71 864.149,1462.28 865.282,1461.77 866.415,1461.21 867.548,1460.57 868.681,1459.87 869.814,1459.11 870.946,1458.28 872.079,1457.39 873.212,1456.43 874.345,1455.41 875.478,1454.32 876.611,1453.16 877.744,1451.94 878.877,1450.65 880.009,1449.3 881.142,1447.88 882.275,1446.39 883.408,1444.84 884.541,1443.22 885.674,1441.54 886.807,1439.79 887.94,1437.97 889.073,1436.09 890.205,1434.14 891.338,1432.13 892.471,1430.05 893.604,1427.9 894.737,1425.69 895.87,1423.41 897.003,1421.07 898.136,1418.66 899.268,1416.19 900.401,1413.65 901.534,1411.04 902.667,1408.37 903.8,1405.64 904.933,1402.84 906.066,1399.97 907.199,1397.04 908.331,1394.05 909.464,1390.99 910.597,1387.87 911.73,1384.68 912.863,1381.43 913.996,1378.12 915.129,1374.74 916.262,1371.3 917.395,1367.8 918.527,1364.23 919.66,1360.61 920.793,1356.92 921.926,1353.17 923.059,1349.35 924.192,1345.48 925.325,1341.54 926.458,1337.55 927.59,1333.49 928.723,1329.38 929.856,1325.2 930.989,1320.97 932.122,1316.68 933.255,1312.32 934.388,1307.92 935.521,1303.45 936.654,1298.92 937.786,1294.34 938.919,1289.7 940.052,1285.01 941.185,1280.26 942.318,1275.45 943.451,1270.59 944.584,1265.68 945.717,1260.71 946.849,1255.69 947.982,1250.61 949.115,1245.49 950.248,1240.31 951.381,1235.07 952.514,1229.79 953.647,1224.46 954.78,1219.08 955.913,1213.65 957.045,1208.17 958.178,1202.64 959.311,1197.06 960.444,1191.44 961.577,1185.77 962.71,1180.05 963.843,1174.29 964.976,1168.48 966.108,1162.63 967.241,1156.74 968.374,1150.8 969.507,1144.82 970.64,1138.8 971.773,1132.73 972.906,1126.63 974.039,1120.49 975.172,1114.31 976.304,1108.08 977.437,1101.83 978.57,1095.53 979.703,1089.2 980.836,1082.83 981.969,1076.43 983.102,1069.99 984.235,1063.52 985.367,1057.02 986.5,1050.48 987.633,1043.91 988.766,1037.32 989.899,1030.69 991.032,1024.03 992.165,1017.34 993.298,1010.63 994.431,1003.89 995.563,997.123 996.696,990.33 997.829,983.513 998.962,976.672 1000.09,969.808 1001.23,962.921 1002.36,956.013 1003.49,949.084 1004.63,942.135 1005.76,935.166 1006.89,928.18 1008.03,921.175 1009.16,914.154 1010.29,907.117 1011.42,900.065 1012.56,892.998 1013.69,885.918 1014.82,878.825 1015.96,871.72 1017.09,864.604 1018.22,857.477 1019.35,850.342 1020.49,843.197 1021.62,836.045 1022.75,828.886 1023.89,821.721 1025.02,814.55 1026.15,807.375 1027.28,800.196 1028.42,793.015 1029.55,785.831 1030.68,778.647 1031.82,771.462 1032.95,764.278 1034.08,757.095 1035.21,749.914 1036.35,742.737 1037.48,735.563 1038.61,728.394 1039.75,721.231 1040.88,714.074 1042.01,706.924 1043.14,699.783 1044.28,692.65 1045.41,685.527 1046.54,678.415 1047.68,671.313 1048.81,664.225 1049.94,657.149 1051.07,650.087 1052.21,643.039 1053.34,636.007 1054.47,628.992 1055.61,621.993 1056.74,615.013 1057.87,608.051 1059,601.108 1060.14,594.186 1061.27,587.285 1062.4,580.406 1063.54,573.549 1064.67,566.716 1065.8,559.907 1066.93,553.123 1068.07,546.364 1069.2,539.633 1070.33,532.928 1071.47,526.252 1072.6,519.604 1073.73,512.986 1074.87,506.398 1076,499.841 1077.13,493.316 1078.26,486.823 1079.4,480.363 1080.53,473.938 1081.66,467.546 1082.8,461.19 1083.93,454.871 1085.06,448.587 1086.19,442.341 1087.33,436.133 1088.46,429.964 1089.59,423.834 1090.73,417.745 1091.86,411.696 1092.99,405.688 1094.12,399.722 1095.26,393.799 1096.39,387.919 1097.52,382.082 1098.66,376.291 1099.79,370.544 1100.92,364.843 1102.05,359.188 1103.19,353.58 1104.32,348.019 1105.45,342.506 1106.59,337.042 1107.72,331.626 1108.85,326.261 1109.98,320.945 1111.12,315.68 1112.25,310.466 1113.38,305.304 1114.52,300.194 1115.65,295.136 1116.78,290.132 1117.91,285.182 1119.05,280.285 1120.18,275.443 1121.31,270.656 1122.45,265.924 1123.58,261.249 1124.71,256.629 1125.84,252.066 1126.98,247.561 1128.11,243.112 1129.24,238.722 1130.38,234.39 1131.51,230.117 1132.64,225.902 1133.77,221.747 1134.91,217.652 1136.04,213.616 1137.17,209.641 1138.31,205.727 1139.44,201.874 1140.57,198.082 1141.71,194.351 1142.84,190.682 1143.97,187.076 1145.1,183.532 1146.24,180.05 1147.37,176.631 1148.5,173.276 1149.64,169.984 1150.77,166.755 1151.9,163.59 1153.03,160.489 1154.17,157.452 1155.3,154.48 1156.43,151.572 1157.57,148.728 1158.7,145.95 1159.83,143.236 1160.96,140.588 1162.1,138.004 1163.23,135.486 1164.36,133.034 1165.5,130.647 1166.63,128.326 1167.76,126.07 1168.89,123.88 1170.03,121.756 1171.16,119.698 1172.29,117.706 1173.43,115.78 1174.56,113.92 1175.69,112.126 1176.82,110.398 1177.96,108.736 1179.09,107.14 1180.22,105.61 1181.36,104.147 1182.49,102.749 1183.62,101.417 1184.75,100.151 1185.89,98.951 1187.02,97.8168 1188.15,96.7484 1189.29,95.7455 1190.42,94.8083 1191.55,93.9366 1192.68,93.1302 1193.82,92.3892 1194.95,91.7133 1196.08,91.1025 1197.22,90.5565 1198.35,90.0754 1199.48,89.6589 1200.62,89.3069 1201.75,89.0193 1202.88,88.7958 1204.01,88.6363 1205.15,88.5407 1206.28,88.5087 1207.41,88.5401 1208.55,88.6348 1209.68,88.7926 1210.81,89.0132 1211.94,89.2964 1213.08,89.6421 1214.21,90.0499 1215.34,90.5196 1216.48,91.0511 1217.61,91.644 1218.74,92.2982 1219.87,93.0132 1221.01,93.789 1222.14,94.6252 1223.27,95.5215 1224.41,96.4778 1225.54,97.4936 1226.67,98.5686 1227.8,99.7028 1228.94,100.896 1230.07,102.147 1231.2,103.456 1232.34,104.823 1233.47,106.248 1234.6,107.73 1235.73,109.268 1236.87,110.863 1238,112.514 1239.13,114.221 1240.27,115.984 1241.4,117.802 1242.53,119.674 1243.66,121.601 1244.8,123.582 1245.93,125.617 1247.06,127.705 1248.2,129.846 1249.33,132.039 1250.46,134.285 1251.59,136.583 1252.73,138.933 1253.86,141.333 1254.99,143.784 1256.13,146.286 1257.26,148.838 1258.39,151.439 1259.52,154.089 1260.66,156.788 1261.79,159.536 1262.92,162.332 1264.06,165.175 1265.19,168.065 1266.32,171.003 1267.46,173.986 1268.59,177.016 1269.72,180.091 1270.85,183.212 1271.99,186.377 1273.12,189.586 1274.25,192.84 1275.39,196.137 1276.52,199.477 1277.65,202.86 1278.78,206.285 1279.92,209.752 1281.05,213.261 1282.18,216.81 1283.32,220.4 1284.45,224.031 1285.58,227.701 1286.71,231.41 1287.85,235.159 1288.98,238.946 1290.11,242.771 1291.25,246.634 1292.38,250.534 1293.51,254.471 1294.64,258.444 1295.78,262.453 1296.91,266.498 1298.04,270.578 1299.18,274.693 1300.31,278.843 1301.44,283.026 1302.57,287.242 1303.71,291.492 1304.84,295.775 1305.97,300.089 1307.11,304.436 1308.24,308.814 1309.37,313.223 1310.5,317.663 1311.64,322.133 1312.77,326.632 1313.9,331.161 1315.04,335.72 1316.17,340.306 1317.3,344.921 1318.43,349.564 1319.57,354.234 1320.7,358.931 1321.83,363.655 1322.97,368.404 1324.1,373.18 1325.23,377.981 1326.36,382.807 1327.5,387.658 1328.63,392.533 1329.76,397.432 1330.9,402.354 1332.03,407.299 1333.16,412.267 1334.3,417.257 1335.43,422.27 1336.56,427.303 1337.69,432.358 1338.83,437.434 1339.96,442.53 1341.09,447.646 1342.23,452.782 1343.36,457.938 1344.49,463.112 1345.62,468.304 1346.76,473.515 1347.89,478.744 1349.02,483.99 1350.16,489.254 1351.29,494.534 1352.42,499.831 1353.55,505.143 1354.69,510.472 1355.82,515.816 1356.95,521.174 1358.09,526.548 1359.22,531.936 1360.35,537.337 1361.48,542.753 1362.62,548.181 1363.75,553.623 1364.88,559.077 1366.02,564.544 1367.15,570.022 1368.28,575.512 1369.41,581.014 1370.55,586.526 1371.68,592.049 1372.81,597.582 1373.95,603.125 1375.08,608.677 1376.21,614.239 1377.34,619.81 1378.48,625.39 1379.61,630.978 1380.74,636.574 1381.88,642.177 1383.01,647.788 1384.14,653.406 1385.27,659.031 1386.41,664.662 1387.54,670.3 1388.67,675.943 1389.81,681.591 1390.94,687.245 1392.07,692.903 1393.2,698.566 1394.34,704.233 1395.47,709.904 1396.6,715.579 1397.74,721.257 1398.87,726.938 1400,732.622 1401.14,738.308 1402.27,743.996 1403.4,749.686 1404.53,755.377 1405.67,761.069 1406.8,766.762 1407.93,772.456 1409.07,778.15 1410.2,783.844 1411.33,789.537 1412.46,795.23 1413.6,800.921 1414.73,806.612 1415.86,812.3 1417,817.987 1418.13,823.672 1419.26,829.353 1420.39,835.032 1421.53,840.708 1422.66,846.381 1423.79,852.049 1424.93,857.714 1426.06,863.374 1427.19,869.029 1428.32,874.679 1429.46,880.324 1430.59,885.963 1431.72,891.596 1432.86,897.223 1433.99,902.844 1435.12,908.457 1436.25,914.063 1437.39,919.662 1438.52,925.252 1439.65,930.835 1440.79,936.408 1441.92,941.973 1443.05,947.529 1444.18,953.076 1445.32,958.612 1446.45,964.138 1447.58,969.654 1448.72,975.159 1449.85,980.653 1450.98,986.135 1452.11,991.606 1453.25,997.064 1454.38,1002.51 1455.51,1007.94 1456.65,1013.36 1457.78,1018.77 1458.91,1024.16 1460.04,1029.54 1461.18,1034.9 1462.31,1040.25 1463.44,1045.59 1464.58,1050.9 1465.71,1056.21 1466.84,1061.49 1467.98,1066.76 1469.11,1072.01 1470.24,1077.25 1471.37,1082.46 1472.51,1087.66 1473.64,1092.84 1474.77,1098.01 1475.91,1103.15 1477.04,1108.27 1478.17,1113.37 1479.3,1118.46 1480.44,1123.52 1481.57,1128.56 1482.7,1133.58 1483.84,1138.58 1484.97,1143.55 1486.1,1148.5 1487.23,1153.43 1488.37,1158.34 1489.5,1163.22 1490.63,1168.08 1491.77,1172.92 1492.9,1177.73 1494.03,1182.51 1495.16,1187.27 1496.3,1192 1497.43,1196.71 1498.56,1201.39 1499.7,1206.04 1500.83,1210.66 1501.96,1215.26 1503.09,1219.83 1504.23,1224.37 1505.36,1228.87 1506.49,1233.35 1507.63,1237.8 1508.76,1242.22 1509.89,1246.61 1511.02,1250.97 1512.16,1255.29 1513.29,1259.59 1514.42,1263.85 1515.56,1268.08 1516.69,1272.27 1517.82,1276.43 1518.95,1280.56 1520.09,1284.65 1521.22,1288.71 1522.35,1292.73 1523.49,1296.71 1524.62,1300.66 1525.75,1304.57 1526.89,1308.45 1528.02,1312.29 1529.15,1316.09 1530.28,1319.85 1531.42,1323.57 1532.55,1327.25 1533.68,1330.9 1534.82,1334.5 1535.95,1338.06 1537.08,1341.59 1538.21,1345.07 1539.35,1348.51 1540.48,1351.9 1541.61,1355.26 1542.75,1358.57 1543.88,1361.84 1545.01,1365.06 1546.14,1368.24 1547.28,1371.38 1548.41,1374.47 1549.54,1377.51 1550.68,1380.51 1551.81,1383.46 1552.94,1386.37 1554.07,1389.23 1555.21,1392.04 1556.34,1394.8 1557.47,1397.52 1558.61,1400.19 1559.74,1402.8 1560.87,1405.37 1562,1407.89 1563.14,1410.36 1564.27,1412.78 1565.4,1415.14 1566.54,1417.46 1567.67,1419.72 1568.8,1421.93 1569.93,1424.09 1571.07,1426.2 1572.2,1428.25 1573.33,1430.25 1574.47,1432.19 1575.6,1434.08 1576.73,1435.92 1577.86,1437.7 1579,1439.43 1580.13,1441.1 1581.26,1442.71 1582.4,1444.27 1583.53,1445.77 1584.66,1447.21 1585.79,1448.6 1586.93,1449.93 1588.06,1451.2 1589.19,1452.41 1590.33,1453.56 1591.46,1454.66 1592.59,1455.69 1593.73,1456.67 1594.86,1457.59 1595.99,1458.44 1597.12,1459.24 1598.26,1459.97 1599.39,1460.65 1600.52,1461.26 1601.66,1461.81 1602.79,1462.3 1603.92,1462.73 1605.05,1463.1 1606.19,1463.4 1607.32,1463.64 1608.45,1463.82 1609.59,1463.94 1610.72,1463.99 1611.85,1463.98 1612.98,1463.91 1614.12,1463.77 1615.25,1463.57 1616.38,1463.3 1617.52,1462.97 1618.65,1462.57 1619.78,1462.11 1620.91,1461.59 1622.05,1461 1623.18,1460.35 1624.31,1459.63 1625.45,1458.84 1626.58,1457.99 1627.71,1457.08 1628.84,1456.1 1629.98,1455.05 1631.11,1453.94 1632.24,1452.76 1633.38,1451.52 1634.51,1450.21 1635.64,1448.83 1636.77,1447.39 1637.91,1445.88 1639.04,1444.31 1640.17,1442.67 1641.31,1440.96 1642.44,1439.19 1643.57,1437.35 1644.7,1435.45 1645.84,1433.48 1646.97,1431.44 1648.1,1429.34 1649.24,1427.17 1650.37,1424.94 1651.5,1422.64 1652.63,1420.27 1653.77,1417.84 1654.9,1415.35 1656.03,1412.78 1657.17,1410.16 1658.3,1407.47 1659.43,1404.71 1660.57,1401.89 1661.7,1399 1662.83,1396.05 1663.96,1393.03 1665.1,1389.95 1666.23,1386.81 1667.36,1383.6 1668.5,1380.33 1669.63,1377 1670.76,1373.6 1671.89,1370.14 1673.03,1366.62 1674.16,1363.03 1675.29,1359.38 1676.43,1355.67 1677.56,1351.9 1678.69,1348.07 1679.82,1344.17 1680.96,1340.22 1682.09,1336.2 1683.22,1332.13 1684.36,1327.99 1685.49,1323.8 1686.62,1319.54 1687.75,1315.23 1688.89,1310.86 1690.02,1306.43 1691.15,1301.95 1692.29,1297.4 1693.42,1292.8 1694.55,1288.14 1695.68,1283.43 1696.82,1278.66 1697.95,1273.84 1699.08,1268.96 1700.22,1264.03 1701.35,1259.04 1702.48,1254 1703.61,1248.91 1704.75,1243.76 1705.88,1238.57 1707.01,1233.32 1708.15,1228.02 1709.28,1222.67 1710.41,1217.27 1711.54,1211.82 1712.68,1206.33 1713.81,1200.78 1714.94,1195.19 1716.08,1189.55 1717.21,1183.87 1718.34,1178.13 1719.47,1172.36 1720.61,1166.54 1721.74,1160.67 1722.87,1154.76 1724.01,1148.81 1725.14,1142.82 1726.27,1136.78 1727.41,1130.7 1728.54,1124.59 1729.67,1118.43 1730.8,1112.24 1731.94,1106 1733.07,1099.73 1734.2,1093.42 1735.34,1087.08 1736.47,1080.7 1737.6,1074.29 1738.73,1067.84 1739.87,1061.36 1741,1054.84 1742.13,1048.3 1743.27,1041.72 1744.4,1035.11 1745.53,1028.47 1746.66,1021.8 1747.8,1015.11 1748.93,1008.39 1750.06,1001.64 1751.2,994.861 1752.33,988.061 1753.46,981.235 1754.59,974.386 1755.73,967.515 1756.86,960.621 1757.99,953.705 1759.13,946.77 1760.26,939.814 1761.39,932.84 1762.52,925.847 1763.66,918.837 1764.79,911.81 1765.92,904.768 1767.06,897.711 1768.19,890.639 1769.32,883.555 1770.45,876.458 1771.59,869.349 1772.72,862.229 1773.85,855.1 1774.99,847.961 1776.12,840.814 1777.25,833.659 1778.38,826.498 1779.52,819.331 1780.65,812.159 1781.78,804.982 1782.92,797.803 1784.05,790.621 1785.18,783.437 1786.31,776.252 1787.45,769.067 1788.58,761.883 1789.71,754.701 1790.85,747.522 1791.98,740.345 1793.11,733.173 1794.25,726.006 1795.38,718.845 1796.51,711.69 1797.64,704.543 1798.78,697.404 1799.91,690.275 1801.04,683.155 1802.18,676.046 1803.31,668.949 1804.44,661.865 1805.57,654.793 1806.71,647.736 1807.84,640.694 1808.97,633.667 1810.11,626.657 1811.24,619.664 1812.37,612.69 1813.5,605.734 1814.64,598.798 1815.77,591.883 1816.9,584.989 1818.04,578.117 1819.17,571.269 1820.3,564.443 1821.43,557.643 1822.57,550.867 1823.7,544.118 1824.83,537.395 1825.97,530.7 1827.1,524.033 1828.23,517.395 1829.36,510.786 1830.5,504.209 1831.63,497.662 1832.76,491.148 1833.9,484.666 1835.03,478.218 1836.16,471.803 1837.29,465.424 1838.43,459.08 1839.56,452.772 1840.69,446.501 1841.83,440.268 1842.96,434.073 1844.09,427.917 1845.22,421.8 1846.36,415.724 1847.49,409.688 1848.62,403.694 1849.76,397.743 1850.89,391.834 1852.02,385.968 1853.15,380.147 1854.29,374.37 1855.42,368.638 1856.55,362.952 1857.69,357.313 1858.82,351.721 1859.95,346.176 1861.09,340.679 1862.22,335.231 1863.35,329.832 1864.48,324.483 1865.62,319.184 1866.75,313.936 1867.88,308.74 1869.02,303.595 1870.15,298.502 1871.28,293.462 1872.41,288.476 1873.55,283.543 1874.68,278.665 1875.81,273.841 1876.95,269.073 1878.08,264.359 1879.21,259.702 1880.34,255.102 1881.48,250.558 1882.61,246.071 1883.74,241.642 1884.88,237.272 1886.01,232.959 1887.14,228.705 1888.27,224.51 1889.41,220.375 1890.54,216.3 1891.67,212.285 1892.81,208.33 1893.94,204.436 1895.07,200.603 1896.2,196.831 1897.34,193.121 1898.47,189.473 1899.6,185.887 1900.74,182.364 1901.87,178.904 1903,175.506 1904.13,172.171 1905.27,168.9 1906.4,165.693 1907.53,162.549 1908.67,159.47 1909.8,156.454 1910.93,153.503 1912.06,150.617 1913.2,147.795 1914.33,145.038 1915.46,142.346 1916.6,139.719 1917.73,137.158 1918.86,134.662 1920,132.231 1921.13,129.866 1922.26,127.567 1923.39,125.333 1924.53,123.165 1925.66,121.063 1926.79,119.027 1927.93,117.057 1929.06,115.153 1930.19,113.315 1931.32,111.543 1932.46,109.837 1933.59,108.197 1934.72,106.623 1935.86,105.115 1936.99,103.673 1938.12,102.298 1939.25,100.988 1940.39,99.7437 1941.52,98.5657 1942.65,97.4534 1943.79,96.4068 1944.92,95.4259 1946.05,94.5105 1947.18,93.6605 1948.32,92.876 1949.45,92.1567 1950.58,91.5025 1951.72,90.9133 1952.85,90.389 1953.98,89.9294 1955.11,89.5344 1956.25,89.2039 1957.38,88.9377 1958.51,88.7356 1959.65,88.5974 1960.78,88.523 1961.91,88.5121 1963.04,88.5647 1964.18,88.6804 1965.31,88.8592 1966.44,89.1007 1967.58,89.4047 1968.71,89.7711 1969.84,90.1996 1970.97,90.69 1972.11,91.2419 1973.24,91.8553 1974.37,92.5298 1975.51,93.2651 1976.64,94.061 1977.77,94.9173 1978.9,95.8336 1980.04,96.8097 1981.17,97.8453 1982.3,98.9401 1983.44,100.094 1984.57,101.306 1985.7,102.577 1986.84,103.905 1987.97,105.292 1989.1,106.735 1990.23,108.236 1991.37,109.793 1992.5,111.407 1993.63,113.077 1994.77,114.803 1995.9,116.584 1997.03,118.42 1998.16,120.31 1999.3,122.255 2000.43,124.254 2001.56,126.307 2002.7,128.413 2003.83,130.571 2004.96,132.782 2006.09,135.046 2007.23,137.361 2008.36,139.727 2009.49,142.145 2010.63,144.613 2011.76,147.131 2012.89,149.699 2014.02,152.317 2015.16,154.984 2016.29,157.699 2017.42,160.463 2018.56,163.274 2019.69,166.133 2020.82,169.039 2021.95,171.992 2023.09,174.991 2024.22,178.036 2025.35,181.126 2026.49,184.262 2027.62,187.442 2028.75,190.666 2029.88,193.934 2031.02,197.246 2032.15,200.6 2033.28,203.997 2034.42,207.436 2035.55,210.917 2036.68,214.439 2037.81,218.002 2038.95,221.606 2040.08,225.25 2041.21,228.933 2042.35,232.656 2043.48,236.417 2044.61,240.217 2045.74,244.054 2046.88,247.93 2048.01,251.842 2049.14,255.791 2050.28,259.777 2051.41,263.798 2052.54,267.855 2053.68,271.946 2054.81,276.073 2055.94,280.233 2057.07,284.428 2058.21,288.655 2059.34,292.916 2060.47,297.209 2061.61,301.535 2062.74,305.892 2063.87,310.28 2065,314.7 2066.14,319.149 2067.27,323.629 2068.4,328.139 2069.54,332.678 2070.67,337.245 2071.8,341.841 2072.93,346.466 2074.07,351.118 2075.2,355.797 2076.33,360.503 2077.47,365.235 2078.6,369.994 2079.73,374.778 2080.86,379.587 2082,384.421 2083.13,389.28 2084.26,394.163 2085.4,399.07 2086.53,404 2087.66,408.953 2088.79,413.928 2089.93,418.926 2091.06,423.945 2092.19,428.986 2093.33,434.048 2094.46,439.13 2095.59,444.233 2096.72,449.356 2097.86,454.499 2098.99,459.66 2100.12,464.841 2101.26,470.039 2102.39,475.256 2103.52,480.491 2104.65,485.743 2105.79,491.012 2106.92,496.298 2108.05,501.6 2109.19,506.918 2110.32,512.251 2111.45,517.6 2112.58,522.964 2113.72,528.342 2114.85,533.735 2115.98,539.141 2117.12,544.561 2118.25,549.994 2119.38,555.44 2120.52,560.898 2121.65,566.369 2122.78,571.851 2123.91,577.345 2125.05,582.85 2126.18,588.366 2127.31,593.892 2128.45,599.428 2129.58,604.975 2130.71,610.53 2131.84,616.095 2132.98,621.669 2134.11,627.252 2135.24,632.842 2136.38,638.441 2137.51,644.047 2138.64,649.66 2139.77,655.281 2140.91,660.907 2142.04,666.541 2143.17,672.18 2144.31,677.825 2145.44,683.475 2146.57,689.13 2147.7,694.79 2148.84,700.455 2149.97,706.123 2151.1,711.796 2152.24,717.471 2153.37,723.151 2154.5,728.832 2155.63,734.517 2156.77,740.204 2157.9,745.892 2159.03,751.583 2160.17,757.274 2161.3,762.967 2162.43,768.66 2163.56,774.354 2164.7,780.048 2165.83,785.742 2166.96,791.435 2168.1,797.127 2169.23,802.818 2170.36,808.508 2171.49,814.196 2172.63,819.882 2173.76,825.566 2174.89,831.247 2176.03,836.925 2177.16,842.599 2178.29,848.271 2179.42,853.938 2180.56,859.601 2181.69,865.259 2182.82,870.913 2183.96,876.561 2185.09,882.204 2186.22,887.842 2187.36,893.473 2188.49,899.098 2189.62,904.716 2190.75,910.327 2191.89,915.93 2193.02,921.526 2194.15,927.114 2195.29,932.694 2196.42,938.264 2197.55,943.826 2198.68,949.379 2199.82,954.922 2200.95,960.455 2202.08,965.978 2203.22,971.49 2204.35,976.992 2205.48,982.482 2206.61,987.96 2207.75,993.427 2208.88,998.881 2210.01,1004.32 2211.15,1009.75 2212.28,1015.17 2213.41,1020.57 2214.54,1025.96 2215.68,1031.33 2216.81,1036.69 2217.94,1042.03 2219.08,1047.36 2220.21,1052.67 2221.34,1057.97 2222.47,1063.25 2223.61,1068.51 2224.74,1073.76 2225.87,1078.99 2227.01,1084.2 2228.14,1089.39 2229.27,1094.57 2230.4,1099.72 2231.54,1104.86 2232.67,1109.97 2233.8,1115.07 2234.94,1120.15 2236.07,1125.2 2237.2,1130.23 2238.33,1135.25 2239.47,1140.24 2240.6,1145.2 2241.73,1150.15 2242.87,1155.07 2244,1159.97 2245.13,1164.85 2246.27,1169.7 2247.4,1174.52 2248.53,1179.32 2249.66,1184.1 2250.8,1188.85 2251.93,1193.57 2253.06,1198.27 2254.2,1202.94 2255.33,1207.58 2256.46,1212.2 2257.59,1216.78 2258.73,1221.34 2259.86,1225.87 2260.99,1230.37 2262.13,1234.84 2263.26,1239.28 2264.39,1243.69 2265.52,1248.07 2266.66,1252.41 2267.79,1256.73 2268.92,1261.01 2270.06,1265.26 2271.19,1269.48 2272.32,1273.66 2273.45,1277.81 2274.59,1281.93 2275.72,1286.01 2276.85,1290.05 2277.99,1294.06 2279.12,1298.03 2280.25,1301.97 2281.38,1305.87 2282.52,1309.73 2283.65,1313.56 2284.78,1317.35 2285.92,1321.09 2287.05,1324.8 2288.18,1328.47 2289.31,1332.1 2290.45,1335.69 2291.58,1339.24 2292.71,1342.75 2293.85,1346.22 2294.98,1349.64 2296.11,1353.03 2297.24,1356.37 2298.38,1359.66 2299.51,1362.92 2300.64,1366.13 2301.78,1369.29 2302.91,1372.41 2304.04,1375.49 2305.17,1378.52 2306.31,1381.5 2307.44,1384.44 2308.57,1387.33 2309.71,1390.17 2310.84,1392.97 2311.97,1395.72 2313.11,1398.41 2314.24,1401.07 2315.37,1403.67 2316.5,1406.22 2317.64,1408.72 2318.77,1411.17 2319.9,1413.57 2321.04,1415.92 2322.17,1418.22 2323.3,1420.46 2324.43,1422.66 2325.57,1424.8 2326.7,1426.89 2327.83,1428.92 2328.97,1430.9 2330.1,1432.83 2331.23,1434.7 2332.36,1436.52 2333.5,1438.28 2334.63,1439.99 2335.76,1441.64 2336.9,1443.24 2338.03,1444.77 2339.16,1446.26 2340.29,1447.68 2341.43,1449.05 2342.56,1450.36 2343.69,1451.61 2344.83,1452.8 2345.96,1453.94 2347.09,1455.01 2348.22,1456.03 2349.36,1456.98 2350.49,1457.88 2351.62,1458.71 2352.76,1459.49 "/>
<path clip-path="url(#clip590)" d="M2012.81 199.525 L2277.23 199.525 L2277.23 95.8446 L2012.81 95.8446  Z" fill="#ffffff" fill-rule="evenodd" fill-opacity="1"/>
<polyline clip-path="url(#clip590)" style="stroke:#000000; stroke-linecap:round; stroke-linejoin:round; stroke-width:4; stroke-opacity:1; fill:none" points="2012.81,199.525 2277.23,199.525 2277.23,95.8446 2012.81,95.8446 2012.81,199.525 "/>
<polyline clip-path="url(#clip590)" style="stroke:#009af9; stroke-linecap:round; stroke-linejoin:round; stroke-width:4; stroke-opacity:1; fill:none" points="2037.98,147.685 2189.03,147.685 "/>
<path clip-path="url(#clip590)" d="M2230.9 128.946 L2235.16 128.946 L2235.16 134.34 L2230.9 134.34 L2230.9 128.946 M2233.07 138.414 L2233.07 138.414 M2234.56 144.016 Q2236.15 141.145 2238.37 139.78 Q2240.6 138.414 2243.61 138.414 Q2247.66 138.414 2249.86 141.261 Q2252.06 144.085 2252.06 149.317 L2252.06 164.965 L2247.77 164.965 L2247.77 149.455 Q2247.77 145.729 2246.45 143.923 Q2245.13 142.118 2242.43 142.118 Q2239.12 142.118 2237.19 144.317 Q2235.27 146.516 2235.27 150.312 L2235.27 164.965 L2230.99 164.965 L2230.99 149.455 Q2230.99 145.705 2229.67 143.923 Q2228.35 142.118 2225.6 142.118 Q2222.33 142.118 2220.41 144.34 Q2218.49 146.539 2218.49 150.312 L2218.49 164.965 L2214.21 164.965 L2214.21 139.039 L2218.49 139.039 L2218.49 143.067 Q2219.95 140.682 2221.99 139.548 Q2224.02 138.414 2226.82 138.414 Q2229.65 138.414 2231.62 139.849 Q2233.61 141.284 2234.56 144.016 Z" fill="#000000" fill-rule="nonzero" fill-opacity="1" /></svg>
