<?xml version="1.0" encoding="utf-8"?>
<svg xmlns="http://www.w3.org/2000/svg" xmlns:xlink="http://www.w3.org/1999/xlink" width="600" height="400" viewBox="0 0 2400 1600">
<defs>
  <clipPath id="clip410">
    <rect x="0" y="0" width="2400" height="1600"/>
  </clipPath>
</defs>
<path clip-path="url(#clip410)" d="M0 1600 L2400 1600 L2400 0 L0 0  Z" fill="#ffffff" fill-rule="evenodd" fill-opacity="1"/>
<defs>
  <clipPath id="clip411">
    <rect x="480" y="0" width="1681" height="1600"/>
  </clipPath>
</defs>
<path clip-path="url(#clip410)" d="M212.459 1423.18 L2352.76 1423.18 L2352.76 47.2441 L212.459 47.2441  Z" fill="#ffffff" fill-rule="evenodd" fill-opacity="1"/>
<defs>
  <clipPath id="clip412">
    <rect x="212" y="47" width="2141" height="1377"/>
  </clipPath>
</defs>
<polyline clip-path="url(#clip412)" style="stroke:#000000; stroke-linecap:round; stroke-linejoin:round; stroke-width:2; stroke-opacity:0.1; fill:none" points="273.033,1423.18 273.033,47.2441 "/>
<polyline clip-path="url(#clip412)" style="stroke:#000000; stroke-linecap:round; stroke-linejoin:round; stroke-width:2; stroke-opacity:0.1; fill:none" points="777.82,1423.18 777.82,47.2441 "/>
<polyline clip-path="url(#clip412)" style="stroke:#000000; stroke-linecap:round; stroke-linejoin:round; stroke-width:2; stroke-opacity:0.1; fill:none" points="1282.61,1423.18 1282.61,47.2441 "/>
<polyline clip-path="url(#clip412)" style="stroke:#000000; stroke-linecap:round; stroke-linejoin:round; stroke-width:2; stroke-opacity:0.1; fill:none" points="1787.39,1423.18 1787.39,47.2441 "/>
<polyline clip-path="url(#clip412)" style="stroke:#000000; stroke-linecap:round; stroke-linejoin:round; stroke-width:2; stroke-opacity:0.1; fill:none" points="2292.18,1423.18 2292.18,47.2441 "/>
<polyline clip-path="url(#clip410)" style="stroke:#000000; stroke-linecap:round; stroke-linejoin:round; stroke-width:4; stroke-opacity:1; fill:none" points="212.459,1423.18 2352.76,1423.18 "/>
<polyline clip-path="url(#clip410)" style="stroke:#000000; stroke-linecap:round; stroke-linejoin:round; stroke-width:4; stroke-opacity:1; fill:none" points="273.033,1423.18 273.033,1404.28 "/>
<polyline clip-path="url(#clip410)" style="stroke:#000000; stroke-linecap:round; stroke-linejoin:round; stroke-width:4; stroke-opacity:1; fill:none" points="777.82,1423.18 777.82,1404.28 "/>
<polyline clip-path="url(#clip410)" style="stroke:#000000; stroke-linecap:round; stroke-linejoin:round; stroke-width:4; stroke-opacity:1; fill:none" points="1282.61,1423.18 1282.61,1404.28 "/>
<polyline clip-path="url(#clip410)" style="stroke:#000000; stroke-linecap:round; stroke-linejoin:round; stroke-width:4; stroke-opacity:1; fill:none" points="1787.39,1423.18 1787.39,1404.28 "/>
<polyline clip-path="url(#clip410)" style="stroke:#000000; stroke-linecap:round; stroke-linejoin:round; stroke-width:4; stroke-opacity:1; fill:none" points="2292.18,1423.18 2292.18,1404.28 "/>
<path clip-path="url(#clip410)" d="M235.337 1454.1 Q231.726 1454.1 229.897 1457.66 Q228.091 1461.2 228.091 1468.33 Q228.091 1475.44 229.897 1479.01 Q231.726 1482.55 235.337 1482.55 Q238.971 1482.55 240.777 1479.01 Q242.605 1475.44 242.605 1468.33 Q242.605 1461.2 240.777 1457.66 Q238.971 1454.1 235.337 1454.1 M235.337 1450.39 Q241.147 1450.39 244.202 1455 Q247.281 1459.58 247.281 1468.33 Q247.281 1477.06 244.202 1481.67 Q241.147 1486.25 235.337 1486.25 Q229.527 1486.25 226.448 1481.67 Q223.392 1477.06 223.392 1468.33 Q223.392 1459.58 226.448 1455 Q229.527 1450.39 235.337 1450.39 Z" fill="#000000" fill-rule="nonzero" fill-opacity="1" /><path clip-path="url(#clip410)" d="M255.499 1479.7 L260.383 1479.7 L260.383 1485.58 L255.499 1485.58 L255.499 1479.7 Z" fill="#000000" fill-rule="nonzero" fill-opacity="1" /><path clip-path="url(#clip410)" d="M280.568 1454.1 Q276.957 1454.1 275.128 1457.66 Q273.323 1461.2 273.323 1468.33 Q273.323 1475.44 275.128 1479.01 Q276.957 1482.55 280.568 1482.55 Q284.202 1482.55 286.008 1479.01 Q287.837 1475.44 287.837 1468.33 Q287.837 1461.2 286.008 1457.66 Q284.202 1454.1 280.568 1454.1 M280.568 1450.39 Q286.378 1450.39 289.434 1455 Q292.512 1459.58 292.512 1468.33 Q292.512 1477.06 289.434 1481.67 Q286.378 1486.25 280.568 1486.25 Q274.758 1486.25 271.679 1481.67 Q268.624 1477.06 268.624 1468.33 Q268.624 1459.58 271.679 1455 Q274.758 1450.39 280.568 1450.39 Z" fill="#000000" fill-rule="nonzero" fill-opacity="1" /><path clip-path="url(#clip410)" d="M310.73 1454.1 Q307.119 1454.1 305.29 1457.66 Q303.485 1461.2 303.485 1468.33 Q303.485 1475.44 305.29 1479.01 Q307.119 1482.55 310.73 1482.55 Q314.364 1482.55 316.17 1479.01 Q317.998 1475.44 317.998 1468.33 Q317.998 1461.2 316.17 1457.66 Q314.364 1454.1 310.73 1454.1 M310.73 1450.39 Q316.54 1450.39 319.596 1455 Q322.674 1459.58 322.674 1468.33 Q322.674 1477.06 319.596 1481.67 Q316.54 1486.25 310.73 1486.25 Q304.92 1486.25 301.841 1481.67 Q298.786 1477.06 298.786 1468.33 Q298.786 1459.58 301.841 1455 Q304.92 1450.39 310.73 1450.39 Z" fill="#000000" fill-rule="nonzero" fill-opacity="1" /><path clip-path="url(#clip410)" d="M740.621 1454.1 Q737.01 1454.1 735.182 1457.66 Q733.376 1461.2 733.376 1468.33 Q733.376 1475.44 735.182 1479.01 Q737.01 1482.55 740.621 1482.55 Q744.256 1482.55 746.061 1479.01 Q747.89 1475.44 747.89 1468.33 Q747.89 1461.2 746.061 1457.66 Q744.256 1454.1 740.621 1454.1 M740.621 1450.39 Q746.432 1450.39 749.487 1455 Q752.566 1459.58 752.566 1468.33 Q752.566 1477.06 749.487 1481.67 Q746.432 1486.25 740.621 1486.25 Q734.811 1486.25 731.733 1481.67 Q728.677 1477.06 728.677 1468.33 Q728.677 1459.58 731.733 1455 Q734.811 1450.39 740.621 1450.39 Z" fill="#000000" fill-rule="nonzero" fill-opacity="1" /><path clip-path="url(#clip410)" d="M760.783 1479.7 L765.668 1479.7 L765.668 1485.58 L760.783 1485.58 L760.783 1479.7 Z" fill="#000000" fill-rule="nonzero" fill-opacity="1" /><path clip-path="url(#clip410)" d="M785.853 1454.1 Q782.242 1454.1 780.413 1457.66 Q778.607 1461.2 778.607 1468.33 Q778.607 1475.44 780.413 1479.01 Q782.242 1482.55 785.853 1482.55 Q789.487 1482.55 791.293 1479.01 Q793.121 1475.44 793.121 1468.33 Q793.121 1461.2 791.293 1457.66 Q789.487 1454.1 785.853 1454.1 M785.853 1450.39 Q791.663 1450.39 794.718 1455 Q797.797 1459.58 797.797 1468.33 Q797.797 1477.06 794.718 1481.67 Q791.663 1486.25 785.853 1486.25 Q780.043 1486.25 776.964 1481.67 Q773.908 1477.06 773.908 1468.33 Q773.908 1459.58 776.964 1455 Q780.043 1450.39 785.853 1450.39 Z" fill="#000000" fill-rule="nonzero" fill-opacity="1" /><path clip-path="url(#clip410)" d="M806.061 1451.02 L824.417 1451.02 L824.417 1454.96 L810.343 1454.96 L810.343 1463.43 Q811.362 1463.08 812.38 1462.92 Q813.399 1462.73 814.417 1462.73 Q820.204 1462.73 823.584 1465.9 Q826.964 1469.08 826.964 1474.49 Q826.964 1480.07 823.491 1483.17 Q820.019 1486.25 813.7 1486.25 Q811.524 1486.25 809.255 1485.88 Q807.01 1485.51 804.603 1484.77 L804.603 1480.07 Q806.686 1481.2 808.908 1481.76 Q811.13 1482.32 813.607 1482.32 Q817.612 1482.32 819.95 1480.21 Q822.288 1478.1 822.288 1474.49 Q822.288 1470.88 819.95 1468.77 Q817.612 1466.67 813.607 1466.67 Q811.732 1466.67 809.857 1467.08 Q808.005 1467.5 806.061 1468.38 L806.061 1451.02 Z" fill="#000000" fill-rule="nonzero" fill-opacity="1" /><path clip-path="url(#clip410)" d="M1244.91 1454.1 Q1241.3 1454.1 1239.47 1457.66 Q1237.67 1461.2 1237.67 1468.33 Q1237.67 1475.44 1239.47 1479.01 Q1241.3 1482.55 1244.91 1482.55 Q1248.55 1482.55 1250.35 1479.01 Q1252.18 1475.44 1252.18 1468.33 Q1252.18 1461.2 1250.35 1457.66 Q1248.55 1454.1 1244.91 1454.1 M1244.91 1450.39 Q1250.72 1450.39 1253.78 1455 Q1256.86 1459.58 1256.86 1468.33 Q1256.86 1477.06 1253.78 1481.67 Q1250.72 1486.25 1244.91 1486.25 Q1239.1 1486.25 1236.02 1481.67 Q1232.97 1477.06 1232.97 1468.33 Q1232.97 1459.58 1236.02 1455 Q1239.1 1450.39 1244.91 1450.39 Z" fill="#000000" fill-rule="nonzero" fill-opacity="1" /><path clip-path="url(#clip410)" d="M1265.07 1479.7 L1269.96 1479.7 L1269.96 1485.58 L1265.07 1485.58 L1265.07 1479.7 Z" fill="#000000" fill-rule="nonzero" fill-opacity="1" /><path clip-path="url(#clip410)" d="M1280.95 1481.64 L1288.59 1481.64 L1288.59 1455.28 L1280.28 1456.95 L1280.28 1452.69 L1288.54 1451.02 L1293.22 1451.02 L1293.22 1481.64 L1300.86 1481.64 L1300.86 1485.58 L1280.95 1485.58 L1280.95 1481.64 Z" fill="#000000" fill-rule="nonzero" fill-opacity="1" /><path clip-path="url(#clip410)" d="M1320.3 1454.1 Q1316.69 1454.1 1314.86 1457.66 Q1313.06 1461.2 1313.06 1468.33 Q1313.06 1475.44 1314.86 1479.01 Q1316.69 1482.55 1320.3 1482.55 Q1323.94 1482.55 1325.74 1479.01 Q1327.57 1475.44 1327.57 1468.33 Q1327.57 1461.2 1325.74 1457.66 Q1323.94 1454.1 1320.3 1454.1 M1320.3 1450.39 Q1326.11 1450.39 1329.17 1455 Q1332.25 1459.58 1332.25 1468.33 Q1332.25 1477.06 1329.17 1481.67 Q1326.11 1486.25 1320.3 1486.25 Q1314.49 1486.25 1311.42 1481.67 Q1308.36 1477.06 1308.36 1468.33 Q1308.36 1459.58 1311.42 1455 Q1314.49 1450.39 1320.3 1450.39 Z" fill="#000000" fill-rule="nonzero" fill-opacity="1" /><path clip-path="url(#clip410)" d="M1750.2 1454.1 Q1746.58 1454.1 1744.76 1457.66 Q1742.95 1461.2 1742.95 1468.33 Q1742.95 1475.44 1744.76 1479.01 Q1746.58 1482.55 1750.2 1482.55 Q1753.83 1482.55 1755.64 1479.01 Q1757.46 1475.44 1757.46 1468.33 Q1757.46 1461.2 1755.64 1457.66 Q1753.83 1454.1 1750.2 1454.1 M1750.2 1450.39 Q1756.01 1450.39 1759.06 1455 Q1762.14 1459.58 1762.14 1468.33 Q1762.14 1477.06 1759.06 1481.67 Q1756.01 1486.25 1750.2 1486.25 Q1744.39 1486.25 1741.31 1481.67 Q1738.25 1477.06 1738.25 1468.33 Q1738.25 1459.58 1741.31 1455 Q1744.39 1450.39 1750.2 1450.39 Z" fill="#000000" fill-rule="nonzero" fill-opacity="1" /><path clip-path="url(#clip410)" d="M1770.36 1479.7 L1775.24 1479.7 L1775.24 1485.58 L1770.36 1485.58 L1770.36 1479.7 Z" fill="#000000" fill-rule="nonzero" fill-opacity="1" /><path clip-path="url(#clip410)" d="M1786.24 1481.64 L1793.88 1481.64 L1793.88 1455.28 L1785.57 1456.95 L1785.57 1452.69 L1793.83 1451.02 L1798.51 1451.02 L1798.51 1481.64 L1806.14 1481.64 L1806.14 1485.58 L1786.24 1485.58 L1786.24 1481.64 Z" fill="#000000" fill-rule="nonzero" fill-opacity="1" /><path clip-path="url(#clip410)" d="M1815.64 1451.02 L1833.99 1451.02 L1833.99 1454.96 L1819.92 1454.96 L1819.92 1463.43 Q1820.94 1463.08 1821.95 1462.92 Q1822.97 1462.73 1823.99 1462.73 Q1829.78 1462.73 1833.16 1465.9 Q1836.54 1469.08 1836.54 1474.49 Q1836.54 1480.07 1833.07 1483.17 Q1829.59 1486.25 1823.27 1486.25 Q1821.1 1486.25 1818.83 1485.88 Q1816.58 1485.51 1814.18 1484.77 L1814.18 1480.07 Q1816.26 1481.2 1818.48 1481.76 Q1820.7 1482.32 1823.18 1482.32 Q1827.19 1482.32 1829.52 1480.21 Q1831.86 1478.1 1831.86 1474.49 Q1831.86 1470.88 1829.52 1468.77 Q1827.19 1466.67 1823.18 1466.67 Q1821.31 1466.67 1819.43 1467.08 Q1817.58 1467.5 1815.64 1468.38 L1815.64 1451.02 Z" fill="#000000" fill-rule="nonzero" fill-opacity="1" /><path clip-path="url(#clip410)" d="M2254.48 1454.1 Q2250.87 1454.1 2249.05 1457.66 Q2247.24 1461.2 2247.24 1468.33 Q2247.24 1475.44 2249.05 1479.01 Q2250.87 1482.55 2254.48 1482.55 Q2258.12 1482.55 2259.92 1479.01 Q2261.75 1475.44 2261.75 1468.33 Q2261.75 1461.2 2259.92 1457.66 Q2258.12 1454.1 2254.48 1454.1 M2254.48 1450.39 Q2260.3 1450.39 2263.35 1455 Q2266.43 1459.58 2266.43 1468.33 Q2266.43 1477.06 2263.35 1481.67 Q2260.3 1486.25 2254.48 1486.25 Q2248.67 1486.25 2245.6 1481.67 Q2242.54 1477.06 2242.54 1468.33 Q2242.54 1459.58 2245.6 1455 Q2248.67 1450.39 2254.48 1450.39 Z" fill="#000000" fill-rule="nonzero" fill-opacity="1" /><path clip-path="url(#clip410)" d="M2274.65 1479.7 L2279.53 1479.7 L2279.53 1485.58 L2274.65 1485.58 L2274.65 1479.7 Z" fill="#000000" fill-rule="nonzero" fill-opacity="1" /><path clip-path="url(#clip410)" d="M2293.74 1481.64 L2310.06 1481.64 L2310.06 1485.58 L2288.12 1485.58 L2288.12 1481.64 Q2290.78 1478.89 2295.36 1474.26 Q2299.97 1469.61 2301.15 1468.27 Q2303.4 1465.74 2304.28 1464.01 Q2305.18 1462.25 2305.18 1460.56 Q2305.18 1457.8 2303.23 1456.07 Q2301.31 1454.33 2298.21 1454.33 Q2296.01 1454.33 2293.56 1455.09 Q2291.13 1455.86 2288.35 1457.41 L2288.35 1452.69 Q2291.17 1451.55 2293.63 1450.97 Q2296.08 1450.39 2298.12 1450.39 Q2303.49 1450.39 2306.68 1453.08 Q2309.88 1455.77 2309.88 1460.26 Q2309.88 1462.39 2309.07 1464.31 Q2308.28 1466.2 2306.17 1468.8 Q2305.6 1469.47 2302.49 1472.69 Q2299.39 1475.88 2293.74 1481.64 Z" fill="#000000" fill-rule="nonzero" fill-opacity="1" /><path clip-path="url(#clip410)" d="M2329.88 1454.1 Q2326.27 1454.1 2324.44 1457.66 Q2322.63 1461.2 2322.63 1468.33 Q2322.63 1475.44 2324.44 1479.01 Q2326.27 1482.55 2329.88 1482.55 Q2333.51 1482.55 2335.32 1479.01 Q2337.15 1475.44 2337.15 1468.33 Q2337.15 1461.2 2335.32 1457.66 Q2333.51 1454.1 2329.88 1454.1 M2329.88 1450.39 Q2335.69 1450.39 2338.74 1455 Q2341.82 1459.58 2341.82 1468.33 Q2341.82 1477.06 2338.74 1481.67 Q2335.69 1486.25 2329.88 1486.25 Q2324.07 1486.25 2320.99 1481.67 Q2317.93 1477.06 2317.93 1468.33 Q2317.93 1459.58 2320.99 1455 Q2324.07 1450.39 2329.88 1450.39 Z" fill="#000000" fill-rule="nonzero" fill-opacity="1" /><path clip-path="url(#clip410)" d="M1230.92 1522.27 L1230.92 1532.4 L1242.98 1532.4 L1242.98 1536.95 L1230.92 1536.95 L1230.92 1556.3 Q1230.92 1560.66 1232.1 1561.9 Q1233.31 1563.14 1236.97 1563.14 L1242.98 1563.14 L1242.98 1568.04 L1236.97 1568.04 Q1230.19 1568.04 1227.61 1565.53 Q1225.03 1562.98 1225.03 1556.3 L1225.03 1536.95 L1220.73 1536.95 L1220.73 1532.4 L1225.03 1532.4 L1225.03 1522.27 L1230.92 1522.27 Z" fill="#000000" fill-rule="nonzero" fill-opacity="1" /><path clip-path="url(#clip410)" d="M1270.86 1518.52 L1284.36 1518.52 L1284.36 1523.07 L1276.72 1523.07 L1276.72 1572.09 L1284.36 1572.09 L1284.36 1576.64 L1270.86 1576.64 L1270.86 1518.52 Z" fill="#000000" fill-rule="nonzero" fill-opacity="1" /><path clip-path="url(#clip410)" d="M1319.56 1533.45 L1319.56 1538.98 Q1317.08 1537.71 1314.4 1537.07 Q1311.73 1536.44 1308.87 1536.44 Q1304.51 1536.44 1302.31 1537.77 Q1300.14 1539.11 1300.14 1541.79 Q1300.14 1543.82 1301.7 1545 Q1303.26 1546.15 1307.97 1547.2 L1309.98 1547.64 Q1316.22 1548.98 1318.83 1551.43 Q1321.47 1553.85 1321.47 1558.21 Q1321.47 1563.17 1317.52 1566.07 Q1313.61 1568.97 1306.73 1568.97 Q1303.87 1568.97 1300.75 1568.39 Q1297.66 1567.85 1294.22 1566.74 L1294.22 1560.69 Q1297.47 1562.38 1300.62 1563.24 Q1303.77 1564.07 1306.86 1564.07 Q1311 1564.07 1313.23 1562.66 Q1315.45 1561.23 1315.45 1558.65 Q1315.45 1556.27 1313.83 1554.99 Q1312.24 1553.72 1306.8 1552.54 L1304.76 1552.07 Q1299.32 1550.92 1296.9 1548.56 Q1294.48 1546.18 1294.48 1542.04 Q1294.48 1537.01 1298.04 1534.27 Q1301.61 1531.54 1308.17 1531.54 Q1311.41 1531.54 1314.28 1532.01 Q1317.14 1532.49 1319.56 1533.45 Z" fill="#000000" fill-rule="nonzero" fill-opacity="1" /><path clip-path="url(#clip410)" d="M1344.48 1518.52 L1344.48 1576.64 L1330.99 1576.64 L1330.99 1572.09 L1338.59 1572.09 L1338.59 1523.07 L1330.99 1523.07 L1330.99 1518.52 L1344.48 1518.52 Z" fill="#000000" fill-rule="nonzero" fill-opacity="1" /><polyline clip-path="url(#clip412)" style="stroke:#000000; stroke-linecap:round; stroke-linejoin:round; stroke-width:2; stroke-opacity:0.1; fill:none" points="212.459,1189.16 2352.76,1189.16 "/>
<polyline clip-path="url(#clip412)" style="stroke:#000000; stroke-linecap:round; stroke-linejoin:round; stroke-width:2; stroke-opacity:0.1; fill:none" points="212.459,824.675 2352.76,824.675 "/>
<polyline clip-path="url(#clip412)" style="stroke:#000000; stroke-linecap:round; stroke-linejoin:round; stroke-width:2; stroke-opacity:0.1; fill:none" points="212.459,460.187 2352.76,460.187 "/>
<polyline clip-path="url(#clip412)" style="stroke:#000000; stroke-linecap:round; stroke-linejoin:round; stroke-width:2; stroke-opacity:0.1; fill:none" points="212.459,95.6983 2352.76,95.6983 "/>
<polyline clip-path="url(#clip410)" style="stroke:#000000; stroke-linecap:round; stroke-linejoin:round; stroke-width:4; stroke-opacity:1; fill:none" points="212.459,1423.18 212.459,47.2441 "/>
<polyline clip-path="url(#clip410)" style="stroke:#000000; stroke-linecap:round; stroke-linejoin:round; stroke-width:4; stroke-opacity:1; fill:none" points="212.459,1189.16 231.357,1189.16 "/>
<polyline clip-path="url(#clip410)" style="stroke:#000000; stroke-linecap:round; stroke-linejoin:round; stroke-width:4; stroke-opacity:1; fill:none" points="212.459,824.675 231.357,824.675 "/>
<polyline clip-path="url(#clip410)" style="stroke:#000000; stroke-linecap:round; stroke-linejoin:round; stroke-width:4; stroke-opacity:1; fill:none" points="212.459,460.187 231.357,460.187 "/>
<polyline clip-path="url(#clip410)" style="stroke:#000000; stroke-linecap:round; stroke-linejoin:round; stroke-width:4; stroke-opacity:1; fill:none" points="212.459,95.6983 231.357,95.6983 "/>
<path clip-path="url(#clip410)" d="M114.584 1189.62 L144.26 1189.62 L144.26 1193.55 L114.584 1193.55 L114.584 1189.62 Z" fill="#000000" fill-rule="nonzero" fill-opacity="1" /><path clip-path="url(#clip410)" d="M164.931 1187.3 Q161.783 1187.3 159.931 1189.45 Q158.103 1191.61 158.103 1195.36 Q158.103 1199.08 159.931 1201.26 Q161.783 1203.41 164.931 1203.41 Q168.079 1203.41 169.908 1201.26 Q171.76 1199.08 171.76 1195.36 Q171.76 1191.61 169.908 1189.45 Q168.079 1187.3 164.931 1187.3 M174.214 1172.65 L174.214 1176.91 Q172.454 1176.07 170.649 1175.63 Q168.866 1175.19 167.107 1175.19 Q162.477 1175.19 160.024 1178.32 Q157.593 1181.44 157.246 1187.76 Q158.612 1185.75 160.672 1184.68 Q162.732 1183.6 165.209 1183.6 Q170.417 1183.6 173.427 1186.77 Q176.459 1189.92 176.459 1195.36 Q176.459 1200.68 173.311 1203.9 Q170.163 1207.12 164.931 1207.12 Q158.936 1207.12 155.765 1202.53 Q152.593 1197.93 152.593 1189.2 Q152.593 1181 156.482 1176.14 Q160.371 1171.26 166.922 1171.26 Q168.681 1171.26 170.464 1171.61 Q172.269 1171.95 174.214 1172.65 Z" fill="#000000" fill-rule="nonzero" fill-opacity="1" /><path clip-path="url(#clip410)" d="M114.26 825.127 L143.936 825.127 L143.936 829.062 L114.26 829.062 L114.26 825.127 Z" fill="#000000" fill-rule="nonzero" fill-opacity="1" /><path clip-path="url(#clip410)" d="M166.876 811.469 L155.07 829.918 L166.876 829.918 L166.876 811.469 M165.649 807.395 L171.528 807.395 L171.528 829.918 L176.459 829.918 L176.459 833.807 L171.528 833.807 L171.528 841.955 L166.876 841.955 L166.876 833.807 L151.274 833.807 L151.274 829.293 L165.649 807.395 Z" fill="#000000" fill-rule="nonzero" fill-opacity="1" /><path clip-path="url(#clip410)" d="M116.343 460.638 L146.019 460.638 L146.019 464.573 L116.343 464.573 L116.343 460.638 Z" fill="#000000" fill-rule="nonzero" fill-opacity="1" /><path clip-path="url(#clip410)" d="M160.14 473.532 L176.459 473.532 L176.459 477.467 L154.515 477.467 L154.515 473.532 Q157.177 470.777 161.76 466.147 Q166.366 461.495 167.547 460.152 Q169.792 457.629 170.672 455.893 Q171.575 454.134 171.575 452.444 Q171.575 449.689 169.63 447.953 Q167.709 446.217 164.607 446.217 Q162.408 446.217 159.954 446.981 Q157.524 447.745 154.746 449.296 L154.746 444.574 Q157.57 443.439 160.024 442.861 Q162.477 442.282 164.515 442.282 Q169.885 442.282 173.079 444.967 Q176.274 447.652 176.274 452.143 Q176.274 454.273 175.464 456.194 Q174.677 458.092 172.57 460.685 Q171.991 461.356 168.889 464.573 Q165.788 467.768 160.14 473.532 Z" fill="#000000" fill-rule="nonzero" fill-opacity="1" /><path clip-path="url(#clip410)" d="M164.515 81.497 Q160.903 81.497 159.075 85.0618 Q157.269 88.6034 157.269 95.733 Q157.269 102.839 159.075 106.404 Q160.903 109.946 164.515 109.946 Q168.149 109.946 169.954 106.404 Q171.783 102.839 171.783 95.733 Q171.783 88.6034 169.954 85.0618 Q168.149 81.497 164.515 81.497 M164.515 77.7933 Q170.325 77.7933 173.38 82.3997 Q176.459 86.9831 176.459 95.733 Q176.459 104.46 173.38 109.066 Q170.325 113.65 164.515 113.65 Q158.704 113.65 155.626 109.066 Q152.57 104.46 152.57 95.733 Q152.57 86.9831 155.626 82.3997 Q158.704 77.7933 164.515 77.7933 Z" fill="#000000" fill-rule="nonzero" fill-opacity="1" /><path clip-path="url(#clip410)" d="M44.7161 1156.08 L47.5806 1156.08 L47.5806 1183.01 Q53.6281 1182.63 56.8109 1179.38 Q59.9619 1176.1 59.9619 1170.28 Q59.9619 1166.9 59.1344 1163.75 Q58.3069 1160.57 56.6518 1157.45 L62.1899 1157.45 Q63.5267 1160.6 64.227 1163.91 Q64.9272 1167.22 64.9272 1170.63 Q64.9272 1179.16 59.9619 1184.15 Q54.9967 1189.12 46.5303 1189.12 Q37.7774 1189.12 32.6531 1184.41 Q27.4968 1179.67 27.4968 1171.64 Q27.4968 1164.45 32.1438 1160.28 Q36.7589 1156.08 44.7161 1156.08 M42.9973 1161.94 Q38.1912 1162 35.3266 1164.64 Q32.4621 1167.25 32.4621 1171.58 Q32.4621 1176.48 35.2312 1179.44 Q38.0002 1182.37 43.0292 1182.82 L42.9973 1161.94 Z" fill="#000000" fill-rule="nonzero" fill-opacity="1" /><path clip-path="url(#clip410)" d="M33.8307 1125.81 Q33.2578 1126.8 33.0032 1127.98 Q32.7167 1129.12 32.7167 1130.52 Q32.7167 1135.49 35.9632 1138.16 Q39.1779 1140.8 45.2253 1140.8 L64.0042 1140.8 L64.0042 1146.69 L28.3562 1146.69 L28.3562 1140.8 L33.8944 1140.8 Q30.6479 1138.96 29.0883 1136 Q27.4968 1133.04 27.4968 1128.8 Q27.4968 1128.2 27.5923 1127.47 Q27.656 1126.73 27.8151 1125.84 L33.8307 1125.81 Z" fill="#000000" fill-rule="nonzero" fill-opacity="1" /><path clip-path="url(#clip410)" d="M33.8307 1100.16 Q33.2578 1101.14 33.0032 1102.32 Q32.7167 1103.47 32.7167 1104.87 Q32.7167 1109.83 35.9632 1112.51 Q39.1779 1115.15 45.2253 1115.15 L64.0042 1115.15 L64.0042 1121.04 L28.3562 1121.04 L28.3562 1115.15 L33.8944 1115.15 Q30.6479 1113.3 29.0883 1110.34 Q27.4968 1107.38 27.4968 1103.15 Q27.4968 1102.55 27.5923 1101.81 Q27.656 1101.08 27.8151 1100.19 L33.8307 1100.16 Z" fill="#000000" fill-rule="nonzero" fill-opacity="1" /><path clip-path="url(#clip410)" d="M32.4621 1081.63 Q32.4621 1086.34 36.1542 1089.08 Q39.8145 1091.82 46.212 1091.82 Q52.6095 1091.82 56.3017 1089.11 Q59.9619 1086.38 59.9619 1081.63 Q59.9619 1076.95 56.2698 1074.22 Q52.5777 1071.48 46.212 1071.48 Q39.8781 1071.48 36.186 1074.22 Q32.4621 1076.95 32.4621 1081.63 M27.4968 1081.63 Q27.4968 1073.99 32.4621 1069.63 Q37.4273 1065.27 46.212 1065.27 Q54.9649 1065.27 59.9619 1069.63 Q64.9272 1073.99 64.9272 1081.63 Q64.9272 1089.3 59.9619 1093.66 Q54.9649 1097.99 46.212 1097.99 Q37.4273 1097.99 32.4621 1093.66 Q27.4968 1089.3 27.4968 1081.63 Z" fill="#000000" fill-rule="nonzero" fill-opacity="1" /><path clip-path="url(#clip410)" d="M33.8307 1034.91 Q33.2578 1035.9 33.0032 1037.07 Q32.7167 1038.22 32.7167 1039.62 Q32.7167 1044.59 35.9632 1047.26 Q39.1779 1049.9 45.2253 1049.9 L64.0042 1049.9 L64.0042 1055.79 L28.3562 1055.79 L28.3562 1049.9 L33.8944 1049.9 Q30.6479 1048.05 29.0883 1045.09 Q27.4968 1042.13 27.4968 1037.9 Q27.4968 1037.3 27.5923 1036.56 Q27.656 1035.83 27.8151 1034.94 L33.8307 1034.91 Z" fill="#000000" fill-rule="nonzero" fill-opacity="1" /><path clip-path="url(#clip410)" d="M14.5426 993.978 Q21.8632 998.243 29.0246 1000.31 Q36.186 1002.38 43.5384 1002.38 Q50.8908 1002.38 58.1159 1000.31 Q65.3091 998.211 72.5979 993.978 L72.5979 999.071 Q65.1182 1003.84 57.8931 1006.23 Q50.668 1008.59 43.5384 1008.59 Q36.4406 1008.59 29.2474 1006.23 Q22.0542 1003.88 14.5426 999.071 L14.5426 993.978 Z" fill="#000000" fill-rule="nonzero" fill-opacity="1" /><path clip-path="url(#clip410)" d="M29.7248 956.961 L35.1993 956.961 Q33.8307 959.444 33.1623 961.958 Q32.4621 964.441 32.4621 966.987 Q32.4621 972.685 36.0905 975.836 Q39.6872 978.987 46.212 978.987 Q52.7369 978.987 56.3653 975.836 Q59.9619 972.685 59.9619 966.987 Q59.9619 964.441 59.2935 961.958 Q58.5933 959.444 57.2247 956.961 L62.6355 956.961 Q63.7814 959.412 64.3543 962.054 Q64.9272 964.664 64.9272 967.624 Q64.9272 975.677 59.8664 980.419 Q54.8057 985.161 46.212 985.161 Q37.491 985.161 32.4939 980.387 Q27.4968 975.581 27.4968 967.242 Q27.4968 964.537 28.0697 961.958 Q28.6108 959.38 29.7248 956.961 Z" fill="#000000" fill-rule="nonzero" fill-opacity="1" /><path clip-path="url(#clip410)" d="M46.0847 930.576 Q46.0847 937.673 47.7079 940.411 Q49.3312 943.148 53.2461 943.148 Q56.3653 943.148 58.2114 941.111 Q60.0256 939.042 60.0256 935.509 Q60.0256 930.639 56.5881 927.711 Q53.1188 924.751 47.3897 924.751 L46.0847 924.751 L46.0847 930.576 M43.6657 918.894 L64.0042 918.894 L64.0042 924.751 L58.5933 924.751 Q61.8398 926.756 63.3994 929.748 Q64.9272 932.74 64.9272 937.069 Q64.9272 942.543 61.8716 945.79 Q58.7843 949.004 53.6281 949.004 Q47.6125 949.004 44.5569 944.994 Q41.5014 940.952 41.5014 932.963 L41.5014 924.751 L40.9285 924.751 Q36.8862 924.751 34.6901 927.424 Q32.4621 930.066 32.4621 934.872 Q32.4621 937.928 33.1941 940.824 Q33.9262 943.721 35.3903 946.394 L29.9795 946.394 Q28.7381 943.18 28.1334 940.156 Q27.4968 937.132 27.4968 934.268 Q27.4968 926.533 31.5072 922.714 Q35.5176 918.894 43.6657 918.894 Z" fill="#000000" fill-rule="nonzero" fill-opacity="1" /><path clip-path="url(#clip410)" d="M29.4065 884.106 L34.9447 884.106 Q33.6716 886.588 33.035 889.262 Q32.3984 891.936 32.3984 894.8 Q32.3984 899.161 33.7352 901.357 Q35.072 903.521 37.7456 903.521 Q39.7826 903.521 40.9603 901.962 Q42.1061 900.402 43.1565 895.691 L43.6021 893.686 Q44.9389 887.448 47.3897 884.838 Q49.8086 882.196 54.1691 882.196 Q59.1344 882.196 62.0308 886.143 Q64.9272 890.058 64.9272 896.933 Q64.9272 899.797 64.3543 902.917 Q63.8132 906.004 62.6992 909.441 L56.6518 909.441 Q58.3387 906.195 59.198 903.044 Q60.0256 899.893 60.0256 896.805 Q60.0256 892.668 58.6251 890.44 Q57.1929 888.212 54.6147 888.212 Q52.2276 888.212 50.9545 889.835 Q49.6813 891.426 48.5037 896.869 L48.0262 898.906 Q46.8804 904.349 44.5251 906.768 Q42.138 909.187 38.0002 909.187 Q32.9713 909.187 30.2341 905.622 Q27.4968 902.057 27.4968 895.5 Q27.4968 892.254 27.9743 889.389 Q28.4517 886.525 29.4065 884.106 Z" fill="#000000" fill-rule="nonzero" fill-opacity="1" /><path clip-path="url(#clip410)" d="M44.7161 842.379 L47.5806 842.379 L47.5806 869.306 Q53.6281 868.924 56.8109 865.677 Q59.9619 862.399 59.9619 856.574 Q59.9619 853.2 59.1344 850.049 Q58.3069 846.866 56.6518 843.747 L62.1899 843.747 Q63.5267 846.898 64.227 850.208 Q64.9272 853.519 64.9272 856.924 Q64.9272 865.454 59.9619 870.451 Q54.9967 875.417 46.5303 875.417 Q37.7774 875.417 32.6531 870.706 Q27.4968 865.964 27.4968 857.943 Q27.4968 850.75 32.1438 846.58 Q36.7589 842.379 44.7161 842.379 M42.9973 848.235 Q38.1912 848.299 35.3266 850.941 Q32.4621 853.55 32.4621 857.879 Q32.4621 862.781 35.2312 865.741 Q38.0002 868.669 43.0292 869.115 L42.9973 848.235 Z" fill="#000000" fill-rule="nonzero" fill-opacity="1" /><path clip-path="url(#clip410)" d="M58.5933 810.105 L58.5933 799.601 L22.3406 799.601 L24.6323 811.028 L18.7758 811.028 L16.4842 799.665 L16.4842 793.235 L58.5933 793.235 L58.5933 782.732 L64.0042 782.732 L64.0042 810.105 L58.5933 810.105 Z" fill="#000000" fill-rule="nonzero" fill-opacity="1" /><path clip-path="url(#clip410)" d="M43.5384 752.813 L43.5384 735.658 L48.7583 735.658 L48.7583 752.813 L43.5384 752.813 Z" fill="#000000" fill-rule="nonzero" fill-opacity="1" /><path clip-path="url(#clip410)" d="M29.7248 679.958 L35.1993 679.958 Q33.8307 682.44 33.1623 684.955 Q32.4621 687.437 32.4621 689.984 Q32.4621 695.681 36.0905 698.832 Q39.6872 701.983 46.212 701.983 Q52.7369 701.983 56.3653 698.832 Q59.9619 695.681 59.9619 689.984 Q59.9619 687.437 59.2935 684.955 Q58.5933 682.44 57.2247 679.958 L62.6355 679.958 Q63.7814 682.408 64.3543 685.05 Q64.9272 687.66 64.9272 690.62 Q64.9272 698.673 59.8664 703.415 Q54.8057 708.158 46.212 708.158 Q37.491 708.158 32.4939 703.383 Q27.4968 698.577 27.4968 690.238 Q27.4968 687.533 28.0697 684.955 Q28.6108 682.377 29.7248 679.958 Z" fill="#000000" fill-rule="nonzero" fill-opacity="1" /><path clip-path="url(#clip410)" d="M46.0847 653.572 Q46.0847 660.67 47.7079 663.407 Q49.3312 666.144 53.2461 666.144 Q56.3653 666.144 58.2114 664.107 Q60.0256 662.038 60.0256 658.505 Q60.0256 653.635 56.5881 650.707 Q53.1188 647.747 47.3897 647.747 L46.0847 647.747 L46.0847 653.572 M43.6657 641.891 L64.0042 641.891 L64.0042 647.747 L58.5933 647.747 Q61.8398 649.752 63.3994 652.744 Q64.9272 655.736 64.9272 660.065 Q64.9272 665.539 61.8716 668.786 Q58.7843 672.001 53.6281 672.001 Q47.6125 672.001 44.5569 667.99 Q41.5014 663.948 41.5014 655.959 L41.5014 647.747 L40.9285 647.747 Q36.8862 647.747 34.6901 650.421 Q32.4621 653.063 32.4621 657.869 Q32.4621 660.924 33.1941 663.821 Q33.9262 666.717 35.3903 669.391 L29.9795 669.391 Q28.7381 666.176 28.1334 663.152 Q27.4968 660.128 27.4968 657.264 Q27.4968 649.53 31.5072 645.71 Q35.5176 641.891 43.6657 641.891 Z" fill="#000000" fill-rule="nonzero" fill-opacity="1" /><path clip-path="url(#clip410)" d="M29.4065 607.102 L34.9447 607.102 Q33.6716 609.585 33.035 612.258 Q32.3984 614.932 32.3984 617.797 Q32.3984 622.157 33.7352 624.353 Q35.072 626.518 37.7456 626.518 Q39.7826 626.518 40.9603 624.958 Q42.1061 623.398 43.1565 618.688 L43.6021 616.683 Q44.9389 610.444 47.3897 607.834 Q49.8086 605.192 54.1691 605.192 Q59.1344 605.192 62.0308 609.139 Q64.9272 613.054 64.9272 619.929 Q64.9272 622.794 64.3543 625.913 Q63.8132 629 62.6992 632.438 L56.6518 632.438 Q58.3387 629.191 59.198 626.04 Q60.0256 622.889 60.0256 619.802 Q60.0256 615.664 58.6251 613.436 Q57.1929 611.208 54.6147 611.208 Q52.2276 611.208 50.9545 612.831 Q49.6813 614.423 48.5037 619.865 L48.0262 621.902 Q46.8804 627.345 44.5251 629.764 Q42.138 632.183 38.0002 632.183 Q32.9713 632.183 30.2341 628.618 Q27.4968 625.053 27.4968 618.497 Q27.4968 615.25 27.9743 612.386 Q28.4517 609.521 29.4065 607.102 Z" fill="#000000" fill-rule="nonzero" fill-opacity="1" /><path clip-path="url(#clip410)" d="M44.7161 565.375 L47.5806 565.375 L47.5806 592.302 Q53.6281 591.92 56.8109 588.673 Q59.9619 585.395 59.9619 579.57 Q59.9619 576.197 59.1344 573.046 Q58.3069 569.863 56.6518 566.744 L62.1899 566.744 Q63.5267 569.895 64.227 573.205 Q64.9272 576.515 64.9272 579.921 Q64.9272 588.451 59.9619 593.448 Q54.9967 598.413 46.5303 598.413 Q37.7774 598.413 32.6531 593.702 Q27.4968 588.96 27.4968 580.939 Q27.4968 573.746 32.1438 569.576 Q36.7589 565.375 44.7161 565.375 M42.9973 571.231 Q38.1912 571.295 35.3266 573.937 Q32.4621 576.547 32.4621 580.875 Q32.4621 585.777 35.2312 588.737 Q38.0002 591.665 43.0292 592.111 L42.9973 571.231 Z" fill="#000000" fill-rule="nonzero" fill-opacity="1" /><path clip-path="url(#clip410)" d="M58.5933 528.677 L58.5933 506.238 L64.0042 506.238 L64.0042 536.411 L58.5933 536.411 Q54.8057 532.751 48.44 526.449 Q42.0425 520.115 40.1964 518.491 Q36.7271 515.404 34.34 514.195 Q31.921 512.953 29.5975 512.953 Q25.8099 512.953 23.4228 515.627 Q21.0356 518.269 21.0356 522.534 Q21.0356 525.557 22.086 528.931 Q23.1363 532.273 25.2688 536.093 L18.7758 536.093 Q17.2162 532.21 16.4205 528.836 Q15.6248 525.462 15.6248 522.661 Q15.6248 515.277 19.3169 510.884 Q23.009 506.492 29.1837 506.492 Q32.112 506.492 34.7537 507.606 Q37.3637 508.688 40.9285 511.585 Q41.8515 512.38 46.2757 516.645 Q50.668 520.91 58.5933 528.677 Z" fill="#000000" fill-rule="nonzero" fill-opacity="1" /><path clip-path="url(#clip410)" d="M14.5426 494.493 L14.5426 489.4 Q22.0542 484.626 29.2474 482.271 Q36.4406 479.883 43.5384 479.883 Q50.668 479.883 57.8931 482.271 Q65.1182 484.626 72.5979 489.4 L72.5979 494.493 Q65.3091 490.26 58.1159 488.191 Q50.8908 486.09 43.5384 486.09 Q36.186 486.09 29.0246 488.191 Q21.8632 490.26 14.5426 494.493 Z" fill="#000000" fill-rule="nonzero" fill-opacity="1" /><path clip-path="url(#clip410)" d="M14.479 447.959 L14.479 434.464 L19.0304 434.464 L19.0304 442.103 L68.0464 442.103 L68.0464 434.464 L72.5979 434.464 L72.5979 447.959 L14.479 447.959 Z" fill="#000000" fill-rule="nonzero" fill-opacity="1" /><path clip-path="url(#clip410)" d="M35.1993 394.233 Q31.2526 392.037 29.3747 388.981 Q27.4968 385.926 27.4968 381.788 Q27.4968 376.218 31.4117 373.194 Q35.2948 370.171 42.4881 370.171 L64.0042 370.171 L64.0042 376.059 L42.679 376.059 Q37.5546 376.059 35.072 377.873 Q32.5894 379.687 32.5894 383.411 Q32.5894 387.963 35.6131 390.604 Q38.6368 393.246 43.8567 393.246 L64.0042 393.246 L64.0042 399.134 L42.679 399.134 Q37.5228 399.134 35.072 400.949 Q32.5894 402.763 32.5894 406.551 Q32.5894 411.038 35.6449 413.68 Q38.6686 416.322 43.8567 416.322 L64.0042 416.322 L64.0042 422.21 L28.3562 422.21 L28.3562 416.322 L33.8944 416.322 Q30.616 414.317 29.0564 411.516 Q27.4968 408.715 27.4968 404.864 Q27.4968 400.981 29.4702 398.275 Q31.4436 395.538 35.1993 394.233 Z" fill="#000000" fill-rule="nonzero" fill-opacity="1" /><path clip-path="url(#clip410)" d="M35.1993 330.735 Q31.2526 328.539 29.3747 325.483 Q27.4968 322.428 27.4968 318.29 Q27.4968 312.72 31.4117 309.696 Q35.2948 306.673 42.4881 306.673 L64.0042 306.673 L64.0042 312.561 L42.679 312.561 Q37.5546 312.561 35.072 314.375 Q32.5894 316.189 32.5894 319.913 Q32.5894 324.465 35.6131 327.107 Q38.6368 329.748 43.8567 329.748 L64.0042 329.748 L64.0042 335.637 L42.679 335.637 Q37.5228 335.637 35.072 337.451 Q32.5894 339.265 32.5894 343.053 Q32.5894 347.54 35.6449 350.182 Q38.6686 352.824 43.8567 352.824 L64.0042 352.824 L64.0042 358.712 L28.3562 358.712 L28.3562 352.824 L33.8944 352.824 Q30.616 350.819 29.0564 348.018 Q27.4968 345.217 27.4968 341.366 Q27.4968 337.483 29.4702 334.777 Q31.4436 332.04 35.1993 330.735 Z" fill="#000000" fill-rule="nonzero" fill-opacity="1" /><path clip-path="url(#clip410)" d="M14.479 281.305 L72.5979 281.305 L72.5979 294.801 L68.0464 294.801 L68.0464 287.194 L19.0304 287.194 L19.0304 294.801 L14.479 294.801 L14.479 281.305 Z" fill="#000000" fill-rule="nonzero" fill-opacity="1" /><polyline clip-path="url(#clip412)" style="stroke:#009af9; stroke-linecap:round; stroke-linejoin:round; stroke-width:4; stroke-opacity:1; fill:none" points="273.033,95.6983 274.043,95.6983 275.052,95.6983 276.062,95.6982 277.072,95.6982 278.081,95.6981 279.091,95.698 280.1,95.6978 281.11,95.6976 282.12,95.6973 283.129,95.6969 284.139,95.6964 285.148,95.6959 286.158,95.6952 287.167,95.6944 288.177,95.6936 289.187,95.6925 290.196,95.6914 291.206,95.6901 292.215,95.6887 293.225,95.6871 294.234,95.6853 295.244,95.6834 296.254,95.6812 297.263,95.6789 298.273,95.6764 299.282,95.6736 300.292,95.6707 301.301,95.6675 302.311,95.6641 303.321,95.6605 304.33,95.6565 305.34,95.6524 306.349,95.648 307.359,95.6432 308.368,95.6383 309.378,95.633 310.388,95.6274 311.397,95.6215 312.407,95.6153 313.416,95.6088 314.426,95.6019 315.435,95.5947 316.445,95.5872 317.455,95.5793 318.464,95.571 319.474,95.5624 320.483,95.5534 321.493,95.544 322.502,95.5342 323.512,95.524 324.522,95.5134 325.531,95.5024 326.541,95.491 327.55,95.4791 328.56,95.4668 329.569,95.4541 330.579,95.4409 331.589,95.4272 332.598,95.4131 333.608,95.3985 334.617,95.3835 335.627,95.3679 336.637,95.3519 337.646,95.3353 338.656,95.3183 339.665,95.3007 340.675,95.2826 341.684,95.264 342.694,95.2449 343.704,95.2252 344.713,95.205 345.723,95.1842 346.732,95.1629 347.742,95.1411 348.751,95.1186 349.761,95.0956 350.771,95.0721 351.78,95.0479 352.79,95.0232 353.799,94.9978 354.809,94.9719 355.818,94.9454 356.828,94.9183 357.838,94.8905 358.847,94.8622 359.857,94.8332 360.866,94.8036 361.876,94.7734 362.885,94.7426 363.895,94.7111 364.905,94.679 365.914,94.6462 366.924,94.6128 367.933,94.5788 368.943,94.5442 369.952,94.5089 370.962,94.4729 371.972,94.4363 372.981,94.399 373.991,94.3611 375,94.3225 376.01,94.2833 377.019,94.2434 378.029,94.2028 379.039,94.1616 380.048,94.1198 381.058,94.0772 382.067,94.034 383.077,93.9902 384.086,93.9457 385.096,93.9005 386.106,93.8546 387.115,93.8081 388.125,93.7609 389.134,93.7131 390.144,93.6646 391.154,93.6155 392.163,93.5657 393.173,93.5152 394.182,93.4641 395.192,93.4124 396.201,93.36 397.211,93.3069 398.221,93.2533 399.23,93.199 400.24,93.1441 401.249,93.0886 402.259,93.0324 403.268,92.9757 404.278,92.9183 405.288,92.8603 406.297,92.8018 407.307,92.7427 408.316,92.683 409.326,92.6228 410.335,92.5619 411.345,92.5005 412.355,92.4386 413.364,92.3761 414.374,92.313 415.383,92.2494 416.393,92.1853 417.402,92.1207 418.412,92.0556 419.422,91.9899 420.431,91.9238 421.441,91.8572 422.45,91.7902 423.46,91.7227 424.469,91.6547 425.479,91.5863 426.489,91.5176 427.498,91.4484 428.508,91.3788 429.517,91.3088 430.527,91.2385 431.536,91.1679 432.546,91.0969 433.556,91.0255 434.565,90.9539 435.575,90.882 436.584,90.8098 437.594,90.7373 438.603,90.6646 439.613,90.5917 440.623,90.5186 441.632,90.4452 442.642,90.3717 443.651,90.298 444.661,90.2242 445.671,90.1502 446.68,90.0762 447.69,90.0019 448.699,89.9274 449.709,89.853 450.718,89.7787 451.728,89.7044 452.738,89.6306 453.747,89.5567 454.757,89.4829 455.766,89.4091 456.776,89.3353 457.785,89.2615 458.795,89.1879 459.805,89.1145 460.814,89.0412 461.824,88.968 462.833,88.8952 463.843,88.8225 464.852,88.7502 465.862,88.6782 466.872,88.6066 467.881,88.5353 468.891,88.4644 469.9,88.394 470.91,88.3241 471.919,88.2546 472.929,88.1858 473.939,88.1174 474.948,88.0497 475.958,87.9827 476.967,87.9163 477.977,87.8506 478.986,87.7856 479.996,87.7214 481.006,87.658 482.015,87.5955 483.025,87.5338 484.034,87.473 485.044,87.4131 486.053,87.3542 487.063,87.2963 488.073,87.2395 489.082,87.1837 490.092,87.129 491.101,87.0754 492.111,87.023 493.12,86.9719 494.13,86.9219 495.14,86.8733 496.149,86.8259 497.159,86.7799 498.168,86.7352 499.178,86.692 500.188,86.6502 501.197,86.61 502.207,86.5712 503.216,86.534 504.226,86.4983 505.235,86.4643 506.245,86.432 507.255,86.401 508.264,86.3717 509.274,86.3445 510.283,86.3194 511.293,86.2964 512.302,86.276 513.312,86.2578 514.322,86.2414 515.331,86.2271 516.341,86.2147 517.35,86.2045 518.36,86.1964 519.369,86.1905 520.379,86.1869 521.389,86.1857 522.398,86.1868 523.408,86.1903 524.417,86.1964 525.427,86.205 526.436,86.2163 527.446,86.2302 528.456,86.2469 529.465,86.2664 530.475,86.2887 531.484,86.3139 532.494,86.3421 533.503,86.3733 534.513,86.4076 535.523,86.445 536.532,86.4856 537.542,86.5295 538.551,86.5767 539.561,86.6272 540.57,86.6811 541.58,86.7385 542.59,86.7995 543.599,86.864 544.609,86.9321 545.618,87.004 546.628,87.0796 547.637,87.1589 548.647,87.2422 549.657,87.3293 550.666,87.4204 551.676,87.5155 552.685,87.6146 553.695,87.7179 554.705,87.8254 555.714,87.937 556.724,88.053 557.733,88.1733 558.743,88.2979 559.752,88.427 560.762,88.5606 561.772,88.6987 562.781,88.8413 563.791,88.9887 564.8,89.1407 565.81,89.2974 566.819,89.4589 567.829,89.6253 568.839,89.7965 569.848,89.9727 570.858,90.1539 571.867,90.3401 572.877,90.5308 573.886,90.7264 574.896,90.9276 575.906,91.1344 576.915,91.3469 577.925,91.5652 578.934,91.7902 579.944,92.0211 580.953,92.2574 581.963,92.4994 582.973,92.7469 583.982,93.0003 584.992,93.2594 586.001,93.5244 587.011,93.7954 588.02,94.0724 589.03,94.3555 590.04,94.6448 591.049,94.9404 592.059,95.2423 593.068,95.5506 594.078,95.8653 595.087,96.1867 596.097,96.5146 597.107,96.8492 598.116,97.1906 599.126,97.5388 600.135,97.8939 601.145,98.256 602.154,98.6251 603.164,99.0012 604.174,99.3846 605.183,99.7752 606.193,100.173 607.202,100.578 608.212,100.991 609.222,101.411 610.231,101.839 611.241,102.274 612.25,102.717 613.26,103.168 614.269,103.626 615.279,104.093 616.289,104.567 617.298,105.049 618.308,105.539 619.317,106.038 620.327,106.544 621.336,107.059 622.346,107.582 623.356,108.113 624.365,108.653 625.375,109.201 626.384,109.758 627.394,110.323 628.403,110.897 629.413,111.479 630.423,112.07 631.432,112.67 632.442,113.279 633.451,113.896 634.461,114.523 635.47,115.158 636.48,115.802 637.49,116.456 638.499,117.118 639.509,117.79 640.518,118.471 641.528,119.161 642.537,119.86 643.547,120.569 644.557,121.286 645.566,122.011 646.576,122.747 647.585,123.492 648.595,124.248 649.604,125.015 650.614,125.793 651.624,126.581 652.633,127.379 653.643,128.187 654.652,129.004 655.662,129.832 656.671,130.669 657.681,131.517 658.691,132.374 659.7,133.242 660.71,134.12 661.719,135.008 662.729,135.907 663.739,136.816 664.748,137.736 665.758,138.666 666.767,139.606 667.777,140.558 668.786,141.52 669.796,142.492 670.806,143.476 671.815,144.47 672.825,145.475 673.834,146.491 674.844,147.518 675.853,148.557 676.863,149.606 677.873,150.666 678.882,151.738 679.892,152.821 680.901,153.915 681.911,155.02 682.92,156.137 683.93,157.265 684.94,158.404 685.949,159.555 686.959,160.718 687.968,161.892 688.978,163.078 689.987,164.275 690.997,165.484 692.007,166.704 693.016,167.937 694.026,169.181 695.035,170.437 696.045,171.704 697.054,172.984 698.064,174.275 699.074,175.579 700.083,176.894 701.093,178.221 702.102,179.561 703.112,180.912 704.121,182.275 705.131,183.651 706.141,185.038 707.15,186.438 708.16,187.85 709.169,189.274 710.179,190.71 711.188,192.158 712.198,193.618 713.208,195.091 714.217,196.576 715.227,198.073 716.236,199.583 717.246,201.105 718.256,202.639 719.265,204.185 720.275,205.744 721.284,207.315 722.294,208.899 723.303,210.495 724.313,212.103 725.323,213.724 726.332,215.357 727.342,217.001 728.351,218.655 729.361,220.322 730.37,222.003 731.38,223.696 732.39,225.402 733.399,227.122 734.409,228.857 735.418,230.607 736.428,232.369 737.437,234.143 738.447,235.93 739.457,237.729 740.466,239.541 741.476,241.365 742.485,243.201 743.495,245.05 744.504,246.912 745.514,248.785 746.524,250.672 747.533,252.571 748.543,254.482 749.552,256.405 750.562,258.342 751.571,260.29 752.581,262.251 753.591,264.225 754.6,266.21 755.61,268.209 756.619,270.219 757.629,272.243 758.638,274.278 759.648,276.326 760.658,278.386 761.667,280.459 762.677,282.544 763.686,284.641 764.696,286.751 765.705,288.873 766.715,291.007 767.725,293.154 768.734,295.313 769.744,297.484 770.753,299.668 771.763,301.863 772.773,304.071 773.782,306.291 774.792,308.523 775.801,310.768 776.811,313.024 777.82,315.293 778.83,317.574 779.84,319.866 780.849,322.171 781.859,324.488 782.868,326.817 783.878,329.157 784.887,331.51 785.897,333.875 786.907,336.251 787.916,338.64 788.926,341.04 789.935,343.452 790.945,345.875 791.954,348.311 792.964,350.758 793.974,353.217 794.983,355.687 795.993,358.169 797.002,360.663 798.012,363.168 799.021,365.684 800.031,368.212 801.041,370.752 802.05,373.303 803.06,375.865 804.069,378.438 805.079,381.023 806.088,383.619 807.098,386.226 808.108,388.844 809.117,391.473 810.127,394.113 811.136,396.765 812.146,399.427 813.155,402.1 814.165,404.784 815.175,407.478 816.184,410.184 817.194,412.9 818.203,415.627 819.213,418.364 820.222,421.112 821.232,423.87 822.242,426.639 823.251,429.418 824.261,432.208 825.27,435.008 826.28,437.818 827.29,440.64 828.299,443.471 829.309,446.312 830.318,449.163 831.328,452.023 832.337,454.893 833.347,457.773 834.357,460.662 835.366,463.56 836.376,466.468 837.385,469.384 838.395,472.311 839.404,475.246 840.414,478.19 841.424,481.143 842.433,484.102 843.443,487.071 844.452,490.048 845.462,493.035 846.471,496.031 847.481,499.035 848.491,502.048 849.5,505.07 850.51,508.1 851.519,511.138 852.529,514.185 853.538,517.24 854.548,520.303 855.558,523.374 856.567,526.453 857.577,529.54 858.586,532.634 859.596,535.736 860.605,538.846 861.615,541.962 862.625,545.087 863.634,548.218 864.644,551.356 865.653,554.502 866.663,557.654 867.672,560.813 868.682,563.979 869.692,567.152 870.701,570.331 871.711,573.516 872.72,576.708 873.73,579.906 874.739,583.11 875.749,586.321 876.759,589.537 877.768,592.759 878.778,595.987 879.787,599.221 880.797,602.46 881.807,605.705 882.816,608.955 883.826,612.211 884.835,615.472 885.845,618.738 886.854,622.01 887.864,625.286 888.874,628.567 889.883,631.853 890.893,635.144 891.902,638.439 892.912,641.739 893.921,645.044 894.931,648.353 895.941,651.666 896.95,654.985 897.96,658.316 898.969,661.65 899.979,664.987 900.988,668.326 901.998,671.667 903.008,675.012 904.017,678.358 905.027,681.707 906.036,685.059 907.046,688.412 908.055,691.769 909.065,695.127 910.075,698.488 911.084,701.851 912.094,705.216 913.103,708.583 914.113,711.952 915.122,715.323 916.132,718.696 917.142,722.07 918.151,725.447 919.161,728.825 920.17,732.203 921.18,735.54 922.189,738.884 923.199,742.233 924.209,745.588 925.218,748.949 926.228,752.314 927.237,755.684 928.247,759.058 929.256,762.437 930.266,765.819 931.276,769.205 932.285,772.595 933.295,775.987 934.304,779.381 935.314,782.779 936.323,786.178 937.333,789.579 938.343,792.982 939.352,796.386 940.362,799.791 941.371,803.197 942.381,806.603 943.391,810.01 944.4,813.417 945.41,816.824 946.419,820.23 947.429,823.636 948.438,827.041 949.448,830.445 950.458,833.848 951.467,837.249 952.477,840.648 953.486,844.046 954.496,847.442 955.505,850.835 956.515,854.226 957.525,857.614 958.534,860.999 959.544,864.381 960.553,867.76 961.563,871.136 962.572,874.508 963.582,877.877 964.592,881.241 965.601,884.602 966.611,887.958 967.62,891.31 968.63,894.658 969.639,898.001 970.649,901.339 971.659,904.673 972.668,908.001 973.678,911.324 974.687,914.642 975.697,917.955 976.706,921.262 977.716,924.564 978.726,927.86 979.735,931.15 980.745,934.434 981.754,937.713 982.764,940.985 983.773,944.251 984.783,947.511 985.793,950.765 986.802,954.012 987.812,957.253 988.821,960.487 989.831,963.715 990.84,966.936 991.85,970.15 992.86,973.358 993.869,976.559 994.879,979.753 995.888,982.94 996.898,986.121 997.908,989.294 998.917,992.461 999.927,995.621 1000.94,998.773 1001.95,1001.92 1002.96,1005.06 1003.96,1008.2 1004.97,1011.33 1005.98,1014.45 1006.99,1017.56 1008,1020.67 1009.01,1023.76 1010.02,1026.84 1011.03,1029.92 1012.04,1032.99 1013.05,1036.04 1014.06,1039.09 1015.07,1042.13 1016.08,1045.16 1017.09,1048.18 1018.1,1051.19 1019.11,1054.2 1020.12,1057.19 1021.13,1060.18 1022.14,1063.15 1023.15,1066.12 1024.16,1069.08 1025.17,1072.02 1026.18,1074.96 1027.19,1077.89 1028.19,1080.81 1029.2,1083.72 1030.21,1086.63 1031.22,1089.52 1032.23,1092.4 1033.24,1095.27 1034.25,1098.13 1035.26,1100.99 1036.27,1103.83 1037.28,1106.66 1038.29,1109.48 1039.3,1112.3 1040.31,1115.1 1041.32,1117.89 1042.33,1120.67 1043.34,1123.44 1044.35,1126.2 1045.36,1128.95 1046.37,1131.68 1047.38,1134.41 1048.39,1137.13 1049.4,1139.83 1050.41,1142.52 1051.41,1145.2 1052.42,1147.87 1053.43,1150.52 1054.44,1153.17 1055.45,1155.8 1056.46,1158.41 1057.47,1161.02 1058.48,1163.61 1059.49,1166.19 1060.5,1168.76 1061.51,1171.31 1062.52,1173.85 1063.53,1176.37 1064.54,1178.88 1065.55,1181.38 1066.56,1183.87 1067.57,1186.35 1068.58,1188.81 1069.59,1191.26 1070.6,1193.7 1071.61,1196.12 1072.62,1198.53 1073.63,1200.93 1074.64,1203.31 1075.64,1205.69 1076.65,1208.04 1077.66,1210.39 1078.67,1212.72 1079.68,1215.03 1080.69,1217.34 1081.7,1219.62 1082.71,1221.9 1083.72,1224.16 1084.73,1226.4 1085.74,1228.64 1086.75,1230.85 1087.76,1233.06 1088.77,1235.24 1089.78,1237.42 1090.79,1239.58 1091.8,1241.72 1092.81,1243.85 1093.82,1245.97 1094.83,1248.07 1095.84,1250.15 1096.85,1252.22 1097.86,1254.28 1098.86,1256.32 1099.87,1258.35 1100.88,1260.36 1101.89,1262.35 1102.9,1264.33 1103.91,1266.3 1104.92,1268.25 1105.93,1270.19 1106.94,1272.11 1107.95,1274.01 1108.96,1275.9 1109.97,1277.77 1110.98,1279.62 1111.99,1281.46 1113,1283.29 1114.01,1285.09 1115.02,1286.89 1116.03,1288.67 1117.04,1290.43 1118.05,1292.18 1119.06,1293.91 1120.07,1295.63 1121.08,1297.33 1122.09,1299.02 1123.09,1300.69 1124.1,1302.35 1125.11,1303.99 1126.12,1305.61 1127.13,1307.22 1128.14,1308.81 1129.15,1310.39 1130.16,1311.95 1131.17,1313.49 1132.18,1315.02 1133.19,1316.54 1134.2,1318.03 1135.21,1319.51 1136.22,1320.98 1137.23,1322.43 1138.24,1323.86 1139.25,1325.28 1140.26,1326.67 1141.27,1328.06 1142.28,1329.43 1143.29,1330.78 1144.3,1332.11 1145.31,1333.43 1146.31,1334.73 1147.32,1336.02 1148.33,1337.28 1149.34,1338.54 1150.35,1339.77 1151.36,1340.99 1152.37,1342.19 1153.38,1343.38 1154.39,1344.55 1155.4,1345.7 1156.41,1346.84 1157.42,1347.96 1158.43,1349.06 1159.44,1350.15 1160.45,1351.21 1161.46,1352.27 1162.47,1353.3 1163.48,1354.35 1164.49,1355.41 1165.5,1356.44 1166.51,1357.45 1167.52,1358.44 1168.53,1359.4 1169.54,1360.35 1170.54,1361.27 1171.55,1362.18 1172.56,1363.06 1173.57,1363.92 1174.58,1364.77 1175.59,1365.59 1176.6,1366.39 1177.61,1367.18 1178.62,1367.94 1179.63,1368.68 1180.64,1369.41 1181.65,1370.12 1182.66,1370.8 1183.67,1371.47 1184.68,1372.12 1185.69,1372.76 1186.7,1373.37 1187.71,1373.97 1188.72,1374.55 1189.73,1375.11 1190.74,1375.65 1191.75,1376.17 1192.76,1376.68 1193.76,1377.17 1194.77,1377.65 1195.78,1378.1 1196.79,1378.54 1197.8,1378.97 1198.81,1379.37 1199.82,1379.76 1200.83,1380.13 1201.84,1380.49 1202.85,1380.83 1203.86,1381.15 1204.87,1381.46 1205.88,1381.75 1206.89,1382.02 1207.9,1382.28 1208.91,1382.52 1209.92,1382.75 1210.93,1382.96 1211.94,1383.15 1212.95,1383.33 1213.96,1383.49 1214.97,1383.64 1215.98,1383.77 1216.99,1383.88 1217.99,1383.98 1219,1384.06 1220.01,1384.13 1221.02,1384.18 1222.03,1384.22 1223.04,1384.24 1224.05,1384.24 1225.06,1384.23 1226.07,1384.19 1227.08,1384.15 1228.09,1384.08 1229.1,1384 1230.11,1383.91 1231.12,1383.8 1232.13,1383.68 1233.14,1383.55 1234.15,1383.4 1235.16,1383.23 1236.17,1383.05 1237.18,1382.86 1238.19,1382.65 1239.2,1382.43 1240.21,1382.19 1241.21,1381.93 1242.22,1381.67 1243.23,1381.38 1244.24,1381.08 1245.25,1380.77 1246.26,1380.44 1247.27,1380.09 1248.28,1379.73 1249.29,1379.35 1250.3,1378.96 1251.31,1378.56 1252.32,1378.13 1253.33,1377.69 1254.34,1377.24 1255.35,1376.77 1256.36,1376.28 1257.37,1375.78 1258.38,1375.27 1259.39,1374.73 1260.4,1374.19 1261.41,1373.62 1262.42,1373.04 1263.43,1372.45 1264.44,1371.84 1265.44,1371.21 1266.45,1370.57 1267.46,1369.91 1268.47,1369.23 1269.48,1368.54 1270.49,1367.84 1271.5,1367.12 1272.51,1366.38 1273.52,1365.63 1274.53,1364.86 1275.54,1364.08 1276.55,1363.28 1277.56,1362.46 1278.57,1361.63 1279.58,1360.79 1280.59,1359.92 1281.6,1359.05 1282.61,1358.16 1283.62,1357.25 1284.63,1356.33 1285.64,1355.39 1286.65,1354.44 1287.66,1353.47 1288.66,1352.49 1289.67,1351.49 1290.68,1350.48 1291.69,1349.46 1292.7,1348.42 1293.71,1347.36 1294.72,1346.29 1295.73,1345.21 1296.74,1344.11 1297.75,1342.99 1298.76,1341.87 1299.77,1340.73 1300.78,1339.57 1301.79,1338.4 1302.8,1337.22 1303.81,1336.03 1304.82,1334.82 1305.83,1333.59 1306.84,1332.36 1307.85,1331.11 1308.86,1329.85 1309.87,1328.57 1310.88,1327.28 1311.89,1325.98 1312.89,1324.67 1313.9,1323.34 1314.91,1322.01 1315.92,1320.66 1316.93,1319.3 1317.94,1317.92 1318.95,1316.53 1319.96,1315.12 1320.97,1313.69 1321.98,1312.26 1322.99,1310.8 1324,1309.34 1325.01,1307.86 1326.02,1306.37 1327.03,1304.86 1328.04,1303.34 1329.05,1301.81 1330.06,1300.26 1331.07,1298.7 1332.08,1297.13 1333.09,1295.54 1334.1,1293.94 1335.11,1292.33 1336.11,1290.7 1337.12,1289.06 1338.13,1287.41 1339.14,1285.75 1340.15,1284.07 1341.16,1282.38 1342.17,1280.68 1343.18,1278.96 1344.19,1277.24 1345.2,1275.5 1346.21,1273.74 1347.22,1271.98 1348.23,1270.2 1349.24,1268.41 1350.25,1266.61 1351.26,1264.8 1352.27,1262.97 1353.28,1261.14 1354.29,1259.29 1355.3,1257.43 1356.31,1255.55 1357.32,1253.67 1358.33,1251.77 1359.34,1249.86 1360.34,1247.94 1361.35,1246.01 1362.36,1244.07 1363.37,1242.11 1364.38,1240.15 1365.39,1238.17 1366.4,1236.18 1367.41,1234.18 1368.42,1232.17 1369.43,1230.15 1370.44,1228.12 1371.45,1226.07 1372.46,1224.01 1373.47,1221.95 1374.48,1219.87 1375.49,1217.78 1376.5,1215.68 1377.51,1213.57 1378.52,1211.45 1379.53,1209.32 1380.54,1207.17 1381.55,1205.02 1382.56,1202.85 1383.56,1200.68 1384.57,1198.49 1385.58,1196.3 1386.59,1194.09 1387.6,1191.87 1388.61,1189.64 1389.62,1187.4 1390.63,1185.15 1391.64,1182.89 1392.65,1180.62 1393.66,1178.34 1394.67,1176.05 1395.68,1173.74 1396.69,1171.43 1397.7,1169.11 1398.71,1166.78 1399.72,1164.44 1400.73,1162.09 1401.74,1159.73 1402.75,1157.37 1403.76,1154.99 1404.77,1152.6 1405.78,1150.2 1406.79,1147.8 1407.79,1145.38 1408.8,1142.96 1409.81,1140.52 1410.82,1138.08 1411.83,1135.63 1412.84,1133.17 1413.85,1130.7 1414.86,1128.23 1415.87,1125.74 1416.88,1123.24 1417.89,1120.74 1418.9,1118.22 1419.91,1115.7 1420.92,1113.16 1421.93,1110.62 1422.94,1108.07 1423.95,1105.51 1424.96,1102.94 1425.97,1100.37 1426.98,1097.78 1427.99,1095.19 1429,1092.58 1430.01,1089.97 1431.01,1087.36 1432.02,1084.73 1433.03,1082.09 1434.04,1079.45 1435.05,1076.8 1436.06,1074.14 1437.07,1071.47 1438.08,1068.8 1439.09,1066.12 1440.1,1063.43 1441.11,1060.73 1442.12,1058.03 1443.13,1055.32 1444.14,1052.6 1445.15,1049.88 1446.16,1047.14 1447.17,1044.4 1448.18,1041.66 1449.19,1038.91 1450.2,1036.15 1451.21,1033.38 1452.22,1030.61 1453.23,1027.83 1454.23,1025.04 1455.24,1022.25 1456.25,1019.45 1457.26,1016.65 1458.27,1013.84 1459.28,1011.02 1460.29,1008.2 1461.3,1005.38 1462.31,1002.54 1463.32,999.705 1464.33,996.862 1465.34,994.013 1466.35,991.158 1467.36,988.299 1468.37,985.434 1469.38,982.565 1470.39,979.69 1471.4,976.811 1472.41,973.927 1473.42,971.04 1474.43,968.151 1475.44,965.258 1476.45,962.359 1477.46,959.456 1478.46,956.547 1479.47,953.634 1480.48,950.716 1481.49,947.794 1482.5,944.868 1483.51,941.937 1484.52,939.003 1485.53,936.064 1486.54,933.122 1487.55,930.177 1488.56,927.227 1489.57,924.275 1490.58,921.319 1491.59,918.36 1492.6,915.398 1493.61,912.434 1494.62,909.466 1495.63,906.496 1496.64,903.523 1497.65,900.548 1498.66,897.571 1499.67,894.591 1500.68,891.609 1501.68,888.625 1502.69,885.64 1503.7,882.652 1504.71,879.663 1505.72,876.672 1506.73,873.679 1507.74,870.685 1508.75,867.675 1509.76,864.659 1510.77,861.645 1511.78,858.632 1512.79,855.622 1513.8,852.613 1514.81,849.606 1515.82,846.6 1516.83,843.596 1517.84,840.594 1518.85,837.593 1519.86,834.594 1520.87,831.596 1521.88,828.599 1522.89,825.605 1523.9,822.611 1524.91,819.619 1525.91,816.629 1526.92,813.64 1527.93,810.652 1528.94,807.666 1529.95,804.682 1530.96,801.699 1531.97,798.718 1532.98,795.739 1533.99,792.761 1535,789.786 1536.01,786.812 1537.02,783.84 1538.03,780.87 1539.04,777.902 1540.05,774.936 1541.06,771.973 1542.07,769.012 1543.08,766.053 1544.09,763.097 1545.1,760.144 1546.11,757.193 1547.12,754.246 1548.13,751.301 1549.13,748.36 1550.14,745.422 1551.15,742.487 1552.16,739.557 1553.17,736.63 1554.18,733.707 1555.19,730.788 1556.2,727.873 1557.21,724.963 1558.22,722.058 1559.23,719.157 1560.24,716.262 1561.25,713.371 1562.26,710.487 1563.27,707.607 1564.28,704.746 1565.29,701.896 1566.3,699.049 1567.31,696.206 1568.32,693.365 1569.33,690.529 1570.34,687.697 1571.35,684.869 1572.36,682.047 1573.36,679.229 1574.37,676.418 1575.38,673.612 1576.39,670.813 1577.4,668.02 1578.41,665.234 1579.42,662.456 1580.43,659.685 1581.44,656.922 1582.45,654.168 1583.46,651.422 1584.47,648.684 1585.48,645.956 1586.49,643.236 1587.5,640.527 1588.51,637.827 1589.52,635.137 1590.53,632.457 1591.54,629.787 1592.55,627.129 1593.56,624.481 1594.57,621.844 1595.58,619.218 1596.58,616.604 1597.59,614.001 1598.6,611.41 1599.61,608.831 1600.62,606.264 1601.63,603.71 1602.64,601.167 1603.65,598.637 1604.66,596.12 1605.67,593.615 1606.68,591.123 1607.69,588.644 1608.7,586.178 1609.71,583.725 1610.72,581.285 1611.73,578.859 1612.74,576.445 1613.75,574.045 1614.76,571.659 1615.77,569.285 1616.78,566.926 1617.79,564.579 1618.8,562.246 1619.81,559.927 1620.81,557.615 1621.82,555.312 1622.83,553.026 1623.84,550.758 1624.85,548.507 1625.86,546.274 1626.87,544.058 1627.88,541.859 1628.89,539.677 1629.9,537.512 1630.91,535.363 1631.92,533.232 1632.93,531.118 1633.94,529.02 1634.95,526.939 1635.96,524.875 1636.97,522.828 1637.98,520.798 1638.99,518.784 1640,516.788 1641.01,514.808 1642.02,512.845 1643.03,510.899 1644.03,508.971 1645.04,507.059 1646.05,505.165 1647.06,503.288 1648.07,501.428 1649.08,499.586 1650.09,497.762 1651.1,495.956 1652.11,494.167 1653.12,492.397 1654.13,490.645 1655.14,488.911 1656.15,487.196 1657.16,485.5 1658.17,483.822 1659.18,482.164 1660.19,480.526 1661.2,478.906 1662.21,477.307 1663.22,475.728 1664.23,474.17 1665.24,472.626 1666.25,471.102 1667.26,469.596 1668.26,468.111 1669.27,466.645 1670.28,465.199 1671.29,463.774 1672.3,462.369 1673.31,460.985 1674.32,459.622 1675.33,458.281 1676.34,456.96 1677.35,455.662 1678.36,454.385 1679.37,453.13 1680.38,451.897 1681.39,450.687 1682.4,449.499 1683.41,448.333 1684.42,447.191 1685.43,446.071 1686.44,444.974 1687.45,443.901 1688.46,442.85 1689.47,441.823 1690.48,440.82 1691.48,439.84 1692.49,438.884 1693.5,437.951 1694.51,437.043 1695.52,436.158 1696.53,435.297 1697.54,434.46 1698.55,433.648 1699.56,432.859 1700.57,432.095 1701.58,431.354 1702.59,430.638 1703.6,429.946 1704.61,429.278 1705.62,428.635 1706.63,428.016 1707.64,427.421 1708.65,426.85 1709.66,426.303 1710.67,425.78 1711.68,425.282 1712.69,424.807 1713.7,424.357 1714.71,423.93 1715.71,423.528 1716.72,423.149 1717.73,422.793 1718.74,422.462 1719.75,422.154 1720.76,421.869 1721.77,421.608 1722.78,421.37 1723.79,421.155 1724.8,420.963 1725.81,420.794 1726.82,420.647 1727.83,420.523 1728.84,420.422 1729.85,420.342 1730.86,420.285 1731.87,420.25 1732.88,420.242 1733.89,420.273 1734.9,420.324 1735.91,420.396 1736.92,420.487 1737.93,420.598 1738.93,420.73 1739.94,420.881 1740.95,421.053 1741.96,421.245 1742.97,421.457 1743.98,421.69 1744.99,421.942 1746,422.215 1747.01,422.508 1748.02,422.822 1749.03,423.156 1750.04,423.51 1751.05,423.884 1752.06,424.279 1753.07,424.694 1754.08,425.13 1755.09,425.586 1756.1,426.063 1757.11,426.56 1758.12,427.077 1759.13,427.616 1760.14,428.174 1761.15,428.754 1762.16,429.353 1763.16,429.974 1764.17,430.615 1765.18,431.278 1766.19,431.963 1767.2,432.671 1768.21,433.399 1769.22,434.149 1770.23,434.92 1771.24,435.712 1772.25,436.524 1773.26,437.357 1774.27,438.21 1775.28,439.084 1776.29,439.978 1777.3,440.891 1778.31,441.825 1779.32,442.778 1780.33,443.75 1781.34,444.742 1782.35,445.753 1783.36,446.783 1784.37,447.832 1785.38,448.899 1786.38,449.985 1787.39,451.09 1788.4,452.212 1789.41,453.352 1790.42,454.51 1791.43,455.686 1792.44,456.88 1793.45,458.09 1794.46,459.318 1795.47,460.562 1796.48,461.824 1797.49,463.101 1798.5,464.396 1799.51,465.706 1800.52,467.032 1801.53,468.375 1802.54,469.733 1803.55,471.106 1804.56,472.494 1805.57,473.898 1806.58,475.316 1807.59,476.749 1808.6,478.197 1809.61,479.659 1810.61,481.135 1811.62,482.624 1812.63,484.128 1813.64,485.645 1814.65,487.175 1815.66,488.718 1816.67,490.274 1817.68,491.842 1818.69,493.423 1819.7,495.017 1820.71,496.622 1821.72,498.239 1822.73,499.867 1823.74,501.507 1824.75,503.158 1825.76,504.82 1826.77,506.492 1827.78,508.175 1828.79,509.869 1829.8,511.572 1830.81,513.285 1831.82,515.007 1832.83,516.739 1833.83,518.48 1834.84,520.23 1835.85,521.988 1836.86,523.755 1837.87,525.53 1838.88,527.313 1839.89,529.103 1840.9,530.901 1841.91,532.707 1842.92,534.519 1843.93,536.337 1844.94,538.163 1845.95,539.996 1846.96,541.836 1847.97,543.684 1848.98,545.538 1849.99,547.39 1851,549.24 1852.01,551.094 1853.02,552.952 1854.03,554.812 1855.04,556.676 1856.05,558.543 1857.06,560.412 1858.06,562.284 1859.07,564.158 1860.08,566.034 1861.09,567.911 1862.1,569.791 1863.11,571.671 1864.12,573.553 1865.13,575.435 1866.14,577.318 1867.15,579.202 1868.16,581.085 1869.17,582.969 1870.18,584.852 1871.19,586.735 1872.2,588.618 1873.21,590.499 1874.22,592.38 1875.23,594.259 1876.24,596.136 1877.25,598.012 1878.26,599.886 1879.27,601.757 1880.28,603.627 1881.28,605.493 1882.29,607.357 1883.3,609.217 1884.31,611.074 1885.32,612.928 1886.33,614.778 1887.34,616.624 1888.35,618.465 1889.36,620.302 1890.37,622.135 1891.38,623.963 1892.39,625.785 1893.4,627.602 1894.41,629.414 1895.42,631.22 1896.43,633.019 1897.44,634.813 1898.45,636.6 1899.46,638.38 1900.47,640.154 1901.48,641.92 1902.49,643.679 1903.5,645.43 1904.51,647.173 1905.51,648.909 1906.52,650.636 1907.53,652.354 1908.54,654.064 1909.55,655.765 1910.56,657.456 1911.57,659.138 1912.58,660.811 1913.59,662.473 1914.6,664.126 1915.61,665.768 1916.62,667.399 1917.63,669.019 1918.64,670.629 1919.65,672.227 1920.66,673.814 1921.67,675.389 1922.68,676.951 1923.69,678.502 1924.7,680.04 1925.71,681.566 1926.72,683.078 1927.73,684.578 1928.73,686.064 1929.74,687.536 1930.75,688.995 1931.76,690.439 1932.77,691.869 1933.78,693.284 1934.79,694.685 1935.8,696.071 1936.81,697.44 1937.82,698.793 1938.83,700.132 1939.84,701.456 1940.85,702.764 1941.86,704.058 1942.87,705.336 1943.88,706.599 1944.89,707.847 1945.9,709.079 1946.91,710.294 1947.92,711.493 1948.93,712.675 1949.94,713.84 1950.95,714.988 1951.96,716.119 1952.96,717.232 1953.97,718.328 1954.98,719.407 1955.99,720.468 1957,721.512 1958.01,722.538 1959.02,723.547 1960.03,724.537 1961.04,725.51 1962.05,726.465 1963.06,727.402 1964.07,728.32 1965.08,729.22 1966.09,730.103 1967.1,730.966 1968.11,731.811 1969.12,732.638 1970.13,733.446 1971.14,734.236 1972.15,735.006 1973.16,735.758 1974.17,736.491 1975.18,737.204 1976.18,737.899 1977.19,738.574 1978.2,739.231 1979.21,739.868 1980.22,740.485 1981.23,741.083 1982.24,741.661 1983.25,742.22 1984.26,742.759 1985.27,743.278 1986.28,743.777 1987.29,744.256 1988.3,744.715 1989.31,745.154 1990.32,745.573 1991.33,745.971 1992.34,746.349 1993.35,746.707 1994.36,747.044 1995.37,747.36 1996.38,747.656 1997.39,747.93 1998.4,748.184 1999.4,748.417 2000.41,748.629 2001.42,748.82 2002.43,748.99 2003.44,749.138 2004.45,749.265 2005.46,749.371 2006.47,749.455 2007.48,749.518 2008.49,749.559 2009.5,749.578 2010.51,749.575 2011.52,749.55 2012.53,749.504 2013.54,749.435 2014.55,749.344 2015.56,749.231 2016.57,749.096 2017.58,748.938 2018.59,748.758 2019.6,748.556 2020.61,748.33 2021.62,748.082 2022.63,747.812 2023.63,747.518 2024.64,747.202 2025.65,746.862 2026.66,746.5 2027.67,746.114 2028.68,745.699 2029.69,745.261 2030.7,744.799 2031.71,744.315 2032.72,743.808 2033.73,743.278 2034.74,742.725 2035.75,742.15 2036.76,741.552 2037.77,740.932 2038.78,740.289 2039.79,739.623 2040.8,738.935 2041.81,738.224 2042.82,737.491 2043.83,736.736 2044.84,735.959 2045.85,735.159 2046.85,734.337 2047.86,733.493 2048.87,732.628 2049.88,731.741 2050.89,730.832 2051.9,729.904 2052.91,728.966 2053.92,728.006 2054.93,727.025 2055.94,726.021 2056.95,724.995 2057.96,723.947 2058.97,722.877 2059.98,721.786 2060.99,720.673 2062,719.538 2063.01,718.382 2064.02,717.204 2065.03,716.004 2066.04,714.784 2067.05,713.542 2068.06,712.279 2069.07,710.995 2070.08,709.69 2071.08,708.364 2072.09,707.017 2073.1,705.649 2074.11,704.261 2075.12,702.852 2076.13,701.422 2077.14,699.972 2078.15,698.501 2079.16,697.011 2080.17,695.5 2081.18,693.969 2082.19,692.418 2083.2,690.846 2084.21,689.256 2085.22,687.645 2086.23,686.014 2087.24,684.364 2088.25,682.695 2089.26,681.006 2090.27,679.297 2091.28,677.57 2092.29,675.823 2093.3,674.057 2094.3,672.272 2095.31,670.468 2096.32,668.645 2097.33,666.804 2098.34,664.944 2099.35,663.066 2100.36,661.169 2101.37,659.253 2102.38,657.32 2103.39,655.368 2104.4,653.398 2105.41,651.411 2106.42,649.405 2107.43,647.382 2108.44,645.341 2109.45,643.282 2110.46,641.206 2111.47,639.112 2112.48,637.002 2113.49,634.874 2114.5,632.729 2115.51,630.567 2116.52,628.388 2117.53,626.192 2118.53,623.98 2119.54,621.751 2120.55,619.506 2121.56,617.244 2122.57,614.966 2123.58,612.672 2124.59,610.352 2125.6,608.011 2126.61,605.655 2127.62,603.284 2128.63,600.898 2129.64,598.497 2130.65,596.082 2131.66,593.652 2132.67,591.208 2133.68,588.749 2134.69,586.277 2135.7,583.791 2136.71,581.29 2137.72,578.777 2138.73,576.249 2139.74,573.708 2140.75,571.154 2141.75,568.587 2142.76,566.006 2143.77,563.413 2144.78,560.806 2145.79,558.187 2146.8,555.555 2147.81,552.911 2148.82,550.254 2149.83,547.585 2150.84,544.903 2151.85,542.21 2152.86,539.504 2153.87,536.786 2154.88,534.056 2155.89,531.315 2156.9,528.562 2157.91,525.797 2158.92,523.032 2159.93,520.259 2160.94,517.475 2161.95,514.678 2162.96,511.87 2163.97,509.05 2164.98,506.219 2165.98,503.376 2166.99,500.521 2168,497.655 2169.01,494.778 2170.02,491.889 2171.03,488.989 2172.04,486.078 2173.05,483.155 2174.06,480.222 2175.07,477.277 2176.08,474.322 2177.09,471.356 2178.1,468.379 2179.11,465.391 2180.12,462.393 2181.13,459.384 2182.14,456.365 2183.15,453.336 2184.16,450.296 2185.17,447.247 2186.18,444.187 2187.19,441.117 2188.2,438.037 2189.2,434.948 2190.21,431.849 2191.22,428.741 2192.23,425.623 2193.24,422.496 2194.25,419.36 2195.26,416.215 2196.27,413.061 2197.28,409.898 2198.29,406.726 2199.3,403.546 2200.31,400.357 2201.32,397.16 2202.33,393.955 2203.34,390.742 2204.35,387.521 2205.36,384.292 2206.37,381.055 2207.38,377.812 2208.39,374.56 2209.4,371.302 2210.41,368.037 2211.42,364.764 2212.43,361.485 2213.43,358.2 2214.44,354.908 2215.45,351.609 2216.46,348.305 2217.47,344.995 2218.48,341.679 2219.49,338.357 2220.5,335.03 2221.51,331.698 2222.52,328.36 2223.53,325.018 2224.54,321.671 2225.55,318.32 2226.56,314.964 2227.57,311.604 2228.58,308.24 2229.59,304.872 2230.6,301.501 2231.61,298.126 2232.62,294.748 2233.63,291.367 2234.64,287.983 2235.65,284.597 2236.65,281.208 2237.66,277.817 2238.67,274.425 2239.68,271.03 2240.69,267.634 2241.7,264.236 2242.71,260.837 2243.72,257.438 2244.73,254.038 2245.74,250.637 2246.75,247.236 2247.76,243.835 2248.77,240.435 2249.78,237.034 2250.79,233.635 2251.8,230.236 2252.81,226.839 2253.82,223.443 2254.83,220.049 2255.84,216.659 2256.85,213.279 2257.86,209.899 2258.87,206.521 2259.88,203.144 2260.88,199.768 2261.89,196.395 2262.9,193.023 2263.91,189.653 2264.92,186.285 2265.93,182.919 2266.94,179.556 2267.95,176.194 2268.96,172.835 2269.97,169.479 2270.98,166.125 2271.99,162.773 2273,159.425 2274.01,156.079 2275.02,152.735 2276.03,149.395 2277.04,146.058 2278.05,142.723 2279.06,139.392 2280.07,136.063 2281.08,132.738 2282.09,129.416 2283.1,126.097 2284.1,122.781 2285.11,119.468 2286.12,116.159 2287.13,112.853 2288.14,109.55 2289.15,106.25 2290.16,102.953 2291.17,99.66 2292.18,96.3699 "/>
<path clip-path="url(#clip410)" d="M2042.24 1377.32 L2281.41 1377.32 L2281.41 1273.64 L2042.24 1273.64  Z" fill="#ffffff" fill-rule="evenodd" fill-opacity="1"/>
<polyline clip-path="url(#clip410)" style="stroke:#000000; stroke-linecap:round; stroke-linejoin:round; stroke-width:4; stroke-opacity:1; fill:none" points="2042.24,1377.32 2281.41,1377.32 2281.41,1273.64 2042.24,1273.64 2042.24,1377.32 "/>
<polyline clip-path="url(#clip410)" style="stroke:#009af9; stroke-linecap:round; stroke-linejoin:round; stroke-width:4; stroke-opacity:1; fill:none" points="2066.03,1325.48 2208.71,1325.48 "/>
<path clip-path="url(#clip410)" d="M2257.15 1316.83 L2247.77 1329.45 L2257.63 1342.76 L2252.61 1342.76 L2245.06 1332.57 L2237.52 1342.76 L2232.49 1342.76 L2242.56 1329.19 L2233.35 1316.83 L2238.37 1316.83 L2245.25 1326.07 L2252.12 1316.83 L2257.15 1316.83 Z" fill="#000000" fill-rule="nonzero" fill-opacity="1" /></svg>
