<?xml version="1.0" encoding="utf-8"?>
<svg xmlns="http://www.w3.org/2000/svg" xmlns:xlink="http://www.w3.org/1999/xlink" width="600" height="400" viewBox="0 0 2400 1600">
<defs>
  <clipPath id="clip730">
    <rect x="0" y="0" width="2400" height="1600"/>
  </clipPath>
</defs>
<path clip-path="url(#clip730)" d="M0 1600 L2400 1600 L2400 0 L0 0  Z" fill="#ffffff" fill-rule="evenodd" fill-opacity="1"/>
<defs>
  <clipPath id="clip731">
    <rect x="480" y="0" width="1681" height="1600"/>
  </clipPath>
</defs>
<path clip-path="url(#clip730)" d="M272.297 1423.18 L2352.76 1423.18 L2352.76 47.2441 L272.297 47.2441  Z" fill="#ffffff" fill-rule="evenodd" fill-opacity="1"/>
<defs>
  <clipPath id="clip732">
    <rect x="272" y="47" width="2081" height="1377"/>
  </clipPath>
</defs>
<polyline clip-path="url(#clip732)" style="stroke:#000000; stroke-linecap:round; stroke-linejoin:round; stroke-width:2; stroke-opacity:0.1; fill:none" points="272.297,1423.18 272.297,47.2441 "/>
<polyline clip-path="url(#clip732)" style="stroke:#000000; stroke-linecap:round; stroke-linejoin:round; stroke-width:2; stroke-opacity:0.1; fill:none" points="792.411,1423.18 792.411,47.2441 "/>
<polyline clip-path="url(#clip732)" style="stroke:#000000; stroke-linecap:round; stroke-linejoin:round; stroke-width:2; stroke-opacity:0.1; fill:none" points="1312.53,1423.18 1312.53,47.2441 "/>
<polyline clip-path="url(#clip732)" style="stroke:#000000; stroke-linecap:round; stroke-linejoin:round; stroke-width:2; stroke-opacity:0.1; fill:none" points="1832.64,1423.18 1832.64,47.2441 "/>
<polyline clip-path="url(#clip730)" style="stroke:#000000; stroke-linecap:round; stroke-linejoin:round; stroke-width:4; stroke-opacity:1; fill:none" points="272.297,1423.18 2352.76,1423.18 "/>
<polyline clip-path="url(#clip730)" style="stroke:#000000; stroke-linecap:round; stroke-linejoin:round; stroke-width:4; stroke-opacity:1; fill:none" points="272.297,1423.18 272.297,1404.28 "/>
<polyline clip-path="url(#clip730)" style="stroke:#000000; stroke-linecap:round; stroke-linejoin:round; stroke-width:4; stroke-opacity:1; fill:none" points="792.411,1423.18 792.411,1404.28 "/>
<polyline clip-path="url(#clip730)" style="stroke:#000000; stroke-linecap:round; stroke-linejoin:round; stroke-width:4; stroke-opacity:1; fill:none" points="1312.53,1423.18 1312.53,1404.28 "/>
<polyline clip-path="url(#clip730)" style="stroke:#000000; stroke-linecap:round; stroke-linejoin:round; stroke-width:4; stroke-opacity:1; fill:none" points="1832.64,1423.18 1832.64,1404.28 "/>
<path clip-path="url(#clip730)" d="M234.6 1454.1 Q230.989 1454.1 229.16 1457.66 Q227.355 1461.2 227.355 1468.33 Q227.355 1475.44 229.16 1479.01 Q230.989 1482.55 234.6 1482.55 Q238.234 1482.55 240.04 1479.01 Q241.868 1475.44 241.868 1468.33 Q241.868 1461.2 240.04 1457.66 Q238.234 1454.1 234.6 1454.1 M234.6 1450.39 Q240.41 1450.39 243.466 1455 Q246.544 1459.58 246.544 1468.33 Q246.544 1477.06 243.466 1481.67 Q240.41 1486.25 234.6 1486.25 Q228.79 1486.25 225.711 1481.67 Q222.656 1477.06 222.656 1468.33 Q222.656 1459.58 225.711 1455 Q228.79 1450.39 234.6 1450.39 Z" fill="#000000" fill-rule="nonzero" fill-opacity="1" /><path clip-path="url(#clip730)" d="M254.762 1479.7 L259.646 1479.7 L259.646 1485.58 L254.762 1485.58 L254.762 1479.7 Z" fill="#000000" fill-rule="nonzero" fill-opacity="1" /><path clip-path="url(#clip730)" d="M279.831 1454.1 Q276.22 1454.1 274.391 1457.66 Q272.586 1461.2 272.586 1468.33 Q272.586 1475.44 274.391 1479.01 Q276.22 1482.55 279.831 1482.55 Q283.465 1482.55 285.271 1479.01 Q287.1 1475.44 287.1 1468.33 Q287.1 1461.2 285.271 1457.66 Q283.465 1454.1 279.831 1454.1 M279.831 1450.39 Q285.641 1450.39 288.697 1455 Q291.776 1459.58 291.776 1468.33 Q291.776 1477.06 288.697 1481.67 Q285.641 1486.25 279.831 1486.25 Q274.021 1486.25 270.942 1481.67 Q267.887 1477.06 267.887 1468.33 Q267.887 1459.58 270.942 1455 Q274.021 1450.39 279.831 1450.39 Z" fill="#000000" fill-rule="nonzero" fill-opacity="1" /><path clip-path="url(#clip730)" d="M309.993 1454.1 Q306.382 1454.1 304.553 1457.66 Q302.748 1461.2 302.748 1468.33 Q302.748 1475.44 304.553 1479.01 Q306.382 1482.55 309.993 1482.55 Q313.627 1482.55 315.433 1479.01 Q317.262 1475.44 317.262 1468.33 Q317.262 1461.2 315.433 1457.66 Q313.627 1454.1 309.993 1454.1 M309.993 1450.39 Q315.803 1450.39 318.859 1455 Q321.937 1459.58 321.937 1468.33 Q321.937 1477.06 318.859 1481.67 Q315.803 1486.25 309.993 1486.25 Q304.183 1486.25 301.104 1481.67 Q298.049 1477.06 298.049 1468.33 Q298.049 1459.58 301.104 1455 Q304.183 1450.39 309.993 1450.39 Z" fill="#000000" fill-rule="nonzero" fill-opacity="1" /><path clip-path="url(#clip730)" d="M755.213 1454.1 Q751.601 1454.1 749.773 1457.66 Q747.967 1461.2 747.967 1468.33 Q747.967 1475.44 749.773 1479.01 Q751.601 1482.55 755.213 1482.55 Q758.847 1482.55 760.652 1479.01 Q762.481 1475.44 762.481 1468.33 Q762.481 1461.2 760.652 1457.66 Q758.847 1454.1 755.213 1454.1 M755.213 1450.39 Q761.023 1450.39 764.078 1455 Q767.157 1459.58 767.157 1468.33 Q767.157 1477.06 764.078 1481.67 Q761.023 1486.25 755.213 1486.25 Q749.402 1486.25 746.324 1481.67 Q743.268 1477.06 743.268 1468.33 Q743.268 1459.58 746.324 1455 Q749.402 1450.39 755.213 1450.39 Z" fill="#000000" fill-rule="nonzero" fill-opacity="1" /><path clip-path="url(#clip730)" d="M775.374 1479.7 L780.259 1479.7 L780.259 1485.58 L775.374 1485.58 L775.374 1479.7 Z" fill="#000000" fill-rule="nonzero" fill-opacity="1" /><path clip-path="url(#clip730)" d="M800.444 1454.1 Q796.833 1454.1 795.004 1457.66 Q793.198 1461.2 793.198 1468.33 Q793.198 1475.44 795.004 1479.01 Q796.833 1482.55 800.444 1482.55 Q804.078 1482.55 805.884 1479.01 Q807.712 1475.44 807.712 1468.33 Q807.712 1461.2 805.884 1457.66 Q804.078 1454.1 800.444 1454.1 M800.444 1450.39 Q806.254 1450.39 809.309 1455 Q812.388 1459.58 812.388 1468.33 Q812.388 1477.06 809.309 1481.67 Q806.254 1486.25 800.444 1486.25 Q794.634 1486.25 791.555 1481.67 Q788.499 1477.06 788.499 1468.33 Q788.499 1459.58 791.555 1455 Q794.634 1450.39 800.444 1450.39 Z" fill="#000000" fill-rule="nonzero" fill-opacity="1" /><path clip-path="url(#clip730)" d="M820.652 1451.02 L839.008 1451.02 L839.008 1454.96 L824.934 1454.96 L824.934 1463.43 Q825.953 1463.08 826.971 1462.92 Q827.99 1462.73 829.008 1462.73 Q834.795 1462.73 838.175 1465.9 Q841.555 1469.08 841.555 1474.49 Q841.555 1480.07 838.082 1483.17 Q834.61 1486.25 828.291 1486.25 Q826.115 1486.25 823.846 1485.88 Q821.601 1485.51 819.194 1484.77 L819.194 1480.07 Q821.277 1481.2 823.499 1481.76 Q825.721 1482.32 828.198 1482.32 Q832.203 1482.32 834.541 1480.21 Q836.879 1478.1 836.879 1474.49 Q836.879 1470.88 834.541 1468.77 Q832.203 1466.67 828.198 1466.67 Q826.323 1466.67 824.448 1467.08 Q822.596 1467.5 820.652 1468.38 L820.652 1451.02 Z" fill="#000000" fill-rule="nonzero" fill-opacity="1" /><path clip-path="url(#clip730)" d="M1274.83 1454.1 Q1271.22 1454.1 1269.39 1457.66 Q1267.58 1461.2 1267.58 1468.33 Q1267.58 1475.44 1269.39 1479.01 Q1271.22 1482.55 1274.83 1482.55 Q1278.46 1482.55 1280.27 1479.01 Q1282.1 1475.44 1282.1 1468.33 Q1282.1 1461.2 1280.27 1457.66 Q1278.46 1454.1 1274.83 1454.1 M1274.83 1450.39 Q1280.64 1450.39 1283.7 1455 Q1286.77 1459.58 1286.77 1468.33 Q1286.77 1477.06 1283.7 1481.67 Q1280.64 1486.25 1274.83 1486.25 Q1269.02 1486.25 1265.94 1481.67 Q1262.89 1477.06 1262.89 1468.33 Q1262.89 1459.58 1265.94 1455 Q1269.02 1450.39 1274.83 1450.39 Z" fill="#000000" fill-rule="nonzero" fill-opacity="1" /><path clip-path="url(#clip730)" d="M1294.99 1479.7 L1299.88 1479.7 L1299.88 1485.58 L1294.99 1485.58 L1294.99 1479.7 Z" fill="#000000" fill-rule="nonzero" fill-opacity="1" /><path clip-path="url(#clip730)" d="M1310.87 1481.64 L1318.51 1481.64 L1318.51 1455.28 L1310.2 1456.95 L1310.2 1452.69 L1318.46 1451.02 L1323.14 1451.02 L1323.14 1481.64 L1330.78 1481.64 L1330.78 1485.58 L1310.87 1485.58 L1310.87 1481.64 Z" fill="#000000" fill-rule="nonzero" fill-opacity="1" /><path clip-path="url(#clip730)" d="M1350.22 1454.1 Q1346.61 1454.1 1344.78 1457.66 Q1342.98 1461.2 1342.98 1468.33 Q1342.98 1475.44 1344.78 1479.01 Q1346.61 1482.55 1350.22 1482.55 Q1353.86 1482.55 1355.66 1479.01 Q1357.49 1475.44 1357.49 1468.33 Q1357.49 1461.2 1355.66 1457.66 Q1353.86 1454.1 1350.22 1454.1 M1350.22 1450.39 Q1356.03 1450.39 1359.09 1455 Q1362.17 1459.58 1362.17 1468.33 Q1362.17 1477.06 1359.09 1481.67 Q1356.03 1486.25 1350.22 1486.25 Q1344.41 1486.25 1341.33 1481.67 Q1338.28 1477.06 1338.28 1468.33 Q1338.28 1459.58 1341.33 1455 Q1344.41 1450.39 1350.22 1450.39 Z" fill="#000000" fill-rule="nonzero" fill-opacity="1" /><path clip-path="url(#clip730)" d="M1795.44 1454.1 Q1791.83 1454.1 1790 1457.66 Q1788.2 1461.2 1788.2 1468.33 Q1788.2 1475.44 1790 1479.01 Q1791.83 1482.55 1795.44 1482.55 Q1799.08 1482.55 1800.88 1479.01 Q1802.71 1475.44 1802.71 1468.33 Q1802.71 1461.2 1800.88 1457.66 Q1799.08 1454.1 1795.44 1454.1 M1795.44 1450.39 Q1801.25 1450.39 1804.31 1455 Q1807.39 1459.58 1807.39 1468.33 Q1807.39 1477.06 1804.31 1481.67 Q1801.25 1486.25 1795.44 1486.25 Q1789.63 1486.25 1786.55 1481.67 Q1783.5 1477.06 1783.5 1468.33 Q1783.5 1459.58 1786.55 1455 Q1789.63 1450.39 1795.44 1450.39 Z" fill="#000000" fill-rule="nonzero" fill-opacity="1" /><path clip-path="url(#clip730)" d="M1815.6 1479.7 L1820.49 1479.7 L1820.49 1485.58 L1815.6 1485.58 L1815.6 1479.7 Z" fill="#000000" fill-rule="nonzero" fill-opacity="1" /><path clip-path="url(#clip730)" d="M1831.48 1481.64 L1839.12 1481.64 L1839.12 1455.28 L1830.81 1456.95 L1830.81 1452.69 L1839.08 1451.02 L1843.75 1451.02 L1843.75 1481.64 L1851.39 1481.64 L1851.39 1485.58 L1831.48 1485.58 L1831.48 1481.64 Z" fill="#000000" fill-rule="nonzero" fill-opacity="1" /><path clip-path="url(#clip730)" d="M1860.88 1451.02 L1879.24 1451.02 L1879.24 1454.96 L1865.16 1454.96 L1865.16 1463.43 Q1866.18 1463.08 1867.2 1462.92 Q1868.22 1462.73 1869.24 1462.73 Q1875.03 1462.73 1878.4 1465.9 Q1881.78 1469.08 1881.78 1474.49 Q1881.78 1480.07 1878.31 1483.17 Q1874.84 1486.25 1868.52 1486.25 Q1866.34 1486.25 1864.08 1485.88 Q1861.83 1485.51 1859.42 1484.77 L1859.42 1480.07 Q1861.51 1481.2 1863.73 1481.76 Q1865.95 1482.32 1868.43 1482.32 Q1872.43 1482.32 1874.77 1480.21 Q1877.11 1478.1 1877.11 1474.49 Q1877.11 1470.88 1874.77 1468.77 Q1872.43 1466.67 1868.43 1466.67 Q1866.55 1466.67 1864.68 1467.08 Q1862.83 1467.5 1860.88 1468.38 L1860.88 1451.02 Z" fill="#000000" fill-rule="nonzero" fill-opacity="1" /><path clip-path="url(#clip730)" d="M1311.59 1522.27 L1311.59 1532.4 L1323.65 1532.4 L1323.65 1536.95 L1311.59 1536.95 L1311.59 1556.3 Q1311.59 1560.66 1312.76 1561.9 Q1313.97 1563.14 1317.63 1563.14 L1323.65 1563.14 L1323.65 1568.04 L1317.63 1568.04 Q1310.86 1568.04 1308.28 1565.53 Q1305.7 1562.98 1305.7 1556.3 L1305.7 1536.95 L1301.4 1536.95 L1301.4 1532.4 L1305.7 1532.4 L1305.7 1522.27 L1311.59 1522.27 Z" fill="#000000" fill-rule="nonzero" fill-opacity="1" /><polyline clip-path="url(#clip732)" style="stroke:#000000; stroke-linecap:round; stroke-linejoin:round; stroke-width:2; stroke-opacity:0.1; fill:none" points="272.297,1223.77 2352.76,1223.77 "/>
<polyline clip-path="url(#clip732)" style="stroke:#000000; stroke-linecap:round; stroke-linejoin:round; stroke-width:2; stroke-opacity:0.1; fill:none" points="272.297,979.492 2352.76,979.492 "/>
<polyline clip-path="url(#clip732)" style="stroke:#000000; stroke-linecap:round; stroke-linejoin:round; stroke-width:2; stroke-opacity:0.1; fill:none" points="272.297,735.212 2352.76,735.212 "/>
<polyline clip-path="url(#clip732)" style="stroke:#000000; stroke-linecap:round; stroke-linejoin:round; stroke-width:2; stroke-opacity:0.1; fill:none" points="272.297,490.932 2352.76,490.932 "/>
<polyline clip-path="url(#clip732)" style="stroke:#000000; stroke-linecap:round; stroke-linejoin:round; stroke-width:2; stroke-opacity:0.1; fill:none" points="272.297,246.651 2352.76,246.651 "/>
<polyline clip-path="url(#clip730)" style="stroke:#000000; stroke-linecap:round; stroke-linejoin:round; stroke-width:4; stroke-opacity:1; fill:none" points="272.297,1423.18 272.297,47.2441 "/>
<polyline clip-path="url(#clip730)" style="stroke:#000000; stroke-linecap:round; stroke-linejoin:round; stroke-width:4; stroke-opacity:1; fill:none" points="272.297,1223.77 291.194,1223.77 "/>
<polyline clip-path="url(#clip730)" style="stroke:#000000; stroke-linecap:round; stroke-linejoin:round; stroke-width:4; stroke-opacity:1; fill:none" points="272.297,979.492 291.194,979.492 "/>
<polyline clip-path="url(#clip730)" style="stroke:#000000; stroke-linecap:round; stroke-linejoin:round; stroke-width:4; stroke-opacity:1; fill:none" points="272.297,735.212 291.194,735.212 "/>
<polyline clip-path="url(#clip730)" style="stroke:#000000; stroke-linecap:round; stroke-linejoin:round; stroke-width:4; stroke-opacity:1; fill:none" points="272.297,490.932 291.194,490.932 "/>
<polyline clip-path="url(#clip730)" style="stroke:#000000; stroke-linecap:round; stroke-linejoin:round; stroke-width:4; stroke-opacity:1; fill:none" points="272.297,246.651 291.194,246.651 "/>
<path clip-path="url(#clip730)" d="M114.26 1224.22 L143.936 1224.22 L143.936 1228.16 L114.26 1228.16 L114.26 1224.22 Z" fill="#000000" fill-rule="nonzero" fill-opacity="1" /><path clip-path="url(#clip730)" d="M158.056 1237.12 L174.376 1237.12 L174.376 1241.05 L152.431 1241.05 L152.431 1237.12 Q155.093 1234.36 159.677 1229.73 Q164.283 1225.08 165.464 1223.74 Q167.709 1221.21 168.589 1219.48 Q169.491 1217.72 169.491 1216.03 Q169.491 1213.27 167.547 1211.54 Q165.626 1209.8 162.524 1209.8 Q160.325 1209.8 157.871 1210.57 Q155.44 1211.33 152.663 1212.88 L152.663 1208.16 Q155.487 1207.02 157.94 1206.45 Q160.394 1205.87 162.431 1205.87 Q167.802 1205.87 170.996 1208.55 Q174.19 1211.24 174.19 1215.73 Q174.19 1217.86 173.38 1219.78 Q172.593 1221.68 170.487 1224.27 Q169.908 1224.94 166.806 1228.16 Q163.704 1231.35 158.056 1237.12 Z" fill="#000000" fill-rule="nonzero" fill-opacity="1" /><path clip-path="url(#clip730)" d="M194.19 1209.57 Q190.579 1209.57 188.75 1213.14 Q186.945 1216.68 186.945 1223.81 Q186.945 1230.91 188.75 1234.48 Q190.579 1238.02 194.19 1238.02 Q197.825 1238.02 199.63 1234.48 Q201.459 1230.91 201.459 1223.81 Q201.459 1216.68 199.63 1213.14 Q197.825 1209.57 194.19 1209.57 M194.19 1205.87 Q200 1205.87 203.056 1210.47 Q206.135 1215.06 206.135 1223.81 Q206.135 1232.53 203.056 1237.14 Q200 1241.72 194.19 1241.72 Q188.38 1241.72 185.301 1237.14 Q182.246 1232.53 182.246 1223.81 Q182.246 1215.06 185.301 1210.47 Q188.38 1205.87 194.19 1205.87 Z" fill="#000000" fill-rule="nonzero" fill-opacity="1" /><path clip-path="url(#clip730)" d="M224.352 1209.57 Q220.741 1209.57 218.912 1213.14 Q217.107 1216.68 217.107 1223.81 Q217.107 1230.91 218.912 1234.48 Q220.741 1238.02 224.352 1238.02 Q227.986 1238.02 229.792 1234.48 Q231.621 1230.91 231.621 1223.81 Q231.621 1216.68 229.792 1213.14 Q227.986 1209.57 224.352 1209.57 M224.352 1205.87 Q230.162 1205.87 233.218 1210.47 Q236.297 1215.06 236.297 1223.81 Q236.297 1232.53 233.218 1237.14 Q230.162 1241.72 224.352 1241.72 Q218.542 1241.72 215.463 1237.14 Q212.408 1232.53 212.408 1223.81 Q212.408 1215.06 215.463 1210.47 Q218.542 1205.87 224.352 1205.87 Z" fill="#000000" fill-rule="nonzero" fill-opacity="1" /><path clip-path="url(#clip730)" d="M114.26 979.944 L143.936 979.944 L143.936 983.879 L114.26 983.879 L114.26 979.944 Z" fill="#000000" fill-rule="nonzero" fill-opacity="1" /><path clip-path="url(#clip730)" d="M154.839 992.837 L162.477 992.837 L162.477 966.472 L154.167 968.138 L154.167 963.879 L162.431 962.212 L167.107 962.212 L167.107 992.837 L174.746 992.837 L174.746 996.772 L154.839 996.772 L154.839 992.837 Z" fill="#000000" fill-rule="nonzero" fill-opacity="1" /><path clip-path="url(#clip730)" d="M194.19 965.291 Q190.579 965.291 188.75 968.856 Q186.945 972.397 186.945 979.527 Q186.945 986.633 188.75 990.198 Q190.579 993.74 194.19 993.74 Q197.825 993.74 199.63 990.198 Q201.459 986.633 201.459 979.527 Q201.459 972.397 199.63 968.856 Q197.825 965.291 194.19 965.291 M194.19 961.587 Q200 961.587 203.056 966.194 Q206.135 970.777 206.135 979.527 Q206.135 988.254 203.056 992.86 Q200 997.444 194.19 997.444 Q188.38 997.444 185.301 992.86 Q182.246 988.254 182.246 979.527 Q182.246 970.777 185.301 966.194 Q188.38 961.587 194.19 961.587 Z" fill="#000000" fill-rule="nonzero" fill-opacity="1" /><path clip-path="url(#clip730)" d="M224.352 965.291 Q220.741 965.291 218.912 968.856 Q217.107 972.397 217.107 979.527 Q217.107 986.633 218.912 990.198 Q220.741 993.74 224.352 993.74 Q227.986 993.74 229.792 990.198 Q231.621 986.633 231.621 979.527 Q231.621 972.397 229.792 968.856 Q227.986 965.291 224.352 965.291 M224.352 961.587 Q230.162 961.587 233.218 966.194 Q236.297 970.777 236.297 979.527 Q236.297 988.254 233.218 992.86 Q230.162 997.444 224.352 997.444 Q218.542 997.444 215.463 992.86 Q212.408 988.254 212.408 979.527 Q212.408 970.777 215.463 966.194 Q218.542 961.587 224.352 961.587 Z" fill="#000000" fill-rule="nonzero" fill-opacity="1" /><path clip-path="url(#clip730)" d="M224.352 721.011 Q220.741 721.011 218.912 724.575 Q217.107 728.117 217.107 735.247 Q217.107 742.353 218.912 745.918 Q220.741 749.46 224.352 749.46 Q227.986 749.46 229.792 745.918 Q231.621 742.353 231.621 735.247 Q231.621 728.117 229.792 724.575 Q227.986 721.011 224.352 721.011 M224.352 717.307 Q230.162 717.307 233.218 721.913 Q236.297 726.497 236.297 735.247 Q236.297 743.973 233.218 748.58 Q230.162 753.163 224.352 753.163 Q218.542 753.163 215.463 748.58 Q212.408 743.973 212.408 735.247 Q212.408 726.497 215.463 721.913 Q218.542 717.307 224.352 717.307 Z" fill="#000000" fill-rule="nonzero" fill-opacity="1" /><path clip-path="url(#clip730)" d="M154.839 504.276 L162.477 504.276 L162.477 477.911 L154.167 479.578 L154.167 475.318 L162.431 473.652 L167.107 473.652 L167.107 504.276 L174.746 504.276 L174.746 508.212 L154.839 508.212 L154.839 504.276 Z" fill="#000000" fill-rule="nonzero" fill-opacity="1" /><path clip-path="url(#clip730)" d="M194.19 476.73 Q190.579 476.73 188.75 480.295 Q186.945 483.837 186.945 490.966 Q186.945 498.073 188.75 501.638 Q190.579 505.179 194.19 505.179 Q197.825 505.179 199.63 501.638 Q201.459 498.073 201.459 490.966 Q201.459 483.837 199.63 480.295 Q197.825 476.73 194.19 476.73 M194.19 473.027 Q200 473.027 203.056 477.633 Q206.135 482.216 206.135 490.966 Q206.135 499.693 203.056 504.3 Q200 508.883 194.19 508.883 Q188.38 508.883 185.301 504.3 Q182.246 499.693 182.246 490.966 Q182.246 482.216 185.301 477.633 Q188.38 473.027 194.19 473.027 Z" fill="#000000" fill-rule="nonzero" fill-opacity="1" /><path clip-path="url(#clip730)" d="M224.352 476.73 Q220.741 476.73 218.912 480.295 Q217.107 483.837 217.107 490.966 Q217.107 498.073 218.912 501.638 Q220.741 505.179 224.352 505.179 Q227.986 505.179 229.792 501.638 Q231.621 498.073 231.621 490.966 Q231.621 483.837 229.792 480.295 Q227.986 476.73 224.352 476.73 M224.352 473.027 Q230.162 473.027 233.218 477.633 Q236.297 482.216 236.297 490.966 Q236.297 499.693 233.218 504.3 Q230.162 508.883 224.352 508.883 Q218.542 508.883 215.463 504.3 Q212.408 499.693 212.408 490.966 Q212.408 482.216 215.463 477.633 Q218.542 473.027 224.352 473.027 Z" fill="#000000" fill-rule="nonzero" fill-opacity="1" /><path clip-path="url(#clip730)" d="M158.056 259.996 L174.376 259.996 L174.376 263.931 L152.431 263.931 L152.431 259.996 Q155.093 257.242 159.677 252.612 Q164.283 247.959 165.464 246.617 Q167.709 244.094 168.589 242.357 Q169.491 240.598 169.491 238.908 Q169.491 236.154 167.547 234.418 Q165.626 232.682 162.524 232.682 Q160.325 232.682 157.871 233.445 Q155.44 234.209 152.663 235.76 L152.663 231.038 Q155.487 229.904 157.94 229.325 Q160.394 228.746 162.431 228.746 Q167.802 228.746 170.996 231.432 Q174.19 234.117 174.19 238.607 Q174.19 240.737 173.38 242.658 Q172.593 244.556 170.487 247.149 Q169.908 247.82 166.806 251.038 Q163.704 254.232 158.056 259.996 Z" fill="#000000" fill-rule="nonzero" fill-opacity="1" /><path clip-path="url(#clip730)" d="M194.19 232.45 Q190.579 232.45 188.75 236.015 Q186.945 239.556 186.945 246.686 Q186.945 253.793 188.75 257.357 Q190.579 260.899 194.19 260.899 Q197.825 260.899 199.63 257.357 Q201.459 253.793 201.459 246.686 Q201.459 239.556 199.63 236.015 Q197.825 232.45 194.19 232.45 M194.19 228.746 Q200 228.746 203.056 233.353 Q206.135 237.936 206.135 246.686 Q206.135 255.413 203.056 260.019 Q200 264.603 194.19 264.603 Q188.38 264.603 185.301 260.019 Q182.246 255.413 182.246 246.686 Q182.246 237.936 185.301 233.353 Q188.38 228.746 194.19 228.746 Z" fill="#000000" fill-rule="nonzero" fill-opacity="1" /><path clip-path="url(#clip730)" d="M224.352 232.45 Q220.741 232.45 218.912 236.015 Q217.107 239.556 217.107 246.686 Q217.107 253.793 218.912 257.357 Q220.741 260.899 224.352 260.899 Q227.986 260.899 229.792 257.357 Q231.621 253.793 231.621 246.686 Q231.621 239.556 229.792 236.015 Q227.986 232.45 224.352 232.45 M224.352 228.746 Q230.162 228.746 233.218 233.353 Q236.297 237.936 236.297 246.686 Q236.297 255.413 233.218 260.019 Q230.162 264.603 224.352 264.603 Q218.542 264.603 215.463 260.019 Q212.408 255.413 212.408 246.686 Q212.408 237.936 215.463 233.353 Q218.542 228.746 224.352 228.746 Z" fill="#000000" fill-rule="nonzero" fill-opacity="1" /><path clip-path="url(#clip730)" d="M35.1993 729.308 Q31.2526 727.112 29.3747 724.056 Q27.4968 721.001 27.4968 716.863 Q27.4968 711.293 31.4117 708.269 Q35.2948 705.245 42.4881 705.245 L64.0042 705.245 L64.0042 711.134 L42.679 711.134 Q37.5546 711.134 35.072 712.948 Q32.5894 714.762 32.5894 718.486 Q32.5894 723.038 35.6131 725.679 Q38.6368 728.321 43.8567 728.321 L64.0042 728.321 L64.0042 734.209 L42.679 734.209 Q37.5228 734.209 35.072 736.024 Q32.5894 737.838 32.5894 741.625 Q32.5894 746.113 35.6449 748.755 Q38.6686 751.397 43.8567 751.397 L64.0042 751.397 L64.0042 757.285 L28.3562 757.285 L28.3562 751.397 L33.8944 751.397 Q30.616 749.392 29.0564 746.591 Q27.4968 743.79 27.4968 739.939 Q27.4968 736.055 29.4702 733.35 Q31.4436 730.613 35.1993 729.308 Z" fill="#000000" fill-rule="nonzero" fill-opacity="1" /><path clip-path="url(#clip730)" d="M14.479 718.995 L14.479 713.139 L21.895 713.139 L21.895 718.995 L14.479 718.995 M27.4968 716.003 L27.4968 716.003 Z" fill="#000000" fill-rule="nonzero" fill-opacity="1" /><polyline clip-path="url(#clip732)" style="stroke:#009af9; stroke-linecap:round; stroke-linejoin:round; stroke-width:4; stroke-opacity:1; fill:none" points="272.297,633.548 274.379,633.565 276.462,633.619 278.544,633.708 280.627,633.834 282.709,633.997 284.792,634.195 286.874,634.43 288.957,634.7 291.039,635.007 293.122,635.35 295.205,635.729 297.287,636.143 299.37,636.593 301.452,637.079 303.535,637.599 305.617,638.156 307.7,638.747 309.782,639.373 311.865,640.033 313.947,640.728 316.03,641.457 318.112,642.22 320.195,643.017 322.278,643.847 324.36,644.71 326.443,645.606 328.525,646.534 330.608,647.495 332.69,648.487 334.773,649.511 336.855,650.565 338.938,651.651 341.02,652.766 343.103,653.911 345.186,655.086 347.268,656.29 349.351,657.522 351.433,658.782 353.516,660.069 355.598,661.384 357.681,662.725 359.763,664.092 361.846,665.484 363.928,666.902 366.011,668.344 368.093,669.809 370.176,671.298 372.259,672.809 374.341,674.343 376.424,675.897 378.506,677.473 380.589,679.068 382.671,680.684 384.754,682.318 386.836,683.97 388.919,685.64 391.001,687.326 393.084,689.029 395.167,690.747 397.249,692.48 399.332,694.227 401.414,695.988 403.497,697.761 405.579,699.546 407.662,701.343 409.744,703.149 411.827,704.966 413.909,706.791 415.992,708.625 418.074,710.467 420.157,712.315 422.24,714.169 424.322,716.028 426.405,717.892 428.487,719.76 430.57,721.63 432.652,723.503 434.735,725.378 436.817,727.253 438.9,729.128 440.982,731.002 443.065,732.874 445.148,734.745 447.23,736.612 449.313,738.476 451.395,740.335 453.478,742.188 455.56,744.036 457.643,745.877 459.725,747.711 461.808,749.536 463.89,751.352 465.973,753.159 468.055,754.956 470.138,756.741 472.221,758.515 474.303,760.276 476.386,762.025 478.468,763.759 480.551,765.48 482.633,767.185 484.716,768.874 486.798,770.548 488.881,772.204 490.963,773.843 493.046,775.464 495.129,777.066 497.211,778.648 499.294,780.211 501.376,781.753 503.459,783.275 505.541,784.775 507.624,786.253 509.706,787.708 511.789,789.14 513.871,790.549 515.954,791.934 518.036,793.294 520.119,794.629 522.202,795.939 524.284,797.223 526.367,798.481 528.449,799.713 530.532,800.917 532.614,802.094 534.697,803.244 536.779,804.365 538.862,805.458 540.944,806.523 543.027,807.558 545.11,808.564 547.192,809.54 549.275,810.487 551.357,811.404 553.44,812.29 555.522,813.146 557.605,813.971 559.687,814.765 561.77,815.528 563.852,816.26 565.935,816.96 568.017,817.629 570.1,818.266 572.183,818.872 574.265,819.445 576.348,819.987 578.43,820.496 580.513,820.974 582.595,821.419 584.678,821.832 586.76,822.213 588.843,822.561 590.925,822.878 593.008,823.162 595.091,823.414 597.173,823.634 599.256,823.822 601.338,823.978 603.421,824.102 605.503,824.194 607.586,824.254 609.668,824.282 611.751,824.279 613.833,824.245 615.916,824.179 617.998,824.083 620.081,823.955 622.164,823.796 624.246,823.607 626.329,823.387 628.411,823.137 630.494,822.857 632.576,822.547 634.659,822.208 636.741,821.839 638.824,821.44 640.906,821.013 642.989,820.558 645.072,820.074 647.154,819.561 649.237,819.021 651.319,818.453 653.402,817.858 655.484,817.236 657.567,816.587 659.649,815.912 661.732,815.211 663.814,814.484 665.897,813.731 667.98,812.953 670.062,812.151 672.145,811.324 674.227,810.473 676.31,809.598 678.392,808.7 680.475,807.779 682.557,806.835 684.64,805.868 686.722,804.88 688.805,803.87 690.887,802.839 692.97,801.787 695.053,800.715 697.135,799.622 699.218,798.51 701.3,797.379 703.383,796.229 705.465,795.06 707.548,793.873 709.63,792.668 711.713,791.447 713.795,790.208 715.878,788.953 717.961,787.682 720.043,786.395 722.126,785.093 724.208,783.776 726.291,782.445 728.373,781.1 730.456,779.741 732.538,778.369 734.621,776.985 736.703,775.588 738.786,774.179 740.868,772.759 742.951,771.328 745.034,769.887 747.116,768.435 749.199,766.974 751.281,765.503 753.364,764.024 755.446,762.536 757.529,761.04 759.611,759.537 761.694,758.027 763.776,756.51 765.859,754.986 767.942,753.457 770.024,751.923 772.107,750.384 774.189,748.841 776.272,747.293 778.354,745.742 780.437,744.188 782.519,742.631 784.602,741.071 786.684,739.51 788.767,737.948 790.849,736.385 792.932,734.821 795.015,733.257 797.097,731.694 799.18,730.131 801.262,728.57 803.345,727.011 805.427,725.453 807.51,723.899 809.592,722.347 811.675,720.799 813.757,719.255 815.84,717.715 817.923,716.18 820.005,714.65 822.088,713.126 824.17,711.608 826.253,710.097 828.335,708.592 830.418,707.096 832.5,705.607 834.583,704.126 836.665,702.654 838.748,701.192 840.83,699.739 842.913,698.296 844.996,696.864 847.078,695.442 849.161,694.032 851.243,692.634 853.326,691.248 855.408,689.875 857.491,688.515 859.573,687.168 861.656,685.836 863.738,684.518 865.821,683.214 867.904,681.926 869.986,680.654 872.069,679.398 874.151,678.158 876.234,676.935 878.316,675.729 880.399,674.541 882.481,673.372 884.564,672.221 886.646,671.089 888.729,669.976 890.811,668.883 892.894,667.81 894.977,666.758 897.059,665.726 899.142,664.716 901.224,663.728 903.307,662.762 905.389,661.818 907.472,660.897 909.554,660 911.637,659.125 913.719,658.275 915.802,657.449 917.885,656.648 919.967,655.872 922.05,655.121 924.132,654.396 926.215,653.696 928.297,653.023 930.38,652.377 932.462,651.758 934.545,651.165 936.627,650.601 938.71,650.064 940.792,649.555 942.875,649.075 944.958,648.624 947.04,648.201 949.123,647.808 951.205,647.444 953.288,647.109 955.37,646.805 957.453,646.531 959.535,646.287 961.618,646.074 963.7,645.891 965.783,645.739 967.866,645.619 969.948,645.53 972.031,645.472 974.113,645.446 976.196,645.452 978.278,645.49 980.361,645.559 982.443,645.661 984.526,645.795 986.608,645.962 988.691,646.16 990.773,646.392 992.856,646.655 994.939,646.952 997.021,647.28 999.104,647.642 1001.19,648.036 1003.27,648.462 1005.35,648.922 1007.43,649.413 1009.52,649.938 1011.6,650.494 1013.68,651.083 1015.76,651.704 1017.85,652.358 1019.93,653.043 1022.01,653.76 1024.09,654.509 1026.18,655.29 1028.26,656.102 1030.34,656.945 1032.42,657.82 1034.51,658.725 1036.59,659.661 1038.67,660.627 1040.75,661.624 1042.84,662.65 1044.92,663.706 1047,664.791 1049.08,665.905 1051.17,667.048 1053.25,668.22 1055.33,669.419 1057.41,670.646 1059.5,671.9 1061.58,673.181 1063.66,674.488 1065.75,675.821 1067.83,677.18 1069.91,678.565 1071.99,679.974 1074.08,681.407 1076.16,682.864 1078.24,684.344 1080.32,685.847 1082.41,687.372 1084.49,688.919 1086.57,690.487 1088.65,692.075 1090.74,693.684 1092.82,695.312 1094.9,696.958 1096.98,698.623 1099.07,700.306 1101.15,702.006 1103.23,703.722 1105.31,705.453 1107.4,707.2 1109.48,708.961 1111.56,710.736 1113.64,712.524 1115.73,714.324 1117.81,716.136 1119.89,717.959 1121.97,719.792 1124.06,721.635 1126.14,723.487 1128.22,725.346 1130.3,727.213 1132.39,729.087 1134.47,730.966 1136.55,732.85 1138.63,734.739 1140.72,736.632 1142.8,738.527 1144.88,740.424 1146.96,742.323 1149.05,744.222 1151.13,746.121 1153.21,748.019 1155.29,749.915 1157.38,751.809 1159.46,753.699 1161.54,755.585 1163.62,757.466 1165.71,759.342 1167.79,761.211 1169.87,763.074 1171.95,764.928 1174.04,766.773 1176.12,768.609 1178.2,770.435 1180.28,772.25 1182.37,774.054 1184.45,775.845 1186.53,777.622 1188.61,779.386 1190.7,781.135 1192.78,782.869 1194.86,784.587 1196.95,786.288 1199.03,787.972 1201.11,789.638 1203.19,791.285 1205.28,792.912 1207.36,794.519 1209.44,796.106 1211.52,797.671 1213.61,799.214 1215.69,800.735 1217.77,802.232 1219.85,803.705 1221.94,805.154 1224.02,806.578 1226.1,807.977 1228.18,809.349 1230.27,810.695 1232.35,812.013 1234.43,813.304 1236.51,814.567 1238.6,815.801 1240.68,817.005 1242.76,818.181 1244.84,819.326 1246.93,820.441 1249.01,821.525 1251.09,822.577 1253.17,823.598 1255.26,824.587 1257.34,825.543 1259.42,826.467 1261.5,827.357 1263.59,828.214 1265.67,829.037 1267.75,829.827 1269.83,830.582 1271.92,831.302 1274,831.988 1276.08,832.638 1278.16,833.253 1280.25,833.833 1282.33,834.377 1284.41,834.885 1286.49,835.358 1288.58,835.794 1290.66,836.193 1292.74,836.557 1294.82,836.884 1296.91,837.174 1298.99,837.428 1301.07,837.645 1303.15,837.825 1305.24,837.969 1307.32,838.075 1309.4,838.145 1311.48,838.178 1313.57,838.175 1315.65,838.134 1317.73,838.057 1319.82,837.944 1321.9,837.794 1323.98,837.607 1326.06,837.384 1328.15,837.125 1330.23,836.83 1332.31,836.499 1334.39,836.132 1336.48,835.73 1338.56,835.292 1340.64,834.819 1342.72,834.311 1344.81,833.768 1346.89,833.19 1348.97,832.579 1351.05,831.933 1353.14,831.253 1355.22,830.539 1357.3,829.792 1359.38,829.012 1361.47,828.199 1363.55,827.354 1365.63,826.477 1367.71,825.567 1369.8,824.626 1371.88,823.654 1373.96,822.651 1376.04,821.617 1378.13,820.554 1380.21,819.46 1382.29,818.337 1384.37,817.185 1386.46,816.005 1388.54,814.796 1390.62,813.559 1392.7,812.295 1394.79,811.004 1396.87,809.686 1398.95,808.342 1401.03,806.972 1403.12,805.577 1405.2,804.158 1407.28,802.713 1409.36,801.245 1411.45,799.754 1413.53,798.239 1415.61,796.702 1417.69,795.143 1419.78,793.562 1421.86,791.96 1423.94,790.338 1426.02,788.695 1428.11,787.033 1430.19,785.352 1432.27,783.652 1434.35,781.935 1436.44,780.199 1438.52,778.447 1440.6,776.678 1442.69,774.894 1444.77,773.094 1446.85,771.279 1448.93,769.45 1451.02,767.607 1453.1,765.75 1455.18,763.882 1457.26,762.001 1459.35,760.108 1461.43,758.205 1463.51,756.291 1465.59,754.367 1467.68,752.434 1469.76,750.492 1471.84,748.542 1473.92,746.584 1476.01,744.62 1478.09,742.649 1480.17,740.673 1482.25,738.691 1484.34,736.704 1486.42,734.714 1488.5,732.72 1490.58,730.724 1492.67,728.725 1494.75,726.724 1496.83,724.723 1498.91,722.721 1501,720.719 1503.08,718.719 1505.16,716.719 1507.24,714.722 1509.33,712.727 1511.41,710.736 1513.49,708.749 1515.57,706.766 1517.66,704.788 1519.74,702.817 1521.82,700.851 1523.9,698.893 1525.99,696.943 1528.07,695 1530.15,693.067 1532.23,691.143 1534.32,689.23 1536.4,687.327 1538.48,685.436 1540.56,683.558 1542.65,681.692 1544.73,679.839 1546.81,678 1548.89,676.176 1550.98,674.368 1553.06,672.575 1555.14,670.799 1557.22,669.041 1559.31,667.3 1561.39,665.578 1563.47,663.875 1565.56,662.191 1567.64,660.528 1569.72,658.887 1571.8,657.266 1573.89,655.668 1575.97,654.094 1578.05,652.542 1580.13,651.015 1582.22,649.512 1584.3,648.035 1586.38,646.584 1588.46,645.16 1590.55,643.763 1592.63,642.393 1594.71,641.052 1596.79,639.74 1598.88,638.458 1600.96,637.205 1603.04,635.984 1605.12,634.793 1607.21,633.635 1609.29,632.508 1611.37,631.415 1613.45,630.355 1615.54,629.329 1617.62,628.338 1619.7,627.382 1621.78,626.461 1623.87,625.576 1625.95,624.728 1628.03,623.916 1630.11,623.142 1632.2,622.406 1634.28,621.709 1636.36,621.05 1638.44,620.43 1640.53,619.85 1642.61,619.309 1644.69,618.809 1646.77,618.35 1648.86,617.932 1650.94,617.556 1653.02,617.221 1655.1,616.928 1657.19,616.678 1659.27,616.47 1661.35,616.305 1663.43,616.184 1665.52,616.106 1667.6,616.071 1669.68,616.081 1671.76,616.134 1673.85,616.231 1675.93,616.373 1678.01,616.559 1680.09,616.79 1682.18,617.065 1684.26,617.385 1686.34,617.75 1688.43,618.16 1690.51,618.615 1692.59,619.114 1694.67,619.658 1696.76,620.247 1698.84,620.881 1700.92,621.559 1703,622.282 1705.09,623.049 1707.17,623.86 1709.25,624.715 1711.33,625.614 1713.42,626.557 1715.5,627.543 1717.58,628.572 1719.66,629.644 1721.75,630.758 1723.83,631.914 1725.91,633.112 1727.99,634.352 1730.08,635.632 1732.16,636.953 1734.24,638.314 1736.32,639.714 1738.41,641.154 1740.49,642.632 1742.57,644.148 1744.65,645.702 1746.74,647.293 1748.82,648.92 1750.9,650.582 1752.98,652.28 1755.07,654.012 1757.15,655.778 1759.23,657.577 1761.31,659.408 1763.4,661.27 1765.48,663.164 1767.56,665.087 1769.64,667.04 1771.73,669.021 1773.81,671.029 1775.89,673.064 1777.97,675.125 1780.06,677.211 1782.14,679.321 1784.22,681.454 1786.3,683.609 1788.39,685.786 1790.47,687.983 1792.55,690.199 1794.63,692.433 1796.72,694.685 1798.8,696.953 1800.88,699.236 1802.96,701.534 1805.05,703.845 1807.13,706.168 1809.21,708.502 1811.3,710.847 1813.38,713.201 1815.46,715.562 1817.54,717.931 1819.63,720.305 1821.71,722.685 1823.79,725.068 1825.87,727.453 1827.96,729.841 1830.04,732.228 1832.12,734.615 1834.2,737.001 1836.29,739.384 1838.37,741.762 1840.45,744.136 1842.53,746.505 1844.62,748.866 1846.7,751.219 1848.78,753.562 1850.86,755.896 1852.95,758.219 1855.03,760.529 1857.11,762.826 1859.19,765.108 1861.28,767.376 1863.36,769.627 1865.44,771.861 1867.52,774.077 1869.61,776.274 1871.69,778.45 1873.77,780.606 1875.85,782.739 1877.94,784.85 1880.02,786.937 1882.1,789 1884.18,791.037 1886.27,793.048 1888.35,795.032 1890.43,796.988 1892.51,798.915 1894.6,800.813 1896.68,802.681 1898.76,804.519 1900.84,806.324 1902.93,808.097 1905.01,809.838 1907.09,811.545 1909.17,813.217 1911.26,814.855 1913.34,816.458 1915.42,818.024 1917.5,819.554 1919.59,821.048 1921.67,822.503 1923.75,823.921 1925.83,825.3 1927.92,826.641 1930,827.942 1932.08,829.204 1934.16,830.426 1936.25,831.607 1938.33,832.748 1940.41,833.848 1942.5,834.907 1944.58,835.925 1946.66,836.9 1948.74,837.834 1950.83,838.726 1952.91,839.575 1954.99,840.382 1957.07,841.147 1959.16,841.869 1961.24,842.548 1963.32,843.184 1965.4,843.778 1967.49,844.328 1969.57,844.836 1971.65,845.301 1973.73,845.724 1975.82,846.103 1977.9,846.44 1979.98,846.734 1982.06,846.986 1984.15,847.195 1986.23,847.362 1988.31,847.487 1990.39,847.57 1992.48,847.612 1994.56,847.612 1996.64,847.571 1998.72,847.489 2000.81,847.366 2002.89,847.203 2004.97,846.999 2007.05,846.756 2009.14,846.473 2011.22,846.151 2013.3,845.79 2015.38,845.39 2017.47,844.952 2019.55,844.477 2021.63,843.964 2023.71,843.413 2025.8,842.827 2027.88,842.204 2029.96,841.546 2032.04,840.852 2034.13,840.123 2036.21,839.36 2038.29,838.563 2040.37,837.733 2042.46,836.869 2044.54,835.973 2046.62,835.045 2048.7,834.086 2050.79,833.096 2052.87,832.075 2054.95,831.025 2057.03,829.945 2059.12,828.836 2061.2,827.699 2063.28,826.534 2065.37,825.342 2067.45,824.124 2069.53,822.879 2071.61,821.609 2073.7,820.313 2075.78,818.994 2077.86,817.65 2079.94,816.284 2082.03,814.894 2084.11,813.483 2086.19,812.05 2088.27,810.596 2090.36,809.122 2092.44,807.628 2094.52,806.115 2096.6,804.583 2098.69,803.033 2100.77,801.466 2102.85,799.882 2104.93,798.281 2107.02,796.665 2109.1,795.034 2111.18,793.389 2113.26,791.73 2115.35,790.057 2117.43,788.372 2119.51,786.674 2121.59,784.965 2123.68,783.245 2125.76,781.515 2127.84,779.775 2129.92,778.026 2132.01,776.268 2134.09,774.502 2136.17,772.729 2138.25,770.949 2140.34,769.162 2142.42,767.37 2144.5,765.572 2146.58,763.77 2148.67,761.964 2150.75,760.154 2152.83,758.342 2154.91,756.527 2157,754.71 2159.08,752.892 2161.16,751.073 2163.24,749.254 2165.33,747.436 2167.41,745.618 2169.49,743.802 2171.57,741.988 2173.66,740.176 2175.74,738.368 2177.82,736.563 2179.9,734.762 2181.99,732.966 2184.07,731.175 2186.15,729.39 2188.24,727.611 2190.32,725.838 2192.4,724.073 2194.48,722.316 2196.57,720.566 2198.65,718.826 2200.73,717.095 2202.81,715.373 2204.9,713.662 2206.98,711.961 2209.06,710.271 2211.14,708.593 2213.23,706.928 2215.31,705.274 2217.39,703.634 2219.47,702.008 2221.56,700.395 2223.64,698.797 2225.72,697.214 2227.8,695.646 2229.89,694.094 2231.97,692.558 2234.05,691.038 2236.13,689.536 2238.22,688.051 2240.3,686.585 2242.38,685.136 2244.46,683.707 2246.55,682.297 2248.63,680.906 2250.71,679.535 2252.79,678.185 2254.88,676.856 2256.96,675.547 2259.04,674.261 2261.12,672.996 2263.21,671.754 2265.29,670.534 2267.37,669.338 2269.45,668.165 2271.54,667.016 2273.62,665.891 2275.7,664.79 2277.78,663.715 2279.87,662.664 2281.95,661.639 2284.03,660.64 2286.11,659.667 2288.2,658.721 2290.28,657.801 2292.36,656.908 2294.44,656.042 2296.53,655.204 2298.61,654.394 2300.69,653.612 2302.77,652.859 2304.86,652.134 2306.94,651.438 2309.02,650.771 2311.11,650.133 2313.19,649.525 2315.27,648.947 2317.35,648.399 2319.44,647.881 2321.52,647.393 2323.6,646.936 2325.68,646.509 2327.77,646.114 2329.85,645.749 2331.93,645.416 2334.01,645.113 2336.1,644.843 2338.18,644.604 2340.26,644.396 2342.34,644.22 2344.43,644.076 2346.51,643.964 2348.59,643.884 2350.67,643.835 2352.76,643.819 "/>
<polyline clip-path="url(#clip732)" style="stroke:#e26f46; stroke-linecap:round; stroke-linejoin:round; stroke-width:4; stroke-opacity:1; fill:none" points="272.297,1379.99 273.337,1380.66 274.377,1381.28 275.417,1381.84 276.457,1382.34 277.498,1382.78 278.538,1383.17 279.578,1383.49 280.618,1383.76 281.659,1383.97 282.699,1384.12 283.739,1384.21 284.779,1384.24 285.82,1384.21 286.86,1384.12 287.9,1383.97 288.94,1383.76 289.98,1383.48 291.021,1383.15 292.061,1382.76 293.101,1382.31 294.141,1381.79 295.182,1381.21 296.222,1380.58 297.262,1379.88 298.302,1379.12 299.343,1378.29 300.383,1377.41 301.423,1376.46 302.463,1375.45 303.503,1374.38 304.544,1373.25 305.584,1372.06 306.624,1370.8 307.664,1369.48 308.705,1368.1 309.745,1366.66 310.785,1365.15 311.825,1363.58 312.865,1361.95 313.906,1360.26 314.946,1358.5 315.986,1356.68 317.026,1354.8 318.067,1352.86 319.107,1350.86 320.147,1348.79 321.187,1346.66 322.228,1344.47 323.268,1342.22 324.308,1339.91 325.348,1337.53 326.388,1335.09 327.429,1332.59 328.469,1330.03 329.509,1327.41 330.549,1324.73 331.59,1321.98 332.63,1319.18 333.67,1316.31 334.71,1313.38 335.751,1310.4 336.791,1307.35 337.831,1304.24 338.871,1301.08 339.911,1297.85 340.952,1294.56 341.992,1291.22 343.032,1287.82 344.072,1284.35 345.113,1280.83 346.153,1277.26 347.193,1273.62 348.233,1269.92 349.274,1266.17 350.314,1262.37 351.354,1258.5 352.394,1254.58 353.434,1250.6 354.475,1246.57 355.515,1242.48 356.555,1238.34 357.595,1234.14 358.636,1229.89 359.676,1225.58 360.716,1221.22 361.756,1216.81 362.797,1212.35 363.837,1207.83 364.877,1203.26 365.917,1198.64 366.957,1193.97 367.998,1189.24 369.038,1184.47 370.078,1179.65 371.118,1174.78 372.159,1169.86 373.199,1164.89 374.239,1159.87 375.279,1154.81 376.32,1149.7 377.36,1144.54 378.4,1139.34 379.44,1134.09 380.48,1128.8 381.521,1123.46 382.561,1118.08 383.601,1112.66 384.641,1107.19 385.682,1101.68 386.722,1096.13 387.762,1090.55 388.802,1084.92 389.842,1079.25 390.883,1073.54 391.923,1067.79 392.963,1062.01 394.003,1056.18 395.044,1050.32 396.084,1044.43 397.124,1038.5 398.164,1032.54 399.205,1026.54 400.245,1020.51 401.285,1014.44 402.325,1008.35 403.365,1002.22 404.406,996.062 405.446,989.874 406.486,983.657 407.526,977.412 408.567,971.138 409.607,964.838 410.647,958.511 411.687,952.158 412.728,945.78 413.768,939.378 414.808,932.952 415.848,926.504 416.888,920.033 417.929,913.541 418.969,907.028 420.009,900.496 421.049,893.944 422.09,887.374 423.13,880.787 424.17,874.182 425.21,867.561 426.251,860.925 427.291,854.275 428.331,847.61 429.371,840.933 430.411,834.243 431.452,827.542 432.492,820.829 433.532,814.107 434.572,807.376 435.613,800.637 436.653,793.89 437.693,787.135 438.733,780.375 439.774,773.61 440.814,766.84 441.854,760.067 442.894,753.29 443.934,746.512 444.975,739.732 446.015,732.952 447.055,726.172 448.095,719.393 449.136,712.616 450.176,705.841 451.216,699.07 452.256,692.303 453.297,685.541 454.337,678.785 455.377,672.035 456.417,665.293 457.457,658.559 458.498,651.834 459.538,645.119 460.578,638.414 461.618,631.72 462.659,625.038 463.699,618.369 464.739,611.714 465.779,605.073 466.819,598.447 467.86,591.837 468.9,585.244 469.94,578.668 470.98,572.11 472.021,565.571 473.061,559.051 474.101,552.553 475.141,546.075 476.182,539.619 477.222,533.185 478.262,526.775 479.302,520.389 480.342,514.028 481.383,507.692 482.423,501.383 483.463,495.1 484.503,488.845 485.544,482.619 486.584,476.421 487.624,470.253 488.664,464.115 489.705,458.009 490.745,451.934 491.785,445.892 492.825,439.883 493.865,433.907 494.906,427.966 495.946,422.06 496.986,416.189 498.026,410.355 499.067,404.558 500.107,398.799 501.147,393.077 502.187,387.394 503.228,381.751 504.268,376.148 505.308,370.585 506.348,365.064 507.388,359.584 508.429,354.146 509.469,348.752 510.509,343.401 511.549,338.093 512.59,332.831 513.63,327.613 514.67,322.441 515.71,317.315 516.751,312.236 517.791,307.204 518.831,302.219 519.871,297.282 520.911,292.395 521.952,287.556 522.992,282.767 524.032,278.027 525.072,273.338 526.113,268.7 527.153,264.114 528.193,259.579 529.233,255.096 530.274,250.666 531.314,246.289 532.354,241.965 533.394,237.695 534.434,233.479 535.475,229.318 536.515,225.211 537.555,221.16 538.595,217.164 539.636,213.224 540.676,209.34 541.716,205.513 542.756,201.743 543.796,198.03 544.837,194.374 545.877,190.776 546.917,187.237 547.957,183.755 548.998,180.332 550.038,176.968 551.078,173.662 552.118,170.416 553.159,167.23 554.199,164.103 555.239,161.036 556.279,158.029 557.319,155.083 558.36,152.196 559.4,149.371 560.44,146.606 561.48,143.903 562.521,141.26 563.561,138.679 564.601,136.159 565.641,133.701 566.682,131.304 567.722,128.969 568.762,126.696 569.802,124.484 570.842,122.335 571.883,120.248 572.923,118.223 573.963,116.26 575.003,114.359 576.044,112.521 577.084,110.745 578.124,109.031 579.164,107.379 580.205,105.79 581.245,104.263 582.285,102.799 583.325,101.397 584.365,100.057 585.406,98.7793 586.446,97.5639 587.486,96.4108 588.526,95.3197 589.567,94.2907 590.607,93.3237 591.647,92.4186 592.687,91.5754 593.728,90.7938 594.768,90.074 595.808,89.4157 596.848,88.8188 597.888,88.2832 598.929,87.8088 599.969,87.3954 601.009,87.043 602.049,86.7513 603.09,86.5202 604.13,86.3496 605.17,86.2393 606.21,86.1891 607.25,86.1988 608.291,86.2683 609.331,86.3974 610.371,86.5858 611.411,86.8334 612.452,87.14 613.492,87.5053 614.532,87.9292 615.572,88.4113 616.613,88.9516 617.653,89.5496 618.693,90.2053 619.733,90.9183 620.773,91.6885 621.814,92.5155 622.854,93.3991 623.894,94.339 624.934,95.3349 625.975,96.3866 627.015,97.4939 628.055,98.6563 629.095,99.8737 630.136,101.146 631.176,102.472 632.216,103.852 633.256,105.286 634.296,106.774 635.337,108.315 636.377,109.908 637.417,111.554 638.457,113.252 639.498,115.002 640.538,116.803 641.578,118.656 642.618,120.559 643.659,122.513 644.699,124.517 645.739,126.57 646.779,128.673 647.819,130.826 648.86,133.027 649.9,135.276 650.94,137.573 651.98,139.918 653.021,142.311 654.061,144.75 655.101,147.236 656.141,149.767 657.182,152.345 658.222,154.968 659.262,157.637 660.302,160.35 661.342,163.107 662.383,165.908 663.423,168.753 664.463,171.64 665.503,174.571 666.544,177.544 667.584,180.559 668.624,183.615 669.664,186.713 670.705,189.852 671.745,193.031 672.785,196.25 673.825,199.509 674.865,202.807 675.906,206.144 676.946,209.519 677.986,212.932 679.026,216.383 680.067,219.872 681.107,223.397 682.147,226.959 683.187,230.556 684.227,234.19 685.268,237.859 686.308,241.562 687.348,245.301 688.388,249.073 689.429,252.879 690.469,256.719 691.509,260.591 692.549,264.496 693.59,268.433 694.63,272.402 695.67,276.402 696.71,280.433 697.75,284.495 698.791,288.587 699.831,292.708 700.871,296.859 701.911,301.04 702.952,305.248 703.992,309.485 705.032,313.75 706.072,318.043 707.113,322.362 708.153,326.709 709.193,331.081 710.233,335.48 711.273,339.904 712.314,344.353 713.354,348.828 714.394,353.326 715.434,357.849 716.475,362.396 717.515,366.966 718.555,371.559 719.595,376.174 720.636,380.812 721.676,385.472 722.716,390.153 723.756,394.855 724.796,399.578 725.837,404.322 726.877,409.086 727.917,413.869 728.957,418.672 729.998,423.494 731.038,428.335 732.078,433.194 733.118,438.071 734.159,442.965 735.199,447.877 736.239,452.806 737.279,457.751 738.319,462.713 739.36,467.691 740.4,472.684 741.44,477.693 742.48,482.716 743.521,487.754 744.561,492.807 745.601,497.873 746.641,502.953 747.682,508.047 748.722,513.153 749.762,518.272 750.802,523.403 751.842,528.546 752.883,533.701 753.923,538.867 754.963,544.045 756.003,549.233 757.044,554.431 758.084,559.64 759.124,564.858 760.164,570.086 761.204,575.324 762.245,580.569 763.285,585.824 764.325,591.087 765.365,596.358 766.406,601.636 767.446,606.922 768.486,612.215 769.526,617.514 770.567,622.82 771.607,628.132 772.647,633.45 773.687,638.774 774.727,644.103 775.768,649.436 776.808,654.775 777.848,660.118 778.888,665.465 779.929,670.815 780.969,676.169 782.009,681.527 783.049,686.887 784.09,692.25 785.13,697.615 786.17,702.982 787.21,708.351 788.25,713.722 789.291,719.093 790.331,724.466 791.371,729.839 792.411,735.212 793.452,740.585 794.492,745.958 795.532,751.331 796.572,756.702 797.613,762.073 798.653,767.442 799.693,772.809 800.733,778.174 801.773,783.537 802.814,788.897 803.854,794.255 804.894,799.609 805.934,804.959 806.975,810.306 808.015,815.649 809.055,820.988 810.095,826.321 811.136,831.65 812.176,836.974 813.216,842.292 814.256,847.604 815.296,852.91 816.337,858.209 817.377,863.502 818.417,868.788 819.457,874.066 820.498,879.337 821.538,884.6 822.578,889.854 823.618,895.1 824.659,900.338 825.699,905.565 826.739,910.784 827.779,915.993 828.819,921.191 829.86,926.379 830.9,931.556 831.94,936.723 832.98,941.878 834.021,947.021 835.061,952.152 836.101,957.271 837.141,962.377 838.181,967.471 839.222,972.551 840.262,977.617 841.302,982.669 842.342,987.708 843.383,992.731 844.423,997.74 845.463,1002.73 846.503,1007.71 847.544,1012.67 848.584,1017.62 849.624,1022.55 850.664,1027.46 851.704,1032.35 852.745,1037.23 853.785,1042.09 854.825,1046.93 855.865,1051.75 856.906,1056.55 857.946,1061.34 858.986,1066.1 860.026,1070.85 861.067,1075.57 862.107,1080.27 863.147,1084.95 864.187,1089.61 865.227,1094.25 866.268,1098.87 867.308,1103.46 868.348,1108.03 869.388,1112.57 870.429,1117.1 871.469,1121.6 872.509,1126.07 873.549,1130.52 874.59,1134.94 875.63,1139.34 876.67,1143.72 877.71,1148.06 878.75,1152.38 879.791,1156.67 880.831,1160.94 881.871,1165.18 882.911,1169.38 883.952,1173.56 884.992,1177.72 886.032,1181.84 887.072,1185.93 888.113,1189.99 889.153,1194.02 890.193,1198.02 891.233,1201.99 892.273,1205.93 893.314,1209.83 894.354,1213.71 895.394,1217.54 896.434,1221.35 897.475,1225.12 898.515,1228.86 899.555,1232.57 900.595,1236.23 901.635,1239.87 902.676,1243.47 903.716,1247.03 904.756,1250.55 905.796,1254.04 906.837,1257.49 907.877,1260.91 908.917,1264.28 909.957,1267.62 910.998,1270.92 912.038,1274.17 913.078,1277.39 914.118,1280.57 915.158,1283.71 916.199,1286.81 917.239,1289.87 918.279,1292.88 919.319,1295.85 920.36,1298.78 921.4,1301.67 922.44,1304.52 923.48,1307.32 924.521,1310.07 925.561,1312.79 926.601,1315.46 927.641,1318.08 928.681,1320.66 929.722,1323.19 930.762,1325.67 931.802,1328.11 932.842,1330.51 933.883,1332.85 934.923,1335.15 935.963,1337.4 937.003,1339.6 938.044,1341.75 939.084,1343.85 940.124,1345.91 941.164,1347.91 942.204,1349.87 943.245,1351.77 944.285,1353.62 945.325,1355.42 946.365,1357.17 947.406,1358.87 948.446,1360.52 949.486,1362.11 950.526,1363.65 951.567,1365.14 952.607,1366.57 953.647,1367.95 954.687,1369.28 955.727,1370.55 956.768,1371.77 957.808,1372.93 958.848,1374.04 959.888,1375.09 960.929,1376.08 961.969,1377.02 963.009,1377.91 964.049,1378.74 965.09,1379.51 966.13,1380.22 967.17,1380.87 968.21,1381.47 969.25,1382.01 970.291,1382.49 971.331,1382.92 972.371,1383.28 973.411,1383.59 974.452,1383.84 975.492,1384.03 976.532,1384.16 977.572,1384.23 978.612,1384.23 979.653,1384.18 980.693,1384.07 981.733,1383.9 982.773,1383.67 983.814,1383.38 984.854,1383.03 985.894,1382.62 986.934,1382.14 987.975,1381.61 989.015,1381.01 990.055,1380.35 991.095,1379.63 992.135,1378.85 993.176,1378.01 994.216,1377.1 995.256,1376.13 996.296,1375.1 997.337,1374.01 998.377,1372.86 999.417,1371.64 1000.46,1370.37 1001.5,1369.03 1002.54,1367.63 1003.58,1366.16 1004.62,1364.63 1005.66,1363.04 1006.7,1361.39 1007.74,1359.68 1008.78,1357.9 1009.82,1356.06 1010.86,1354.16 1011.9,1352.2 1012.94,1350.18 1013.98,1348.09 1015.02,1345.94 1016.06,1343.73 1017.1,1341.45 1018.14,1339.12 1019.18,1336.72 1020.22,1334.26 1021.26,1331.74 1022.3,1329.16 1023.34,1326.52 1024.38,1323.82 1025.42,1321.05 1026.46,1318.23 1027.5,1315.34 1028.54,1312.39 1029.58,1309.39 1030.62,1306.32 1031.66,1303.19 1032.7,1300.01 1033.74,1296.76 1034.78,1293.46 1035.83,1290.09 1036.87,1286.67 1037.91,1283.19 1038.95,1279.65 1039.99,1276.05 1041.03,1272.39 1042.07,1268.68 1043.11,1264.91 1044.15,1261.08 1045.19,1257.2 1046.23,1253.26 1047.27,1249.26 1048.31,1245.21 1049.35,1241.11 1050.39,1236.94 1051.43,1232.73 1052.47,1228.46 1053.51,1224.14 1054.55,1219.76 1055.59,1215.33 1056.63,1210.85 1057.67,1206.31 1058.71,1201.72 1059.75,1197.09 1060.79,1192.4 1061.83,1187.66 1062.87,1182.87 1063.91,1178.03 1064.95,1173.14 1065.99,1168.2 1067.03,1163.22 1068.07,1158.19 1069.11,1153.11 1070.15,1147.98 1071.19,1142.81 1072.23,1137.59 1073.27,1132.33 1074.31,1127.02 1075.35,1121.67 1076.39,1116.28 1077.43,1110.84 1078.47,1105.36 1079.51,1099.84 1080.56,1094.28 1081.6,1088.67 1082.64,1083.03 1083.68,1077.35 1084.72,1071.63 1085.76,1065.87 1086.8,1060.07 1087.84,1054.23 1088.88,1048.36 1089.92,1042.46 1090.96,1036.52 1092,1030.54 1093.04,1024.53 1094.08,1018.49 1095.12,1012.41 1096.16,1006.31 1097.2,1000.17 1098.24,994.003 1099.28,987.805 1100.32,981.579 1101.36,975.324 1102.4,969.041 1103.44,962.732 1104.48,956.396 1105.52,950.035 1106.56,943.649 1107.6,937.239 1108.64,930.805 1109.68,924.349 1110.72,917.871 1111.76,911.372 1112.8,904.853 1113.84,898.314 1114.88,891.756 1115.92,885.18 1116.96,878.587 1118,871.977 1119.04,865.351 1120.08,858.71 1121.12,852.055 1122.16,845.386 1123.2,838.704 1124.24,832.01 1125.28,825.305 1126.33,818.59 1127.37,811.865 1128.41,805.131 1129.45,798.388 1130.49,791.639 1131.53,784.883 1132.57,778.121 1133.61,771.354 1134.65,764.583 1135.69,757.808 1136.73,751.031 1137.77,744.252 1138.81,737.472 1139.85,730.692 1140.89,723.912 1141.93,717.133 1142.97,710.357 1144.01,703.584 1145.05,696.814 1146.09,690.049 1147.13,683.288 1148.17,676.534 1149.21,669.787 1150.25,663.048 1151.29,656.316 1152.33,649.594 1153.37,642.882 1154.41,636.181 1155.45,629.491 1156.49,622.814 1157.53,616.149 1158.57,609.499 1159.61,602.863 1160.65,596.242 1161.69,589.637 1162.73,583.05 1163.77,576.48 1164.81,569.928 1165.85,563.395 1166.89,556.883 1167.93,550.391 1168.97,543.92 1170.01,537.472 1171.05,531.046 1172.1,524.644 1173.14,518.266 1174.18,511.913 1175.22,505.586 1176.26,499.286 1177.3,493.012 1178.34,486.767 1179.38,480.549 1180.42,474.362 1181.46,468.204 1182.5,462.077 1183.54,455.981 1184.58,449.917 1185.62,443.885 1186.66,437.887 1187.7,431.923 1188.74,425.993 1189.78,420.099 1190.82,414.241 1191.86,408.419 1192.9,402.634 1193.94,396.887 1194.98,391.179 1196.02,385.509 1197.06,379.879 1198.1,374.289 1199.14,368.74 1200.18,363.232 1201.22,357.767 1202.26,352.343 1203.3,346.963 1204.34,341.627 1205.38,336.334 1206.42,331.086 1207.46,325.884 1208.5,320.727 1209.54,315.617 1210.58,310.553 1211.62,305.537 1212.66,300.568 1213.7,295.648 1214.74,290.776 1215.78,285.954 1216.83,281.181 1217.87,276.459 1218.91,271.787 1219.95,267.166 1220.99,262.596 1222.03,258.079 1223.07,253.614 1224.11,249.201 1225.15,244.842 1226.19,240.536 1227.23,236.284 1228.27,232.086 1229.31,227.943 1230.35,223.854 1231.39,219.822 1232.43,215.844 1233.47,211.923 1234.51,208.058 1235.55,204.25 1236.59,200.499 1237.63,196.805 1238.67,193.169 1239.71,189.59 1240.75,186.07 1241.79,182.607 1242.83,179.204 1243.87,175.859 1244.91,172.574 1245.95,169.347 1246.99,166.181 1248.03,163.074 1249.07,160.027 1250.11,157.04 1251.15,154.114 1252.19,151.248 1253.23,148.443 1254.27,145.698 1255.31,143.015 1256.35,140.393 1257.39,137.832 1258.43,135.333 1259.47,132.895 1260.51,130.519 1261.55,128.204 1262.6,125.952 1263.64,123.761 1264.68,121.633 1265.72,119.566 1266.76,117.562 1267.8,115.619 1268.84,113.739 1269.88,111.922 1270.92,110.166 1271.96,108.473 1273,106.843 1274.04,105.274 1275.08,103.768 1276.12,102.325 1277.16,100.943 1278.2,99.6241 1279.24,98.3673 1280.28,97.1726 1281.32,96.0402 1282.36,94.9698 1283.4,93.9615 1284.44,93.0151 1285.48,92.1307 1286.52,91.308 1287.56,90.547 1288.6,89.8477 1289.64,89.2099 1290.68,88.6334 1291.72,88.1182 1292.76,87.6642 1293.8,87.2712 1294.84,86.939 1295.88,86.6675 1296.92,86.4566 1297.96,86.3061 1299,86.2159 1300.04,86.1857 1301.08,86.2154 1302.12,86.3047 1303.16,86.4536 1304.2,86.6618 1305.24,86.9291 1306.28,87.2552 1307.33,87.6401 1308.37,88.0834 1309.41,88.585 1310.45,89.1445 1311.49,89.7618 1312.53,90.4366 1313.57,91.1687 1314.61,91.9578 1315.65,92.8037 1316.69,93.7061 1317.73,94.6647 1318.77,95.6793 1319.81,96.7496 1320.85,97.8752 1321.89,99.056 1322.93,100.292 1323.97,101.582 1325.01,102.926 1326.05,104.324 1327.09,105.776 1328.13,107.282 1329.17,108.84 1330.21,110.451 1331.25,112.114 1332.29,113.829 1333.33,115.597 1334.37,117.415 1335.41,119.284 1336.45,121.205 1337.49,123.175 1338.53,125.196 1339.57,127.266 1340.61,129.385 1341.65,131.554 1342.69,133.771 1343.73,136.036 1344.77,138.35 1345.81,140.71 1346.85,143.118 1347.89,145.573 1348.93,148.074 1349.97,150.622 1351.01,153.215 1352.05,155.853 1353.1,158.536 1354.14,161.264 1355.18,164.036 1356.22,166.851 1357.26,169.71 1358.3,172.612 1359.34,175.557 1360.38,178.544 1361.42,181.573 1362.46,184.643 1363.5,187.755 1364.54,190.907 1365.58,194.099 1366.62,197.332 1367.66,200.604 1368.7,203.915 1369.74,207.264 1370.78,210.652 1371.82,214.078 1372.86,217.542 1373.9,221.043 1374.94,224.58 1375.98,228.154 1377.02,231.764 1378.06,235.409 1379.1,239.089 1380.14,242.805 1381.18,246.554 1382.22,250.338 1383.26,254.155 1384.3,258.006 1385.34,261.889 1386.38,265.805 1387.42,269.752 1388.46,273.732 1389.5,277.742 1390.54,281.783 1391.58,285.855 1392.62,289.957 1393.66,294.089 1394.7,298.25 1395.74,302.439 1396.78,306.658 1397.83,310.904 1398.87,315.178 1399.91,319.48 1400.95,323.808 1401.99,328.163 1403.03,332.545 1404.07,336.952 1405.11,341.384 1406.15,345.842 1407.19,350.325 1408.23,354.831 1409.27,359.362 1410.31,363.916 1411.35,368.494 1412.39,373.095 1413.43,377.718 1414.47,382.363 1415.51,387.03 1416.55,391.718 1417.59,396.427 1418.63,401.157 1419.67,405.908 1420.71,410.678 1421.75,415.468 1422.79,420.277 1423.83,425.105 1424.87,429.952 1425.91,434.817 1426.95,439.7 1427.99,444.601 1429.03,449.518 1430.07,454.453 1431.11,459.404 1432.15,464.371 1433.19,469.354 1434.23,474.352 1435.27,479.366 1436.31,484.394 1437.35,489.437 1438.39,494.494 1439.43,499.565 1440.47,504.65 1441.51,509.747 1442.55,514.858 1443.6,519.981 1444.64,525.116 1445.68,530.263 1446.72,535.422 1447.76,540.592 1448.8,545.773 1449.84,550.965 1450.88,556.167 1451.92,561.378 1452.96,566.6 1454,571.831 1455.04,577.071 1456.08,582.32 1457.12,587.577 1458.16,592.843 1459.2,598.116 1460.24,603.397 1461.28,608.685 1462.32,613.98 1463.36,619.282 1464.4,624.59 1465.44,629.904 1466.48,635.224 1467.52,640.55 1468.56,645.88 1469.6,651.215 1470.64,656.555 1471.68,661.899 1472.72,667.248 1473.76,672.6 1474.8,677.955 1475.84,683.313 1476.88,688.674 1477.92,694.038 1478.96,699.404 1480,704.772 1481.04,710.141 1482.08,715.512 1483.12,720.884 1484.16,726.257 1485.2,731.63 1486.24,737.003 1487.28,742.376 1488.33,747.749 1489.37,753.121 1490.41,758.493 1491.45,763.863 1492.49,769.231 1493.53,774.598 1494.57,779.962 1495.61,785.324 1496.65,790.683 1497.69,796.04 1498.73,801.393 1499.77,806.742 1500.81,812.088 1501.85,817.429 1502.89,822.766 1503.93,828.098 1504.97,833.425 1506.01,838.747 1507.05,844.063 1508.09,849.373 1509.13,854.677 1510.17,859.974 1511.21,865.265 1512.25,870.548 1513.29,875.824 1514.33,881.092 1515.37,886.352 1516.41,891.604 1517.45,896.847 1518.49,902.081 1519.53,907.306 1520.57,912.521 1521.61,917.726 1522.65,922.922 1523.69,928.106 1524.73,933.28 1525.77,938.442 1526.81,943.593 1527.85,948.733 1528.89,953.86 1529.93,958.975 1530.97,964.077 1532.01,969.165 1533.05,974.241 1534.1,979.303 1535.14,984.35 1536.18,989.384 1537.22,994.402 1538.26,999.406 1539.3,1004.39 1540.34,1009.37 1541.38,1014.32 1542.42,1019.26 1543.46,1024.19 1544.5,1029.09 1545.54,1033.98 1546.58,1038.85 1547.62,1043.7 1548.66,1048.54 1549.7,1053.35 1550.74,1058.15 1551.78,1062.93 1552.82,1067.69 1553.86,1072.42 1554.9,1077.14 1555.94,1081.83 1556.98,1086.51 1558.02,1091.16 1559.06,1095.79 1560.1,1100.4 1561.14,1104.98 1562.18,1109.55 1563.22,1114.09 1564.26,1118.6 1565.3,1123.09 1566.34,1127.56 1567.38,1132 1568.42,1136.41 1569.46,1140.8 1570.5,1145.17 1571.54,1149.5 1572.58,1153.81 1573.62,1158.1 1574.66,1162.35 1575.7,1166.58 1576.74,1170.78 1577.78,1174.95 1578.83,1179.09 1579.87,1183.2 1580.91,1187.29 1581.95,1191.34 1582.99,1195.36 1584.03,1199.35 1585.07,1203.31 1586.11,1207.23 1587.15,1211.13 1588.19,1214.99 1589.23,1218.82 1590.27,1222.61 1591.31,1226.37 1592.35,1230.1 1593.39,1233.79 1594.43,1237.45 1595.47,1241.07 1596.51,1244.66 1597.55,1248.21 1598.59,1251.72 1599.63,1255.2 1600.67,1258.63 1601.71,1262.03 1602.75,1265.4 1603.79,1268.72 1604.83,1272.01 1605.87,1275.25 1606.91,1278.46 1607.95,1281.62 1608.99,1284.75 1610.03,1287.83 1611.07,1290.87 1612.11,1293.88 1613.15,1296.83 1614.19,1299.75 1615.23,1302.62 1616.27,1305.45 1617.31,1308.24 1618.35,1310.98 1619.39,1313.68 1620.43,1316.33 1621.47,1318.94 1622.51,1321.51 1623.55,1324.02 1624.6,1326.49 1625.64,1328.92 1626.68,1331.29 1627.72,1333.62 1628.76,1335.9 1629.8,1338.14 1630.84,1340.32 1631.88,1342.46 1632.92,1344.54 1633.96,1346.58 1635,1348.57 1636.04,1350.51 1637.08,1352.39 1638.12,1354.23 1639.16,1356.01 1640.2,1357.74 1641.24,1359.42 1642.28,1361.05 1643.32,1362.63 1644.36,1364.15 1645.4,1365.62 1646.44,1367.04 1647.48,1368.4 1648.52,1369.71 1649.56,1370.96 1650.6,1372.16 1651.64,1373.31 1652.68,1374.39 1653.72,1375.43 1654.76,1376.4 1655.8,1377.33 1656.84,1378.19 1657.88,1379 1658.92,1379.75 1659.96,1380.44 1661,1381.08 1662.04,1381.66 1663.08,1382.18 1664.12,1382.64 1665.16,1383.05 1666.2,1383.39 1667.24,1383.68 1668.28,1383.91 1669.33,1384.08 1670.37,1384.19 1671.41,1384.24 1672.45,1384.22 1673.49,1384.15 1674.53,1384.02 1675.57,1383.83 1676.61,1383.58 1677.65,1383.27 1678.69,1382.9 1679.73,1382.46 1680.77,1381.97 1681.81,1381.41 1682.85,1380.8 1683.89,1380.12 1684.93,1379.38 1685.97,1378.57 1687.01,1377.71 1688.05,1376.78 1689.09,1375.8 1690.13,1374.75 1691.17,1373.64 1692.21,1372.46 1693.25,1371.23 1694.29,1369.93 1695.33,1368.57 1696.37,1367.14 1697.41,1365.66 1698.45,1364.11 1699.49,1362.5 1700.53,1360.83 1701.57,1359.09 1702.61,1357.3 1703.65,1355.44 1704.69,1353.52 1705.73,1351.53 1706.77,1349.49 1707.81,1347.38 1708.85,1345.21 1709.89,1342.98 1710.93,1340.68 1711.97,1338.33 1713.01,1335.91 1714.05,1333.43 1715.1,1330.89 1716.14,1328.29 1717.18,1325.63 1718.22,1322.9 1719.26,1320.12 1720.3,1317.27 1721.34,1314.37 1722.38,1311.4 1723.42,1308.37 1724.46,1305.29 1725.5,1302.14 1726.54,1298.93 1727.58,1295.67 1728.62,1292.34 1729.66,1288.96 1730.7,1285.51 1731.74,1282.01 1732.78,1278.45 1733.82,1274.84 1734.86,1271.16 1735.9,1267.43 1736.94,1263.64 1737.98,1259.8 1739.02,1255.89 1740.06,1251.93 1741.1,1247.92 1742.14,1243.85 1743.18,1239.73 1744.22,1235.55 1745.26,1231.31 1746.3,1227.02 1747.34,1222.68 1748.38,1218.29 1749.42,1213.84 1750.46,1209.34 1751.5,1204.79 1752.54,1200.18 1753.58,1195.53 1754.62,1190.82 1755.66,1186.07 1756.7,1181.26 1757.74,1176.41 1758.78,1171.5 1759.82,1166.55 1760.87,1161.55 1761.91,1156.5 1762.95,1151.41 1763.99,1146.26 1765.03,1141.08 1766.07,1135.84 1767.11,1130.57 1768.15,1125.24 1769.19,1119.88 1770.23,1114.47 1771.27,1109.02 1772.31,1103.52 1773.35,1097.99 1774.39,1092.41 1775.43,1086.8 1776.47,1081.14 1777.51,1075.44 1778.55,1069.71 1779.59,1063.94 1780.63,1058.13 1781.67,1052.28 1782.71,1046.4 1783.75,1040.48 1784.79,1034.53 1785.83,1028.54 1786.87,1022.52 1787.91,1016.47 1788.95,1010.38 1789.99,1004.27 1791.03,998.118 1792.07,991.94 1793.11,985.733 1794.15,979.497 1795.19,973.232 1796.23,966.941 1797.27,960.623 1798.31,954.278 1799.35,947.909 1800.39,941.515 1801.43,935.097 1802.47,928.656 1803.51,922.192 1804.55,915.707 1805.6,909.202 1806.64,902.676 1807.68,896.13 1808.72,889.566 1809.76,882.984 1810.8,876.385 1811.84,869.77 1812.88,863.139 1813.92,856.493 1814.96,849.833 1816,843.16 1817.04,836.474 1818.08,829.777 1819.12,823.068 1820.16,816.349 1821.2,809.621 1822.24,802.884 1823.28,796.139 1824.32,789.388 1825.36,782.629 1826.4,775.866 1827.44,769.097 1828.48,762.325 1829.52,755.55 1830.56,748.772 1831.6,741.992 1832.64,735.212 1833.68,728.432 1834.72,721.652 1835.76,714.874 1836.8,708.099 1837.84,701.327 1838.88,694.558 1839.92,687.795 1840.96,681.036 1842,674.285 1843.04,667.54 1844.08,660.803 1845.12,654.075 1846.16,647.356 1847.2,640.647 1848.24,633.95 1849.28,627.264 1850.32,620.591 1851.37,613.931 1852.41,607.285 1853.45,600.654 1854.49,594.039 1855.53,587.44 1856.57,580.858 1857.61,574.294 1858.65,567.748 1859.69,561.222 1860.73,554.717 1861.77,548.232 1862.81,541.768 1863.85,535.327 1864.89,528.909 1865.93,522.515 1866.97,516.146 1868.01,509.801 1869.05,503.483 1870.09,497.191 1871.13,490.927 1872.17,484.691 1873.21,478.484 1874.25,472.306 1875.29,466.158 1876.33,460.041 1877.37,453.956 1878.41,447.902 1879.45,441.882 1880.49,435.895 1881.53,429.943 1882.57,424.025 1883.61,418.142 1884.65,412.296 1885.69,406.486 1886.73,400.714 1887.77,394.98 1888.81,389.284 1889.85,383.628 1890.89,378.011 1891.93,372.435 1892.97,366.9 1894.01,361.406 1895.05,355.954 1896.1,350.545 1897.14,345.179 1898.18,339.858 1899.22,334.58 1900.26,329.347 1901.3,324.16 1902.34,319.019 1903.38,313.924 1904.42,308.876 1905.46,303.875 1906.5,298.923 1907.54,294.018 1908.58,289.163 1909.62,284.357 1910.66,279.601 1911.7,274.896 1912.74,270.241 1913.78,265.637 1914.82,261.085 1915.86,256.585 1916.9,252.137 1917.94,247.742 1918.98,243.4 1920.02,239.112 1921.06,234.878 1922.1,230.699 1923.14,226.574 1924.18,222.504 1925.22,218.49 1926.26,214.531 1927.3,210.629 1928.34,206.783 1929.38,202.994 1930.42,199.261 1931.46,195.587 1932.5,191.969 1933.54,188.41 1934.58,184.909 1935.62,181.466 1936.66,178.082 1937.7,174.757 1938.74,171.492 1939.78,168.285 1940.82,165.139 1941.87,162.052 1942.91,159.025 1943.95,156.058 1944.99,153.152 1946.03,150.306 1947.07,147.521 1948.11,144.797 1949.15,142.134 1950.19,139.533 1951.23,136.992 1952.27,134.513 1953.31,132.096 1954.35,129.74 1955.39,127.447 1956.43,125.215 1957.47,123.045 1958.51,120.937 1959.55,118.891 1960.59,116.907 1961.63,114.986 1962.67,113.127 1963.71,111.33 1964.75,109.595 1965.79,107.923 1966.83,106.313 1967.87,104.765 1968.91,103.28 1969.95,101.857 1970.99,100.497 1972.03,99.1982 1973.07,97.9621 1974.11,96.7882 1975.15,95.6765 1976.19,94.6268 1977.23,93.6391 1978.27,92.7134 1979.31,91.8496 1980.35,91.0475 1981.39,90.3071 1982.43,89.6283 1983.47,89.0109 1984.51,88.4549 1985.55,87.9601 1986.6,87.5264 1987.64,87.1537 1988.68,86.8418 1989.72,86.5905 1990.76,86.3998 1991.8,86.2694 1992.84,86.1991 1993.88,86.1889 1994.92,86.2385 1995.96,86.3477 1997,86.5164 1998.04,86.7443 1999.08,87.0313 2000.12,87.377 2001.16,87.7814 2002.2,88.2441 2003.24,88.765 2004.28,89.3439 2005.32,89.9804 2006.36,90.6743 2007.4,91.4254 2008.44,92.2335 2009.48,93.0983 2010.52,94.0194 2011.56,94.9967 2012.6,96.0299 2013.64,97.1186 2014.68,98.2627 2015.72,99.4618 2016.76,100.716 2017.8,102.024 2018.84,103.386 2019.88,104.802 2020.92,106.272 2021.96,107.795 2023,109.371 2024.04,110.999 2025.08,112.68 2026.12,114.413 2027.16,116.197 2028.2,118.032 2029.24,119.919 2030.28,121.856 2031.32,123.843 2032.37,125.88 2033.41,127.967 2034.45,130.103 2035.49,132.288 2036.53,134.521 2037.57,136.802 2038.61,139.131 2039.65,141.508 2040.69,143.931 2041.73,146.402 2042.77,148.918 2043.81,151.481 2044.85,154.089 2045.89,156.742 2046.93,159.44 2047.97,162.183 2049.01,164.969 2050.05,167.799 2051.09,170.673 2052.13,173.589 2053.17,176.548 2054.21,179.549 2055.25,182.592 2056.29,185.676 2057.33,188.801 2058.37,191.967 2059.41,195.173 2060.45,198.418 2061.49,201.703 2062.53,205.027 2063.57,208.39 2064.61,211.79 2065.65,215.229 2066.69,218.705 2067.73,222.218 2068.77,225.767 2069.81,229.353 2070.85,232.975 2071.89,236.632 2072.93,240.324 2073.97,244.051 2075.01,247.812 2076.05,251.607 2077.1,255.435 2078.14,259.296 2079.18,263.191 2080.22,267.117 2081.26,271.075 2082.3,275.065 2083.34,279.086 2084.38,283.137 2085.42,287.219 2086.46,291.331 2087.5,295.472 2088.54,299.643 2089.58,303.842 2090.62,308.07 2091.66,312.326 2092.7,316.609 2093.74,320.919 2094.78,325.257 2095.82,329.621 2096.86,334.011 2097.9,338.426 2098.94,342.867 2099.98,347.333 2101.02,351.824 2102.06,356.339 2103.1,360.878 2104.14,365.44 2105.18,370.025 2106.22,374.633 2107.26,379.263 2108.3,383.916 2109.34,388.59 2110.38,393.285 2111.42,398.002 2112.46,402.738 2113.5,407.496 2114.54,412.273 2115.58,417.069 2116.62,421.885 2117.66,426.719 2118.7,431.572 2119.74,436.443 2120.78,441.332 2121.82,446.238 2122.87,451.161 2123.91,456.101 2124.95,461.057 2125.99,466.03 2127.03,471.018 2128.07,476.022 2129.11,481.04 2130.15,486.074 2131.19,491.121 2132.23,496.183 2133.27,501.258 2134.31,506.347 2135.35,511.449 2136.39,516.564 2137.43,521.691 2138.47,526.831 2139.51,531.982 2140.55,537.144 2141.59,542.318 2142.63,547.502 2143.67,552.697 2144.71,557.903 2145.75,563.118 2146.79,568.343 2147.83,573.577 2148.87,578.82 2149.91,584.072 2150.95,589.332 2151.99,594.6 2153.03,599.876 2154.07,605.159 2155.11,610.45 2156.15,615.747 2157.19,621.051 2158.23,626.361 2159.27,631.677 2160.31,636.999 2161.35,642.326 2162.39,647.658 2163.43,652.995 2164.47,658.336 2165.51,663.682 2166.55,669.031 2167.6,674.384 2168.64,679.741 2169.68,685.1 2170.72,690.462 2171.76,695.826 2172.8,701.193 2173.84,706.561 2174.88,711.931 2175.92,717.303 2176.96,722.675 2178,728.048 2179.04,733.421 2180.08,738.794 2181.12,744.167 2182.16,749.54 2183.2,754.912 2184.24,760.283 2185.28,765.652 2186.32,771.02 2187.36,776.386 2188.4,781.75 2189.44,787.111 2190.48,792.469 2191.52,797.824 2192.56,803.176 2193.6,808.524 2194.64,813.869 2195.68,819.209 2196.72,824.544 2197.76,829.874 2198.8,835.2 2199.84,840.52 2200.88,845.834 2201.92,851.142 2202.96,856.444 2204,861.739 2205.04,867.027 2206.08,872.308 2207.12,877.581 2208.16,882.847 2209.2,888.104 2210.24,893.353 2211.28,898.593 2212.32,903.824 2213.37,909.045 2214.41,914.257 2215.45,919.459 2216.49,924.651 2217.53,929.832 2218.57,935.002 2219.61,940.161 2220.65,945.308 2221.69,950.443 2222.73,955.566 2223.77,960.677 2224.81,965.774 2225.85,970.859 2226.89,975.93 2227.93,980.987 2228.97,986.03 2230.01,991.058 2231.05,996.072 2232.09,1001.07 2233.13,1006.05 2234.17,1011.02 2235.21,1015.97 2236.25,1020.91 2237.29,1025.82 2238.33,1030.72 2239.37,1035.61 2240.41,1040.47 2241.45,1045.32 2242.49,1050.15 2243.53,1054.96 2244.57,1059.75 2245.61,1064.52 2246.65,1069.27 2247.69,1074 2248.73,1078.71 2249.77,1083.39 2250.81,1088.06 2251.85,1092.71 2252.89,1097.33 2253.93,1101.93 2254.97,1106.51 2256.01,1111.06 2257.05,1115.59 2258.1,1120.1 2259.14,1124.58 2260.18,1129.04 2261.22,1133.47 2262.26,1137.88 2263.3,1142.26 2264.34,1146.62 2265.38,1150.94 2266.42,1155.25 2267.46,1159.52 2268.5,1163.77 2269.54,1167.98 2270.58,1172.17 2271.62,1176.34 2272.66,1180.47 2273.7,1184.57 2274.74,1188.64 2275.78,1192.68 2276.82,1196.69 2277.86,1200.67 2278.9,1204.62 2279.94,1208.53 2280.98,1212.42 2282.02,1216.27 2283.06,1220.09 2284.1,1223.87 2285.14,1227.62 2286.18,1231.33 2287.22,1235.01 2288.26,1238.66 2289.3,1242.27 2290.34,1245.84 2291.38,1249.38 2292.42,1252.88 2293.46,1256.35 2294.5,1259.77 2295.54,1263.16 2296.58,1266.51 2297.62,1269.82 2298.66,1273.09 2299.7,1276.32 2300.74,1279.52 2301.78,1282.67 2302.82,1285.78 2303.87,1288.85 2304.91,1291.88 2305.95,1294.87 2306.99,1297.81 2308.03,1300.71 2309.07,1303.57 2310.11,1306.39 2311.15,1309.16 2312.19,1311.89 2313.23,1314.57 2314.27,1317.21 2315.31,1319.8 2316.35,1322.35 2317.39,1324.85 2318.43,1327.31 2319.47,1329.71 2320.51,1332.07 2321.55,1334.39 2322.59,1336.65 2323.63,1338.87 2324.67,1341.04 2325.71,1343.16 2326.75,1345.23 2327.79,1347.25 2328.83,1349.22 2329.87,1351.14 2330.91,1353.01 2331.95,1354.83 2332.99,1356.59 2334.03,1358.31 2335.07,1359.97 2336.11,1361.58 2337.15,1363.14 2338.19,1364.65 2339.23,1366.1 2340.27,1367.5 2341.31,1368.84 2342.35,1370.13 2343.39,1371.37 2344.43,1372.55 2345.47,1373.67 2346.51,1374.74 2347.55,1375.76 2348.59,1376.72 2349.64,1377.62 2350.68,1378.47 2351.72,1379.26 2352.76,1379.99 "/>
<path clip-path="url(#clip730)" d="M1894.23 248.629 L2283.41 248.629 L2283.41 93.1086 L1894.23 93.1086  Z" fill="#ffffff" fill-rule="evenodd" fill-opacity="1"/>
<polyline clip-path="url(#clip730)" style="stroke:#000000; stroke-linecap:round; stroke-linejoin:round; stroke-width:4; stroke-opacity:1; fill:none" points="1894.23,248.629 2283.41,248.629 2283.41,93.1086 1894.23,93.1086 1894.23,248.629 "/>
<polyline clip-path="url(#clip730)" style="stroke:#009af9; stroke-linecap:round; stroke-linejoin:round; stroke-width:4; stroke-opacity:1; fill:none" points="1917.34,144.949 2056.04,144.949 "/>
<path clip-path="url(#clip730)" d="M2098.07 148.965 Q2098.07 144.335 2096.15 141.789 Q2094.25 139.243 2090.8 139.243 Q2087.38 139.243 2085.45 141.789 Q2083.56 144.335 2083.56 148.965 Q2083.56 153.571 2085.45 156.118 Q2087.38 158.664 2090.8 158.664 Q2094.25 158.664 2096.15 156.118 Q2098.07 153.571 2098.07 148.965 M2102.33 159.011 Q2102.33 165.631 2099.39 168.849 Q2096.45 172.09 2090.38 172.09 Q2088.14 172.09 2086.15 171.742 Q2084.16 171.418 2082.28 170.724 L2082.28 166.58 Q2084.16 167.599 2085.99 168.085 Q2087.82 168.571 2089.71 168.571 Q2093.9 168.571 2095.99 166.372 Q2098.07 164.196 2098.07 159.775 L2098.07 157.668 Q2096.75 159.96 2094.69 161.094 Q2092.63 162.229 2089.76 162.229 Q2084.99 162.229 2082.07 158.594 Q2079.16 154.96 2079.16 148.965 Q2079.16 142.946 2082.07 139.312 Q2084.99 135.678 2089.76 135.678 Q2092.63 135.678 2094.69 136.812 Q2096.75 137.946 2098.07 140.238 L2098.07 136.303 L2102.33 136.303 L2102.33 159.011 Z" fill="#000000" fill-rule="nonzero" fill-opacity="1" /><path clip-path="url(#clip730)" d="M2110.66 151.997 L2110.66 136.303 L2114.92 136.303 L2114.92 151.835 Q2114.92 155.516 2116.36 157.368 Q2117.79 159.196 2120.66 159.196 Q2124.11 159.196 2126.1 156.997 Q2128.12 154.798 2128.12 151.002 L2128.12 136.303 L2132.38 136.303 L2132.38 162.229 L2128.12 162.229 L2128.12 158.247 Q2126.56 160.608 2124.5 161.766 Q2122.47 162.9 2119.76 162.9 Q2115.29 162.9 2112.98 160.122 Q2110.66 157.344 2110.66 151.997 M2121.38 135.678 L2121.38 135.678 Z" fill="#000000" fill-rule="nonzero" fill-opacity="1" /><path clip-path="url(#clip730)" d="M2163.32 148.201 L2163.32 150.284 L2143.74 150.284 Q2144.02 154.682 2146.38 156.997 Q2148.76 159.289 2153 159.289 Q2155.45 159.289 2157.75 158.687 Q2160.06 158.085 2162.33 156.881 L2162.33 160.909 Q2160.04 161.881 2157.63 162.391 Q2155.22 162.9 2152.75 162.9 Q2146.54 162.9 2142.91 159.289 Q2139.3 155.678 2139.3 149.52 Q2139.3 143.155 2142.72 139.428 Q2146.17 135.678 2152 135.678 Q2157.24 135.678 2160.27 139.057 Q2163.32 142.414 2163.32 148.201 M2159.06 146.951 Q2159.02 143.456 2157.1 141.372 Q2155.2 139.289 2152.05 139.289 Q2148.49 139.289 2146.33 141.303 Q2144.2 143.317 2143.88 146.974 L2159.06 146.951 Z" fill="#000000" fill-rule="nonzero" fill-opacity="1" /><path clip-path="url(#clip730)" d="M2186.84 137.067 L2186.84 141.094 Q2185.04 140.169 2183.09 139.706 Q2181.15 139.243 2179.06 139.243 Q2175.89 139.243 2174.3 140.215 Q2172.72 141.187 2172.72 143.131 Q2172.72 144.613 2173.86 145.469 Q2174.99 146.303 2178.42 147.067 L2179.87 147.391 Q2184.41 148.363 2186.31 150.145 Q2188.23 151.905 2188.23 155.076 Q2188.23 158.687 2185.36 160.793 Q2182.51 162.9 2177.51 162.9 Q2175.43 162.9 2173.16 162.483 Q2170.92 162.09 2168.42 161.28 L2168.42 156.881 Q2170.78 158.108 2173.07 158.733 Q2175.36 159.335 2177.61 159.335 Q2180.62 159.335 2182.24 158.317 Q2183.86 157.275 2183.86 155.4 Q2183.86 153.664 2182.68 152.738 Q2181.52 151.812 2177.56 150.956 L2176.08 150.608 Q2172.12 149.775 2170.36 148.062 Q2168.6 146.326 2168.6 143.317 Q2168.6 139.659 2171.19 137.669 Q2173.79 135.678 2178.56 135.678 Q2180.92 135.678 2183 136.025 Q2185.08 136.372 2186.84 137.067 Z" fill="#000000" fill-rule="nonzero" fill-opacity="1" /><path clip-path="url(#clip730)" d="M2211.54 137.067 L2211.54 141.094 Q2209.74 140.169 2207.79 139.706 Q2205.85 139.243 2203.76 139.243 Q2200.59 139.243 2199 140.215 Q2197.42 141.187 2197.42 143.131 Q2197.42 144.613 2198.56 145.469 Q2199.69 146.303 2203.12 147.067 L2204.57 147.391 Q2209.11 148.363 2211.01 150.145 Q2212.93 151.905 2212.93 155.076 Q2212.93 158.687 2210.06 160.793 Q2207.21 162.9 2202.21 162.9 Q2200.13 162.9 2197.86 162.483 Q2195.62 162.09 2193.12 161.28 L2193.12 156.881 Q2195.48 158.108 2197.77 158.733 Q2200.06 159.335 2202.31 159.335 Q2205.31 159.335 2206.93 158.317 Q2208.56 157.275 2208.56 155.4 Q2208.56 153.664 2207.37 152.738 Q2206.22 151.812 2202.26 150.956 L2200.78 150.608 Q2196.82 149.775 2195.06 148.062 Q2193.3 146.326 2193.3 143.317 Q2193.3 139.659 2195.89 137.669 Q2198.49 135.678 2203.25 135.678 Q2205.62 135.678 2207.7 136.025 Q2209.78 136.372 2211.54 137.067 Z" fill="#000000" fill-rule="nonzero" fill-opacity="1" /><polyline clip-path="url(#clip730)" style="stroke:#e26f46; stroke-linecap:round; stroke-linejoin:round; stroke-width:4; stroke-opacity:1; fill:none" points="1917.34,196.789 2056.04,196.789 "/>
<path clip-path="url(#clip730)" d="M2097.58 188.907 L2097.58 192.934 Q2095.78 192.009 2093.83 191.546 Q2091.89 191.083 2089.81 191.083 Q2086.63 191.083 2085.04 192.055 Q2083.46 193.027 2083.46 194.971 Q2083.46 196.453 2084.6 197.309 Q2085.73 198.143 2089.16 198.907 L2090.62 199.231 Q2095.15 200.203 2097.05 201.985 Q2098.97 203.745 2098.97 206.916 Q2098.97 210.527 2096.1 212.633 Q2093.25 214.74 2088.25 214.74 Q2086.17 214.74 2083.9 214.323 Q2081.66 213.93 2079.16 213.12 L2079.16 208.721 Q2081.52 209.948 2083.81 210.573 Q2086.1 211.175 2088.35 211.175 Q2091.36 211.175 2092.98 210.157 Q2094.6 209.115 2094.6 207.24 Q2094.6 205.504 2093.42 204.578 Q2092.26 203.652 2088.3 202.796 L2086.82 202.448 Q2082.86 201.615 2081.1 199.902 Q2079.34 198.166 2079.34 195.157 Q2079.34 191.499 2081.94 189.509 Q2084.53 187.518 2089.3 187.518 Q2091.66 187.518 2093.74 187.865 Q2095.82 188.212 2097.58 188.907 Z" fill="#000000" fill-rule="nonzero" fill-opacity="1" /><path clip-path="url(#clip730)" d="M2115.8 191.129 Q2112.38 191.129 2110.38 193.814 Q2108.39 196.476 2108.39 201.129 Q2108.39 205.782 2110.36 208.467 Q2112.35 211.129 2115.8 211.129 Q2119.2 211.129 2121.19 208.444 Q2123.19 205.758 2123.19 201.129 Q2123.19 196.522 2121.19 193.837 Q2119.2 191.129 2115.8 191.129 M2115.8 187.518 Q2121.36 187.518 2124.53 191.129 Q2127.7 194.74 2127.7 201.129 Q2127.7 207.495 2124.53 211.129 Q2121.36 214.74 2115.8 214.74 Q2110.22 214.74 2107.05 211.129 Q2103.9 207.495 2103.9 201.129 Q2103.9 194.74 2107.05 191.129 Q2110.22 187.518 2115.8 187.518 Z" fill="#000000" fill-rule="nonzero" fill-opacity="1" /><path clip-path="url(#clip730)" d="M2134.76 178.05 L2139.02 178.05 L2139.02 214.069 L2134.76 214.069 L2134.76 178.05 Z" fill="#000000" fill-rule="nonzero" fill-opacity="1" /><path clip-path="url(#clip730)" d="M2147.49 203.837 L2147.49 188.143 L2151.75 188.143 L2151.75 203.675 Q2151.75 207.356 2153.19 209.208 Q2154.62 211.036 2157.49 211.036 Q2160.94 211.036 2162.93 208.837 Q2164.94 206.638 2164.94 202.842 L2164.94 188.143 L2169.2 188.143 L2169.2 214.069 L2164.94 214.069 L2164.94 210.087 Q2163.39 212.448 2161.33 213.606 Q2159.3 214.74 2156.59 214.74 Q2152.12 214.74 2149.81 211.962 Q2147.49 209.184 2147.49 203.837 M2158.21 187.518 L2158.21 187.518 Z" fill="#000000" fill-rule="nonzero" fill-opacity="1" /><path clip-path="url(#clip730)" d="M2182.19 180.782 L2182.19 188.143 L2190.96 188.143 L2190.96 191.453 L2182.19 191.453 L2182.19 205.527 Q2182.19 208.698 2183.05 209.601 Q2183.93 210.504 2186.59 210.504 L2190.96 210.504 L2190.96 214.069 L2186.59 214.069 Q2181.66 214.069 2179.78 212.24 Q2177.91 210.388 2177.91 205.527 L2177.91 191.453 L2174.78 191.453 L2174.78 188.143 L2177.91 188.143 L2177.91 180.782 L2182.19 180.782 Z" fill="#000000" fill-rule="nonzero" fill-opacity="1" /><path clip-path="url(#clip730)" d="M2196.56 188.143 L2200.82 188.143 L2200.82 214.069 L2196.56 214.069 L2196.56 188.143 M2196.56 178.05 L2200.82 178.05 L2200.82 183.444 L2196.56 183.444 L2196.56 178.05 Z" fill="#000000" fill-rule="nonzero" fill-opacity="1" /><path clip-path="url(#clip730)" d="M2219.78 191.129 Q2216.36 191.129 2214.37 193.814 Q2212.37 196.476 2212.37 201.129 Q2212.37 205.782 2214.34 208.467 Q2216.33 211.129 2219.78 211.129 Q2223.18 211.129 2225.18 208.444 Q2227.17 205.758 2227.17 201.129 Q2227.17 196.522 2225.18 193.837 Q2223.18 191.129 2219.78 191.129 M2219.78 187.518 Q2225.34 187.518 2228.51 191.129 Q2231.68 194.74 2231.68 201.129 Q2231.68 207.495 2228.51 211.129 Q2225.34 214.74 2219.78 214.74 Q2214.2 214.74 2211.03 211.129 Q2207.88 207.495 2207.88 201.129 Q2207.88 194.74 2211.03 191.129 Q2214.2 187.518 2219.78 187.518 Z" fill="#000000" fill-rule="nonzero" fill-opacity="1" /><path clip-path="url(#clip730)" d="M2260.29 198.421 L2260.29 214.069 L2256.03 214.069 L2256.03 198.559 Q2256.03 194.879 2254.6 193.05 Q2253.16 191.222 2250.29 191.222 Q2246.84 191.222 2244.85 193.421 Q2242.86 195.62 2242.86 199.416 L2242.86 214.069 L2238.58 214.069 L2238.58 188.143 L2242.86 188.143 L2242.86 192.171 Q2244.39 189.833 2246.45 188.675 Q2248.53 187.518 2251.24 187.518 Q2255.71 187.518 2258 190.296 Q2260.29 193.05 2260.29 198.421 Z" fill="#000000" fill-rule="nonzero" fill-opacity="1" /></svg>
